0
SECTION
2
HEADER
9
$MEASUREMENT
70
1
0
ENDSEC
0
SECTION
2
TABLES
0
TABLE
2
LTYPE
0
LTYPE
72
65
70
64
2
CONTINUOUS
3
______
73
0
40
0
0
ENDTAB
0
TABLE
2
LAYER
0
LAYER
2
DEFAULT_255_2_778
70
0
62
255
6
CONTINUOUS
0
LAYER
2
DEFAULT_255_1_542
70
0
62
255
6
CONTINUOUS
0
ENDTAB
0
ENDSEC
0
SECTION
2
ENTITIES
0
ARC
8
DEFAULT_255_2_778
10
9.4714482
20
3.8406008
40
6.6933326
50
168.541472
51
180.0352475
0
ARC
8
DEFAULT_255_2_778
10
9.3536576
20
3.8624864
40
6.5735422
50
153.0463229
51
168.5244689
0
ARC
8
DEFAULT_255_2_778
10
9.3822328
20
3.8462071
40
6.6063925
50
109.7078398
51
153.0328055
0
ARC
8
DEFAULT_255_2_778
10
9.3740716
20
3.8498054
40
6.6002561
50
96.3164082
51
109.6516769
0
ARC
8
DEFAULT_255_2_778
10
9.3912407
20
3.7069124
40
6.7441708
50
89.9874593
51
96.3278261
0
ARC
8
DEFAULT_255_2_778
10
9.3968345
20
3.7577518
40
6.6933326
50
78.541472
51
90.0352475
0
ARC
8
DEFAULT_255_2_778
10
9.4187201
20
3.8755424
40
6.5735422
50
63.0463229
51
78.5244689
0
ARC
8
DEFAULT_255_2_778
10
9.4024408
20
3.8469672
40
6.6063925
50
19.7078398
51
63.0328055
0
ARC
8
DEFAULT_255_2_778
10
9.4060391
20
3.8551284
40
6.6002561
50
6.3164082
51
19.6516769
0
ARC
8
DEFAULT_255_2_778
10
9.2631461
20
3.8379593
40
6.7441708
50
359.9874593
51
6.3278261
0
ARC
8
DEFAULT_255_2_778
10
9.3139855
20
3.8323655
40
6.6933326
50
348.541472
51
0.0352475
0
ARC
8
DEFAULT_255_2_778
10
9.4317761
20
3.8104799
40
6.5735422
50
333.0463229
51
348.5244689
0
ARC
8
DEFAULT_255_2_778
10
9.4032009
20
3.8267592
40
6.6063925
50
289.7078398
51
333.0328055
0
ARC
8
DEFAULT_255_2_778
10
9.4113621
20
3.8231609
40
6.6002561
50
276.3164082
51
289.6516769
0
ARC
8
DEFAULT_255_2_778
10
9.394193
20
3.9660539
40
6.7441708
50
269.9874593
51
276.3278261
0
ARC
8
DEFAULT_255_2_778
10
9.3885992
20
3.9152145
40
6.6933326
50
258.541472
51
270.0352475
0
ARC
8
DEFAULT_255_2_778
10
9.3667136
20
3.7974239
40
6.5735422
50
243.0463229
51
258.5244689
0
ARC
8
DEFAULT_255_2_778
10
9.3829929
20
3.8259991
40
6.6063925
50
199.7078398
51
243.0328055
0
ARC
8
DEFAULT_255_2_778
10
9.3793946
20
3.8178379
40
6.6002561
50
186.3164082
51
199.6516769
0
ARC
8
DEFAULT_255_2_778
10
9.5222876
20
3.835007
40
6.7441708
50
179.9874593
51
186.3278261
0
LINE
8
DEFAULT_255_2_778
10
2.7781169
20
3.8364831
11
2.7781169
21
3.8364831
0
LINE
8
DEFAULT_255_2_778
10
2.7781169
20
3.8365
11
16.0073169
21
3.8365
0
LINE
8
DEFAULT_255_1_542
10
8.4838623
20
5.8991
11
8.0792684
21
5.8991
0
LINE
8
DEFAULT_255_1_542
10
8.0792684
20
5.8991
11
8.0792684
21
7.3608586
0
LINE
8
DEFAULT_255_1_542
10
8.0792684
20
7.3608586
11
8.4918939
21
7.3608586
0
LINE
8
DEFAULT_255_1_542
10
9.1364331
20
6.6791731
11
9.1364331
21
6.5858053
0
LINE
8
DEFAULT_255_1_542
10
8.4969137
20
7.2022337
11
8.2720278
21
7.2022337
0
LINE
8
DEFAULT_255_1_542
10
8.2720278
20
7.2022337
11
8.2720278
21
6.0567209
0
LINE
8
DEFAULT_255_1_542
10
8.2720278
20
6.0567209
11
8.4748267
21
6.0567209
0
LINE
8
DEFAULT_255_1_542
10
8.9456816
20
6.5898211
11
8.9456816
21
6.6751573
0
ARC
8
DEFAULT_255_1_542
10
8.49676
20
6.6276965
40
0.7331782
50
75.4101014
51
90.3802694
0
ARC
8
DEFAULT_255_1_542
10
8.5254547
20
6.7472842
40
0.6102233
50
60.1455537
51
75.1890284
0
ARC
8
DEFAULT_255_1_542
10
8.5452968
20
6.7818633
40
0.5703556
50
26.5254113
51
60.1450941
0
ARC
8
DEFAULT_255_1_542
10
8.4052704
20
6.7076107
40
0.7288136
50
7.4030186
51
26.832131
0
ARC
8
DEFAULT_255_1_542
10
8.2059785
20
6.6765652
40
0.9304584
50
0.160588
51
7.7175801
0
ARC
8
DEFAULT_255_1_542
10
8.2264737
20
6.5810207
40
0.909972
50
348.729
51
0.3012613
0
ARC
8
DEFAULT_255_1_542
10
8.4335226
20
6.5398926
40
0.6988779
50
333.0707277
51
348.7181154
0
ARC
8
DEFAULT_255_1_542
10
8.5543728
20
6.4742575
40
0.5614194
50
299.2531153
51
333.4571273
0
ARC
8
DEFAULT_255_1_542
10
8.5092633
20
6.5599484
40
0.6582306
50
278.1072906
51
299.0339478
0
ARC
8
DEFAULT_255_1_542
10
8.4772727
20
6.7483975
40
0.849323
50
270.4445459
51
278.4509706
0
ARC
8
DEFAULT_255_1_542
10
8.479878
20
6.6322505
40
0.5755517
50
269.4971374
51
284.0204007
0
ARC
8
DEFAULT_255_1_542
10
8.5242919
20
6.461589
40
0.3992182
50
283.7699562
51
318.1556187
0
ARC
8
DEFAULT_255_1_542
10
8.4821345
20
6.4931394
40
0.4516949
50
318.7416444
51
343.6873402
0
ARC
8
DEFAULT_255_1_542
10
8.2566405
20
6.5635718
40
0.6879074
50
343.3324731
51
355.8548303
0
ARC
8
DEFAULT_255_1_542
10
7.9942795
20
6.5885118
40
0.9514032
50
355.4988934
51
0.0788461
0
ARC
8
DEFAULT_255_1_542
10
8.0921761
20
6.6804379
40
0.8535218
50
359.6455143
51
9.8607261
0
ARC
8
DEFAULT_255_1_542
10
8.387264
20
6.7337272
40
0.5536709
50
9.6571622
51
26.1931971
0
ARC
8
DEFAULT_255_1_542
10
8.5032622
20
6.7876028
40
0.4258133
50
26.5778125
51
40.1532658
0
ARC
8
DEFAULT_255_1_542
10
8.535229
20
6.812542
40
0.385302
50
40.3840107
51
80.1431587
0
ARC
8
DEFAULT_255_1_542
10
8.4943692
20
6.631389
40
0.5708505
50
79.2151469
51
89.744611
0
LINE
8
DEFAULT_255_1_542
10
9.6343948
20
7.3608586
11
9.6343948
21
5.8991
0
LINE
8
DEFAULT_255_1_542
10
9.6343948
20
5.8991
11
9.4416354
21
5.8991
0
LINE
8
DEFAULT_255_1_542
10
9.4416354
20
5.8991
11
9.4416354
21
7.3608586
0
LINE
8
DEFAULT_255_1_542
10
9.4416354
20
7.3608586
11
9.6343948
21
7.3608586
0
LINE
8
DEFAULT_255_1_542
10
9.0181833
20
2.0761863
11
9.0181833
21
0.6074
0
LINE
8
DEFAULT_255_1_542
10
9.0181833
20
0.6074
11
8.8314476
21
0.6074
0
LINE
8
DEFAULT_255_1_542
10
8.8314476
20
0.6074
11
8.8314476
21
1.8452766
0
LINE
8
DEFAULT_255_1_542
10
8.8314476
20
1.8452766
11
8.4569724
21
1.7077348
0
LINE
8
DEFAULT_255_1_542
10
8.4569724
20
1.7077348
11
8.4569724
21
1.8763992
0
LINE
8
DEFAULT_255_1_542
10
8.4569724
20
1.8763992
11
8.9890686
21
2.0761863
0
LINE
8
DEFAULT_255_1_542
10
8.9890686
20
2.0761863
11
9.0181833
21
2.0761863
0
ENDSEC
0
EOF