  0
SECTION
  2
HEADER
  9
$ACADVER
  1
AC1024
  9
$ACADMAINTVER
 70
6
  9
$DWGCODEPAGE
  3
ANSI_1252
  9
$LASTSAVEDBY
  1
ezdxf
  9
$INSBASE
 10
0.0
 20
0.0
 30
0.0
  9
$EXTMIN
 10
1e+20
 20
1e+20
 30
1e+20
  9
$EXTMAX
 10
-1e+20
 20
-1e+20
 30
-1e+20
  9
$LIMMIN
 10
0.0
 20
0.0
  9
$LIMMAX
 10
420.0
 20
297.0
  9
$ORTHOMODE
 70
0
  9
$REGENMODE
 70
1
  9
$FILLMODE
 70
1
  9
$QTEXTMODE
 70
0
  9
$MIRRTEXT
 70
1
  9
$LTSCALE
 40
1.0
  9
$ATTMODE
 70
1
  9
$TEXTSIZE
 40
2.5
  9
$TRACEWID
 40
1.0
  9
$TEXTSTYLE
  7
OpenSans
  9
$CLAYER
  8
0
  9
$CELTYPE
  6
ByLayer
  9
$CECOLOR
 62
256
  9
$CELTSCALE
 40
1.0
  9
$DISPSILH
 70
0
  9
$DIMSCALE
 40
1.0
  9
$DIMASZ
 40
0.175
  9
$DIMEXO
 40
0.125
  9
$DIMDLI
 40
3.75
  9
$DIMRND
 40
0.0
  9
$DIMDLE
 40
0.0
  9
$DIMEXE
 40
0.375
  9
$DIMTP
 40
0.0
  9
$DIMTM
 40
0.0
  9
$DIMTXT
 40
0.25
  9
$DIMCEN
 40
2.5
  9
$DIMTSZ
 40
0.0
  9
$DIMTOL
 70
0
  9
$DIMLIM
 70
0
  9
$DIMTIH
 70
0
  9
$DIMTOH
 70
0
  9
$DIMSE1
 70
0
  9
$DIMSE2
 70
0
  9
$DIMTAD
 70
1
  9
$DIMZIN
 70
12
  9
$DIMBLK
  1
ARCHTICK
  9
$DIMASO
 70
1
  9
$DIMSHO
 70
1
  9
$DIMPOST
  1

  9
$DIMAPOST
  1

  9
$DIMALT
 70
0
  9
$DIMALTD
 70
3
  9
$DIMALTF
 40
0.03937007874
  9
$DIMLFAC
 40
100.0
  9
$DIMTOFL
 70
1
  9
$DIMTVP
 40
0.0
  9
$DIMTIX
 70
0
  9
$DIMSOXD
 70
0
  9
$DIMSAH
 70
0
  9
$DIMBLK1
  1

  9
$DIMBLK2
  1

  9
$DIMSTYLE
  2
EZDXF
  9
$DIMCLRD
 70
0
  9
$DIMCLRE
 70
0
  9
$DIMCLRT
 70
0
  9
$DIMTFAC
 40
0.5
  9
$DIMGAP
 40
0.1
  9
$DIMJUST
 70
0
  9
$DIMSD1
 70
0
  9
$DIMSD2
 70
0
  9
$DIMTOLJ
 70
0
  9
$DIMTZIN
 70
8
  9
$DIMALTZ
 70
0
  9
$DIMALTTZ
 70
0
  9
$DIMUPT
 70
1
  9
$DIMDEC
 70
2
  9
$DIMTDEC
 70
2
  9
$DIMALTU
 70
2
  9
$DIMALTTD
 70
3
  9
$DIMTXSTY
  7
OpenSansCondensed-Light
  9
$DIMAUNIT
 70
0
  9
$DIMADEC
 70
2
  9
$DIMALTRND
 40
0.0
  9
$DIMAZIN
 70
3
  9
$DIMDSEP
 70
46
  9
$DIMATFIT
 70
3
  9
$DIMFRAC
 70
0
  9
$DIMLDRBLK
  1

  9
$DIMLUNIT
 70
2
  9
$DIMLWD
 70
-2
  9
$DIMLWE
 70
-2
  9
$DIMTMOVE
 70
2
  9
$DIMFXL
 40
1.0
  9
$DIMFXLON
 70
0
  9
$DIMJOGANG
 40
0.785398163397
  9
$DIMTFILL
 70
0
  9
$DIMTFILLCLR
 70
0
  9
$DIMARCSYM
 70
0
  9
$DIMLTYPE
  6

  9
$DIMLTEX1
  6

  9
$DIMLTEX2
  6

  9
$DIMTXTDIRECTION
 70
0
  9
$LUNITS
 70
2
  9
$LUPREC
 70
4
  9
$SKETCHINC
 40
1.0
  9
$FILLETRAD
 40
10.0
  9
$AUNITS
 70
0
  9
$AUPREC
 70
2
  9
$MENU
  1
.
  9
$ELEVATION
 40
0.0
  9
$PELEVATION
 40
0.0
  9
$THICKNESS
 40
0.0
  9
$LIMCHECK
 70
0
  9
$CHAMFERA
 40
0.0
  9
$CHAMFERB
 40
0.0
  9
$CHAMFERC
 40
0.0
  9
$CHAMFERD
 40
0.0
  9
$SKPOLY
 70
0
  9
$TDCREATE
 40
2461200.754837963
  9
$TDUCREATE
 40
2458532.153996898
  9
$TDUPDATE
 40
2461200.754849537
  9
$TDUUPDATE
 40
2458532.1544311
  9
$TDINDWG
 40
0.0
  9
$TDUSRTIMER
 40
0.0
  9
$USRTIMER
 70
1
  9
$ANGBASE
 50
0.0
  9
$ANGDIR
 70
0
  9
$PDMODE
 70
0
  9
$PDSIZE
 40
0.0
  9
$PLINEWID
 40
0.0
  9
$SPLFRAME
 70
0
  9
$SPLINETYPE
 70
6
  9
$SPLINESEGS
 70
8
  9
$HANDSEED
  5
1F4
  9
$SURFTAB1
 70
6
  9
$SURFTAB2
 70
6
  9
$SURFTYPE
 70
6
  9
$SURFU
 70
6
  9
$SURFV
 70
6
  9
$UCSBASE
  2

  9
$UCSNAME
  2

  9
$UCSORG
 10
0.0
 20
0.0
 30
0.0
  9
$UCSXDIR
 10
1.0
 20
0.0
 30
0.0
  9
$UCSYDIR
 10
0.0
 20
1.0
 30
0.0
  9
$UCSORTHOREF
  2

  9
$UCSORTHOVIEW
 70
0
  9
$UCSORGTOP
 10
0.0
 20
0.0
 30
0.0
  9
$UCSORGBOTTOM
 10
0.0
 20
0.0
 30
0.0
  9
$UCSORGLEFT
 10
0.0
 20
0.0
 30
0.0
  9
$UCSORGRIGHT
 10
0.0
 20
0.0
 30
0.0
  9
$UCSORGFRONT
 10
0.0
 20
0.0
 30
0.0
  9
$UCSORGBACK
 10
0.0
 20
0.0
 30
0.0
  9
$PUCSBASE
  2

  9
$PUCSNAME
  2

  9
$PUCSORG
 10
0.0
 20
0.0
 30
0.0
  9
$PUCSXDIR
 10
1.0
 20
0.0
 30
0.0
  9
$PUCSYDIR
 10
0.0
 20
1.0
 30
0.0
  9
$PUCSORTHOREF
  2

  9
$PUCSORTHOVIEW
 70
0
  9
$PUCSORGTOP
 10
0.0
 20
0.0
 30
0.0
  9
$PUCSORGBOTTOM
 10
0.0
 20
0.0
 30
0.0
  9
$PUCSORGLEFT
 10
0.0
 20
0.0
 30
0.0
  9
$PUCSORGRIGHT
 10
0.0
 20
0.0
 30
0.0
  9
$PUCSORGFRONT
 10
0.0
 20
0.0
 30
0.0
  9
$PUCSORGBACK
 10
0.0
 20
0.0
 30
0.0
  9
$USERI1
 70
0
  9
$USERI2
 70
0
  9
$USERI3
 70
0
  9
$USERI4
 70
0
  9
$USERI5
 70
0
  9
$USERR1
 40
0.0
  9
$USERR2
 40
0.0
  9
$USERR3
 40
0.0
  9
$USERR4
 40
0.0
  9
$USERR5
 40
0.0
  9
$WORLDVIEW
 70
1
  9
$SHADEDGE
 70
3
  9
$SHADEDIF
 70
70
  9
$TILEMODE
 70
1
  9
$MAXACTVP
 70
64
  9
$PINSBASE
 10
0.0
 20
0.0
 30
0.0
  9
$PLIMCHECK
 70
0
  9
$PEXTMIN
 10
1e+20
 20
1e+20
 30
1e+20
  9
$PEXTMAX
 10
-1e+20
 20
-1e+20
 30
-1e+20
  9
$PLIMMIN
 10
0.0
 20
0.0
  9
$PLIMMAX
 10
420.0
 20
297.0
  9
$UNITMODE
 70
0
  9
$VISRETAIN
 70
1
  9
$PLINEGEN
 70
0
  9
$PSLTSCALE
 70
1
  9
$TREEDEPTH
 70
3020
  9
$CMLSTYLE
  2
Standard
  9
$CMLJUST
 70
0
  9
$CMLSCALE
 40
20.0
  9
$PROXYGRAPHICS
 70
1
  9
$MEASUREMENT
 70
1
  9
$CELWEIGHT
370
-1
  9
$ENDCAPS
280
0
  9
$JOINSTYLE
280
0
  9
$LWDISPLAY
290
0
  9
$INSUNITS
 70
6
  9
$HYPERLINKBASE
  1

  9
$STYLESHEET
  1

  9
$XEDIT
290
1
  9
$CEPSNTYPE
380
0
  9
$PSTYLEMODE
290
1
  9
$FINGERPRINTGUID
  2
{C09531EE-1525-437B-A12E-3901D88E95B1}
  9
$VERSIONGUID
  2
{5FE83B5B-6702-4C47-8EA6-1CC9E1A5C895}
  9
$EXTNAMES
290
1
  9
$PSVPSCALE
 40
0.0
  9
$OLESTARTUP
290
0
  9
$SORTENTS
280
127
  9
$INDEXCTL
280
0
  9
$HIDETEXT
280
1
  9
$XCLIPFRAME
280
1
  9
$HALOGAP
280
0
  9
$OBSCOLOR
 70
257
  9
$OBSLTYPE
280
0
  9
$INTERSECTIONDISPLAY
280
0
  9
$INTERSECTIONCOLOR
 70
257
  9
$DIMASSOC
280
2
  9
$PROJECTNAME
  1

  9
$CAMERADISPLAY
290
0
  9
$LENSLENGTH
 40
50.0
  9
$CAMERAHEIGHT
 40
0.0
  9
$STEPSPERSEC
 40
24.0
  9
$STEPSIZE
 40
100.0
  9
$3DDWFPREC
 40
2.0
  9
$PSOLWIDTH
 40
0.005
  9
$PSOLHEIGHT
 40
0.08
  9
$LOFTANG1
 40
1.570796326795
  9
$LOFTANG2
 40
1.570796326795
  9
$LOFTMAG1
 40
0.0
  9
$LOFTMAG2
 40
0.0
  9
$LOFTPARAM
 70
7
  9
$LOFTNORMALS
280
1
  9
$LATITUDE
 40
37.795
  9
$LONGITUDE
 40
-122.394
  9
$NORTHDIRECTION
 40
0.0
  9
$TIMEZONE
 70
-8000
  9
$LIGHTGLYPHDISPLAY
280
1
  9
$TILEMODELIGHTSYNCH
280
1
  9
$CMATERIAL
347
20
  9
$SOLIDHIST
280
0
  9
$SHOWHIST
280
1
  9
$DWFFRAME
280
2
  9
$DGNFRAME
280
2
  9
$REALWORLDSCALE
290
1
  9
$INTERFERECOLOR
 62
256
  9
$CSHADOW
280
0
  9
$SHADOWPLANELOCATION
 40
0.0
  0
ENDSEC
  0
SECTION
  2
CLASSES
  0
CLASS
  1
ACDBDICTIONARYWDFLT
  2
AcDbDictionaryWithDefault
  3
ObjectDBX Classes
 90
0
 91
0
280
0
281
0
  0
CLASS
  1
SUN
  2
AcDbSun
  3
SCENEOE
 90
1153
 91
0
280
0
281
0
  0
CLASS
  1
VISUALSTYLE
  2
AcDbVisualStyle
  3
ObjectDBX Classes
 90
4095
 91
0
280
0
281
0
  0
CLASS
  1
MATERIAL
  2
AcDbMaterial
  3
ObjectDBX Classes
 90
1153
 91
0
280
0
281
0
  0
CLASS
  1
SCALE
  2
AcDbScale
  3
ObjectDBX Classes
 90
1153
 91
0
280
0
281
0
  0
CLASS
  1
TABLESTYLE
  2
AcDbTableStyle
  3
ObjectDBX Classes
 90
4095
 91
0
280
0
281
0
  0
CLASS
  1
MLEADERSTYLE
  2
AcDbMLeaderStyle
  3
ACDB_MLEADERSTYLE_CLASS
 90
4095
 91
0
280
0
281
0
  0
CLASS
  1
DICTIONARYVAR
  2
AcDbDictionaryVar
  3
ObjectDBX Classes
 90
0
 91
0
280
0
281
0
  0
CLASS
  1
CELLSTYLEMAP
  2
AcDbCellStyleMap
  3
ObjectDBX Classes
 90
1152
 91
0
280
0
281
0
  0
CLASS
  1
MENTALRAYRENDERSETTINGS
  2
AcDbMentalRayRenderSettings
  3
SCENEOE
 90
1024
 91
0
280
0
281
0
  0
CLASS
  1
ACDBDETAILVIEWSTYLE
  2
AcDbDetailViewStyle
  3
ObjectDBX Classes
 90
1025
 91
0
280
0
281
0
  0
CLASS
  1
ACDBSECTIONVIEWSTYLE
  2
AcDbSectionViewStyle
  3
ObjectDBX Classes
 90
1025
 91
0
280
0
281
0
  0
CLASS
  1
RASTERVARIABLES
  2
AcDbRasterVariables
  3
ISM
 90
0
 91
0
280
0
281
0
  0
CLASS
  1
ACDBPLACEHOLDER
  2
AcDbPlaceHolder
  3
ObjectDBX Classes
 90
0
 91
0
280
0
281
0
  0
CLASS
  1
LAYOUT
  2
AcDbLayout
  3
ObjectDBX Classes
 90
0
 91
0
280
0
281
0
  0
ENDSEC
  0
SECTION
  2
TABLES
  0
TABLE
  2
VPORT
  5
8
330
0
100
AcDbSymbolTable
 70
1
  0
VPORT
  5
23
330
8
100
AcDbSymbolTableRecord
100
AcDbViewportTableRecord
  2
*Active
 70
0
 10
0.0
 20
0.0
 11
1.0
 21
1.0
 12
0.0
 22
0.0
 13
0.0
 23
0.0
 14
0.5
 24
0.5
 15
0.5
 25
0.5
 16
0.0
 26
0.0
 36
1.0
 17
0.0
 27
0.0
 37
0.0
 40
1000.0
 41
1.34
 42
50.0
 43
0.0
 44
0.0
 50
0.0
 51
0.0
 71
0
 72
1000
 73
1
 74
3
 75
0
 76
0
 77
0
 78
0
281
0
 65
0
146
0.0
  0
ENDTAB
  0
TABLE
  2
LTYPE
  5
2
330
0
100
AcDbSymbolTable
 70
23
  0
LTYPE
  5
24
330
2
100
AcDbSymbolTableRecord
100
AcDbLinetypeTableRecord
  2
ByBlock
 70
0
  3

 72
65
 73
0
 40
0.0
  0
LTYPE
  5
25
330
2
100
AcDbSymbolTableRecord
100
AcDbLinetypeTableRecord
  2
ByLayer
 70
0
  3

 72
65
 73
0
 40
0.0
  0
LTYPE
  5
26
330
2
100
AcDbSymbolTableRecord
100
AcDbLinetypeTableRecord
  2
Continuous
 70
0
  3

 72
65
 73
0
 40
0.0
  0
LTYPE
  5
2F
330
2
100
AcDbSymbolTableRecord
100
AcDbLinetypeTableRecord
  2
CENTER
 70
0
  3
Center ____ _ ____ _ ____ _ ____ _ ____ _ ____
 72
65
 73
4
 40
5.08
 49
3.175
 74
0
 49
-0.635
 74
0
 49
0.635
 74
0
 49
-0.635
 74
0
  0
LTYPE
  5
30
330
2
100
AcDbSymbolTableRecord
100
AcDbLinetypeTableRecord
  2
CENTERX2
 70
0
  3
Center (2x) ________  __  ________  __  ________
 72
65
 73
4
 40
8.89
 49
6.35
 74
0
 49
-0.635
 74
0
 49
1.27
 74
0
 49
-0.635
 74
0
  0
LTYPE
  5
31
330
2
100
AcDbSymbolTableRecord
100
AcDbLinetypeTableRecord
  2
CENTER2
 70
0
  3
Center (.5x) ____ _ ____ _ ____ _ ____ _ ____
 72
65
 73
4
 40
2.54
 49
1.587
 74
0
 49
-0.318
 74
0
 49
0.318
 74
0
 49
-0.318
 74
0
  0
LTYPE
  5
32
330
2
100
AcDbSymbolTableRecord
100
AcDbLinetypeTableRecord
  2
DASHED
 70
0
  3
Dashed __ __ __ __ __ __ __ __ __ __ __ __ __ _
 72
65
 73
2
 40
1.524
 49
1.27
 74
0
 49
-0.254
 74
0
  0
LTYPE
  5
33
330
2
100
AcDbSymbolTableRecord
100
AcDbLinetypeTableRecord
  2
DASHEDX2
 70
0
  3
Dashed (2x) ____  ____  ____  ____  ____  ____
 72
65
 73
2
 40
3.048
 49
2.54
 74
0
 49
-0.508
 74
0
  0
LTYPE
  5
34
330
2
100
AcDbSymbolTableRecord
100
AcDbLinetypeTableRecord
  2
DASHED2
 70
0
  3
Dashed (.5x) _ _ _ _ _ _ _ _ _ _ _ _ _ _
 72
65
 73
2
 40
0.762
 49
0.635
 74
0
 49
-0.127
 74
0
  0
LTYPE
  5
35
330
2
100
AcDbSymbolTableRecord
100
AcDbLinetypeTableRecord
  2
PHANTOM
 70
0
  3
Phantom ______  __  __  ______  __  __  ______
 72
65
 73
6
 40
6.35
 49
3.175
 74
0
 49
-0.635
 74
0
 49
0.635
 74
0
 49
-0.635
 74
0
 49
0.635
 74
0
 49
-0.635
 74
0
  0
LTYPE
  5
36
330
2
100
AcDbSymbolTableRecord
100
AcDbLinetypeTableRecord
  2
PHANTOMX2
 70
0
  3
Phantom (2x)____________    ____    ____    ____________
 72
65
 73
6
 40
10.795
 49
6.35
 74
0
 49
-0.635
 74
0
 49
1.27
 74
0
 49
-0.635
 74
0
 49
1.27
 74
0
 49
-0.635
 74
0
  0
LTYPE
  5
37
330
2
100
AcDbSymbolTableRecord
100
AcDbLinetypeTableRecord
  2
PHANTOM2
 70
0
  3
Phantom (.5x) ___ _ _ ___ _ _ ___ _ _ ___ _ _ ___
 72
65
 73
6
 40
3.175
 49
1.587
 74
0
 49
-0.318
 74
0
 49
0.318
 74
0
 49
-0.318
 74
0
 49
0.318
 74
0
 49
-0.318
 74
0
  0
LTYPE
  5
38
330
2
100
AcDbSymbolTableRecord
100
AcDbLinetypeTableRecord
  2
DASHDOT
 70
0
  3
Dash dot __ . __ . __ . __ . __ . __ . __ . __
 72
65
 73
4
 40
3.556
 49
2.54
 74
0
 49
-0.508
 74
0
 49
0.0
 74
0
 49
-0.508
 74
0
  0
LTYPE
  5
39
330
2
100
AcDbSymbolTableRecord
100
AcDbLinetypeTableRecord
  2
DASHDOTX2
 70
0
  3
Dash dot (2x) ____  .  ____  .  ____  .  ____
 72
65
 73
4
 40
6.096
 49
5.08
 74
0
 49
-0.508
 74
0
 49
0.0
 74
0
 49
-0.508
 74
0
  0
LTYPE
  5
3A
330
2
100
AcDbSymbolTableRecord
100
AcDbLinetypeTableRecord
  2
DASHDOT2
 70
0
  3
Dash dot (.5x) _ . _ . _ . _ . _ . _ . _ . _
 72
65
 73
4
 40
1.778
 49
1.27
 74
0
 49
-0.254
 74
0
 49
0.0
 74
0
 49
-0.254
 74
0
  0
LTYPE
  5
3B
330
2
100
AcDbSymbolTableRecord
100
AcDbLinetypeTableRecord
  2
DOT
 70
0
  3
Dot .  .  .  .  .  .  .  .  .  .  .  .  .  .  .  .
 72
65
 73
2
 40
0.508
 49
0.0
 74
0
 49
-0.508
 74
0
  0
LTYPE
  5
3C
330
2
100
AcDbSymbolTableRecord
100
AcDbLinetypeTableRecord
  2
DOTX2
 70
0
  3
Dot (2x) .    .    .    .    .    .    .    . 
 72
65
 73
2
 40
1.016
 49
0.0
 74
0
 49
-1.016
 74
0
  0
LTYPE
  5
3D
330
2
100
AcDbSymbolTableRecord
100
AcDbLinetypeTableRecord
  2
DOT2
 70
0
  3
Dot (.5) . . . . . . . . . . . . . . . . . . . 
 72
65
 73
2
 40
0.254
 49
0.0
 74
0
 49
-0.254
 74
0
  0
LTYPE
  5
3E
330
2
100
AcDbSymbolTableRecord
100
AcDbLinetypeTableRecord
  2
DIVIDE
 70
0
  3
Divide __ . . __ . . __ . . __ . . __ . . __
 72
65
 73
6
 40
4.064
 49
2.54
 74
0
 49
-0.508
 74
0
 49
0.0
 74
0
 49
-0.508
 74
0
 49
0.0
 74
0
 49
-0.508
 74
0
  0
LTYPE
  5
3F
330
2
100
AcDbSymbolTableRecord
100
AcDbLinetypeTableRecord
  2
DIVIDEX2
 70
0
  3
Divide (2x) ____  . .  ____  . .  ____  . .  ____
 72
65
 73
6
 40
6.604
 49
5.08
 74
0
 49
-0.508
 74
0
 49
0.0
 74
0
 49
-0.508
 74
0
 49
0.0
 74
0
 49
-0.508
 74
0
  0
LTYPE
  5
40
330
2
100
AcDbSymbolTableRecord
100
AcDbLinetypeTableRecord
  2
DIVIDE2
 70
0
  3
Divide(.5x) _ . _ . _ . _ . _ . _ . _ . _
 72
65
 73
6
 40
2.032
 49
1.27
 74
0
 49
-0.254
 74
0
 49
0.0
 74
0
 49
-0.254
 74
0
 49
0.0
 74
0
 49
-0.254
 74
0
  0
LTYPE
  5
9D
330
2
100
AcDbSymbolTableRecord
100
AcDbLinetypeTableRecord
  2
DOTTED
 70
0
  3

 72
65
 73
2
 40
0.1
 49
0.01
 74
0
 49
-0.05
 74
0
  0
LTYPE
  5
9E
330
2
100
AcDbSymbolTableRecord
100
AcDbLinetypeTableRecord
  2
SHORT_DASH
 70
0
  3

 72
65
 73
2
 40
1.5
 49
1.0
 74
0
 49
-0.5
 74
0
  0
ENDTAB
  0
TABLE
  2
LAYER
  5
1
330
0
100
AcDbSymbolTable
 70
21
  0
LAYER
  5
27
330
1
100
AcDbSymbolTableRecord
100
AcDbLayerTableRecord
  2
0
 70
0
 62
7
  6
Continuous
370
-3
390
13
347
21
  0
LAYER
  5
28
330
1
100
AcDbSymbolTableRecord
100
AcDbLayerTableRecord
  2
Defpoints
 70
0
 62
7
  6
Continuous
290
0
370
-3
390
13
347
21
  0
LAYER
  5
8A
330
1
100
AcDbSymbolTableRecord
100
AcDbLayerTableRecord
  2
BORDER
 70
0
 62
7
  6
Continuous
370
-3
390
13
347
21
  0
LAYER
  5
8B
330
1
100
AcDbSymbolTableRecord
100
AcDbLayerTableRecord
  2
TABLE
 70
0
 62
8
  6
Continuous
370
-3
390
13
347
21
  0
LAYER
  5
8C
330
1
100
AcDbSymbolTableRecord
100
AcDbLayerTableRecord
  2
TEXT
 70
0
 62
7
  6
Continuous
370
-3
390
13
347
21
  0
LAYER
  5
8D
330
1
100
AcDbSymbolTableRecord
100
AcDbLayerTableRecord
  2
EQUIPMENT
 70
0
 62
4
  6
Continuous
370
-3
390
13
347
21
  0
LAYER
  5
8E
330
1
100
AcDbSymbolTableRecord
100
AcDbLayerTableRecord
  2
SYMBOLS
 70
0
 62
4
  6
Continuous
370
-3
390
13
347
21
  0
LAYER
  5
8F
330
1
100
AcDbSymbolTableRecord
100
AcDbLayerTableRecord
  2
NOZZLES
 70
0
 62
1
  6
Continuous
370
-3
390
13
347
21
  0
LAYER
  5
90
330
1
100
AcDbSymbolTableRecord
100
AcDbLayerTableRecord
  2
PROCESS
 70
0
 62
1
  6
Continuous
370
-3
390
13
347
21
  0
LAYER
  5
91
330
1
100
AcDbSymbolTableRecord
100
AcDbLayerTableRecord
  2
UTILITY
 70
0
 62
5
  6
Continuous
370
-3
390
13
347
21
  0
LAYER
  5
92
330
1
100
AcDbSymbolTableRecord
100
AcDbLayerTableRecord
  2
FLARE
 70
0
 62
7
  6
Continuous
370
-3
390
13
347
21
  0
LAYER
  5
93
330
1
100
AcDbSymbolTableRecord
100
AcDbLayerTableRecord
  2
DRAIN
 70
0
 62
8
  6
Continuous
370
-3
390
13
347
21
  0
LAYER
  5
94
330
1
100
AcDbSymbolTableRecord
100
AcDbLayerTableRecord
  2
VALVES
 70
0
 62
1
  6
Continuous
370
-3
390
13
347
21
  0
LAYER
  5
95
330
1
100
AcDbSymbolTableRecord
100
AcDbLayerTableRecord
  2
INSTRUMENT
 70
0
 62
6
  6
Continuous
370
-3
390
13
347
21
  0
LAYER
  5
96
330
1
100
AcDbSymbolTableRecord
100
AcDbLayerTableRecord
  2
SIGNAL_ELECTRIC
 70
0
 62
2
  6
Continuous
370
-3
390
13
347
21
  0
LAYER
  5
97
330
1
100
AcDbSymbolTableRecord
100
AcDbLayerTableRecord
  2
SIGNAL_PNEUMATIC
 70
0
 62
2
  6
Continuous
370
-3
390
13
347
21
  0
LAYER
  5
98
330
1
100
AcDbSymbolTableRecord
100
AcDbLayerTableRecord
  2
SIGNAL_SOFTWARE
 70
0
 62
2
  6
Continuous
370
-3
390
13
347
21
  0
LAYER
  5
99
330
1
100
AcDbSymbolTableRecord
100
AcDbLayerTableRecord
  2
SIGNAL_SIS
 70
0
 62
2
  6
Continuous
370
-3
390
13
347
21
  0
LAYER
  5
9A
330
1
100
AcDbSymbolTableRecord
100
AcDbLayerTableRecord
  2
IMPULSE_LINE
 70
0
 62
2
  6
Continuous
370
-3
390
13
347
21
  0
LAYER
  5
9B
330
1
100
AcDbSymbolTableRecord
100
AcDbLayerTableRecord
  2
OFFPAGE
 70
0
 62
1
  6
Continuous
370
-3
390
13
347
21
  0
LAYER
  5
9C
330
1
100
AcDbSymbolTableRecord
100
AcDbLayerTableRecord
  2
QA_OVERLAY
 70
0
 62
2
  6
Continuous
370
-3
390
13
347
21
  0
ENDTAB
  0
TABLE
  2
STYLE
  5
5
330
0
100
AcDbSymbolTable
 70
26
  0
STYLE
  5
29
330
5
100
AcDbSymbolTableRecord
100
AcDbTextStyleTableRecord
  2
Standard
 70
0
 40
0.0
 41
1.0
 50
0.0
 71
0
 42
2.5
  3
txt
  4

  0
STYLE
  5
41
330
5
100
AcDbSymbolTableRecord
100
AcDbTextStyleTableRecord
  2
OpenSans-Light
 70
0
 40
0.0
 41
1.0
 50
0.0
 71
0
 42
2.5
  3
OpenSans-Light.ttf
  4

  0
STYLE
  5
42
330
5
100
AcDbSymbolTableRecord
100
AcDbTextStyleTableRecord
  2
OpenSans-Light-Italic
 70
0
 40
0.0
 41
1.0
 50
0.0
 71
0
 42
2.5
  3
OpenSans-LightItalic.ttf
  4

  0
STYLE
  5
43
330
5
100
AcDbSymbolTableRecord
100
AcDbTextStyleTableRecord
  2
OpenSans
 70
0
 40
0.0
 41
1.0
 50
0.0
 71
0
 42
2.5
  3
OpenSans-Regular.ttf
  4

  0
STYLE
  5
44
330
5
100
AcDbSymbolTableRecord
100
AcDbTextStyleTableRecord
  2
OpenSans-Italic
 70
0
 40
0.0
 41
1.0
 50
0.0
 71
0
 42
2.5
  3
OpenSans-Italic.ttf
  4

  0
STYLE
  5
45
330
5
100
AcDbSymbolTableRecord
100
AcDbTextStyleTableRecord
  2
OpenSans-SemiBold
 70
0
 40
0.0
 41
1.0
 50
0.0
 71
0
 42
2.5
  3
OpenSans-SemiBold.ttf
  4

  0
STYLE
  5
46
330
5
100
AcDbSymbolTableRecord
100
AcDbTextStyleTableRecord
  2
OpenSans-SemiBoldItalic
 70
0
 40
0.0
 41
1.0
 50
0.0
 71
0
 42
2.5
  3
OpenSans-SemiBoldItalic.ttf
  4

  0
STYLE
  5
47
330
5
100
AcDbSymbolTableRecord
100
AcDbTextStyleTableRecord
  2
OpenSans-Bold
 70
0
 40
0.0
 41
1.0
 50
0.0
 71
0
 42
2.5
  3
OpenSans-Bold.ttf
  4

  0
STYLE
  5
48
330
5
100
AcDbSymbolTableRecord
100
AcDbTextStyleTableRecord
  2
OpenSans-BoldItalic
 70
0
 40
0.0
 41
1.0
 50
0.0
 71
0
 42
2.5
  3
OpenSans-BoldItalic.ttf
  4

  0
STYLE
  5
49
330
5
100
AcDbSymbolTableRecord
100
AcDbTextStyleTableRecord
  2
OpenSans-ExtraBold
 70
0
 40
0.0
 41
1.0
 50
0.0
 71
0
 42
2.5
  3
OpenSans-ExtraBold.ttf
  4

  0
STYLE
  5
4A
330
5
100
AcDbSymbolTableRecord
100
AcDbTextStyleTableRecord
  2
OpenSans-ExtraBoldItalic
 70
0
 40
0.0
 41
1.0
 50
0.0
 71
0
 42
2.5
  3
OpenSans-ExtraBoldItalic.ttf
  4

  0
STYLE
  5
4B
330
5
100
AcDbSymbolTableRecord
100
AcDbTextStyleTableRecord
  2
OpenSansCondensed-Bold
 70
0
 40
0.0
 41
1.0
 50
0.0
 71
0
 42
2.5
  3
OpenSansCondensed-Bold.ttf
  4

  0
STYLE
  5
4C
330
5
100
AcDbSymbolTableRecord
100
AcDbTextStyleTableRecord
  2
OpenSansCondensed-Light
 70
0
 40
0.0
 41
1.0
 50
0.0
 71
0
 42
2.5
  3
OpenSansCondensed-Light.ttf
  4

  0
STYLE
  5
4D
330
5
100
AcDbSymbolTableRecord
100
AcDbTextStyleTableRecord
  2
OpenSansCondensed-Italic
 70
0
 40
0.0
 41
1.0
 50
0.0
 71
0
 42
2.5
  3
OpenSansCondensed-LightItalic.ttf
  4

  0
STYLE
  5
4E
330
5
100
AcDbSymbolTableRecord
100
AcDbTextStyleTableRecord
  2
LiberationSans
 70
0
 40
0.0
 41
1.0
 50
0.0
 71
0
 42
2.5
  3
LiberationSans-Regular.ttf
  4

  0
STYLE
  5
4F
330
5
100
AcDbSymbolTableRecord
100
AcDbTextStyleTableRecord
  2
LiberationSans-Bold
 70
0
 40
0.0
 41
1.0
 50
0.0
 71
0
 42
2.5
  3
LiberationSans-Bold.ttf
  4

  0
STYLE
  5
50
330
5
100
AcDbSymbolTableRecord
100
AcDbTextStyleTableRecord
  2
LiberationSans-BoldItalic
 70
0
 40
0.0
 41
1.0
 50
0.0
 71
0
 42
2.5
  3
LiberationSans-BoldItalic.ttf
  4

  0
STYLE
  5
51
330
5
100
AcDbSymbolTableRecord
100
AcDbTextStyleTableRecord
  2
LiberationSans-Italic
 70
0
 40
0.0
 41
1.0
 50
0.0
 71
0
 42
2.5
  3
LiberationSans-Italic.ttf
  4

  0
STYLE
  5
52
330
5
100
AcDbSymbolTableRecord
100
AcDbTextStyleTableRecord
  2
LiberationSerif
 70
0
 40
0.0
 41
1.0
 50
0.0
 71
0
 42
2.5
  3
LiberationSerif-Regular.ttf
  4

  0
STYLE
  5
53
330
5
100
AcDbSymbolTableRecord
100
AcDbTextStyleTableRecord
  2
LiberationSerif-Bold
 70
0
 40
0.0
 41
1.0
 50
0.0
 71
0
 42
2.5
  3
LiberationSerif-Bold.ttf
  4

  0
STYLE
  5
54
330
5
100
AcDbSymbolTableRecord
100
AcDbTextStyleTableRecord
  2
LiberationSerif-BoldItalic
 70
0
 40
0.0
 41
1.0
 50
0.0
 71
0
 42
2.5
  3
LiberationSerif-BoldItalic.ttf
  4

  0
STYLE
  5
55
330
5
100
AcDbSymbolTableRecord
100
AcDbTextStyleTableRecord
  2
LiberationSerif-Italic
 70
0
 40
0.0
 41
1.0
 50
0.0
 71
0
 42
2.5
  3
LiberationSerif-Italic.ttf
  4

  0
STYLE
  5
56
330
5
100
AcDbSymbolTableRecord
100
AcDbTextStyleTableRecord
  2
LiberationMono
 70
0
 40
0.0
 41
1.0
 50
0.0
 71
0
 42
2.5
  3
LiberationMono-Regular.ttf
  4

  0
STYLE
  5
57
330
5
100
AcDbSymbolTableRecord
100
AcDbTextStyleTableRecord
  2
LiberationMono-Bold
 70
0
 40
0.0
 41
1.0
 50
0.0
 71
0
 42
2.5
  3
LiberationMono-Bold.ttf
  4

  0
STYLE
  5
58
330
5
100
AcDbSymbolTableRecord
100
AcDbTextStyleTableRecord
  2
LiberationMono-BoldItalic
 70
0
 40
0.0
 41
1.0
 50
0.0
 71
0
 42
2.5
  3
LiberationMono-BoldItalic.ttf
  4

  0
STYLE
  5
59
330
5
100
AcDbSymbolTableRecord
100
AcDbTextStyleTableRecord
  2
LiberationMono-Italic
 70
0
 40
0.0
 41
1.0
 50
0.0
 71
0
 42
2.5
  3
LiberationMono-Italic.ttf
  4

  0
ENDTAB
  0
TABLE
  2
VIEW
  5
7
330
0
100
AcDbSymbolTable
 70
0
  0
ENDTAB
  0
TABLE
  2
UCS
  5
6
330
0
100
AcDbSymbolTable
 70
0
  0
ENDTAB
  0
TABLE
  2
APPID
  5
3
330
0
100
AcDbSymbolTable
 70
3
  0
APPID
  5
2A
330
3
100
AcDbSymbolTableRecord
100
AcDbRegAppTableRecord
  2
ACAD
 70
0
  0
APPID
  5
1F1
330
3
100
AcDbSymbolTableRecord
100
AcDbRegAppTableRecord
  2
HATCHBACKGROUNDCOLOR
 70
0
  0
APPID
  5
1F2
330
3
100
AcDbSymbolTableRecord
100
AcDbRegAppTableRecord
  2
EZDXF
 70
0
  0
ENDTAB
  0
TABLE
  2
DIMSTYLE
  5
4
330
0
100
AcDbSymbolTable
 70
12
100
AcDbDimStyleTable
  0
DIMSTYLE
105
2B
330
4
100
AcDbSymbolTableRecord
100
AcDbDimStyleTableRecord
  2
Standard
 70
0
 40
1.0
 41
2.5
 42
0.625
 43
3.75
 44
1.25
 45
0.0
 46
0.0
 47
0.0
 48
0.0
 49
2.5
140
2.5
141
2.5
142
0.0
143
0.03937007874
144
1.0
145
0.0
146
1.0
147
0.625
148
0.0
 69
0
 70
0
 71
0
 72
0
 73
0
 74
0
 75
0
 76
0
 77
1
 78
8
 79
3
170
0
171
3
172
1
173
0
174
0
175
0
176
0
177
0
178
0
179
2
271
2
272
2
273
2
274
3
275
0
276
0
277
2
278
44
279
0
280
0
281
0
282
0
283
0
284
8
285
0
286
0
288
0
289
3
290
0
371
-2
372
-2
  0
DIMSTYLE
105
73
330
4
100
AcDbSymbolTableRecord
100
AcDbDimStyleTableRecord
  2
EZDXF
 70
0
 40
1.0
 41
0.175
 42
0.125
 43
3.75
 44
0.375
 45
0.0
 46
0.0
 47
0.0
 48
0.0
 49
2.5
140
0.25
141
2.5
142
0.0
143
0.03937007874
144
100.0
145
0.0
146
0.5
147
0.1
148
0.0
 69
0
 70
0
 71
0
 72
0
 73
0
 74
0
 75
0
 76
0
 77
1
 78
12
 79
3
170
0
171
3
172
1
173
0
174
0
175
0
176
0
177
0
178
0
179
2
271
2
272
2
273
2
274
3
275
0
276
0
277
2
278
46
279
2
280
0
281
0
282
0
283
0
284
8
285
0
286
0
288
1
289
3
290
0
340
4C
342
74
371
-2
372
-2
  0
DIMSTYLE
105
7C
330
4
100
AcDbSymbolTableRecord
100
AcDbDimStyleTableRecord
  2
EZ_M_100_H25_CM
 70
0
 40
1.0
 41
0.25
 42
0.125
 43
3.75
 44
0.375
 45
0.0
 46
0.0
 47
0.0
 48
0.0
 49
2.5
140
0.25
141
2.5
142
0.125
143
0.03937007874
144
100.0
145
0.0
146
0.5
147
0.1
148
0.0
 69
0
 70
0
 71
0
 72
0
 73
0
 74
0
 75
0
 76
0
 77
1
 78
12
 79
3
170
0
171
3
172
1
173
0
174
0
175
0
176
0
177
0
178
0
179
2
271
2
272
2
273
2
274
3
275
0
276
0
277
2
278
46
279
2
280
0
281
0
282
0
283
0
284
8
285
0
286
0
288
1
289
3
290
0
340
4C
371
-2
372
-2
  0
DIMSTYLE
105
7D
330
4
100
AcDbSymbolTableRecord
100
AcDbDimStyleTableRecord
  2
EZ_M_50_H25_CM
 70
0
 40
1.0
 41
0.125
 42
0.0625
 43
3.75
 44
0.1875
 45
0.0
 46
0.0
 47
0.0
 48
0.0
 49
2.5
140
0.125
141
2.5
142
0.0625
143
0.03937007874
144
100.0
145
0.0
146
0.5
147
0.05
148
0.0
 69
0
 70
0
 71
0
 72
0
 73
0
 74
0
 75
0
 76
0
 77
1
 78
12
 79
3
170
0
171
3
172
1
173
0
174
0
175
0
176
0
177
0
178
0
179
2
271
2
272
2
273
2
274
3
275
0
276
0
277
2
278
46
279
2
280
0
281
0
282
0
283
0
284
8
285
0
286
0
288
1
289
3
290
0
340
4C
371
-2
372
-2
  0
DIMSTYLE
105
7E
330
4
100
AcDbSymbolTableRecord
100
AcDbDimStyleTableRecord
  2
EZ_M_25_H25_CM
 70
0
 40
1.0
 41
0.0625
 42
0.03125
 43
3.75
 44
0.09375
 45
0.0
 46
0.0
 47
0.0
 48
0.0
 49
2.5
140
0.0625
141
2.5
142
0.03125
143
0.03937007874
144
100.0
145
0.0
146
0.5
147
0.025
148
0.0
 69
0
 70
0
 71
0
 72
0
 73
0
 74
0
 75
0
 76
0
 77
1
 78
12
 79
3
170
0
171
3
172
1
173
0
174
0
175
0
176
0
177
0
178
0
179
2
271
2
272
2
273
2
274
3
275
0
276
0
277
2
278
46
279
2
280
0
281
0
282
0
283
0
284
8
285
0
286
0
288
1
289
3
290
0
340
4C
371
-2
372
-2
  0
DIMSTYLE
105
7F
330
4
100
AcDbSymbolTableRecord
100
AcDbDimStyleTableRecord
  2
EZ_M_20_H25_CM
 70
0
 40
1.0
 41
0.05
 42
0.025
 43
3.75
 44
0.07500000000000001
 45
0.0
 46
0.0
 47
0.0
 48
0.0
 49
2.5
140
0.05
141
2.5
142
0.025
143
0.03937007874
144
100.0
145
0.0
146
0.5
147
0.020000000000000004
148
0.0
 69
0
 70
0
 71
0
 72
0
 73
0
 74
0
 75
0
 76
0
 77
1
 78
12
 79
3
170
0
171
3
172
1
173
0
174
0
175
0
176
0
177
0
178
0
179
2
271
2
272
2
273
2
274
3
275
0
276
0
277
2
278
46
279
2
280
0
281
0
282
0
283
0
284
8
285
0
286
0
288
1
289
3
290
0
340
4C
371
-2
372
-2
  0
DIMSTYLE
105
80
330
4
100
AcDbSymbolTableRecord
100
AcDbDimStyleTableRecord
  2
EZ_M_10_H25_CM
 70
0
 40
1.0
 41
0.025
 42
0.0125
 43
3.75
 44
0.037500000000000006
 45
0.0
 46
0.0
 47
0.0
 48
0.0
 49
2.5
140
0.025
141
2.5
142
0.0125
143
0.03937007874
144
100.0
145
0.0
146
0.5
147
0.010000000000000002
148
0.0
 69
0
 70
0
 71
0
 72
0
 73
0
 74
0
 75
0
 76
0
 77
1
 78
12
 79
3
170
0
171
3
172
1
173
0
174
0
175
0
176
0
177
0
178
0
179
2
271
2
272
2
273
2
274
3
275
0
276
0
277
2
278
46
279
2
280
0
281
0
282
0
283
0
284
8
285
0
286
0
288
1
289
3
290
0
340
4C
371
-2
372
-2
  0
DIMSTYLE
105
81
330
4
100
AcDbSymbolTableRecord
100
AcDbDimStyleTableRecord
  2
EZ_M_5_H25_CM
 70
0
 40
1.0
 41
0.0125
 42
0.00625
 43
3.75
 44
0.018750000000000003
 45
0.0
 46
0.0
 47
0.0
 48
0.0
 49
2.5
140
0.0125
141
2.5
142
0.00625
143
0.03937007874
144
100.0
145
0.0
146
0.5
147
0.005000000000000001
148
0.0
 69
0
 70
0
 71
0
 72
0
 73
0
 74
0
 75
0
 76
0
 77
1
 78
12
 79
3
170
0
171
3
172
1
173
0
174
0
175
0
176
0
177
0
178
0
179
2
271
2
272
2
273
2
274
3
275
0
276
0
277
2
278
46
279
2
280
0
281
0
282
0
283
0
284
8
285
0
286
0
288
1
289
3
290
0
340
4C
371
-2
372
-2
  0
DIMSTYLE
105
82
330
4
100
AcDbSymbolTableRecord
100
AcDbDimStyleTableRecord
  2
EZ_M_1_H25_CM
 70
0
 40
1.0
 41
0.0025
 42
0.00125
 43
3.75
 44
0.00375
 45
0.0
 46
0.0
 47
0.0
 48
0.0
 49
2.5
140
0.0025
141
2.5
142
0.00125
143
0.03937007874
144
100.0
145
0.0
146
0.5
147
0.001
148
0.0
 69
0
 70
0
 71
0
 72
0
 73
0
 74
0
 75
0
 76
0
 77
1
 78
12
 79
3
170
0
171
3
172
1
173
0
174
0
175
0
176
0
177
0
178
0
179
2
271
2
272
2
273
2
274
3
275
0
276
0
277
2
278
46
279
2
280
0
281
0
282
0
283
0
284
8
285
0
286
0
288
1
289
3
290
0
340
4C
371
-2
372
-2
  0
DIMSTYLE
105
83
330
4
100
AcDbSymbolTableRecord
100
AcDbDimStyleTableRecord
  2
EZ_RADIUS
 70
0
 40
1.0
 41
0.25
 42
0.125
 43
3.75
 44
0.375
 45
0.0
 46
0.0
 47
0.0
 48
0.0
 49
2.5
140
0.25
141
0.0
142
0.0
143
0.03937007874
144
100.0
145
0.0
146
0.5
147
0.1
148
0.0
 69
0
 70
0
 71
0
 72
0
 73
0
 74
0
 75
0
 76
0
 77
1
 78
12
 79
3
170
0
171
3
172
0
173
0
174
0
175
0
176
0
177
0
178
0
179
2
271
2
272
2
273
2
274
3
275
0
276
0
277
2
278
46
279
1
280
0
281
0
282
0
283
0
284
8
285
0
286
0
288
1
289
3
290
0
340
4C
342
84
371
-2
372
-2
  0
DIMSTYLE
105
88
330
4
100
AcDbSymbolTableRecord
100
AcDbDimStyleTableRecord
  2
EZ_RADIUS_INSIDE
 70
0
 40
1.0
 41
0.25
 42
0.125
 43
3.75
 44
0.375
 45
0.0
 46
0.0
 47
0.0
 48
0.0
 49
2.5
140
0.25
141
0.0
142
0.0
143
0.03937007874
144
100.0
145
0.0
146
0.5
147
0.1
148
0.0
 69
0
 70
0
 71
0
 72
0
 73
0
 74
0
 75
0
 76
0
 77
0
 78
12
 79
3
170
0
171
3
172
0
173
0
174
1
175
0
176
0
177
0
178
0
179
2
271
2
272
2
273
2
274
3
275
0
276
0
277
2
278
46
279
0
280
0
281
0
282
0
283
0
284
8
285
0
286
0
288
1
289
0
290
0
340
4C
342
84
371
-2
372
-2
  0
DIMSTYLE
105
89
330
4
100
AcDbSymbolTableRecord
100
AcDbDimStyleTableRecord
  2
EZ_CURVED
 70
0
 40
1.0
 41
0.25
 42
0.125
 43
3.75
 44
0.375
 45
0.0
 46
0.0
 47
0.0
 48
0.0
 49
2.5
140
0.25
141
2.5
142
0.0
143
0.03937007874
144
100.0
145
0.0
146
0.5
147
0.1
148
0.0
 69
0
 70
0
 71
0
 72
0
 73
0
 74
0
 75
0
 76
0
 77
1
 78
12
 79
2
 90
2
170
0
171
3
172
1
173
0
174
0
175
0
176
0
177
0
178
0
179
2
271
2
272
2
273
2
274
3
275
0
276
0
277
2
278
46
279
2
280
0
281
0
282
0
283
0
284
8
285
0
286
0
288
1
289
3
290
0
340
4C
371
-2
372
-2
  0
ENDTAB
  0
TABLE
  2
BLOCK_RECORD
  5
9
330
0
100
AcDbSymbolTable
 70
24
  0
BLOCK_RECORD
  5
17
330
9
100
AcDbSymbolTableRecord
100
AcDbBlockTableRecord
  2
*Model_Space
340
1A
 70
0
280
1
281
0
  0
BLOCK_RECORD
  5
1B
330
9
100
AcDbSymbolTableRecord
100
AcDbBlockTableRecord
  2
*Paper_Space
340
1E
 70
0
280
1
281
0
  0
BLOCK_RECORD
  5
74
330
9
100
AcDbSymbolTableRecord
100
AcDbBlockTableRecord
  2
_ARCHTICK
340
0
 70
0
280
1
281
0
  0
BLOCK_RECORD
  5
78
330
9
100
AcDbSymbolTableRecord
100
AcDbBlockTableRecord
  2
_CLOSEDFILLED
340
0
 70
0
280
1
281
0
  0
BLOCK_RECORD
  5
84
330
9
100
AcDbSymbolTableRecord
100
AcDbBlockTableRecord
  2
_CLOSEDBLANK
340
0
 70
0
280
1
281
0
  0
BLOCK_RECORD
  5
9F
330
9
100
AcDbSymbolTableRecord
100
AcDbBlockTableRecord
  2
YAML_PID_ANALYZER
340
0
 70
0
280
1
281
0
  0
BLOCK_RECORD
  5
DE
330
9
100
AcDbSymbolTableRecord
100
AcDbBlockTableRecord
  2
YAML_PID_CENTRIFUGAL_PUMP
340
0
 70
0
280
1
281
0
  0
BLOCK_RECORD
  5
E8
330
9
100
AcDbSymbolTableRecord
100
AcDbBlockTableRecord
  2
YAML_PID_CHECK_VALVE
340
0
 70
0
280
1
281
0
  0
BLOCK_RECORD
  5
F6
330
9
100
AcDbSymbolTableRecord
100
AcDbBlockTableRecord
  2
YAML_PID_COLUMN_TRAYS
340
0
 70
0
280
1
281
0
  0
BLOCK_RECORD
  5
100
330
9
100
AcDbSymbolTableRecord
100
AcDbBlockTableRecord
  2
YAML_PID_CONTROL_VALVE
340
0
 70
0
280
1
281
0
  0
BLOCK_RECORD
  5
116
330
9
100
AcDbSymbolTableRecord
100
AcDbBlockTableRecord
  2
YAML_PID_DCS_CONTROLLER
340
0
 70
0
280
1
281
0
  0
BLOCK_RECORD
  5
129
330
9
100
AcDbSymbolTableRecord
100
AcDbBlockTableRecord
  2
YAML_PID_DEETHANIZER_COLUMN
340
0
 70
0
280
1
281
0
  0
BLOCK_RECORD
  5
12F
330
9
100
AcDbSymbolTableRecord
100
AcDbBlockTableRecord
  2
YAML_PID_FEED_BOTTOMS_EXCHANGER
340
0
 70
0
280
1
281
0
  0
BLOCK_RECORD
  5
13D
330
9
100
AcDbSymbolTableRecord
100
AcDbBlockTableRecord
  2
YAML_PID_FIELD_INSTRUMENT
340
0
 70
0
280
1
281
0
  0
BLOCK_RECORD
  5
148
330
9
100
AcDbSymbolTableRecord
100
AcDbBlockTableRecord
  2
YAML_PID_MANUAL_BLOCK_VALVE
340
0
 70
0
280
1
281
0
  0
BLOCK_RECORD
  5
14C
330
9
100
AcDbSymbolTableRecord
100
AcDbBlockTableRecord
  2
YAML_PID_NOZZLE
340
0
 70
0
280
1
281
0
  0
BLOCK_RECORD
  5
153
330
9
100
AcDbSymbolTableRecord
100
AcDbBlockTableRecord
  2
YAML_PID_OFFPAGE_CONNECTOR
340
0
 70
0
280
1
281
0
  0
BLOCK_RECORD
  5
15D
330
9
100
AcDbSymbolTableRecord
100
AcDbBlockTableRecord
  2
YAML_PID_OVERHEAD_CONDENSER
340
0
 70
0
280
1
281
0
  0
BLOCK_RECORD
  5
170
330
9
100
AcDbSymbolTableRecord
100
AcDbBlockTableRecord
  2
YAML_PID_REBOILER
340
0
 70
0
280
1
281
0
  0
BLOCK_RECORD
  5
17E
330
9
100
AcDbSymbolTableRecord
100
AcDbBlockTableRecord
  2
YAML_PID_REFLUX_DRUM
340
0
 70
0
280
1
281
0
  0
BLOCK_RECORD
  5
184
330
9
100
AcDbSymbolTableRecord
100
AcDbBlockTableRecord
  2
YAML_PID_RELIEF_VALVE
340
0
 70
0
280
1
281
0
  0
BLOCK_RECORD
  5
18D
330
9
100
AcDbSymbolTableRecord
100
AcDbBlockTableRecord
  2
YAML_PID_RESTRICTION_ORIFICE
340
0
 70
0
280
1
281
0
  0
BLOCK_RECORD
  5
193
330
9
100
AcDbSymbolTableRecord
100
AcDbBlockTableRecord
  2
YAML_PID_SAMPLE_POINT
340
0
 70
0
280
1
281
0
  0
BLOCK_RECORD
  5
1A7
330
9
100
AcDbSymbolTableRecord
100
AcDbBlockTableRecord
  2
YAML_PID_SHUTDOWN_VALVE
340
0
 70
0
280
1
281
0
  0
ENDTAB
  0
ENDSEC
  0
SECTION
  2
BLOCKS
  0
BLOCK
  5
18
330
17
100
AcDbEntity
  8
0
100
AcDbBlockBegin
  2
*Model_Space
 70
0
 10
0.0
 20
0.0
 30
0.0
  3
*Model_Space
  1

  0
ENDBLK
  5
19
330
17
100
AcDbEntity
  8
0
100
AcDbBlockEnd
  0
BLOCK
  5
1C
330
1B
100
AcDbEntity
  8
0
100
AcDbBlockBegin
  2
*Paper_Space
 70
0
 10
0.0
 20
0.0
 30
0.0
  3
*Paper_Space
  1

  0
ENDBLK
  5
1D
330
1B
100
AcDbEntity
  8
0
100
AcDbBlockEnd
  0
BLOCK
  5
75
330
74
100
AcDbEntity
  8
0
100
AcDbBlockBegin
  2
_ARCHTICK
 70
0
 10
0.0
 20
0.0
 30
0.0
  3
_ARCHTICK
  1

  0
LWPOLYLINE
  5
77
330
74
100
AcDbEntity
  8
0
  6
BYBLOCK
 62
0
100
AcDbPolyline
 90
2
 70
0
 43
0.15
 10
-0.5
 20
-0.5
 10
0.5
 20
0.5
  0
ENDBLK
  5
76
330
74
100
AcDbEntity
  8
0
100
AcDbBlockEnd
  0
BLOCK
  5
79
330
78
100
AcDbEntity
  8
0
100
AcDbBlockBegin
  2
_CLOSEDFILLED
 70
0
 10
0.0
 20
0.0
 30
0.0
  3
_CLOSEDFILLED
  1

  0
SOLID
  5
7B
330
78
100
AcDbEntity
  8
0
  6
BYBLOCK
 62
0
100
AcDbTrace
 10
-1.0
 20
0.16439898372402537
 30
0.0
 11
0.0
 21
0.0
 31
0.0
 12
-1.0
 22
-0.16439898372402537
 32
0.0
 13
-1.0
 23
-0.16439898372402537
 33
0.0
  0
ENDBLK
  5
7A
330
78
100
AcDbEntity
  8
0
100
AcDbBlockEnd
  0
BLOCK
  5
85
330
84
100
AcDbEntity
  8
0
100
AcDbBlockBegin
  2
_CLOSEDBLANK
 70
0
 10
0.0
 20
0.0
 30
0.0
  3
_CLOSEDBLANK
  1

  0
LWPOLYLINE
  5
87
330
84
100
AcDbEntity
  8
0
  6
BYBLOCK
 62
0
100
AcDbPolyline
 90
3
 70
1
 10
-1.0
 20
0.16439898372402537
 10
0.0
 20
0.0
 10
-1.0
 20
-0.16439898372402537
  0
ENDBLK
  5
86
330
84
100
AcDbEntity
  8
0
100
AcDbBlockEnd
  0
BLOCK
  5
A0
330
9F
100
AcDbEntity
  8
0
100
AcDbBlockBegin
  2
YAML_PID_ANALYZER
 70
0
 10
0.0
 20
0.0
 30
0.0
  3
YAML_PID_ANALYZER
  1

  0
ARC
  5
A2
330
9F
100
AcDbEntity
  8
DEFAULT_255_2_778
100
AcDbCircle
 10
0.0787313499999982
 20
0.004117649999999973
 30
0.0
 40
6.6933326
100
AcDbArc
 50
168.541472
 51
180.0352475
  0
ARC
  5
A3
330
9F
100
AcDbEntity
  8
DEFAULT_255_2_778
100
AcDbCircle
 10
-0.0390592500000011
 20
0.026003250000000033
 30
0.0
 40
6.5735422
100
AcDbArc
 50
153.0463229
 51
168.5244689
  0
ARC
  5
A4
330
9F
100
AcDbEntity
  8
DEFAULT_255_2_778
100
AcDbCircle
 10
-0.010484050000000522
 20
0.009723950000000148
 30
0.0
 40
6.6063925
100
AcDbArc
 50
109.7078398
 51
153.0328055
  0
ARC
  5
A5
330
9F
100
AcDbEntity
  8
DEFAULT_255_2_778
100
AcDbCircle
 10
-0.0186452500000005
 20
0.013322250000000313
 30
0.0
 40
6.6002561
100
AcDbArc
 50
96.3164082
 51
109.6516769
  0
ARC
  5
A6
330
9F
100
AcDbEntity
  8
DEFAULT_255_2_778
100
AcDbCircle
 10
-0.0014761500000002314
 20
-0.12957074999999962
 30
0.0
 40
6.7441708
100
AcDbArc
 50
89.9874593
 51
96.3278261
  0
ARC
  5
A7
330
9F
100
AcDbEntity
  8
DEFAULT_255_2_778
100
AcDbCircle
 10
0.004117649999999529
 20
-0.07873134999999998
 30
0.0
 40
6.6933326
100
AcDbArc
 50
78.541472
 51
90.0352475
  0
ARC
  5
A8
330
9F
100
AcDbEntity
  8
DEFAULT_255_2_778
100
AcDbCircle
 10
0.0260032499999987
 20
0.03905925000000021
 30
0.0
 40
6.5735422
100
AcDbArc
 50
63.0463229
 51
78.5244689
  0
ARC
  5
A9
330
9F
100
AcDbEntity
  8
DEFAULT_255_2_778
100
AcDbCircle
 10
0.009723949999999704
 20
0.010484050000000078
 30
0.0
 40
6.6063925
100
AcDbArc
 50
19.7078398
 51
63.0328055
  0
ARC
  5
AA
330
9F
100
AcDbEntity
  8
DEFAULT_255_2_778
100
AcDbCircle
 10
0.013322249999998093
 20
0.018645250000000058
 30
0.0
 40
6.6002561
100
AcDbArc
 50
6.3164082
 51
19.6516769
  0
ARC
  5
AB
330
9F
100
AcDbEntity
  8
DEFAULT_255_2_778
100
AcDbCircle
 10
-0.12957075000000096
 20
0.0014761500000002314
 30
0.0
 40
6.7441708
100
AcDbArc
 50
359.9874593
 51
6.3278261
  0
ARC
  5
AC
330
9F
100
AcDbEntity
  8
DEFAULT_255_2_778
100
AcDbCircle
 10
-0.07873135000000175
 20
-0.004117649999999973
 30
0.0
 40
6.6933326
100
AcDbArc
 50
348.541472
 51
0.0352475
  0
ARC
  5
AD
330
9F
100
AcDbEntity
  8
DEFAULT_255_2_778
100
AcDbCircle
 10
0.039059249999999324
 20
-0.026003250000000033
 30
0.0
 40
6.5735422
100
AcDbArc
 50
333.0463229
 51
348.5244689
  0
ARC
  5
AE
330
9F
100
AcDbEntity
  8
DEFAULT_255_2_778
100
AcDbCircle
 10
0.010484049999998746
 20
-0.009723949999999704
 30
0.0
 40
6.6063925
100
AcDbArc
 50
289.7078398
 51
333.0328055
  0
ARC
  5
AF
330
9F
100
AcDbEntity
  8
DEFAULT_255_2_778
100
AcDbCircle
 10
0.018645249999998725
 20
-0.013322249999999869
 30
0.0
 40
6.6002561
100
AcDbArc
 50
276.3164082
 51
289.6516769
  0
ARC
  5
B0
330
9F
100
AcDbEntity
  8
DEFAULT_255_2_778
100
AcDbCircle
 10
0.001476149999998455
 20
0.12957075000000007
 30
0.0
 40
6.7441708
100
AcDbArc
 50
269.9874593
 51
276.3278261
  0
ARC
  5
B1
330
9F
100
AcDbEntity
  8
DEFAULT_255_2_778
100
AcDbCircle
 10
-0.004117650000001305
 20
0.07873134999999998
 30
0.0
 40
6.6933326
100
AcDbArc
 50
258.541472
 51
270.0352475
  0
ARC
  5
B2
330
9F
100
AcDbEntity
  8
DEFAULT_255_2_778
100
AcDbCircle
 10
-0.026003250000000477
 20
-0.03905924999999977
 30
0.0
 40
6.5735422
100
AcDbArc
 50
243.0463229
 51
258.5244689
  0
ARC
  5
B3
330
9F
100
AcDbEntity
  8
DEFAULT_255_2_778
100
AcDbCircle
 10
-0.00972395000000148
 20
-0.010484049999999634
 30
0.0
 40
6.6063925
100
AcDbArc
 50
199.7078398
 51
243.0328055
  0
ARC
  5
B4
330
9F
100
AcDbEntity
  8
DEFAULT_255_2_778
100
AcDbCircle
 10
-0.013322250000001645
 20
-0.018645250000000058
 30
0.0
 40
6.6002561
100
AcDbArc
 50
186.3164082
 51
199.6516769
  0
ARC
  5
B5
330
9F
100
AcDbEntity
  8
DEFAULT_255_2_778
100
AcDbCircle
 10
0.12957074999999918
 20
-0.0014761499999997874
 30
0.0
 40
6.7441708
100
AcDbArc
 50
179.9874593
 51
186.3278261
  0
LINE
  5
B6
330
9F
100
AcDbEntity
  8
DEFAULT_255_2_778
100
AcDbLine
 10
-6.614599950000001
 20
-4.999999969612645e-08
 30
0.0
 11
-6.614599950000001
 21
-4.999999969612645e-08
 31
0.0
  0
LINE
  5
B7
330
9F
100
AcDbEntity
  8
DEFAULT_255_1_542
100
AcDbLine
 10
-0.9088545500000009
 20
2.06261685
 30
0.0
 11
-1.313448450000001
 21
2.06261685
 31
0.0
  0
LINE
  5
B8
330
9F
100
AcDbEntity
  8
DEFAULT_255_1_542
100
AcDbLine
 10
-1.313448450000001
 20
2.06261685
 30
0.0
 11
-1.313448450000001
 21
3.5243754500000004
 31
0.0
  0
LINE
  5
B9
330
9F
100
AcDbEntity
  8
DEFAULT_255_1_542
100
AcDbLine
 10
-1.313448450000001
 20
3.5243754500000004
 30
0.0
 11
-0.9008229500000002
 21
3.5243754500000004
 31
0.0
  0
LINE
  5
BA
330
9F
100
AcDbEntity
  8
DEFAULT_255_1_542
100
AcDbLine
 10
-0.2562837500000015
 20
2.84268995
 30
0.0
 11
-0.2562837500000015
 21
2.74932215
 31
0.0
  0
LINE
  5
BB
330
9F
100
AcDbEntity
  8
DEFAULT_255_1_542
100
AcDbLine
 10
-0.8958031500000008
 20
3.36575055
 30
0.0
 11
-1.120689050000001
 21
3.36575055
 31
0.0
  0
LINE
  5
BC
330
9F
100
AcDbEntity
  8
DEFAULT_255_1_542
100
AcDbLine
 10
-1.120689050000001
 20
3.36575055
 30
0.0
 11
-1.120689050000001
 21
2.2202377500000003
 31
0.0
  0
LINE
  5
BD
330
9F
100
AcDbEntity
  8
DEFAULT_255_1_542
100
AcDbLine
 10
-1.120689050000001
 20
2.2202377500000003
 30
0.0
 11
-0.9178901500000016
 21
2.2202377500000003
 31
0.0
  0
LINE
  5
BE
330
9F
100
AcDbEntity
  8
DEFAULT_255_1_542
100
AcDbLine
 10
-0.4470352500000008
 20
2.75333795
 30
0.0
 11
-0.4470352500000008
 21
2.8386741500000006
 31
0.0
  0
ARC
  5
BF
330
9F
100
AcDbEntity
  8
DEFAULT_255_1_542
100
AcDbCircle
 10
-0.895956850000001
 20
2.79121335
 30
0.0
 40
0.7331782
100
AcDbArc
 50
75.4101014
 51
90.3802694
  0
ARC
  5
C0
330
9F
100
AcDbEntity
  8
DEFAULT_255_1_542
100
AcDbCircle
 10
-0.867262150000002
 20
2.9108010500000003
 30
0.0
 40
0.6102233
100
AcDbArc
 50
60.1455537
 51
75.1890284
  0
ARC
  5
C1
330
9F
100
AcDbEntity
  8
DEFAULT_255_1_542
100
AcDbCircle
 10
-0.847420050000002
 20
2.9453801500000005
 30
0.0
 40
0.5703556
100
AcDbArc
 50
26.5254113
 51
60.1450941
  0
ARC
  5
C2
330
9F
100
AcDbEntity
  8
DEFAULT_255_1_542
100
AcDbCircle
 10
-0.987446450000002
 20
2.87112755
 30
0.0
 40
0.7288136
100
AcDbArc
 50
7.4030186
 51
26.832131
  0
ARC
  5
C3
330
9F
100
AcDbEntity
  8
DEFAULT_255_1_542
100
AcDbCircle
 10
-1.1867383500000006
 20
2.84008205
 30
0.0
 40
0.9304584
100
AcDbArc
 50
0.160588
 51
7.7175801
  0
ARC
  5
C4
330
9F
100
AcDbEntity
  8
DEFAULT_255_1_542
100
AcDbCircle
 10
-1.1662431500000014
 20
2.74453755
 30
0.0
 40
0.909972
100
AcDbArc
 50
348.729
 51
0.3012613
  0
ARC
  5
C5
330
9F
100
AcDbEntity
  8
DEFAULT_255_1_542
100
AcDbCircle
 10
-0.9591942500000012
 20
2.70340945
 30
0.0
 40
0.6988779
100
AcDbArc
 50
333.0707277
 51
348.7181154
  0
ARC
  5
C6
330
9F
100
AcDbEntity
  8
DEFAULT_255_1_542
100
AcDbCircle
 10
-0.8383440500000017
 20
2.6377743500000004
 30
0.0
 40
0.5614194
100
AcDbArc
 50
299.2531153
 51
333.4571273
  0
ARC
  5
C7
330
9F
100
AcDbEntity
  8
DEFAULT_255_1_542
100
AcDbCircle
 10
-0.8834535500000005
 20
2.72346525
 30
0.0
 40
0.6582306
100
AcDbArc
 50
278.1072906
 51
299.0339478
  0
ARC
  5
C8
330
9F
100
AcDbEntity
  8
DEFAULT_255_1_542
100
AcDbCircle
 10
-0.9154441500000008
 20
2.9119143500000004
 30
0.0
 40
0.849323
100
AcDbArc
 50
270.4445459
 51
278.4509706
  0
ARC
  5
C9
330
9F
100
AcDbEntity
  8
DEFAULT_255_1_542
100
AcDbCircle
 10
-0.9128388500000018
 20
2.7957673499999998
 30
0.0
 40
0.5755517
100
AcDbArc
 50
269.4971374
 51
284.0204007
  0
ARC
  5
CA
330
9F
100
AcDbEntity
  8
DEFAULT_255_1_542
100
AcDbCircle
 10
-0.8684249500000014
 20
2.62510585
 30
0.0
 40
0.3992182
100
AcDbArc
 50
283.7699562
 51
318.1556187
  0
ARC
  5
CB
330
9F
100
AcDbEntity
  8
DEFAULT_255_1_542
100
AcDbCircle
 10
-0.9105823500000003
 20
2.6566562499999997
 30
0.0
 40
0.4516949
100
AcDbArc
 50
318.7416444
 51
343.6873402
  0
ARC
  5
CC
330
9F
100
AcDbEntity
  8
DEFAULT_255_1_542
100
AcDbCircle
 10
-1.1360763500000015
 20
2.7270886500000002
 30
0.0
 40
0.6879074
100
AcDbArc
 50
343.3324731
 51
355.8548303
  0
ARC
  5
CD
330
9F
100
AcDbEntity
  8
DEFAULT_255_1_542
100
AcDbCircle
 10
-1.398437350000001
 20
2.75202865
 30
0.0
 40
0.9514032
100
AcDbArc
 50
355.4988934
 51
0.0788461
  0
ARC
  5
CE
330
9F
100
AcDbEntity
  8
DEFAULT_255_1_542
100
AcDbCircle
 10
-1.3005407500000015
 20
2.8439547500000004
 30
0.0
 40
0.8535218
100
AcDbArc
 50
359.6455143
 51
9.8607261
  0
ARC
  5
CF
330
9F
100
AcDbEntity
  8
DEFAULT_255_1_542
100
AcDbCircle
 10
-1.005452850000001
 20
2.89724405
 30
0.0
 40
0.5536709
100
AcDbArc
 50
9.6571622
 51
26.1931971
  0
ARC
  5
D0
330
9F
100
AcDbEntity
  8
DEFAULT_255_1_542
100
AcDbCircle
 10
-0.8894546500000011
 20
2.9511196500000003
 30
0.0
 40
0.4258133
100
AcDbArc
 50
26.5778125
 51
40.1532658
  0
ARC
  5
D1
330
9F
100
AcDbEntity
  8
DEFAULT_255_1_542
100
AcDbCircle
 10
-0.8574878500000018
 20
2.97605885
 30
0.0
 40
0.385302
100
AcDbArc
 50
40.3840107
 51
80.1431587
  0
ARC
  5
D2
330
9F
100
AcDbEntity
  8
DEFAULT_255_1_542
100
AcDbCircle
 10
-0.8983476500000016
 20
2.7949058500000006
 30
0.0
 40
0.5708505
100
AcDbArc
 50
79.2151469
 51
89.744611
  0
LINE
  5
D3
330
9F
100
AcDbEntity
  8
DEFAULT_255_1_542
100
AcDbLine
 10
0.2416779499999997
 20
3.5243754500000004
 30
0.0
 11
0.2416779499999997
 21
2.06261685
 31
0.0
  0
LINE
  5
D4
330
9F
100
AcDbEntity
  8
DEFAULT_255_1_542
100
AcDbLine
 10
0.2416779499999997
 20
2.06261685
 30
0.0
 11
0.04891854999999801
 21
2.06261685
 31
0.0
  0
LINE
  5
D5
330
9F
100
AcDbEntity
  8
DEFAULT_255_1_542
100
AcDbLine
 10
0.04891854999999801
 20
2.06261685
 30
0.0
 11
0.04891854999999801
 21
3.5243754500000004
 31
0.0
  0
LINE
  5
D6
330
9F
100
AcDbEntity
  8
DEFAULT_255_1_542
100
AcDbLine
 10
0.04891854999999801
 20
3.5243754500000004
 30
0.0
 11
0.2416779499999997
 21
3.5243754500000004
 31
0.0
  0
LINE
  5
D7
330
9F
100
AcDbEntity
  8
DEFAULT_255_1_542
100
AcDbLine
 10
-0.37453355000000066
 20
-1.76029685
 30
0.0
 11
-0.37453355000000066
 21
-3.2290831499999997
 31
0.0
  0
LINE
  5
D8
330
9F
100
AcDbEntity
  8
DEFAULT_255_1_542
100
AcDbLine
 10
-0.37453355000000066
 20
-3.2290831499999997
 30
0.0
 11
-0.5612692500000005
 21
-3.2290831499999997
 31
0.0
  0
LINE
  5
D9
330
9F
100
AcDbEntity
  8
DEFAULT_255_1_542
100
AcDbLine
 10
-0.5612692500000005
 20
-3.2290831499999997
 30
0.0
 11
-0.5612692500000005
 21
-1.9912065499999998
 31
0.0
  0
LINE
  5
DA
330
9F
100
AcDbEntity
  8
DEFAULT_255_1_542
100
AcDbLine
 10
-0.5612692500000005
 20
-1.9912065499999998
 30
0.0
 11
-0.9357444500000014
 21
-2.1287483499999995
 31
0.0
  0
LINE
  5
DB
330
9F
100
AcDbEntity
  8
DEFAULT_255_1_542
100
AcDbLine
 10
-0.9357444500000014
 20
-2.1287483499999995
 30
0.0
 11
-0.9357444500000014
 21
-1.9600839499999998
 31
0.0
  0
LINE
  5
DC
330
9F
100
AcDbEntity
  8
DEFAULT_255_1_542
100
AcDbLine
 10
-0.9357444500000014
 20
-1.9600839499999998
 30
0.0
 11
-0.4036482500000016
 21
-1.76029685
 31
0.0
  0
LINE
  5
DD
330
9F
100
AcDbEntity
  8
DEFAULT_255_1_542
100
AcDbLine
 10
-0.4036482500000016
 20
-1.76029685
 30
0.0
 11
-0.37453355000000066
 21
-1.76029685
 31
0.0
  0
ENDBLK
  5
A1
330
9F
100
AcDbEntity
  8
0
100
AcDbBlockEnd
  0
BLOCK
  5
DF
330
DE
100
AcDbEntity
  8
0
100
AcDbBlockBegin
  2
YAML_PID_CENTRIFUGAL_PUMP
 70
0
 10
0.0
 20
0.0
 30
0.0
  3
YAML_PID_CENTRIFUGAL_PUMP
  1

  0
CIRCLE
  5
E1
330
DE
100
AcDbEntity
  8
0
  6
ByLayer
100
AcDbCircle
 10
-0.0625
 20
0.062499999999999944
 30
0.0
 40
0.125
  0
LWPOLYLINE
  5
E2
330
DE
100
AcDbEntity
  8
0
  6
ByLayer
100
AcDbPolyline
 90
2
 70
0
 10
-0.4375
 20
-0.43750000000000006
 10
0.3125
 20
-0.43750000000000006
  0
ARC
  5
E3
330
DE
100
AcDbEntity
  8
0
  6
ByLayer
100
AcDbCircle
 10
-0.0625
 20
0.062499999999999944
 30
0.0
 40
0.375
100
AcDbArc
 50
90.0
 51
19.47122063449074
  0
LWPOLYLINE
  5
E4
330
DE
100
AcDbEntity
  8
0
  6
ByLayer
100
AcDbPolyline
 90
4
 70
0
 10
-0.0625
 20
0.43749999999999994
 10
0.4375
 20
0.43750000000000006
 10
0.4375
 20
0.18749999999999994
 10
0.2910533905932731
 20
0.18749999999999994
  0
LWPOLYLINE
  5
E5
330
DE
100
AcDbEntity
  8
0
  6
ByLayer
100
AcDbPolyline
 90
2
 70
0
 10
-0.4375
 20
-0.43750000000000006
 10
-0.2576941016011038
 20
-0.25769410160110384
  0
POINT
  5
E6
330
DE
100
AcDbEntity
  8
0
  6
ByLayer
100
AcDbPoint
 10
-0.0625
 20
0.062499999999999944
 30
0.0
  0
LWPOLYLINE
  5
E7
330
DE
100
AcDbEntity
  8
0
  6
ByLayer
100
AcDbPolyline
 90
2
 70
0
 10
0.3125
 20
-0.43750000000000006
 10
0.1326941016011038
 20
-0.25769410160110384
  0
ENDBLK
  5
E0
330
DE
100
AcDbEntity
  8
0
100
AcDbBlockEnd
  0
BLOCK
  5
E9
330
E8
100
AcDbEntity
  8
0
100
AcDbBlockBegin
  2
YAML_PID_CHECK_VALVE
 70
0
 10
0.0
 20
0.0
 30
0.0
  3
YAML_PID_CHECK_VALVE
  1

  0
LINE
  5
EB
330
E8
100
AcDbEntity
  8
DEFAULT_255_2_778
100
AcDbLine
 10
2.6458498000000006
 20
-1.45518365
 30
0.0
 11
-2.6458502
 21
1.1906163500000002
 31
0.0
  0
LINE
  5
EC
330
E8
100
AcDbEntity
  8
DEFAULT_255_2_778
100
AcDbLine
 10
-2.6458502
 20
1.1906163500000002
 30
0.0
 11
2.6458498000000006
 21
-1.45518365
 31
0.0
  0
LINE
  5
ED
330
E8
100
AcDbEntity
  8
DEFAULT_255_2_778
100
AcDbLine
 10
2.6458498000000006
 20
-1.45518365
 30
0.0
 11
2.6458498000000006
 21
1.1906163500000002
 31
0.0
  0
LINE
  5
EE
330
E8
100
AcDbEntity
  8
DEFAULT_255_2_778
100
AcDbLine
 10
-2.6458502
 20
1.1906163500000002
 30
0.0
 11
-2.6458502
 21
-1.45518365
 31
0.0
  0
LINE
  5
EF
330
E8
100
AcDbEntity
  8
DEFAULT_255_2_778
100
AcDbLine
 10
2.6457999999999995
 20
-0.13230024999999968
 30
0.0
 11
6.614599999999999
 21
-0.13230024999999968
 31
0.0
  0
LINE
  5
F0
330
E8
100
AcDbEntity
  8
DEFAULT_255_2_778
100
AcDbLine
 10
-2.6459
 20
-0.13230024999999968
 30
0.0
 11
-6.614599999999999
 21
-0.13230024999999968
 31
0.0
  0
ARC
  5
F1
330
E8
100
AcDbEntity
  8
DEFAULT_255_2_778
100
AcDbCircle
 10
-2.6463944999999995
 20
1.1911773500000002
 30
0.0
 40
0.2640063
100
AcDbArc
 50
89.8710178
 51
180.1289822
  0
ARC
  5
F2
330
E8
100
AcDbEntity
  8
DEFAULT_255_2_778
100
AcDbCircle
 10
-2.6452058999999997
 20
1.1911773500000002
 30
0.0
 40
0.2640063
100
AcDbArc
 50
359.8710178
 51
90.1289822
  0
ARC
  5
F3
330
E8
100
AcDbEntity
  8
DEFAULT_255_2_778
100
AcDbCircle
 10
-2.6452058999999997
 20
1.1899887500000002
 30
0.0
 40
0.2640063
100
AcDbArc
 50
269.8710178
 51
0.1289822
  0
ARC
  5
F4
330
E8
100
AcDbEntity
  8
DEFAULT_255_2_778
100
AcDbCircle
 10
-2.6463944999999995
 20
1.1899887500000002
 30
0.0
 40
0.2640063
100
AcDbArc
 50
179.8710178
 51
270.1289822
  0
LINE
  5
F5
330
E8
100
AcDbEntity
  8
DEFAULT_255_2_778
100
AcDbLine
 10
-2.9104001999999998
 20
1.1905830500000003
 30
0.0
 11
-2.9104001999999998
 21
1.1905830500000003
 31
0.0
  0
ENDBLK
  5
EA
330
E8
100
AcDbEntity
  8
0
100
AcDbBlockEnd
  0
BLOCK
  5
F7
330
F6
100
AcDbEntity
  8
0
100
AcDbBlockBegin
  2
YAML_PID_COLUMN_TRAYS
 70
0
 10
0.0
 20
0.0
 30
0.0
  3
YAML_PID_COLUMN_TRAYS
  1

  0
LINE
  5
F9
330
F6
100
AcDbEntity
  8
DEFAULT_255_2_778
100
AcDbLine
 10
-10.58335
 20
23.8125
 30
0.0
 11
10.58335
 21
23.8125
 31
0.0
  0
LINE
  5
FA
330
F6
100
AcDbEntity
  8
DEFAULT_255_2_778
100
AcDbLine
 10
10.58335
 20
23.8125
 30
0.0
 11
10.58335
 21
-23.812499999999996
 31
0.0
  0
LINE
  5
FB
330
F6
100
AcDbEntity
  8
DEFAULT_255_2_778
100
AcDbLine
 10
10.58335
 20
-23.812499999999996
 30
0.0
 11
-10.58335
 21
-23.812499999999996
 31
0.0
  0
LINE
  5
FC
330
F6
100
AcDbEntity
  8
DEFAULT_255_2_778
100
AcDbLine
 10
-10.58335
 20
-23.812499999999996
 30
0.0
 11
-10.58335
 21
23.8125
 31
0.0
  0
LINE
  5
FD
330
F6
100
AcDbEntity
  8
DEFAULT_255_2_778
100
AcDbLine
 10
-10.58335
 20
18.520800700000002
 30
0.0
 11
10.58335
 21
18.520800700000002
 31
0.0
  0
LINE
  5
FE
330
F6
100
AcDbEntity
  8
DEFAULT_255_2_778
100
AcDbLine
 10
-10.58335
 20
-18.520899299999996
 30
0.0
 11
10.58335
 21
-18.520899299999996
 31
0.0
  0
LINE
  5
FF
330
F6
100
AcDbEntity
  8
DEFAULT_255_2_778
100
AcDbLine
 10
-10.58335
 20
7.000000046275545e-07
 30
0.0
 11
10.58335
 21
7.000000046275545e-07
 31
0.0
  0
ENDBLK
  5
F8
330
F6
100
AcDbEntity
  8
0
100
AcDbBlockEnd
  0
BLOCK
  5
101
330
100
100
AcDbEntity
  8
0
100
AcDbBlockBegin
  2
YAML_PID_CONTROL_VALVE
 70
0
 10
0.0
 20
0.0
 30
0.0
  3
YAML_PID_CONTROL_VALVE
  1

  0
LINE
  5
103
330
100
100
AcDbEntity
  8
DEFAULT_255_2_778
100
AcDbLine
 10
-1.3229334999999995
 20
3.3018137499999995
 30
0.0
 11
1.3228665
 21
3.3018137499999995
 31
0.0
  0
LINE
  5
104
330
100
100
AcDbEntity
  8
DEFAULT_255_2_778
100
AcDbLine
 10
-1.6900000000319437e-05
 20
3.30180535
 30
0.0
 11
-1.6900000000319437e-05
 21
-3.31279465
 31
0.0
  0
ARC
  5
105
330
100
100
AcDbEntity
  8
DEFAULT_255_2_778
100
AcDbCircle
 10
-0.11707969999999968
 20
3.0488755499999995
 30
0.0
 40
1.4920431
100
AcDbArc
 50
139.2739899
 51
170.2375423
  0
ARC
  5
106
330
100
100
AcDbEntity
  8
DEFAULT_255_2_778
100
AcDbCircle
 10
0.08397010000000016
 20
2.88308745
 30
0.0
 40
1.7525822
100
AcDbArc
 50
107.8084907
 51
139.4548709
  0
ARC
  5
107
330
100
100
AcDbEntity
  8
DEFAULT_255_2_778
100
AcDbCircle
 10
0.034299700000000044
 20
3.02908105
 30
0.0
 40
1.598395
100
AcDbArc
 50
100.7622479
 51
107.7138497
  0
ARC
  5
108
330
100
100
AcDbEntity
  8
DEFAULT_255_2_778
100
AcDbCircle
 10
0.005881300000000422
 20
3.18433655
 30
0.0
 40
1.4405642
100
AcDbArc
 50
91.8616483
 51
100.8049227
  0
ARC
  5
109
330
100
100
AcDbEntity
  8
DEFAULT_255_2_778
100
AcDbCircle
 10
7.150000000066825e-05
 20
3.29487045
 30
0.0
 40
1.3299016
100
AcDbArc
 50
90.003807
 51
91.7661805
  0
ARC
  5
10A
330
100
100
AcDbEntity
  8
DEFAULT_255_2_778
100
AcDbCircle
 10
-0.0025902999999996013
 20
3.2186507499999997
 30
0.0
 40
1.4061237
100
AcDbArc
 50
80.7831028
 51
89.8951401
  0
ARC
  5
10B
330
100
100
AcDbEntity
  8
DEFAULT_255_2_778
100
AcDbCircle
 10
-0.017613000000000767
 20
3.11050025
 30
0.0
 40
1.5152862
100
AcDbArc
 50
79.2839804
 51
80.8774036
  0
ARC
  5
10C
330
100
100
AcDbEntity
  8
DEFAULT_255_2_778
100
AcDbCircle
 10
-0.06801339999999989
 20
2.91134215
 30
0.0
 40
1.7203881
100
AcDbArc
 50
54.0163483
 51
78.8680198
  0
ARC
  5
10D
330
100
100
AcDbEntity
  8
DEFAULT_255_2_778
100
AcDbCircle
 10
0.028425800000000834
 20
3.00146835
 30
0.0
 40
1.5909938
100
AcDbArc
 50
16.9721382
 51
54.9196919
  0
ARC
  5
10E
330
100
100
AcDbEntity
  8
DEFAULT_255_2_778
100
AcDbCircle
 10
0.17540570000000066
 20
3.06652325
 30
0.0
 40
1.4315558
100
AcDbArc
 50
9.4624224
 51
16.1989732
  0
LINE
  5
10F
330
100
100
AcDbEntity
  8
DEFAULT_255_2_778
100
AcDbLine
 10
1.5874831
 20
3.3018720499999996
 30
0.0
 11
-1.5875168999999998
 21
3.3018720499999996
 31
0.0
  0
LINE
  5
110
330
100
100
AcDbEntity
  8
DEFAULT_255_2_778
100
AcDbLine
 10
1.5874831
 20
3.3018720499999996
 30
0.0
 11
1.5874831
 21
3.3018720499999996
 31
0.0
  0
LINE
  5
111
330
100
100
AcDbEntity
  8
DEFAULT_255_2_778
100
AcDbLine
 10
-6.614599999999999
 20
-3.31278625
 30
0.0
 11
6.614599999999999
 21
-3.31278625
 31
0.0
  0
LINE
  5
112
330
100
100
AcDbEntity
  8
DEFAULT_255_2_778
100
AcDbLine
 10
2.6458498000000006
 20
-4.6356696500000005
 30
0.0
 11
2.6458498000000006
 21
-1.9898696500000002
 31
0.0
  0
LINE
  5
113
330
100
100
AcDbEntity
  8
DEFAULT_255_2_778
100
AcDbLine
 10
2.6458498000000006
 20
-1.9898696500000002
 30
0.0
 11
-2.6458502
 21
-4.6356696500000005
 31
0.0
  0
LINE
  5
114
330
100
100
AcDbEntity
  8
DEFAULT_255_2_778
100
AcDbLine
 10
-2.6458502
 20
-4.6356696500000005
 30
0.0
 11
-2.6458502
 21
-1.9898696500000002
 31
0.0
  0
LINE
  5
115
330
100
100
AcDbEntity
  8
DEFAULT_255_2_778
100
AcDbLine
 10
-2.6458502
 20
-1.9898696500000002
 30
0.0
 11
2.6458498000000006
 21
-4.6356696500000005
 31
0.0
  0
ENDBLK
  5
102
330
100
100
AcDbEntity
  8
0
100
AcDbBlockEnd
  0
BLOCK
  5
117
330
116
100
AcDbEntity
  8
0
100
AcDbBlockBegin
  2
YAML_PID_DCS_CONTROLLER
 70
0
 10
0.0
 20
0.0
 30
0.0
  3
YAML_PID_DCS_CONTROLLER
  1

  0
LWPOLYLINE
  5
119
330
116
100
AcDbEntity
  8
0
  6
ByLayer
100
AcDbPolyline
 90
4
 70
0
 10
0.5
 20
-0.3250000000000002
 10
0.5
 20
-0.5
 10
-0.5
 20
-0.5
 10
-0.5
 20
-0.3250000000000002
  0
ARC
  5
11A
330
116
100
AcDbEntity
  8
0
  6
ByLayer
100
AcDbCircle
 10
0.0
 20
0.0
 30
0.0
 40
0.5
100
AcDbArc
 50
351.3730734413214
 51
8.62692655867864
  0
ARC
  5
11B
330
116
100
AcDbEntity
  8
0
  6
ByLayer
100
AcDbCircle
 10
0.0
 20
0.0
 30
0.0
 40
0.5
100
AcDbArc
 50
220.5416018735045
 51
319.4583981264955
  0
LWPOLYLINE
  5
11C
330
116
100
AcDbEntity
  8
0
  6
ByLayer
100
AcDbPolyline
 90
2
 70
0
 10
-0.5
 20
-0.0750000000000002
 10
-0.5
 20
0.075
  0
LWPOLYLINE
  5
11D
330
116
100
AcDbEntity
  8
0
  6
ByLayer
100
AcDbPolyline
 90
4
 70
0
 10
-0.5
 20
0.3250000000000001
 10
-0.5
 20
0.5
 10
0.5
 20
0.5
 10
0.5
 20
0.3250000000000002
  0
ARC
  5
11E
330
116
100
AcDbEntity
  8
0
  6
ByLayer
100
AcDbCircle
 10
0.0
 20
0.0
 30
0.0
 40
0.5
100
AcDbArc
 50
171.3730734413214
 51
188.6269265586786
  0
ARC
  5
11F
330
116
100
AcDbEntity
  8
0
  6
ByLayer
100
AcDbCircle
 10
0.0
 20
0.0
 30
0.0
 40
0.5
100
AcDbArc
 50
40.54160187350453
 51
139.4583981264955
  0
LWPOLYLINE
  5
120
330
116
100
AcDbEntity
  8
0
  6
ByLayer
100
AcDbPolyline
 90
2
 70
0
 10
0.5
 20
0.075
 10
0.5
 20
-0.0750000000000002
  0
LINE
  5
121
330
116
100
AcDbEntity
  8
0
  6
ByLayer
100
AcDbLine
 10
-0.5
 20
-0.3250000000000002
 30
0.0
 11
-0.5
 21
-0.0750000000000002
 31
0.0
  0
ARC
  5
122
330
116
100
AcDbEntity
  8
0
  6
ByLayer
100
AcDbCircle
 10
0.0
 20
0.0
 30
0.0
 40
0.5
100
AcDbArc
 50
188.6269265586786
 51
220.5416018735045
  0
ARC
  5
123
330
116
100
AcDbEntity
  8
0
  6
ByLayer
100
AcDbCircle
 10
0.0
 20
0.0
 30
0.0
 40
0.5
100
AcDbArc
 50
319.4583981264955
 51
351.3730734413214
  0
LINE
  5
124
330
116
100
AcDbEntity
  8
0
  6
ByLayer
100
AcDbLine
 10
0.5
 20
-0.3250000000000002
 30
0.0
 11
0.5
 21
-0.0750000000000002
 31
0.0
  0
LINE
  5
125
330
116
100
AcDbEntity
  8
0
  6
ByLayer
100
AcDbLine
 10
0.5
 20
0.3250000000000002
 30
0.0
 11
0.5
 21
0.0750000000000002
 31
0.0
  0
ARC
  5
126
330
116
100
AcDbEntity
  8
0
  6
ByLayer
100
AcDbCircle
 10
0.0
 20
0.0
 30
0.0
 40
0.5
100
AcDbArc
 50
8.626926558678623
 51
40.54160187350452
  0
ARC
  5
127
330
116
100
AcDbEntity
  8
0
  6
ByLayer
100
AcDbCircle
 10
0.0
 20
0.0
 30
0.0
 40
0.5
100
AcDbArc
 50
139.4583981264955
 51
171.3730734413214
  0
LINE
  5
128
330
116
100
AcDbEntity
  8
0
  6
ByLayer
100
AcDbLine
 10
-0.5
 20
0.3250000000000002
 30
0.0
 11
-0.5
 21
0.0750000000000002
 31
0.0
  0
ENDBLK
  5
118
330
116
100
AcDbEntity
  8
0
100
AcDbBlockEnd
  0
BLOCK
  5
12A
330
129
100
AcDbEntity
  8
0
100
AcDbBlockBegin
  2
YAML_PID_DEETHANIZER_COLUMN
 70
0
 10
0.0
 20
0.0
 30
0.0
  3
YAML_PID_DEETHANIZER_COLUMN
  1

  0
LWPOLYLINE
  5
12C
330
129
100
AcDbEntity
  8
EQUIPMENT
  6
ByLayer
100
AcDbPolyline
 90
4
 70
1
 10
-0.5
 20
-1.875
 10
0.5
 20
-1.875
 10
0.5
 20
1.875
 10
-0.5
 20
1.875
  0
ELLIPSE
  5
12D
330
129
100
AcDbEntity
  8
EQUIPMENT
  6
ByLayer
100
AcDbEllipse
 10
-5.551115123125783e-17
 20
1.875
 30
0.0
 11
-0.5
 21
0.0
 31
0.0
 40
1.0
 41
3.141592653589793
 42
6.283185307179586
  0
ELLIPSE
  5
12E
330
129
100
AcDbEntity
  8
EQUIPMENT
  6
ByLayer
100
AcDbEllipse
 10
-5.551115123125783e-17
 20
-1.875
 30
0.0
 11
0.0
 21
-0.5
 31
0.0
 40
1.0
 41
4.71238898038469
 42
7.853981633974483
  0
ENDBLK
  5
12B
330
129
100
AcDbEntity
  8
0
100
AcDbBlockEnd
  0
BLOCK
  5
130
330
12F
100
AcDbEntity
  8
0
100
AcDbBlockBegin
  2
YAML_PID_FEED_BOTTOMS_EXCHANGER
 70
0
 10
0.0
 20
0.0
 30
0.0
  3
YAML_PID_FEED_BOTTOMS_EXCHANGER
  1

  0
LWPOLYLINE
  5
132
330
12F
100
AcDbEntity
  8
0
  6
CONTINUOUS
100
AcDbPolyline
 90
2
 70
0
 10
1.625
 20
0.5
 10
-1.625
 20
0.5
  0
LWPOLYLINE
  5
133
330
12F
100
AcDbEntity
  8
0
  6
CONTINUOUS
100
AcDbPolyline
 90
2
 70
0
 10
-1.625
 20
-0.5
 10
1.625
 20
-0.5
  0
LWPOLYLINE
  5
134
330
12F
100
AcDbEntity
  8
0
  6
CONTINUOUS
100
AcDbPolyline
 90
3
 70
0
 10
-1.75
 20
0.5
 10
-2.0
 20
0.5
 10
-2.0
 20
-0.5
  0
LINE
  5
135
330
12F
100
AcDbEntity
  8
0
  6
ByLayer
100
AcDbLine
 10
-1.6875
 20
-0.625
 30
0.0
 11
-1.6875
 21
0.625
 31
0.0
  0
LWPOLYLINE
  5
136
330
12F
100
AcDbEntity
  8
0
  6
ByLayer
100
AcDbPolyline
 90
4
 70
1
 10
-1.75
 20
0.625
 10
-1.625
 20
0.625
 10
-1.625
 20
-0.625
 10
-1.75
 20
-0.625
  0
ELLIPSE
  5
137
330
12F
100
AcDbEntity
  8
0
  6
ByLayer
100
AcDbEllipse
 10
-2.0
 20
0.0
 30
0.0
 11
0.0
 21
-0.5
 31
0.0
 40
0.5
 41
3.141592653589794
 42
6.283185307179586
  0
LWPOLYLINE
  5
138
330
12F
100
AcDbEntity
  8
0
  6
CONTINUOUS
100
AcDbPolyline
 90
2
 70
0
 10
-2.0
 20
-0.5
 10
-1.75
 20
-0.5
  0
LWPOLYLINE
  5
139
330
12F
100
AcDbEntity
  8
0
  6
CONTINUOUS
100
AcDbPolyline
 90
4
 70
0
 10
1.75
 20
-0.5
 10
2.0
 20
-0.5
 10
2.0
 20
0.5
 10
1.75
 20
0.5
  0
LINE
  5
13A
330
12F
100
AcDbEntity
  8
0
  6
ByLayer
100
AcDbLine
 10
1.6875
 20
-0.625
 30
0.0
 11
1.6875
 21
0.625
 31
0.0
  0
LWPOLYLINE
  5
13B
330
12F
100
AcDbEntity
  8
0
  6
ByLayer
100
AcDbPolyline
 90
4
 70
1
 10
1.75
 20
0.625
 10
1.625
 20
0.625
 10
1.625
 20
-0.625
 10
1.75
 20
-0.625
  0
ELLIPSE
  5
13C
330
12F
100
AcDbEntity
  8
0
  6
ByLayer
100
AcDbEllipse
 10
2.0
 20
0.0
 30
0.0
 11
0.0
 21
0.5
 31
0.0
 40
0.5
 41
3.141592653589794
 42
6.283185307179586
  0
ENDBLK
  5
131
330
12F
100
AcDbEntity
  8
0
100
AcDbBlockEnd
  0
BLOCK
  5
13E
330
13D
100
AcDbEntity
  8
0
100
AcDbBlockBegin
  2
YAML_PID_FIELD_INSTRUMENT
 70
0
 10
0.0
 20
0.0
 30
0.0
  3
YAML_PID_FIELD_INSTRUMENT
  1

  0
ARC
  5
140
330
13D
100
AcDbEntity
  8
0
  6
ByLayer
100
AcDbCircle
 10
0.0
 20
0.0
 30
0.0
 40
0.5
100
AcDbArc
 50
220.5416018735046
 51
319.4583981264955
  0
ARC
  5
141
330
13D
100
AcDbEntity
  8
0
  6
ByLayer
100
AcDbCircle
 10
0.0
 20
0.0
 30
0.0
 40
0.5
100
AcDbArc
 50
351.3730734413214
 51
8.626926558678644
  0
ARC
  5
142
330
13D
100
AcDbEntity
  8
0
  6
ByLayer
100
AcDbCircle
 10
0.0
 20
0.0
 30
0.0
 40
0.5
100
AcDbArc
 50
40.54160187350453
 51
139.4583981264955
  0
ARC
  5
143
330
13D
100
AcDbEntity
  8
0
  6
ByLayer
100
AcDbCircle
 10
0.0
 20
0.0
 30
0.0
 40
0.5
100
AcDbArc
 50
171.3730734413214
 51
188.6269265586786
  0
ARC
  5
144
330
13D
100
AcDbEntity
  8
0
  6
ByLayer
100
AcDbCircle
 10
0.0
 20
0.0
 30
0.0
 40
0.5
100
AcDbArc
 50
188.6269265586786
 51
220.5416018735046
  0
ARC
  5
145
330
13D
100
AcDbEntity
  8
0
  6
ByLayer
100
AcDbCircle
 10
0.0
 20
0.0
 30
0.0
 40
0.5
100
AcDbArc
 50
319.4583981264955
 51
351.3730734413214
  0
ARC
  5
146
330
13D
100
AcDbEntity
  8
0
  6
ByLayer
100
AcDbCircle
 10
0.0
 20
0.0
 30
0.0
 40
0.5
100
AcDbArc
 50
8.626926558678623
 51
40.54160187350457
  0
ARC
  5
147
330
13D
100
AcDbEntity
  8
0
  6
ByLayer
100
AcDbCircle
 10
0.0
 20
0.0
 30
0.0
 40
0.5
100
AcDbArc
 50
139.4583981264954
 51
171.3730734413214
  0
ENDBLK
  5
13F
330
13D
100
AcDbEntity
  8
0
100
AcDbBlockEnd
  0
BLOCK
  5
149
330
148
100
AcDbEntity
  8
0
100
AcDbBlockBegin
  2
YAML_PID_MANUAL_BLOCK_VALVE
 70
0
 10
0.0
 20
0.0
 30
0.0
  3
YAML_PID_MANUAL_BLOCK_VALVE
  1

  0
LWPOLYLINE
  5
14B
330
148
100
AcDbEntity
  8
0
  6
ByLayer
100
AcDbPolyline
 90
5
 70
0
 10
-0.5
 20
-0.3
 10
-0.5
 20
0.3
 10
0.5
 20
-0.3
 10
0.5
 20
0.3
 10
-0.5
 20
-0.3
  0
ENDBLK
  5
14A
330
148
100
AcDbEntity
  8
0
100
AcDbBlockEnd
  0
BLOCK
  5
14D
330
14C
100
AcDbEntity
  8
0
100
AcDbBlockBegin
  2
YAML_PID_NOZZLE
 70
0
 10
0.0
 20
0.0
 30
0.0
  3
YAML_PID_NOZZLE
  1

  0
LINE
  5
14F
330
14C
100
AcDbEntity
  8
0
  6
ByLayer
100
AcDbLine
 10
0.2500000000000001
 20
0.2
 30
0.0
 11
-0.5
 21
0.2
 31
0.0
  0
LINE
  5
150
330
14C
100
AcDbEntity
  8
0
  6
ByLayer
100
AcDbLine
 10
0.2500000000000001
 20
-0.2
 30
0.0
 11
-0.5
 21
-0.2
 31
0.0
  0
LINE
  5
151
330
14C
100
AcDbEntity
  8
0
  6
ByLayer
100
AcDbLine
 10
0.25
 20
-0.3
 30
0.0
 11
0.25
 21
0.3
 31
0.0
  0
LINE
  5
152
330
14C
100
AcDbEntity
  8
0
  6
ByLayer
100
AcDbLine
 10
0.5
 20
-0.3
 30
0.0
 11
0.5
 21
0.3
 31
0.0
  0
ENDBLK
  5
14E
330
14C
100
AcDbEntity
  8
0
100
AcDbBlockEnd
  0
BLOCK
  5
154
330
153
100
AcDbEntity
  8
0
100
AcDbBlockBegin
  2
YAML_PID_OFFPAGE_CONNECTOR
 70
0
 10
0.0
 20
0.0
 30
0.0
  3
YAML_PID_OFFPAGE_CONNECTOR
  1

  0
LINE
  5
156
330
153
100
AcDbEntity
  8
DEFAULT_255_2_778
100
AcDbLine
 10
2.4969797000000007
 20
4.999999999988347e-05
 30
0.0
 11
-3.3238203000000004
 21
4.999999999988347e-05
 31
0.0
  0
LINE
  5
157
330
153
100
AcDbEntity
  8
DEFAULT_255_2_778
100
AcDbLine
 10
-3.3238203000000004
 20
4.999999999988347e-05
 30
0.0
 11
-3.3238203000000004
 21
0.7937500000000002
 31
0.0
  0
LINE
  5
158
330
153
100
AcDbEntity
  8
DEFAULT_255_2_778
100
AcDbLine
 10
-3.3238203000000004
 20
0.7937500000000002
 30
0.0
 11
-0.9955202999999999
 21
4.999999999988347e-05
 31
0.0
  0
LINE
  5
159
330
153
100
AcDbEntity
  8
DEFAULT_255_2_778
100
AcDbLine
 10
-0.9955202999999999
 20
4.999999999988347e-05
 30
0.0
 11
-3.3238203000000004
 21
-0.7937500000000002
 31
0.0
  0
LINE
  5
15A
330
153
100
AcDbEntity
  8
DEFAULT_255_2_778
100
AcDbLine
 10
-3.3238203000000004
 20
-0.7937500000000002
 30
0.0
 11
-3.3238203000000004
 21
4.999999999988347e-05
 31
0.0
  0
LINE
  5
15B
330
153
100
AcDbEntity
  8
DEFAULT_1_2_778
100
AcDbLine
 10
2.6488203000000006
 20
0.6718427
 30
0.0
 11
2.6488203000000006
 21
-0.7312573000000002
 31
0.0
  0
LINE
  5
15C
330
153
100
AcDbEntity
  8
DEFAULT_1_2_778
100
AcDbLine
 10
2.6827202999999997
 20
-0.029557300000000453
 30
0.0
 11
3.3238202999999995
 21
-0.029557300000000453
 31
0.0
  0
ENDBLK
  5
155
330
153
100
AcDbEntity
  8
0
100
AcDbBlockEnd
  0
BLOCK
  5
15E
330
15D
100
AcDbEntity
  8
0
100
AcDbBlockBegin
  2
YAML_PID_OVERHEAD_CONDENSER
 70
0
 10
0.0
 20
0.0
 30
0.0
  3
YAML_PID_OVERHEAD_CONDENSER
  1

  0
LWPOLYLINE
  5
160
330
15D
100
AcDbEntity
  8
0
  6
CONTINUOUS
100
AcDbPolyline
 90
2
 70
0
 10
-1.625
 20
-0.625
 10
1.625
 20
-0.625
  0
LINE
  5
161
330
15D
100
AcDbEntity
  8
0
  6
ByLayer
100
AcDbLine
 10
-0.875
 20
0.75
 30
0.0
 11
0.875
 21
0.75
 31
0.0
  0
LWPOLYLINE
  5
162
330
15D
100
AcDbEntity
  8
0
  6
ByLayer
100
AcDbPolyline
 90
4
 70
0
 10
-0.8750000000000001
 20
-0.625
 10
-0.875
 20
0.75
 10
-1.4375
 20
0.375
 10
-1.4375
 20
-0.625
  0
LWPOLYLINE
  5
163
330
15D
100
AcDbEntity
  8
0
  6
CONTINUOUS
100
AcDbPolyline
 90
3
 70
0
 10
-1.75
 20
0.375
 10
-2.0
 20
0.375
 10
-2.0
 20
-0.625
  0
LINE
  5
164
330
15D
100
AcDbEntity
  8
0
  6
ByLayer
100
AcDbLine
 10
-1.6875
 20
-0.75
 30
0.0
 11
-1.6875
 21
0.5
 31
0.0
  0
LWPOLYLINE
  5
165
330
15D
100
AcDbEntity
  8
0
  6
ByLayer
100
AcDbPolyline
 90
4
 70
1
 10
-1.75
 20
0.5
 10
-1.625
 20
0.5
 10
-1.625
 20
-0.75
 10
-1.75
 20
-0.75
  0
ELLIPSE
  5
166
330
15D
100
AcDbEntity
  8
0
  6
ByLayer
100
AcDbEllipse
 10
-2.0
 20
-0.125
 30
0.0
 11
0.0
 21
-0.5
 31
0.0
 40
0.5
 41
3.141592653589794
 42
6.283185307179586
  0
LWPOLYLINE
  5
167
330
15D
100
AcDbEntity
  8
0
  6
CONTINUOUS
100
AcDbPolyline
 90
2
 70
0
 10
-2.0
 20
-0.625
 10
-1.75
 20
-0.625
  0
LWPOLYLINE
  5
168
330
15D
100
AcDbEntity
  8
0
  6
CONTINUOUS
100
AcDbPolyline
 90
2
 70
0
 10
-1.4375
 20
0.375
 10
-1.625
 20
0.375
  0
ELLIPSE
  5
169
330
15D
100
AcDbEntity
  8
0
  6
ByLayer
100
AcDbEllipse
 10
2.0
 20
-0.125
 30
0.0
 11
0.0
 21
-0.5
 31
0.0
 40
0.5
 41
0.0
 42
3.141592653589792
  0
LWPOLYLINE
  5
16A
330
15D
100
AcDbEntity
  8
0
  6
CONTINUOUS
100
AcDbPolyline
 90
3
 70
0
 10
1.75
 20
0.375
 10
2.0
 20
0.375
 10
2.0
 20
-0.625
  0
LWPOLYLINE
  5
16B
330
15D
100
AcDbEntity
  8
0
  6
ByLayer
100
AcDbPolyline
 90
4
 70
0
 10
0.875
 20
-0.625
 10
0.875
 20
0.75
 10
1.4375
 20
0.375
 10
1.4375
 20
-0.625
  0
LINE
  5
16C
330
15D
100
AcDbEntity
  8
0
  6
ByLayer
100
AcDbLine
 10
1.6875
 20
-0.75
 30
0.0
 11
1.6875
 21
0.5
 31
0.0
  0
LWPOLYLINE
  5
16D
330
15D
100
AcDbEntity
  8
0
  6
ByLayer
100
AcDbPolyline
 90
4
 70
1
 10
1.75
 20
0.5
 10
1.625
 20
0.5
 10
1.625
 20
-0.75
 10
1.75
 20
-0.75
  0
LWPOLYLINE
  5
16E
330
15D
100
AcDbEntity
  8
0
  6
CONTINUOUS
100
AcDbPolyline
 90
2
 70
0
 10
2.0
 20
-0.625
 10
1.75
 20
-0.625
  0
LWPOLYLINE
  5
16F
330
15D
100
AcDbEntity
  8
0
  6
CONTINUOUS
100
AcDbPolyline
 90
2
 70
0
 10
1.625
 20
0.375
 10
1.4375
 20
0.375
  0
ENDBLK
  5
15F
330
15D
100
AcDbEntity
  8
0
100
AcDbBlockEnd
  0
BLOCK
  5
171
330
170
100
AcDbEntity
  8
0
100
AcDbBlockBegin
  2
YAML_PID_REBOILER
 70
0
 10
0.0
 20
0.0
 30
0.0
  3
YAML_PID_REBOILER
  1

  0
LWPOLYLINE
  5
173
330
170
100
AcDbEntity
  8
0
  6
CONTINUOUS
100
AcDbPolyline
 90
2
 70
0
 10
1.625
 20
0.5
 10
-1.625
 20
0.5
  0
LWPOLYLINE
  5
174
330
170
100
AcDbEntity
  8
0
  6
CONTINUOUS
100
AcDbPolyline
 90
2
 70
0
 10
-1.625
 20
-0.5
 10
1.625
 20
-0.5
  0
LWPOLYLINE
  5
175
330
170
100
AcDbEntity
  8
0
  6
CONTINUOUS
100
AcDbPolyline
 90
3
 70
0
 10
-1.75
 20
0.5
 10
-2.0
 20
0.5
 10
-2.0
 20
-0.5
  0
LINE
  5
176
330
170
100
AcDbEntity
  8
0
  6
ByLayer
100
AcDbLine
 10
-1.6875
 20
-0.625
 30
0.0
 11
-1.6875
 21
0.625
 31
0.0
  0
LWPOLYLINE
  5
177
330
170
100
AcDbEntity
  8
0
  6
ByLayer
100
AcDbPolyline
 90
4
 70
1
 10
-1.75
 20
0.625
 10
-1.625
 20
0.625
 10
-1.625
 20
-0.625
 10
-1.75
 20
-0.625
  0
ELLIPSE
  5
178
330
170
100
AcDbEntity
  8
0
  6
ByLayer
100
AcDbEllipse
 10
-2.0
 20
0.0
 30
0.0
 11
0.0
 21
-0.5
 31
0.0
 40
0.5
 41
3.141592653589794
 42
6.283185307179586
  0
LWPOLYLINE
  5
179
330
170
100
AcDbEntity
  8
0
  6
CONTINUOUS
100
AcDbPolyline
 90
2
 70
0
 10
-2.0
 20
-0.5
 10
-1.75
 20
-0.5
  0
LWPOLYLINE
  5
17A
330
170
100
AcDbEntity
  8
0
  6
CONTINUOUS
100
AcDbPolyline
 90
4
 70
0
 10
1.75
 20
-0.5
 10
2.0
 20
-0.5
 10
2.0
 20
0.5
 10
1.75
 20
0.5
  0
LINE
  5
17B
330
170
100
AcDbEntity
  8
0
  6
ByLayer
100
AcDbLine
 10
1.6875
 20
-0.625
 30
0.0
 11
1.6875
 21
0.625
 31
0.0
  0
LWPOLYLINE
  5
17C
330
170
100
AcDbEntity
  8
0
  6
ByLayer
100
AcDbPolyline
 90
4
 70
1
 10
1.75
 20
0.625
 10
1.625
 20
0.625
 10
1.625
 20
-0.625
 10
1.75
 20
-0.625
  0
ELLIPSE
  5
17D
330
170
100
AcDbEntity
  8
0
  6
ByLayer
100
AcDbEllipse
 10
2.0
 20
0.0
 30
0.0
 11
0.0
 21
0.5
 31
0.0
 40
0.5
 41
3.141592653589794
 42
6.283185307179586
  0
ENDBLK
  5
172
330
170
100
AcDbEntity
  8
0
100
AcDbBlockEnd
  0
BLOCK
  5
17F
330
17E
100
AcDbEntity
  8
0
100
AcDbBlockBegin
  2
YAML_PID_REFLUX_DRUM
 70
0
 10
0.0
 20
0.0
 30
0.0
  3
YAML_PID_REFLUX_DRUM
  1

  0
LWPOLYLINE
  5
181
330
17E
100
AcDbEntity
  8
EQUIPMENT
  6
ByLayer
100
AcDbPolyline
 90
4
 70
1
 10
-1.875
 20
-0.5
 10
1.875
 20
-0.5
 10
1.875
 20
0.5
 10
-1.875
 20
0.5
  0
ELLIPSE
  5
182
330
17E
100
AcDbEntity
  8
EQUIPMENT
  6
ByLayer
100
AcDbEllipse
 10
1.875
 20
0.0
 30
0.0
 11
0.0
 21
0.5
 31
0.0
 40
0.5
 41
3.141592653589794
 42
6.283185307179586
  0
ELLIPSE
  5
183
330
17E
100
AcDbEntity
  8
EQUIPMENT
  6
ByLayer
100
AcDbEllipse
 10
-1.875
 20
0.0
 30
0.0
 11
0.0
 21
-0.5
 31
0.0
 40
0.5
 41
3.141592653589794
 42
6.283185307179586
  0
ENDBLK
  5
180
330
17E
100
AcDbEntity
  8
0
100
AcDbBlockEnd
  0
BLOCK
  5
185
330
184
100
AcDbEntity
  8
0
100
AcDbBlockBegin
  2
YAML_PID_RELIEF_VALVE
 70
0
 10
0.0
 20
0.0
 30
0.0
  3
YAML_PID_RELIEF_VALVE
  1

  0
LINE
  5
187
330
184
100
AcDbEntity
  8
DEFAULT_255_2_778
100
AcDbLine
 10
-6.614599999999999
 20
-1.6599999999922233e-05
 30
0.0
 11
6.614599999999999
 21
-1.6599999999922233e-05
 31
0.0
  0
LINE
  5
188
330
184
100
AcDbEntity
  8
DEFAULT_255_2_778
100
AcDbLine
 10
2.6458498000000006
 20
-1.3229000000000002
 30
0.0
 11
2.6458498000000006
 21
1.3229000000000002
 31
0.0
  0
LINE
  5
189
330
184
100
AcDbEntity
  8
DEFAULT_255_2_778
100
AcDbLine
 10
2.6458498000000006
 20
1.3229000000000002
 30
0.0
 11
-2.6458502
 21
-1.3229000000000002
 31
0.0
  0
LINE
  5
18A
330
184
100
AcDbEntity
  8
DEFAULT_255_2_778
100
AcDbLine
 10
-2.6458502
 20
-1.3229000000000002
 30
0.0
 11
-2.6458502
 21
1.3229000000000002
 31
0.0
  0
LINE
  5
18B
330
184
100
AcDbEntity
  8
DEFAULT_255_2_778
100
AcDbLine
 10
-2.6458502
 20
1.3229000000000002
 30
0.0
 11
2.6458498000000006
 21
-1.3229000000000002
 31
0.0
  0
LINE
  5
18C
330
184
100
AcDbEntity
  8
DEFAULT_255_2_778
100
AcDbLine
 10
1.3228831000000003
 20
1.3229000000000002
 30
0.0
 11
1.3228831000000003
 21
-1.3229000000000002
 31
0.0
  0
ENDBLK
  5
186
330
184
100
AcDbEntity
  8
0
100
AcDbBlockEnd
  0
BLOCK
  5
18E
330
18D
100
AcDbEntity
  8
0
100
AcDbBlockBegin
  2
YAML_PID_RESTRICTION_ORIFICE
 70
0
 10
0.0
 20
0.0
 30
0.0
  3
YAML_PID_RESTRICTION_ORIFICE
  1

  0
LINE
  5
190
330
18D
100
AcDbEntity
  8
0
  6
ByLayer
100
AcDbLine
 10
0.0
 20
-0.6000000000000001
 30
0.0
 11
0.0
 21
0.6000000000000001
 31
0.0
  0
LINE
  5
191
330
18D
100
AcDbEntity
  8
0
  6
ByLayer
100
AcDbLine
 10
-0.5
 20
-0.6
 30
0.0
 11
-0.5
 21
0.6
 31
0.0
  0
LINE
  5
192
330
18D
100
AcDbEntity
  8
0
  6
ByLayer
100
AcDbLine
 10
0.5
 20
-0.6
 30
0.0
 11
0.5
 21
0.6
 31
0.0
  0
ENDBLK
  5
18F
330
18D
100
AcDbEntity
  8
0
100
AcDbBlockEnd
  0
BLOCK
  5
194
330
193
100
AcDbEntity
  8
0
100
AcDbBlockBegin
  2
YAML_PID_SAMPLE_POINT
 70
0
 10
0.0
 20
0.0
 30
0.0
  3
YAML_PID_SAMPLE_POINT
  1

  0
LINE
  5
196
330
193
100
AcDbEntity
  8
DEFAULT_255_2_778
100
AcDbLine
 10
-5.2580998999999995
 20
2.6458500000000003
 30
0.0
 11
5.325200100000002
 21
2.6458500000000003
 31
0.0
  0
LINE
  5
197
330
193
100
AcDbEntity
  8
DEFAULT_255_2_778
100
AcDbLine
 10
5.325200100000002
 20
2.6458500000000003
 30
0.0
 11
5.325200100000002
 21
-2.6458500000000003
 31
0.0
  0
LINE
  5
198
330
193
100
AcDbEntity
  8
DEFAULT_255_2_778
100
AcDbLine
 10
5.325200100000002
 20
-2.6458500000000003
 30
0.0
 11
-5.2580998999999995
 21
-2.6458500000000003
 31
0.0
  0
LINE
  5
199
330
193
100
AcDbEntity
  8
DEFAULT_255_2_778
100
AcDbLine
 10
-5.2580998999999995
 20
-2.6458500000000003
 30
0.0
 11
-5.2580998999999995
 21
2.6458500000000003
 31
0.0
  0
LINE
  5
19A
330
193
100
AcDbEntity
  8
DEFAULT_255_2_778
100
AcDbLine
 10
-7.970549999999999
 20
1.669999999984184e-05
 30
0.0
 11
-5.32475
 21
1.669999999984184e-05
 31
0.0
  0
LINE
  5
19B
330
193
100
AcDbEntity
  8
DEFAULT_255_2_778
100
AcDbLine
 10
5.32475
 20
1.669999999984184e-05
 30
0.0
 11
7.970550000000001
 21
1.669999999984184e-05
 31
0.0
  0
LINE
  5
19C
330
193
100
AcDbEntity
  8
DEFAULT_255_2_778
100
AcDbLine
 10
3.605470800000001
 20
-0.9259875000000002
 30
0.0
 11
5.3252708
 21
-0.9259875000000002
 31
0.0
  0
LINE
  5
19D
330
193
100
AcDbEntity
  8
DEFAULT_255_2_778
100
AcDbLine
 10
5.3252708
 20
-0.9259875000000002
 30
0.0
 11
5.3252708
 21
-2.6457875
 31
0.0
  0
LINE
  5
19E
330
193
100
AcDbEntity
  8
DEFAULT_255_2_778
100
AcDbLine
 10
5.3252708
 20
-2.6457875
 30
0.0
 11
3.605470800000001
 21
-2.6457875
 31
0.0
  0
LINE
  5
19F
330
193
100
AcDbEntity
  8
DEFAULT_255_2_778
100
AcDbLine
 10
3.605470800000001
 20
-2.6457875
 30
0.0
 11
3.605470800000001
 21
-0.9259875000000002
 31
0.0
  0
LINE
  5
1A0
330
193
100
AcDbEntity
  8
DEFAULT_255_2_778
100
AcDbLine
 10
4.8918374
 20
-2.3811166000000004
 30
0.0
 11
4.530937400000001
 21
-2.3811166000000004
 31
0.0
  0
LINE
  5
1A1
330
193
100
AcDbEntity
  8
DEFAULT_255_2_778
100
AcDbLine
 10
4.530937400000001
 20
-2.3811166000000004
 30
0.0
 11
4.530937400000001
 21
-1.7684166000000001
 31
0.0
  0
LINE
  5
1A2
330
193
100
AcDbEntity
  8
DEFAULT_255_2_778
100
AcDbLine
 10
4.530937400000001
 20
-1.7684166000000001
 30
0.0
 11
4.8918374
 21
-1.7684166000000001
 31
0.0
  0
LINE
  5
1A3
330
193
100
AcDbEntity
  8
DEFAULT_255_2_778
100
AcDbLine
 10
4.8918374
 20
-1.7684166000000001
 30
0.0
 11
4.8918374
 21
-1.3228166000000001
 31
0.0
  0
LINE
  5
1A4
330
193
100
AcDbEntity
  8
DEFAULT_255_2_778
100
AcDbLine
 10
4.8918374
 20
-1.3228166000000001
 30
0.0
 11
5.192437400000001
 21
-1.3228166000000001
 31
0.0
  0
LINE
  5
1A5
330
193
100
AcDbEntity
  8
DEFAULT_255_2_778
100
AcDbLine
 10
5.192437400000001
 20
-1.3228166000000001
 30
0.0
 11
5.192437400000001
 21
-2.3811166000000004
 31
0.0
  0
LINE
  5
1A6
330
193
100
AcDbEntity
  8
DEFAULT_255_2_778
100
AcDbLine
 10
5.192437400000001
 20
-2.3811166000000004
 30
0.0
 11
4.8918374
 21
-2.3811166000000004
 31
0.0
  0
ENDBLK
  5
195
330
193
100
AcDbEntity
  8
0
100
AcDbBlockEnd
  0
BLOCK
  5
1A8
330
1A7
100
AcDbEntity
  8
0
100
AcDbBlockBegin
  2
YAML_PID_SHUTDOWN_VALVE
 70
0
 10
0.0
 20
0.0
 30
0.0
  3
YAML_PID_SHUTDOWN_VALVE
  1

  0
LINE
  5
1AA
330
1A7
100
AcDbEntity
  8
DEFAULT_255_2_778
100
AcDbLine
 10
-6.614599999999999
 20
0.5291292000000001
 30
0.0
 11
6.614599999999999
 21
0.5291292000000001
 31
0.0
  0
LINE
  5
1AB
330
1A7
100
AcDbEntity
  8
DEFAULT_255_2_778
100
AcDbLine
 10
2.6458498000000006
 20
-0.7937542
 30
0.0
 11
2.6458498000000006
 21
1.8520458000000002
 31
0.0
  0
LINE
  5
1AC
330
1A7
100
AcDbEntity
  8
DEFAULT_255_2_778
100
AcDbLine
 10
2.6458498000000006
 20
1.8520458000000002
 30
0.0
 11
-2.6458502
 21
-0.7937542
 31
0.0
  0
LINE
  5
1AD
330
1A7
100
AcDbEntity
  8
DEFAULT_255_2_778
100
AcDbLine
 10
-2.6458502
 20
-0.7937542
 30
0.0
 11
-2.6458502
 21
1.8520458000000002
 31
0.0
  0
LINE
  5
1AE
330
1A7
100
AcDbEntity
  8
DEFAULT_255_2_778
100
AcDbLine
 10
-2.6458502
 20
1.8520458000000002
 30
0.0
 11
2.6458498000000006
 21
-0.7937542
 31
0.0
  0
LINE
  5
1AF
330
1A7
100
AcDbEntity
  8
DEFAULT_255_2_778
100
AcDbLine
 10
-1.5875168999999998
 20
-0.26454579999999983
 30
0.0
 11
-1.6900000000319437e-05
 21
-1.8520458
 31
0.0
  0
LINE
  5
1B0
330
1A7
100
AcDbEntity
  8
DEFAULT_255_2_778
100
AcDbLine
 10
-1.6900000000319437e-05
 20
-1.8520458
 30
0.0
 11
1.5874831
 21
-0.26454579999999983
 31
0.0
  0
LINE
  5
1B1
330
1A7
100
AcDbEntity
  8
DEFAULT_255_2_778
100
AcDbLine
 10
1.5874831
 20
-0.26454579999999983
 30
0.0
 11
-1.6900000000319437e-05
 21
0.5291542000000002
 31
0.0
  0
LINE
  5
1B2
330
1A7
100
AcDbEntity
  8
DEFAULT_255_2_778
100
AcDbLine
 10
-1.6900000000319437e-05
 20
0.5291542000000002
 30
0.0
 11
-1.5875168999999998
 21
-0.26454579999999983
 31
0.0
  0
ENDBLK
  5
1A9
330
1A7
100
AcDbEntity
  8
0
100
AcDbBlockEnd
  0
ENDSEC
  0
SECTION
  2
ENTITIES
  0
LWPOLYLINE
  5
1B3
330
17
100
AcDbEntity
  8
BORDER
100
AcDbPolyline
 90
5
 70
0
 10
35.0
 20
70.0
 10
620.0
 20
70.0
 10
620.0
 20
360.0
 10
35.0
 20
360.0
 10
35.0
 20
70.0
  0
TEXT
  5
1B4
330
17
100
AcDbEntity
  8
TEXT
100
AcDbText
 10
50.0
 20
340.0
 30
0.0
 40
5.0
  1
E-501 REBOILER PACKAGE
 11
50.0
 21
340.0
 31
0.0
100
AcDbText
  0
LWPOLYLINE
  5
1B5
330
17
100
AcDbEntity
  8
EQUIPMENT
100
AcDbPolyline
 90
5
 70
0
 10
85.0
 20
120.0
 10
165.0
 20
120.0
 10
165.0
 20
310.0
 10
85.0
 20
310.0
 10
85.0
 20
120.0
  0
LINE
  5
1B6
330
17
100
AcDbEntity
  8
EQUIPMENT
100
AcDbLine
 10
93.0
 20
155.0
 30
0.0
 11
157.0
 21
155.0
 31
0.0
  0
LINE
  5
1B7
330
17
100
AcDbEntity
  8
EQUIPMENT
100
AcDbLine
 10
93.0
 20
195.0
 30
0.0
 11
157.0
 21
195.0
 31
0.0
  0
LINE
  5
1B8
330
17
100
AcDbEntity
  8
EQUIPMENT
100
AcDbLine
 10
93.0
 20
235.0
 30
0.0
 11
157.0
 21
235.0
 31
0.0
  0
LINE
  5
1B9
330
17
100
AcDbEntity
  8
EQUIPMENT
100
AcDbLine
 10
93.0
 20
275.0
 30
0.0
 11
157.0
 21
275.0
 31
0.0
  0
TEXT
  5
1BA
330
17
100
AcDbEntity
  8
TEXT
100
AcDbText
 10
85.0
 20
100.0
 30
0.0
 40
3.0
  1
C-501 LOWER SHELL
 11
85.0
 21
100.0
 31
0.0
100
AcDbText
  0
LINE
  5
1BB
330
17
100
AcDbEntity
  8
NOZZLES
370
25
100
AcDbLine
 10
165.0
 20
165.0
 30
0.0
 11
195.0
 21
165.0
 31
0.0
  0
LINE
  5
1BC
330
17
100
AcDbEntity
  8
NOZZLES
370
18
100
AcDbLine
 10
165.0
 20
162.0
 30
0.0
 11
165.0
 21
168.0
 31
0.0
  0
LINE
  5
1BD
330
17
100
AcDbEntity
  8
NOZZLES
370
18
100
AcDbLine
 10
180.0
 20
162.0
 30
0.0
 11
180.0
 21
168.0
 31
0.0
  0
LINE
  5
1BE
330
17
100
AcDbEntity
  8
NOZZLES
370
25
100
AcDbLine
 10
165.0
 20
200.0
 30
0.0
 11
195.0
 21
200.0
 31
0.0
  0
LINE
  5
1BF
330
17
100
AcDbEntity
  8
NOZZLES
370
18
100
AcDbLine
 10
165.0
 20
197.0
 30
0.0
 11
165.0
 21
203.0
 31
0.0
  0
LINE
  5
1C0
330
17
100
AcDbEntity
  8
NOZZLES
370
18
100
AcDbLine
 10
180.0
 20
197.0
 30
0.0
 11
180.0
 21
203.0
 31
0.0
  0
INSERT
  5
1C1
330
17
100
AcDbEntity
  8
SYMBOLS
100
AcDbBlockReference
  2
YAML_PID_REBOILER
 10
310.0
 20
180.0
 30
0.0
 41
17.2
 42
33.6
  0
TEXT
  5
1C3
330
17
100
AcDbEntity
  8
TEXT
100
AcDbText
 10
305.0
 20
150.0
 30
0.0
 40
3.5
  1
E-501
 11
305.0
 21
150.0
 31
0.0
100
AcDbText
  0
LINE
  5
1C4
330
17
100
AcDbEntity
  8
NOZZLES
370
25
100
AcDbLine
 10
270.0
 20
165.0
 30
0.0
 11
230.0
 21
165.0
 31
0.0
  0
LINE
  5
1C5
330
17
100
AcDbEntity
  8
NOZZLES
370
18
100
AcDbLine
 10
270.0
 20
162.0
 30
0.0
 11
270.0
 21
168.0
 31
0.0
  0
LINE
  5
1C6
330
17
100
AcDbEntity
  8
NOZZLES
370
18
100
AcDbLine
 10
250.0
 20
162.0
 30
0.0
 11
250.0
 21
168.0
 31
0.0
  0
LINE
  5
1C7
330
17
100
AcDbEntity
  8
NOZZLES
370
25
100
AcDbLine
 10
270.0
 20
200.0
 30
0.0
 11
230.0
 21
200.0
 31
0.0
  0
LINE
  5
1C8
330
17
100
AcDbEntity
  8
NOZZLES
370
18
100
AcDbLine
 10
270.0
 20
197.0
 30
0.0
 11
270.0
 21
203.0
 31
0.0
  0
LINE
  5
1C9
330
17
100
AcDbEntity
  8
NOZZLES
370
18
100
AcDbLine
 10
250.0
 20
197.0
 30
0.0
 11
250.0
 21
203.0
 31
0.0
  0
LINE
  5
1CA
330
17
100
AcDbEntity
  8
NOZZLES
370
25
100
AcDbLine
 10
350.0
 20
200.0
 30
0.0
 11
385.0
 21
200.0
 31
0.0
  0
LINE
  5
1CB
330
17
100
AcDbEntity
  8
NOZZLES
370
18
100
AcDbLine
 10
350.0
 20
197.0
 30
0.0
 11
350.0
 21
203.0
 31
0.0
  0
LINE
  5
1CC
330
17
100
AcDbEntity
  8
NOZZLES
370
18
100
AcDbLine
 10
370.0
 20
197.0
 30
0.0
 11
370.0
 21
203.0
 31
0.0
  0
LINE
  5
1CD
330
17
100
AcDbEntity
  8
NOZZLES
370
25
100
AcDbLine
 10
350.0
 20
160.0
 30
0.0
 11
385.0
 21
160.0
 31
0.0
  0
LINE
  5
1CE
330
17
100
AcDbEntity
  8
NOZZLES
370
18
100
AcDbLine
 10
350.0
 20
157.0
 30
0.0
 11
350.0
 21
163.0
 31
0.0
  0
LINE
  5
1CF
330
17
100
AcDbEntity
  8
NOZZLES
370
18
100
AcDbLine
 10
370.0
 20
157.0
 30
0.0
 11
370.0
 21
163.0
 31
0.0
  0
INSERT
  5
1D0
330
17
100
AcDbEntity
  8
SYMBOLS
100
AcDbBlockReference
  2
YAML_PID_OFFPAGE_CONNECTOR
 10
585.0
 20
200.0
 30
0.0
 41
2.707727610906041
 42
12.59842519685039
 50
180.0
  0
TEXT
  5
1D2
330
17
100
AcDbEntity
  8
TEXT
100
AcDbText
 10
485.0
 20
220.0
 30
0.0
 40
2.0
  1
HEATING MEDIUM SUPPLY
 11
485.0
 21
220.0
 31
0.0
100
AcDbText
  0
TEXT
  5
1D3
330
17
100
AcDbEntity
  8
TEXT
100
AcDbText
 10
485.0
 20
180.0
 30
0.0
 40
2.0
  1
FROM PID-810
 11
485.0
 21
180.0
 31
0.0
100
AcDbText
  0
INSERT
  5
1D4
330
17
100
AcDbEntity
  8
SYMBOLS
100
AcDbBlockReference
  2
YAML_PID_OFFPAGE_CONNECTOR
 10
585.0
 20
160.0
 30
0.0
 41
2.707727610906041
 42
12.59842519685039
 50
180.0
  0
TEXT
  5
1D6
330
17
100
AcDbEntity
  8
TEXT
100
AcDbText
 10
485.0
 20
180.0
 30
0.0
 40
2.0
  1
HEATING MEDIUM RETURN
 11
485.0
 21
180.0
 31
0.0
100
AcDbText
  0
TEXT
  5
1D7
330
17
100
AcDbEntity
  8
TEXT
100
AcDbText
 10
485.0
 20
140.0
 30
0.0
 40
2.0
  1
TO PID-810
 11
485.0
 21
140.0
 31
0.0
100
AcDbText
  0
LWPOLYLINE
  5
1D8
330
17
100
AcDbEntity
  8
PROCESS
370
35
100
AcDbPolyline
 90
2
 70
0
 10
195.0
 20
165.0
 10
205.0
 20
165.0
  0
LWPOLYLINE
  5
1D9
330
17
100
AcDbEntity
  8
PROCESS
370
35
100
AcDbPolyline
 90
2
 70
0
 10
215.0
 20
165.0
 10
230.0
 20
165.0
  0
INSERT
  5
1DA
330
17
100
AcDbEntity
  8
SYMBOLS
100
AcDbBlockReference
  2
YAML_PID_MANUAL_BLOCK_VALVE
 10
210.0
 20
165.0
 30
0.0
 41
9.0
 42
4.0
  0
TEXT
  5
1DC
330
17
100
AcDbEntity
  8
TEXT
100
AcDbText
 10
200.0
 20
170.0
 30
0.0
 40
1.8
  1
HV-507
 11
200.0
 21
170.0
 31
0.0
100
AcDbText
  0
LWPOLYLINE
  5
1DD
330
17
100
AcDbEntity
  8
PROCESS
370
35
100
AcDbPolyline
 90
2
 70
0
 10
215.0
 20
200.0
 10
230.0
 20
200.0
  0
LWPOLYLINE
  5
1DE
330
17
100
AcDbEntity
  8
PROCESS
370
35
100
AcDbPolyline
 90
2
 70
0
 10
195.0
 20
200.0
 10
205.0
 20
200.0
  0
INSERT
  5
1DF
330
17
100
AcDbEntity
  8
SYMBOLS
100
AcDbBlockReference
  2
YAML_PID_MANUAL_BLOCK_VALVE
 10
210.0
 20
200.0
 30
0.0
 41
9.0
 42
4.0
  0
TEXT
  5
1E1
330
17
100
AcDbEntity
  8
TEXT
100
AcDbText
 10
200.0
 20
205.0
 30
0.0
 40
1.8
  1
HV-508
 11
200.0
 21
205.0
 31
0.0
100
AcDbText
  0
LWPOLYLINE
  5
1E2
330
17
100
AcDbEntity
  8
UTILITY
370
25
100
AcDbPolyline
 90
2
 70
0
 10
519.0
 20
200.0
 10
585.0
 20
200.0
  0
LWPOLYLINE
  5
1E3
330
17
100
AcDbEntity
  8
UTILITY
370
25
100
AcDbPolyline
 90
2
 70
0
 10
385.0
 20
200.0
 10
491.0
 20
200.0
  0
INSERT
  5
1E4
330
17
100
AcDbEntity
  8
SYMBOLS
100
AcDbBlockReference
  2
YAML_PID_CONTROL_VALVE
 10
505.0
 20
205.0
 30
0.0
 41
2.1165301000816377
 42
1.294311383901137
  0
LINE
  5
1E6
330
17
100
AcDbEntity
  8
INSTRUMENT
100
AcDbLine
 10
505.0
 20
206.0
 30
0.0
 11
505.0
 21
215.0
 31
0.0
  0
TEXT
  5
1E7
330
17
100
AcDbEntity
  8
TEXT
100
AcDbText
 10
495.0
 20
210.0
 30
0.0
 40
1.8
  1
TV-501
 11
495.0
 21
210.0
 31
0.0
100
AcDbText
  0
LWPOLYLINE
  5
1E8
330
17
100
AcDbEntity
  8
UTILITY
370
25
100
AcDbPolyline
 90
2
 70
0
 10
385.0
 20
160.0
 10
585.0
 20
160.0
  0
INSERT
  5
1E9
330
17
100
AcDbEntity
  8
SYMBOLS
100
AcDbBlockReference
  2
YAML_PID_DCS_CONTROLLER
 10
505.0
 20
275.0
 30
0.0
 41
18.0
 42
18.0
  0
TEXT
  5
1EB
330
17
100
AcDbEntity
  8
TEXT
100
AcDbText
 10
500.0
 20
275.0
 30
0.0
 40
2.0
  1
TIC-501
 11
500.0
 21
275.0
 31
0.0
100
AcDbText
  0
LINE
  5
1EC
330
17
100
AcDbEntity
  8
SIGNAL_PNEUMATIC
370
18
100
AcDbLine
 10
515.0
 20
275.0
 30
0.0
 11
535.0
 21
275.0
 31
0.0
  0
LINE
  5
1ED
330
17
100
AcDbEntity
  8
SIGNAL_PNEUMATIC
370
18
100
AcDbLine
 10
535.0
 20
275.0
 30
0.0
 11
535.0
 21
215.0
 31
0.0
  0
LINE
  5
1EE
330
17
100
AcDbEntity
  8
SIGNAL_PNEUMATIC
370
18
100
AcDbLine
 10
535.0
 20
255.0
 30
0.0
 11
535.0
 21
260.0
 31
0.0
  0
LINE
  5
1EF
330
17
100
AcDbEntity
  8
SIGNAL_PNEUMATIC
370
18
100
AcDbLine
 10
535.0
 20
225.0
 30
0.0
 11
535.0
 21
230.0
 31
0.0
  0
LINE
  5
1F0
330
17
100
AcDbEntity
  8
SIGNAL_PNEUMATIC
370
18
100
AcDbLine
 10
535.0
 20
215.0
 30
0.0
 11
505.0
 21
215.0
 31
0.0
  0
ENDSEC
  0
SECTION
  2
OBJECTS
  0
DICTIONARY
  5
A
330
0
100
AcDbDictionary
281
1
  3
ACAD_COLOR
350
B
  3
ACAD_GROUP
350
C
  3
ACAD_LAYOUT
350
D
  3
ACAD_MATERIAL
350
E
  3
ACAD_MLEADERSTYLE
350
F
  3
ACAD_MLINESTYLE
350
10
  3
ACAD_PLOTSETTINGS
350
11
  3
ACAD_PLOTSTYLENAME
350
12
  3
ACAD_SCALELIST
350
14
  3
ACAD_TABLESTYLE
350
15
  3
ACAD_VISUALSTYLE
350
16
  3
EZDXF_META
350
2D
  0
DICTIONARY
  5
B
330
A
100
AcDbDictionary
281
1
  0
DICTIONARY
  5
C
330
A
100
AcDbDictionary
281
1
  0
DICTIONARY
  5
D
330
A
100
AcDbDictionary
281
1
  3
Model
350
1A
  3
Layout1
350
1E
  0
DICTIONARY
  5
E
330
A
100
AcDbDictionary
281
1
  3
ByBlock
350
1F
  3
ByLayer
350
20
  3
Global
350
21
  0
DICTIONARY
  5
F
330
A
100
AcDbDictionary
281
1
  3
Standard
350
2C
  0
DICTIONARY
  5
10
330
A
100
AcDbDictionary
281
1
  3
Standard
350
22
  0
DICTIONARY
  5
11
330
A
100
AcDbDictionary
281
1
  0
ACDBDICTIONARYWDFLT
  5
12
330
A
100
AcDbDictionary
281
1
  3
Normal
350
13
100
AcDbDictionaryWithDefault
340
13
  0
ACDBPLACEHOLDER
  5
13
330
12
  0
DICTIONARY
  5
14
330
A
100
AcDbDictionary
281
1
  0
DICTIONARY
  5
15
330
A
100
AcDbDictionary
281
1
  0
DICTIONARY
  5
16
330
A
100
AcDbDictionary
281
1
  3
2dWireframe
350
5A
  3
Basic
350
5B
  3
Brighten
350
5C
  3
ColorChange
350
5D
  3
Conceptual
350
5E
  3
Dim
350
5F
  3
EdgeColorOff
350
60
  3
Facepattern
350
61
  3
Flat
350
62
  3
FlatWithEdges
350
63
  3
Gouraud
350
64
  3
GouraudWithEdges
350
65
  3
Hidden
350
66
  3
JitterOff
350
67
  3
Linepattern
350
68
  3
Modeling
350
69
  3
OverhangOff
350
6A
  3
Realistic
350
6B
  3
Shaded
350
6C
  3
Shaded with edges
350
6D
  3
Shades of Gray
350
6E
  3
Sketchy
350
6F
  3
Thicken
350
70
  3
Wireframe
350
71
  3
X-Ray
350
72
  0
LAYOUT
  5
1A
330
D
100
AcDbPlotSettings
  1

  4
A3
  6

 40
7.5
 41
20.0
 42
7.5
 43
20.0
 44
420.0
 45
297.0
 46
0.0
 47
0.0
 48
0.0
 49
0.0
140
0.0
141
0.0
142
1.0
143
1.0
 70
1024
 72
1
 73
0
 74
5
  7

 75
16
 76
0
 77
2
 78
300
147
1.0
148
0.0
149
0.0
100
AcDbLayout
  1
Model
 70
1
 71
0
 10
0.0
 20
0.0
 11
420.0
 21
297.0
 12
0.0
 22
0.0
 32
0.0
 14
1e+20
 24
1e+20
 34
1e+20
 15
-1e+20
 25
-1e+20
 35
-1e+20
146
0.0
 13
0.0
 23
0.0
 33
0.0
 16
1.0
 26
0.0
 36
0.0
 17
0.0
 27
1.0
 37
0.0
 76
1
330
17
  0
LAYOUT
  5
1E
330
D
100
AcDbPlotSettings
  1

  4
A3
  6

 40
7.5
 41
20.0
 42
7.5
 43
20.0
 44
420.0
 45
297.0
 46
0.0
 47
0.0
 48
0.0
 49
0.0
140
0.0
141
0.0
142
1.0
143
1.0
 70
0
 72
1
 73
0
 74
5
  7

 75
16
 76
0
 77
2
 78
300
147
1.0
148
0.0
149
0.0
100
AcDbLayout
  1
Layout1
 70
1
 71
1
 10
0.0
 20
0.0
 11
420.0
 21
297.0
 12
0.0
 22
0.0
 32
0.0
 14
1e+20
 24
1e+20
 34
1e+20
 15
-1e+20
 25
-1e+20
 35
-1e+20
146
0.0
 13
0.0
 23
0.0
 33
0.0
 16
1.0
 26
0.0
 36
0.0
 17
0.0
 27
1.0
 37
0.0
 76
1
330
1B
  0
MATERIAL
  5
1F
102
{ACAD_REACTORS
330
E
102
}
330
E
100
AcDbMaterial
  1
ByBlock
  2

 70
0
 40
1.0
 71
1
 41
1.0
 91
-1023410177
 42
1.0
 72
1
  3

 73
1
 74
1
 75
1
 44
0.5
 73
0
 45
1.0
 46
1.0
 77
1
  4

 78
1
 79
1
170
1
 48
1.0
171
1
  6

172
1
173
1
174
1
140
1.0
141
1.0
175
1
  7

176
1
177
1
178
1
143
1.0
179
1
  8

270
1
271
1
272
1
145
1.0
146
1.0
273
1
  9

274
1
275
1
276
1
 42
1.0
 72
1
  3

 73
1
 74
1
 75
1
 94
63
  0
MATERIAL
  5
20
102
{ACAD_REACTORS
330
E
102
}
330
E
100
AcDbMaterial
  1
ByLayer
  2

 70
0
 40
1.0
 71
1
 41
1.0
 91
-1023410177
 42
1.0
 72
1
  3

 73
1
 74
1
 75
1
 44
0.5
 73
0
 45
1.0
 46
1.0
 77
1
  4

 78
1
 79
1
170
1
 48
1.0
171
1
  6

172
1
173
1
174
1
140
1.0
141
1.0
175
1
  7

176
1
177
1
178
1
143
1.0
179
1
  8

270
1
271
1
272
1
145
1.0
146
1.0
273
1
  9

274
1
275
1
276
1
 42
1.0
 72
1
  3

 73
1
 74
1
 75
1
 94
63
  0
MATERIAL
  5
21
102
{ACAD_REACTORS
330
E
102
}
330
E
100
AcDbMaterial
  1
Global
  2

 70
0
 40
1.0
 71
1
 41
1.0
 91
-1023410177
 42
1.0
 72
1
  3

 73
1
 74
1
 75
1
 44
0.5
 73
0
 45
1.0
 46
1.0
 77
1
  4

 78
1
 79
1
170
1
 48
1.0
171
1
  6

172
1
173
1
174
1
140
1.0
141
1.0
175
1
  7

176
1
177
1
178
1
143
1.0
179
1
  8

270
1
271
1
272
1
145
1.0
146
1.0
273
1
  9

274
1
275
1
276
1
 42
1.0
 72
1
  3

 73
1
 74
1
 75
1
 94
63
  0
MLINESTYLE
  5
22
102
{ACAD_REACTORS
330
10
102
}
330
10
100
AcDbMlineStyle
  2
Standard
 70
0
  3

 62
256
 51
90.0
 52
90.0
 71
2
 49
0.5
 62
256
  6
BYLAYER
 49
-0.5
 62
256
  6
BYLAYER
  0
MLEADERSTYLE
  5
2C
102
{ACAD_REACTORS
330
F
102
}
330
F
100
AcDbMLeaderStyle
179
2
170
2
171
1
172
0
 90
2
 40
0.0
 41
0.0
173
1
 91
-1056964608
 92
-2
290
1
 42
2.0
291
1
 43
8.0
  3
Standard
 44
4.0
300

342
29
174
1
175
1
176
0
178
1
 93
-1056964608
 45
4.0
292
0
297
0
 46
4.0
 94
-1056964608
 47
1.0
 49
1.0
140
1.0
294
1
141
0.0
177
0
142
1.0
295
0
296
0
143
3.75
271
0
272
9
273
9
  0
DICTIONARY
  5
2D
330
A
100
AcDbDictionary
280
1
281
1
  3
CREATED_BY_EZDXF
350
2E
  3
WRITTEN_BY_EZDXF
350
1F3
  0
DICTIONARYVAR
  5
2E
330
2D
100
DictionaryVariables
280
0
  1
1.4.3 @ 2026-06-08T12:36:58.977897+00:00
  0
VISUALSTYLE
  5
5A
102
{ACAD_REACTORS
330
16
102
}
330
16
100
AcDbVisualStyle
  2
2dWireframe
 70
4
 90
0
 40
0.6
 62
7
290
0
291
0
  0
VISUALSTYLE
  5
5B
102
{ACAD_REACTORS
330
16
102
}
330
16
100
AcDbVisualStyle
  2
Basic
 70
7
 90
1
 40
0.6
 62
7
290
0
291
1
  0
VISUALSTYLE
  5
5C
102
{ACAD_REACTORS
330
16
102
}
330
16
100
AcDbVisualStyle
  2
Brighten
 70
12
 90
2
 40
0.6
 62
7
290
0
291
1
  0
VISUALSTYLE
  5
5D
102
{ACAD_REACTORS
330
16
102
}
330
16
100
AcDbVisualStyle
  2
ColorChange
 70
16
 90
2
 40
0.6
 62
8
290
0
291
1
  0
VISUALSTYLE
  5
5E
102
{ACAD_REACTORS
330
16
102
}
330
16
100
AcDbVisualStyle
  2
Conceptual
 70
9
 90
3
 40
0.6
 62
7
290
0
291
0
  0
VISUALSTYLE
  5
5F
102
{ACAD_REACTORS
330
16
102
}
330
16
100
AcDbVisualStyle
  2
Dim
 70
11
 90
2
 40
0.6
 62
7
290
0
291
1
  0
VISUALSTYLE
  5
60
102
{ACAD_REACTORS
330
16
102
}
330
16
100
AcDbVisualStyle
  2
EdgeColorOff
 70
22
 90
2
 40
0.6
 62
7
290
0
291
1
  0
VISUALSTYLE
  5
61
102
{ACAD_REACTORS
330
16
102
}
330
16
100
AcDbVisualStyle
  2
Facepattern
 70
15
 90
2
 40
0.6
 62
7
290
0
291
1
  0
VISUALSTYLE
  5
62
102
{ACAD_REACTORS
330
16
102
}
330
16
100
AcDbVisualStyle
  2
Flat
 70
0
 90
2
 40
0.6
 62
7
290
0
291
1
  0
VISUALSTYLE
  5
63
102
{ACAD_REACTORS
330
16
102
}
330
16
100
AcDbVisualStyle
  2
FlatWithEdges
 70
1
 90
2
 40
0.6
 62
7
290
0
291
1
  0
VISUALSTYLE
  5
64
102
{ACAD_REACTORS
330
16
102
}
330
16
100
AcDbVisualStyle
  2
Gouraud
 70
2
 90
2
 40
0.6
 62
7
290
0
291
1
  0
VISUALSTYLE
  5
65
102
{ACAD_REACTORS
330
16
102
}
330
16
100
AcDbVisualStyle
  2
GouraudWithEdges
 70
3
 90
2
 40
0.6
 62
7
290
0
291
1
  0
VISUALSTYLE
  5
66
102
{ACAD_REACTORS
330
16
102
}
330
16
100
AcDbVisualStyle
  2
Hidden
 70
6
 90
1
 40
0.6
 62
7
290
0
291
0
  0
VISUALSTYLE
  5
67
102
{ACAD_REACTORS
330
16
102
}
330
16
100
AcDbVisualStyle
  2
JitterOff
 70
20
 90
2
 40
0.6
 62
7
290
0
291
1
  0
VISUALSTYLE
  5
68
102
{ACAD_REACTORS
330
16
102
}
330
16
100
AcDbVisualStyle
  2
Linepattern
 70
14
 90
2
 40
0.6
 62
7
290
0
291
1
  0
VISUALSTYLE
  5
69
102
{ACAD_REACTORS
330
16
102
}
330
16
100
AcDbVisualStyle
  2
Modeling
 70
10
 90
2
 40
0.6
 62
7
290
0
291
0
  0
VISUALSTYLE
  5
6A
102
{ACAD_REACTORS
330
16
102
}
330
16
100
AcDbVisualStyle
  2
OverhangOff
 70
21
 90
2
 40
0.6
 62
7
290
0
291
1
  0
VISUALSTYLE
  5
6B
102
{ACAD_REACTORS
330
16
102
}
330
16
100
AcDbVisualStyle
  2
Realistic
 70
8
 90
2
 40
0.6
 62
7
290
0
291
0
  0
VISUALSTYLE
  5
6C
102
{ACAD_REACTORS
330
16
102
}
330
16
100
AcDbVisualStyle
  2
Shaded
 70
27
 90
2
 40
0.6
 62
7
290
0
291
0
  0
VISUALSTYLE
  5
6D
102
{ACAD_REACTORS
330
16
102
}
330
16
100
AcDbVisualStyle
  2
Shaded with edges
 70
26
 90
2
 40
0.6
 62
7
290
0
291
0
  0
VISUALSTYLE
  5
6E
102
{ACAD_REACTORS
330
16
102
}
330
16
100
AcDbVisualStyle
  2
Shades of Gray
 70
23
 90
2
 40
0.6
 62
7
290
0
291
0
  0
VISUALSTYLE
  5
6F
102
{ACAD_REACTORS
330
16
102
}
330
16
100
AcDbVisualStyle
  2
Sketchy
 70
24
 90
1
 40
0.6
 62
7
290
0
291
0
  0
VISUALSTYLE
  5
70
102
{ACAD_REACTORS
330
16
102
}
330
16
100
AcDbVisualStyle
  2
Thicken
 70
13
 90
2
 40
0.6
 62
7
290
0
291
1
  0
VISUALSTYLE
  5
71
102
{ACAD_REACTORS
330
16
102
}
330
16
100
AcDbVisualStyle
  2
Wireframe
 70
5
 90
0
 40
0.6
 62
7
290
0
291
0
  0
VISUALSTYLE
  5
72
102
{ACAD_REACTORS
330
16
102
}
330
16
100
AcDbVisualStyle
  2
X-Ray
 70
25
 90
2
 40
0.5
 62
7
290
0
291
0
  0
DICTIONARYVAR
  5
1F3
330
2D
100
DictionaryVariables
280
0
  1
1.4.3 @ 2026-06-08T12:36:59.798505+00:00
  0
ENDSEC
  0
EOF
