  0
SECTION
  2
HEADER
  9
$ACADVER
  1
AC1024
  9
$ACADMAINTVER
 70
6
  9
$DWGCODEPAGE
  3
ANSI_1252
  9
$LASTSAVEDBY
  1
ezdxf
  9
$INSBASE
 10
0.0
 20
0.0
 30
0.0
  9
$EXTMIN
 10
1e+20
 20
1e+20
 30
1e+20
  9
$EXTMAX
 10
-1e+20
 20
-1e+20
 30
-1e+20
  9
$LIMMIN
 10
0.0
 20
0.0
  9
$LIMMAX
 10
420.0
 20
297.0
  9
$ORTHOMODE
 70
0
  9
$REGENMODE
 70
1
  9
$FILLMODE
 70
1
  9
$QTEXTMODE
 70
0
  9
$MIRRTEXT
 70
1
  9
$LTSCALE
 40
1.0
  9
$ATTMODE
 70
1
  9
$TEXTSIZE
 40
2.5
  9
$TRACEWID
 40
1.0
  9
$TEXTSTYLE
  7
Standard
  9
$CLAYER
  8
0
  9
$CELTYPE
  6
ByLayer
  9
$CECOLOR
 62
256
  9
$CELTSCALE
 40
1.0
  9
$DISPSILH
 70
0
  9
$DIMSCALE
 40
1.0
  9
$DIMASZ
 40
2.5
  9
$DIMEXO
 40
0.625
  9
$DIMDLI
 40
3.75
  9
$DIMRND
 40
0.0
  9
$DIMDLE
 40
0.0
  9
$DIMEXE
 40
1.25
  9
$DIMTP
 40
0.0
  9
$DIMTM
 40
0.0
  9
$DIMTXT
 40
2.5
  9
$DIMCEN
 40
2.5
  9
$DIMTSZ
 40
0.0
  9
$DIMTOL
 70
0
  9
$DIMLIM
 70
0
  9
$DIMTIH
 70
0
  9
$DIMTOH
 70
0
  9
$DIMSE1
 70
0
  9
$DIMSE2
 70
0
  9
$DIMTAD
 70
1
  9
$DIMZIN
 70
8
  9
$DIMBLK
  1

  9
$DIMASO
 70
1
  9
$DIMSHO
 70
1
  9
$DIMPOST
  1

  9
$DIMAPOST
  1

  9
$DIMALT
 70
0
  9
$DIMALTD
 70
3
  9
$DIMALTF
 40
0.03937007874
  9
$DIMLFAC
 40
1.0
  9
$DIMTOFL
 70
1
  9
$DIMTVP
 40
0.0
  9
$DIMTIX
 70
0
  9
$DIMSOXD
 70
0
  9
$DIMSAH
 70
0
  9
$DIMBLK1
  1

  9
$DIMBLK2
  1

  9
$DIMSTYLE
  2
ISO-25
  9
$DIMCLRD
 70
0
  9
$DIMCLRE
 70
0
  9
$DIMCLRT
 70
0
  9
$DIMTFAC
 40
1.0
  9
$DIMGAP
 40
0.625
  9
$DIMJUST
 70
0
  9
$DIMSD1
 70
0
  9
$DIMSD2
 70
0
  9
$DIMTOLJ
 70
0
  9
$DIMTZIN
 70
8
  9
$DIMALTZ
 70
0
  9
$DIMALTTZ
 70
0
  9
$DIMUPT
 70
0
  9
$DIMDEC
 70
2
  9
$DIMTDEC
 70
2
  9
$DIMALTU
 70
2
  9
$DIMALTTD
 70
3
  9
$DIMTXSTY
  7
Standard
  9
$DIMAUNIT
 70
0
  9
$DIMADEC
 70
0
  9
$DIMALTRND
 40
0.0
  9
$DIMAZIN
 70
0
  9
$DIMDSEP
 70
44
  9
$DIMATFIT
 70
3
  9
$DIMFRAC
 70
0
  9
$DIMLDRBLK
  1

  9
$DIMLUNIT
 70
2
  9
$DIMLWD
 70
-2
  9
$DIMLWE
 70
-2
  9
$DIMTMOVE
 70
0
  9
$DIMFXL
 40
1.0
  9
$DIMFXLON
 70
0
  9
$DIMJOGANG
 40
0.785398163397
  9
$DIMTFILL
 70
0
  9
$DIMTFILLCLR
 70
0
  9
$DIMARCSYM
 70
0
  9
$DIMLTYPE
  6

  9
$DIMLTEX1
  6

  9
$DIMLTEX2
  6

  9
$DIMTXTDIRECTION
 70
0
  9
$LUNITS
 70
2
  9
$LUPREC
 70
4
  9
$SKETCHINC
 40
1.0
  9
$FILLETRAD
 40
10.0
  9
$AUNITS
 70
0
  9
$AUPREC
 70
2
  9
$MENU
  1
.
  9
$ELEVATION
 40
0.0
  9
$PELEVATION
 40
0.0
  9
$THICKNESS
 40
0.0
  9
$LIMCHECK
 70
0
  9
$CHAMFERA
 40
0.0
  9
$CHAMFERB
 40
0.0
  9
$CHAMFERC
 40
0.0
  9
$CHAMFERD
 40
0.0
  9
$SKPOLY
 70
0
  9
$TDCREATE
 40
2461164.8261574074
  9
$TDUCREATE
 40
2458532.153996898
  9
$TDUPDATE
 40
2461164.8261574074
  9
$TDUUPDATE
 40
2458532.1544311
  9
$TDINDWG
 40
0.0
  9
$TDUSRTIMER
 40
0.0
  9
$USRTIMER
 70
1
  9
$ANGBASE
 50
0.0
  9
$ANGDIR
 70
0
  9
$PDMODE
 70
0
  9
$PDSIZE
 40
0.0
  9
$PLINEWID
 40
0.0
  9
$SPLFRAME
 70
0
  9
$SPLINETYPE
 70
6
  9
$SPLINESEGS
 70
8
  9
$HANDSEED
  5
257
  9
$SURFTAB1
 70
6
  9
$SURFTAB2
 70
6
  9
$SURFTYPE
 70
6
  9
$SURFU
 70
6
  9
$SURFV
 70
6
  9
$UCSBASE
  2

  9
$UCSNAME
  2

  9
$UCSORG
 10
0.0
 20
0.0
 30
0.0
  9
$UCSXDIR
 10
1.0
 20
0.0
 30
0.0
  9
$UCSYDIR
 10
0.0
 20
1.0
 30
0.0
  9
$UCSORTHOREF
  2

  9
$UCSORTHOVIEW
 70
0
  9
$UCSORGTOP
 10
0.0
 20
0.0
 30
0.0
  9
$UCSORGBOTTOM
 10
0.0
 20
0.0
 30
0.0
  9
$UCSORGLEFT
 10
0.0
 20
0.0
 30
0.0
  9
$UCSORGRIGHT
 10
0.0
 20
0.0
 30
0.0
  9
$UCSORGFRONT
 10
0.0
 20
0.0
 30
0.0
  9
$UCSORGBACK
 10
0.0
 20
0.0
 30
0.0
  9
$PUCSBASE
  2

  9
$PUCSNAME
  2

  9
$PUCSORG
 10
0.0
 20
0.0
 30
0.0
  9
$PUCSXDIR
 10
1.0
 20
0.0
 30
0.0
  9
$PUCSYDIR
 10
0.0
 20
1.0
 30
0.0
  9
$PUCSORTHOREF
  2

  9
$PUCSORTHOVIEW
 70
0
  9
$PUCSORGTOP
 10
0.0
 20
0.0
 30
0.0
  9
$PUCSORGBOTTOM
 10
0.0
 20
0.0
 30
0.0
  9
$PUCSORGLEFT
 10
0.0
 20
0.0
 30
0.0
  9
$PUCSORGRIGHT
 10
0.0
 20
0.0
 30
0.0
  9
$PUCSORGFRONT
 10
0.0
 20
0.0
 30
0.0
  9
$PUCSORGBACK
 10
0.0
 20
0.0
 30
0.0
  9
$USERI1
 70
0
  9
$USERI2
 70
0
  9
$USERI3
 70
0
  9
$USERI4
 70
0
  9
$USERI5
 70
0
  9
$USERR1
 40
0.0
  9
$USERR2
 40
0.0
  9
$USERR3
 40
0.0
  9
$USERR4
 40
0.0
  9
$USERR5
 40
0.0
  9
$WORLDVIEW
 70
1
  9
$SHADEDGE
 70
3
  9
$SHADEDIF
 70
70
  9
$TILEMODE
 70
1
  9
$MAXACTVP
 70
64
  9
$PINSBASE
 10
0.0
 20
0.0
 30
0.0
  9
$PLIMCHECK
 70
0
  9
$PEXTMIN
 10
1e+20
 20
1e+20
 30
1e+20
  9
$PEXTMAX
 10
-1e+20
 20
-1e+20
 30
-1e+20
  9
$PLIMMIN
 10
0.0
 20
0.0
  9
$PLIMMAX
 10
420.0
 20
297.0
  9
$UNITMODE
 70
0
  9
$VISRETAIN
 70
1
  9
$PLINEGEN
 70
0
  9
$PSLTSCALE
 70
1
  9
$TREEDEPTH
 70
3020
  9
$CMLSTYLE
  2
Standard
  9
$CMLJUST
 70
0
  9
$CMLSCALE
 40
20.0
  9
$PROXYGRAPHICS
 70
1
  9
$MEASUREMENT
 70
1
  9
$CELWEIGHT
370
-1
  9
$ENDCAPS
280
0
  9
$JOINSTYLE
280
0
  9
$LWDISPLAY
290
0
  9
$INSUNITS
 70
6
  9
$HYPERLINKBASE
  1

  9
$STYLESHEET
  1

  9
$XEDIT
290
1
  9
$CEPSNTYPE
380
0
  9
$PSTYLEMODE
290
1
  9
$FINGERPRINTGUID
  2
{0C82138B-E7E4-4002-B43C-4F6A01AF08EF}
  9
$VERSIONGUID
  2
{B676F392-FA49-48E4-B819-FE0AE5E0EE6A}
  9
$EXTNAMES
290
1
  9
$PSVPSCALE
 40
0.0
  9
$OLESTARTUP
290
0
  9
$SORTENTS
280
127
  9
$INDEXCTL
280
0
  9
$HIDETEXT
280
1
  9
$XCLIPFRAME
280
1
  9
$HALOGAP
280
0
  9
$OBSCOLOR
 70
257
  9
$OBSLTYPE
280
0
  9
$INTERSECTIONDISPLAY
280
0
  9
$INTERSECTIONCOLOR
 70
257
  9
$DIMASSOC
280
2
  9
$PROJECTNAME
  1

  9
$CAMERADISPLAY
290
0
  9
$LENSLENGTH
 40
50.0
  9
$CAMERAHEIGHT
 40
0.0
  9
$STEPSPERSEC
 40
24.0
  9
$STEPSIZE
 40
100.0
  9
$3DDWFPREC
 40
2.0
  9
$PSOLWIDTH
 40
0.005
  9
$PSOLHEIGHT
 40
0.08
  9
$LOFTANG1
 40
1.570796326795
  9
$LOFTANG2
 40
1.570796326795
  9
$LOFTMAG1
 40
0.0
  9
$LOFTMAG2
 40
0.0
  9
$LOFTPARAM
 70
7
  9
$LOFTNORMALS
280
1
  9
$LATITUDE
 40
37.795
  9
$LONGITUDE
 40
-122.394
  9
$NORTHDIRECTION
 40
0.0
  9
$TIMEZONE
 70
-8000
  9
$LIGHTGLYPHDISPLAY
280
1
  9
$TILEMODELIGHTSYNCH
280
1
  9
$CMATERIAL
347
20
  9
$SOLIDHIST
280
0
  9
$SHOWHIST
280
1
  9
$DWFFRAME
280
2
  9
$DGNFRAME
280
2
  9
$REALWORLDSCALE
290
1
  9
$INTERFERECOLOR
 62
256
  9
$CSHADOW
280
0
  9
$SHADOWPLANELOCATION
 40
0.0
  0
ENDSEC
  0
SECTION
  2
CLASSES
  0
CLASS
  1
ACDBDICTIONARYWDFLT
  2
AcDbDictionaryWithDefault
  3
ObjectDBX Classes
 90
0
 91
0
280
0
281
0
  0
CLASS
  1
SUN
  2
AcDbSun
  3
SCENEOE
 90
1153
 91
0
280
0
281
0
  0
CLASS
  1
VISUALSTYLE
  2
AcDbVisualStyle
  3
ObjectDBX Classes
 90
4095
 91
0
280
0
281
0
  0
CLASS
  1
MATERIAL
  2
AcDbMaterial
  3
ObjectDBX Classes
 90
1153
 91
0
280
0
281
0
  0
CLASS
  1
SCALE
  2
AcDbScale
  3
ObjectDBX Classes
 90
1153
 91
0
280
0
281
0
  0
CLASS
  1
TABLESTYLE
  2
AcDbTableStyle
  3
ObjectDBX Classes
 90
4095
 91
0
280
0
281
0
  0
CLASS
  1
MLEADERSTYLE
  2
AcDbMLeaderStyle
  3
ACDB_MLEADERSTYLE_CLASS
 90
4095
 91
0
280
0
281
0
  0
CLASS
  1
DICTIONARYVAR
  2
AcDbDictionaryVar
  3
ObjectDBX Classes
 90
0
 91
0
280
0
281
0
  0
CLASS
  1
CELLSTYLEMAP
  2
AcDbCellStyleMap
  3
ObjectDBX Classes
 90
1152
 91
0
280
0
281
0
  0
CLASS
  1
MENTALRAYRENDERSETTINGS
  2
AcDbMentalRayRenderSettings
  3
SCENEOE
 90
1024
 91
0
280
0
281
0
  0
CLASS
  1
ACDBDETAILVIEWSTYLE
  2
AcDbDetailViewStyle
  3
ObjectDBX Classes
 90
1025
 91
0
280
0
281
0
  0
CLASS
  1
ACDBSECTIONVIEWSTYLE
  2
AcDbSectionViewStyle
  3
ObjectDBX Classes
 90
1025
 91
0
280
0
281
0
  0
CLASS
  1
RASTERVARIABLES
  2
AcDbRasterVariables
  3
ISM
 90
0
 91
0
280
0
281
0
  0
CLASS
  1
LAYOUT
  2
AcDbLayout
  3
ObjectDBX Classes
 90
0
 91
0
280
0
281
0
  0
CLASS
  1
ACDBPLACEHOLDER
  2
AcDbPlaceHolder
  3
ObjectDBX Classes
 90
0
 91
0
280
0
281
0
  0
ENDSEC
  0
SECTION
  2
TABLES
  0
TABLE
  2
VPORT
  5
8
330
0
100
AcDbSymbolTable
 70
1
  0
VPORT
  5
23
330
8
100
AcDbSymbolTableRecord
100
AcDbViewportTableRecord
  2
*Active
 70
0
 10
0.0
 20
0.0
 11
1.0
 21
1.0
 12
0.0
 22
0.0
 13
0.0
 23
0.0
 14
0.5
 24
0.5
 15
0.5
 25
0.5
 16
0.0
 26
0.0
 36
1.0
 17
0.0
 27
0.0
 37
0.0
 40
1000.0
 41
1.34
 42
50.0
 43
0.0
 44
0.0
 50
0.0
 51
0.0
 71
0
 72
1000
 73
1
 74
3
 75
0
 76
0
 77
0
 78
0
281
0
 65
0
146
0.0
  0
ENDTAB
  0
TABLE
  2
LTYPE
  5
2
330
0
100
AcDbSymbolTable
 70
5
  0
LTYPE
  5
24
330
2
100
AcDbSymbolTableRecord
100
AcDbLinetypeTableRecord
  2
ByBlock
 70
0
  3

 72
65
 73
0
 40
0.0
  0
LTYPE
  5
25
330
2
100
AcDbSymbolTableRecord
100
AcDbLinetypeTableRecord
  2
ByLayer
 70
0
  3

 72
65
 73
0
 40
0.0
  0
LTYPE
  5
26
330
2
100
AcDbSymbolTableRecord
100
AcDbLinetypeTableRecord
  2
Continuous
 70
0
  3

 72
65
 73
0
 40
0.0
  0
LTYPE
  5
3B
330
2
100
AcDbSymbolTableRecord
100
AcDbLinetypeTableRecord
  2
DASHED
 70
0
  3

 72
65
 73
2
 40
0.5
 49
0.25
 74
0
 49
-0.12
 74
0
  0
LTYPE
  5
3C
330
2
100
AcDbSymbolTableRecord
100
AcDbLinetypeTableRecord
  2
DOTTED
 70
0
  3

 72
65
 73
2
 40
0.2
 49
0.03
 74
0
 49
-0.08
 74
0
  0
ENDTAB
  0
TABLE
  2
LAYER
  5
1
330
0
100
AcDbSymbolTable
 70
14
  0
LAYER
  5
27
330
1
100
AcDbSymbolTableRecord
100
AcDbLayerTableRecord
  2
0
 70
0
 62
7
  6
Continuous
370
-3
390
13
347
21
  0
LAYER
  5
28
330
1
100
AcDbSymbolTableRecord
100
AcDbLayerTableRecord
  2
Defpoints
 70
0
 62
7
  6
Continuous
290
0
370
-3
390
13
347
21
  0
LAYER
  5
2F
330
1
100
AcDbSymbolTableRecord
100
AcDbLayerTableRecord
  2
PROCESS
 70
0
 62
1
  6
Continuous
370
-3
390
13
347
21
  0
LAYER
  5
30
330
1
100
AcDbSymbolTableRecord
100
AcDbLayerTableRecord
  2
REGEN
 70
0
 62
5
  6
Continuous
370
-3
390
13
347
21
  0
LAYER
  5
31
330
1
100
AcDbSymbolTableRecord
100
AcDbLayerTableRecord
  2
FLARE_VENT
 70
0
 62
3
  6
Continuous
370
-3
390
13
347
21
  0
LAYER
  5
32
330
1
100
AcDbSymbolTableRecord
100
AcDbLayerTableRecord
  2
DRAIN
 70
0
 62
30
  6
Continuous
370
-3
390
13
347
21
  0
LAYER
  5
33
330
1
100
AcDbSymbolTableRecord
100
AcDbLayerTableRecord
  2
INSTRUMENT
 70
0
 62
6
  6
Continuous
370
-3
390
13
347
21
  0
LAYER
  5
34
330
1
100
AcDbSymbolTableRecord
100
AcDbLayerTableRecord
  2
SIGNAL_ELECTRIC
 70
0
 62
2
  6
Continuous
370
-3
390
13
347
21
  0
LAYER
  5
35
330
1
100
AcDbSymbolTableRecord
100
AcDbLayerTableRecord
  2
SIGNAL_PNEUMATIC
 70
0
 62
2
  6
Continuous
370
-3
390
13
347
21
  0
LAYER
  5
36
330
1
100
AcDbSymbolTableRecord
100
AcDbLayerTableRecord
  2
TEXT
 70
0
 62
7
  6
Continuous
370
-3
390
13
347
21
  0
LAYER
  5
37
330
1
100
AcDbSymbolTableRecord
100
AcDbLayerTableRecord
  2
EQUIPMENT
 70
0
 62
4
  6
Continuous
370
-3
390
13
347
21
  0
LAYER
  5
38
330
1
100
AcDbSymbolTableRecord
100
AcDbLayerTableRecord
  2
BORDER
 70
0
 62
7
  6
Continuous
370
-3
390
13
347
21
  0
LAYER
  5
39
330
1
100
AcDbSymbolTableRecord
100
AcDbLayerTableRecord
  2
TABLE
 70
0
 62
8
  6
Continuous
370
-3
390
13
347
21
  0
LAYER
  5
3A
330
1
100
AcDbSymbolTableRecord
100
AcDbLayerTableRecord
  2
QA_OVERLAY
 70
0
 62
2
  6
Continuous
370
-3
390
13
347
21
  0
ENDTAB
  0
TABLE
  2
STYLE
  5
5
330
0
100
AcDbSymbolTable
 70
1
  0
STYLE
  5
29
330
5
100
AcDbSymbolTableRecord
100
AcDbTextStyleTableRecord
  2
Standard
 70
0
 40
0.0
 41
1.0
 50
0.0
 71
0
 42
2.5
  3
txt
  4

  0
ENDTAB
  0
TABLE
  2
VIEW
  5
7
330
0
100
AcDbSymbolTable
 70
0
  0
ENDTAB
  0
TABLE
  2
UCS
  5
6
330
0
100
AcDbSymbolTable
 70
0
  0
ENDTAB
  0
TABLE
  2
APPID
  5
3
330
0
100
AcDbSymbolTable
 70
3
  0
APPID
  5
2A
330
3
100
AcDbSymbolTableRecord
100
AcDbRegAppTableRecord
  2
ACAD
 70
0
  0
APPID
  5
254
330
3
100
AcDbSymbolTableRecord
100
AcDbRegAppTableRecord
  2
HATCHBACKGROUNDCOLOR
 70
0
  0
APPID
  5
255
330
3
100
AcDbSymbolTableRecord
100
AcDbRegAppTableRecord
  2
EZDXF
 70
0
  0
ENDTAB
  0
TABLE
  2
DIMSTYLE
  5
4
330
0
100
AcDbSymbolTable
 70
1
100
AcDbDimStyleTable
  0
DIMSTYLE
105
2B
330
4
100
AcDbSymbolTableRecord
100
AcDbDimStyleTableRecord
  2
Standard
 70
0
 40
1.0
 41
2.5
 42
0.625
 43
3.75
 44
1.25
 45
0.0
 46
0.0
 47
0.0
 48
0.0
 49
2.5
140
2.5
141
2.5
142
0.0
143
0.03937007874
144
1.0
145
0.0
146
1.0
147
0.625
148
0.0
 69
0
 70
0
 71
0
 72
0
 73
0
 74
0
 75
0
 76
0
 77
1
 78
8
 79
3
170
0
171
3
172
1
173
0
174
0
175
0
176
0
177
0
178
0
179
2
271
2
272
2
273
2
274
3
275
0
276
0
277
2
278
44
279
0
280
0
281
0
282
0
283
0
284
8
285
0
286
0
288
0
289
3
290
0
371
-2
372
-2
  0
ENDTAB
  0
TABLE
  2
BLOCK_RECORD
  5
9
330
0
100
AcDbSymbolTable
 70
2
  0
BLOCK_RECORD
  5
17
330
9
100
AcDbSymbolTableRecord
100
AcDbBlockTableRecord
  2
*Model_Space
340
1A
 70
0
280
1
281
0
  0
BLOCK_RECORD
  5
1B
330
9
100
AcDbSymbolTableRecord
100
AcDbBlockTableRecord
  2
*Paper_Space
340
1E
 70
0
280
1
281
0
  0
ENDTAB
  0
ENDSEC
  0
SECTION
  2
BLOCKS
  0
BLOCK
  5
18
330
17
100
AcDbEntity
  8
0
100
AcDbBlockBegin
  2
*Model_Space
 70
0
 10
0.0
 20
0.0
 30
0.0
  3
*Model_Space
  1

  0
ENDBLK
  5
19
330
17
100
AcDbEntity
  8
0
100
AcDbBlockEnd
  0
BLOCK
  5
1C
330
1B
100
AcDbEntity
  8
0
100
AcDbBlockBegin
  2
*Paper_Space
 70
0
 10
0.0
 20
0.0
 30
0.0
  3
*Paper_Space
  1

  0
ENDBLK
  5
1D
330
1B
100
AcDbEntity
  8
0
100
AcDbBlockEnd
  0
ENDSEC
  0
SECTION
  2
ENTITIES
  0
LWPOLYLINE
  5
3D
330
17
100
AcDbEntity
  8
BORDER
370
35
100
AcDbPolyline
 90
5
 70
0
 10
10.0
 20
10.0
 10
1179.0
 20
10.0
 10
1179.0
 20
831.0
 10
10.0
 20
831.0
 10
10.0
 20
10.0
  0
LWPOLYLINE
  5
3E
330
17
100
AcDbEntity
  8
BORDER
370
35
100
AcDbPolyline
 90
5
 70
0
 10
25.0
 20
25.0
 10
1164.0
 20
25.0
 10
1164.0
 20
816.0
 10
25.0
 20
816.0
 10
25.0
 20
25.0
  0
LWPOLYLINE
  5
3F
330
17
100
AcDbEntity
  8
BORDER
100
AcDbPolyline
 90
5
 70
0
 10
850.0
 20
25.0
 10
1165.0
 20
25.0
 10
1165.0
 20
117.0
 10
850.0
 20
117.0
 10
850.0
 20
25.0
  0
LINE
  5
40
330
17
100
AcDbEntity
  8
BORDER
100
AcDbLine
 10
850.0
 20
49.0
 30
0.0
 11
1165.0
 21
49.0
 31
0.0
  0
LINE
  5
41
330
17
100
AcDbEntity
  8
BORDER
100
AcDbLine
 10
850.0
 20
73.0
 30
0.0
 11
1165.0
 21
73.0
 31
0.0
  0
LINE
  5
42
330
17
100
AcDbEntity
  8
BORDER
100
AcDbLine
 10
850.0
 20
95.0
 30
0.0
 11
1165.0
 21
95.0
 31
0.0
  0
LINE
  5
43
330
17
100
AcDbEntity
  8
BORDER
100
AcDbLine
 10
932.0
 20
25.0
 30
0.0
 11
932.0
 21
95.0
 31
0.0
  0
LINE
  5
44
330
17
100
AcDbEntity
  8
BORDER
100
AcDbLine
 10
1055.0
 20
25.0
 30
0.0
 11
1055.0
 21
95.0
 31
0.0
  0
LINE
  5
45
330
17
100
AcDbEntity
  8
BORDER
100
AcDbLine
 10
1102.0
 20
25.0
 30
0.0
 11
1102.0
 21
95.0
 31
0.0
  0
TEXT
  5
46
330
17
100
AcDbEntity
  8
TEXT
100
AcDbText
 10
858.0
 20
100.0
 30
0.0
 40
5.0
  1
DUAL MOLECULAR SIEVE DRIER PACKAGE
 11
858.0
 21
100.0
 31
0.0
100
AcDbText
  0
TEXT
  5
47
330
17
100
AcDbEntity
  8
TEXT
100
AcDbText
 10
855.0
 20
77.0
 30
0.0
 40
2.5
  1
DWG NO
 11
855.0
 21
77.0
 31
0.0
100
AcDbText
  0
TEXT
  5
48
330
17
100
AcDbEntity
  8
TEXT
100
AcDbText
 10
937.0
 20
77.0
 30
0.0
 40
2.5
  1
U300-PID-301
 11
937.0
 21
77.0
 31
0.0
100
AcDbText
  0
TEXT
  5
49
330
17
100
AcDbEntity
  8
TEXT
100
AcDbText
 10
1060.0
 20
77.0
 30
0.0
 40
2.5
  1
REV
 11
1060.0
 21
77.0
 31
0.0
100
AcDbText
  0
TEXT
  5
4A
330
17
100
AcDbEntity
  8
TEXT
100
AcDbText
 10
1110.0
 20
77.0
 30
0.0
 40
2.5
  1
A
 11
1110.0
 21
77.0
 31
0.0
100
AcDbText
  0
TEXT
  5
4B
330
17
100
AcDbEntity
  8
TEXT
100
AcDbText
 10
855.0
 20
53.0
 30
0.0
 40
2.5
  1
UNIT
 11
855.0
 21
53.0
 31
0.0
100
AcDbText
  0
TEXT
  5
4C
330
17
100
AcDbEntity
  8
TEXT
100
AcDbText
 10
937.0
 20
53.0
 30
0.0
 40
2.5
  1
U-300
 11
937.0
 21
53.0
 31
0.0
100
AcDbText
  0
TEXT
  5
4D
330
17
100
AcDbEntity
  8
TEXT
100
AcDbText
 10
1060.0
 20
53.0
 30
0.0
 40
2.5
  1
SCALE
 11
1060.0
 21
53.0
 31
0.0
100
AcDbText
  0
TEXT
  5
4E
330
17
100
AcDbEntity
  8
TEXT
100
AcDbText
 10
1110.0
 20
53.0
 30
0.0
 40
2.5
  1
NTS
 11
1110.0
 21
53.0
 31
0.0
100
AcDbText
  0
TEXT
  5
4F
330
17
100
AcDbEntity
  8
TEXT
100
AcDbText
 10
855.0
 20
30.0
 30
0.0
 40
2.5
  1
SERVICE
 11
855.0
 21
30.0
 31
0.0
100
AcDbText
  0
TEXT
  5
50
330
17
100
AcDbEntity
  8
TEXT
100
AcDbText
 10
937.0
 20
30.0
 30
0.0
 40
2.0
  1
PROCESS GAS DEHYDRATION
 11
937.0
 21
30.0
 31
0.0
100
AcDbText
  0
TEXT
  5
51
330
17
100
AcDbEntity
  8
TEXT
100
AcDbText
 10
1110.0
 20
30.0
 30
0.0
 40
2.5
  1
FOR STUDY
 11
1110.0
 21
30.0
 31
0.0
100
AcDbText
  0
TEXT
  5
52
330
17
100
AcDbEntity
  8
TEXT
100
AcDbText
 10
55.0
 20
792.0
 30
0.0
 40
5.0
  1
PIPING AND INSTRUMENTATION DIAGRAM
 11
55.0
 21
792.0
 31
0.0
100
AcDbText
  0
TEXT
  5
53
330
17
100
AcDbEntity
  8
TEXT
100
AcDbText
 10
55.0
 20
777.0
 30
0.0
 40
4.0
  1
DUAL-BED MOLECULAR SIEVE PROCESS GAS DRIER
 11
55.0
 21
777.0
 31
0.0
100
AcDbText
  0
LINE
  5
54
330
17
100
AcDbEntity
  8
EQUIPMENT
100
AcDbLine
 10
408.0
 20
524.0
 30
0.0
 11
408.0
 21
626.0
 31
0.0
  0
LINE
  5
55
330
17
100
AcDbEntity
  8
EQUIPMENT
100
AcDbLine
 10
452.0
 20
524.0
 30
0.0
 11
452.0
 21
626.0
 31
0.0
  0
ARC
  5
56
330
17
100
AcDbEntity
  8
EQUIPMENT
100
AcDbCircle
 10
430.0
 20
626.0
 30
0.0
 40
22.0
100
AcDbArc
 50
0.0
 51
180.0
  0
ARC
  5
57
330
17
100
AcDbEntity
  8
EQUIPMENT
100
AcDbCircle
 10
430.0
 20
524.0
 30
0.0
 40
22.0
100
AcDbArc
 50
180.0
 51
360.0
  0
LINE
  5
58
330
17
100
AcDbEntity
  8
EQUIPMENT
100
AcDbLine
 10
412.0
 20
597.0
 30
0.0
 11
448.0
 21
597.0
 31
0.0
  0
LINE
  5
59
330
17
100
AcDbEntity
  8
EQUIPMENT
100
AcDbLine
 10
412.0
 20
553.0
 30
0.0
 11
448.0
 21
553.0
 31
0.0
  0
TEXT
  5
5A
330
17
100
AcDbEntity
  8
TEXT
100
AcDbText
 10
414.0
 20
579.0
 30
0.0
 40
2.0
  1
MOLECULAR
 11
414.0
 21
579.0
 31
0.0
100
AcDbText
  0
TEXT
  5
5B
330
17
100
AcDbEntity
  8
TEXT
100
AcDbText
 10
415.0
 20
571.0
 30
0.0
 40
2.0
  1
SIEVE BED
 11
415.0
 21
571.0
 31
0.0
100
AcDbText
  0
TEXT
  5
5C
330
17
100
AcDbEntity
  8
TEXT
100
AcDbText
 10
415.0
 20
492.0
 30
0.0
 40
3.5
  1
DR-301A
 11
415.0
 21
492.0
 31
0.0
100
AcDbText
  0
LINE
  5
5D
330
17
100
AcDbEntity
  8
EQUIPMENT
100
AcDbLine
 10
408.0
 20
364.0
 30
0.0
 11
408.0
 21
466.0
 31
0.0
  0
LINE
  5
5E
330
17
100
AcDbEntity
  8
EQUIPMENT
100
AcDbLine
 10
452.0
 20
364.0
 30
0.0
 11
452.0
 21
466.0
 31
0.0
  0
ARC
  5
5F
330
17
100
AcDbEntity
  8
EQUIPMENT
100
AcDbCircle
 10
430.0
 20
466.0
 30
0.0
 40
22.0
100
AcDbArc
 50
0.0
 51
180.0
  0
ARC
  5
60
330
17
100
AcDbEntity
  8
EQUIPMENT
100
AcDbCircle
 10
430.0
 20
364.0
 30
0.0
 40
22.0
100
AcDbArc
 50
180.0
 51
360.0
  0
LINE
  5
61
330
17
100
AcDbEntity
  8
EQUIPMENT
100
AcDbLine
 10
412.0
 20
437.0
 30
0.0
 11
448.0
 21
437.0
 31
0.0
  0
LINE
  5
62
330
17
100
AcDbEntity
  8
EQUIPMENT
100
AcDbLine
 10
412.0
 20
393.0
 30
0.0
 11
448.0
 21
393.0
 31
0.0
  0
TEXT
  5
63
330
17
100
AcDbEntity
  8
TEXT
100
AcDbText
 10
414.0
 20
419.0
 30
0.0
 40
2.0
  1
MOLECULAR
 11
414.0
 21
419.0
 31
0.0
100
AcDbText
  0
TEXT
  5
64
330
17
100
AcDbEntity
  8
TEXT
100
AcDbText
 10
415.0
 20
411.0
 30
0.0
 40
2.0
  1
SIEVE BED
 11
415.0
 21
411.0
 31
0.0
100
AcDbText
  0
TEXT
  5
65
330
17
100
AcDbEntity
  8
TEXT
100
AcDbText
 10
415.0
 20
332.0
 30
0.0
 40
3.5
  1
DR-301B
 11
415.0
 21
332.0
 31
0.0
100
AcDbText
  0
CIRCLE
  5
66
330
17
100
AcDbEntity
  8
INSTRUMENT
100
AcDbCircle
 10
250.0
 20
640.0
 30
0.0
 40
6.0
  0
TEXT
  5
67
330
17
100
AcDbEntity
  8
TEXT
100
AcDbText
 10
241.475
 20
638.2
 30
0.0
 40
2.0
  1
PDIT-30101A
 11
241.475
 21
638.2
 31
0.0
100
AcDbText
  0
LWPOLYLINE
  5
68
330
17
100
AcDbEntity
  8
SIGNAL_ELECTRIC
  6
DASHED
100
AcDbPolyline
 90
2
 70
0
 10
256.0
 20
640.0
 10
408.0
 20
617.0
  0
CIRCLE
  5
69
330
17
100
AcDbEntity
  8
INSTRUMENT
100
AcDbCircle
 10
250.0
 20
622.0
 30
0.0
 40
6.0
  0
TEXT
  5
6A
330
17
100
AcDbEntity
  8
TEXT
100
AcDbText
 10
242.25
 20
620.2
 30
0.0
 40
2.0
  1
PIT-30102A
 11
242.25
 21
620.2
 31
0.0
100
AcDbText
  0
LWPOLYLINE
  5
6B
330
17
100
AcDbEntity
  8
SIGNAL_ELECTRIC
  6
DASHED
100
AcDbPolyline
 90
2
 70
0
 10
256.0
 20
622.0
 10
408.0
 20
575.0
  0
CIRCLE
  5
6C
330
17
100
AcDbEntity
  8
INSTRUMENT
100
AcDbCircle
 10
250.0
 20
604.0
 30
0.0
 40
6.0
  0
TEXT
  5
6D
330
17
100
AcDbEntity
  8
TEXT
100
AcDbText
 10
242.25
 20
602.2
 30
0.0
 40
2.0
  1
TIT-30103A
 11
242.25
 21
602.2
 31
0.0
100
AcDbText
  0
LWPOLYLINE
  5
6E
330
17
100
AcDbEntity
  8
SIGNAL_ELECTRIC
  6
DASHED
100
AcDbPolyline
 90
2
 70
0
 10
256.0
 20
604.0
 10
408.0
 20
533.0
  0
TEXT
  5
6F
330
17
100
AcDbEntity
  8
TEXT
100
AcDbText
 10
352.0
 20
499.0
 30
0.0
 40
2.0
  1
PSV/protection note A
 11
352.0
 21
499.0
 31
0.0
100
AcDbText
  0
CIRCLE
  5
70
330
17
100
AcDbEntity
  8
INSTRUMENT
100
AcDbCircle
 10
250.0
 20
480.0
 30
0.0
 40
6.0
  0
TEXT
  5
71
330
17
100
AcDbEntity
  8
TEXT
100
AcDbText
 10
241.475
 20
478.2
 30
0.0
 40
2.0
  1
PDIT-30101B
 11
241.475
 21
478.2
 31
0.0
100
AcDbText
  0
LWPOLYLINE
  5
72
330
17
100
AcDbEntity
  8
SIGNAL_ELECTRIC
  6
DASHED
100
AcDbPolyline
 90
2
 70
0
 10
256.0
 20
480.0
 10
408.0
 20
457.0
  0
CIRCLE
  5
73
330
17
100
AcDbEntity
  8
INSTRUMENT
100
AcDbCircle
 10
250.0
 20
462.0
 30
0.0
 40
6.0
  0
TEXT
  5
74
330
17
100
AcDbEntity
  8
TEXT
100
AcDbText
 10
242.25
 20
460.2
 30
0.0
 40
2.0
  1
PIT-30102B
 11
242.25
 21
460.2
 31
0.0
100
AcDbText
  0
LWPOLYLINE
  5
75
330
17
100
AcDbEntity
  8
SIGNAL_ELECTRIC
  6
DASHED
100
AcDbPolyline
 90
2
 70
0
 10
256.0
 20
462.0
 10
408.0
 20
415.0
  0
CIRCLE
  5
76
330
17
100
AcDbEntity
  8
INSTRUMENT
100
AcDbCircle
 10
250.0
 20
444.0
 30
0.0
 40
6.0
  0
TEXT
  5
77
330
17
100
AcDbEntity
  8
TEXT
100
AcDbText
 10
242.25
 20
442.2
 30
0.0
 40
2.0
  1
TIT-30103B
 11
242.25
 21
442.2
 31
0.0
100
AcDbText
  0
LWPOLYLINE
  5
78
330
17
100
AcDbEntity
  8
SIGNAL_ELECTRIC
  6
DASHED
100
AcDbPolyline
 90
2
 70
0
 10
256.0
 20
444.0
 10
408.0
 20
373.0
  0
TEXT
  5
79
330
17
100
AcDbEntity
  8
TEXT
100
AcDbText
 10
352.0
 20
339.0
 30
0.0
 40
2.0
  1
PSV/protection note B
 11
352.0
 21
339.0
 31
0.0
100
AcDbText
  0
LWPOLYLINE
  5
7A
330
17
100
AcDbEntity
  8
PROCESS
100
AcDbPolyline
 90
4
 70
0
 10
55.0
 20
710.0
 10
77.0
 20
718.0
 10
77.0
 20
702.0
 10
55.0
 20
710.0
  0
TEXT
  5
7B
330
17
100
AcDbEntity
  8
TEXT
100
AcDbText
 10
57.0
 20
721.0
 30
0.0
 40
2.5
  1
OFFPAGE_WET_GAS
 11
57.0
 21
721.0
 31
0.0
100
AcDbText
  0
TEXT
  5
7C
330
17
100
AcDbEntity
  8
TEXT
100
AcDbText
 10
57.0
 20
692.0
 30
0.0
 40
2.0
  1
U300-PFD-001
 11
57.0
 21
692.0
 31
0.0
100
AcDbText
  0
LWPOLYLINE
  5
7D
330
17
100
AcDbEntity
  8
PROCESS
370
35
100
AcDbPolyline
 90
2
 70
0
 10
77.0
 20
710.0
 10
975.0
 20
710.0
  0
SOLID
  5
7E
330
17
100
AcDbEntity
  8
PROCESS
100
AcDbTrace
 10
728.06
 20
710.0
 30
0.0
 11
720.06
 21
712.6
 31
0.0
 12
720.06
 22
707.4
 32
0.0
 13
720.06
 23
707.4
 33
0.0
  0
TEXT
  5
7F
330
17
100
AcDbEntity
  8
TEXT
100
AcDbText
 10
132.0
 20
722.0
 30
0.0
 40
2.5
  1
12-PG-301001-A1A-HC
 11
132.0
 21
722.0
 31
0.0
100
AcDbText
  0
LWPOLYLINE
  5
80
330
17
100
AcDbEntity
  8
PROCESS
100
AcDbPolyline
 90
4
 70
0
 10
1108.0
 20
675.0
 10
1086.0
 20
683.0
 10
1086.0
 20
667.0
 10
1108.0
 20
675.0
  0
TEXT
  5
81
330
17
100
AcDbEntity
  8
TEXT
100
AcDbText
 10
1054.0
 20
686.0
 30
0.0
 40
2.5
  1
OFFPAGE_DRY_GAS
 11
1054.0
 21
686.0
 31
0.0
100
AcDbText
  0
TEXT
  5
82
330
17
100
AcDbEntity
  8
TEXT
100
AcDbText
 10
1054.0
 20
657.0
 30
0.0
 40
2.0
  1
U300-PFD-001
 11
1054.0
 21
657.0
 31
0.0
100
AcDbText
  0
LWPOLYLINE
  5
83
330
17
100
AcDbEntity
  8
PROCESS
370
35
100
AcDbPolyline
 90
2
 70
0
 10
520.0
 20
675.0
 10
1086.0
 20
675.0
  0
SOLID
  5
84
330
17
100
AcDbEntity
  8
PROCESS
100
AcDbTrace
 10
932.02
 20
675.0
 30
0.0
 11
924.02
 21
677.6
 31
0.0
 12
924.02
 22
672.4
 32
0.0
 13
924.02
 23
672.4
 33
0.0
  0
TEXT
  5
85
330
17
100
AcDbEntity
  8
TEXT
100
AcDbText
 10
815.0
 20
687.0
 30
0.0
 40
2.5
  1
12-PG-301002-A1A-HC
 11
815.0
 21
687.0
 31
0.0
100
AcDbText
  0
LWPOLYLINE
  5
86
330
17
100
AcDbEntity
  8
PROCESS
370
25
100
AcDbPolyline
 90
3
 70
0
 10
292.0
 20
710.0
 10
292.0
 20
636.0
 10
430.0
 20
636.0
  0
LWPOLYLINE
  5
87
330
17
100
AcDbEntity
  8
PROCESS
100
AcDbPolyline
 90
4
 70
0
 10
289.0
 20
646.0
 10
292.0
 20
636.0
 10
295.0
 20
646.0
 10
289.0
 20
646.0
  0
LWPOLYLINE
  5
88
330
17
100
AcDbEntity
  8
PROCESS
100
AcDbPolyline
 90
4
 70
0
 10
289.0
 20
626.0
 10
292.0
 20
636.0
 10
295.0
 20
626.0
 10
289.0
 20
626.0
  0
LINE
  5
89
330
17
100
AcDbEntity
  8
INSTRUMENT
100
AcDbLine
 10
292.0
 20
639.0
 30
0.0
 11
292.0
 21
647.0
 31
0.0
  0
CIRCLE
  5
8A
330
17
100
AcDbEntity
  8
INSTRUMENT
100
AcDbCircle
 10
292.0
 20
651.0
 30
0.0
 40
4.0
  0
TEXT
  5
8B
330
17
100
AcDbEntity
  8
TEXT
100
AcDbText
 10
300.0
 20
634.0
 30
0.0
 40
2.5
  1
XV-30101A
 11
300.0
 21
634.0
 31
0.0
100
AcDbText
  0
TEXT
  5
8C
330
17
100
AcDbEntity
  8
TEXT
100
AcDbText
 10
275.0
 20
634.0
 30
0.0
 40
2.0
  1
FC
 11
275.0
 21
634.0
 31
0.0
100
AcDbText
  0
CIRCLE
  5
8D
330
17
100
AcDbEntity
  8
INSTRUMENT
100
AcDbCircle
 10
650.0
 20
659.0
 30
0.0
 40
6.0
  0
TEXT
  5
8E
330
17
100
AcDbEntity
  8
TEXT
100
AcDbText
 10
642.25
 20
657.2
 30
0.0
 40
2.0
  1
ZSO-30101A
 11
642.25
 21
657.2
 31
0.0
100
AcDbText
  0
CIRCLE
  5
8F
330
17
100
AcDbEntity
  8
INSTRUMENT
100
AcDbCircle
 10
650.0
 20
641.0
 30
0.0
 40
6.0
  0
TEXT
  5
90
330
17
100
AcDbEntity
  8
TEXT
100
AcDbText
 10
642.25
 20
639.2
 30
0.0
 40
2.0
  1
ZSC-30101A
 11
642.25
 21
639.2
 31
0.0
100
AcDbText
  0
LWPOLYLINE
  5
91
330
17
100
AcDbEntity
  8
SIGNAL_ELECTRIC
  6
DASHED
100
AcDbPolyline
 90
3
 70
0
 10
292.0
 20
636.0
 10
632.0
 20
648.0
 10
644.0
 20
648.0
  0
SOLID
  5
92
330
17
100
AcDbEntity
  8
PROCESS
100
AcDbTrace
 10
374.5
 20
636.0
 30
0.0
 11
366.5
 21
638.6
 31
0.0
 12
366.5
 22
633.4
 32
0.0
 13
366.5
 23
633.4
 33
0.0
  0
LWPOLYLINE
  5
93
330
17
100
AcDbEntity
  8
PROCESS
370
25
100
AcDbPolyline
 90
3
 70
0
 10
430.0
 20
514.0
 10
560.0
 20
514.0
 10
560.0
 20
675.0
  0
LWPOLYLINE
  5
94
330
17
100
AcDbEntity
  8
PROCESS
100
AcDbPolyline
 90
4
 70
0
 10
490.0
 20
511.0
 10
500.0
 20
514.0
 10
490.0
 20
517.0
 10
490.0
 20
511.0
  0
LWPOLYLINE
  5
95
330
17
100
AcDbEntity
  8
PROCESS
100
AcDbPolyline
 90
4
 70
0
 10
510.0
 20
511.0
 10
500.0
 20
514.0
 10
510.0
 20
517.0
 10
510.0
 20
511.0
  0
LINE
  5
96
330
17
100
AcDbEntity
  8
INSTRUMENT
100
AcDbLine
 10
500.0
 20
517.0
 30
0.0
 11
500.0
 21
525.0
 31
0.0
  0
CIRCLE
  5
97
330
17
100
AcDbEntity
  8
INSTRUMENT
100
AcDbCircle
 10
500.0
 20
529.0
 30
0.0
 40
4.0
  0
TEXT
  5
98
330
17
100
AcDbEntity
  8
TEXT
100
AcDbText
 10
488.0
 20
522.0
 30
0.0
 40
2.5
  1
XV-30102A
 11
488.0
 21
522.0
 31
0.0
100
AcDbText
  0
TEXT
  5
99
330
17
100
AcDbEntity
  8
TEXT
100
AcDbText
 10
496.0
 20
503.5
 30
0.0
 40
2.0
  1
FC
 11
496.0
 21
503.5
 31
0.0
100
AcDbText
  0
CIRCLE
  5
9A
330
17
100
AcDbEntity
  8
INSTRUMENT
100
AcDbCircle
 10
650.0
 20
623.0
 30
0.0
 40
6.0
  0
TEXT
  5
9B
330
17
100
AcDbEntity
  8
TEXT
100
AcDbText
 10
642.25
 20
621.2
 30
0.0
 40
2.0
  1
ZSO-30102A
 11
642.25
 21
621.2
 31
0.0
100
AcDbText
  0
CIRCLE
  5
9C
330
17
100
AcDbEntity
  8
INSTRUMENT
100
AcDbCircle
 10
650.0
 20
605.0
 30
0.0
 40
6.0
  0
TEXT
  5
9D
330
17
100
AcDbEntity
  8
TEXT
100
AcDbText
 10
642.25
 20
603.2
 30
0.0
 40
2.0
  1
ZSC-30102A
 11
642.25
 21
603.2
 31
0.0
100
AcDbText
  0
LWPOLYLINE
  5
9E
330
17
100
AcDbEntity
  8
SIGNAL_ELECTRIC
  6
DASHED
100
AcDbPolyline
 90
3
 70
0
 10
500.0
 20
514.0
 10
632.0
 20
612.0
 10
644.0
 20
612.0
  0
SOLID
  5
9F
330
17
100
AcDbEntity
  8
PROCESS
100
AcDbTrace
 10
557.0
 20
644.5
 30
0.0
 11
554.4
 21
636.5
 31
0.0
 12
559.6
 22
636.5
 32
0.0
 13
559.6
 23
636.5
 33
0.0
  0
LWPOLYLINE
  5
A0
330
17
100
AcDbEntity
  8
PROCESS
370
25
100
AcDbPolyline
 90
3
 70
0
 10
332.0
 20
710.0
 10
332.0
 20
476.0
 10
430.0
 20
476.0
  0
LWPOLYLINE
  5
A1
330
17
100
AcDbEntity
  8
PROCESS
100
AcDbPolyline
 90
4
 70
0
 10
329.0
 20
486.0
 10
332.0
 20
476.0
 10
335.0
 20
486.0
 10
329.0
 20
486.0
  0
LWPOLYLINE
  5
A2
330
17
100
AcDbEntity
  8
PROCESS
100
AcDbPolyline
 90
4
 70
0
 10
329.0
 20
466.0
 10
332.0
 20
476.0
 10
335.0
 20
466.0
 10
329.0
 20
466.0
  0
LINE
  5
A3
330
17
100
AcDbEntity
  8
INSTRUMENT
100
AcDbLine
 10
332.0
 20
479.0
 30
0.0
 11
332.0
 21
487.0
 31
0.0
  0
CIRCLE
  5
A4
330
17
100
AcDbEntity
  8
INSTRUMENT
100
AcDbCircle
 10
332.0
 20
491.0
 30
0.0
 40
4.0
  0
TEXT
  5
A5
330
17
100
AcDbEntity
  8
TEXT
100
AcDbText
 10
340.0
 20
474.0
 30
0.0
 40
2.5
  1
XV-30101B
 11
340.0
 21
474.0
 31
0.0
100
AcDbText
  0
TEXT
  5
A6
330
17
100
AcDbEntity
  8
TEXT
100
AcDbText
 10
315.0
 20
474.0
 30
0.0
 40
2.0
  1
FC
 11
315.0
 21
474.0
 31
0.0
100
AcDbText
  0
CIRCLE
  5
A7
330
17
100
AcDbEntity
  8
INSTRUMENT
100
AcDbCircle
 10
720.0
 20
499.0
 30
0.0
 40
6.0
  0
TEXT
  5
A8
330
17
100
AcDbEntity
  8
TEXT
100
AcDbText
 10
712.25
 20
497.2
 30
0.0
 40
2.0
  1
ZSO-30101B
 11
712.25
 21
497.2
 31
0.0
100
AcDbText
  0
CIRCLE
  5
A9
330
17
100
AcDbEntity
  8
INSTRUMENT
100
AcDbCircle
 10
720.0
 20
481.0
 30
0.0
 40
6.0
  0
TEXT
  5
AA
330
17
100
AcDbEntity
  8
TEXT
100
AcDbText
 10
712.25
 20
479.2
 30
0.0
 40
2.0
  1
ZSC-30101B
 11
712.25
 21
479.2
 31
0.0
100
AcDbText
  0
LWPOLYLINE
  5
AB
330
17
100
AcDbEntity
  8
SIGNAL_ELECTRIC
  6
DASHED
100
AcDbPolyline
 90
3
 70
0
 10
332.0
 20
476.0
 10
702.0
 20
488.0
 10
714.0
 20
488.0
  0
SOLID
  5
AC
330
17
100
AcDbEntity
  8
PROCESS
100
AcDbTrace
 10
374.5
 20
476.0
 30
0.0
 11
366.5
 21
478.6
 31
0.0
 12
366.5
 22
473.4
 32
0.0
 13
366.5
 23
473.4
 33
0.0
  0
LWPOLYLINE
  5
AD
330
17
100
AcDbEntity
  8
PROCESS
370
25
100
AcDbPolyline
 90
3
 70
0
 10
430.0
 20
354.0
 10
560.0
 20
354.0
 10
560.0
 20
675.0
  0
LWPOLYLINE
  5
AE
330
17
100
AcDbEntity
  8
PROCESS
100
AcDbPolyline
 90
4
 70
0
 10
490.0
 20
351.0
 10
500.0
 20
354.0
 10
490.0
 20
357.0
 10
490.0
 20
351.0
  0
LWPOLYLINE
  5
AF
330
17
100
AcDbEntity
  8
PROCESS
100
AcDbPolyline
 90
4
 70
0
 10
510.0
 20
351.0
 10
500.0
 20
354.0
 10
510.0
 20
357.0
 10
510.0
 20
351.0
  0
LINE
  5
B0
330
17
100
AcDbEntity
  8
INSTRUMENT
100
AcDbLine
 10
500.0
 20
357.0
 30
0.0
 11
500.0
 21
365.0
 31
0.0
  0
CIRCLE
  5
B1
330
17
100
AcDbEntity
  8
INSTRUMENT
100
AcDbCircle
 10
500.0
 20
369.0
 30
0.0
 40
4.0
  0
TEXT
  5
B2
330
17
100
AcDbEntity
  8
TEXT
100
AcDbText
 10
488.0
 20
362.0
 30
0.0
 40
2.5
  1
XV-30102B
 11
488.0
 21
362.0
 31
0.0
100
AcDbText
  0
TEXT
  5
B3
330
17
100
AcDbEntity
  8
TEXT
100
AcDbText
 10
496.0
 20
343.5
 30
0.0
 40
2.0
  1
FC
 11
496.0
 21
343.5
 31
0.0
100
AcDbText
  0
CIRCLE
  5
B4
330
17
100
AcDbEntity
  8
INSTRUMENT
100
AcDbCircle
 10
720.0
 20
463.0
 30
0.0
 40
6.0
  0
TEXT
  5
B5
330
17
100
AcDbEntity
  8
TEXT
100
AcDbText
 10
712.25
 20
461.2
 30
0.0
 40
2.0
  1
ZSO-30102B
 11
712.25
 21
461.2
 31
0.0
100
AcDbText
  0
CIRCLE
  5
B6
330
17
100
AcDbEntity
  8
INSTRUMENT
100
AcDbCircle
 10
720.0
 20
445.0
 30
0.0
 40
6.0
  0
TEXT
  5
B7
330
17
100
AcDbEntity
  8
TEXT
100
AcDbText
 10
712.25
 20
443.2
 30
0.0
 40
2.0
  1
ZSC-30102B
 11
712.25
 21
443.2
 31
0.0
100
AcDbText
  0
LWPOLYLINE
  5
B8
330
17
100
AcDbEntity
  8
SIGNAL_ELECTRIC
  6
DASHED
100
AcDbPolyline
 90
3
 70
0
 10
500.0
 20
354.0
 10
702.0
 20
452.0
 10
714.0
 20
452.0
  0
SOLID
  5
B9
330
17
100
AcDbEntity
  8
PROCESS
100
AcDbTrace
 10
557.0
 20
514.5
 30
0.0
 11
554.4
 21
506.5
 31
0.0
 12
559.6
 22
506.5
 32
0.0
 13
559.6
 23
506.5
 33
0.0
  0
LWPOLYLINE
  5
BA
330
17
100
AcDbEntity
  8
EQUIPMENT
100
AcDbPolyline
 90
5
 70
0
 10
696.0
 20
661.0
 10
744.0
 20
661.0
 10
744.0
 20
689.0
 10
696.0
 20
689.0
 10
696.0
 20
661.0
  0
TEXT
  5
BB
330
17
100
AcDbEntity
  8
TEXT
100
AcDbText
 10
709.0
 20
673.0
 30
0.0
 40
2.0
  1
DUST FILTER
 11
709.0
 21
673.0
 31
0.0
100
AcDbText
  0
TEXT
  5
BC
330
17
100
AcDbEntity
  8
TEXT
100
AcDbText
 10
712.0
 20
697.0
 30
0.0
 40
3.5
  1
F-301
 11
712.0
 21
697.0
 31
0.0
100
AcDbText
  0
LWPOLYLINE
  5
BD
330
17
100
AcDbEntity
  8
PROCESS
370
60
100
AcDbPolyline
 90
2
 70
0
 10
744.0
 20
675.0
 10
1086.0
 20
675.0
  0
SOLID
  5
BE
330
17
100
AcDbEntity
  8
PROCESS
100
AcDbTrace
 10
929.5
 20
675.0
 30
0.0
 11
921.5
 21
677.6
 31
0.0
 12
921.5
 22
672.4
 32
0.0
 13
921.5
 23
672.4
 33
0.0
  0
LWPOLYLINE
  5
BF
330
17
100
AcDbEntity
  8
PROCESS
370
25
100
AcDbPolyline
 90
4
 70
0
 10
155.0
 20
710.0
 10
155.0
 20
735.0
 10
930.0
 20
735.0
 10
930.0
 20
675.0
  0
ARC
  5
C0
330
17
100
AcDbEntity
  8
PROCESS
100
AcDbCircle
 10
292.0
 20
735.0
 30
0.0
 40
6.0
100
AcDbArc
 50
0.0
 51
180.0
  0
ARC
  5
C1
330
17
100
AcDbEntity
  8
PROCESS
100
AcDbCircle
 10
332.0
 20
735.0
 30
0.0
 40
6.0
100
AcDbArc
 50
0.0
 51
180.0
  0
LWPOLYLINE
  5
C2
330
17
100
AcDbEntity
  8
PROCESS
100
AcDbPolyline
 90
4
 70
0
 10
550.0
 20
732.0
 10
560.0
 20
735.0
 10
550.0
 20
738.0
 10
550.0
 20
732.0
  0
LWPOLYLINE
  5
C3
330
17
100
AcDbEntity
  8
PROCESS
100
AcDbPolyline
 90
4
 70
0
 10
570.0
 20
732.0
 10
560.0
 20
735.0
 10
570.0
 20
738.0
 10
570.0
 20
732.0
  0
TEXT
  5
C4
330
17
100
AcDbEntity
  8
TEXT
100
AcDbText
 10
548.0
 20
743.0
 30
0.0
 40
2.5
  1
XV-30190
 11
548.0
 21
743.0
 31
0.0
100
AcDbText
  0
TEXT
  5
C5
330
17
100
AcDbEntity
  8
TEXT
100
AcDbText
 10
556.0
 20
724.5
 30
0.0
 40
2.0
  1
NC/CSC
 11
556.0
 21
724.5
 31
0.0
100
AcDbText
  0
TEXT
  5
C6
330
17
100
AcDbEntity
  8
TEXT
100
AcDbText
 10
607.0
 20
746.0
 30
0.0
 40
2.5
  1
12-PG-301090-A1A-HC
 11
607.0
 21
746.0
 31
0.0
100
AcDbText
  0
LWPOLYLINE
  5
C7
330
17
100
AcDbEntity
  8
REGEN
100
AcDbPolyline
 90
4
 70
0
 10
55.0
 20
285.0
 10
77.0
 20
293.0
 10
77.0
 20
277.0
 10
55.0
 20
285.0
  0
TEXT
  5
C8
330
17
100
AcDbEntity
  8
TEXT
100
AcDbText
 10
57.0
 20
296.0
 30
0.0
 40
2.5
  1
OFFPAGE_REGEN_GAS
 11
57.0
 21
296.0
 31
0.0
100
AcDbText
  0
TEXT
  5
C9
330
17
100
AcDbEntity
  8
TEXT
100
AcDbText
 10
57.0
 20
267.0
 30
0.0
 40
2.0
  1
U300-UTL-010
 11
57.0
 21
267.0
 31
0.0
100
AcDbText
  0
LWPOLYLINE
  5
CA
330
17
100
AcDbEntity
  8
REGEN
370
35
100
AcDbPolyline
 90
2
 70
0
 10
77.0
 20
285.0
 10
220.0
 20
285.0
  0
SOLID
  5
CB
330
17
100
AcDbEntity
  8
REGEN
100
AcDbTrace
 10
184.45999999999998
 20
285.0
 30
0.0
 11
176.45999999999998
 21
287.6
 31
0.0
 12
176.45999999999998
 22
282.4
 32
0.0
 13
176.45999999999998
 23
282.4
 33
0.0
  0
CIRCLE
  5
CC
330
17
100
AcDbEntity
  8
INSTRUMENT
100
AcDbCircle
 10
160.0
 20
315.0
 30
0.0
 40
6.0
  0
LINE
  5
CD
330
17
100
AcDbEntity
  8
INSTRUMENT
100
AcDbLine
 10
154.0
 20
315.0
 30
0.0
 11
166.0
 21
315.0
 31
0.0
  0
TEXT
  5
CE
330
17
100
AcDbEntity
  8
TEXT
100
AcDbText
 10
153.025
 20
313.2
 30
0.0
 40
2.0
  1
FIC-30110
 11
153.025
 21
313.2
 31
0.0
100
AcDbText
  0
LWPOLYLINE
  5
CF
330
17
100
AcDbEntity
  8
SIGNAL_ELECTRIC
  6
DASHED
100
AcDbPolyline
 90
2
 70
0
 10
160.0
 20
306.0
 10
160.0
 20
285.0
  0
LWPOLYLINE
  5
D0
330
17
100
AcDbEntity
  8
EQUIPMENT
100
AcDbPolyline
 90
5
 70
0
 10
231.0
 20
267.0
 10
289.0
 20
267.0
 10
289.0
 20
303.0
 10
231.0
 20
303.0
 10
231.0
 20
267.0
  0
TEXT
  5
D1
330
17
100
AcDbEntity
  8
TEXT
100
AcDbText
 10
248.0
 20
283.0
 30
0.0
 40
2.0
  1
REGEN HEATER
 11
248.0
 21
283.0
 31
0.0
100
AcDbText
  0
TEXT
  5
D2
330
17
100
AcDbEntity
  8
TEXT
100
AcDbText
 10
252.0
 20
311.0
 30
0.0
 40
3.5
  1
H-301
 11
252.0
 21
311.0
 31
0.0
100
AcDbText
  0
CIRCLE
  5
D3
330
17
100
AcDbEntity
  8
INSTRUMENT
100
AcDbCircle
 10
285.0
 20
335.0
 30
0.0
 40
6.0
  0
LINE
  5
D4
330
17
100
AcDbEntity
  8
INSTRUMENT
100
AcDbLine
 10
279.0
 20
335.0
 30
0.0
 11
291.0
 21
335.0
 31
0.0
  0
TEXT
  5
D5
330
17
100
AcDbEntity
  8
TEXT
100
AcDbText
 10
278.025
 20
333.2
 30
0.0
 40
2.0
  1
TIC-30110
 11
278.025
 21
333.2
 31
0.0
100
AcDbText
  0
CIRCLE
  5
D6
330
17
100
AcDbEntity
  8
INSTRUMENT
100
AcDbCircle
 10
355.0
 20
335.0
 30
0.0
 40
6.0
  0
TEXT
  5
D7
330
17
100
AcDbEntity
  8
TEXT
100
AcDbText
 10
347.25
 20
333.2
 30
0.0
 40
2.0
  1
TAHH-30110
 11
347.25
 21
333.2
 31
0.0
100
AcDbText
  0
LWPOLYLINE
  5
D8
330
17
100
AcDbEntity
  8
SIGNAL_ELECTRIC
  6
DASHED
100
AcDbPolyline
 90
2
 70
0
 10
285.0
 20
326.0
 10
285.0
 20
303.0
  0
LWPOLYLINE
  5
D9
330
17
100
AcDbEntity
  8
SIGNAL_ELECTRIC
  6
DASHED
100
AcDbPolyline
 90
2
 70
0
 10
355.0
 20
326.0
 10
315.0
 20
285.0
  0
TEXT
  5
DA
330
17
100
AcDbEntity
  8
TEXT
100
AcDbText
 10
90.0
 20
298.0
 30
0.0
 40
2.5
  1
4-RG-301101-A1A-HC
 11
90.0
 21
298.0
 31
0.0
100
AcDbText
  0
LWPOLYLINE
  5
DB
330
17
100
AcDbEntity
  8
REGEN
370
35
100
AcDbPolyline
 90
3
 70
0
 10
289.0
 20
285.0
 10
620.0
 20
285.0
 10
620.0
 20
545.0
  0
SOLID
  5
DC
330
17
100
AcDbEntity
  8
REGEN
100
AcDbTrace
 10
531.8199999999999
 20
285.0
 30
0.0
 11
523.8199999999999
 21
287.6
 31
0.0
 12
523.8199999999999
 22
282.4
 32
0.0
 13
523.8199999999999
 23
282.4
 33
0.0
  0
SOLID
  5
DD
330
17
100
AcDbEntity
  8
REGEN
100
AcDbTrace
 10
620.0
 20
434.5
 30
0.0
 11
617.4
 21
426.5
 31
0.0
 12
622.6
 22
426.5
 32
0.0
 13
622.6
 23
426.5
 33
0.0
  0
LWPOLYLINE
  5
DE
330
17
100
AcDbEntity
  8
REGEN
370
25
100
AcDbPolyline
 90
2
 70
0
 10
620.0
 20
553.0
 10
452.0
 20
553.0
  0
LWPOLYLINE
  5
DF
330
17
100
AcDbEntity
  8
REGEN
100
AcDbPolyline
 90
4
 70
0
 10
560.0
 20
550.0
 10
570.0
 20
553.0
 10
560.0
 20
556.0
 10
560.0
 20
550.0
  0
LWPOLYLINE
  5
E0
330
17
100
AcDbEntity
  8
REGEN
100
AcDbPolyline
 90
4
 70
0
 10
580.0
 20
550.0
 10
570.0
 20
553.0
 10
580.0
 20
556.0
 10
580.0
 20
550.0
  0
LINE
  5
E1
330
17
100
AcDbEntity
  8
INSTRUMENT
100
AcDbLine
 10
570.0
 20
556.0
 30
0.0
 11
570.0
 21
564.0
 31
0.0
  0
CIRCLE
  5
E2
330
17
100
AcDbEntity
  8
INSTRUMENT
100
AcDbCircle
 10
570.0
 20
568.0
 30
0.0
 40
4.0
  0
TEXT
  5
E3
330
17
100
AcDbEntity
  8
TEXT
100
AcDbText
 10
558.0
 20
561.0
 30
0.0
 40
2.5
  1
XV-30103A
 11
558.0
 21
561.0
 31
0.0
100
AcDbText
  0
TEXT
  5
E4
330
17
100
AcDbEntity
  8
TEXT
100
AcDbText
 10
566.0
 20
542.5
 30
0.0
 40
2.0
  1
FC
 11
566.0
 21
542.5
 31
0.0
100
AcDbText
  0
CIRCLE
  5
E5
330
17
100
AcDbEntity
  8
INSTRUMENT
100
AcDbCircle
 10
650.0
 20
587.0
 30
0.0
 40
6.0
  0
TEXT
  5
E6
330
17
100
AcDbEntity
  8
TEXT
100
AcDbText
 10
642.25
 20
585.2
 30
0.0
 40
2.0
  1
ZSO-30103A
 11
642.25
 21
585.2
 31
0.0
100
AcDbText
  0
CIRCLE
  5
E7
330
17
100
AcDbEntity
  8
INSTRUMENT
100
AcDbCircle
 10
650.0
 20
569.0
 30
0.0
 40
6.0
  0
TEXT
  5
E8
330
17
100
AcDbEntity
  8
TEXT
100
AcDbText
 10
642.25
 20
567.2
 30
0.0
 40
2.0
  1
ZSC-30103A
 11
642.25
 21
567.2
 31
0.0
100
AcDbText
  0
LWPOLYLINE
  5
E9
330
17
100
AcDbEntity
  8
SIGNAL_ELECTRIC
  6
DASHED
100
AcDbPolyline
 90
3
 70
0
 10
570.0
 20
553.0
 10
632.0
 20
576.0
 10
644.0
 20
576.0
  0
SOLID
  5
EA
330
17
100
AcDbEntity
  8
REGEN
100
AcDbTrace
 10
495.5
 20
553.0
 30
0.0
 11
503.5
 21
550.4
 31
0.0
 12
503.5
 22
555.6
 32
0.0
 13
503.5
 23
555.6
 33
0.0
  0
LWPOLYLINE
  5
EB
330
17
100
AcDbEntity
  8
REGEN
370
25
100
AcDbPolyline
 90
2
 70
0
 10
620.0
 20
393.0
 10
452.0
 20
393.0
  0
LWPOLYLINE
  5
EC
330
17
100
AcDbEntity
  8
REGEN
100
AcDbPolyline
 90
4
 70
0
 10
560.0
 20
390.0
 10
570.0
 20
393.0
 10
560.0
 20
396.0
 10
560.0
 20
390.0
  0
LWPOLYLINE
  5
ED
330
17
100
AcDbEntity
  8
REGEN
100
AcDbPolyline
 90
4
 70
0
 10
580.0
 20
390.0
 10
570.0
 20
393.0
 10
580.0
 20
396.0
 10
580.0
 20
390.0
  0
LINE
  5
EE
330
17
100
AcDbEntity
  8
INSTRUMENT
100
AcDbLine
 10
570.0
 20
396.0
 30
0.0
 11
570.0
 21
404.0
 31
0.0
  0
CIRCLE
  5
EF
330
17
100
AcDbEntity
  8
INSTRUMENT
100
AcDbCircle
 10
570.0
 20
408.0
 30
0.0
 40
4.0
  0
TEXT
  5
F0
330
17
100
AcDbEntity
  8
TEXT
100
AcDbText
 10
558.0
 20
401.0
 30
0.0
 40
2.5
  1
XV-30103B
 11
558.0
 21
401.0
 31
0.0
100
AcDbText
  0
TEXT
  5
F1
330
17
100
AcDbEntity
  8
TEXT
100
AcDbText
 10
566.0
 20
382.5
 30
0.0
 40
2.0
  1
FC
 11
566.0
 21
382.5
 31
0.0
100
AcDbText
  0
CIRCLE
  5
F2
330
17
100
AcDbEntity
  8
INSTRUMENT
100
AcDbCircle
 10
720.0
 20
427.0
 30
0.0
 40
6.0
  0
TEXT
  5
F3
330
17
100
AcDbEntity
  8
TEXT
100
AcDbText
 10
712.25
 20
425.2
 30
0.0
 40
2.0
  1
ZSO-30103B
 11
712.25
 21
425.2
 31
0.0
100
AcDbText
  0
CIRCLE
  5
F4
330
17
100
AcDbEntity
  8
INSTRUMENT
100
AcDbCircle
 10
720.0
 20
409.0
 30
0.0
 40
6.0
  0
TEXT
  5
F5
330
17
100
AcDbEntity
  8
TEXT
100
AcDbText
 10
712.25
 20
407.2
 30
0.0
 40
2.0
  1
ZSC-30103B
 11
712.25
 21
407.2
 31
0.0
100
AcDbText
  0
LWPOLYLINE
  5
F6
330
17
100
AcDbEntity
  8
SIGNAL_ELECTRIC
  6
DASHED
100
AcDbPolyline
 90
3
 70
0
 10
570.0
 20
393.0
 10
702.0
 20
416.0
 10
714.0
 20
416.0
  0
SOLID
  5
F7
330
17
100
AcDbEntity
  8
REGEN
100
AcDbTrace
 10
495.5
 20
393.0
 30
0.0
 11
503.5
 21
390.4
 31
0.0
 12
503.5
 22
395.6
 32
0.0
 13
503.5
 23
395.6
 33
0.0
  0
LWPOLYLINE
  5
F8
330
17
100
AcDbEntity
  8
REGEN
370
25
100
AcDbPolyline
 90
3
 70
0
 10
452.0
 20
597.0
 10
670.0
 20
597.0
 10
670.0
 20
245.0
  0
LWPOLYLINE
  5
F9
330
17
100
AcDbEntity
  8
REGEN
100
AcDbPolyline
 90
4
 70
0
 10
550.0
 20
594.0
 10
560.0
 20
597.0
 10
550.0
 20
600.0
 10
550.0
 20
594.0
  0
LWPOLYLINE
  5
FA
330
17
100
AcDbEntity
  8
REGEN
100
AcDbPolyline
 90
4
 70
0
 10
570.0
 20
594.0
 10
560.0
 20
597.0
 10
570.0
 20
600.0
 10
570.0
 20
594.0
  0
LINE
  5
FB
330
17
100
AcDbEntity
  8
INSTRUMENT
100
AcDbLine
 10
560.0
 20
600.0
 30
0.0
 11
560.0
 21
608.0
 31
0.0
  0
CIRCLE
  5
FC
330
17
100
AcDbEntity
  8
INSTRUMENT
100
AcDbCircle
 10
560.0
 20
612.0
 30
0.0
 40
4.0
  0
TEXT
  5
FD
330
17
100
AcDbEntity
  8
TEXT
100
AcDbText
 10
548.0
 20
605.0
 30
0.0
 40
2.5
  1
XV-30104A
 11
548.0
 21
605.0
 31
0.0
100
AcDbText
  0
TEXT
  5
FE
330
17
100
AcDbEntity
  8
TEXT
100
AcDbText
 10
556.0
 20
586.5
 30
0.0
 40
2.0
  1
FC
 11
556.0
 21
586.5
 31
0.0
100
AcDbText
  0
CIRCLE
  5
FF
330
17
100
AcDbEntity
  8
INSTRUMENT
100
AcDbCircle
 10
650.0
 20
551.0
 30
0.0
 40
6.0
  0
TEXT
  5
100
330
17
100
AcDbEntity
  8
TEXT
100
AcDbText
 10
642.25
 20
549.2
 30
0.0
 40
2.0
  1
ZSO-30104A
 11
642.25
 21
549.2
 31
0.0
100
AcDbText
  0
CIRCLE
  5
101
330
17
100
AcDbEntity
  8
INSTRUMENT
100
AcDbCircle
 10
650.0
 20
533.0
 30
0.0
 40
6.0
  0
TEXT
  5
102
330
17
100
AcDbEntity
  8
TEXT
100
AcDbText
 10
642.25
 20
531.2
 30
0.0
 40
2.0
  1
ZSC-30104A
 11
642.25
 21
531.2
 31
0.0
100
AcDbText
  0
LWPOLYLINE
  5
103
330
17
100
AcDbEntity
  8
SIGNAL_ELECTRIC
  6
DASHED
100
AcDbPolyline
 90
3
 70
0
 10
560.0
 20
597.0
 10
632.0
 20
540.0
 10
644.0
 20
540.0
  0
SOLID
  5
104
330
17
100
AcDbEntity
  8
REGEN
100
AcDbTrace
 10
659.5
 20
597.0
 30
0.0
 11
651.5
 21
599.6
 31
0.0
 12
651.5
 22
594.4
 32
0.0
 13
651.5
 23
594.4
 33
0.0
  0
LWPOLYLINE
  5
105
330
17
100
AcDbEntity
  8
REGEN
370
25
100
AcDbPolyline
 90
3
 70
0
 10
452.0
 20
437.0
 10
670.0
 20
437.0
 10
670.0
 20
245.0
  0
LWPOLYLINE
  5
106
330
17
100
AcDbEntity
  8
REGEN
100
AcDbPolyline
 90
4
 70
0
 10
550.0
 20
434.0
 10
560.0
 20
437.0
 10
550.0
 20
440.0
 10
550.0
 20
434.0
  0
LWPOLYLINE
  5
107
330
17
100
AcDbEntity
  8
REGEN
100
AcDbPolyline
 90
4
 70
0
 10
570.0
 20
434.0
 10
560.0
 20
437.0
 10
570.0
 20
440.0
 10
570.0
 20
434.0
  0
LINE
  5
108
330
17
100
AcDbEntity
  8
INSTRUMENT
100
AcDbLine
 10
560.0
 20
440.0
 30
0.0
 11
560.0
 21
448.0
 31
0.0
  0
CIRCLE
  5
109
330
17
100
AcDbEntity
  8
INSTRUMENT
100
AcDbCircle
 10
560.0
 20
452.0
 30
0.0
 40
4.0
  0
TEXT
  5
10A
330
17
100
AcDbEntity
  8
TEXT
100
AcDbText
 10
548.0
 20
445.0
 30
0.0
 40
2.5
  1
XV-30104B
 11
548.0
 21
445.0
 31
0.0
100
AcDbText
  0
TEXT
  5
10B
330
17
100
AcDbEntity
  8
TEXT
100
AcDbText
 10
556.0
 20
426.5
 30
0.0
 40
2.0
  1
FC
 11
556.0
 21
426.5
 31
0.0
100
AcDbText
  0
CIRCLE
  5
10C
330
17
100
AcDbEntity
  8
INSTRUMENT
100
AcDbCircle
 10
720.0
 20
391.0
 30
0.0
 40
6.0
  0
TEXT
  5
10D
330
17
100
AcDbEntity
  8
TEXT
100
AcDbText
 10
712.25
 20
389.2
 30
0.0
 40
2.0
  1
ZSO-30104B
 11
712.25
 21
389.2
 31
0.0
100
AcDbText
  0
CIRCLE
  5
10E
330
17
100
AcDbEntity
  8
INSTRUMENT
100
AcDbCircle
 10
720.0
 20
373.0
 30
0.0
 40
6.0
  0
TEXT
  5
10F
330
17
100
AcDbEntity
  8
TEXT
100
AcDbText
 10
712.25
 20
371.2
 30
0.0
 40
2.0
  1
ZSC-30104B
 11
712.25
 21
371.2
 31
0.0
100
AcDbText
  0
LWPOLYLINE
  5
110
330
17
100
AcDbEntity
  8
SIGNAL_ELECTRIC
  6
DASHED
100
AcDbPolyline
 90
3
 70
0
 10
560.0
 20
437.0
 10
702.0
 20
380.0
 10
714.0
 20
380.0
  0
SOLID
  5
111
330
17
100
AcDbEntity
  8
REGEN
100
AcDbTrace
 10
659.5
 20
437.0
 30
0.0
 11
651.5
 21
439.6
 31
0.0
 12
651.5
 22
434.4
 32
0.0
 13
651.5
 23
434.4
 33
0.0
  0
LWPOLYLINE
  5
112
330
17
100
AcDbEntity
  8
EQUIPMENT
100
AcDbPolyline
 90
5
 70
0
 10
696.0
 20
229.0
 10
754.0
 20
229.0
 10
754.0
 20
261.0
 10
696.0
 20
261.0
 10
696.0
 20
229.0
  0
TEXT
  5
113
330
17
100
AcDbEntity
  8
TEXT
100
AcDbText
 10
713.0
 20
243.0
 30
0.0
 40
2.0
  1
REGEN COOLER
 11
713.0
 21
243.0
 31
0.0
100
AcDbText
  0
TEXT
  5
114
330
17
100
AcDbEntity
  8
TEXT
100
AcDbText
 10
717.0
 20
269.0
 30
0.0
 40
3.5
  1
E-301
 11
717.0
 21
269.0
 31
0.0
100
AcDbText
  0
LWPOLYLINE
  5
115
330
17
100
AcDbEntity
  8
EQUIPMENT
100
AcDbPolyline
 90
5
 70
0
 10
814.0
 20
216.0
 10
856.0
 20
216.0
 10
856.0
 20
274.0
 10
814.0
 20
274.0
 10
814.0
 20
216.0
  0
TEXT
  5
116
330
17
100
AcDbEntity
  8
TEXT
100
AcDbText
 10
828.0
 20
243.0
 30
0.0
 40
2.0
  1
KO DRUM
 11
828.0
 21
243.0
 31
0.0
100
AcDbText
  0
TEXT
  5
117
330
17
100
AcDbEntity
  8
TEXT
100
AcDbText
 10
827.0
 20
282.0
 30
0.0
 40
3.5
  1
V-301
 11
827.0
 21
282.0
 31
0.0
100
AcDbText
  0
LWPOLYLINE
  5
118
330
17
100
AcDbEntity
  8
REGEN
370
35
100
AcDbPolyline
 90
5
 70
0
 10
670.0
 20
245.0
 10
696.0
 20
245.0
 10
754.0
 20
245.0
 10
814.0
 20
245.0
 10
1066.0
 20
245.0
  0
SOLID
  5
119
330
17
100
AcDbEntity
  8
REGEN
100
AcDbTrace
 10
693.22
 20
245.0
 30
0.0
 11
685.22
 21
247.6
 31
0.0
 12
685.22
 22
242.4
 32
0.0
 13
685.22
 23
242.4
 33
0.0
  0
SOLID
  5
11A
330
17
100
AcDbEntity
  8
REGEN
100
AcDbTrace
 10
742.26
 20
245.0
 30
0.0
 11
734.26
 21
247.6
 31
0.0
 12
734.26
 22
242.4
 32
0.0
 13
734.26
 23
242.4
 33
0.0
  0
SOLID
  5
11B
330
17
100
AcDbEntity
  8
REGEN
100
AcDbTrace
 10
801.7
 20
245.0
 30
0.0
 11
793.7
 21
247.6
 31
0.0
 12
793.7
 22
242.4
 32
0.0
 13
793.7
 23
242.4
 33
0.0
  0
SOLID
  5
11C
330
17
100
AcDbEntity
  8
REGEN
100
AcDbTrace
 10
999.94
 20
245.0
 30
0.0
 11
991.94
 21
247.6
 31
0.0
 12
991.94
 22
242.4
 32
0.0
 13
991.94
 23
242.4
 33
0.0
  0
SOLID
  5
11D
330
17
100
AcDbEntity
  8
REGEN
100
AcDbTrace
 10
784.5
 20
245.0
 30
0.0
 11
776.5
 21
247.6
 31
0.0
 12
776.5
 22
242.4
 32
0.0
 13
776.5
 23
242.4
 33
0.0
  0
TEXT
  5
11E
330
17
100
AcDbEntity
  8
TEXT
100
AcDbText
 10
760.0
 20
258.0
 30
0.0
 40
2.5
  1
4-RG-301107-A1A-HC
 11
760.0
 21
258.0
 31
0.0
100
AcDbText
  0
LWPOLYLINE
  5
11F
330
17
100
AcDbEntity
  8
REGEN
100
AcDbPolyline
 90
4
 70
0
 10
1088.0
 20
245.0
 10
1066.0
 20
253.0
 10
1066.0
 20
237.0
 10
1088.0
 20
245.0
  0
TEXT
  5
120
330
17
100
AcDbEntity
  8
TEXT
100
AcDbText
 10
1034.0
 20
256.0
 30
0.0
 40
2.5
  1
OFFPAGE_REGEN_RETURN
 11
1034.0
 21
256.0
 31
0.0
100
AcDbText
  0
TEXT
  5
121
330
17
100
AcDbEntity
  8
TEXT
100
AcDbText
 10
1034.0
 20
227.0
 30
0.0
 40
2.0
  1
U300-FG-020
 11
1034.0
 21
227.0
 31
0.0
100
AcDbText
  0
LWPOLYLINE
  5
122
330
17
100
AcDbEntity
  8
FLARE_VENT
100
AcDbPolyline
 90
4
 70
0
 10
1088.0
 20
198.0
 10
1066.0
 20
206.0
 10
1066.0
 20
190.0
 10
1088.0
 20
198.0
  0
TEXT
  5
123
330
17
100
AcDbEntity
  8
TEXT
100
AcDbText
 10
1034.0
 20
209.0
 30
0.0
 40
2.5
  1
OFFPAGE_FLARE
 11
1034.0
 21
209.0
 31
0.0
100
AcDbText
  0
TEXT
  5
124
330
17
100
AcDbEntity
  8
TEXT
100
AcDbText
 10
1034.0
 20
180.0
 30
0.0
 40
2.0
  1
U300-FL-001
 11
1034.0
 21
180.0
 31
0.0
100
AcDbText
  0
LWPOLYLINE
  5
125
330
17
100
AcDbEntity
  8
FLARE_VENT
370
35
100
AcDbPolyline
 90
2
 70
0
 10
150.0
 20
198.0
 10
1066.0
 20
198.0
  0
SOLID
  5
126
330
17
100
AcDbEntity
  8
FLARE_VENT
100
AcDbTrace
 10
814.02
 20
198.0
 30
0.0
 11
806.02
 21
200.6
 31
0.0
 12
806.02
 22
195.4
 32
0.0
 13
806.02
 23
195.4
 33
0.0
  0
TEXT
  5
127
330
17
100
AcDbEntity
  8
TEXT
100
AcDbText
 10
180.0
 20
210.0
 30
0.0
 40
2.5
  1
3-FL-301201-A1A-HC
 11
180.0
 21
210.0
 31
0.0
100
AcDbText
  0
LWPOLYLINE
  5
128
330
17
100
AcDbEntity
  8
DRAIN
100
AcDbPolyline
 90
4
 70
0
 10
1088.0
 20
163.0
 10
1066.0
 20
171.0
 10
1066.0
 20
155.0
 10
1088.0
 20
163.0
  0
TEXT
  5
129
330
17
100
AcDbEntity
  8
TEXT
100
AcDbText
 10
1034.0
 20
174.0
 30
0.0
 40
2.5
  1
OFFPAGE_CLOSED_DRAIN
 11
1034.0
 21
174.0
 31
0.0
100
AcDbText
  0
TEXT
  5
12A
330
17
100
AcDbEntity
  8
TEXT
100
AcDbText
 10
1034.0
 20
145.0
 30
0.0
 40
2.0
  1
U300-CD-001
 11
1034.0
 21
145.0
 31
0.0
100
AcDbText
  0
LWPOLYLINE
  5
12B
330
17
100
AcDbEntity
  8
DRAIN
370
35
100
AcDbPolyline
 90
2
 70
0
 10
150.0
 20
163.0
 10
1066.0
 20
163.0
  0
SOLID
  5
12C
330
17
100
AcDbEntity
  8
DRAIN
100
AcDbTrace
 10
814.02
 20
163.0
 30
0.0
 11
806.02
 21
165.6
 31
0.0
 12
806.02
 22
160.4
 32
0.0
 13
806.02
 23
160.4
 33
0.0
  0
TEXT
  5
12D
330
17
100
AcDbEntity
  8
TEXT
100
AcDbText
 10
180.0
 20
175.0
 30
0.0
 40
2.5
  1
2-CD-301301-A1A-HC
 11
180.0
 21
175.0
 31
0.0
100
AcDbText
  0
LWPOLYLINE
  5
12E
330
17
100
AcDbEntity
  8
FLARE_VENT
100
AcDbPolyline
 90
4
 70
0
 10
1088.0
 20
128.0
 10
1066.0
 20
136.0
 10
1066.0
 20
120.0
 10
1088.0
 20
128.0
  0
TEXT
  5
12F
330
17
100
AcDbEntity
  8
TEXT
100
AcDbText
 10
1034.0
 20
139.0
 30
0.0
 40
2.5
  1
OFFPAGE_SAFE_VENT
 11
1034.0
 21
139.0
 31
0.0
100
AcDbText
  0
TEXT
  5
130
330
17
100
AcDbEntity
  8
TEXT
100
AcDbText
 10
1034.0
 20
110.0
 30
0.0
 40
2.0
  1
U300-VT-001
 11
1034.0
 21
110.0
 31
0.0
100
AcDbText
  0
LWPOLYLINE
  5
131
330
17
100
AcDbEntity
  8
FLARE_VENT
370
35
100
AcDbPolyline
 90
2
 70
0
 10
150.0
 20
128.0
 10
1066.0
 20
128.0
  0
SOLID
  5
132
330
17
100
AcDbEntity
  8
FLARE_VENT
100
AcDbTrace
 10
814.02
 20
128.0
 30
0.0
 11
806.02
 21
130.6
 31
0.0
 12
806.02
 22
125.4
 32
0.0
 13
806.02
 23
125.4
 33
0.0
  0
TEXT
  5
133
330
17
100
AcDbEntity
  8
TEXT
100
AcDbText
 10
180.0
 20
140.0
 30
0.0
 40
2.5
  1
2-SV-301401-A1A-HC
 11
180.0
 21
140.0
 31
0.0
100
AcDbText
  0
LWPOLYLINE
  5
134
330
17
100
AcDbEntity
  8
FLARE_VENT
370
25
100
AcDbPolyline
 90
3
 70
0
 10
408.0
 20
627.0
 10
365.0
 20
627.0
 10
365.0
 20
198.0
  0
LWPOLYLINE
  5
135
330
17
100
AcDbEntity
  8
FLARE_VENT
100
AcDbPolyline
 90
4
 70
0
 10
362.0
 20
605.0
 10
365.0
 20
595.0
 10
368.0
 20
605.0
 10
362.0
 20
605.0
  0
LWPOLYLINE
  5
136
330
17
100
AcDbEntity
  8
FLARE_VENT
100
AcDbPolyline
 90
4
 70
0
 10
362.0
 20
585.0
 10
365.0
 20
595.0
 10
368.0
 20
585.0
 10
362.0
 20
585.0
  0
LINE
  5
137
330
17
100
AcDbEntity
  8
INSTRUMENT
100
AcDbLine
 10
365.0
 20
598.0
 30
0.0
 11
365.0
 21
606.0
 31
0.0
  0
CIRCLE
  5
138
330
17
100
AcDbEntity
  8
INSTRUMENT
100
AcDbCircle
 10
365.0
 20
610.0
 30
0.0
 40
4.0
  0
TEXT
  5
139
330
17
100
AcDbEntity
  8
TEXT
100
AcDbText
 10
373.0
 20
593.0
 30
0.0
 40
2.5
  1
XV-30105A
 11
373.0
 21
593.0
 31
0.0
100
AcDbText
  0
TEXT
  5
13A
330
17
100
AcDbEntity
  8
TEXT
100
AcDbText
 10
348.0
 20
593.0
 30
0.0
 40
2.0
  1
FO
 11
348.0
 21
593.0
 31
0.0
100
AcDbText
  0
CIRCLE
  5
13B
330
17
100
AcDbEntity
  8
INSTRUMENT
100
AcDbCircle
 10
650.0
 20
515.0
 30
0.0
 40
6.0
  0
TEXT
  5
13C
330
17
100
AcDbEntity
  8
TEXT
100
AcDbText
 10
642.25
 20
513.2
 30
0.0
 40
2.0
  1
ZSO-30105A
 11
642.25
 21
513.2
 31
0.0
100
AcDbText
  0
CIRCLE
  5
13D
330
17
100
AcDbEntity
  8
INSTRUMENT
100
AcDbCircle
 10
650.0
 20
497.0
 30
0.0
 40
6.0
  0
TEXT
  5
13E
330
17
100
AcDbEntity
  8
TEXT
100
AcDbText
 10
642.25
 20
495.2
 30
0.0
 40
2.0
  1
ZSC-30105A
 11
642.25
 21
495.2
 31
0.0
100
AcDbText
  0
LWPOLYLINE
  5
13F
330
17
100
AcDbEntity
  8
SIGNAL_ELECTRIC
  6
DASHED
100
AcDbPolyline
 90
3
 70
0
 10
365.0
 20
595.0
 10
632.0
 20
504.0
 10
644.0
 20
504.0
  0
LWPOLYLINE
  5
140
330
17
100
AcDbEntity
  8
FLARE_VENT
370
25
100
AcDbPolyline
 90
3
 70
0
 10
420.0
 20
641.0
 10
335.0
 20
641.0
 10
335.0
 20
128.0
  0
LWPOLYLINE
  5
141
330
17
100
AcDbEntity
  8
DRAIN
370
25
100
AcDbPolyline
 90
3
 70
0
 10
430.0
 20
509.0
 10
465.0
 20
509.0
 10
465.0
 20
163.0
  0
SOLID
  5
142
330
17
100
AcDbEntity
  8
FLARE_VENT
100
AcDbTrace
 10
365.0
 20
225.5
 30
0.0
 11
367.6
 21
233.5
 31
0.0
 12
362.4
 22
233.5
 32
0.0
 13
362.4
 23
233.5
 33
0.0
  0
SOLID
  5
143
330
17
100
AcDbEntity
  8
DRAIN
100
AcDbTrace
 10
465.0
 20
180.5
 30
0.0
 11
467.6
 21
188.5
 31
0.0
 12
462.4
 22
188.5
 32
0.0
 13
462.4
 23
188.5
 33
0.0
  0
LWPOLYLINE
  5
144
330
17
100
AcDbEntity
  8
PROCESS
370
25
100
AcDbPolyline
 90
3
 70
0
 10
790.0
 20
675.0
 10
790.0
 20
583.0
 10
452.0
 20
583.0
  0
LWPOLYLINE
  5
145
330
17
100
AcDbEntity
  8
PROCESS
100
AcDbPolyline
 90
4
 70
0
 10
787.0
 20
593.0
 10
790.0
 20
583.0
 10
793.0
 20
593.0
 10
787.0
 20
593.0
  0
LWPOLYLINE
  5
146
330
17
100
AcDbEntity
  8
PROCESS
100
AcDbPolyline
 90
4
 70
0
 10
787.0
 20
573.0
 10
790.0
 20
583.0
 10
793.0
 20
573.0
 10
787.0
 20
573.0
  0
LINE
  5
147
330
17
100
AcDbEntity
  8
INSTRUMENT
100
AcDbLine
 10
790.0
 20
586.0
 30
0.0
 11
790.0
 21
594.0
 31
0.0
  0
CIRCLE
  5
148
330
17
100
AcDbEntity
  8
INSTRUMENT
100
AcDbCircle
 10
790.0
 20
598.0
 30
0.0
 40
4.0
  0
TEXT
  5
149
330
17
100
AcDbEntity
  8
TEXT
100
AcDbText
 10
798.0
 20
581.0
 30
0.0
 40
2.5
  1
XV-30106A
 11
798.0
 21
581.0
 31
0.0
100
AcDbText
  0
TEXT
  5
14A
330
17
100
AcDbEntity
  8
TEXT
100
AcDbText
 10
773.0
 20
581.0
 30
0.0
 40
2.0
  1
FC
 11
773.0
 21
581.0
 31
0.0
100
AcDbText
  0
CIRCLE
  5
14B
330
17
100
AcDbEntity
  8
INSTRUMENT
100
AcDbCircle
 10
650.0
 20
479.0
 30
0.0
 40
6.0
  0
TEXT
  5
14C
330
17
100
AcDbEntity
  8
TEXT
100
AcDbText
 10
642.25
 20
477.2
 30
0.0
 40
2.0
  1
ZSO-30106A
 11
642.25
 21
477.2
 31
0.0
100
AcDbText
  0
CIRCLE
  5
14D
330
17
100
AcDbEntity
  8
INSTRUMENT
100
AcDbCircle
 10
650.0
 20
461.0
 30
0.0
 40
6.0
  0
TEXT
  5
14E
330
17
100
AcDbEntity
  8
TEXT
100
AcDbText
 10
642.25
 20
459.2
 30
0.0
 40
2.0
  1
ZSC-30106A
 11
642.25
 21
459.2
 31
0.0
100
AcDbText
  0
LWPOLYLINE
  5
14F
330
17
100
AcDbEntity
  8
SIGNAL_ELECTRIC
  6
DASHED
100
AcDbPolyline
 90
3
 70
0
 10
790.0
 20
583.0
 10
632.0
 20
468.0
 10
644.0
 20
468.0
  0
LWPOLYLINE
  5
150
330
17
100
AcDbEntity
  8
FLARE_VENT
370
25
100
AcDbPolyline
 90
3
 70
0
 10
408.0
 20
467.0
 10
385.0
 20
467.0
 10
385.0
 20
198.0
  0
LWPOLYLINE
  5
151
330
17
100
AcDbEntity
  8
FLARE_VENT
100
AcDbPolyline
 90
4
 70
0
 10
382.0
 20
445.0
 10
385.0
 20
435.0
 10
388.0
 20
445.0
 10
382.0
 20
445.0
  0
LWPOLYLINE
  5
152
330
17
100
AcDbEntity
  8
FLARE_VENT
100
AcDbPolyline
 90
4
 70
0
 10
382.0
 20
425.0
 10
385.0
 20
435.0
 10
388.0
 20
425.0
 10
382.0
 20
425.0
  0
LINE
  5
153
330
17
100
AcDbEntity
  8
INSTRUMENT
100
AcDbLine
 10
385.0
 20
438.0
 30
0.0
 11
385.0
 21
446.0
 31
0.0
  0
CIRCLE
  5
154
330
17
100
AcDbEntity
  8
INSTRUMENT
100
AcDbCircle
 10
385.0
 20
450.0
 30
0.0
 40
4.0
  0
TEXT
  5
155
330
17
100
AcDbEntity
  8
TEXT
100
AcDbText
 10
393.0
 20
433.0
 30
0.0
 40
2.5
  1
XV-30105B
 11
393.0
 21
433.0
 31
0.0
100
AcDbText
  0
TEXT
  5
156
330
17
100
AcDbEntity
  8
TEXT
100
AcDbText
 10
368.0
 20
433.0
 30
0.0
 40
2.0
  1
FO
 11
368.0
 21
433.0
 31
0.0
100
AcDbText
  0
CIRCLE
  5
157
330
17
100
AcDbEntity
  8
INSTRUMENT
100
AcDbCircle
 10
720.0
 20
355.0
 30
0.0
 40
6.0
  0
TEXT
  5
158
330
17
100
AcDbEntity
  8
TEXT
100
AcDbText
 10
712.25
 20
353.2
 30
0.0
 40
2.0
  1
ZSO-30105B
 11
712.25
 21
353.2
 31
0.0
100
AcDbText
  0
CIRCLE
  5
159
330
17
100
AcDbEntity
  8
INSTRUMENT
100
AcDbCircle
 10
720.0
 20
337.0
 30
0.0
 40
6.0
  0
TEXT
  5
15A
330
17
100
AcDbEntity
  8
TEXT
100
AcDbText
 10
712.25
 20
335.2
 30
0.0
 40
2.0
  1
ZSC-30105B
 11
712.25
 21
335.2
 31
0.0
100
AcDbText
  0
LWPOLYLINE
  5
15B
330
17
100
AcDbEntity
  8
SIGNAL_ELECTRIC
  6
DASHED
100
AcDbPolyline
 90
3
 70
0
 10
385.0
 20
435.0
 10
702.0
 20
344.0
 10
714.0
 20
344.0
  0
LWPOLYLINE
  5
15C
330
17
100
AcDbEntity
  8
FLARE_VENT
370
25
100
AcDbPolyline
 90
3
 70
0
 10
420.0
 20
481.0
 10
355.0
 20
481.0
 10
355.0
 20
128.0
  0
LWPOLYLINE
  5
15D
330
17
100
AcDbEntity
  8
DRAIN
370
25
100
AcDbPolyline
 90
3
 70
0
 10
430.0
 20
349.0
 10
485.0
 20
349.0
 10
485.0
 20
163.0
  0
SOLID
  5
15E
330
17
100
AcDbEntity
  8
FLARE_VENT
100
AcDbTrace
 10
385.0
 20
225.5
 30
0.0
 11
387.6
 21
233.5
 31
0.0
 12
382.4
 22
233.5
 32
0.0
 13
382.4
 23
233.5
 33
0.0
  0
SOLID
  5
15F
330
17
100
AcDbEntity
  8
DRAIN
100
AcDbTrace
 10
485.0
 20
180.5
 30
0.0
 11
487.6
 21
188.5
 31
0.0
 12
482.4
 22
188.5
 32
0.0
 13
482.4
 23
188.5
 33
0.0
  0
LWPOLYLINE
  5
160
330
17
100
AcDbEntity
  8
PROCESS
370
25
100
AcDbPolyline
 90
3
 70
0
 10
820.0
 20
675.0
 10
820.0
 20
423.0
 10
452.0
 20
423.0
  0
LWPOLYLINE
  5
161
330
17
100
AcDbEntity
  8
PROCESS
100
AcDbPolyline
 90
4
 70
0
 10
817.0
 20
433.0
 10
820.0
 20
423.0
 10
823.0
 20
433.0
 10
817.0
 20
433.0
  0
LWPOLYLINE
  5
162
330
17
100
AcDbEntity
  8
PROCESS
100
AcDbPolyline
 90
4
 70
0
 10
817.0
 20
413.0
 10
820.0
 20
423.0
 10
823.0
 20
413.0
 10
817.0
 20
413.0
  0
LINE
  5
163
330
17
100
AcDbEntity
  8
INSTRUMENT
100
AcDbLine
 10
820.0
 20
426.0
 30
0.0
 11
820.0
 21
434.0
 31
0.0
  0
CIRCLE
  5
164
330
17
100
AcDbEntity
  8
INSTRUMENT
100
AcDbCircle
 10
820.0
 20
438.0
 30
0.0
 40
4.0
  0
TEXT
  5
165
330
17
100
AcDbEntity
  8
TEXT
100
AcDbText
 10
828.0
 20
421.0
 30
0.0
 40
2.5
  1
XV-30106B
 11
828.0
 21
421.0
 31
0.0
100
AcDbText
  0
TEXT
  5
166
330
17
100
AcDbEntity
  8
TEXT
100
AcDbText
 10
803.0
 20
421.0
 30
0.0
 40
2.0
  1
FC
 11
803.0
 21
421.0
 31
0.0
100
AcDbText
  0
CIRCLE
  5
167
330
17
100
AcDbEntity
  8
INSTRUMENT
100
AcDbCircle
 10
720.0
 20
319.0
 30
0.0
 40
6.0
  0
TEXT
  5
168
330
17
100
AcDbEntity
  8
TEXT
100
AcDbText
 10
712.25
 20
317.2
 30
0.0
 40
2.0
  1
ZSO-30106B
 11
712.25
 21
317.2
 31
0.0
100
AcDbText
  0
CIRCLE
  5
169
330
17
100
AcDbEntity
  8
INSTRUMENT
100
AcDbCircle
 10
720.0
 20
301.0
 30
0.0
 40
6.0
  0
TEXT
  5
16A
330
17
100
AcDbEntity
  8
TEXT
100
AcDbText
 10
712.25
 20
299.2
 30
0.0
 40
2.0
  1
ZSC-30106B
 11
712.25
 21
299.2
 31
0.0
100
AcDbText
  0
LWPOLYLINE
  5
16B
330
17
100
AcDbEntity
  8
SIGNAL_ELECTRIC
  6
DASHED
100
AcDbPolyline
 90
3
 70
0
 10
820.0
 20
423.0
 10
702.0
 20
308.0
 10
714.0
 20
308.0
  0
TEXT
  5
16C
330
17
100
AcDbEntity
  8
TEXT
100
AcDbText
 10
835.0
 20
615.0
 30
0.0
 40
2.5
  1
2-PG-301021-A1A-HC
 11
835.0
 21
615.0
 31
0.0
100
AcDbText
  0
LWPOLYLINE
  5
16D
330
17
100
AcDbEntity
  8
INSTRUMENT
370
25
100
AcDbPolyline
 90
3
 70
0
 10
890.0
 20
675.0
 10
890.0
 20
620.0
 10
940.0
 20
620.0
  0
LWPOLYLINE
  5
16E
330
17
100
AcDbEntity
  8
EQUIPMENT
100
AcDbPolyline
 90
5
 70
0
 10
949.0
 20
606.0
 10
1001.0
 20
606.0
 10
1001.0
 20
634.0
 10
949.0
 20
634.0
 10
949.0
 20
606.0
  0
TEXT
  5
16F
330
17
100
AcDbEntity
  8
TEXT
100
AcDbText
 10
963.0
 20
618.0
 30
0.0
 40
2.0
  1
SAMPLE COND.
 11
963.0
 21
618.0
 31
0.0
100
AcDbText
  0
TEXT
  5
170
330
17
100
AcDbEntity
  8
TEXT
100
AcDbText
 10
967.0
 20
642.0
 30
0.0
 40
3.5
  1
SC-30101
 11
967.0
 21
642.0
 31
0.0
100
AcDbText
  0
CIRCLE
  5
171
330
17
100
AcDbEntity
  8
INSTRUMENT
100
AcDbCircle
 10
1055.0
 20
620.0
 30
0.0
 40
6.0
  0
TEXT
  5
172
330
17
100
AcDbEntity
  8
TEXT
100
AcDbText
 10
1048.025
 20
618.2
 30
0.0
 40
2.0
  1
AIT-30101
 11
1048.025
 21
618.2
 31
0.0
100
AcDbText
  0
CIRCLE
  5
173
330
17
100
AcDbEntity
  8
INSTRUMENT
100
AcDbCircle
 10
1055.0
 20
585.0
 30
0.0
 40
6.0
  0
LINE
  5
174
330
17
100
AcDbEntity
  8
INSTRUMENT
100
AcDbLine
 10
1049.0
 20
585.0
 30
0.0
 11
1061.0
 21
585.0
 31
0.0
  0
TEXT
  5
175
330
17
100
AcDbEntity
  8
TEXT
100
AcDbText
 10
1048.025
 20
583.2
 30
0.0
 40
2.0
  1
AIC-30101
 11
1048.025
 21
583.2
 31
0.0
100
AcDbText
  0
LWPOLYLINE
  5
176
330
17
100
AcDbEntity
  8
SIGNAL_ELECTRIC
  6
DASHED
100
AcDbPolyline
 90
2
 70
0
 10
1055.0
 20
611.0
 10
1055.0
 20
594.0
  0
LWPOLYLINE
  5
177
330
17
100
AcDbEntity
  8
FLARE_VENT
370
25
100
AcDbPolyline
 90
2
 70
0
 10
1000.0
 20
606.0
 10
1000.0
 20
128.0
  0
LWPOLYLINE
  5
178
330
17
100
AcDbEntity
  8
DRAIN
370
25
100
AcDbPolyline
 90
2
 70
0
 10
980.0
 20
606.0
 10
980.0
 20
163.0
  0
SOLID
  5
179
330
17
100
AcDbEntity
  8
INSTRUMENT
100
AcDbTrace
 10
890.0
 20
640.5
 30
0.0
 11
892.6
 21
648.5
 31
0.0
 12
887.4
 22
648.5
 32
0.0
 13
887.4
 23
648.5
 33
0.0
  0
LWPOLYLINE
  5
17A
330
17
100
AcDbEntity
  8
TABLE
100
AcDbPolyline
 90
5
 70
0
 10
505.0
 20
128.0
 10
825.0
 20
128.0
 10
825.0
 20
38.0
 10
505.0
 20
38.0
 10
505.0
 20
128.0
  0
TEXT
  5
17B
330
17
100
AcDbEntity
  8
TEXT
100
AcDbText
 10
511.0
 20
116.0
 30
0.0
 40
3.2
  1
DRIER SEQUENCE TABLE
 11
511.0
 21
116.0
 31
0.0
100
AcDbText
  0
TEXT
  5
17C
330
17
100
AcDbEntity
  8
TEXT
100
AcDbText
 10
511.0
 20
103.0
 30
0.0
 40
2.3
  1
STEP
 11
511.0
 21
103.0
 31
0.0
100
AcDbText
  0
TEXT
  5
17D
330
17
100
AcDbEntity
  8
TEXT
100
AcDbText
 10
577.0
 20
103.0
 30
0.0
 40
2.3
  1
BED A
 11
577.0
 21
103.0
 31
0.0
100
AcDbText
  0
TEXT
  5
17E
330
17
100
AcDbEntity
  8
TEXT
100
AcDbText
 10
637.0
 20
103.0
 30
0.0
 40
2.3
  1
BED B
 11
637.0
 21
103.0
 31
0.0
100
AcDbText
  0
TEXT
  5
17F
330
17
100
AcDbEntity
  8
TEXT
100
AcDbText
 10
695.0
 20
103.0
 30
0.0
 40
2.3
  1
KEY XV STATE
 11
695.0
 21
103.0
 31
0.0
100
AcDbText
  0
TEXT
  5
180
330
17
100
AcDbEntity
  8
TEXT
100
AcDbText
 10
511.0
 20
91.0
 30
0.0
 40
2.3
  1
1 ADSORB A
 11
511.0
 21
91.0
 31
0.0
100
AcDbText
  0
TEXT
  5
181
330
17
100
AcDbEntity
  8
TEXT
100
AcDbText
 10
577.0
 20
91.0
 30
0.0
 40
2.3
  1
ADSORB
 11
577.0
 21
91.0
 31
0.0
100
AcDbText
  0
TEXT
  5
182
330
17
100
AcDbEntity
  8
TEXT
100
AcDbText
 10
637.0
 20
91.0
 30
0.0
 40
2.3
  1
REGEN
 11
637.0
 21
91.0
 31
0.0
100
AcDbText
  0
TEXT
  5
183
330
17
100
AcDbEntity
  8
TEXT
100
AcDbText
 10
695.0
 20
91.0
 30
0.0
 40
2.3
  1
30101A/30102A OPEN
 11
695.0
 21
91.0
 31
0.0
100
AcDbText
  0
TEXT
  5
184
330
17
100
AcDbEntity
  8
TEXT
100
AcDbText
 10
511.0
 20
79.0
 30
0.0
 40
2.3
  1
2 HEAT B
 11
511.0
 21
79.0
 31
0.0
100
AcDbText
  0
TEXT
  5
185
330
17
100
AcDbEntity
  8
TEXT
100
AcDbText
 10
577.0
 20
79.0
 30
0.0
 40
2.3
  1
ADSORB
 11
577.0
 21
79.0
 31
0.0
100
AcDbText
  0
TEXT
  5
186
330
17
100
AcDbEntity
  8
TEXT
100
AcDbText
 10
637.0
 20
79.0
 30
0.0
 40
2.3
  1
HEAT
 11
637.0
 21
79.0
 31
0.0
100
AcDbText
  0
TEXT
  5
187
330
17
100
AcDbEntity
  8
TEXT
100
AcDbText
 10
695.0
 20
79.0
 30
0.0
 40
2.3
  1
30103B/30104B OPEN
 11
695.0
 21
79.0
 31
0.0
100
AcDbText
  0
TEXT
  5
188
330
17
100
AcDbEntity
  8
TEXT
100
AcDbText
 10
511.0
 20
67.0
 30
0.0
 40
2.3
  1
3 COOL B
 11
511.0
 21
67.0
 31
0.0
100
AcDbText
  0
TEXT
  5
189
330
17
100
AcDbEntity
  8
TEXT
100
AcDbText
 10
577.0
 20
67.0
 30
0.0
 40
2.3
  1
ADSORB
 11
577.0
 21
67.0
 31
0.0
100
AcDbText
  0
TEXT
  5
18A
330
17
100
AcDbEntity
  8
TEXT
100
AcDbText
 10
637.0
 20
67.0
 30
0.0
 40
2.3
  1
COOL
 11
637.0
 21
67.0
 31
0.0
100
AcDbText
  0
TEXT
  5
18B
330
17
100
AcDbEntity
  8
TEXT
100
AcDbText
 10
695.0
 20
67.0
 30
0.0
 40
2.3
  1
30103B/30104B OPEN
 11
695.0
 21
67.0
 31
0.0
100
AcDbText
  0
TEXT
  5
18C
330
17
100
AcDbEntity
  8
TEXT
100
AcDbText
 10
511.0
 20
55.0
 30
0.0
 40
2.3
  1
4 SWITCH
 11
511.0
 21
55.0
 31
0.0
100
AcDbText
  0
TEXT
  5
18D
330
17
100
AcDbEntity
  8
TEXT
100
AcDbText
 10
577.0
 20
55.0
 30
0.0
 40
2.3
  1
DEPRESS
 11
577.0
 21
55.0
 31
0.0
100
AcDbText
  0
TEXT
  5
18E
330
17
100
AcDbEntity
  8
TEXT
100
AcDbText
 10
637.0
 20
55.0
 30
0.0
 40
2.3
  1
PRESS
 11
637.0
 21
55.0
 31
0.0
100
AcDbText
  0
TEXT
  5
18F
330
17
100
AcDbEntity
  8
TEXT
100
AcDbText
 10
695.0
 20
55.0
 30
0.0
 40
2.3
  1
30105A / 30106B
 11
695.0
 21
55.0
 31
0.0
100
AcDbText
  0
TEXT
  5
190
330
17
100
AcDbEntity
  8
TEXT
100
AcDbText
 10
55.0
 20
760.0
 30
0.0
 40
3.2
  1
LEGEND
 11
55.0
 21
760.0
 31
0.0
100
AcDbText
  0
LWPOLYLINE
  5
191
330
17
100
AcDbEntity
  8
PROCESS
370
60
100
AcDbPolyline
 90
2
 70
0
 10
55.0
 20
745.0
 10
100.0
 20
745.0
  0
TEXT
  5
192
330
17
100
AcDbEntity
  8
TEXT
100
AcDbText
 10
110.0
 20
742.0
 30
0.0
 40
2.4
  1
Process gas
 11
110.0
 21
742.0
 31
0.0
100
AcDbText
  0
LWPOLYLINE
  5
193
330
17
100
AcDbEntity
  8
REGEN
370
60
100
AcDbPolyline
 90
2
 70
0
 10
55.0
 20
730.0
 10
100.0
 20
730.0
  0
TEXT
  5
194
330
17
100
AcDbEntity
  8
TEXT
100
AcDbText
 10
110.0
 20
727.0
 30
0.0
 40
2.4
  1
Regeneration gas
 11
110.0
 21
727.0
 31
0.0
100
AcDbText
  0
LWPOLYLINE
  5
195
330
17
100
AcDbEntity
  8
FLARE_VENT
370
60
100
AcDbPolyline
 90
2
 70
0
 10
55.0
 20
715.0
 10
100.0
 20
715.0
  0
TEXT
  5
196
330
17
100
AcDbEntity
  8
TEXT
100
AcDbText
 10
110.0
 20
712.0
 30
0.0
 40
2.4
  1
Flare / vent
 11
110.0
 21
712.0
 31
0.0
100
AcDbText
  0
TEXT
  5
197
330
17
100
AcDbEntity
  8
TEXT
100
AcDbText
 10
55.0
 20
695.0
 30
0.0
 40
2.2
  1
SYMBOLS: XV shutdown valve, circle field/DCS instrument, triangle off-page connector
 11
55.0
 21
695.0
 31
0.0
100
AcDbText
  0
TEXT
  5
198
330
17
100
AcDbEntity
  8
TEXT
100
AcDbText
 10
55.0
 20
682.0
 30
0.0
 40
2.2
  1
ABBREVIATIONS: NC normally closed, CSC car-sealed closed, FO fail open, FC fail closed
 11
55.0
 21
682.0
 31
0.0
100
AcDbText
  0
LWPOLYLINE
  5
199
330
17
100
AcDbEntity
  8
TABLE
100
AcDbPolyline
 90
5
 70
0
 10
55.0
 20
128.0
 10
485.0
 20
128.0
 10
485.0
 20
38.0
 10
55.0
 20
38.0
 10
55.0
 20
128.0
  0
TEXT
  5
19A
330
17
100
AcDbEntity
  8
TEXT
100
AcDbText
 10
61.0
 20
116.0
 30
0.0
 40
3.5
  1
NOTES
 11
61.0
 21
116.0
 31
0.0
100
AcDbText
  0
TEXT
  5
19B
330
17
100
AcDbEntity
  8
TEXT
100
AcDbText
 10
63.0
 20
105.0
 30
0.0
 40
2.0
  1
1. All shutdown valves are remote actuated with ZSO/ZSC feedback to DCS.
 11
63.0
 21
105.0
 31
0.0
100
AcDbText
  0
TEXT
  5
19C
330
17
100
AcDbEntity
  8
TEXT
100
AcDbText
 10
63.0
 20
94.0
 30
0.0
 40
2.0
  1
2. DR-301A/B protected by PSV per relief study; PSV detail shown on U300-PID-302.
 11
63.0
 21
94.0
 31
0.0
100
AcDbText
  0
TEXT
  5
19D
330
17
100
AcDbEntity
  8
TEXT
100
AcDbText
 10
63.0
 20
83.0
 30
0.0
 40
2.0
  1
3. Manual bypass valve XV-30190 is normally closed and car-sealed closed.
 11
63.0
 21
83.0
 31
0.0
100
AcDbText
  0
TEXT
  5
19E
330
17
100
AcDbEntity
  8
TEXT
100
AcDbText
 10
63.0
 20
72.0
 30
0.0
 40
2.0
  1
4. Minimum 15 mm drafting separation maintained between parallel package headers.
 11
63.0
 21
72.0
 31
0.0
100
AcDbText
  0
TEXT
  5
19F
330
17
100
AcDbEntity
  8
TEXT
100
AcDbText
 10
63.0
 20
61.0
 30
0.0
 40
2.0
  1
5. Instrument signals are electric unless otherwise noted.
 11
63.0
 21
61.0
 31
0.0
100
AcDbText
  0
LWPOLYLINE
  5
1A0
330
17
100
AcDbEntity
  8
QA_OVERLAY
100
AcDbPolyline
 90
5
 70
0
 10
858.0
 20
100.0
 10
963.4
 20
100.0
 10
963.4
 20
105.0
 10
858.0
 20
105.0
 10
858.0
 20
100.0
  0
LWPOLYLINE
  5
1A1
330
17
100
AcDbEntity
  8
QA_OVERLAY
100
AcDbPolyline
 90
5
 70
0
 10
855.0
 20
77.0
 10
864.3
 20
77.0
 10
864.3
 20
79.5
 10
855.0
 20
79.5
 10
855.0
 20
77.0
  0
LWPOLYLINE
  5
1A2
330
17
100
AcDbEntity
  8
QA_OVERLAY
100
AcDbPolyline
 90
5
 70
0
 10
937.0
 20
77.0
 10
955.6
 20
77.0
 10
955.6
 20
79.5
 10
937.0
 20
79.5
 10
937.0
 20
77.0
  0
LWPOLYLINE
  5
1A3
330
17
100
AcDbEntity
  8
QA_OVERLAY
100
AcDbPolyline
 90
5
 70
0
 10
1060.0
 20
77.0
 10
1064.65
 20
77.0
 10
1064.65
 20
79.5
 10
1060.0
 20
79.5
 10
1060.0
 20
77.0
  0
LWPOLYLINE
  5
1A4
330
17
100
AcDbEntity
  8
QA_OVERLAY
100
AcDbPolyline
 90
5
 70
0
 10
1110.0
 20
77.0
 10
1111.55
 20
77.0
 10
1111.55
 20
79.5
 10
1110.0
 20
79.5
 10
1110.0
 20
77.0
  0
LWPOLYLINE
  5
1A5
330
17
100
AcDbEntity
  8
QA_OVERLAY
100
AcDbPolyline
 90
5
 70
0
 10
855.0
 20
53.0
 10
861.2
 20
53.0
 10
861.2
 20
55.5
 10
855.0
 20
55.5
 10
855.0
 20
53.0
  0
LWPOLYLINE
  5
1A6
330
17
100
AcDbEntity
  8
QA_OVERLAY
100
AcDbPolyline
 90
5
 70
0
 10
937.0
 20
53.0
 10
944.75
 20
53.0
 10
944.75
 20
55.5
 10
937.0
 20
55.5
 10
937.0
 20
53.0
  0
LWPOLYLINE
  5
1A7
330
17
100
AcDbEntity
  8
QA_OVERLAY
100
AcDbPolyline
 90
5
 70
0
 10
1060.0
 20
53.0
 10
1067.75
 20
53.0
 10
1067.75
 20
55.5
 10
1060.0
 20
55.5
 10
1060.0
 20
53.0
  0
LWPOLYLINE
  5
1A8
330
17
100
AcDbEntity
  8
QA_OVERLAY
100
AcDbPolyline
 90
5
 70
0
 10
1110.0
 20
53.0
 10
1114.65
 20
53.0
 10
1114.65
 20
55.5
 10
1110.0
 20
55.5
 10
1110.0
 20
53.0
  0
LWPOLYLINE
  5
1A9
330
17
100
AcDbEntity
  8
QA_OVERLAY
100
AcDbPolyline
 90
5
 70
0
 10
855.0
 20
30.0
 10
865.85
 20
30.0
 10
865.85
 20
32.5
 10
855.0
 20
32.5
 10
855.0
 20
30.0
  0
LWPOLYLINE
  5
1AA
330
17
100
AcDbEntity
  8
QA_OVERLAY
100
AcDbPolyline
 90
5
 70
0
 10
937.0
 20
30.0
 10
965.52
 20
30.0
 10
965.52
 20
32.0
 10
937.0
 20
32.0
 10
937.0
 20
30.0
  0
LWPOLYLINE
  5
1AB
330
17
100
AcDbEntity
  8
QA_OVERLAY
100
AcDbPolyline
 90
5
 70
0
 10
1110.0
 20
30.0
 10
1123.95
 20
30.0
 10
1123.95
 20
32.5
 10
1110.0
 20
32.5
 10
1110.0
 20
30.0
  0
LWPOLYLINE
  5
1AC
330
17
100
AcDbEntity
  8
QA_OVERLAY
100
AcDbPolyline
 90
5
 70
0
 10
414.0
 20
579.0
 10
425.16
 20
579.0
 10
425.16
 20
581.0
 10
414.0
 20
581.0
 10
414.0
 20
579.0
  0
LWPOLYLINE
  5
1AD
330
17
100
AcDbEntity
  8
QA_OVERLAY
100
AcDbPolyline
 90
5
 70
0
 10
415.0
 20
571.0
 10
426.16
 20
571.0
 10
426.16
 20
573.0
 10
415.0
 20
573.0
 10
415.0
 20
571.0
  0
LWPOLYLINE
  5
1AE
330
17
100
AcDbEntity
  8
QA_OVERLAY
100
AcDbPolyline
 90
5
 70
0
 10
415.0
 20
492.0
 10
430.19
 20
492.0
 10
430.19
 20
495.5
 10
415.0
 20
495.5
 10
415.0
 20
492.0
  0
LWPOLYLINE
  5
1AF
330
17
100
AcDbEntity
  8
QA_OVERLAY
100
AcDbPolyline
 90
5
 70
0
 10
408.0
 20
514.0
 10
452.0
 20
514.0
 10
452.0
 20
636.0
 10
408.0
 20
636.0
 10
408.0
 20
514.0
  0
LWPOLYLINE
  5
1B0
330
17
100
AcDbEntity
  8
QA_OVERLAY
100
AcDbPolyline
 90
5
 70
0
 10
414.0
 20
419.0
 10
425.16
 20
419.0
 10
425.16
 20
421.0
 10
414.0
 20
421.0
 10
414.0
 20
419.0
  0
LWPOLYLINE
  5
1B1
330
17
100
AcDbEntity
  8
QA_OVERLAY
100
AcDbPolyline
 90
5
 70
0
 10
415.0
 20
411.0
 10
426.16
 20
411.0
 10
426.16
 20
413.0
 10
415.0
 20
413.0
 10
415.0
 20
411.0
  0
LWPOLYLINE
  5
1B2
330
17
100
AcDbEntity
  8
QA_OVERLAY
100
AcDbPolyline
 90
5
 70
0
 10
415.0
 20
332.0
 10
430.19
 20
332.0
 10
430.19
 20
335.5
 10
415.0
 20
335.5
 10
415.0
 20
332.0
  0
LWPOLYLINE
  5
1B3
330
17
100
AcDbEntity
  8
QA_OVERLAY
100
AcDbPolyline
 90
5
 70
0
 10
408.0
 20
354.0
 10
452.0
 20
354.0
 10
452.0
 20
476.0
 10
408.0
 20
476.0
 10
408.0
 20
354.0
  0
LWPOLYLINE
  5
1B4
330
17
100
AcDbEntity
  8
QA_OVERLAY
100
AcDbPolyline
 90
5
 70
0
 10
241.475
 20
638.2
 10
255.115
 20
638.2
 10
255.115
 20
640.2
 10
241.475
 20
640.2
 10
241.475
 20
638.2
  0
LWPOLYLINE
  5
1B5
330
17
100
AcDbEntity
  8
QA_OVERLAY
100
AcDbPolyline
 90
5
 70
0
 10
244.0
 20
634.0
 10
256.0
 20
634.0
 10
256.0
 20
646.0
 10
244.0
 20
646.0
 10
244.0
 20
634.0
  0
LWPOLYLINE
  5
1B6
330
17
100
AcDbEntity
  8
QA_OVERLAY
100
AcDbPolyline
 90
5
 70
0
 10
242.25
 20
620.2
 10
254.65
 20
620.2
 10
254.65
 20
622.2
 10
242.25
 20
622.2
 10
242.25
 20
620.2
  0
LWPOLYLINE
  5
1B7
330
17
100
AcDbEntity
  8
QA_OVERLAY
100
AcDbPolyline
 90
5
 70
0
 10
244.0
 20
616.0
 10
256.0
 20
616.0
 10
256.0
 20
628.0
 10
244.0
 20
628.0
 10
244.0
 20
616.0
  0
LWPOLYLINE
  5
1B8
330
17
100
AcDbEntity
  8
QA_OVERLAY
100
AcDbPolyline
 90
5
 70
0
 10
242.25
 20
602.2
 10
254.65
 20
602.2
 10
254.65
 20
604.2
 10
242.25
 20
604.2
 10
242.25
 20
602.2
  0
LWPOLYLINE
  5
1B9
330
17
100
AcDbEntity
  8
QA_OVERLAY
100
AcDbPolyline
 90
5
 70
0
 10
244.0
 20
598.0
 10
256.0
 20
598.0
 10
256.0
 20
610.0
 10
244.0
 20
610.0
 10
244.0
 20
598.0
  0
LWPOLYLINE
  5
1BA
330
17
100
AcDbEntity
  8
QA_OVERLAY
100
AcDbPolyline
 90
5
 70
0
 10
241.475
 20
478.2
 10
255.115
 20
478.2
 10
255.115
 20
480.2
 10
241.475
 20
480.2
 10
241.475
 20
478.2
  0
LWPOLYLINE
  5
1BB
330
17
100
AcDbEntity
  8
QA_OVERLAY
100
AcDbPolyline
 90
5
 70
0
 10
244.0
 20
474.0
 10
256.0
 20
474.0
 10
256.0
 20
486.0
 10
244.0
 20
486.0
 10
244.0
 20
474.0
  0
LWPOLYLINE
  5
1BC
330
17
100
AcDbEntity
  8
QA_OVERLAY
100
AcDbPolyline
 90
5
 70
0
 10
242.25
 20
460.2
 10
254.65
 20
460.2
 10
254.65
 20
462.2
 10
242.25
 20
462.2
 10
242.25
 20
460.2
  0
LWPOLYLINE
  5
1BD
330
17
100
AcDbEntity
  8
QA_OVERLAY
100
AcDbPolyline
 90
5
 70
0
 10
244.0
 20
456.0
 10
256.0
 20
456.0
 10
256.0
 20
468.0
 10
244.0
 20
468.0
 10
244.0
 20
456.0
  0
LWPOLYLINE
  5
1BE
330
17
100
AcDbEntity
  8
QA_OVERLAY
100
AcDbPolyline
 90
5
 70
0
 10
242.25
 20
442.2
 10
254.65
 20
442.2
 10
254.65
 20
444.2
 10
242.25
 20
444.2
 10
242.25
 20
442.2
  0
LWPOLYLINE
  5
1BF
330
17
100
AcDbEntity
  8
QA_OVERLAY
100
AcDbPolyline
 90
5
 70
0
 10
244.0
 20
438.0
 10
256.0
 20
438.0
 10
256.0
 20
450.0
 10
244.0
 20
450.0
 10
244.0
 20
438.0
  0
LWPOLYLINE
  5
1C0
330
17
100
AcDbEntity
  8
QA_OVERLAY
100
AcDbPolyline
 90
5
 70
0
 10
57.0
 20
721.0
 10
80.25
 20
721.0
 10
80.25
 20
723.5
 10
57.0
 20
723.5
 10
57.0
 20
721.0
  0
LWPOLYLINE
  5
1C1
330
17
100
AcDbEntity
  8
QA_OVERLAY
100
AcDbPolyline
 90
5
 70
0
 10
57.0
 20
692.0
 10
71.88
 20
692.0
 10
71.88
 20
694.0
 10
57.0
 20
694.0
 10
57.0
 20
692.0
  0
LWPOLYLINE
  5
1C2
330
17
100
AcDbEntity
  8
QA_OVERLAY
100
AcDbPolyline
 90
5
 70
0
 10
31.0
 20
700.0
 10
79.0
 20
700.0
 10
79.0
 20
720.0
 10
31.0
 20
720.0
 10
31.0
 20
700.0
  0
LWPOLYLINE
  5
1C3
330
17
100
AcDbEntity
  8
QA_OVERLAY
100
AcDbPolyline
 90
5
 70
0
 10
132.0
 20
722.0
 10
161.45
 20
722.0
 10
161.45
 20
724.5
 10
132.0
 20
724.5
 10
132.0
 20
722.0
  0
LWPOLYLINE
  5
1C4
330
17
100
AcDbEntity
  8
QA_OVERLAY
100
AcDbPolyline
 90
5
 70
0
 10
1054.0
 20
686.0
 10
1077.25
 20
686.0
 10
1077.25
 20
688.5
 10
1054.0
 20
688.5
 10
1054.0
 20
686.0
  0
LWPOLYLINE
  5
1C5
330
17
100
AcDbEntity
  8
QA_OVERLAY
100
AcDbPolyline
 90
5
 70
0
 10
1054.0
 20
657.0
 10
1068.88
 20
657.0
 10
1068.88
 20
659.0
 10
1054.0
 20
659.0
 10
1054.0
 20
657.0
  0
LWPOLYLINE
  5
1C6
330
17
100
AcDbEntity
  8
QA_OVERLAY
100
AcDbPolyline
 90
5
 70
0
 10
1084.0
 20
665.0
 10
1132.0
 20
665.0
 10
1132.0
 20
685.0
 10
1084.0
 20
685.0
 10
1084.0
 20
665.0
  0
LWPOLYLINE
  5
1C7
330
17
100
AcDbEntity
  8
QA_OVERLAY
100
AcDbPolyline
 90
5
 70
0
 10
815.0
 20
687.0
 10
844.45
 20
687.0
 10
844.45
 20
689.5
 10
815.0
 20
689.5
 10
815.0
 20
687.0
  0
LWPOLYLINE
  5
1C8
330
17
100
AcDbEntity
  8
QA_OVERLAY
100
AcDbPolyline
 90
5
 70
0
 10
300.0
 20
634.0
 10
313.95
 20
634.0
 10
313.95
 20
636.5
 10
300.0
 20
636.5
 10
300.0
 20
634.0
  0
LWPOLYLINE
  5
1C9
330
17
100
AcDbEntity
  8
QA_OVERLAY
100
AcDbPolyline
 90
5
 70
0
 10
275.0
 20
634.0
 10
277.48
 20
634.0
 10
277.48
 20
636.0
 10
275.0
 20
636.0
 10
275.0
 20
634.0
  0
LWPOLYLINE
  5
1CA
330
17
100
AcDbEntity
  8
QA_OVERLAY
100
AcDbPolyline
 90
5
 70
0
 10
280.0
 20
624.0
 10
304.0
 20
624.0
 10
304.0
 20
656.0
 10
280.0
 20
656.0
 10
280.0
 20
624.0
  0
LWPOLYLINE
  5
1CB
330
17
100
AcDbEntity
  8
QA_OVERLAY
100
AcDbPolyline
 90
5
 70
0
 10
642.25
 20
657.2
 10
654.65
 20
657.2
 10
654.65
 20
659.2
 10
642.25
 20
659.2
 10
642.25
 20
657.2
  0
LWPOLYLINE
  5
1CC
330
17
100
AcDbEntity
  8
QA_OVERLAY
100
AcDbPolyline
 90
5
 70
0
 10
644.0
 20
653.0
 10
656.0
 20
653.0
 10
656.0
 20
665.0
 10
644.0
 20
665.0
 10
644.0
 20
653.0
  0
LWPOLYLINE
  5
1CD
330
17
100
AcDbEntity
  8
QA_OVERLAY
100
AcDbPolyline
 90
5
 70
0
 10
642.25
 20
639.2
 10
654.65
 20
639.2
 10
654.65
 20
641.2
 10
642.25
 20
641.2
 10
642.25
 20
639.2
  0
LWPOLYLINE
  5
1CE
330
17
100
AcDbEntity
  8
QA_OVERLAY
100
AcDbPolyline
 90
5
 70
0
 10
644.0
 20
635.0
 10
656.0
 20
635.0
 10
656.0
 20
647.0
 10
644.0
 20
647.0
 10
644.0
 20
635.0
  0
LWPOLYLINE
  5
1CF
330
17
100
AcDbEntity
  8
QA_OVERLAY
100
AcDbPolyline
 90
5
 70
0
 10
488.0
 20
522.0
 10
501.95
 20
522.0
 10
501.95
 20
524.5
 10
488.0
 20
524.5
 10
488.0
 20
522.0
  0
LWPOLYLINE
  5
1D0
330
17
100
AcDbEntity
  8
QA_OVERLAY
100
AcDbPolyline
 90
5
 70
0
 10
496.0
 20
503.5
 10
498.48
 20
503.5
 10
498.48
 20
505.5
 10
496.0
 20
505.5
 10
496.0
 20
503.5
  0
LWPOLYLINE
  5
1D1
330
17
100
AcDbEntity
  8
QA_OVERLAY
100
AcDbPolyline
 90
5
 70
0
 10
488.0
 20
502.0
 10
512.0
 20
502.0
 10
512.0
 20
534.0
 10
488.0
 20
534.0
 10
488.0
 20
502.0
  0
LWPOLYLINE
  5
1D2
330
17
100
AcDbEntity
  8
QA_OVERLAY
100
AcDbPolyline
 90
5
 70
0
 10
642.25
 20
621.2
 10
654.65
 20
621.2
 10
654.65
 20
623.2
 10
642.25
 20
623.2
 10
642.25
 20
621.2
  0
LWPOLYLINE
  5
1D3
330
17
100
AcDbEntity
  8
QA_OVERLAY
100
AcDbPolyline
 90
5
 70
0
 10
644.0
 20
617.0
 10
656.0
 20
617.0
 10
656.0
 20
629.0
 10
644.0
 20
629.0
 10
644.0
 20
617.0
  0
LWPOLYLINE
  5
1D4
330
17
100
AcDbEntity
  8
QA_OVERLAY
100
AcDbPolyline
 90
5
 70
0
 10
642.25
 20
603.2
 10
654.65
 20
603.2
 10
654.65
 20
605.2
 10
642.25
 20
605.2
 10
642.25
 20
603.2
  0
LWPOLYLINE
  5
1D5
330
17
100
AcDbEntity
  8
QA_OVERLAY
100
AcDbPolyline
 90
5
 70
0
 10
644.0
 20
599.0
 10
656.0
 20
599.0
 10
656.0
 20
611.0
 10
644.0
 20
611.0
 10
644.0
 20
599.0
  0
LWPOLYLINE
  5
1D6
330
17
100
AcDbEntity
  8
QA_OVERLAY
100
AcDbPolyline
 90
5
 70
0
 10
340.0
 20
474.0
 10
353.95
 20
474.0
 10
353.95
 20
476.5
 10
340.0
 20
476.5
 10
340.0
 20
474.0
  0
LWPOLYLINE
  5
1D7
330
17
100
AcDbEntity
  8
QA_OVERLAY
100
AcDbPolyline
 90
5
 70
0
 10
315.0
 20
474.0
 10
317.48
 20
474.0
 10
317.48
 20
476.0
 10
315.0
 20
476.0
 10
315.0
 20
474.0
  0
LWPOLYLINE
  5
1D8
330
17
100
AcDbEntity
  8
QA_OVERLAY
100
AcDbPolyline
 90
5
 70
0
 10
320.0
 20
464.0
 10
344.0
 20
464.0
 10
344.0
 20
496.0
 10
320.0
 20
496.0
 10
320.0
 20
464.0
  0
LWPOLYLINE
  5
1D9
330
17
100
AcDbEntity
  8
QA_OVERLAY
100
AcDbPolyline
 90
5
 70
0
 10
712.25
 20
497.2
 10
724.65
 20
497.2
 10
724.65
 20
499.2
 10
712.25
 20
499.2
 10
712.25
 20
497.2
  0
LWPOLYLINE
  5
1DA
330
17
100
AcDbEntity
  8
QA_OVERLAY
100
AcDbPolyline
 90
5
 70
0
 10
714.0
 20
493.0
 10
726.0
 20
493.0
 10
726.0
 20
505.0
 10
714.0
 20
505.0
 10
714.0
 20
493.0
  0
LWPOLYLINE
  5
1DB
330
17
100
AcDbEntity
  8
QA_OVERLAY
100
AcDbPolyline
 90
5
 70
0
 10
712.25
 20
479.2
 10
724.65
 20
479.2
 10
724.65
 20
481.2
 10
712.25
 20
481.2
 10
712.25
 20
479.2
  0
LWPOLYLINE
  5
1DC
330
17
100
AcDbEntity
  8
QA_OVERLAY
100
AcDbPolyline
 90
5
 70
0
 10
714.0
 20
475.0
 10
726.0
 20
475.0
 10
726.0
 20
487.0
 10
714.0
 20
487.0
 10
714.0
 20
475.0
  0
LWPOLYLINE
  5
1DD
330
17
100
AcDbEntity
  8
QA_OVERLAY
100
AcDbPolyline
 90
5
 70
0
 10
488.0
 20
362.0
 10
501.95
 20
362.0
 10
501.95
 20
364.5
 10
488.0
 20
364.5
 10
488.0
 20
362.0
  0
LWPOLYLINE
  5
1DE
330
17
100
AcDbEntity
  8
QA_OVERLAY
100
AcDbPolyline
 90
5
 70
0
 10
496.0
 20
343.5
 10
498.48
 20
343.5
 10
498.48
 20
345.5
 10
496.0
 20
345.5
 10
496.0
 20
343.5
  0
LWPOLYLINE
  5
1DF
330
17
100
AcDbEntity
  8
QA_OVERLAY
100
AcDbPolyline
 90
5
 70
0
 10
488.0
 20
342.0
 10
512.0
 20
342.0
 10
512.0
 20
374.0
 10
488.0
 20
374.0
 10
488.0
 20
342.0
  0
LWPOLYLINE
  5
1E0
330
17
100
AcDbEntity
  8
QA_OVERLAY
100
AcDbPolyline
 90
5
 70
0
 10
712.25
 20
461.2
 10
724.65
 20
461.2
 10
724.65
 20
463.2
 10
712.25
 20
463.2
 10
712.25
 20
461.2
  0
LWPOLYLINE
  5
1E1
330
17
100
AcDbEntity
  8
QA_OVERLAY
100
AcDbPolyline
 90
5
 70
0
 10
714.0
 20
457.0
 10
726.0
 20
457.0
 10
726.0
 20
469.0
 10
714.0
 20
469.0
 10
714.0
 20
457.0
  0
LWPOLYLINE
  5
1E2
330
17
100
AcDbEntity
  8
QA_OVERLAY
100
AcDbPolyline
 90
5
 70
0
 10
712.25
 20
443.2
 10
724.65
 20
443.2
 10
724.65
 20
445.2
 10
712.25
 20
445.2
 10
712.25
 20
443.2
  0
LWPOLYLINE
  5
1E3
330
17
100
AcDbEntity
  8
QA_OVERLAY
100
AcDbPolyline
 90
5
 70
0
 10
714.0
 20
439.0
 10
726.0
 20
439.0
 10
726.0
 20
451.0
 10
714.0
 20
451.0
 10
714.0
 20
439.0
  0
LWPOLYLINE
  5
1E4
330
17
100
AcDbEntity
  8
QA_OVERLAY
100
AcDbPolyline
 90
5
 70
0
 10
709.0
 20
673.0
 10
722.64
 20
673.0
 10
722.64
 20
675.0
 10
709.0
 20
675.0
 10
709.0
 20
673.0
  0
LWPOLYLINE
  5
1E5
330
17
100
AcDbEntity
  8
QA_OVERLAY
100
AcDbPolyline
 90
5
 70
0
 10
712.0
 20
697.0
 10
722.85
 20
697.0
 10
722.85
 20
700.5
 10
712.0
 20
700.5
 10
712.0
 20
697.0
  0
LWPOLYLINE
  5
1E6
330
17
100
AcDbEntity
  8
QA_OVERLAY
100
AcDbPolyline
 90
5
 70
0
 10
696.0
 20
661.0
 10
744.0
 20
661.0
 10
744.0
 20
689.0
 10
696.0
 20
689.0
 10
696.0
 20
661.0
  0
LWPOLYLINE
  5
1E7
330
17
100
AcDbEntity
  8
QA_OVERLAY
100
AcDbPolyline
 90
5
 70
0
 10
548.0
 20
743.0
 10
560.4
 20
743.0
 10
560.4
 20
745.5
 10
548.0
 20
745.5
 10
548.0
 20
743.0
  0
LWPOLYLINE
  5
1E8
330
17
100
AcDbEntity
  8
QA_OVERLAY
100
AcDbPolyline
 90
5
 70
0
 10
556.0
 20
724.5
 10
563.44
 20
724.5
 10
563.44
 20
726.5
 10
556.0
 20
726.5
 10
556.0
 20
724.5
  0
LWPOLYLINE
  5
1E9
330
17
100
AcDbEntity
  8
QA_OVERLAY
100
AcDbPolyline
 90
5
 70
0
 10
548.0
 20
723.0
 10
572.0
 20
723.0
 10
572.0
 20
755.0
 10
548.0
 20
755.0
 10
548.0
 20
723.0
  0
LWPOLYLINE
  5
1EA
330
17
100
AcDbEntity
  8
QA_OVERLAY
100
AcDbPolyline
 90
5
 70
0
 10
607.0
 20
746.0
 10
636.45
 20
746.0
 10
636.45
 20
748.5
 10
607.0
 20
748.5
 10
607.0
 20
746.0
  0
LWPOLYLINE
  5
1EB
330
17
100
AcDbEntity
  8
QA_OVERLAY
100
AcDbPolyline
 90
5
 70
0
 10
57.0
 20
296.0
 10
83.35
 20
296.0
 10
83.35
 20
298.5
 10
57.0
 20
298.5
 10
57.0
 20
296.0
  0
LWPOLYLINE
  5
1EC
330
17
100
AcDbEntity
  8
QA_OVERLAY
100
AcDbPolyline
 90
5
 70
0
 10
57.0
 20
267.0
 10
71.88
 20
267.0
 10
71.88
 20
269.0
 10
57.0
 20
269.0
 10
57.0
 20
267.0
  0
LWPOLYLINE
  5
1ED
330
17
100
AcDbEntity
  8
QA_OVERLAY
100
AcDbPolyline
 90
5
 70
0
 10
31.0
 20
275.0
 10
79.0
 20
275.0
 10
79.0
 20
295.0
 10
31.0
 20
295.0
 10
31.0
 20
275.0
  0
LWPOLYLINE
  5
1EE
330
17
100
AcDbEntity
  8
QA_OVERLAY
100
AcDbPolyline
 90
5
 70
0
 10
153.025
 20
313.2
 10
164.185
 20
313.2
 10
164.185
 20
315.2
 10
153.025
 20
315.2
 10
153.025
 20
313.2
  0
LWPOLYLINE
  5
1EF
330
17
100
AcDbEntity
  8
QA_OVERLAY
100
AcDbPolyline
 90
5
 70
0
 10
154.0
 20
309.0
 10
166.0
 20
309.0
 10
166.0
 20
321.0
 10
154.0
 20
321.0
 10
154.0
 20
309.0
  0
LWPOLYLINE
  5
1F0
330
17
100
AcDbEntity
  8
QA_OVERLAY
100
AcDbPolyline
 90
5
 70
0
 10
248.0
 20
283.0
 10
262.88
 20
283.0
 10
262.88
 20
285.0
 10
248.0
 20
285.0
 10
248.0
 20
283.0
  0
LWPOLYLINE
  5
1F1
330
17
100
AcDbEntity
  8
QA_OVERLAY
100
AcDbPolyline
 90
5
 70
0
 10
252.0
 20
311.0
 10
262.85
 20
311.0
 10
262.85
 20
314.5
 10
252.0
 20
314.5
 10
252.0
 20
311.0
  0
LWPOLYLINE
  5
1F2
330
17
100
AcDbEntity
  8
QA_OVERLAY
100
AcDbPolyline
 90
5
 70
0
 10
231.0
 20
267.0
 10
289.0
 20
267.0
 10
289.0
 20
303.0
 10
231.0
 20
303.0
 10
231.0
 20
267.0
  0
LWPOLYLINE
  5
1F3
330
17
100
AcDbEntity
  8
QA_OVERLAY
100
AcDbPolyline
 90
5
 70
0
 10
278.025
 20
333.2
 10
289.185
 20
333.2
 10
289.185
 20
335.2
 10
278.025
 20
335.2
 10
278.025
 20
333.2
  0
LWPOLYLINE
  5
1F4
330
17
100
AcDbEntity
  8
QA_OVERLAY
100
AcDbPolyline
 90
5
 70
0
 10
279.0
 20
329.0
 10
291.0
 20
329.0
 10
291.0
 20
341.0
 10
279.0
 20
341.0
 10
279.0
 20
329.0
  0
LWPOLYLINE
  5
1F5
330
17
100
AcDbEntity
  8
QA_OVERLAY
100
AcDbPolyline
 90
5
 70
0
 10
347.25
 20
333.2
 10
359.65
 20
333.2
 10
359.65
 20
335.2
 10
347.25
 20
335.2
 10
347.25
 20
333.2
  0
LWPOLYLINE
  5
1F6
330
17
100
AcDbEntity
  8
QA_OVERLAY
100
AcDbPolyline
 90
5
 70
0
 10
349.0
 20
329.0
 10
361.0
 20
329.0
 10
361.0
 20
341.0
 10
349.0
 20
341.0
 10
349.0
 20
329.0
  0
LWPOLYLINE
  5
1F7
330
17
100
AcDbEntity
  8
QA_OVERLAY
100
AcDbPolyline
 90
5
 70
0
 10
90.0
 20
298.0
 10
117.9
 20
298.0
 10
117.9
 20
300.5
 10
90.0
 20
300.5
 10
90.0
 20
298.0
  0
LWPOLYLINE
  5
1F8
330
17
100
AcDbEntity
  8
QA_OVERLAY
100
AcDbPolyline
 90
5
 70
0
 10
558.0
 20
561.0
 10
571.95
 20
561.0
 10
571.95
 20
563.5
 10
558.0
 20
563.5
 10
558.0
 20
561.0
  0
LWPOLYLINE
  5
1F9
330
17
100
AcDbEntity
  8
QA_OVERLAY
100
AcDbPolyline
 90
5
 70
0
 10
566.0
 20
542.5
 10
568.48
 20
542.5
 10
568.48
 20
544.5
 10
566.0
 20
544.5
 10
566.0
 20
542.5
  0
LWPOLYLINE
  5
1FA
330
17
100
AcDbEntity
  8
QA_OVERLAY
100
AcDbPolyline
 90
5
 70
0
 10
558.0
 20
541.0
 10
582.0
 20
541.0
 10
582.0
 20
573.0
 10
558.0
 20
573.0
 10
558.0
 20
541.0
  0
LWPOLYLINE
  5
1FB
330
17
100
AcDbEntity
  8
QA_OVERLAY
100
AcDbPolyline
 90
5
 70
0
 10
642.25
 20
585.2
 10
654.65
 20
585.2
 10
654.65
 20
587.2
 10
642.25
 20
587.2
 10
642.25
 20
585.2
  0
LWPOLYLINE
  5
1FC
330
17
100
AcDbEntity
  8
QA_OVERLAY
100
AcDbPolyline
 90
5
 70
0
 10
644.0
 20
581.0
 10
656.0
 20
581.0
 10
656.0
 20
593.0
 10
644.0
 20
593.0
 10
644.0
 20
581.0
  0
LWPOLYLINE
  5
1FD
330
17
100
AcDbEntity
  8
QA_OVERLAY
100
AcDbPolyline
 90
5
 70
0
 10
642.25
 20
567.2
 10
654.65
 20
567.2
 10
654.65
 20
569.2
 10
642.25
 20
569.2
 10
642.25
 20
567.2
  0
LWPOLYLINE
  5
1FE
330
17
100
AcDbEntity
  8
QA_OVERLAY
100
AcDbPolyline
 90
5
 70
0
 10
644.0
 20
563.0
 10
656.0
 20
563.0
 10
656.0
 20
575.0
 10
644.0
 20
575.0
 10
644.0
 20
563.0
  0
LWPOLYLINE
  5
1FF
330
17
100
AcDbEntity
  8
QA_OVERLAY
100
AcDbPolyline
 90
5
 70
0
 10
558.0
 20
401.0
 10
571.95
 20
401.0
 10
571.95
 20
403.5
 10
558.0
 20
403.5
 10
558.0
 20
401.0
  0
LWPOLYLINE
  5
200
330
17
100
AcDbEntity
  8
QA_OVERLAY
100
AcDbPolyline
 90
5
 70
0
 10
566.0
 20
382.5
 10
568.48
 20
382.5
 10
568.48
 20
384.5
 10
566.0
 20
384.5
 10
566.0
 20
382.5
  0
LWPOLYLINE
  5
201
330
17
100
AcDbEntity
  8
QA_OVERLAY
100
AcDbPolyline
 90
5
 70
0
 10
558.0
 20
381.0
 10
582.0
 20
381.0
 10
582.0
 20
413.0
 10
558.0
 20
413.0
 10
558.0
 20
381.0
  0
LWPOLYLINE
  5
202
330
17
100
AcDbEntity
  8
QA_OVERLAY
100
AcDbPolyline
 90
5
 70
0
 10
712.25
 20
425.2
 10
724.65
 20
425.2
 10
724.65
 20
427.2
 10
712.25
 20
427.2
 10
712.25
 20
425.2
  0
LWPOLYLINE
  5
203
330
17
100
AcDbEntity
  8
QA_OVERLAY
100
AcDbPolyline
 90
5
 70
0
 10
714.0
 20
421.0
 10
726.0
 20
421.0
 10
726.0
 20
433.0
 10
714.0
 20
433.0
 10
714.0
 20
421.0
  0
LWPOLYLINE
  5
204
330
17
100
AcDbEntity
  8
QA_OVERLAY
100
AcDbPolyline
 90
5
 70
0
 10
712.25
 20
407.2
 10
724.65
 20
407.2
 10
724.65
 20
409.2
 10
712.25
 20
409.2
 10
712.25
 20
407.2
  0
LWPOLYLINE
  5
205
330
17
100
AcDbEntity
  8
QA_OVERLAY
100
AcDbPolyline
 90
5
 70
0
 10
714.0
 20
403.0
 10
726.0
 20
403.0
 10
726.0
 20
415.0
 10
714.0
 20
415.0
 10
714.0
 20
403.0
  0
LWPOLYLINE
  5
206
330
17
100
AcDbEntity
  8
QA_OVERLAY
100
AcDbPolyline
 90
5
 70
0
 10
548.0
 20
605.0
 10
561.95
 20
605.0
 10
561.95
 20
607.5
 10
548.0
 20
607.5
 10
548.0
 20
605.0
  0
LWPOLYLINE
  5
207
330
17
100
AcDbEntity
  8
QA_OVERLAY
100
AcDbPolyline
 90
5
 70
0
 10
556.0
 20
586.5
 10
558.48
 20
586.5
 10
558.48
 20
588.5
 10
556.0
 20
588.5
 10
556.0
 20
586.5
  0
LWPOLYLINE
  5
208
330
17
100
AcDbEntity
  8
QA_OVERLAY
100
AcDbPolyline
 90
5
 70
0
 10
548.0
 20
585.0
 10
572.0
 20
585.0
 10
572.0
 20
617.0
 10
548.0
 20
617.0
 10
548.0
 20
585.0
  0
LWPOLYLINE
  5
209
330
17
100
AcDbEntity
  8
QA_OVERLAY
100
AcDbPolyline
 90
5
 70
0
 10
642.25
 20
549.2
 10
654.65
 20
549.2
 10
654.65
 20
551.2
 10
642.25
 20
551.2
 10
642.25
 20
549.2
  0
LWPOLYLINE
  5
20A
330
17
100
AcDbEntity
  8
QA_OVERLAY
100
AcDbPolyline
 90
5
 70
0
 10
644.0
 20
545.0
 10
656.0
 20
545.0
 10
656.0
 20
557.0
 10
644.0
 20
557.0
 10
644.0
 20
545.0
  0
LWPOLYLINE
  5
20B
330
17
100
AcDbEntity
  8
QA_OVERLAY
100
AcDbPolyline
 90
5
 70
0
 10
642.25
 20
531.2
 10
654.65
 20
531.2
 10
654.65
 20
533.2
 10
642.25
 20
533.2
 10
642.25
 20
531.2
  0
LWPOLYLINE
  5
20C
330
17
100
AcDbEntity
  8
QA_OVERLAY
100
AcDbPolyline
 90
5
 70
0
 10
644.0
 20
527.0
 10
656.0
 20
527.0
 10
656.0
 20
539.0
 10
644.0
 20
539.0
 10
644.0
 20
527.0
  0
LWPOLYLINE
  5
20D
330
17
100
AcDbEntity
  8
QA_OVERLAY
100
AcDbPolyline
 90
5
 70
0
 10
548.0
 20
445.0
 10
561.95
 20
445.0
 10
561.95
 20
447.5
 10
548.0
 20
447.5
 10
548.0
 20
445.0
  0
LWPOLYLINE
  5
20E
330
17
100
AcDbEntity
  8
QA_OVERLAY
100
AcDbPolyline
 90
5
 70
0
 10
556.0
 20
426.5
 10
558.48
 20
426.5
 10
558.48
 20
428.5
 10
556.0
 20
428.5
 10
556.0
 20
426.5
  0
LWPOLYLINE
  5
20F
330
17
100
AcDbEntity
  8
QA_OVERLAY
100
AcDbPolyline
 90
5
 70
0
 10
548.0
 20
425.0
 10
572.0
 20
425.0
 10
572.0
 20
457.0
 10
548.0
 20
457.0
 10
548.0
 20
425.0
  0
LWPOLYLINE
  5
210
330
17
100
AcDbEntity
  8
QA_OVERLAY
100
AcDbPolyline
 90
5
 70
0
 10
712.25
 20
389.2
 10
724.65
 20
389.2
 10
724.65
 20
391.2
 10
712.25
 20
391.2
 10
712.25
 20
389.2
  0
LWPOLYLINE
  5
211
330
17
100
AcDbEntity
  8
QA_OVERLAY
100
AcDbPolyline
 90
5
 70
0
 10
714.0
 20
385.0
 10
726.0
 20
385.0
 10
726.0
 20
397.0
 10
714.0
 20
397.0
 10
714.0
 20
385.0
  0
LWPOLYLINE
  5
212
330
17
100
AcDbEntity
  8
QA_OVERLAY
100
AcDbPolyline
 90
5
 70
0
 10
712.25
 20
371.2
 10
724.65
 20
371.2
 10
724.65
 20
373.2
 10
712.25
 20
373.2
 10
712.25
 20
371.2
  0
LWPOLYLINE
  5
213
330
17
100
AcDbEntity
  8
QA_OVERLAY
100
AcDbPolyline
 90
5
 70
0
 10
714.0
 20
367.0
 10
726.0
 20
367.0
 10
726.0
 20
379.0
 10
714.0
 20
379.0
 10
714.0
 20
367.0
  0
LWPOLYLINE
  5
214
330
17
100
AcDbEntity
  8
QA_OVERLAY
100
AcDbPolyline
 90
5
 70
0
 10
713.0
 20
243.0
 10
727.88
 20
243.0
 10
727.88
 20
245.0
 10
713.0
 20
245.0
 10
713.0
 20
243.0
  0
LWPOLYLINE
  5
215
330
17
100
AcDbEntity
  8
QA_OVERLAY
100
AcDbPolyline
 90
5
 70
0
 10
717.0
 20
269.0
 10
727.85
 20
269.0
 10
727.85
 20
272.5
 10
717.0
 20
272.5
 10
717.0
 20
269.0
  0
LWPOLYLINE
  5
216
330
17
100
AcDbEntity
  8
QA_OVERLAY
100
AcDbPolyline
 90
5
 70
0
 10
696.0
 20
229.0
 10
754.0
 20
229.0
 10
754.0
 20
261.0
 10
696.0
 20
261.0
 10
696.0
 20
229.0
  0
LWPOLYLINE
  5
217
330
17
100
AcDbEntity
  8
QA_OVERLAY
100
AcDbPolyline
 90
5
 70
0
 10
828.0
 20
243.0
 10
836.68
 20
243.0
 10
836.68
 20
245.0
 10
828.0
 20
245.0
 10
828.0
 20
243.0
  0
LWPOLYLINE
  5
218
330
17
100
AcDbEntity
  8
QA_OVERLAY
100
AcDbPolyline
 90
5
 70
0
 10
827.0
 20
282.0
 10
837.85
 20
282.0
 10
837.85
 20
285.5
 10
827.0
 20
285.5
 10
827.0
 20
282.0
  0
LWPOLYLINE
  5
219
330
17
100
AcDbEntity
  8
QA_OVERLAY
100
AcDbPolyline
 90
5
 70
0
 10
814.0
 20
216.0
 10
856.0
 20
216.0
 10
856.0
 20
274.0
 10
814.0
 20
274.0
 10
814.0
 20
216.0
  0
LWPOLYLINE
  5
21A
330
17
100
AcDbEntity
  8
QA_OVERLAY
100
AcDbPolyline
 90
5
 70
0
 10
760.0
 20
258.0
 10
787.9
 20
258.0
 10
787.9
 20
260.5
 10
760.0
 20
260.5
 10
760.0
 20
258.0
  0
LWPOLYLINE
  5
21B
330
17
100
AcDbEntity
  8
QA_OVERLAY
100
AcDbPolyline
 90
5
 70
0
 10
1034.0
 20
256.0
 10
1065.0
 20
256.0
 10
1065.0
 20
258.5
 10
1034.0
 20
258.5
 10
1034.0
 20
256.0
  0
LWPOLYLINE
  5
21C
330
17
100
AcDbEntity
  8
QA_OVERLAY
100
AcDbPolyline
 90
5
 70
0
 10
1034.0
 20
227.0
 10
1047.64
 20
227.0
 10
1047.64
 20
229.0
 10
1034.0
 20
229.0
 10
1034.0
 20
227.0
  0
LWPOLYLINE
  5
21D
330
17
100
AcDbEntity
  8
QA_OVERLAY
100
AcDbPolyline
 90
5
 70
0
 10
1064.0
 20
235.0
 10
1112.0
 20
235.0
 10
1112.0
 20
255.0
 10
1064.0
 20
255.0
 10
1064.0
 20
235.0
  0
LWPOLYLINE
  5
21E
330
17
100
AcDbEntity
  8
QA_OVERLAY
100
AcDbPolyline
 90
5
 70
0
 10
1034.0
 20
209.0
 10
1054.15
 20
209.0
 10
1054.15
 20
211.5
 10
1034.0
 20
211.5
 10
1034.0
 20
209.0
  0
LWPOLYLINE
  5
21F
330
17
100
AcDbEntity
  8
QA_OVERLAY
100
AcDbPolyline
 90
5
 70
0
 10
1034.0
 20
180.0
 10
1047.64
 20
180.0
 10
1047.64
 20
182.0
 10
1034.0
 20
182.0
 10
1034.0
 20
180.0
  0
LWPOLYLINE
  5
220
330
17
100
AcDbEntity
  8
QA_OVERLAY
100
AcDbPolyline
 90
5
 70
0
 10
1064.0
 20
188.0
 10
1112.0
 20
188.0
 10
1112.0
 20
208.0
 10
1064.0
 20
208.0
 10
1064.0
 20
188.0
  0
LWPOLYLINE
  5
221
330
17
100
AcDbEntity
  8
QA_OVERLAY
100
AcDbPolyline
 90
5
 70
0
 10
180.0
 20
210.0
 10
207.9
 20
210.0
 10
207.9
 20
212.5
 10
180.0
 20
212.5
 10
180.0
 20
210.0
  0
LWPOLYLINE
  5
222
330
17
100
AcDbEntity
  8
QA_OVERLAY
100
AcDbPolyline
 90
5
 70
0
 10
1034.0
 20
174.0
 10
1065.0
 20
174.0
 10
1065.0
 20
176.5
 10
1034.0
 20
176.5
 10
1034.0
 20
174.0
  0
LWPOLYLINE
  5
223
330
17
100
AcDbEntity
  8
QA_OVERLAY
100
AcDbPolyline
 90
5
 70
0
 10
1034.0
 20
145.0
 10
1047.64
 20
145.0
 10
1047.64
 20
147.0
 10
1034.0
 20
147.0
 10
1034.0
 20
145.0
  0
LWPOLYLINE
  5
224
330
17
100
AcDbEntity
  8
QA_OVERLAY
100
AcDbPolyline
 90
5
 70
0
 10
1064.0
 20
153.0
 10
1112.0
 20
153.0
 10
1112.0
 20
173.0
 10
1064.0
 20
173.0
 10
1064.0
 20
153.0
  0
LWPOLYLINE
  5
225
330
17
100
AcDbEntity
  8
QA_OVERLAY
100
AcDbPolyline
 90
5
 70
0
 10
180.0
 20
175.0
 10
207.9
 20
175.0
 10
207.9
 20
177.5
 10
180.0
 20
177.5
 10
180.0
 20
175.0
  0
LWPOLYLINE
  5
226
330
17
100
AcDbEntity
  8
QA_OVERLAY
100
AcDbPolyline
 90
5
 70
0
 10
1034.0
 20
139.0
 10
1060.35
 20
139.0
 10
1060.35
 20
141.5
 10
1034.0
 20
141.5
 10
1034.0
 20
139.0
  0
LWPOLYLINE
  5
227
330
17
100
AcDbEntity
  8
QA_OVERLAY
100
AcDbPolyline
 90
5
 70
0
 10
1034.0
 20
110.0
 10
1047.64
 20
110.0
 10
1047.64
 20
112.0
 10
1034.0
 20
112.0
 10
1034.0
 20
110.0
  0
LWPOLYLINE
  5
228
330
17
100
AcDbEntity
  8
QA_OVERLAY
100
AcDbPolyline
 90
5
 70
0
 10
1064.0
 20
118.0
 10
1112.0
 20
118.0
 10
1112.0
 20
138.0
 10
1064.0
 20
138.0
 10
1064.0
 20
118.0
  0
LWPOLYLINE
  5
229
330
17
100
AcDbEntity
  8
QA_OVERLAY
100
AcDbPolyline
 90
5
 70
0
 10
180.0
 20
140.0
 10
207.9
 20
140.0
 10
207.9
 20
142.5
 10
180.0
 20
142.5
 10
180.0
 20
140.0
  0
LWPOLYLINE
  5
22A
330
17
100
AcDbEntity
  8
QA_OVERLAY
100
AcDbPolyline
 90
5
 70
0
 10
373.0
 20
593.0
 10
386.95
 20
593.0
 10
386.95
 20
595.5
 10
373.0
 20
595.5
 10
373.0
 20
593.0
  0
LWPOLYLINE
  5
22B
330
17
100
AcDbEntity
  8
QA_OVERLAY
100
AcDbPolyline
 90
5
 70
0
 10
348.0
 20
593.0
 10
350.48
 20
593.0
 10
350.48
 20
595.0
 10
348.0
 20
595.0
 10
348.0
 20
593.0
  0
LWPOLYLINE
  5
22C
330
17
100
AcDbEntity
  8
QA_OVERLAY
100
AcDbPolyline
 90
5
 70
0
 10
353.0
 20
583.0
 10
377.0
 20
583.0
 10
377.0
 20
615.0
 10
353.0
 20
615.0
 10
353.0
 20
583.0
  0
LWPOLYLINE
  5
22D
330
17
100
AcDbEntity
  8
QA_OVERLAY
100
AcDbPolyline
 90
5
 70
0
 10
642.25
 20
513.2
 10
654.65
 20
513.2
 10
654.65
 20
515.2
 10
642.25
 20
515.2
 10
642.25
 20
513.2
  0
LWPOLYLINE
  5
22E
330
17
100
AcDbEntity
  8
QA_OVERLAY
100
AcDbPolyline
 90
5
 70
0
 10
644.0
 20
509.0
 10
656.0
 20
509.0
 10
656.0
 20
521.0
 10
644.0
 20
521.0
 10
644.0
 20
509.0
  0
LWPOLYLINE
  5
22F
330
17
100
AcDbEntity
  8
QA_OVERLAY
100
AcDbPolyline
 90
5
 70
0
 10
642.25
 20
495.2
 10
654.65
 20
495.2
 10
654.65
 20
497.2
 10
642.25
 20
497.2
 10
642.25
 20
495.2
  0
LWPOLYLINE
  5
230
330
17
100
AcDbEntity
  8
QA_OVERLAY
100
AcDbPolyline
 90
5
 70
0
 10
644.0
 20
491.0
 10
656.0
 20
491.0
 10
656.0
 20
503.0
 10
644.0
 20
503.0
 10
644.0
 20
491.0
  0
LWPOLYLINE
  5
231
330
17
100
AcDbEntity
  8
QA_OVERLAY
100
AcDbPolyline
 90
5
 70
0
 10
798.0
 20
581.0
 10
811.95
 20
581.0
 10
811.95
 20
583.5
 10
798.0
 20
583.5
 10
798.0
 20
581.0
  0
LWPOLYLINE
  5
232
330
17
100
AcDbEntity
  8
QA_OVERLAY
100
AcDbPolyline
 90
5
 70
0
 10
773.0
 20
581.0
 10
775.48
 20
581.0
 10
775.48
 20
583.0
 10
773.0
 20
583.0
 10
773.0
 20
581.0
  0
LWPOLYLINE
  5
233
330
17
100
AcDbEntity
  8
QA_OVERLAY
100
AcDbPolyline
 90
5
 70
0
 10
778.0
 20
571.0
 10
802.0
 20
571.0
 10
802.0
 20
603.0
 10
778.0
 20
603.0
 10
778.0
 20
571.0
  0
LWPOLYLINE
  5
234
330
17
100
AcDbEntity
  8
QA_OVERLAY
100
AcDbPolyline
 90
5
 70
0
 10
642.25
 20
477.2
 10
654.65
 20
477.2
 10
654.65
 20
479.2
 10
642.25
 20
479.2
 10
642.25
 20
477.2
  0
LWPOLYLINE
  5
235
330
17
100
AcDbEntity
  8
QA_OVERLAY
100
AcDbPolyline
 90
5
 70
0
 10
644.0
 20
473.0
 10
656.0
 20
473.0
 10
656.0
 20
485.0
 10
644.0
 20
485.0
 10
644.0
 20
473.0
  0
LWPOLYLINE
  5
236
330
17
100
AcDbEntity
  8
QA_OVERLAY
100
AcDbPolyline
 90
5
 70
0
 10
642.25
 20
459.2
 10
654.65
 20
459.2
 10
654.65
 20
461.2
 10
642.25
 20
461.2
 10
642.25
 20
459.2
  0
LWPOLYLINE
  5
237
330
17
100
AcDbEntity
  8
QA_OVERLAY
100
AcDbPolyline
 90
5
 70
0
 10
644.0
 20
455.0
 10
656.0
 20
455.0
 10
656.0
 20
467.0
 10
644.0
 20
467.0
 10
644.0
 20
455.0
  0
LWPOLYLINE
  5
238
330
17
100
AcDbEntity
  8
QA_OVERLAY
100
AcDbPolyline
 90
5
 70
0
 10
393.0
 20
433.0
 10
406.95
 20
433.0
 10
406.95
 20
435.5
 10
393.0
 20
435.5
 10
393.0
 20
433.0
  0
LWPOLYLINE
  5
239
330
17
100
AcDbEntity
  8
QA_OVERLAY
100
AcDbPolyline
 90
5
 70
0
 10
368.0
 20
433.0
 10
370.48
 20
433.0
 10
370.48
 20
435.0
 10
368.0
 20
435.0
 10
368.0
 20
433.0
  0
LWPOLYLINE
  5
23A
330
17
100
AcDbEntity
  8
QA_OVERLAY
100
AcDbPolyline
 90
5
 70
0
 10
373.0
 20
423.0
 10
397.0
 20
423.0
 10
397.0
 20
455.0
 10
373.0
 20
455.0
 10
373.0
 20
423.0
  0
LWPOLYLINE
  5
23B
330
17
100
AcDbEntity
  8
QA_OVERLAY
100
AcDbPolyline
 90
5
 70
0
 10
712.25
 20
353.2
 10
724.65
 20
353.2
 10
724.65
 20
355.2
 10
712.25
 20
355.2
 10
712.25
 20
353.2
  0
LWPOLYLINE
  5
23C
330
17
100
AcDbEntity
  8
QA_OVERLAY
100
AcDbPolyline
 90
5
 70
0
 10
714.0
 20
349.0
 10
726.0
 20
349.0
 10
726.0
 20
361.0
 10
714.0
 20
361.0
 10
714.0
 20
349.0
  0
LWPOLYLINE
  5
23D
330
17
100
AcDbEntity
  8
QA_OVERLAY
100
AcDbPolyline
 90
5
 70
0
 10
712.25
 20
335.2
 10
724.65
 20
335.2
 10
724.65
 20
337.2
 10
712.25
 20
337.2
 10
712.25
 20
335.2
  0
LWPOLYLINE
  5
23E
330
17
100
AcDbEntity
  8
QA_OVERLAY
100
AcDbPolyline
 90
5
 70
0
 10
714.0
 20
331.0
 10
726.0
 20
331.0
 10
726.0
 20
343.0
 10
714.0
 20
343.0
 10
714.0
 20
331.0
  0
LWPOLYLINE
  5
23F
330
17
100
AcDbEntity
  8
QA_OVERLAY
100
AcDbPolyline
 90
5
 70
0
 10
828.0
 20
421.0
 10
841.95
 20
421.0
 10
841.95
 20
423.5
 10
828.0
 20
423.5
 10
828.0
 20
421.0
  0
LWPOLYLINE
  5
240
330
17
100
AcDbEntity
  8
QA_OVERLAY
100
AcDbPolyline
 90
5
 70
0
 10
803.0
 20
421.0
 10
805.48
 20
421.0
 10
805.48
 20
423.0
 10
803.0
 20
423.0
 10
803.0
 20
421.0
  0
LWPOLYLINE
  5
241
330
17
100
AcDbEntity
  8
QA_OVERLAY
100
AcDbPolyline
 90
5
 70
0
 10
808.0
 20
411.0
 10
832.0
 20
411.0
 10
832.0
 20
443.0
 10
808.0
 20
443.0
 10
808.0
 20
411.0
  0
LWPOLYLINE
  5
242
330
17
100
AcDbEntity
  8
QA_OVERLAY
100
AcDbPolyline
 90
5
 70
0
 10
712.25
 20
317.2
 10
724.65
 20
317.2
 10
724.65
 20
319.2
 10
712.25
 20
319.2
 10
712.25
 20
317.2
  0
LWPOLYLINE
  5
243
330
17
100
AcDbEntity
  8
QA_OVERLAY
100
AcDbPolyline
 90
5
 70
0
 10
714.0
 20
313.0
 10
726.0
 20
313.0
 10
726.0
 20
325.0
 10
714.0
 20
325.0
 10
714.0
 20
313.0
  0
LWPOLYLINE
  5
244
330
17
100
AcDbEntity
  8
QA_OVERLAY
100
AcDbPolyline
 90
5
 70
0
 10
712.25
 20
299.2
 10
724.65
 20
299.2
 10
724.65
 20
301.2
 10
712.25
 20
301.2
 10
712.25
 20
299.2
  0
LWPOLYLINE
  5
245
330
17
100
AcDbEntity
  8
QA_OVERLAY
100
AcDbPolyline
 90
5
 70
0
 10
714.0
 20
295.0
 10
726.0
 20
295.0
 10
726.0
 20
307.0
 10
714.0
 20
307.0
 10
714.0
 20
295.0
  0
LWPOLYLINE
  5
246
330
17
100
AcDbEntity
  8
QA_OVERLAY
100
AcDbPolyline
 90
5
 70
0
 10
835.0
 20
615.0
 10
862.9
 20
615.0
 10
862.9
 20
617.5
 10
835.0
 20
617.5
 10
835.0
 20
615.0
  0
LWPOLYLINE
  5
247
330
17
100
AcDbEntity
  8
QA_OVERLAY
100
AcDbPolyline
 90
5
 70
0
 10
963.0
 20
618.0
 10
977.88
 20
618.0
 10
977.88
 20
620.0
 10
963.0
 20
620.0
 10
963.0
 20
618.0
  0
LWPOLYLINE
  5
248
330
17
100
AcDbEntity
  8
QA_OVERLAY
100
AcDbPolyline
 90
5
 70
0
 10
967.0
 20
642.0
 10
984.36
 20
642.0
 10
984.36
 20
645.5
 10
967.0
 20
645.5
 10
967.0
 20
642.0
  0
LWPOLYLINE
  5
249
330
17
100
AcDbEntity
  8
QA_OVERLAY
100
AcDbPolyline
 90
5
 70
0
 10
949.0
 20
606.0
 10
1001.0
 20
606.0
 10
1001.0
 20
634.0
 10
949.0
 20
634.0
 10
949.0
 20
606.0
  0
LWPOLYLINE
  5
24A
330
17
100
AcDbEntity
  8
QA_OVERLAY
100
AcDbPolyline
 90
5
 70
0
 10
1048.025
 20
618.2
 10
1059.1850000000002
 20
618.2
 10
1059.1850000000002
 20
620.2
 10
1048.025
 20
620.2
 10
1048.025
 20
618.2
  0
LWPOLYLINE
  5
24B
330
17
100
AcDbEntity
  8
QA_OVERLAY
100
AcDbPolyline
 90
5
 70
0
 10
1049.0
 20
614.0
 10
1061.0
 20
614.0
 10
1061.0
 20
626.0
 10
1049.0
 20
626.0
 10
1049.0
 20
614.0
  0
LWPOLYLINE
  5
24C
330
17
100
AcDbEntity
  8
QA_OVERLAY
100
AcDbPolyline
 90
5
 70
0
 10
1048.025
 20
583.2
 10
1059.1850000000002
 20
583.2
 10
1059.1850000000002
 20
585.2
 10
1048.025
 20
585.2
 10
1048.025
 20
583.2
  0
LWPOLYLINE
  5
24D
330
17
100
AcDbEntity
  8
QA_OVERLAY
100
AcDbPolyline
 90
5
 70
0
 10
1049.0
 20
579.0
 10
1061.0
 20
579.0
 10
1061.0
 20
591.0
 10
1049.0
 20
591.0
 10
1049.0
 20
579.0
  0
LWPOLYLINE
  5
24E
330
17
100
AcDbEntity
  8
QA_OVERLAY
100
AcDbPolyline
 90
5
 70
0
 10
61.0
 20
116.0
 10
71.85
 20
116.0
 10
71.85
 20
119.5
 10
61.0
 20
119.5
 10
61.0
 20
116.0
  0
LWPOLYLINE
  5
24F
330
17
100
AcDbEntity
  8
QA_OVERLAY
100
AcDbPolyline
 90
5
 70
0
 10
63.0
 20
105.0
 10
152.28
 20
105.0
 10
152.28
 20
107.0
 10
63.0
 20
107.0
 10
63.0
 20
105.0
  0
LWPOLYLINE
  5
250
330
17
100
AcDbEntity
  8
QA_OVERLAY
100
AcDbPolyline
 90
5
 70
0
 10
63.0
 20
94.0
 10
163.44
 20
94.0
 10
163.44
 20
96.0
 10
63.0
 20
96.0
 10
63.0
 20
94.0
  0
LWPOLYLINE
  5
251
330
17
100
AcDbEntity
  8
QA_OVERLAY
100
AcDbPolyline
 90
5
 70
0
 10
63.0
 20
83.0
 10
153.51999999999998
 20
83.0
 10
153.51999999999998
 20
85.0
 10
63.0
 20
85.0
 10
63.0
 20
83.0
  0
LWPOLYLINE
  5
252
330
17
100
AcDbEntity
  8
QA_OVERLAY
100
AcDbPolyline
 90
5
 70
0
 10
63.0
 20
72.0
 10
163.44
 20
72.0
 10
163.44
 20
74.0
 10
63.0
 20
74.0
 10
63.0
 20
72.0
  0
LWPOLYLINE
  5
253
330
17
100
AcDbEntity
  8
QA_OVERLAY
100
AcDbPolyline
 90
5
 70
0
 10
63.0
 20
61.0
 10
134.92000000000002
 20
61.0
 10
134.92000000000002
 20
63.0
 10
63.0
 20
63.0
 10
63.0
 20
61.0
  0
ENDSEC
  0
SECTION
  2
OBJECTS
  0
DICTIONARY
  5
A
330
0
100
AcDbDictionary
281
1
  3
ACAD_COLOR
350
B
  3
ACAD_GROUP
350
C
  3
ACAD_LAYOUT
350
D
  3
ACAD_MATERIAL
350
E
  3
ACAD_MLEADERSTYLE
350
F
  3
ACAD_MLINESTYLE
350
10
  3
ACAD_PLOTSETTINGS
350
11
  3
ACAD_PLOTSTYLENAME
350
12
  3
ACAD_SCALELIST
350
14
  3
ACAD_TABLESTYLE
350
15
  3
ACAD_VISUALSTYLE
350
16
  3
EZDXF_META
350
2D
  0
DICTIONARY
  5
B
330
A
100
AcDbDictionary
281
1
  0
DICTIONARY
  5
C
330
A
100
AcDbDictionary
281
1
  0
DICTIONARY
  5
D
330
A
100
AcDbDictionary
281
1
  3
Model
350
1A
  3
Layout1
350
1E
  0
DICTIONARY
  5
E
330
A
100
AcDbDictionary
281
1
  3
ByBlock
350
1F
  3
ByLayer
350
20
  3
Global
350
21
  0
DICTIONARY
  5
F
330
A
100
AcDbDictionary
281
1
  3
Standard
350
2C
  0
DICTIONARY
  5
10
330
A
100
AcDbDictionary
281
1
  3
Standard
350
22
  0
DICTIONARY
  5
11
330
A
100
AcDbDictionary
281
1
  0
ACDBDICTIONARYWDFLT
  5
12
330
A
100
AcDbDictionary
281
1
  3
Normal
350
13
100
AcDbDictionaryWithDefault
340
13
  0
ACDBPLACEHOLDER
  5
13
330
12
  0
DICTIONARY
  5
14
330
A
100
AcDbDictionary
281
1
  0
DICTIONARY
  5
15
330
A
100
AcDbDictionary
281
1
  0
DICTIONARY
  5
16
330
A
100
AcDbDictionary
281
1
  0
LAYOUT
  5
1A
330
D
100
AcDbPlotSettings
  1

  4
A3
  6

 40
7.5
 41
20.0
 42
7.5
 43
20.0
 44
420.0
 45
297.0
 46
0.0
 47
0.0
 48
0.0
 49
0.0
140
0.0
141
0.0
142
1.0
143
1.0
 70
1024
 72
1
 73
0
 74
5
  7

 75
16
 76
0
 77
2
 78
300
147
1.0
148
0.0
149
0.0
100
AcDbLayout
  1
Model
 70
1
 71
0
 10
0.0
 20
0.0
 11
420.0
 21
297.0
 12
0.0
 22
0.0
 32
0.0
 14
1e+20
 24
1e+20
 34
1e+20
 15
-1e+20
 25
-1e+20
 35
-1e+20
146
0.0
 13
0.0
 23
0.0
 33
0.0
 16
1.0
 26
0.0
 36
0.0
 17
0.0
 27
1.0
 37
0.0
 76
1
330
17
  0
LAYOUT
  5
1E
330
D
100
AcDbPlotSettings
  1

  4
A3
  6

 40
7.5
 41
20.0
 42
7.5
 43
20.0
 44
420.0
 45
297.0
 46
0.0
 47
0.0
 48
0.0
 49
0.0
140
0.0
141
0.0
142
1.0
143
1.0
 70
0
 72
1
 73
0
 74
5
  7

 75
16
 76
0
 77
2
 78
300
147
1.0
148
0.0
149
0.0
100
AcDbLayout
  1
Layout1
 70
1
 71
1
 10
0.0
 20
0.0
 11
420.0
 21
297.0
 12
0.0
 22
0.0
 32
0.0
 14
1e+20
 24
1e+20
 34
1e+20
 15
-1e+20
 25
-1e+20
 35
-1e+20
146
0.0
 13
0.0
 23
0.0
 33
0.0
 16
1.0
 26
0.0
 36
0.0
 17
0.0
 27
1.0
 37
0.0
 76
1
330
1B
  0
MATERIAL
  5
1F
102
{ACAD_REACTORS
330
E
102
}
330
E
100
AcDbMaterial
  1
ByBlock
  2

 70
0
 40
1.0
 71
1
 41
1.0
 91
-1023410177
 42
1.0
 72
1
  3

 73
1
 74
1
 75
1
 44
0.5
 73
0
 45
1.0
 46
1.0
 77
1
  4

 78
1
 79
1
170
1
 48
1.0
171
1
  6

172
1
173
1
174
1
140
1.0
141
1.0
175
1
  7

176
1
177
1
178
1
143
1.0
179
1
  8

270
1
271
1
272
1
145
1.0
146
1.0
273
1
  9

274
1
275
1
276
1
 42
1.0
 72
1
  3

 73
1
 74
1
 75
1
 94
63
  0
MATERIAL
  5
20
102
{ACAD_REACTORS
330
E
102
}
330
E
100
AcDbMaterial
  1
ByLayer
  2

 70
0
 40
1.0
 71
1
 41
1.0
 91
-1023410177
 42
1.0
 72
1
  3

 73
1
 74
1
 75
1
 44
0.5
 73
0
 45
1.0
 46
1.0
 77
1
  4

 78
1
 79
1
170
1
 48
1.0
171
1
  6

172
1
173
1
174
1
140
1.0
141
1.0
175
1
  7

176
1
177
1
178
1
143
1.0
179
1
  8

270
1
271
1
272
1
145
1.0
146
1.0
273
1
  9

274
1
275
1
276
1
 42
1.0
 72
1
  3

 73
1
 74
1
 75
1
 94
63
  0
MATERIAL
  5
21
102
{ACAD_REACTORS
330
E
102
}
330
E
100
AcDbMaterial
  1
Global
  2

 70
0
 40
1.0
 71
1
 41
1.0
 91
-1023410177
 42
1.0
 72
1
  3

 73
1
 74
1
 75
1
 44
0.5
 73
0
 45
1.0
 46
1.0
 77
1
  4

 78
1
 79
1
170
1
 48
1.0
171
1
  6

172
1
173
1
174
1
140
1.0
141
1.0
175
1
  7

176
1
177
1
178
1
143
1.0
179
1
  8

270
1
271
1
272
1
145
1.0
146
1.0
273
1
  9

274
1
275
1
276
1
 42
1.0
 72
1
  3

 73
1
 74
1
 75
1
 94
63
  0
MLINESTYLE
  5
22
102
{ACAD_REACTORS
330
10
102
}
330
10
100
AcDbMlineStyle
  2
Standard
 70
0
  3

 62
256
 51
90.0
 52
90.0
 71
2
 49
0.5
 62
256
  6
BYLAYER
 49
-0.5
 62
256
  6
BYLAYER
  0
MLEADERSTYLE
  5
2C
102
{ACAD_REACTORS
330
F
102
}
330
F
100
AcDbMLeaderStyle
179
2
170
2
171
1
172
0
 90
2
 40
0.0
 41
0.0
173
1
 91
-1056964608
 92
-2
290
1
 42
2.0
291
1
 43
8.0
  3
Standard
 44
4.0
300

342
29
174
1
175
1
176
0
178
1
 93
-1056964608
 45
4.0
292
0
297
0
 46
4.0
 94
-1056964608
 47
1.0
 49
1.0
140
1.0
294
1
141
0.0
177
0
142
1.0
295
0
296
0
143
3.75
271
0
272
9
273
9
  0
DICTIONARY
  5
2D
330
A
100
AcDbDictionary
280
1
281
1
  3
CREATED_BY_EZDXF
350
2E
  3
WRITTEN_BY_EZDXF
350
256
  0
DICTIONARYVAR
  5
2E
330
2D
100
DictionaryVariables
280
0
  1
1.4.3 @ 2026-05-03T14:19:40.409072+00:00
  0
DICTIONARYVAR
  5
256
330
2D
100
DictionaryVariables
280
0
  1
1.4.3 @ 2026-05-03T14:19:40.422394+00:00
  0
ENDSEC
  0
EOF
