0
SECTION
2
HEADER
9
$MEASUREMENT
70
1
0
ENDSEC
0
SECTION
2
TABLES
0
TABLE
2
LTYPE
0
LTYPE
72
65
70
64
2
CONTINUOUS
3
______
73
0
40
0
0
ENDTAB
0
TABLE
2
LAYER
0
LAYER
2
DEFAULT_255_2_778
70
0
62
255
6
CONTINUOUS
0
ENDTAB
0
ENDSEC
0
SECTION
2
ENTITIES
0
LINE
8
DEFAULT_255_2_778
10
2.7781169
20
-2.7782
11
16.0073169
21
-2.7782
0
LINE
8
DEFAULT_255_2_778
10
6.7468667
20
-1.98445
11
12.0385667
21
-1.98445
0
LINE
8
DEFAULT_255_2_778
10
12.0385667
20
-1.98445
11
12.0385667
21
-3.57195
0
LINE
8
DEFAULT_255_2_778
10
12.0385667
20
-3.57195
11
6.7468667
21
-3.57195
0
LINE
8
DEFAULT_255_2_778
10
6.7468667
20
-3.57195
11
6.7468667
21
-1.98445
0
LINE
8
DEFAULT_255_2_778
10
7.2760334
20
-1.4552834
11
11.5093334
21
-1.4552834
0
LINE
8
DEFAULT_255_2_778
10
11.5093334
20
-1.4552834
11
11.5093334
21
-4.1010834
0
LINE
8
DEFAULT_255_2_778
10
11.5093334
20
-4.1010834
11
7.2760334
21
-4.1010834
0
LINE
8
DEFAULT_255_2_778
10
7.2760334
20
-4.1010834
11
7.2760334
21
-1.4552834
0
ARC
8
DEFAULT_255_2_778
10
9.1991899
20
-2.6225887
40
0.8363552
50
282.2634346
51
295.1606334
0
ARC
8
DEFAULT_255_2_778
10
9.2645168
20
-2.7614136
40
0.682928
50
295.1517238
51
313.9189403
0
ARC
8
DEFAULT_255_2_778
10
9.2065318
20
-2.7310165
40
0.7453314
50
315.5091167
51
1.5983481
0
ARC
8
DEFAULT_255_2_778
10
8.9814341
20
-2.7102271
40
0.9701391
50
0
51
0.1040559
0
ARC
8
DEFAULT_255_2_778
10
9.0153598
20
-2.7089955
40
0.9362119
50
0.0324583
51
29.0593249
0
ARC
8
DEFAULT_255_2_778
10
9.2597958
20
-2.5683519
40
0.654247
50
28.6903864
51
55.1799727
0
ARC
8
DEFAULT_255_2_778
10
9.3756001
20
-2.4083042
40
0.4567464
50
55.6418807
51
89.844791
0
ARC
8
DEFAULT_255_2_778
10
9.2706023
20
-2.8778741
40
0.4295369
50
285.8111861
51
315.8491484
0
ARC
8
DEFAULT_255_2_778
10
9.1578032
20
-2.7881976
40
0.5731119
50
317.2715689
51
348.4330484
0
ARC
8
DEFAULT_255_2_778
10
8.8661455
20
-2.7107623
40
0.8745458
50
347.2942223
51
0.2149827
0
ARC
8
DEFAULT_255_2_778
10
8.9048125
20
-2.7073629
40
0.8358728
50
359.9919097
51
0.0889937
0
ARC
8
DEFAULT_255_2_778
10
8.7901685
20
-2.7050102
40
0.9505163
50
359.9364454
51
19.9025968
0
ARC
8
DEFAULT_255_2_778
10
9.1064433
20
-2.5879061
40
0.6132718
50
19.6743703
51
37.220135
0
ARC
8
DEFAULT_255_2_778
10
9.3461573
20
-2.4000329
40
0.3087772
50
36.3649323
51
67.7123143
0
ARC
8
DEFAULT_255_2_778
10
9.3875495
20
-2.3156781
40
0.2151185
50
69.3925652
51
89.9765968
0
LINE
8
DEFAULT_255_2_778
10
9.3768374
20
-1.9515594
11
8.8476374
21
-1.9515594
0
LINE
8
DEFAULT_255_2_778
10
8.8476374
20
-1.9515594
11
8.8476374
21
-3.4398594
0
LINE
8
DEFAULT_255_2_778
10
8.8476374
20
-3.4398594
11
9.3768374
21
-3.4398594
0
LINE
8
DEFAULT_255_2_778
10
9.3876374
20
-2.1005594
11
9.0627374
21
-2.1005594
0
LINE
8
DEFAULT_255_2_778
10
9.0627374
20
-2.1005594
11
9.0627374
21
-3.2911594
0
LINE
8
DEFAULT_255_2_778
10
9.0627374
20
-3.2911594
11
9.3876374
21
-3.2911594
0
ENDSEC
0
EOF