0
SECTION
2
HEADER
9
$MEASUREMENT
70
1
0
ENDSEC
0
SECTION
2
TABLES
0
TABLE
2
LTYPE
0
LTYPE
72
65
70
64
2
CONTINUOUS
3
______
73
0
40
0
0
ENDTAB
0
TABLE
2
LAYER
0
LAYER
2
DEFAULT_255_2_778
70
0
62
255
6
CONTINUOUS
0
ENDTAB
0
ENDSEC
0
SECTION
2
ENTITIES
0
LINE
8
DEFAULT_255_2_778
10
2.7781169
20
-2.7782
11
16.0073169
21
-2.7782
0
LINE
8
DEFAULT_255_2_778
10
6.7468667
20
-1.98445
11
12.0385667
21
-1.98445
0
LINE
8
DEFAULT_255_2_778
10
12.0385667
20
-1.98445
11
12.0385667
21
-3.57195
0
LINE
8
DEFAULT_255_2_778
10
12.0385667
20
-3.57195
11
6.7468667
21
-3.57195
0
LINE
8
DEFAULT_255_2_778
10
6.7468667
20
-3.57195
11
6.7468667
21
-1.98445
0
LINE
8
DEFAULT_255_2_778
10
7.2760334
20
-1.4552834
11
11.5093334
21
-1.4552834
0
LINE
8
DEFAULT_255_2_778
10
11.5093334
20
-1.4552834
11
11.5093334
21
-4.1010834
0
LINE
8
DEFAULT_255_2_778
10
11.5093334
20
-4.1010834
11
7.2760334
21
-4.1010834
0
LINE
8
DEFAULT_255_2_778
10
7.2760334
20
-4.1010834
11
7.2760334
21
-1.4552834
0
ARC
8
DEFAULT_255_2_778
10
9.7607423
20
-1.445246
40
1.4119491
50
245.4520373
51
254.4812826
0
ARC
8
DEFAULT_255_2_778
10
9.4377454
20
-2.1384536
40
0.6472332
50
229.2624388
51
245.9660095
0
ARC
8
DEFAULT_255_2_778
10
9.2993587
20
-2.3132077
40
0.4246097
50
227.3119917
51
228.0226566
0
ARC
8
DEFAULT_255_2_778
10
9.2397961
20
-2.367247
40
0.344578
50
178.9977523
51
228.4997826
0
ARC
8
DEFAULT_255_2_778
10
9.2587908
20
-2.3556784
40
0.3635622
50
127.5193376
51
180.8733339
0
ARC
8
DEFAULT_255_2_778
10
9.3657859
20
-2.4838445
40
0.5304236
50
93.7436328
51
128.2545403
0
ARC
8
DEFAULT_255_2_778
10
9.4056015
20
-2.7599738
40
0.8088547
50
89.9171654
51
95.2810561
0
ARC
8
DEFAULT_255_2_778
10
9.4177939
20
-2.5664984
40
0.6154773
50
64.4476831
51
91.0262106
0
ARC
8
DEFAULT_255_2_778
10
9.4881648
20
-2.4229094
40
0.4555817
50
32.7397622
51
64.6430098
0
ARC
8
DEFAULT_255_2_778
10
9.5151889
20
-2.4043056
40
0.4227906
50
359.6321713
51
32.5997635
0
ARC
8
DEFAULT_255_2_778
10
9.4649108
20
-2.3928539
40
0.2740264
50
357.036745
51
47.0073035
0
ARC
8
DEFAULT_255_2_778
10
9.4431467
20
-2.4399816
40
0.323745
50
49.8786352
51
87.1855925
0
ARC
8
DEFAULT_255_2_778
10
9.4077581
20
-2.6852476
40
0.5709287
50
84.8463458
51
90.0990726
0
ARC
8
DEFAULT_255_2_778
10
9.394098
20
-2.5366929
40
0.4225632
50
88.2814155
51
112.8639148
0
ARC
8
DEFAULT_255_2_778
10
9.3364186
20
-2.3814614
40
0.257217
50
114.4605285
51
128.0535245
0
ARC
8
DEFAULT_255_2_778
10
9.3106246
20
-2.3483984
40
0.2152824
50
128.0718375
51
182.6414496
0
ARC
8
DEFAULT_255_2_778
10
9.2891908
20
-2.3585368
40
0.1936201
50
179.9357859
51
233.370928
0
ARC
8
DEFAULT_255_2_778
10
9.4623211
20
-2.1365278
40
0.4751249
50
232.5892413
51
248.4080291
0
ARC
8
DEFAULT_255_2_778
10
9.7742648
20
-1.3979547
40
1.276795
50
247.58844
51
254.7892053
0
ARC
8
DEFAULT_255_2_778
10
9.0131285
20
-4.1913484
40
1.6184389
50
67.4720256
51
74.733764
0
ARC
8
DEFAULT_255_2_778
10
9.3216266
20
-3.4427808
40
0.8087983
50
59.4549236
51
67.3413511
0
ARC
8
DEFAULT_255_2_778
10
9.5144208
20
-3.1348729
40
0.4457402
50
32.6154538
51
60.6833915
0
ARC
8
DEFAULT_255_2_778
10
9.5623153
20
-3.0848144
40
0.3787699
50
358.592247
51
30.1415194
0
ARC
8
DEFAULT_255_2_778
10
9.5896355
20
-3.1041618
40
0.3514789
50
306.4123925
51
1.6371981
0
ARC
8
DEFAULT_255_2_778
10
9.4779477
20
-2.9539102
40
0.5386937
50
276.2992216
51
306.4862194
0
ARC
8
DEFAULT_255_2_778
10
9.4201448
20
-2.6141235
40
0.8830016
50
269.8005416
51
277.6082686
0
ARC
8
DEFAULT_255_2_778
10
9.411533
20
-2.7911129
40
0.7060286
50
246.2844394
51
270.4494095
0
ARC
8
DEFAULT_255_2_778
10
9.3135255
20
-2.9876608
40
0.4867774
50
216.151223
51
247.5416552
0
ARC
8
DEFAULT_255_2_778
10
9.2454054
20
-3.0453899
40
0.3977695
50
179.2408595
51
215.2251658
0
ARC
8
DEFAULT_255_2_778
10
9.3057359
20
-3.0504055
40
0.2587696
50
177.7219758
51
232.4340701
0
ARC
8
DEFAULT_255_2_778
10
9.3829803
20
-2.9380588
40
0.3949821
50
233.4882649
51
267.5693303
0
ARC
8
DEFAULT_255_2_778
10
9.4164918
20
-2.6807315
40
0.6538888
50
265.5914554
51
270.068261
0
ARC
8
DEFAULT_255_2_778
10
9.4296501
20
-2.8451229
40
0.4896534
50
268.5513123
51
289.1395608
0
ARC
8
DEFAULT_255_2_778
10
9.4979966
20
-3.0583248
40
0.2658815
50
290.2890929
51
307.0169421
0
ARC
8
DEFAULT_255_2_778
10
9.5335992
20
-3.1037075
40
0.2082136
50
306.7130256
51
2.1159638
0
ARC
8
DEFAULT_255_2_778
10
9.5377578
20
-3.0853744
40
0.2041908
50
357.0115551
51
51.7500689
0
ARC
8
DEFAULT_255_2_778
10
9.3766629
20
-3.317856
40
0.486807
50
53.8004453
51
68.2112731
0
ARC
8
DEFAULT_255_2_778
10
9.0053143
20
-4.1899608
40
1.4346021
50
67.3682746
51
73.6775825
0
ARC
8
DEFAULT_255_2_778
10
8.7424283
20
-5.0278845
40
2.3126969
50
73.2614038
51
73.9155275
0
LINE
8
DEFAULT_255_2_778
10
9.9379708
20
-2.4070198
11
9.7385708
21
-2.4070198
0
LINE
8
DEFAULT_255_2_778
10
8.8476708
20
-3.0401198
11
9.0471708
21
-3.0401198
0
LINE
8
DEFAULT_255_2_778
10
9.3831708
20
-2.8057198
11
9.3829708
21
-2.8057198
0
ENDSEC
0
EOF