0
SECTION
2
HEADER
9
$MEASUREMENT
70
1
0
ENDSEC
0
SECTION
2
TABLES
0
TABLE
2
LTYPE
0
LTYPE
72
65
70
64
2
CONTINUOUS
3
______
73
0
40
0
0
ENDTAB
0
TABLE
2
LAYER
0
LAYER
2
DEFAULT_255_2_778
70
0
62
255
6
CONTINUOUS
0
ENDTAB
0
ENDSEC
0
SECTION
2
ENTITIES
0
LINE
8
DEFAULT_255_2_778
10
2.7781667
20
1.1906
11
8.0698667
21
1.1906
0
LINE
8
DEFAULT_255_2_778
10
4.3656667
20
3.3072416
11
4.3656667
21
5.1593416
0
LINE
8
DEFAULT_255_2_778
10
4.3656667
20
5.1593416
11
6.4823667
21
4.5420416
0
LINE
8
DEFAULT_255_2_778
10
6.4823667
20
4.5420416
11
6.4823667
21
3.3072416
0
LINE
8
DEFAULT_255_2_778
10
4.3656667
20
-2.2489167
11
4.3656667
21
-2.7781167
0
LINE
8
DEFAULT_255_2_778
10
4.3656667
20
-2.7781167
11
6.4823667
21
-2.7781167
0
LINE
8
DEFAULT_255_2_778
10
6.4823667
20
-2.7781167
11
6.4823667
21
-2.2489167
0
LINE
8
DEFAULT_255_2_778
10
4.1010834
20
3.3073249
11
6.7468834
21
3.3073249
0
LINE
8
DEFAULT_255_2_778
10
6.7468834
20
3.3073249
11
6.7468834
21
-2.2488751
0
LINE
8
DEFAULT_255_2_778
10
6.7468834
20
-2.2488751
11
4.1010834
21
-2.2488751
0
LINE
8
DEFAULT_255_2_778
10
4.1010834
20
-2.2488751
11
4.1010834
21
3.3073249
0
ARC
8
DEFAULT_255_2_778
10
5.7919423
20
2.523554
40
1.4119491
50
245.4520373
51
254.4812826
0
ARC
8
DEFAULT_255_2_778
10
5.4689454
20
1.8303464
40
0.6472332
50
229.2624388
51
245.9660095
0
ARC
8
DEFAULT_255_2_778
10
5.3305587
20
1.6555923
40
0.4246097
50
227.3119917
51
228.0226566
0
ARC
8
DEFAULT_255_2_778
10
5.2709961
20
1.601553
40
0.344578
50
178.9977523
51
228.4997826
0
ARC
8
DEFAULT_255_2_778
10
5.2899908
20
1.6131216
40
0.3635622
50
127.5193376
51
180.8733339
0
ARC
8
DEFAULT_255_2_778
10
5.3969859
20
1.4849555
40
0.5304236
50
93.7436328
51
128.2545403
0
ARC
8
DEFAULT_255_2_778
10
5.4368015
20
1.2088262
40
0.8088547
50
89.9171654
51
95.2810561
0
ARC
8
DEFAULT_255_2_778
10
5.4489939
20
1.4023016
40
0.6154773
50
64.4476831
51
91.0262106
0
ARC
8
DEFAULT_255_2_778
10
5.5193648
20
1.5458906
40
0.4555817
50
32.7397622
51
64.6430098
0
ARC
8
DEFAULT_255_2_778
10
5.5463889
20
1.5644944
40
0.4227906
50
359.6321713
51
32.5997635
0
ARC
8
DEFAULT_255_2_778
10
5.4961108
20
1.5759461
40
0.2740264
50
357.036745
51
47.0073035
0
ARC
8
DEFAULT_255_2_778
10
5.4743467
20
1.5288184
40
0.323745
50
49.8786352
51
87.1855925
0
ARC
8
DEFAULT_255_2_778
10
5.4389581
20
1.2835524
40
0.5709287
50
84.8463458
51
90.0990726
0
ARC
8
DEFAULT_255_2_778
10
5.425298
20
1.4321071
40
0.4225632
50
88.2814155
51
112.8639148
0
ARC
8
DEFAULT_255_2_778
10
5.3676186
20
1.5873386
40
0.257217
50
114.4605285
51
128.0535245
0
ARC
8
DEFAULT_255_2_778
10
5.3418246
20
1.6204016
40
0.2152824
50
128.0718375
51
182.6414496
0
ARC
8
DEFAULT_255_2_778
10
5.3203908
20
1.6102632
40
0.1936201
50
179.9357859
51
233.370928
0
ARC
8
DEFAULT_255_2_778
10
5.4935211
20
1.8322722
40
0.4751249
50
232.5892413
51
248.4080291
0
ARC
8
DEFAULT_255_2_778
10
5.8054648
20
2.5708453
40
1.276795
50
247.58844
51
254.7892053
0
ARC
8
DEFAULT_255_2_778
10
5.0443285
20
-0.2225484
40
1.6184389
50
67.4720256
51
74.733764
0
ARC
8
DEFAULT_255_2_778
10
5.3528266
20
0.5260192
40
0.8087983
50
59.4549236
51
67.3413511
0
ARC
8
DEFAULT_255_2_778
10
5.5456208
20
0.8339271
40
0.4457402
50
32.6154538
51
60.6833915
0
ARC
8
DEFAULT_255_2_778
10
5.5935153
20
0.8839856
40
0.3787699
50
358.592247
51
30.1415194
0
ARC
8
DEFAULT_255_2_778
10
5.6208355
20
0.8646382
40
0.3514789
50
306.4123925
51
1.6371981
0
ARC
8
DEFAULT_255_2_778
10
5.5091477
20
1.0148898
40
0.5386937
50
276.2992216
51
306.4862194
0
ARC
8
DEFAULT_255_2_778
10
5.4513448
20
1.3546765
40
0.8830016
50
269.8005416
51
277.6082686
0
ARC
8
DEFAULT_255_2_778
10
5.442733
20
1.1776871
40
0.7060286
50
246.2844394
51
270.4494095
0
ARC
8
DEFAULT_255_2_778
10
5.3447255
20
0.9811392
40
0.4867774
50
216.151223
51
247.5416552
0
ARC
8
DEFAULT_255_2_778
10
5.2766054
20
0.9234101
40
0.3977695
50
179.2408595
51
215.2251658
0
ARC
8
DEFAULT_255_2_778
10
5.3369359
20
0.9183945
40
0.2587696
50
177.7219758
51
232.4340701
0
ARC
8
DEFAULT_255_2_778
10
5.4141803
20
1.0307412
40
0.3949821
50
233.4882649
51
267.5693303
0
ARC
8
DEFAULT_255_2_778
10
5.4476918
20
1.2880685
40
0.6538888
50
265.5914554
51
270.068261
0
ARC
8
DEFAULT_255_2_778
10
5.4608501
20
1.1236771
40
0.4896534
50
268.5513123
51
289.1395608
0
ARC
8
DEFAULT_255_2_778
10
5.5291966
20
0.9104752
40
0.2658815
50
290.2890929
51
307.0169421
0
ARC
8
DEFAULT_255_2_778
10
5.5647992
20
0.8650925
40
0.2082136
50
306.7130256
51
2.1159638
0
ARC
8
DEFAULT_255_2_778
10
5.5689578
20
0.8834256
40
0.2041908
50
357.0115551
51
51.7500689
0
ARC
8
DEFAULT_255_2_778
10
5.4078629
20
0.650944
40
0.486807
50
53.8004453
51
68.2112731
0
ARC
8
DEFAULT_255_2_778
10
5.0365143
20
-0.2211608
40
1.4346021
50
67.3682746
51
73.6775825
0
ARC
8
DEFAULT_255_2_778
10
4.7736283
20
-1.0590845
40
2.3126969
50
73.2614038
51
73.9155275
0
LINE
8
DEFAULT_255_2_778
10
5.9691708
20
1.5617802
11
5.7697708
21
1.5617802
0
LINE
8
DEFAULT_255_2_778
10
4.8788708
20
0.9286802
11
5.0783708
21
0.9286802
0
LINE
8
DEFAULT_255_2_778
10
5.4143708
20
1.1630802
11
5.4141708
21
1.1630802
0
ENDSEC
0
EOF