0
SECTION
2
HEADER
9
$MEASUREMENT
70
1
0
ENDSEC
0
SECTION
2
TABLES
0
TABLE
2
LTYPE
0
LTYPE
72
65
70
64
2
CONTINUOUS
3
______
73
0
40
0
0
ENDTAB
0
TABLE
2
LAYER
0
LAYER
2
DEFAULT_255_2_778
70
0
62
255
6
CONTINUOUS
0
ENDTAB
0
ENDSEC
0
SECTION
2
ENTITIES
0
LINE
8
DEFAULT_255_2_778
10
2.7781667
20
2.5135333
11
8.0698667
21
2.5135333
0
LINE
8
DEFAULT_255_2_778
10
8.0698667
20
2.5135333
11
8.0698667
21
-2.7781667
0
LINE
8
DEFAULT_255_2_778
10
8.0698667
20
-2.7781667
11
2.7781667
21
-2.7781667
0
LINE
8
DEFAULT_255_2_778
10
2.7781667
20
-2.7781667
11
2.7781667
21
2.5135333
0
ARC
8
DEFAULT_255_2_778
10
4.6717191
20
0.089514
40
0.6837949
50
60.7933499
51
91.1341631
0
ARC
8
DEFAULT_255_2_778
10
4.7124962
20
0.1765844
40
0.587937
50
26.5385939
51
60.1214904
0
ARC
8
DEFAULT_255_2_778
10
4.5260364
20
0.0857899
40
0.79532
50
359.887052
51
26.3885684
0
ARC
8
DEFAULT_255_2_778
10
4.274554
20
0.0672855
40
1.0469379
50
0.2183326
51
0.926927
0
ARC
8
DEFAULT_255_2_778
10
4.4847495
20
-0.0386239
40
0.8368487
50
338.4115849
51
0.944798
0
ARC
8
DEFAULT_255_2_778
10
4.6389608
20
-0.0892587
40
0.6748937
50
332.7929524
51
337.5916986
0
ARC
8
DEFAULT_255_2_778
10
4.7235987
20
-0.1412008
40
0.5759206
50
299.2019637
51
333.5389384
0
ARC
8
DEFAULT_255_2_778
10
4.6597938
20
-0.0091078
40
0.7224081
50
270.1832328
51
298.507876
0
ARC
8
DEFAULT_255_2_778
10
4.6394991
20
0.2347252
40
0.9665017
50
270.5919534
51
271.340177
0
ARC
8
DEFAULT_255_2_778
10
4.6542045
20
-0.0550451
40
0.5147628
50
268.4726984
51
296.9556584
0
ARC
8
DEFAULT_255_2_778
10
4.6965411
20
-0.1587361
40
0.4032523
50
298.2723515
51
318.3127299
0
ARC
8
DEFAULT_255_2_778
10
4.6174329
20
-0.1015184
40
0.5004804
50
319.4441823
51
351.5030831
0
ARC
8
DEFAULT_255_2_778
10
4.2469309
20
-0.026182
40
0.8782696
50
350.2135292
51
0.349476
0
ARC
8
DEFAULT_255_2_778
10
4.348372
20
0.0797429
40
0.7769173
50
359.0583544
51
16.7830781
0
ARC
8
DEFAULT_255_2_778
10
4.6459272
20
0.1667504
40
0.4669205
50
17.1042586
51
39.7751168
0
ARC
8
DEFAULT_255_2_778
10
4.6909778
20
0.1924059
40
0.4159823
50
41.0292327
51
88.6940272
0
ARC
8
DEFAULT_255_2_778
10
4.6573102
20
-0.0459634
40
0.6556648
50
86.2267036
51
89.4866688
0
LINE
8
DEFAULT_255_2_778
10
4.6497844
20
-0.731725
11
4.2332844
21
-0.731725
0
LINE
8
DEFAULT_255_2_778
10
4.2332844
20
-0.731725
11
4.2332844
21
0.773175
0
LINE
8
DEFAULT_255_2_778
10
4.2332844
20
0.773175
11
4.6581844
21
0.773175
0
LINE
8
DEFAULT_255_2_778
10
5.3214844
20
0.071275
11
5.3214844
21
-0.024825
0
LINE
8
DEFAULT_255_2_778
10
4.6494844
20
-0.731725
11
4.6497844
21
-0.731725
0
LINE
8
DEFAULT_255_2_778
10
4.6631844
20
0.609675
11
4.4316844
21
0.609675
0
LINE
8
DEFAULT_255_2_778
10
4.4316844
20
0.609675
11
4.4316844
21
-0.569625
0
LINE
8
DEFAULT_255_2_778
10
4.4316844
20
-0.569625
11
4.6404844
21
-0.569625
0
LINE
8
DEFAULT_255_2_778
10
5.1251844
20
-0.020825
11
5.1251844
21
0.066975
0
LINE
8
DEFAULT_255_2_778
10
4.6631844
20
0.609675
11
4.6631844
21
0.609675
0
ARC
8
DEFAULT_255_2_778
10
6.442536
20
1.2997758
40
1.4124341
50
245.4501465
51
254.474381
0
ARC
8
DEFAULT_255_2_778
10
6.119754
20
0.6070645
40
0.6482585
50
229.2815583
51
245.9620307
0
ARC
8
DEFAULT_255_2_778
10
5.9810709
20
0.4318817
40
0.4251133
50
227.3356838
51
228.0458322
0
ARC
8
DEFAULT_255_2_778
10
5.9215298
20
0.3773252
40
0.3447121
50
178.9935363
51
228.4676414
0
ARC
8
DEFAULT_255_2_778
10
5.9403908
20
0.3889216
40
0.3635622
50
127.5193376
51
180.8733339
0
ARC
8
DEFAULT_255_2_778
10
6.0474387
20
0.2605762
40
0.5305972
50
93.7332779
51
128.2470246
0
ARC
8
DEFAULT_255_2_778
10
6.0873985
20
-0.01667
40
0.810151
50
89.9170914
51
95.276838
0
ARC
8
DEFAULT_255_2_778
10
6.0995939
20
0.1781016
40
0.6154773
50
64.4476831
51
91.0262106
0
ARC
8
DEFAULT_255_2_778
10
6.171241
20
0.3231427
40
0.4537233
50
32.672672
51
64.7101
0
ARC
8
DEFAULT_255_2_778
10
6.1975539
20
0.3402744
40
0.4223256
50
359.6344746
51
32.6433386
0
ARC
8
DEFAULT_255_2_778
10
6.1467108
20
0.3517461
40
0.2740264
50
357.036745
51
47.0073035
0
ARC
8
DEFAULT_255_2_778
10
6.1249467
20
0.3046184
40
0.323745
50
49.8786352
51
87.1855925
0
ARC
8
DEFAULT_255_2_778
10
6.0895581
20
0.0593524
40
0.5709287
50
84.8463458
51
90.0990726
0
ARC
8
DEFAULT_255_2_778
10
6.075898
20
0.2079071
40
0.4225632
50
88.2814155
51
112.8639148
0
ARC
8
DEFAULT_255_2_778
10
6.0182186
20
0.3631386
40
0.257217
50
114.4605285
51
128.0535245
0
ARC
8
DEFAULT_255_2_778
10
5.9930347
20
0.3962821
40
0.2155959
50
128.2126724
51
182.6590232
0
ARC
8
DEFAULT_255_2_778
10
5.9712908
20
0.3860632
40
0.1936201
50
179.9357859
51
233.370928
0
ARC
8
DEFAULT_255_2_778
10
6.1444211
20
0.6080722
40
0.4751249
50
232.5892413
51
248.4080291
0
ARC
8
DEFAULT_255_2_778
10
6.4563648
20
1.3466453
40
1.276795
50
247.58844
51
254.7892053
0
ARC
8
DEFAULT_255_2_778
10
5.6976207
20
-1.4381794
40
1.6095423
50
67.4328534
51
74.7355993
0
ARC
8
DEFAULT_255_2_778
10
6.004534
20
-0.6948357
40
0.8053355
50
59.3762157
51
67.3007463
0
ARC
8
DEFAULT_255_2_778
10
6.1961926
20
-0.3911453
40
0.4464872
50
32.6870601
51
60.6889243
0
ARC
8
DEFAULT_255_2_778
10
6.2444153
20
-0.3402144
40
0.3787699
50
358.592247
51
30.1415194
0
ARC
8
DEFAULT_255_2_778
10
6.2717355
20
-0.3595618
40
0.3514789
50
306.4123925
51
1.6371981
0
ARC
8
DEFAULT_255_2_778
10
6.1600477
20
-0.2093102
40
0.5386937
50
276.2992216
51
306.4862194
0
ARC
8
DEFAULT_255_2_778
10
6.1022448
20
0.1304765
40
0.8830016
50
269.8005416
51
277.6082686
0
ARC
8
DEFAULT_255_2_778
10
6.093633
20
-0.0465129
40
0.7060286
50
246.2844394
51
270.4494095
0
ARC
8
DEFAULT_255_2_778
10
5.9956255
20
-0.2430608
40
0.4867774
50
216.151223
51
247.5416552
0
ARC
8
DEFAULT_255_2_778
10
5.9275054
20
-0.3007899
40
0.3977695
50
179.2408595
51
215.2251658
0
ARC
8
DEFAULT_255_2_778
10
5.9878359
20
-0.3058055
40
0.2587696
50
177.7219758
51
232.4340701
0
ARC
8
DEFAULT_255_2_778
10
6.0650803
20
-0.1934588
40
0.3949821
50
233.4882649
51
267.5693303
0
ARC
8
DEFAULT_255_2_778
10
6.0985918
20
0.0638685
40
0.6538888
50
265.5914554
51
270.068261
0
ARC
8
DEFAULT_255_2_778
10
6.1117501
20
-0.1005229
40
0.4896534
50
268.5513123
51
289.1395608
0
ARC
8
DEFAULT_255_2_778
10
6.1800966
20
-0.3137248
40
0.2658815
50
290.2890929
51
307.0169421
0
ARC
8
DEFAULT_255_2_778
10
6.2156992
20
-0.3591075
40
0.2082136
50
306.7130256
51
2.1159638
0
ARC
8
DEFAULT_255_2_778
10
6.2198578
20
-0.3407744
40
0.2041908
50
357.0115551
51
51.7500689
0
ARC
8
DEFAULT_255_2_778
10
6.0587629
20
-0.573256
40
0.486807
50
53.8004453
51
68.2112731
0
ARC
8
DEFAULT_255_2_778
10
5.6874143
20
-1.4453608
40
1.4346021
50
67.3682746
51
73.6775825
0
ARC
8
DEFAULT_255_2_778
10
5.4245283
20
-2.2832845
40
2.3126969
50
73.2614038
51
73.9155275
0
LINE
8
DEFAULT_255_2_778
10
6.6198708
20
0.3375802
11
6.4203708
21
0.3375802
0
LINE
8
DEFAULT_255_2_778
10
5.5297708
20
-0.2955198
11
5.7292708
21
-0.2955198
0
LINE
8
DEFAULT_255_2_778
10
6.0652708
20
-0.0611198
11
6.0644708
21
-0.0611198
0
ENDSEC
0
EOF