0
SECTION
2
HEADER
9
$MEASUREMENT
70
1
0
ENDSEC
0
SECTION
2
TABLES
0
TABLE
2
LTYPE
0
LTYPE
72
65
70
64
2
CONTINUOUS
3
______
73
0
40
0
0
ENDTAB
0
TABLE
2
LAYER
0
LAYER
2
DEFAULT_255_2_778
70
0
62
255
6
CONTINUOUS
0
ENDTAB
0
ENDSEC
0
SECTION
2
ENTITIES
0
LINE
8
DEFAULT_255_2_778
10
2.7781169
20
-2.7782
11
16.0073169
21
-2.7782
0
ARC
8
DEFAULT_255_2_778
10
13.1352538
20
-3.7569798
40
0.2265931
50
305.5457467
51
356.608817
0
ARC
8
DEFAULT_255_2_778
10
12.8924287
20
-3.4660819
40
0.6051193
50
288.410819
51
308.2415491
0
ARC
8
DEFAULT_255_2_778
10
12.7257664
20
-2.9970217
40
1.1028531
50
273.791219
51
288.929803
0
ARC
8
DEFAULT_255_2_778
10
12.7003469
20
-2.7642555
40
1.336828
50
269.9829938
51
274.2186685
0
ARC
8
DEFAULT_255_2_778
10
12.6930431
20
-2.8822651
40
1.2188379
50
255.3213089
51
270.3246884
0
ARC
8
DEFAULT_255_2_778
10
12.5683192
20
-3.3391097
40
0.745315
50
238.3688419
51
255.6971982
0
ARC
8
DEFAULT_255_2_778
10
12.3373298
20
-3.6998068
40
0.3171491
50
206.9782026
51
239.7251382
0
ARC
8
DEFAULT_255_2_778
10
12.2164213
20
-3.7696367
40
0.1778728
50
180.240524
51
204.6001061
0
ARC
8
DEFAULT_255_2_778
10
11.8123538
20
-3.7569798
40
0.2265931
50
305.5457467
51
356.608817
0
ARC
8
DEFAULT_255_2_778
10
11.5695287
20
-3.4660819
40
0.6051193
50
288.410819
51
308.2415491
0
ARC
8
DEFAULT_255_2_778
10
11.4028664
20
-2.9970217
40
1.1028531
50
273.791219
51
288.929803
0
ARC
8
DEFAULT_255_2_778
10
11.3774469
20
-2.7642555
40
1.336828
50
269.9829938
51
274.2186685
0
ARC
8
DEFAULT_255_2_778
10
11.3701431
20
-2.8822651
40
1.2188379
50
255.3213089
51
270.3246884
0
ARC
8
DEFAULT_255_2_778
10
11.2454192
20
-3.3391097
40
0.745315
50
238.3688419
51
255.6971982
0
ARC
8
DEFAULT_255_2_778
10
11.0144298
20
-3.6998068
40
0.3171491
50
206.9782026
51
239.7251382
0
ARC
8
DEFAULT_255_2_778
10
10.8935213
20
-3.7696367
40
0.1778728
50
180.240524
51
204.6001061
0
ARC
8
DEFAULT_255_2_778
10
10.4894538
20
-3.7569798
40
0.2265931
50
305.5457467
51
356.608817
0
ARC
8
DEFAULT_255_2_778
10
10.2466287
20
-3.4660819
40
0.6051193
50
288.410819
51
308.2415491
0
ARC
8
DEFAULT_255_2_778
10
10.0799664
20
-2.9970217
40
1.1028531
50
273.791219
51
288.929803
0
ARC
8
DEFAULT_255_2_778
10
10.0545469
20
-2.7642555
40
1.336828
50
269.9829938
51
274.2186685
0
ARC
8
DEFAULT_255_2_778
10
10.047253
20
-2.8820067
40
1.2190961
50
255.3228827
51
270.3241565
0
ARC
8
DEFAULT_255_2_778
10
9.9225462
20
-3.338818
40
0.74561
50
238.3747693
51
255.6989974
0
ARC
8
DEFAULT_255_2_778
10
9.6914611
20
-3.6997417
40
0.317202
50
206.9865344
51
239.7320939
0
ARC
8
DEFAULT_255_2_778
10
9.5704763
20
-3.7696351
40
0.1778278
50
180.2410896
51
204.6072928
0
ARC
8
DEFAULT_255_2_778
10
9.1664468
20
-3.7569792
40
0.2266001
50
305.5479273
51
356.6087786
0
ARC
8
DEFAULT_255_2_778
10
8.923635
20
-3.4661221
40
0.6050863
50
288.4134893
51
308.2437363
0
ARC
8
DEFAULT_255_2_778
10
8.7570356
20
-2.9973196
40
1.1025562
50
273.7925424
51
288.9325354
0
ARC
8
DEFAULT_255_2_778
10
8.7316458
20
-2.7649086
40
1.3361749
50
269.9830308
51
274.2197032
0
ARC
8
DEFAULT_255_2_778
10
8.7243324
20
-2.8818261
40
1.2192769
50
255.3239557
51
270.3250765
0
ARC
8
DEFAULT_255_2_778
10
8.5995379
20
-3.3390298
40
0.745389
50
238.3713171
51
255.6997398
0
ARC
8
DEFAULT_255_2_778
10
8.3685205
20
-3.6998073
40
0.3171403
50
206.9789081
51
239.7276913
0
ARC
8
DEFAULT_255_2_778
10
8.2476174
20
-3.7696371
40
0.1778688
50
180.2403885
51
204.6005426
0
ARC
8
DEFAULT_255_2_778
10
7.8435468
20
-3.7569792
40
0.2266001
50
305.5479273
51
356.6087786
0
ARC
8
DEFAULT_255_2_778
10
7.600735
20
-3.4661221
40
0.6050863
50
288.4134893
51
308.2437363
0
ARC
8
DEFAULT_255_2_778
10
7.4341356
20
-2.9973196
40
1.1025562
50
273.7925424
51
288.9325354
0
ARC
8
DEFAULT_255_2_778
10
7.4087458
20
-2.7649086
40
1.3361749
50
269.9830308
51
274.2197032
0
ARC
8
DEFAULT_255_2_778
10
7.4014324
20
-2.8818261
40
1.2192769
50
255.3239557
51
270.3250765
0
ARC
8
DEFAULT_255_2_778
10
7.2766379
20
-3.3390298
40
0.745389
50
238.3713171
51
255.6997398
0
ARC
8
DEFAULT_255_2_778
10
7.0456205
20
-3.6998073
40
0.3171403
50
206.9789081
51
239.7276913
0
ARC
8
DEFAULT_255_2_778
10
6.9247174
20
-3.7696371
40
0.1778688
50
180.2403885
51
204.6005426
0
ARC
8
DEFAULT_255_2_778
10
6.5206468
20
-3.7569792
40
0.2266001
50
305.5479273
51
356.6087786
0
ARC
8
DEFAULT_255_2_778
10
6.277835
20
-3.4661221
40
0.6050863
50
288.4134893
51
308.2437363
0
ARC
8
DEFAULT_255_2_778
10
6.1112356
20
-2.9973196
40
1.1025562
50
273.7925424
51
288.9325354
0
ARC
8
DEFAULT_255_2_778
10
6.0858458
20
-2.7649086
40
1.3361749
50
269.9830308
51
274.2197032
0
ARC
8
DEFAULT_255_2_778
10
6.0785324
20
-2.8818261
40
1.2192769
50
255.3239557
51
270.3250765
0
ARC
8
DEFAULT_255_2_778
10
5.9537379
20
-3.3390298
40
0.745389
50
238.3713171
51
255.6997398
0
ARC
8
DEFAULT_255_2_778
10
5.7227205
20
-3.6998073
40
0.3171403
50
206.9789081
51
239.7276913
0
ARC
8
DEFAULT_255_2_778
10
5.6018174
20
-3.7696371
40
0.1778688
50
180.2403885
51
204.6005426
0
ARC
8
DEFAULT_255_2_778
10
5.64942
20
-1.799258
40
0.2258604
50
125.7723489
51
176.6305698
0
ARC
8
DEFAULT_255_2_778
10
5.8917962
20
-2.0879451
40
0.6024164
50
108.5284806
51
128.4263197
0
ARC
8
DEFAULT_255_2_778
10
6.0584143
20
-2.5526554
40
1.0960346
50
94.1126853
51
109.0673324
0
ARC
8
DEFAULT_255_2_778
10
6.0849885
20
-2.7870013
40
1.3317181
50
89.9801404
51
94.5299739
0
ARC
8
DEFAULT_255_2_778
10
6.0923102
20
-2.6726853
40
1.2174212
50
75.301561
51
90.3228587
0
ARC
8
DEFAULT_255_2_778
10
6.2167115
20
-2.2177053
40
0.7457821
50
58.357603
51
75.6770513
0
ARC
8
DEFAULT_255_2_778
10
6.4478964
20
-1.8568904
40
0.3174123
50
27.0023203
51
59.7165073
0
ARC
8
DEFAULT_255_2_778
10
6.5693266
20
-1.7867464
40
0.1775251
50
0.2462719
51
24.6246141
0
ARC
8
DEFAULT_255_2_778
10
6.97232
20
-1.799258
40
0.2258604
50
125.7723489
51
176.6305698
0
ARC
8
DEFAULT_255_2_778
10
7.2146962
20
-2.0879451
40
0.6024164
50
108.5284806
51
128.4263197
0
ARC
8
DEFAULT_255_2_778
10
7.3813143
20
-2.5526554
40
1.0960346
50
94.1126853
51
109.0673324
0
ARC
8
DEFAULT_255_2_778
10
7.4078885
20
-2.7870013
40
1.3317181
50
89.9801404
51
94.5299739
0
ARC
8
DEFAULT_255_2_778
10
7.4152102
20
-2.6726853
40
1.2174212
50
75.301561
51
90.3228587
0
ARC
8
DEFAULT_255_2_778
10
7.5396115
20
-2.2177053
40
0.7457821
50
58.357603
51
75.6770513
0
ARC
8
DEFAULT_255_2_778
10
7.7707964
20
-1.8568904
40
0.3174123
50
27.0023203
51
59.7165073
0
ARC
8
DEFAULT_255_2_778
10
7.8922266
20
-1.7867464
40
0.1775251
50
0.2462719
51
24.6246141
0
ARC
8
DEFAULT_255_2_778
10
8.29522
20
-1.799258
40
0.2258604
50
125.7723489
51
176.6305698
0
ARC
8
DEFAULT_255_2_778
10
8.5375962
20
-2.0879451
40
0.6024164
50
108.5284806
51
128.4263197
0
ARC
8
DEFAULT_255_2_778
10
8.7042143
20
-2.5526554
40
1.0960346
50
94.1126853
51
109.0673324
0
ARC
8
DEFAULT_255_2_778
10
8.7307885
20
-2.7870013
40
1.3317181
50
89.9801404
51
94.5299739
0
ARC
8
DEFAULT_255_2_778
10
8.7381102
20
-2.6726853
40
1.2174212
50
75.301561
51
90.3228587
0
ARC
8
DEFAULT_255_2_778
10
8.8625115
20
-2.2177053
40
0.7457821
50
58.357603
51
75.6770513
0
ARC
8
DEFAULT_255_2_778
10
9.0936964
20
-1.8568904
40
0.3174123
50
27.0023203
51
59.7165073
0
ARC
8
DEFAULT_255_2_778
10
9.2151266
20
-1.7867464
40
0.1775251
50
0.2462719
51
24.6246141
0
ARC
8
DEFAULT_255_2_778
10
9.6181144
20
-1.7992726
40
0.2258556
50
125.764316
51
176.6267893
0
ARC
8
DEFAULT_255_2_778
10
9.8606
20
-2.088134
40
0.6026148
50
108.5282104
51
128.4211799
0
ARC
8
DEFAULT_255_2_778
10
10.0271717
20
-2.5526972
40
1.0960787
50
94.1142723
51
109.067307
0
ARC
8
DEFAULT_255_2_778
10
10.053691
20
-2.7864598
40
1.3311766
50
89.9802385
51
94.5308927
0
ARC
8
DEFAULT_255_2_778
10
10.0610209
20
-2.6731237
40
1.2178597
50
75.3042112
51
90.3232479
0
ARC
8
DEFAULT_255_2_778
10
10.1854928
20
-2.2177852
40
0.7458561
50
58.3600784
51
75.6795953
0
ARC
8
DEFAULT_255_2_778
10
10.4167058
20
-1.85689
40
0.3174035
50
27.003026
51
59.7190602
0
ARC
8
DEFAULT_255_2_778
10
10.5381306
20
-1.786746
40
0.1775211
50
0.2461363
51
24.625051
0
ARC
8
DEFAULT_255_2_778
10
10.9411273
20
-1.7992591
40
0.2258677
50
125.774492
51
176.6303995
0
ARC
8
DEFAULT_255_2_778
10
11.1834903
20
-2.0879054
40
0.6023841
50
108.5311679
51
128.4285181
0
ARC
8
DEFAULT_255_2_778
10
11.3500467
20
-2.5523661
40
1.0957464
50
94.1140713
51
109.0700422
0
ARC
8
DEFAULT_255_2_778
10
11.3765897
20
-2.7863597
40
1.3310764
50
89.9801839
51
94.5310646
0
ARC
8
DEFAULT_255_2_778
10
11.3839209
20
-2.6731237
40
1.2178597
50
75.3042112
51
90.3232479
0
ARC
8
DEFAULT_255_2_778
10
11.5083928
20
-2.2177852
40
0.7458561
50
58.3600784
51
75.6795953
0
ARC
8
DEFAULT_255_2_778
10
11.7396058
20
-1.85689
40
0.3174035
50
27.003026
51
59.7190602
0
ARC
8
DEFAULT_255_2_778
10
11.8610306
20
-1.786746
40
0.1775211
50
0.2461363
51
24.625051
0
ARC
8
DEFAULT_255_2_778
10
12.2640273
20
-1.7992591
40
0.2258677
50
125.774492
51
176.6303995
0
ARC
8
DEFAULT_255_2_778
10
12.5063903
20
-2.0879054
40
0.6023841
50
108.5311679
51
128.4285181
0
ARC
8
DEFAULT_255_2_778
10
12.6729467
20
-2.5523661
40
1.0957464
50
94.1140713
51
109.0700422
0
ARC
8
DEFAULT_255_2_778
10
12.6994897
20
-2.7863597
40
1.3310764
50
89.9801839
51
94.5310646
0
ARC
8
DEFAULT_255_2_778
10
12.7068209
20
-2.6731237
40
1.2178597
50
75.3042112
51
90.3232479
0
ARC
8
DEFAULT_255_2_778
10
12.8312928
20
-2.2177852
40
0.7458561
50
58.3600784
51
75.6795953
0
ARC
8
DEFAULT_255_2_778
10
13.0625058
20
-1.85689
40
0.3174035
50
27.003026
51
59.7190602
0
ARC
8
DEFAULT_255_2_778
10
13.1839306
20
-1.786746
40
0.1775211
50
0.2461363
51
24.625051
0
LINE
8
DEFAULT_255_2_778
10
5.4239501
20
-3.7703834
11
5.4239501
21
-1.7859834
0
LINE
8
DEFAULT_255_2_778
10
13.3614501
20
-1.7859834
11
13.3614501
21
-3.7703834
0
ENDSEC
0
EOF