0
SECTION
2
HEADER
9
$MEASUREMENT
70
1
0
ENDSEC
0
SECTION
2
TABLES
0
TABLE
2
LTYPE
0
LTYPE
72
65
70
64
2
CONTINUOUS
3
______
73
0
40
0
0
ENDTAB
0
TABLE
2
LAYER
0
LAYER
2
DEFAULT_255_2_778
70
0
62
255
6
CONTINUOUS
0
ENDTAB
0
ENDSEC
0
SECTION
2
ENTITIES
0
LINE
8
DEFAULT_255_2_778
10
5.8208751
20
1.2571
11
7.8382751
21
1.2571
0
LINE
8
DEFAULT_255_2_778
10
7.8382751
20
1.2571
11
11.3770751
21
1.2571
0
LINE
8
DEFAULT_255_2_778
10
5.6885
20
1.9185583
11
5.6885
21
0.5956583
0
LINE
8
DEFAULT_255_2_778
10
11.2448
20
1.9185583
11
11.2448
21
0.5956583
0
LINE
8
DEFAULT_255_2_778
10
5.6885708
20
1.2571
11
5.0270708
21
1.2571
0
LINE
8
DEFAULT_255_2_778
10
11.2447708
20
1.2571
11
11.9062708
21
1.2571
0
ARC
8
DEFAULT_255_2_778
10
6.7601836
20
-3.3983584
40
0.792081
50
72.2270494
51
90.9238395
0
ARC
8
DEFAULT_255_2_778
10
6.8418522
20
-3.1317064
40
0.5132391
50
48.3540817
51
71.8225301
0
ARC
8
DEFAULT_255_2_778
10
6.8598589
20
-3.10433
40
0.4808392
50
357.7055642
51
47.789689
0
ARC
8
DEFAULT_255_2_778
10
6.78595
20
-3.1371757
40
0.5545292
50
335.0858481
51
1.4048632
0
ARC
8
DEFAULT_255_2_778
10
6.9148662
20
-3.1874319
40
0.4165306
50
310.6868508
51
333.8852046
0
ARC
8
DEFAULT_255_2_778
10
6.8434397
20
-3.0892315
40
0.5376494
50
279.9372295
51
309.636282
0
ARC
8
DEFAULT_255_2_778
10
6.7527044
20
-2.6706322
40
0.9657787
50
269.5436672
51
280.9539321
0
ARC
8
DEFAULT_255_2_778
10
6.7601642
20
-2.9574442
40
0.4967998
50
268.5291949
51
291.0434722
0
ARC
8
DEFAULT_255_2_778
10
6.8268295
20
-3.1471398
40
0.2958762
50
292.1852802
51
311.223833
0
ARC
8
DEFAULT_255_2_778
10
6.8182269
20
-3.1517795
40
0.2982078
50
313.0547931
51
0.2624069
0
ARC
8
DEFAULT_255_2_778
10
6.6123966
20
-3.1262047
40
0.504616
50
357.2501673
51
0.0254806
0
ARC
8
DEFAULT_255_2_778
10
6.7989793
20
-3.1115537
40
0.3183604
50
357.4027214
51
45.5777685
0
ARC
8
DEFAULT_255_2_778
10
6.7811428
20
-3.150229
40
0.3587532
50
47.8672537
51
87.6805277
0
ARC
8
DEFAULT_255_2_778
10
6.7486048
20
-3.3726851
40
0.5828183
50
85.3688502
51
88.8686171
0
ARC
8
DEFAULT_255_2_778
10
8.9099836
20
-3.3983584
40
0.792081
50
72.2270494
51
90.9238395
0
ARC
8
DEFAULT_255_2_778
10
8.9916522
20
-3.1317064
40
0.5132391
50
48.3540817
51
71.8225301
0
ARC
8
DEFAULT_255_2_778
10
9.0103926
20
-3.1044059
40
0.4804028
50
357.7125357
51
47.8605789
0
ARC
8
DEFAULT_255_2_778
10
8.9363529
20
-3.1371708
40
0.5542264
50
335.0707456
51
1.4051241
0
ARC
8
DEFAULT_255_2_778
10
9.0649549
20
-3.1873126
40
0.4165633
50
310.6668988
51
333.8691259
0
ARC
8
DEFAULT_255_2_778
10
8.9934397
20
-3.0892315
40
0.5376494
50
279.9372295
51
309.636282
0
ARC
8
DEFAULT_255_2_778
10
8.9027044
20
-2.6706322
40
0.9657787
50
269.5436672
51
280.9539321
0
ARC
8
DEFAULT_255_2_778
10
8.9099618
20
-2.9575885
40
0.4966555
50
268.5290423
51
291.0300481
0
ARC
8
DEFAULT_255_2_778
10
8.9766956
20
-3.147546
40
0.2954614
50
292.1701531
51
311.251514
0
ARC
8
DEFAULT_255_2_778
10
8.9681695
20
-3.1517491
40
0.2980645
50
313.0167286
51
0.25669
0
ARC
8
DEFAULT_255_2_778
10
8.7625458
20
-3.1262007
40
0.5042667
50
357.2477989
51
0.0250364
0
ARC
8
DEFAULT_255_2_778
10
8.948953
20
-3.1115773
40
0.3181857
50
357.4055556
51
45.6159594
0
ARC
8
DEFAULT_255_2_778
10
8.930999
20
-3.1498309
40
0.3583531
50
47.8430725
51
87.6871297
0
ARC
8
DEFAULT_255_2_778
10
8.8984063
20
-3.3726235
40
0.5827567
50
85.3686317
51
88.8686512
0
LINE
8
DEFAULT_255_2_778
10
9.2604126
20
4.0352197
11
9.2604126
21
3.8635197
0
LINE
8
DEFAULT_255_2_778
10
9.2604126
20
3.8635197
11
8.7106126
21
3.8635197
0
LINE
8
DEFAULT_255_2_778
10
8.7106126
20
3.8635197
11
8.7106126
21
2.4538197
0
LINE
8
DEFAULT_255_2_778
10
8.7106126
20
2.4538197
11
8.4863126
21
2.4538197
0
LINE
8
DEFAULT_255_2_778
10
8.4863126
20
2.4538197
11
8.4863126
21
3.8635197
0
LINE
8
DEFAULT_255_2_778
10
8.4863126
20
3.8635197
11
7.9375126
21
3.8635197
0
LINE
8
DEFAULT_255_2_778
10
7.9375126
20
3.8635197
11
7.9375126
21
4.0352197
0
LINE
8
DEFAULT_255_2_778
10
7.9375126
20
4.0352197
11
9.2604126
21
4.0352197
0
LINE
8
DEFAULT_255_2_778
10
9.2604126
20
4.0352197
11
9.2604126
21
4.0352197
0
LINE
8
DEFAULT_255_2_778
10
6.7450126
20
-3.6366803
11
6.3463126
21
-3.6366803
0
LINE
8
DEFAULT_255_2_778
10
6.3463126
20
-3.6366803
11
6.3463126
21
-4.2991803
0
LINE
8
DEFAULT_255_2_778
10
6.3463126
20
-4.2991803
11
6.1230126
21
-4.2991803
0
LINE
8
DEFAULT_255_2_778
10
6.1230126
20
-4.2991803
11
6.1230126
21
-2.6063803
0
LINE
8
DEFAULT_255_2_778
10
6.1230126
20
-2.6063803
11
6.7474126
21
-2.6063803
0
LINE
8
DEFAULT_255_2_778
10
6.7450126
20
-3.6363803
11
6.7450126
21
-3.6366803
0
LINE
8
DEFAULT_255_2_778
10
6.3463126
20
-2.7902803
11
6.3463126
21
-3.4540803
0
LINE
8
DEFAULT_255_2_778
10
6.3463126
20
-3.4540803
11
6.7474126
21
-3.4540803
0
LINE
8
DEFAULT_255_2_778
10
6.7601126
20
-2.7899803
11
6.3463126
21
-2.7899803
0
LINE
8
DEFAULT_255_2_778
10
6.3463126
20
-2.7899803
11
6.3463126
21
-2.7902803
0
LINE
8
DEFAULT_255_2_778
10
7.8648126
20
-2.6063803
11
7.8648126
21
-4.2991803
0
LINE
8
DEFAULT_255_2_778
10
7.8648126
20
-4.2991803
11
7.6414126
21
-4.2991803
0
LINE
8
DEFAULT_255_2_778
10
7.6414126
20
-4.2991803
11
7.6414126
21
-2.6063803
0
LINE
8
DEFAULT_255_2_778
10
7.6414126
20
-2.6063803
11
7.8648126
21
-2.6063803
0
LINE
8
DEFAULT_255_2_778
10
7.8648126
20
-2.6063803
11
7.8648126
21
-2.6063803
0
LINE
8
DEFAULT_255_2_778
10
8.8948126
20
-3.6366803
11
8.4960126
21
-3.6366803
0
LINE
8
DEFAULT_255_2_778
10
8.4960126
20
-3.6366803
11
8.4960126
21
-4.2991803
0
LINE
8
DEFAULT_255_2_778
10
8.4960126
20
-4.2991803
11
8.2727126
21
-4.2991803
0
LINE
8
DEFAULT_255_2_778
10
8.2727126
20
-4.2991803
11
8.2727126
21
-2.6063803
0
LINE
8
DEFAULT_255_2_778
10
8.2727126
20
-2.6063803
11
8.8972126
21
-2.6063803
0
LINE
8
DEFAULT_255_2_778
10
8.8950126
20
-3.6363803
11
8.8948126
21
-3.6366803
0
LINE
8
DEFAULT_255_2_778
10
8.4960126
20
-2.7902803
11
8.4960126
21
-3.4540803
0
LINE
8
DEFAULT_255_2_778
10
8.4960126
20
-3.4540803
11
8.8972126
21
-3.4540803
0
LINE
8
DEFAULT_255_2_778
10
8.9099126
20
-2.7899803
11
8.4960126
21
-2.7899803
0
LINE
8
DEFAULT_255_2_778
10
8.4960126
20
-2.7899803
11
8.4960126
21
-2.7902803
0
LINE
8
DEFAULT_255_2_778
10
10.7320126
20
-3.3341803
11
10.7320126
21
-3.5167803
0
LINE
8
DEFAULT_255_2_778
10
10.7320126
20
-3.5167803
11
9.9984126
21
-3.5167803
0
LINE
8
DEFAULT_255_2_778
10
9.9984126
20
-3.5167803
11
9.9984126
21
-4.1168803
0
LINE
8
DEFAULT_255_2_778
10
9.9984126
20
-4.1168803
11
10.8506126
21
-4.1168803
0
LINE
8
DEFAULT_255_2_778
10
10.8506126
20
-4.1168803
11
10.8506126
21
-4.2993803
0
LINE
8
DEFAULT_255_2_778
10
10.8506126
20
-4.2993803
11
9.7750126
21
-4.2993803
0
LINE
8
DEFAULT_255_2_778
10
9.7750126
20
-4.2993803
11
9.7750126
21
-2.6065803
0
LINE
8
DEFAULT_255_2_778
10
9.7750126
20
-2.6065803
11
10.8389126
21
-2.6065803
0
LINE
8
DEFAULT_255_2_778
10
10.8389126
20
-2.6065803
11
10.8389126
21
-2.7902803
0
LINE
8
DEFAULT_255_2_778
10
10.8389126
20
-2.7902803
11
9.9984126
21
-2.7902803
0
LINE
8
DEFAULT_255_2_778
10
9.9984126
20
-2.7902803
11
9.9984126
21
-3.3344803
0
LINE
8
DEFAULT_255_2_778
10
9.9984126
20
-3.3344803
11
10.7320126
21
-3.3344803
0
LINE
8
DEFAULT_255_2_778
10
10.7320126
20
-3.3344803
11
10.7320126
21
-3.3341803
0
ENDSEC
0
EOF