0
SECTION
2
HEADER
9
$MEASUREMENT
70
1
0
ENDSEC
0
SECTION
2
TABLES
0
TABLE
2
LTYPE
0
LTYPE
72
65
70
64
2
CONTINUOUS
3
______
73
0
40
0
0
ENDTAB
0
TABLE
2
LAYER
0
LAYER
2
DEFAULT_255_2_778
70
0
62
255
6
CONTINUOUS
0
ENDTAB
0
ENDSEC
0
SECTION
2
ENTITIES
0
LINE
8
DEFAULT_255_2_778
10
5.7866751
20
1.1164
11
7.8040751
21
1.1164
0
LINE
8
DEFAULT_255_2_778
10
7.8040751
20
1.1164
11
11.3428751
21
1.1164
0
LINE
8
DEFAULT_255_2_778
10
5.6875
20
1.7778583
11
5.6875
21
0.4549583
0
LINE
8
DEFAULT_255_2_778
10
11.2437
20
1.7778583
11
11.2437
21
0.4549583
0
LINE
8
DEFAULT_255_2_778
10
5.6875708
20
1.1164
11
5.0260708
21
1.1164
0
LINE
8
DEFAULT_255_2_778
10
11.2437708
20
1.1164
11
11.9052708
21
1.1164
0
ARC
8
DEFAULT_255_2_778
10
5.6071702
20
-2.7248609
40
1.583365
50
245.2956994
51
253.8312284
0
ARC
8
DEFAULT_255_2_778
10
5.2650676
20
-3.4546495
40
0.7774139
50
230.4093837
51
245.7222794
0
ARC
8
DEFAULT_255_2_778
10
5.098261
20
-3.6702762
40
0.5050206
50
226.2848007
51
229.4025209
0
ARC
8
DEFAULT_255_2_778
10
5.0274259
20
-3.7359296
40
0.4086566
50
178.8316268
51
227.1018056
0
ARC
8
DEFAULT_255_2_778
10
5.0496681
20
-3.7195234
40
0.4308895
50
129.0079241
51
181.0735998
0
ARC
8
DEFAULT_255_2_778
10
5.1484578
20
-3.833246
40
0.5814627
50
94.0000343
51
129.5188676
0
ARC
8
DEFAULT_255_2_778
10
5.1914427
20
-4.1228223
40
0.8736266
50
89.9139806
51
95.487656
0
ARC
8
DEFAULT_255_2_778
10
5.2049103
20
-3.9197851
40
0.6706984
50
63.6068758
51
91.0385085
0
ARC
8
DEFAULT_255_2_778
10
5.2731811
20
-3.7830268
40
0.5178469
50
31.5981097
51
63.6469093
0
ARC
8
DEFAULT_255_2_778
10
5.2819932
20
-3.7769799
40
0.5071733
50
359.6026827
51
31.537865
0
ARC
8
DEFAULT_255_2_778
10
5.2320624
20
-3.765103
40
0.3335473
50
357.3547408
51
40.2291882
0
ARC
8
DEFAULT_255_2_778
10
5.2643697
20
-3.7483325
40
0.2981594
50
41.7785771
51
46.9368164
0
ARC
8
DEFAULT_255_2_778
10
5.2332699
20
-3.7962927
40
0.3545761
50
48.5571108
51
86.6067022
0
ARC
8
DEFAULT_255_2_778
10
5.1942553
20
-4.0526109
40
0.6132152
50
84.3847499
51
90.1122223
0
ARC
8
DEFAULT_255_2_778
10
5.180275
20
-3.9073266
40
0.4681041
50
88.4356211
51
112.2992388
0
ARC
8
DEFAULT_255_2_778
10
5.1198598
20
-3.7416053
40
0.2919357
50
113.670238
51
129.0213037
0
ARC
8
DEFAULT_255_2_778
10
5.0985829
20
-3.7114609
40
0.2551318
50
129.5712734
51
182.7939048
0
ARC
8
DEFAULT_255_2_778
10
5.0725623
20
-3.7250559
40
0.228811
50
179.7097691
51
231.8925364
0
ARC
8
DEFAULT_255_2_778
10
5.2560064
20
-3.4983512
40
0.5204239
50
231.4041916
51
247.2071307
0
ARC
8
DEFAULT_255_2_778
10
5.6037951
20
-2.7142725
40
1.378112
50
246.5054175
51
254.2428523
0
ARC
8
DEFAULT_255_2_778
10
4.7351097
20
-5.7796792
40
1.8080052
50
67.1417797
51
74.1288339
0
ARC
8
DEFAULT_255_2_778
10
5.081201
20
-4.9577074
40
0.9161439
50
58.5682304
51
67.1177439
0
ARC
8
DEFAULT_255_2_778
10
5.3033765
20
-4.6123795
40
0.5057171
50
31.3733414
51
59.6436197
0
ARC
8
DEFAULT_255_2_778
10
5.3383729
20
-4.5703905
40
0.4543196
50
358.5865756
51
29.1493562
0
ARC
8
DEFAULT_255_2_778
10
5.3771287
20
-4.5952142
40
0.4156487
50
307.8997769
51
1.8774291
0
ARC
8
DEFAULT_255_2_778
10
5.2726252
20
-4.4575073
40
0.5885098
50
277.2220447
51
307.6925479
0
ARC
8
DEFAULT_255_2_778
10
5.2081918
20
-4.1032178
40
0.948287
50
269.7681377
51
278.3932365
0
ARC
8
DEFAULT_255_2_778
10
5.1984611
20
-4.2828598
40
0.7686597
50
245.4796153
51
270.4392826
0
ARC
8
DEFAULT_255_2_778
10
5.0979663
20
-4.4770561
40
0.5503769
50
214.9691994
51
246.6078279
0
ARC
8
DEFAULT_255_2_778
10
5.0411603
20
-4.5256104
40
0.4760534
50
179.1919669
51
214.0989022
0
ARC
8
DEFAULT_255_2_778
10
5.0958248
20
-4.5318284
40
0.3071429
50
177.5869799
51
230.9329338
0
ARC
8
DEFAULT_255_2_778
10
5.165856
20
-4.4295485
40
0.4308078
50
232.2745933
51
266.7798162
0
ARC
8
DEFAULT_255_2_778
10
5.2033077
20
-4.1627449
40
0.6996529
50
264.9446898
51
270.0857036
0
ARC
8
DEFAULT_255_2_778
10
5.2167131
20
-4.3168452
40
0.5456917
50
268.7022539
51
288.3812997
0
ARC
8
DEFAULT_255_2_778
10
5.2895937
20
-4.5506356
40
0.3008819
50
289.2498959
51
307.9804722
0
ARC
8
DEFAULT_255_2_778
10
5.3226566
20
-4.5940658
40
0.2463036
50
308.1353501
51
2.3428972
0
ARC
8
DEFAULT_255_2_778
10
5.3267169
20
-4.5709048
40
0.2423912
50
356.9038206
51
50.2675225
0
ARC
8
DEFAULT_255_2_778
10
5.1615908
20
-4.8045109
40
0.5280647
50
52.6914983
51
66.8577665
0
ARC
8
DEFAULT_255_2_778
10
4.7552557
20
-5.7071126
40
1.5178495
50
66.1442305
51
72.8408222
0
ARC
8
DEFAULT_255_2_778
10
4.445481
20
-6.6446758
40
2.5051477
50
72.3975853
51
73.2834586
0
ARC
8
DEFAULT_255_2_778
10
7.5442745
20
-4.507307
40
0.5165885
50
291.3033801
51
325.8235868
0
ARC
8
DEFAULT_255_2_778
10
7.4049375
20
-4.1603195
40
0.8904961
50
272.0352349
51
291.5448753
0
ARC
8
DEFAULT_255_2_778
10
7.374545
20
-3.8048038
40
1.2469933
50
269.9728559
51
272.850709
0
ARC
8
DEFAULT_255_2_778
10
7.3620103
20
-4.3761283
40
0.6757742
50
238.3342941
51
271.0127314
0
ARC
8
DEFAULT_255_2_778
10
7.3627941
20
-4.393411
40
0.6615476
50
204.257201
51
237.4906984
0
ARC
8
DEFAULT_255_2_778
10
7.6477535
20
-4.2589442
40
0.9766072
50
182.9994638
51
204.5812844
0
ARC
8
DEFAULT_255_2_778
10
7.9918487
20
-4.2227175
40
1.3222513
50
180.5320989
51
183.7869051
0
ARC
8
DEFAULT_255_2_778
10
8.0146835
20
-4.0694206
40
1.3450889
50
167.9877728
51
180.5399722
0
ARC
8
DEFAULT_255_2_778
10
7.4643443
20
-3.9460924
40
0.781157
50
144.4891054
51
168.4345246
0
ARC
8
DEFAULT_255_2_778
10
7.3428936
20
-3.8713963
40
0.6389819
50
140.7948886
51
143.615487
0
ARC
8
DEFAULT_255_2_778
10
7.3042978
20
-3.842218
40
0.5906335
50
92.4047894
51
140.6215885
0
ARC
8
DEFAULT_255_2_778
10
7.3475413
20
-4.1378554
40
0.888359
50
89.947569
51
94.3917168
0
ARC
8
DEFAULT_255_2_778
10
7.3617502
20
-3.978406
40
0.7290322
50
69.0136311
51
91.0528624
0
ARC
8
DEFAULT_255_2_778
10
7.4260869
20
-3.7902287
40
0.5303461
50
48.9958268
51
68.2221534
0
ARC
8
DEFAULT_255_2_778
10
7.386094
20
-3.8233652
40
0.5816539
50
11.9906847
51
48.1644406
0
ARC
8
DEFAULT_255_2_778
10
7.1036651
20
-3.9068466
40
0.8755658
50
7.7882275
51
13.4949316
0
ARC
8
DEFAULT_255_2_778
10
7.2469798
20
-3.8653612
40
0.5072777
50
8.7494811
51
32.6415797
0
ARC
8
DEFAULT_255_2_778
10
7.3877331
20
-3.7900731
40
0.348371
50
34.7015876
51
88.5591801
0
ARC
8
DEFAULT_255_2_778
10
7.3500288
20
-4.035385
40
0.5953885
50
85.5241078
51
90.0649083
0
ARC
8
DEFAULT_255_2_778
10
7.3342961
20
-3.8554575
40
0.4157334
50
87.9242469
51
125.4273636
0
ARC
8
DEFAULT_255_2_778
10
7.3248899
20
-3.8236289
40
0.3844967
50
127.0347739
51
145.0193244
0
ARC
8
DEFAULT_255_2_778
10
7.5084743
20
-3.939525
40
0.601447
50
145.9996305
51
168.706309
0
ARC
8
DEFAULT_255_2_778
10
8.0812261
20
-4.0658801
40
1.1879114
50
168.1399676
51
180.0593663
0
ARC
8
DEFAULT_255_2_778
10
8.5515806
20
-4.0829377
40
1.6583407
50
179.4531773
51
179.7601942
0
ARC
8
DEFAULT_255_2_778
10
7.8875299
20
-4.2320411
40
0.994356
50
179.2714096
51
194.701791
0
ARC
8
DEFAULT_255_2_778
10
7.5155874
20
-4.3286658
40
0.6100695
50
194.7894531
51
216.1791231
0
ARC
8
DEFAULT_255_2_778
10
7.3616165
20
-4.4473458
40
0.4157587
50
215.503177
51
271.8108211
0
ARC
8
DEFAULT_255_2_778
10
7.3870589
20
-4.1040788
40
0.7589179
50
269.0709994
51
285.3655938
0
ARC
8
DEFAULT_255_2_778
10
7.4381317
20
-4.325701
40
0.5317689
50
286.386817
51
287.0505179
0
ARC
8
DEFAULT_255_2_778
10
7.4993811
20
-4.5105609
40
0.3371032
50
286.310541
51
317.9382275
0
LINE
8
DEFAULT_255_2_778
10
5.7891543
20
-3.7804969
11
5.5652543
21
-3.7804969
0
LINE
8
DEFAULT_255_2_778
10
4.5651543
20
-4.5188969
11
4.7889543
21
-4.5188969
0
LINE
8
DEFAULT_255_2_778
10
5.1660543
20
-4.2453969
11
5.1662543
21
-4.2455969
0
LINE
8
DEFAULT_255_2_778
10
6.3172543
20
-3.2732969
11
6.3172543
21
-5.0274969
0
LINE
8
DEFAULT_255_2_778
10
6.3172543
20
-5.0274969
11
6.0944543
21
-5.0274969
0
LINE
8
DEFAULT_255_2_778
10
6.0944543
20
-5.0274969
11
6.0944543
21
-3.2732969
0
LINE
8
DEFAULT_255_2_778
10
6.0944543
20
-3.2732969
11
6.3172543
21
-3.2732969
0
LINE
8
DEFAULT_255_2_778
10
6.3172543
20
-3.2732969
11
6.3172543
21
-3.2732969
0
LINE
8
DEFAULT_255_2_778
10
7.9716543
20
-4.1540969
11
7.9716543
21
-4.7974969
0
LINE
8
DEFAULT_255_2_778
10
6.6696543
20
-4.2349969
11
6.6696543
21
-4.0820969
0
LINE
8
DEFAULT_255_2_778
10
7.9711543
20
-3.7881969
11
7.7483543
21
-3.7881969
0
LINE
8
DEFAULT_255_2_778
10
6.8932543
20
-4.0759969
11
6.8932543
21
-4.2193969
0
LINE
8
DEFAULT_255_2_778
10
7.7496543
20
-4.7363969
11
7.7496543
21
-4.3418969
0
LINE
8
DEFAULT_255_2_778
10
7.7496543
20
-4.3418969
11
7.3586543
21
-4.3418969
0
LINE
8
DEFAULT_255_2_778
10
7.3586543
20
-4.3418969
11
7.3586543
21
-4.1540969
0
LINE
8
DEFAULT_255_2_778
10
7.3586543
20
-4.1540969
11
7.9711543
21
-4.1540969
0
LINE
8
DEFAULT_255_2_778
10
7.9711543
20
-4.1540969
11
7.9716543
21
-4.1540969
0
LINE
8
DEFAULT_255_2_778
10
9.5091543
20
-3.2732969
11
9.5091543
21
-5.0274969
0
LINE
8
DEFAULT_255_2_778
10
9.5091543
20
-5.0274969
11
9.2853543
21
-5.0274969
0
LINE
8
DEFAULT_255_2_778
10
9.2853543
20
-5.0274969
11
8.4349543
21
-3.6756969
0
LINE
8
DEFAULT_255_2_778
10
8.4349543
20
-3.6756969
11
8.4349543
21
-5.0274969
0
LINE
8
DEFAULT_255_2_778
10
8.4349543
20
-5.0274969
11
8.2111543
21
-5.0274969
0
LINE
8
DEFAULT_255_2_778
10
8.2111543
20
-5.0274969
11
8.2111543
21
-3.2732969
0
LINE
8
DEFAULT_255_2_778
10
8.2111543
20
-3.2732969
11
8.4349543
21
-3.2732969
0
LINE
8
DEFAULT_255_2_778
10
8.4349543
20
-3.2732969
11
9.2876543
21
-4.6310969
0
LINE
8
DEFAULT_255_2_778
10
9.2876543
20
-4.6310969
11
9.2876543
21
-3.2732969
0
LINE
8
DEFAULT_255_2_778
10
9.2876543
20
-3.2732969
11
9.5094543
21
-3.2732969
0
LINE
8
DEFAULT_255_2_778
10
9.5094543
20
-3.2732969
11
9.5091543
21
-3.2732969
0
LINE
8
DEFAULT_255_2_778
10
10.8876543
20
-5.0274969
11
10.7265543
21
-4.5696969
0
LINE
8
DEFAULT_255_2_778
10
10.7265543
20
-4.5696969
11
10.0187543
21
-4.5696969
0
LINE
8
DEFAULT_255_2_778
10
10.0187543
20
-4.5696969
11
9.8597543
21
-5.0274969
0
LINE
8
DEFAULT_255_2_778
10
9.8597543
20
-5.0274969
11
9.6300543
21
-5.0274969
0
LINE
8
DEFAULT_255_2_778
10
9.6300543
20
-5.0274969
11
10.2751543
21
-3.2732969
0
LINE
8
DEFAULT_255_2_778
10
10.2751543
20
-3.2732969
11
10.4701543
21
-3.2732969
0
LINE
8
DEFAULT_255_2_778
10
10.4701543
20
-3.2732969
11
11.1164543
21
-5.0274969
0
LINE
8
DEFAULT_255_2_778
10
11.1164543
20
-5.0274969
11
10.8878543
21
-5.0274969
0
LINE
8
DEFAULT_255_2_778
10
10.8878543
20
-5.0274969
11
10.8876543
21
-5.0274969
0
LINE
8
DEFAULT_255_2_778
10
10.3724543
20
-3.5587969
11
10.0859543
21
-4.3791969
0
LINE
8
DEFAULT_255_2_778
10
10.0859543
20
-4.3791969
11
10.6603543
21
-4.3791969
0
LINE
8
DEFAULT_255_2_778
10
10.6603543
20
-4.3791969
11
10.3727543
21
-3.5587969
0
LINE
8
DEFAULT_255_2_778
10
10.3727543
20
-3.5587969
11
10.3724543
21
-3.5587969
0
LINE
8
DEFAULT_255_2_778
10
11.5676543
20
-3.2732969
11
11.5676543
21
-4.8382969
0
LINE
8
DEFAULT_255_2_778
10
11.5676543
20
-4.8382969
11
12.3682543
21
-4.8382969
0
LINE
8
DEFAULT_255_2_778
10
12.3682543
20
-4.8382969
11
12.3682543
21
-5.0274969
0
LINE
8
DEFAULT_255_2_778
10
12.3682543
20
-5.0274969
11
11.3437543
21
-5.0274969
0
LINE
8
DEFAULT_255_2_778
10
11.3437543
20
-5.0274969
11
11.3437543
21
-3.2732969
0
LINE
8
DEFAULT_255_2_778
10
11.3437543
20
-3.2732969
11
11.5676543
21
-3.2732969
0
LINE
8
DEFAULT_255_2_778
10
11.5676543
20
-3.2732969
11
11.5676543
21
-3.2732969
0
ENDSEC
0
EOF