0
SECTION
2
HEADER
9
$MEASUREMENT
70
1
0
ENDSEC
0
SECTION
2
TABLES
0
TABLE
2
LTYPE
0
LTYPE
72
65
70
64
2
CONTINUOUS
3
______
73
0
40
0
0
ENDTAB
0
TABLE
2
LAYER
0
LAYER
2
DEFAULT_255_2_778
70
0
62
255
6
CONTINUOUS
0
LAYER
2
DEFAULT_255_1_388
70
0
62
255
6
CONTINUOUS
0
ENDTAB
0
ENDSEC
0
SECTION
2
ENTITIES
0
LINE
8
DEFAULT_255_2_778
10
8.3333
20
7.6979103
11
8.3333
21
0.8849103
0
LINE
8
DEFAULT_255_1_388
10
9.5127318
20
3.9203382
11
9.5127318
21
3.7839
0
LINE
8
DEFAULT_255_1_388
10
9.5127318
20
3.7839
11
8.6507313
21
3.7839
0
LINE
8
DEFAULT_255_1_388
10
8.6507313
20
3.7839
11
8.6507313
21
3.9040741
0
LINE
8
DEFAULT_255_1_388
10
8.6507313
20
3.9040741
11
9.1061278
21
4.4100702
0
LINE
8
DEFAULT_255_1_388
10
8.7925909
20
4.7118607
11
8.6254315
21
4.7118607
0
LINE
8
DEFAULT_255_1_388
10
9.2046163
20
4.302546
11
8.8522262
21
3.9203382
0
LINE
8
DEFAULT_255_1_388
10
8.8522262
20
3.9203382
11
9.5127318
21
3.9203382
0
ARC
8
DEFAULT_255_1_388
10
7.5885337
20
5.7520983
40
2.0258655
50
318.5132526
51
320.7829045
0
ARC
8
DEFAULT_255_1_388
10
8.1833294
20
5.2679929
40
1.2589638
50
320.7372878
51
323.9739031
0
ARC
8
DEFAULT_255_1_388
10
8.6242226
20
4.9485554
40
0.7145141
50
323.8962701
51
328.64194
0
ARC
8
DEFAULT_255_1_388
10
8.8544484
20
4.8065545
40
0.4440242
50
328.8294576
51
331.7891185
0
ARC
8
DEFAULT_255_1_388
10
8.9666804
20
4.7486374
40
0.3177517
50
331.4254512
51
352.9365785
0
ARC
8
DEFAULT_255_1_388
10
8.9819804
20
4.745205
40
0.3021496
50
353.2257659
51
0.0166158
0
ARC
8
DEFAULT_255_1_388
10
9.0056564
20
4.7477894
40
0.2784847
50
359.486299
51
15.9343185
0
ARC
8
DEFAULT_255_1_388
10
9.0626831
20
4.7631269
40
0.2194403
50
16.1712913
51
43.5286088
0
ARC
8
DEFAULT_255_1_388
10
9.0713776
20
4.7718191
40
0.2071504
50
43.4417391
51
83.1661095
0
ARC
8
DEFAULT_255_1_388
10
9.0562937
20
4.6889316
40
0.2912888
50
82.160179
51
90.1505708
0
ARC
8
DEFAULT_255_1_388
10
9.0527418
20
4.6285279
40
0.3517025
50
89.5460741
51
102.5418361
0
ARC
8
DEFAULT_255_1_388
10
9.0254138
20
4.7444933
40
0.2325748
50
102.1738499
51
129.206123
0
ARC
8
DEFAULT_255_1_388
10
9.0165592
20
4.7584664
40
0.2161591
50
129.72865
51
135.753947
0
ARC
8
DEFAULT_255_1_388
10
9.0302074
20
4.7475728
40
0.2335433
50
136.1757367
51
166.3673339
0
ARC
8
DEFAULT_255_1_388
10
9.1434762
20
4.7172148
40
0.3507873
50
165.9090694
51
178.8684636
0
ARC
8
DEFAULT_255_1_388
10
9.2410534
20
4.7119263
40
0.4484624
50
178.4391136
51
180.0083808
0
ARC
8
DEFAULT_255_1_388
10
9.0831235
20
4.7163197
40
0.4577138
50
163.2878482
51
180.5581842
0
ARC
8
DEFAULT_255_1_388
10
8.9929276
20
4.7411393
40
0.3641968
50
133.4540601
51
162.947111
0
ARC
8
DEFAULT_255_1_388
10
9.0130158
20
4.7197789
40
0.3935189
50
100.7869829
51
133.4382499
0
ARC
8
DEFAULT_255_1_388
10
9.0521403
20
4.5455399
40
0.5720313
50
89.660664
51
101.3702276
0
ARC
8
DEFAULT_255_1_388
10
9.0596012
20
4.5524263
40
0.5651495
50
78.2172678
51
90.412935
0
ARC
8
DEFAULT_255_1_388
10
9.0995478
20
4.7351511
40
0.378122
50
55.9269121
51
78.4888449
0
ARC
8
DEFAULT_255_1_388
10
9.1216193
20
4.7732187
40
0.3342379
50
47.929771
51
55.4049217
0
ARC
8
DEFAULT_255_1_388
10
9.1330723
20
4.7848618
40
0.3179217
50
4.334829
51
48.0560205
0
ARC
8
DEFAULT_255_1_388
10
9.0098525
20
4.7657487
40
0.442341
50
359.9251713
51
5.5971671
0
ARC
8
DEFAULT_255_1_388
10
9.058068
20
4.7720728
40
0.3941854
50
337.8914027
51
358.9967534
0
ARC
8
DEFAULT_255_1_388
10
8.752825
20
4.8898295
40
0.7213271
50
326.9132501
51
338.3508308
0
ARC
8
DEFAULT_255_1_388
10
8.3044362
20
5.1772105
40
1.2538973
50
319.6471833
51
327.0959558
0
ARC
8
DEFAULT_255_1_388
10
7.873102
20
5.533005
40
1.8129975
50
317.2588228
51
319.9045804
0
LINE
8
DEFAULT_255_2_778
10
8.9947417
20
7.0695249
11
7.6718417
21
7.0695249
0
LINE
8
DEFAULT_255_2_778
10
8.9947417
20
1.5133249
11
7.6718417
21
1.5133249
0
LINE
8
DEFAULT_255_2_778
10
8.3333
20
7.0694832
11
8.3333
21
7.7309832
0
LINE
8
DEFAULT_255_2_778
10
8.3333
20
1.5132832
11
8.3333
21
0.8517832
0
ARC
8
DEFAULT_255_2_778
10
5.6071702
20
-0.7405609
40
1.583365
50
245.2956994
51
253.8312284
0
ARC
8
DEFAULT_255_2_778
10
5.2650676
20
-1.4703495
40
0.7774139
50
230.4093837
51
245.7222794
0
ARC
8
DEFAULT_255_2_778
10
5.098261
20
-1.6859762
40
0.5050206
50
226.2848007
51
229.4025209
0
ARC
8
DEFAULT_255_2_778
10
5.0274259
20
-1.7516296
40
0.4086566
50
178.8316268
51
227.1018056
0
ARC
8
DEFAULT_255_2_778
10
5.0496681
20
-1.7352234
40
0.4308895
50
129.0079241
51
181.0735998
0
ARC
8
DEFAULT_255_2_778
10
5.1484578
20
-1.848946
40
0.5814627
50
94.0000343
51
129.5188676
0
ARC
8
DEFAULT_255_2_778
10
5.1914427
20
-2.1385223
40
0.8736266
50
89.9139806
51
95.487656
0
ARC
8
DEFAULT_255_2_778
10
5.2049103
20
-1.9354851
40
0.6706984
50
63.6068758
51
91.0385085
0
ARC
8
DEFAULT_255_2_778
10
5.2731811
20
-1.7987268
40
0.5178469
50
31.5981097
51
63.6469093
0
ARC
8
DEFAULT_255_2_778
10
5.2819932
20
-1.7926799
40
0.5071733
50
359.6026827
51
31.537865
0
ARC
8
DEFAULT_255_2_778
10
5.2320624
20
-1.780803
40
0.3335473
50
357.3547408
51
40.2291882
0
ARC
8
DEFAULT_255_2_778
10
5.2643697
20
-1.7640325
40
0.2981594
50
41.7785771
51
46.9368164
0
ARC
8
DEFAULT_255_2_778
10
5.2332699
20
-1.8119927
40
0.3545761
50
48.5571108
51
86.6067022
0
ARC
8
DEFAULT_255_2_778
10
5.1942553
20
-2.0683109
40
0.6132152
50
84.3847499
51
90.1122223
0
ARC
8
DEFAULT_255_2_778
10
5.180275
20
-1.9230266
40
0.4681041
50
88.4356211
51
112.2992388
0
ARC
8
DEFAULT_255_2_778
10
5.1198598
20
-1.7573053
40
0.2919357
50
113.670238
51
129.0213037
0
ARC
8
DEFAULT_255_2_778
10
5.0985829
20
-1.7271609
40
0.2551318
50
129.5712734
51
182.7939048
0
ARC
8
DEFAULT_255_2_778
10
5.0725623
20
-1.7407559
40
0.228811
50
179.7097691
51
231.8925364
0
ARC
8
DEFAULT_255_2_778
10
5.2560064
20
-1.5140512
40
0.5204239
50
231.4041916
51
247.2071307
0
ARC
8
DEFAULT_255_2_778
10
5.6037951
20
-0.7299725
40
1.378112
50
246.5054175
51
254.2428523
0
ARC
8
DEFAULT_255_2_778
10
4.7351097
20
-3.7953792
40
1.8080052
50
67.1417797
51
74.1288339
0
ARC
8
DEFAULT_255_2_778
10
5.081201
20
-2.9734074
40
0.9161439
50
58.5682304
51
67.1177439
0
ARC
8
DEFAULT_255_2_778
10
5.3033765
20
-2.6280795
40
0.5057171
50
31.3733414
51
59.6436197
0
ARC
8
DEFAULT_255_2_778
10
5.3383729
20
-2.5860905
40
0.4543196
50
358.5865756
51
29.1493562
0
ARC
8
DEFAULT_255_2_778
10
5.3771287
20
-2.6109142
40
0.4156487
50
307.8997769
51
1.8774291
0
ARC
8
DEFAULT_255_2_778
10
5.2726252
20
-2.4732073
40
0.5885098
50
277.2220447
51
307.6925479
0
ARC
8
DEFAULT_255_2_778
10
5.2081918
20
-2.1189178
40
0.948287
50
269.7681377
51
278.3932365
0
ARC
8
DEFAULT_255_2_778
10
5.1984611
20
-2.2985598
40
0.7686597
50
245.4796153
51
270.4392826
0
ARC
8
DEFAULT_255_2_778
10
5.0979663
20
-2.4927561
40
0.5503769
50
214.9691994
51
246.6078279
0
ARC
8
DEFAULT_255_2_778
10
5.0411603
20
-2.5413104
40
0.4760534
50
179.1919669
51
214.0989022
0
ARC
8
DEFAULT_255_2_778
10
5.0958248
20
-2.5475284
40
0.3071429
50
177.5869799
51
230.9329338
0
ARC
8
DEFAULT_255_2_778
10
5.165856
20
-2.4452485
40
0.4308078
50
232.2745933
51
266.7798162
0
ARC
8
DEFAULT_255_2_778
10
5.2033077
20
-2.1784449
40
0.6996529
50
264.9446898
51
270.0857036
0
ARC
8
DEFAULT_255_2_778
10
5.2167131
20
-2.3325452
40
0.5456917
50
268.7022539
51
288.3812997
0
ARC
8
DEFAULT_255_2_778
10
5.2895937
20
-2.5663356
40
0.3008819
50
289.2498959
51
307.9804722
0
ARC
8
DEFAULT_255_2_778
10
5.3226566
20
-2.6097658
40
0.2463036
50
308.1353501
51
2.3428972
0
ARC
8
DEFAULT_255_2_778
10
5.3267169
20
-2.5866048
40
0.2423912
50
356.9038206
51
50.2675225
0
ARC
8
DEFAULT_255_2_778
10
5.1615908
20
-2.8202109
40
0.5280647
50
52.6914983
51
66.8577665
0
ARC
8
DEFAULT_255_2_778
10
4.7552557
20
-3.7228126
40
1.5178495
50
66.1442305
51
72.8408222
0
ARC
8
DEFAULT_255_2_778
10
4.445481
20
-4.6603758
40
2.5051477
50
72.3975853
51
73.2834586
0
ARC
8
DEFAULT_255_2_778
10
7.5442745
20
-2.523007
40
0.5165885
50
291.3033801
51
325.8235868
0
ARC
8
DEFAULT_255_2_778
10
7.4049375
20
-2.1760195
40
0.8904961
50
272.0352349
51
291.5448753
0
ARC
8
DEFAULT_255_2_778
10
7.374545
20
-1.8205038
40
1.2469933
50
269.9728559
51
272.850709
0
ARC
8
DEFAULT_255_2_778
10
7.3620103
20
-2.3918283
40
0.6757742
50
238.3342941
51
271.0127314
0
ARC
8
DEFAULT_255_2_778
10
7.3627941
20
-2.409111
40
0.6615476
50
204.257201
51
237.4906984
0
ARC
8
DEFAULT_255_2_778
10
7.6477535
20
-2.2746442
40
0.9766072
50
182.9994638
51
204.5812844
0
ARC
8
DEFAULT_255_2_778
10
7.9918487
20
-2.2384175
40
1.3222513
50
180.5320989
51
183.7869051
0
ARC
8
DEFAULT_255_2_778
10
8.0146835
20
-2.0851206
40
1.3450889
50
167.9877728
51
180.5399722
0
ARC
8
DEFAULT_255_2_778
10
7.4643443
20
-1.9617924
40
0.781157
50
144.4891054
51
168.4345246
0
ARC
8
DEFAULT_255_2_778
10
7.3428936
20
-1.8870963
40
0.6389819
50
140.7948886
51
143.615487
0
ARC
8
DEFAULT_255_2_778
10
7.3042978
20
-1.857918
40
0.5906335
50
92.4047894
51
140.6215885
0
ARC
8
DEFAULT_255_2_778
10
7.3475413
20
-2.1535554
40
0.888359
50
89.947569
51
94.3917168
0
ARC
8
DEFAULT_255_2_778
10
7.3617502
20
-1.994106
40
0.7290322
50
69.0136311
51
91.0528624
0
ARC
8
DEFAULT_255_2_778
10
7.4260869
20
-1.8059287
40
0.5303461
50
48.9958268
51
68.2221534
0
ARC
8
DEFAULT_255_2_778
10
7.386094
20
-1.8390652
40
0.5816539
50
11.9906847
51
48.1644406
0
ARC
8
DEFAULT_255_2_778
10
7.1036651
20
-1.9225466
40
0.8755658
50
7.7882275
51
13.4949316
0
ARC
8
DEFAULT_255_2_778
10
7.2469798
20
-1.8810612
40
0.5072777
50
8.7494811
51
32.6415797
0
ARC
8
DEFAULT_255_2_778
10
7.3877331
20
-1.8057731
40
0.348371
50
34.7015876
51
88.5591801
0
ARC
8
DEFAULT_255_2_778
10
7.3500288
20
-2.051085
40
0.5953885
50
85.5241078
51
90.0649083
0
ARC
8
DEFAULT_255_2_778
10
7.3342961
20
-1.8711575
40
0.4157334
50
87.9242469
51
125.4273636
0
ARC
8
DEFAULT_255_2_778
10
7.3248899
20
-1.8393289
40
0.3844967
50
127.0347739
51
145.0193244
0
ARC
8
DEFAULT_255_2_778
10
7.5084743
20
-1.955225
40
0.601447
50
145.9996305
51
168.706309
0
ARC
8
DEFAULT_255_2_778
10
8.0812261
20
-2.0815801
40
1.1879114
50
168.1399676
51
180.0593663
0
ARC
8
DEFAULT_255_2_778
10
8.5515806
20
-2.0986377
40
1.6583407
50
179.4531773
51
179.7601942
0
ARC
8
DEFAULT_255_2_778
10
7.8875299
20
-2.2477411
40
0.994356
50
179.2714096
51
194.701791
0
ARC
8
DEFAULT_255_2_778
10
7.5155874
20
-2.3443658
40
0.6100695
50
194.7894531
51
216.1791231
0
ARC
8
DEFAULT_255_2_778
10
7.3616165
20
-2.4630458
40
0.4157587
50
215.503177
51
271.8108211
0
ARC
8
DEFAULT_255_2_778
10
7.3870589
20
-2.1197788
40
0.7589179
50
269.0709994
51
285.3655938
0
ARC
8
DEFAULT_255_2_778
10
7.4381317
20
-2.341401
40
0.5317689
50
286.386817
51
287.0505179
0
ARC
8
DEFAULT_255_2_778
10
7.4993811
20
-2.5262609
40
0.3371032
50
286.310541
51
317.9382275
0
LINE
8
DEFAULT_255_2_778
10
5.7891543
20
-1.7961969
11
5.5652543
21
-1.7961969
0
LINE
8
DEFAULT_255_2_778
10
4.5651543
20
-2.5345969
11
4.7889543
21
-2.5345969
0
LINE
8
DEFAULT_255_2_778
10
5.1660543
20
-2.2610969
11
5.1662543
21
-2.2612969
0
LINE
8
DEFAULT_255_2_778
10
6.3172543
20
-1.2889969
11
6.3172543
21
-3.0431969
0
LINE
8
DEFAULT_255_2_778
10
6.3172543
20
-3.0431969
11
6.0944543
21
-3.0431969
0
LINE
8
DEFAULT_255_2_778
10
6.0944543
20
-3.0431969
11
6.0944543
21
-1.2889969
0
LINE
8
DEFAULT_255_2_778
10
6.0944543
20
-1.2889969
11
6.3172543
21
-1.2889969
0
LINE
8
DEFAULT_255_2_778
10
6.3172543
20
-1.2889969
11
6.3172543
21
-1.2889969
0
LINE
8
DEFAULT_255_2_778
10
7.9716543
20
-2.1697969
11
7.9716543
21
-2.8131969
0
LINE
8
DEFAULT_255_2_778
10
6.6696543
20
-2.2506969
11
6.6696543
21
-2.0977969
0
LINE
8
DEFAULT_255_2_778
10
7.9711543
20
-1.8038969
11
7.7483543
21
-1.8038969
0
LINE
8
DEFAULT_255_2_778
10
6.8932543
20
-2.0916969
11
6.8932543
21
-2.2350969
0
LINE
8
DEFAULT_255_2_778
10
7.7496543
20
-2.7520969
11
7.7496543
21
-2.3575969
0
LINE
8
DEFAULT_255_2_778
10
7.7496543
20
-2.3575969
11
7.3586543
21
-2.3575969
0
LINE
8
DEFAULT_255_2_778
10
7.3586543
20
-2.3575969
11
7.3586543
21
-2.1697969
0
LINE
8
DEFAULT_255_2_778
10
7.3586543
20
-2.1697969
11
7.9711543
21
-2.1697969
0
LINE
8
DEFAULT_255_2_778
10
7.9711543
20
-2.1697969
11
7.9716543
21
-2.1697969
0
LINE
8
DEFAULT_255_2_778
10
9.5091543
20
-1.2889969
11
9.5091543
21
-3.0431969
0
LINE
8
DEFAULT_255_2_778
10
9.5091543
20
-3.0431969
11
9.2853543
21
-3.0431969
0
LINE
8
DEFAULT_255_2_778
10
9.2853543
20
-3.0431969
11
8.4349543
21
-1.6913969
0
LINE
8
DEFAULT_255_2_778
10
8.4349543
20
-1.6913969
11
8.4349543
21
-3.0431969
0
LINE
8
DEFAULT_255_2_778
10
8.4349543
20
-3.0431969
11
8.2111543
21
-3.0431969
0
LINE
8
DEFAULT_255_2_778
10
8.2111543
20
-3.0431969
11
8.2111543
21
-1.2889969
0
LINE
8
DEFAULT_255_2_778
10
8.2111543
20
-1.2889969
11
8.4349543
21
-1.2889969
0
LINE
8
DEFAULT_255_2_778
10
8.4349543
20
-1.2889969
11
9.2876543
21
-2.6467969
0
LINE
8
DEFAULT_255_2_778
10
9.2876543
20
-2.6467969
11
9.2876543
21
-1.2889969
0
LINE
8
DEFAULT_255_2_778
10
9.2876543
20
-1.2889969
11
9.5094543
21
-1.2889969
0
LINE
8
DEFAULT_255_2_778
10
9.5094543
20
-1.2889969
11
9.5091543
21
-1.2889969
0
LINE
8
DEFAULT_255_2_778
10
10.8876543
20
-3.0431969
11
10.7265543
21
-2.5853969
0
LINE
8
DEFAULT_255_2_778
10
10.7265543
20
-2.5853969
11
10.0187543
21
-2.5853969
0
LINE
8
DEFAULT_255_2_778
10
10.0187543
20
-2.5853969
11
9.8597543
21
-3.0431969
0
LINE
8
DEFAULT_255_2_778
10
9.8597543
20
-3.0431969
11
9.6300543
21
-3.0431969
0
LINE
8
DEFAULT_255_2_778
10
9.6300543
20
-3.0431969
11
10.2751543
21
-1.2889969
0
LINE
8
DEFAULT_255_2_778
10
10.2751543
20
-1.2889969
11
10.4701543
21
-1.2889969
0
LINE
8
DEFAULT_255_2_778
10
10.4701543
20
-1.2889969
11
11.1164543
21
-3.0431969
0
LINE
8
DEFAULT_255_2_778
10
11.1164543
20
-3.0431969
11
10.8878543
21
-3.0431969
0
LINE
8
DEFAULT_255_2_778
10
10.8878543
20
-3.0431969
11
10.8876543
21
-3.0431969
0
LINE
8
DEFAULT_255_2_778
10
10.3724543
20
-1.5744969
11
10.0859543
21
-2.3948969
0
LINE
8
DEFAULT_255_2_778
10
10.0859543
20
-2.3948969
11
10.6603543
21
-2.3948969
0
LINE
8
DEFAULT_255_2_778
10
10.6603543
20
-2.3948969
11
10.3727543
21
-1.5744969
0
LINE
8
DEFAULT_255_2_778
10
10.3727543
20
-1.5744969
11
10.3724543
21
-1.5744969
0
LINE
8
DEFAULT_255_2_778
10
11.5676543
20
-1.2889969
11
11.5676543
21
-2.8539969
0
LINE
8
DEFAULT_255_2_778
10
11.5676543
20
-2.8539969
11
12.3682543
21
-2.8539969
0
LINE
8
DEFAULT_255_2_778
10
12.3682543
20
-2.8539969
11
12.3682543
21
-3.0431969
0
LINE
8
DEFAULT_255_2_778
10
12.3682543
20
-3.0431969
11
11.3437543
21
-3.0431969
0
LINE
8
DEFAULT_255_2_778
10
11.3437543
20
-3.0431969
11
11.3437543
21
-1.2889969
0
LINE
8
DEFAULT_255_2_778
10
11.3437543
20
-1.2889969
11
11.5676543
21
-1.2889969
0
LINE
8
DEFAULT_255_2_778
10
11.5676543
20
-1.2889969
11
11.5676543
21
-1.2889969
0
ENDSEC
0
EOF