0
SECTION
2
HEADER
9
$MEASUREMENT
70
1
0
ENDSEC
0
SECTION
2
TABLES
0
TABLE
2
LTYPE
0
LTYPE
72
65
70
64
2
CONTINUOUS
3
______
73
0
40
0
0
ENDTAB
0
TABLE
2
LAYER
0
LAYER
2
DEFAULT_255_2_778
70
0
62
255
6
CONTINUOUS
0
ENDTAB
0
ENDSEC
0
SECTION
2
ENTITIES
0
LINE
8
DEFAULT_255_2_778
10
4.8948251
20
11.4329176
11
8.5990251
21
11.4329176
0
LINE
8
DEFAULT_255_2_778
10
8.5990251
20
11.4329176
11
8.5990251
21
2.4035176
0
LINE
8
DEFAULT_255_2_778
10
8.5990251
20
2.4035176
11
12.0385251
21
2.4035176
0
LINE
8
DEFAULT_255_2_778
10
4.8948
20
10.7690719
11
4.8948
21
12.0969719
0
LINE
8
DEFAULT_255_2_778
10
4.8947959
20
11.4329374
11
4.2332959
21
11.4329374
0
LINE
8
DEFAULT_255_2_778
10
12.0384959
20
1.7396374
11
12.0384959
21
3.0676374
0
LINE
8
DEFAULT_255_2_778
10
12.7000708
20
2.4035
11
12.0385708
21
2.4035
0
ARC
8
DEFAULT_255_2_778
10
5.8727702
20
0.7148391
40
1.583365
50
245.2956994
51
253.8312284
0
ARC
8
DEFAULT_255_2_778
10
5.5306676
20
-0.0149495
40
0.7774139
50
230.4093837
51
245.7222794
0
ARC
8
DEFAULT_255_2_778
10
5.363861
20
-0.2305762
40
0.5050206
50
226.2848007
51
229.4025209
0
ARC
8
DEFAULT_255_2_778
10
5.2930259
20
-0.2962296
40
0.4086566
50
178.8316268
51
227.1018056
0
ARC
8
DEFAULT_255_2_778
10
5.3152681
20
-0.2798234
40
0.4308895
50
129.0079241
51
181.0735998
0
ARC
8
DEFAULT_255_2_778
10
5.4140578
20
-0.393546
40
0.5814627
50
94.0000343
51
129.5188676
0
ARC
8
DEFAULT_255_2_778
10
5.4570427
20
-0.6831223
40
0.8736266
50
89.9139806
51
95.487656
0
ARC
8
DEFAULT_255_2_778
10
5.4705103
20
-0.4800851
40
0.6706984
50
63.6068758
51
91.0385085
0
ARC
8
DEFAULT_255_2_778
10
5.5387811
20
-0.3433268
40
0.5178469
50
31.5981097
51
63.6469093
0
ARC
8
DEFAULT_255_2_778
10
5.5475932
20
-0.3372799
40
0.5071733
50
359.6026827
51
31.537865
0
ARC
8
DEFAULT_255_2_778
10
5.4976624
20
-0.325403
40
0.3335473
50
357.3547408
51
40.2291882
0
ARC
8
DEFAULT_255_2_778
10
5.5299697
20
-0.3086325
40
0.2981594
50
41.7785771
51
46.9368164
0
ARC
8
DEFAULT_255_2_778
10
5.4988699
20
-0.3565927
40
0.3545761
50
48.5571108
51
86.6067022
0
ARC
8
DEFAULT_255_2_778
10
5.4598553
20
-0.6129109
40
0.6132152
50
84.3847499
51
90.1122223
0
ARC
8
DEFAULT_255_2_778
10
5.445875
20
-0.4676266
40
0.4681041
50
88.4356211
51
112.2992388
0
ARC
8
DEFAULT_255_2_778
10
5.3854598
20
-0.3019053
40
0.2919357
50
113.670238
51
129.0213037
0
ARC
8
DEFAULT_255_2_778
10
5.3641829
20
-0.2717609
40
0.2551318
50
129.5712734
51
182.7939048
0
ARC
8
DEFAULT_255_2_778
10
5.3381623
20
-0.2853559
40
0.228811
50
179.7097691
51
231.8925364
0
ARC
8
DEFAULT_255_2_778
10
5.5216064
20
-0.0586512
40
0.5204239
50
231.4041916
51
247.2071307
0
ARC
8
DEFAULT_255_2_778
10
5.8693951
20
0.7254275
40
1.378112
50
246.5054175
51
254.2428523
0
ARC
8
DEFAULT_255_2_778
10
5.0007097
20
-2.3399792
40
1.8080052
50
67.1417797
51
74.1288339
0
ARC
8
DEFAULT_255_2_778
10
5.346801
20
-1.5180074
40
0.9161439
50
58.5682304
51
67.1177439
0
ARC
8
DEFAULT_255_2_778
10
5.5689765
20
-1.1726795
40
0.5057171
50
31.3733414
51
59.6436197
0
ARC
8
DEFAULT_255_2_778
10
5.6039729
20
-1.1306905
40
0.4543196
50
358.5865756
51
29.1493562
0
ARC
8
DEFAULT_255_2_778
10
5.6427287
20
-1.1555142
40
0.4156487
50
307.8997769
51
1.8774291
0
ARC
8
DEFAULT_255_2_778
10
5.5382252
20
-1.0178073
40
0.5885098
50
277.2220447
51
307.6925479
0
ARC
8
DEFAULT_255_2_778
10
5.4737918
20
-0.6635178
40
0.948287
50
269.7681377
51
278.3932365
0
ARC
8
DEFAULT_255_2_778
10
5.4640611
20
-0.8431598
40
0.7686597
50
245.4796153
51
270.4392826
0
ARC
8
DEFAULT_255_2_778
10
5.3635663
20
-1.0373561
40
0.5503769
50
214.9691994
51
246.6078279
0
ARC
8
DEFAULT_255_2_778
10
5.3067603
20
-1.0859104
40
0.4760534
50
179.1919669
51
214.0989022
0
ARC
8
DEFAULT_255_2_778
10
5.3614248
20
-1.0921284
40
0.3071429
50
177.5869799
51
230.9329338
0
ARC
8
DEFAULT_255_2_778
10
5.431456
20
-0.9898485
40
0.4308078
50
232.2745933
51
266.7798162
0
ARC
8
DEFAULT_255_2_778
10
5.4689077
20
-0.7230449
40
0.6996529
50
264.9446898
51
270.0857036
0
ARC
8
DEFAULT_255_2_778
10
5.4823131
20
-0.8771452
40
0.5456917
50
268.7022539
51
288.3812997
0
ARC
8
DEFAULT_255_2_778
10
5.5551937
20
-1.1109356
40
0.3008819
50
289.2498959
51
307.9804722
0
ARC
8
DEFAULT_255_2_778
10
5.5882566
20
-1.1543658
40
0.2463036
50
308.1353501
51
2.3428972
0
ARC
8
DEFAULT_255_2_778
10
5.5923169
20
-1.1312048
40
0.2423912
50
356.9038206
51
50.2675225
0
ARC
8
DEFAULT_255_2_778
10
5.4271908
20
-1.3648109
40
0.5280647
50
52.6914983
51
66.8577665
0
ARC
8
DEFAULT_255_2_778
10
5.0208557
20
-2.2674126
40
1.5178495
50
66.1442305
51
72.8408222
0
ARC
8
DEFAULT_255_2_778
10
4.711081
20
-3.2049758
40
2.5051477
50
72.3975853
51
73.2834586
0
ARC
8
DEFAULT_255_2_778
10
7.8097388
20
-1.0670606
40
0.5172559
50
291.3263496
51
325.8006174
0
ARC
8
DEFAULT_255_2_778
10
7.6707004
20
-0.7199491
40
0.8911701
50
272.0408175
51
291.5372442
0
ARC
8
DEFAULT_255_2_778
10
7.6404427
20
-0.3660691
40
1.246028
50
269.972943
51
272.8518136
0
ARC
8
DEFAULT_255_2_778
10
7.6279103
20
-0.9364283
40
0.6757742
50
238.3342941
51
271.0127314
0
ARC
8
DEFAULT_255_2_778
10
7.629057
20
-0.953186
40
0.6621854
50
204.2821638
51
237.4886326
0
ARC
8
DEFAULT_255_2_778
10
7.9126647
20
-0.8196576
40
0.9756269
50
182.9781643
51
204.5809151
0
ARC
8
DEFAULT_255_2_778
10
8.256556
20
-0.7835683
40
1.3210538
50
180.5086906
51
183.7664013
0
ARC
8
DEFAULT_255_2_778
10
8.2812902
20
-0.6297178
40
1.3457956
50
167.9942968
51
180.5398074
0
ARC
8
DEFAULT_255_2_778
10
7.7305536
20
-0.5063719
40
0.7814721
50
144.5193486
51
168.4407863
0
ARC
8
DEFAULT_255_2_778
10
7.6088259
20
-0.4315768
40
0.6390088
50
140.8106838
51
143.6453045
0
ARC
8
DEFAULT_255_2_778
10
7.5714962
20
-0.4040789
40
0.5927048
50
92.0365903
51
140.5907179
0
ARC
8
DEFAULT_255_2_778
10
7.6137555
20
-0.700861
40
0.8913645
50
89.9550818
51
94.0737297
0
ARC
8
DEFAULT_255_2_778
10
7.6278803
20
-0.5384968
40
0.7291235
50
69.0148369
51
91.0550977
0
ARC
8
DEFAULT_255_2_778
10
7.6924474
20
-0.3496981
40
0.5297747
50
48.9794368
51
68.2221516
0
ARC
8
DEFAULT_255_2_778
10
7.652194
20
-0.3833652
40
0.5816539
50
11.9906847
51
48.1644406
0
ARC
8
DEFAULT_255_2_778
10
7.3697651
20
-0.4668466
40
0.8755658
50
7.7882275
51
13.4949316
0
ARC
8
DEFAULT_255_2_778
10
7.5130798
20
-0.4253612
40
0.5072777
50
8.7494811
51
32.6415797
0
ARC
8
DEFAULT_255_2_778
10
7.6538331
20
-0.3500731
40
0.348371
50
34.7015876
51
88.5591801
0
ARC
8
DEFAULT_255_2_778
10
7.6161288
20
-0.595385
40
0.5953885
50
85.5241078
51
90.0649083
0
ARC
8
DEFAULT_255_2_778
10
7.6004344
20
-0.4155313
40
0.4158058
50
87.9298894
51
125.3199622
0
ARC
8
DEFAULT_255_2_778
10
7.5907272
20
-0.3831529
40
0.3839268
50
126.9317595
51
145.0464989
0
ARC
8
DEFAULT_255_2_778
10
7.7743131
20
-0.4995713
40
0.6011735
50
145.9767243
51
168.6994292
0
ARC
8
DEFAULT_255_2_778
10
8.3347131
20
-0.6242377
40
1.1752037
50
168.093124
51
179.7144143
0
ARC
8
DEFAULT_255_2_778
10
8.8018397
20
-0.6429609
40
1.6424997
50
179.1425061
51
179.7605597
0
ARC
8
DEFAULT_255_2_778
10
8.1531411
20
-0.7921296
40
0.9938671
50
179.2717134
51
194.7054011
0
ARC
8
DEFAULT_255_2_778
10
7.7817007
20
-0.8886404
40
0.6100952
50
194.7937084
51
216.1803079
0
ARC
8
DEFAULT_255_2_778
10
7.6277165
20
-1.0073458
40
0.4157587
50
215.503177
51
271.8108211
0
ARC
8
DEFAULT_255_2_778
10
7.6531993
20
-0.6636547
40
0.7593425
50
269.0684721
51
285.3614468
0
ARC
8
DEFAULT_255_2_778
10
7.7048203
20
-0.8873105
40
0.5300868
50
286.3852277
51
287.0510448
0
ARC
8
DEFAULT_255_2_778
10
7.7651252
20
-1.0696026
40
0.338151
50
286.3390799
51
317.8568527
0
LINE
8
DEFAULT_255_2_778
10
6.0547543
20
-0.3407969
11
5.8308543
21
-0.3407969
0
LINE
8
DEFAULT_255_2_778
10
4.8307543
20
-1.0791969
11
5.0545543
21
-1.0791969
0
LINE
8
DEFAULT_255_2_778
10
5.4316543
20
-0.8056969
11
5.4318543
21
-0.8058969
0
LINE
8
DEFAULT_255_2_778
10
6.5828543
20
0.1664031
11
6.5828543
21
-1.5877969
0
LINE
8
DEFAULT_255_2_778
10
6.5828543
20
-1.5877969
11
6.3600543
21
-1.5877969
0
LINE
8
DEFAULT_255_2_778
10
6.3600543
20
-1.5877969
11
6.3600543
21
0.1664031
0
LINE
8
DEFAULT_255_2_778
10
6.3600543
20
0.1664031
11
6.5828543
21
0.1664031
0
LINE
8
DEFAULT_255_2_778
10
6.5828543
20
0.1664031
11
6.5828543
21
0.1664031
0
LINE
8
DEFAULT_255_2_778
10
8.2375543
20
-0.7143969
11
8.2375543
21
-1.3577969
0
LINE
8
DEFAULT_255_2_778
10
6.9355543
20
-0.7952969
11
6.9355543
21
-0.6423969
0
LINE
8
DEFAULT_255_2_778
10
8.2372543
20
-0.3481969
11
8.0144543
21
-0.3481969
0
LINE
8
DEFAULT_255_2_778
10
7.1593543
20
-0.6360969
11
7.1593543
21
-0.7794969
0
LINE
8
DEFAULT_255_2_778
10
8.0158543
20
-1.2964969
11
8.0158543
21
-0.9021969
0
LINE
8
DEFAULT_255_2_778
10
8.0158543
20
-0.9021969
11
7.6247543
21
-0.9021969
0
LINE
8
DEFAULT_255_2_778
10
7.6247543
20
-0.9021969
11
7.6247543
21
-0.7143969
0
LINE
8
DEFAULT_255_2_778
10
7.6247543
20
-0.7143969
11
8.2372543
21
-0.7143969
0
LINE
8
DEFAULT_255_2_778
10
8.2372543
20
-0.7143969
11
8.2375543
21
-0.7143969
0
LINE
8
DEFAULT_255_2_778
10
9.7750543
20
0.1664031
11
9.7750543
21
-1.5877969
0
LINE
8
DEFAULT_255_2_778
10
9.7750543
20
-1.5877969
11
9.5511543
21
-1.5877969
0
LINE
8
DEFAULT_255_2_778
10
9.5511543
20
-1.5877969
11
8.7008543
21
-0.2359969
0
LINE
8
DEFAULT_255_2_778
10
8.7008543
20
-0.2359969
11
8.7008543
21
-1.5877969
0
LINE
8
DEFAULT_255_2_778
10
8.7008543
20
-1.5877969
11
8.4769543
21
-1.5877969
0
LINE
8
DEFAULT_255_2_778
10
8.4769543
20
-1.5877969
11
8.4769543
21
0.1664031
0
LINE
8
DEFAULT_255_2_778
10
8.4769543
20
0.1664031
11
8.7008543
21
0.1664031
0
LINE
8
DEFAULT_255_2_778
10
8.7008543
20
0.1664031
11
9.5535543
21
-1.1913969
0
LINE
8
DEFAULT_255_2_778
10
9.5535543
20
-1.1913969
11
9.5535543
21
0.1664031
0
LINE
8
DEFAULT_255_2_778
10
9.5535543
20
0.1664031
11
9.7752543
21
0.1664031
0
LINE
8
DEFAULT_255_2_778
10
9.7752543
20
0.1664031
11
9.7750543
21
0.1664031
0
LINE
8
DEFAULT_255_2_778
10
11.1532543
20
-1.5877969
11
10.9921543
21
-1.1299969
0
LINE
8
DEFAULT_255_2_778
10
10.9921543
20
-1.1299969
11
10.2843543
21
-1.1299969
0
LINE
8
DEFAULT_255_2_778
10
10.2843543
20
-1.1299969
11
10.1253543
21
-1.5877969
0
LINE
8
DEFAULT_255_2_778
10
10.1253543
20
-1.5877969
11
9.8956543
21
-1.5877969
0
LINE
8
DEFAULT_255_2_778
10
9.8956543
20
-1.5877969
11
10.5407543
21
0.1664031
0
LINE
8
DEFAULT_255_2_778
10
10.5407543
20
0.1664031
11
10.7357543
21
0.1664031
0
LINE
8
DEFAULT_255_2_778
10
10.7357543
20
0.1664031
11
11.3820543
21
-1.5877969
0
LINE
8
DEFAULT_255_2_778
10
11.3820543
20
-1.5877969
11
11.1534543
21
-1.5877969
0
LINE
8
DEFAULT_255_2_778
10
11.1534543
20
-1.5877969
11
11.1532543
21
-1.5877969
0
LINE
8
DEFAULT_255_2_778
10
10.6380543
20
-0.1190969
11
10.3515543
21
-0.9394969
0
LINE
8
DEFAULT_255_2_778
10
10.3515543
20
-0.9394969
11
10.9259543
21
-0.9394969
0
LINE
8
DEFAULT_255_2_778
10
10.9259543
20
-0.9394969
11
10.6383543
21
-0.1190969
0
LINE
8
DEFAULT_255_2_778
10
10.6383543
20
-0.1190969
11
10.6380543
21
-0.1190969
0
LINE
8
DEFAULT_255_2_778
10
11.8332543
20
0.1664031
11
11.8332543
21
-1.3985969
0
LINE
8
DEFAULT_255_2_778
10
11.8332543
20
-1.3985969
11
12.6338543
21
-1.3985969
0
LINE
8
DEFAULT_255_2_778
10
12.6338543
20
-1.3985969
11
12.6338543
21
-1.5877969
0
LINE
8
DEFAULT_255_2_778
10
12.6338543
20
-1.5877969
11
11.6093543
21
-1.5877969
0
LINE
8
DEFAULT_255_2_778
10
11.6093543
20
-1.5877969
11
11.6093543
21
0.1664031
0
LINE
8
DEFAULT_255_2_778
10
11.6093543
20
0.1664031
11
11.8332543
21
0.1664031
0
LINE
8
DEFAULT_255_2_778
10
11.8332543
20
0.1664031
11
11.8332543
21
0.1664031
0
ENDSEC
0
EOF