0
SECTION
2
HEADER
9
$MEASUREMENT
70
1
0
ENDSEC
0
SECTION
2
TABLES
0
TABLE
2
LTYPE
0
LTYPE
72
65
70
64
2
CONTINUOUS
3
______
73
0
40
0
0
ENDTAB
0
TABLE
2
LAYER
0
LAYER
2
DEFAULT_255_2_778
70
0
62
255
6
CONTINUOUS
0
LAYER
2
DEFAULT_255_1_388
70
0
62
255
6
CONTINUOUS
0
ENDTAB
0
ENDSEC
0
SECTION
2
ENTITIES
0
LINE
8
DEFAULT_255_2_778
10
5.4228751
20
12.0966853
11
5.4228751
21
6.6726853
0
LINE
8
DEFAULT_255_2_778
10
5.4228751
20
6.6726853
11
10.9790751
21
6.6726853
0
LINE
8
DEFAULT_255_2_778
10
10.9790751
20
6.6726853
11
10.9790751
21
1.3148853
0
LINE
8
DEFAULT_255_1_388
10
7.3285376
20
8.7375898
11
7.670085
21
8.0770842
0
LINE
8
DEFAULT_255_1_388
10
7.670085
20
8.0770842
11
8.0134395
21
8.7375898
0
LINE
8
DEFAULT_255_1_388
10
8.0134395
20
8.7375898
11
8.2104166
21
8.7375898
0
LINE
8
DEFAULT_255_1_388
10
8.2104166
20
8.7375898
11
7.7568272
21
7.9126355
0
LINE
8
DEFAULT_255_1_388
10
7.7568272
20
7.9126355
11
7.7568272
21
7.422
0
LINE
8
DEFAULT_255_1_388
10
7.7568272
20
7.422
11
7.5833428
21
7.422
0
LINE
8
DEFAULT_255_1_388
10
7.5833428
20
7.422
11
7.5833428
21
7.9126355
0
LINE
8
DEFAULT_255_1_388
10
7.5833428
20
7.9126355
11
7.1297535
21
8.7375898
0
LINE
8
DEFAULT_255_1_388
10
7.1297535
20
8.7375898
11
7.3285376
21
8.7375898
0
LINE
8
DEFAULT_255_2_778
10
4.7614168
20
11.435129
11
6.0843168
21
11.435129
0
LINE
8
DEFAULT_255_2_778
10
10.3176168
20
1.910129
11
11.6406168
21
1.910129
0
LINE
8
DEFAULT_255_2_778
10
5.4226168
20
11.468229
11
5.4226168
21
12.096629
0
LINE
8
DEFAULT_255_2_778
10
10.9789
20
1.2487292
11
10.9789
21
1.9102292
0
ARC
8
DEFAULT_255_2_778
10
5.6071702
20
0.7147391
40
1.583365
50
245.2956994
51
253.8312284
0
ARC
8
DEFAULT_255_2_778
10
5.2650676
20
-0.0150495
40
0.7774139
50
230.4093837
51
245.7222794
0
ARC
8
DEFAULT_255_2_778
10
5.098261
20
-0.2306762
40
0.5050206
50
226.2848007
51
229.4025209
0
ARC
8
DEFAULT_255_2_778
10
5.0274259
20
-0.2963296
40
0.4086566
50
178.8316268
51
227.1018056
0
ARC
8
DEFAULT_255_2_778
10
5.0496681
20
-0.2799234
40
0.4308895
50
129.0079241
51
181.0735998
0
ARC
8
DEFAULT_255_2_778
10
5.1484578
20
-0.393646
40
0.5814627
50
94.0000343
51
129.5188676
0
ARC
8
DEFAULT_255_2_778
10
5.1914427
20
-0.6832223
40
0.8736266
50
89.9139806
51
95.487656
0
ARC
8
DEFAULT_255_2_778
10
5.2049103
20
-0.4801851
40
0.6706984
50
63.6068758
51
91.0385085
0
ARC
8
DEFAULT_255_2_778
10
5.2731811
20
-0.3434268
40
0.5178469
50
31.5981097
51
63.6469093
0
ARC
8
DEFAULT_255_2_778
10
5.2819932
20
-0.3373799
40
0.5071733
50
359.6026827
51
31.537865
0
ARC
8
DEFAULT_255_2_778
10
5.2320624
20
-0.325503
40
0.3335473
50
357.3547408
51
40.2291882
0
ARC
8
DEFAULT_255_2_778
10
5.2643697
20
-0.3087325
40
0.2981594
50
41.7785771
51
46.9368164
0
ARC
8
DEFAULT_255_2_778
10
5.2332699
20
-0.3566927
40
0.3545761
50
48.5571108
51
86.6067022
0
ARC
8
DEFAULT_255_2_778
10
5.1942553
20
-0.6130109
40
0.6132152
50
84.3847499
51
90.1122223
0
ARC
8
DEFAULT_255_2_778
10
5.180275
20
-0.4677266
40
0.4681041
50
88.4356211
51
112.2992388
0
ARC
8
DEFAULT_255_2_778
10
5.1198598
20
-0.3020053
40
0.2919357
50
113.670238
51
129.0213037
0
ARC
8
DEFAULT_255_2_778
10
5.0985829
20
-0.2718609
40
0.2551318
50
129.5712734
51
182.7939048
0
ARC
8
DEFAULT_255_2_778
10
5.0725623
20
-0.2854559
40
0.228811
50
179.7097691
51
231.8925364
0
ARC
8
DEFAULT_255_2_778
10
5.2560064
20
-0.0587512
40
0.5204239
50
231.4041916
51
247.2071307
0
ARC
8
DEFAULT_255_2_778
10
5.6037951
20
0.7253275
40
1.378112
50
246.5054175
51
254.2428523
0
ARC
8
DEFAULT_255_2_778
10
4.7351097
20
-2.3400792
40
1.8080052
50
67.1417797
51
74.1288339
0
ARC
8
DEFAULT_255_2_778
10
5.081201
20
-1.5181074
40
0.9161439
50
58.5682304
51
67.1177439
0
ARC
8
DEFAULT_255_2_778
10
5.3033765
20
-1.1727795
40
0.5057171
50
31.3733414
51
59.6436197
0
ARC
8
DEFAULT_255_2_778
10
5.3383729
20
-1.1307905
40
0.4543196
50
358.5865756
51
29.1493562
0
ARC
8
DEFAULT_255_2_778
10
5.3771287
20
-1.1556142
40
0.4156487
50
307.8997769
51
1.8774291
0
ARC
8
DEFAULT_255_2_778
10
5.2726252
20
-1.0179073
40
0.5885098
50
277.2220447
51
307.6925479
0
ARC
8
DEFAULT_255_2_778
10
5.2081918
20
-0.6636178
40
0.948287
50
269.7681377
51
278.3932365
0
ARC
8
DEFAULT_255_2_778
10
5.1984611
20
-0.8432598
40
0.7686597
50
245.4796153
51
270.4392826
0
ARC
8
DEFAULT_255_2_778
10
5.0979663
20
-1.0374561
40
0.5503769
50
214.9691994
51
246.6078279
0
ARC
8
DEFAULT_255_2_778
10
5.0411603
20
-1.0860104
40
0.4760534
50
179.1919669
51
214.0989022
0
ARC
8
DEFAULT_255_2_778
10
5.0958248
20
-1.0922284
40
0.3071429
50
177.5869799
51
230.9329338
0
ARC
8
DEFAULT_255_2_778
10
5.165856
20
-0.9899485
40
0.4308078
50
232.2745933
51
266.7798162
0
ARC
8
DEFAULT_255_2_778
10
5.2033077
20
-0.7231449
40
0.6996529
50
264.9446898
51
270.0857036
0
ARC
8
DEFAULT_255_2_778
10
5.2167131
20
-0.8772452
40
0.5456917
50
268.7022539
51
288.3812997
0
ARC
8
DEFAULT_255_2_778
10
5.2895937
20
-1.1110356
40
0.3008819
50
289.2498959
51
307.9804722
0
ARC
8
DEFAULT_255_2_778
10
5.3226566
20
-1.1544658
40
0.2463036
50
308.1353501
51
2.3428972
0
ARC
8
DEFAULT_255_2_778
10
5.3267169
20
-1.1313048
40
0.2423912
50
356.9038206
51
50.2675225
0
ARC
8
DEFAULT_255_2_778
10
5.1615908
20
-1.3649109
40
0.5280647
50
52.6914983
51
66.8577665
0
ARC
8
DEFAULT_255_2_778
10
4.7552557
20
-2.2675126
40
1.5178495
50
66.1442305
51
72.8408222
0
ARC
8
DEFAULT_255_2_778
10
4.445481
20
-3.2050758
40
2.5051477
50
72.3975853
51
73.2834586
0
ARC
8
DEFAULT_255_2_778
10
7.5442745
20
-1.067707
40
0.5165885
50
291.3033801
51
325.8235868
0
ARC
8
DEFAULT_255_2_778
10
7.4049375
20
-0.7207195
40
0.8904961
50
272.0352349
51
291.5448753
0
ARC
8
DEFAULT_255_2_778
10
7.374545
20
-0.3652038
40
1.2469933
50
269.9728559
51
272.850709
0
ARC
8
DEFAULT_255_2_778
10
7.3620103
20
-0.9365283
40
0.6757742
50
238.3342941
51
271.0127314
0
ARC
8
DEFAULT_255_2_778
10
7.3627941
20
-0.953811
40
0.6615476
50
204.257201
51
237.4906984
0
ARC
8
DEFAULT_255_2_778
10
7.6477535
20
-0.8193442
40
0.9766072
50
182.9994638
51
204.5812844
0
ARC
8
DEFAULT_255_2_778
10
7.9918487
20
-0.7831175
40
1.3222513
50
180.5320989
51
183.7869051
0
ARC
8
DEFAULT_255_2_778
10
8.0146835
20
-0.6298206
40
1.3450889
50
167.9877728
51
180.5399722
0
ARC
8
DEFAULT_255_2_778
10
7.4643443
20
-0.5064924
40
0.781157
50
144.4891054
51
168.4345246
0
ARC
8
DEFAULT_255_2_778
10
7.3428936
20
-0.4317963
40
0.6389819
50
140.7948886
51
143.615487
0
ARC
8
DEFAULT_255_2_778
10
7.3042978
20
-0.402618
40
0.5906335
50
92.4047894
51
140.6215885
0
ARC
8
DEFAULT_255_2_778
10
7.3475413
20
-0.6982554
40
0.888359
50
89.947569
51
94.3917168
0
ARC
8
DEFAULT_255_2_778
10
7.3617502
20
-0.538806
40
0.7290322
50
69.0136311
51
91.0528624
0
ARC
8
DEFAULT_255_2_778
10
7.4260869
20
-0.3506287
40
0.5303461
50
48.9958268
51
68.2221534
0
ARC
8
DEFAULT_255_2_778
10
7.386094
20
-0.3837652
40
0.5816539
50
11.9906847
51
48.1644406
0
ARC
8
DEFAULT_255_2_778
10
7.1036651
20
-0.4672466
40
0.8755658
50
7.7882275
51
13.4949316
0
ARC
8
DEFAULT_255_2_778
10
7.2469798
20
-0.4257612
40
0.5072777
50
8.7494811
51
32.6415797
0
ARC
8
DEFAULT_255_2_778
10
7.3877331
20
-0.3504731
40
0.348371
50
34.7015876
51
88.5591801
0
ARC
8
DEFAULT_255_2_778
10
7.3500288
20
-0.595785
40
0.5953885
50
85.5241078
51
90.0649083
0
ARC
8
DEFAULT_255_2_778
10
7.3342961
20
-0.4158575
40
0.4157334
50
87.9242469
51
125.4273636
0
ARC
8
DEFAULT_255_2_778
10
7.3248899
20
-0.3840289
40
0.3844967
50
127.0347739
51
145.0193244
0
ARC
8
DEFAULT_255_2_778
10
7.5084743
20
-0.499925
40
0.601447
50
145.9996305
51
168.706309
0
ARC
8
DEFAULT_255_2_778
10
8.0812261
20
-0.6262801
40
1.1879114
50
168.1399676
51
180.0593663
0
ARC
8
DEFAULT_255_2_778
10
8.5515806
20
-0.6433377
40
1.6583407
50
179.4531773
51
179.7601942
0
ARC
8
DEFAULT_255_2_778
10
7.8875299
20
-0.7924411
40
0.994356
50
179.2714096
51
194.701791
0
ARC
8
DEFAULT_255_2_778
10
7.5155874
20
-0.8890658
40
0.6100695
50
194.7894531
51
216.1791231
0
ARC
8
DEFAULT_255_2_778
10
7.3616165
20
-1.0077458
40
0.4157587
50
215.503177
51
271.8108211
0
ARC
8
DEFAULT_255_2_778
10
7.3870589
20
-0.6644788
40
0.7589179
50
269.0709994
51
285.3655938
0
ARC
8
DEFAULT_255_2_778
10
7.4381317
20
-0.886101
40
0.5317689
50
286.386817
51
287.0505179
0
ARC
8
DEFAULT_255_2_778
10
7.4993811
20
-1.0709609
40
0.3371032
50
286.310541
51
317.9382275
0
LINE
8
DEFAULT_255_2_778
10
5.7891543
20
-0.3408969
11
5.5652543
21
-0.3408969
0
LINE
8
DEFAULT_255_2_778
10
4.5651543
20
-1.0792969
11
4.7889543
21
-1.0792969
0
LINE
8
DEFAULT_255_2_778
10
5.1660543
20
-0.8057969
11
5.1662543
21
-0.8059969
0
LINE
8
DEFAULT_255_2_778
10
6.3172543
20
0.1663031
11
6.3172543
21
-1.5878969
0
LINE
8
DEFAULT_255_2_778
10
6.3172543
20
-1.5878969
11
6.0944543
21
-1.5878969
0
LINE
8
DEFAULT_255_2_778
10
6.0944543
20
-1.5878969
11
6.0944543
21
0.1663031
0
LINE
8
DEFAULT_255_2_778
10
6.0944543
20
0.1663031
11
6.3172543
21
0.1663031
0
LINE
8
DEFAULT_255_2_778
10
6.3172543
20
0.1663031
11
6.3172543
21
0.1663031
0
LINE
8
DEFAULT_255_2_778
10
7.9716543
20
-0.7144969
11
7.9716543
21
-1.3578969
0
LINE
8
DEFAULT_255_2_778
10
6.6696543
20
-0.7953969
11
6.6696543
21
-0.6424969
0
LINE
8
DEFAULT_255_2_778
10
7.9711543
20
-0.3485969
11
7.7483543
21
-0.3485969
0
LINE
8
DEFAULT_255_2_778
10
6.8932543
20
-0.6363969
11
6.8932543
21
-0.7797969
0
LINE
8
DEFAULT_255_2_778
10
7.7496543
20
-1.2967969
11
7.7496543
21
-0.9022969
0
LINE
8
DEFAULT_255_2_778
10
7.7496543
20
-0.9022969
11
7.3586543
21
-0.9022969
0
LINE
8
DEFAULT_255_2_778
10
7.3586543
20
-0.9022969
11
7.3586543
21
-0.7144969
0
LINE
8
DEFAULT_255_2_778
10
7.3586543
20
-0.7144969
11
7.9711543
21
-0.7144969
0
LINE
8
DEFAULT_255_2_778
10
7.9711543
20
-0.7144969
11
7.9716543
21
-0.7144969
0
LINE
8
DEFAULT_255_2_778
10
9.5091543
20
0.1663031
11
9.5091543
21
-1.5878969
0
LINE
8
DEFAULT_255_2_778
10
9.5091543
20
-1.5878969
11
9.2853543
21
-1.5878969
0
LINE
8
DEFAULT_255_2_778
10
9.2853543
20
-1.5878969
11
8.4349543
21
-0.2360969
0
LINE
8
DEFAULT_255_2_778
10
8.4349543
20
-0.2360969
11
8.4349543
21
-1.5878969
0
LINE
8
DEFAULT_255_2_778
10
8.4349543
20
-1.5878969
11
8.2111543
21
-1.5878969
0
LINE
8
DEFAULT_255_2_778
10
8.2111543
20
-1.5878969
11
8.2111543
21
0.1663031
0
LINE
8
DEFAULT_255_2_778
10
8.2111543
20
0.1663031
11
8.4349543
21
0.1663031
0
LINE
8
DEFAULT_255_2_778
10
8.4349543
20
0.1663031
11
9.2876543
21
-1.1914969
0
LINE
8
DEFAULT_255_2_778
10
9.2876543
20
-1.1914969
11
9.2876543
21
0.1663031
0
LINE
8
DEFAULT_255_2_778
10
9.2876543
20
0.1663031
11
9.5094543
21
0.1663031
0
LINE
8
DEFAULT_255_2_778
10
9.5094543
20
0.1663031
11
9.5091543
21
0.1663031
0
LINE
8
DEFAULT_255_2_778
10
10.8876543
20
-1.5878969
11
10.7265543
21
-1.1300969
0
LINE
8
DEFAULT_255_2_778
10
10.7265543
20
-1.1300969
11
10.0187543
21
-1.1300969
0
LINE
8
DEFAULT_255_2_778
10
10.0187543
20
-1.1300969
11
9.8597543
21
-1.5878969
0
LINE
8
DEFAULT_255_2_778
10
9.8597543
20
-1.5878969
11
9.6300543
21
-1.5878969
0
LINE
8
DEFAULT_255_2_778
10
9.6300543
20
-1.5878969
11
10.2751543
21
0.1663031
0
LINE
8
DEFAULT_255_2_778
10
10.2751543
20
0.1663031
11
10.4701543
21
0.1663031
0
LINE
8
DEFAULT_255_2_778
10
10.4701543
20
0.1663031
11
11.1164543
21
-1.5878969
0
LINE
8
DEFAULT_255_2_778
10
11.1164543
20
-1.5878969
11
10.8878543
21
-1.5878969
0
LINE
8
DEFAULT_255_2_778
10
10.8878543
20
-1.5878969
11
10.8876543
21
-1.5878969
0
LINE
8
DEFAULT_255_2_778
10
10.3724543
20
-0.1191969
11
10.0859543
21
-0.9395969
0
LINE
8
DEFAULT_255_2_778
10
10.0859543
20
-0.9395969
11
10.6603543
21
-0.9395969
0
LINE
8
DEFAULT_255_2_778
10
10.6603543
20
-0.9395969
11
10.3727543
21
-0.1191969
0
LINE
8
DEFAULT_255_2_778
10
10.3727543
20
-0.1191969
11
10.3724543
21
-0.1191969
0
LINE
8
DEFAULT_255_2_778
10
11.5676543
20
0.1663031
11
11.5676543
21
-1.3986969
0
LINE
8
DEFAULT_255_2_778
10
11.5676543
20
-1.3986969
11
12.3682543
21
-1.3986969
0
LINE
8
DEFAULT_255_2_778
10
12.3682543
20
-1.3986969
11
12.3682543
21
-1.5878969
0
LINE
8
DEFAULT_255_2_778
10
12.3682543
20
-1.5878969
11
11.3437543
21
-1.5878969
0
LINE
8
DEFAULT_255_2_778
10
11.3437543
20
-1.5878969
11
11.3437543
21
0.1663031
0
LINE
8
DEFAULT_255_2_778
10
11.3437543
20
0.1663031
11
11.5676543
21
0.1663031
0
LINE
8
DEFAULT_255_2_778
10
11.5676543
20
0.1663031
11
11.5676543
21
0.1663031
0
ENDSEC
0
EOF