0
SECTION
2
HEADER
9
$MEASUREMENT
70
1
0
ENDSEC
0
SECTION
2
TABLES
0
TABLE
2
LTYPE
0
LTYPE
72
65
70
64
2
CONTINUOUS
3
______
73
0
40
0
0
ENDTAB
0
TABLE
2
LAYER
0
LAYER
2
DEFAULT_255_2_778
70
0
62
255
6
CONTINUOUS
0
LAYER
2
DEFAULT_255_1_388
70
0
62
255
6
CONTINUOUS
0
ENDTAB
0
ENDSEC
0
SECTION
2
ENTITIES
0
LINE
8
DEFAULT_255_2_778
10
5.6885751
20
11.5759436
11
5.6885751
21
6.1271436
0
LINE
8
DEFAULT_255_2_778
10
5.6885751
20
6.1271436
11
11.2447751
21
6.1271436
0
LINE
8
DEFAULT_255_2_778
10
11.2447751
20
6.1271436
11
11.2447751
21
0.8428436
0
LINE
8
DEFAULT_255_1_388
10
7.3451018
20
8.2355898
11
7.5529216
21
7.3347361
0
LINE
8
DEFAULT_255_1_388
10
7.5529216
20
7.3347361
11
7.5782214
21
7.1612517
0
LINE
8
DEFAULT_255_1_388
10
7.5782214
20
7.1612517
11
7.6152676
21
7.3175684
0
LINE
8
DEFAULT_255_1_388
10
7.6152676
20
7.3175684
11
7.8754941
21
8.2355898
0
LINE
8
DEFAULT_255_1_388
10
7.8754941
20
8.2355898
11
8.0218716
21
8.2355898
0
LINE
8
DEFAULT_255_1_388
10
8.0218716
20
8.2355898
11
8.2757732
21
7.3175684
0
LINE
8
DEFAULT_255_1_388
10
8.2757732
20
7.3175684
11
8.3119158
21
7.158541
0
LINE
8
DEFAULT_255_1_388
10
8.3119158
20
7.158541
11
8.3399263
21
7.3356396
0
LINE
8
DEFAULT_255_1_388
10
8.3399263
20
7.3356396
11
8.5441318
21
8.2355898
0
LINE
8
DEFAULT_255_1_388
10
8.5441318
20
8.2355898
11
8.7185198
21
8.2355898
0
LINE
8
DEFAULT_255_1_388
10
8.7185198
20
8.2355898
11
8.3995615
21
6.92
0
LINE
8
DEFAULT_255_1_388
10
8.3995615
20
6.92
11
8.2414377
21
6.92
0
LINE
8
DEFAULT_255_1_388
10
8.2414377
20
6.92
11
7.9703684
21
7.8786819
0
LINE
8
DEFAULT_255_1_388
10
7.9703684
20
7.8786819
11
7.9495864
21
7.9789775
0
LINE
8
DEFAULT_255_1_388
10
7.9495864
20
7.9789775
11
7.9288044
21
7.8786819
0
LINE
8
DEFAULT_255_1_388
10
7.9288044
20
7.8786819
11
7.6477959
21
6.92
0
LINE
8
DEFAULT_255_1_388
10
7.6477959
20
6.92
11
7.4896721
21
6.92
0
LINE
8
DEFAULT_255_1_388
10
7.4896721
20
6.92
11
7.1716174
21
8.2355898
0
LINE
8
DEFAULT_255_1_388
10
7.1716174
20
8.2355898
11
7.3451018
21
8.2355898
0
LINE
8
DEFAULT_255_2_778
10
5.0271168
20
10.9173655
11
6.3500168
21
10.9173655
0
LINE
8
DEFAULT_255_2_778
10
10.5833168
20
1.3859655
11
11.9063168
21
1.3859655
0
LINE
8
DEFAULT_255_2_778
10
5.6886168
20
10.9503655
11
5.6886168
21
11.5758655
0
LINE
8
DEFAULT_255_2_778
10
11.2448168
20
0.6451655
11
11.2448168
21
1.3036655
0
ARC
8
DEFAULT_255_2_778
10
7.2892836
20
-0.8846865
40
0.792081
50
72.2270494
51
90.9238395
0
ARC
8
DEFAULT_255_2_778
10
7.3709522
20
-0.6180345
40
0.5132391
50
48.3540817
51
71.8225301
0
ARC
8
DEFAULT_255_2_778
10
7.3888439
20
-0.5907115
40
0.4809559
50
357.7005579
51
47.7838126
0
ARC
8
DEFAULT_255_2_778
10
7.31505
20
-0.6236039
40
0.5545292
50
335.0858481
51
1.4048632
0
ARC
8
DEFAULT_255_2_778
10
7.4439662
20
-0.6738601
40
0.4165306
50
310.6868508
51
333.8852046
0
ARC
8
DEFAULT_255_2_778
10
7.3725959
20
-0.5753824
40
0.5378271
50
279.9278337
51
309.6128322
0
ARC
8
DEFAULT_255_2_778
10
7.2818043
20
-0.1562572
40
0.9664821
50
269.5440049
51
280.9458678
0
ARC
8
DEFAULT_255_2_778
10
7.2892642
20
-0.4437724
40
0.4967998
50
268.5291949
51
291.0434722
0
ARC
8
DEFAULT_255_2_778
10
7.3559295
20
-0.6334679
40
0.2958762
50
292.1852802
51
311.223833
0
ARC
8
DEFAULT_255_2_778
10
7.3474258
20
-0.638151
40
0.2981086
50
313.0465705
51
0.2544731
0
ARC
8
DEFAULT_255_2_778
10
7.1421132
20
-0.6126327
40
0.5039994
50
357.2484832
51
0.0254858
0
ARC
8
DEFAULT_255_2_778
10
7.3277514
20
-0.5980168
40
0.3186863
50
357.4116828
51
45.5526585
0
ARC
8
DEFAULT_255_2_778
10
7.3100389
20
-0.6371314
40
0.3593158
50
47.9045737
51
87.6516325
0
ARC
8
DEFAULT_255_2_778
10
7.2773297
20
-0.8600899
40
0.5839024
50
85.3405427
51
88.8339068
0
ARC
8
DEFAULT_255_2_778
10
9.4390836
20
-0.8846865
40
0.792081
50
72.2270494
51
90.9238395
0
ARC
8
DEFAULT_255_2_778
10
9.5207522
20
-0.6180345
40
0.5132391
50
48.3540817
51
71.8225301
0
ARC
8
DEFAULT_255_2_778
10
9.5393778
20
-0.5907874
40
0.4805193
50
357.707518
51
47.8546993
0
ARC
8
DEFAULT_255_2_778
10
9.4654529
20
-0.623599
40
0.5542264
50
335.0707456
51
1.4051241
0
ARC
8
DEFAULT_255_2_778
10
9.5940549
20
-0.6737407
40
0.4165633
50
310.6668988
51
333.8691259
0
ARC
8
DEFAULT_255_2_778
10
9.5225959
20
-0.5753824
40
0.5378271
50
279.9278337
51
309.6128322
0
ARC
8
DEFAULT_255_2_778
10
9.4318043
20
-0.1562572
40
0.9664821
50
269.5440049
51
280.9458678
0
ARC
8
DEFAULT_255_2_778
10
9.4390618
20
-0.4439167
40
0.4966555
50
268.5290423
51
291.0300481
0
ARC
8
DEFAULT_255_2_778
10
9.5057956
20
-0.6338741
40
0.2954614
50
292.1701531
51
311.251514
0
ARC
8
DEFAULT_255_2_778
10
9.4973683
20
-0.6381205
40
0.2979654
50
313.0085038
51
0.2487468
0
ARC
8
DEFAULT_255_2_778
10
9.292262
20
-0.6126286
40
0.5036505
50
357.2461134
51
0.0250414
0
ARC
8
DEFAULT_255_2_778
10
9.4777255
20
-0.5980405
40
0.3185113
50
357.4145164
51
45.5908375
0
ARC
8
DEFAULT_255_2_778
10
9.4598955
20
-0.6367323
40
0.3589148
50
47.8804024
51
87.6582273
0
ARC
8
DEFAULT_255_2_778
10
9.4271313
20
-0.8600279
40
0.5838404
50
85.3403225
51
88.8339404
0
LINE
8
DEFAULT_255_2_778
10
9.5249126
20
8.8927915
11
9.5249126
21
8.7075915
0
LINE
8
DEFAULT_255_2_778
10
9.5249126
20
8.7075915
11
8.9751126
21
8.7075915
0
LINE
8
DEFAULT_255_2_778
10
8.9751126
20
8.7075915
11
8.9751126
21
7.1867915
0
LINE
8
DEFAULT_255_2_778
10
8.9751126
20
7.1867915
11
8.7508126
21
7.1867915
0
LINE
8
DEFAULT_255_2_778
10
8.7508126
20
7.1867915
11
8.7508126
21
8.7075915
0
LINE
8
DEFAULT_255_2_778
10
8.7508126
20
8.7075915
11
8.2020126
21
8.7075915
0
LINE
8
DEFAULT_255_2_778
10
8.2020126
20
8.7075915
11
8.2020126
21
8.8927915
0
LINE
8
DEFAULT_255_2_778
10
8.2020126
20
8.8927915
11
9.5249126
21
8.8927915
0
LINE
8
DEFAULT_255_2_778
10
9.5249126
20
8.8927915
11
9.5249126
21
8.8927915
0
LINE
8
DEFAULT_255_2_778
10
7.2741126
20
-1.1230085
11
6.8754126
21
-1.1230085
0
LINE
8
DEFAULT_255_2_778
10
6.8754126
20
-1.1230085
11
6.8754126
21
-1.7855085
0
LINE
8
DEFAULT_255_2_778
10
6.8754126
20
-1.7855085
11
6.6521126
21
-1.7855085
0
LINE
8
DEFAULT_255_2_778
10
6.6521126
20
-1.7855085
11
6.6521126
21
-0.0927085
0
LINE
8
DEFAULT_255_2_778
10
6.6521126
20
-0.0927085
11
7.2765126
21
-0.0927085
0
LINE
8
DEFAULT_255_2_778
10
7.2741126
20
-1.1227085
11
7.2741126
21
-1.1230085
0
LINE
8
DEFAULT_255_2_778
10
6.8754126
20
-0.2766085
11
6.8754126
21
-0.9404085
0
LINE
8
DEFAULT_255_2_778
10
6.8754126
20
-0.9404085
11
7.2765126
21
-0.9404085
0
LINE
8
DEFAULT_255_2_778
10
7.2892126
20
-0.2763085
11
6.8754126
21
-0.2763085
0
LINE
8
DEFAULT_255_2_778
10
6.8754126
20
-0.2763085
11
6.8754126
21
-0.2766085
0
LINE
8
DEFAULT_255_2_778
10
8.3939126
20
-0.0927085
11
8.3939126
21
-1.7855085
0
LINE
8
DEFAULT_255_2_778
10
8.3939126
20
-1.7855085
11
8.1705126
21
-1.7855085
0
LINE
8
DEFAULT_255_2_778
10
8.1705126
20
-1.7855085
11
8.1705126
21
-0.0927085
0
LINE
8
DEFAULT_255_2_778
10
8.1705126
20
-0.0927085
11
8.3939126
21
-0.0927085
0
LINE
8
DEFAULT_255_2_778
10
8.3939126
20
-0.0927085
11
8.3939126
21
-0.0927085
0
LINE
8
DEFAULT_255_2_778
10
9.4239126
20
-1.1230085
11
9.0251126
21
-1.1230085
0
LINE
8
DEFAULT_255_2_778
10
9.0251126
20
-1.1230085
11
9.0251126
21
-1.7855085
0
LINE
8
DEFAULT_255_2_778
10
9.0251126
20
-1.7855085
11
8.8018126
21
-1.7855085
0
LINE
8
DEFAULT_255_2_778
10
8.8018126
20
-1.7855085
11
8.8018126
21
-0.0927085
0
LINE
8
DEFAULT_255_2_778
10
8.8018126
20
-0.0927085
11
9.4263126
21
-0.0927085
0
LINE
8
DEFAULT_255_2_778
10
9.4241126
20
-1.1227085
11
9.4239126
21
-1.1230085
0
LINE
8
DEFAULT_255_2_778
10
9.0251126
20
-0.2766085
11
9.0251126
21
-0.9404085
0
LINE
8
DEFAULT_255_2_778
10
9.0251126
20
-0.9404085
11
9.4263126
21
-0.9404085
0
LINE
8
DEFAULT_255_2_778
10
9.4390126
20
-0.2763085
11
9.0251126
21
-0.2763085
0
LINE
8
DEFAULT_255_2_778
10
9.0251126
20
-0.2763085
11
9.0251126
21
-0.2766085
0
LINE
8
DEFAULT_255_2_778
10
11.2611126
20
-0.8206085
11
11.2611126
21
-1.0031085
0
LINE
8
DEFAULT_255_2_778
10
11.2611126
20
-1.0031085
11
10.5275126
21
-1.0031085
0
LINE
8
DEFAULT_255_2_778
10
10.5275126
20
-1.0031085
11
10.5275126
21
-1.6032085
0
LINE
8
DEFAULT_255_2_778
10
10.5275126
20
-1.6032085
11
11.3797126
21
-1.6032085
0
LINE
8
DEFAULT_255_2_778
10
11.3797126
20
-1.6032085
11
11.3797126
21
-1.7858085
0
LINE
8
DEFAULT_255_2_778
10
11.3797126
20
-1.7858085
11
10.3041126
21
-1.7858085
0
LINE
8
DEFAULT_255_2_778
10
10.3041126
20
-1.7858085
11
10.3041126
21
-0.0930085
0
LINE
8
DEFAULT_255_2_778
10
10.3041126
20
-0.0930085
11
11.3680126
21
-0.0930085
0
LINE
8
DEFAULT_255_2_778
10
11.3680126
20
-0.0930085
11
11.3680126
21
-0.2766085
0
LINE
8
DEFAULT_255_2_778
10
11.3680126
20
-0.2766085
11
10.5275126
21
-0.2766085
0
LINE
8
DEFAULT_255_2_778
10
10.5275126
20
-0.2766085
11
10.5275126
21
-0.8208085
0
LINE
8
DEFAULT_255_2_778
10
10.5275126
20
-0.8208085
11
11.2611126
21
-0.8208085
0
LINE
8
DEFAULT_255_2_778
10
11.2611126
20
-0.8208085
11
11.2611126
21
-0.8206085
0
ENDSEC
0
EOF