0
SECTION
2
HEADER
9
$MEASUREMENT
70
1
0
ENDSEC
0
SECTION
2
TABLES
0
TABLE
2
LTYPE
0
LTYPE
72
65
70
64
2
CONTINUOUS
3
______
73
0
40
0
0
ENDTAB
0
TABLE
2
LAYER
0
LAYER
2
DEFAULT_255_2_778
70
0
62
255
6
CONTINUOUS
0
LAYER
2
DEFAULT_255_1_696
70
0
62
255
6
CONTINUOUS
0
ENDTAB
0
ENDSEC
0
SECTION
2
ENTITIES
0
ARC
8
DEFAULT_255_2_778
10
4.9921896
20
5.6697134
40
0.6501964
50
89.4259247
51
179.6683382
0
ARC
8
DEFAULT_255_2_778
10
5.0052189
20
5.6697135
40
0.6501962
50
0.331653
51
90.5740878
0
ARC
8
DEFAULT_255_2_778
10
5.0052189
20
5.6772406
40
0.6501961
50
269.4259047
51
359.6683501
0
ARC
8
DEFAULT_255_2_778
10
4.9921897
20
5.6772408
40
0.6501964
50
180.3316649
51
270.5740679
0
LINE
8
DEFAULT_255_2_778
10
4.3420042
20
5.6734771
11
4.3420042
21
5.6734771
0
LINE
8
DEFAULT_255_2_778
10
6.5812001
20
6.2176667
11
12.9312001
21
6.2176667
0
LINE
8
DEFAULT_255_2_778
10
6.5812001
20
5.1593667
11
12.9312001
21
5.1593667
0
LINE
8
DEFAULT_255_1_696
10
6.1444552
20
10.0695771
11
5.8197775
21
10.0695771
0
LINE
8
DEFAULT_255_1_696
10
5.8197775
20
10.0695771
11
5.8197775
21
9.4401
0
LINE
8
DEFAULT_255_1_696
10
5.8197775
20
9.4401
11
5.6176823
21
9.4401
0
LINE
8
DEFAULT_255_1_696
10
5.6176823
20
9.4401
11
5.6176823
21
11.0480273
0
LINE
8
DEFAULT_255_1_696
10
5.6176823
20
11.0480273
11
6.1300987
21
11.0480273
0
LINE
8
DEFAULT_255_1_696
10
5.8197775
20
10.8735407
11
5.8197775
21
10.2429593
0
LINE
8
DEFAULT_255_1_696
10
5.8197775
20
10.2429593
11
6.1300987
21
10.2429593
0
LINE
8
DEFAULT_255_1_696
10
6.131203
20
10.8735407
11
5.8197775
21
10.8735407
0
ARC
8
DEFAULT_255_1_696
10
6.1352466
20
10.4453546
40
0.6026948
50
76.2184316
51
90.4893939
0
ARC
8
DEFAULT_255_1_696
10
6.1813418
20
10.6251384
40
0.4171103
50
43.8020726
51
76.484903
0
ARC
8
DEFAULT_255_1_696
10
6.1534218
20
10.6031248
40
0.4525113
50
10.3313675
51
43.3668338
0
ARC
8
DEFAULT_255_1_696
10
5.9571825
20
10.5601409
40
0.6533163
50
359.6888901
51
10.9534603
0
ARC
8
DEFAULT_255_1_696
10
5.9037532
20
10.5516062
40
0.7067534
50
348.9275976
51
0.4043164
0
ARC
8
DEFAULT_255_1_696
10
6.1456488
20
10.5021865
40
0.4598741
50
329.2235907
51
349.1822477
0
ARC
8
DEFAULT_255_1_696
10
6.2161978
20
10.4641954
40
0.3798365
50
315.7896725
51
328.701916
0
ARC
8
DEFAULT_255_1_696
10
6.1970917
20
10.4871606
40
0.4095569
50
284.5174561
51
315.3506022
0
ARC
8
DEFAULT_255_1_696
10
6.1403858
20
10.6863732
40
0.6166436
50
271.8468598
51
284.9781153
0
ARC
8
DEFAULT_255_1_696
10
6.1289654
20
10.8517144
40
0.7822907
50
271.1345601
51
272.2925946
0
ARC
8
DEFAULT_255_1_696
10
6.1330995
20
10.6024244
40
0.3594776
50
269.5217057
51
282.9267746
0
ARC
8
DEFAULT_255_1_696
10
6.1630326
20
10.4810461
40
0.2344877
50
282.4328235
51
314.2454086
0
ARC
8
DEFAULT_255_1_696
10
6.1662252
20
10.4752431
40
0.2281099
50
314.6879652
51
318.3266283
0
ARC
8
DEFAULT_255_1_696
10
6.1390547
20
10.4958806
40
0.2621398
50
318.9058573
51
343.5104157
0
ARC
8
DEFAULT_255_1_696
10
6.0040752
20
10.5383218
40
0.4036214
50
343.1721445
51
355.8490859
0
ARC
8
DEFAULT_255_1_696
10
5.8444716
20
10.5535816
40
0.5639229
50
355.4765081
51
0.0816123
0
ARC
8
DEFAULT_255_1_696
10
5.9478599
20
10.5575655
40
0.4605449
50
359.6042949
51
11.6988752
0
ARC
8
DEFAULT_255_1_696
10
6.0926192
20
10.5890609
40
0.31241
50
11.425869
51
34.1664426
0
ARC
8
DEFAULT_255_1_696
10
6.121546
20
10.6057672
40
0.279104
50
34.663716
51
40.3023032
0
ARC
8
DEFAULT_255_1_696
10
6.149333
20
10.6300768
40
0.2421893
50
40.1683092
51
84.6027875
0
ARC
8
DEFAULT_255_1_696
10
6.1318794
20
10.5277813
40
0.34576
50
83.3177126
51
90.1120787
0
LINE
8
DEFAULT_255_1_696
10
7.0820447
20
11.0480273
11
7.0820447
21
9.4401
0
LINE
8
DEFAULT_255_1_696
10
7.0820447
20
9.4401
11
6.8799494
21
9.4401
0
LINE
8
DEFAULT_255_1_696
10
6.8799494
20
9.4401
11
6.8799494
21
11.0480273
0
LINE
8
DEFAULT_255_1_696
10
6.8799494
20
11.0480273
11
7.0820447
21
11.0480273
0
LINE
8
DEFAULT_255_1_696
10
7.9633125
20
10.0695771
11
7.6386349
21
10.0695771
0
LINE
8
DEFAULT_255_1_696
10
7.6386349
20
10.0695771
11
7.6386349
21
9.4401
0
LINE
8
DEFAULT_255_1_696
10
7.6386349
20
9.4401
11
7.4365396
21
9.4401
0
LINE
8
DEFAULT_255_1_696
10
7.4365396
20
9.4401
11
7.4365396
21
11.0480273
0
LINE
8
DEFAULT_255_1_696
10
7.4365396
20
11.0480273
11
7.9489561
21
11.0480273
0
LINE
8
DEFAULT_255_1_696
10
7.6386349
20
10.8735407
11
7.6386349
21
10.2429593
0
LINE
8
DEFAULT_255_1_696
10
7.6386349
20
10.2429593
11
7.9489561
21
10.2429593
0
LINE
8
DEFAULT_255_1_696
10
7.9500604
20
10.8735407
11
7.6386349
21
10.8735407
0
ARC
8
DEFAULT_255_1_696
10
7.9541039
20
10.4453546
40
0.6026948
50
76.2184316
51
90.4893939
0
ARC
8
DEFAULT_255_1_696
10
8.0001992
20
10.6251384
40
0.4171103
50
43.8020726
51
76.484903
0
ARC
8
DEFAULT_255_1_696
10
7.9722791
20
10.6031248
40
0.4525113
50
10.3313675
51
43.3668338
0
ARC
8
DEFAULT_255_1_696
10
7.7760399
20
10.5601409
40
0.6533163
50
359.6888901
51
10.9534603
0
ARC
8
DEFAULT_255_1_696
10
7.7226106
20
10.5516062
40
0.7067534
50
348.9275976
51
0.4043164
0
ARC
8
DEFAULT_255_1_696
10
7.9645062
20
10.5021865
40
0.4598741
50
329.2235907
51
349.1822477
0
ARC
8
DEFAULT_255_1_696
10
8.0350552
20
10.4641954
40
0.3798365
50
315.7896725
51
328.701916
0
ARC
8
DEFAULT_255_1_696
10
8.0159491
20
10.4871606
40
0.4095569
50
284.5174561
51
315.3506022
0
ARC
8
DEFAULT_255_1_696
10
7.9592432
20
10.6863732
40
0.6166436
50
271.8468598
51
284.9781153
0
ARC
8
DEFAULT_255_1_696
10
7.9478228
20
10.8517144
40
0.7822907
50
271.1345601
51
272.2925946
0
ARC
8
DEFAULT_255_1_696
10
7.9519569
20
10.6024244
40
0.3594776
50
269.5217057
51
282.9267746
0
ARC
8
DEFAULT_255_1_696
10
7.98189
20
10.4810461
40
0.2344877
50
282.4328235
51
314.2454086
0
ARC
8
DEFAULT_255_1_696
10
7.9850826
20
10.4752431
40
0.2281099
50
314.6879652
51
318.3266283
0
ARC
8
DEFAULT_255_1_696
10
7.9579121
20
10.4958806
40
0.2621398
50
318.9058573
51
343.5104157
0
ARC
8
DEFAULT_255_1_696
10
7.8229326
20
10.5383218
40
0.4036214
50
343.1721445
51
355.8490859
0
ARC
8
DEFAULT_255_1_696
10
7.663329
20
10.5535816
40
0.5639229
50
355.4765081
51
0.0816123
0
ARC
8
DEFAULT_255_1_696
10
7.7667173
20
10.5575655
40
0.4605449
50
359.6042949
51
11.6988752
0
ARC
8
DEFAULT_255_1_696
10
7.9114766
20
10.5890609
40
0.31241
50
11.425869
51
34.1664426
0
ARC
8
DEFAULT_255_1_696
10
7.9404034
20
10.6057672
40
0.279104
50
34.663716
51
40.3023032
0
ARC
8
DEFAULT_255_1_696
10
7.9681904
20
10.6300768
40
0.2421893
50
40.1683092
51
84.6027875
0
ARC
8
DEFAULT_255_1_696
10
7.9507368
20
10.5277813
40
0.34576
50
83.3177126
51
90.1120787
0
LINE
8
DEFAULT_255_1_696
10
8.9009021
20
11.0480273
11
8.9009021
21
9.4401
0
LINE
8
DEFAULT_255_1_696
10
8.9009021
20
9.4401
11
8.6988068
21
9.4401
0
LINE
8
DEFAULT_255_1_696
10
8.6988068
20
9.4401
11
8.6988068
21
11.0480273
0
LINE
8
DEFAULT_255_1_696
10
8.6988068
20
11.0480273
11
8.9009021
21
11.0480273
0
LINE
8
DEFAULT_255_1_696
10
10.3056298
20
11.0480273
11
10.3056298
21
9.4401
0
LINE
8
DEFAULT_255_1_696
10
10.3056298
20
9.4401
11
10.1024302
21
9.4401
0
LINE
8
DEFAULT_255_1_696
10
10.1024302
20
9.4401
11
9.4585966
21
10.6791759
0
LINE
8
DEFAULT_255_1_696
10
9.4585966
20
10.6791759
11
9.4585966
21
9.4401
0
LINE
8
DEFAULT_255_1_696
10
9.4585966
20
9.4401
11
9.255397
21
9.4401
0
LINE
8
DEFAULT_255_1_696
10
9.255397
20
9.4401
11
9.255397
21
11.0480273
0
LINE
8
DEFAULT_255_1_696
10
9.255397
20
11.0480273
11
9.4585966
21
11.0480273
0
LINE
8
DEFAULT_255_1_696
10
9.4585966
20
11.0480273
11
10.1046389
21
9.8034297
0
LINE
8
DEFAULT_255_1_696
10
10.1046389
20
9.8034297
11
10.1046389
21
11.0480273
0
LINE
8
DEFAULT_255_1_696
10
10.1046389
20
11.0480273
11
10.3056298
21
11.0480273
0
LINE
8
DEFAULT_255_1_696
10
11.6617663
20
10.2407506
11
11.6617663
21
9.6399866
0
LINE
8
DEFAULT_255_1_696
10
11.6617663
20
9.6399866
11
11.6264272
21
9.5958127
0
LINE
8
DEFAULT_255_1_696
10
10.619264
20
10.0795162
11
10.619264
21
10.395359
0
LINE
8
DEFAULT_255_1_696
10
11.6617663
20
10.5764717
11
11.459671
21
10.5764717
0
LINE
8
DEFAULT_255_1_696
10
10.8224636
20
10.420759
11
10.8224636
21
10.0927683
0
LINE
8
DEFAULT_255_1_696
10
11.4298537
20
9.6698039
11
11.459671
21
9.6974125
0
LINE
8
DEFAULT_255_1_696
10
11.459671
20
9.6974125
11
11.459671
21
10.0684727
0
LINE
8
DEFAULT_255_1_696
10
11.459671
20
10.0684727
11
11.1659151
21
10.0684727
0
LINE
8
DEFAULT_255_1_696
10
11.1659151
20
10.0684727
11
11.1659151
21
10.2407506
0
LINE
8
DEFAULT_255_1_696
10
11.1659151
20
10.2407506
11
11.6617663
21
10.2407506
0
ARC
8
DEFAULT_255_1_696
10
11.2562974
20
9.9162485
40
0.4895663
50
282.8918832
51
319.1159921
0
ARC
8
DEFAULT_255_1_696
10
11.1890201
20
10.1725528
40
0.7544671
50
270.2892345
51
283.5295751
0
ARC
8
DEFAULT_255_1_696
10
11.1802887
20
10.3745587
40
0.9565458
50
269.9989744
51
270.7511477
0
ARC
8
DEFAULT_255_1_696
10
11.1741143
20
10.0494553
40
0.6314722
50
254.20922
51
270.5586798
0
ARC
8
DEFAULT_255_1_696
10
11.1327138
20
9.8979367
40
0.4744077
50
220.33984
51
254.040876
0
ARC
8
DEFAULT_255_1_696
10
11.2126895
20
9.9627683
40
0.5773382
50
196.8292141
51
220.1062224
0
ARC
8
DEFAULT_255_1_696
10
11.5017658
20
10.0550123
40
0.8807524
50
184.6980579
51
197.1284627
0
ARC
8
DEFAULT_255_1_696
10
11.8420683
20
10.0906585
40
1.2228551
50
180.522071
51
185.0566818
0
ARC
8
DEFAULT_255_1_696
10
11.9657055
20
10.4021464
40
1.3464586
50
172.3639212
51
180.2888216
0
ARC
8
DEFAULT_255_1_696
10
11.461768
20
10.4719471
40
0.8377179
50
160.6378853
51
172.5156413
0
ARC
8
DEFAULT_255_1_696
10
11.1675801
20
10.5771442
40
0.5252947
50
141.8401279
51
160.8247334
0
ARC
8
DEFAULT_255_1_696
10
11.0918098
20
10.6285808
40
0.4339834
50
102.1548491
51
140.9989532
0
ARC
8
DEFAULT_255_1_696
10
11.1534661
20
10.3847842
40
0.6853548
50
89.5131956
51
102.9023917
0
ARC
8
DEFAULT_255_1_696
10
11.1643177
20
10.4059229
40
0.6642104
50
77.7365474
51
90.4337862
0
ARC
8
DEFAULT_255_1_696
10
11.2140601
20
10.622096
40
0.4424127
50
52.2451018
51
78.0850073
0
ARC
8
DEFAULT_255_1_696
10
11.2332356
20
10.6529346
40
0.4063068
50
45.3547391
51
51.7203467
0
ARC
8
DEFAULT_255_1_696
10
11.2007647
20
10.6251853
40
0.4488818
50
17.9198826
51
44.8949486
0
ARC
8
DEFAULT_255_1_696
10
10.9915385
20
10.5533019
40
0.6700876
50
5.2563661
51
18.2636153
0
ARC
8
DEFAULT_255_1_696
10
10.786822
20
10.5279771
40
0.876287
50
3.1724309
51
5.6790024
0
ARC
8
DEFAULT_255_1_696
10
10.8852427
20
10.5332134
40
0.5760548
50
4.3066253
51
13.9374727
0
ARC
8
DEFAULT_255_1_696
10
11.0737127
20
10.5811631
40
0.381586
50
13.7659177
51
28.9013147
0
ARC
8
DEFAULT_255_1_696
10
11.1502698
20
10.6213158
40
0.2951637
50
29.2601319
51
40.025802
0
ARC
8
DEFAULT_255_1_696
10
11.2046957
20
10.6643785
40
0.2258009
50
40.5402798
51
75.1839425
0
ARC
8
DEFAULT_255_1_696
10
11.1685239
20
10.5426071
40
0.3527943
50
74.5618904
51
87.9340296
0
ARC
8
DEFAULT_255_1_696
10
11.1605893
20
10.4271287
40
0.4684989
50
87.4734075
51
90.0239666
0
ARC
8
DEFAULT_255_1_696
10
11.1566147
20
10.4777953
40
0.4178494
50
89.4818558
51
103.1359883
0
ARC
8
DEFAULT_255_1_696
10
11.1166281
20
10.6322785
40
0.2583496
50
102.2861211
51
144.4647709
0
ARC
8
DEFAULT_255_1_696
10
11.2011063
20
10.5787509
40
0.3582478
50
145.3509227
51
161.9302239
0
ARC
8
DEFAULT_255_1_696
10
11.4603452
20
10.4903032
40
0.6321458
50
161.5970399
51
171.2338848
0
ARC
8
DEFAULT_255_1_696
10
11.877889
20
10.4235539
40
1.0549874
50
171.1070554
51
177.7089555
0
ARC
8
DEFAULT_255_1_696
10
12.2699698
20
10.4020143
40
1.4476277
50
177.4774654
51
179.25808
0
ARC
8
DEFAULT_255_1_696
10
11.8436975
20
10.0877741
40
1.0212461
50
179.719804
51
187.6185202
0
ARC
8
DEFAULT_255_1_696
10
11.4706514
20
10.0362371
40
0.6446625
50
187.4741154
51
199.2487922
0
ARC
8
DEFAULT_255_1_696
10
11.2603299
20
9.9626474
40
0.4218384
50
199.2299205
51
215.106058
0
ARC
8
DEFAULT_255_1_696
10
11.1603852
20
9.8900555
40
0.2983338
50
214.7393852
51
264.843839
0
ARC
8
DEFAULT_255_1_696
10
11.180628
20
10.0111913
40
0.4209009
50
263.5812495
51
270.1018169
0
ARC
8
DEFAULT_255_1_696
10
11.1847679
20
10.1278792
40
0.5375989
50
269.6384871
51
279.7565746
0
ARC
8
DEFAULT_255_1_696
10
11.2190691
20
9.9360345
40
0.3427185
50
279.5401485
51
295.9919718
0
ARC
8
DEFAULT_255_1_696
10
11.2560888
20
9.8567358
40
0.255221
50
296.3235365
51
312.9093823
0
ARC
8
DEFAULT_255_2_778
10
13.1165926
20
7.1564478
40
0.7407663
50
359.0178058
51
16.6744529
0
ARC
8
DEFAULT_255_2_778
10
13.4317362
20
7.2510687
40
0.4117244
50
16.6442594
51
83.1171234
0
ARC
8
DEFAULT_255_2_778
10
13.3337961
20
6.8348315
40
0.8380382
50
79.8779674
51
90.3928446
0
ARC
8
DEFAULT_255_2_778
10
5.3780629
20
6.0145578
40
1.6583391
50
89.5685609
51
100.6422984
0
ARC
8
DEFAULT_255_2_778
10
5.2534096
20
6.6487882
40
1.0120115
50
100.3376239
51
119.5724294
0
ARC
8
DEFAULT_255_2_778
10
5.1410334
20
6.8621631
40
0.7710093
50
120.1348532
51
134.8947228
0
ARC
8
DEFAULT_255_2_778
10
5.1831775
20
4.5696096
40
0.8395309
50
225.7013254
51
253.8369393
0
ARC
8
DEFAULT_255_2_778
10
5.3412616
20
5.0744819
40
1.3685002
50
253.3641123
51
266.8276386
0
ARC
8
DEFAULT_255_2_778
10
5.3886731
20
5.6354772
40
1.9313282
50
266.3442626
51
270.0556852
0
ARC
8
DEFAULT_255_2_778
10
13.3407511
20
4.4450773
40
0.7410363
50
269.0179339
51
286.6713971
0
ARC
8
DEFAULT_255_2_778
10
13.4354483
20
4.1296982
40
0.4117469
50
286.6379991
51
353.1126757
0
ARC
8
DEFAULT_255_2_778
10
13.0193821
20
4.227604
40
0.8378878
50
349.8761221
51
0.3929053
0
LINE
8
DEFAULT_255_2_778
10
13.3280502
20
7.6728498
11
5.3905502
21
7.6728498
0
LINE
8
DEFAULT_255_2_778
10
4.5968502
20
7.4083498
11
3.5384502
21
6.3499498
0
LINE
8
DEFAULT_255_2_778
10
3.5384502
20
6.3499498
11
3.5384502
21
5.0270498
0
LINE
8
DEFAULT_255_2_778
10
3.5384502
20
5.0270498
11
4.5968502
21
3.9687498
0
LINE
8
DEFAULT_255_2_778
10
5.3905502
20
3.7041498
11
13.3280502
21
3.7041498
0
LINE
8
DEFAULT_255_2_778
10
13.8572502
20
4.2333498
11
13.8572502
21
7.1437498
0
LINE
8
DEFAULT_255_2_778
10
2.7447502
20
12.9645498
11
2.7447502
21
-1.3229502
0
ENDSEC
0
EOF