0
SECTION
2
HEADER
9
$MEASUREMENT
70
1
0
ENDSEC
0
SECTION
2
TABLES
0
TABLE
2
LTYPE
0
LTYPE
72
65
70
64
2
CONTINUOUS
3
______
73
0
40
0
0
ENDTAB
0
TABLE
2
LAYER
0
LAYER
2
DEFAULT_255_2_778
70
0
62
255
6
CONTINUOUS
0
LAYER
2
DEFAULT_255_1_696
70
0
62
255
6
CONTINUOUS
0
ENDTAB
0
ENDSEC
0
SECTION
2
ENTITIES
0
ARC
8
DEFAULT_255_2_778
10
4.7495896
20
5.6697134
40
0.6501964
50
89.4259247
51
179.6683382
0
ARC
8
DEFAULT_255_2_778
10
4.7626189
20
5.6697135
40
0.6501962
50
0.331653
51
90.5740878
0
ARC
8
DEFAULT_255_2_778
10
4.7626189
20
5.6772406
40
0.6501961
50
269.4259047
51
359.6683501
0
ARC
8
DEFAULT_255_2_778
10
4.7495897
20
5.6772408
40
0.6501964
50
180.3316649
51
270.5740679
0
LINE
8
DEFAULT_255_2_778
10
4.0994042
20
5.6734771
11
4.0994042
21
5.6734771
0
LINE
8
DEFAULT_255_2_778
10
6.3386001
20
6.2176667
11
12.6886001
21
6.2176667
0
LINE
8
DEFAULT_255_2_778
10
6.3386001
20
5.1593667
11
12.6886001
21
5.1593667
0
LINE
8
DEFAULT_255_1_696
10
6.1628458
20
10.5830978
11
5.9596461
21
10.5830978
0
LINE
8
DEFAULT_255_1_696
10
5.1777694
20
9.9061339
11
5.380969
21
9.9061339
0
ARC
8
DEFAULT_255_1_696
10
5.6042573
20
9.8491194
40
0.3553985
50
359.5775862
51
11.4023416
0
ARC
8
DEFAULT_255_1_696
10
5.7261473
20
9.8747638
40
0.2308469
50
11.1439795
51
31.8836913
0
ARC
8
DEFAULT_255_1_696
10
5.7588188
20
9.8929289
40
0.1935187
50
32.4262779
51
45.4867697
0
ARC
8
DEFAULT_255_1_696
10
5.6781397
20
9.8054422
40
0.3124897
50
46.1841336
51
57.3876865
0
ARC
8
DEFAULT_255_1_696
10
5.5284823
20
9.5769293
40
0.58564
50
57.1035308
51
63.6436893
0
ARC
8
DEFAULT_255_1_696
10
5.3426216
20
9.2045661
40
1.0018102
50
63.5733896
51
68.3350585
0
ARC
8
DEFAULT_255_1_696
10
5.1622742
20
8.7603576
40
1.481224
50
68.1952127
51
70.3954405
0
ARC
8
DEFAULT_255_1_696
10
6.2082676
20
11.7029767
40
1.6417736
50
246.7728678
51
250.4641504
0
ARC
8
DEFAULT_255_1_696
10
5.9780008
20
11.1696425
40
1.0608556
50
241.5773625
51
246.8413816
0
ARC
8
DEFAULT_255_1_696
10
5.7763001
20
10.7993901
40
0.6392303
50
234.0691956
51
241.6811751
0
ARC
8
DEFAULT_255_1_696
10
5.6905928
20
10.675852
40
0.4889145
50
233.4147283
51
233.7066421
0
ARC
8
DEFAULT_255_1_696
10
5.7015931
20
10.6950721
40
0.5109108
50
221.7637664
51
233.7088378
0
ARC
8
DEFAULT_255_1_696
10
5.6235161
20
10.6245711
40
0.4057159
50
207.7494007
51
221.6815167
0
ARC
8
DEFAULT_255_1_696
10
5.6134138
20
10.615591
40
0.3926077
50
186.6801498
51
207.2760177
0
ARC
8
DEFAULT_255_1_696
10
5.7166821
20
10.6307568
40
0.4969483
50
179.8925176
51
187.0318036
0
ARC
8
DEFAULT_255_1_696
10
5.6874983
20
10.6366345
40
0.46779
50
160.894911
51
180.6057379
0
ARC
8
DEFAULT_255_1_696
10
5.6276768
20
10.6528116
40
0.4059914
50
133.680089
51
160.2889628
0
ARC
8
DEFAULT_255_1_696
10
5.6466239
20
10.6356639
40
0.4314823
50
98.0831836
51
133.9270667
0
ARC
8
DEFAULT_255_1_696
10
5.6793142
20
10.4660606
40
0.6040573
50
89.8068026
51
98.8911064
0
ARC
8
DEFAULT_255_1_696
10
5.6850538
20
10.5332503
40
0.5368768
50
74.2980143
51
90.395166
0
ARC
8
DEFAULT_255_1_696
10
5.7034823
20
10.6068984
40
0.460995
50
60.1201909
51
74.0257193
0
ARC
8
DEFAULT_255_1_696
10
5.7194391
20
10.630107
40
0.432928
50
27.5687014
51
60.4210897
0
ARC
8
DEFAULT_255_1_696
10
5.6441671
20
10.589118
40
0.5186258
50
0.262807
51
27.7342092
0
ARC
8
DEFAULT_255_1_696
10
5.5562107
20
10.583094
40
0.606635
50
0.0003573
51
0.7936622
0
ARC
8
DEFAULT_255_1_696
10
5.4623633
20
10.5862926
40
0.4972931
50
359.6319026
51
10.1212622
0
ARC
8
DEFAULT_255_1_696
10
5.6348388
20
10.6182615
40
0.3218858
50
9.9144499
51
26.9762349
0
ARC
8
DEFAULT_255_1_696
10
5.699832
20
10.649356
40
0.2498653
50
27.3823313
51
41.1897742
0
ARC
8
DEFAULT_255_1_696
10
5.7142266
20
10.6599473
40
0.2320628
50
41.562437
51
77.8699299
0
ARC
8
DEFAULT_255_1_696
10
5.6842173
20
10.5390706
40
0.3565685
50
77.2369306
51
90.4605761
0
ARC
8
DEFAULT_255_1_696
10
5.6786848
20
10.5430131
40
0.3526247
50
89.5667711
51
102.0245024
0
ARC
8
DEFAULT_255_1_696
10
5.652465
20
10.6599868
40
0.2327586
50
101.7105683
51
125.6254496
0
ARC
8
DEFAULT_255_1_696
10
5.6395276
20
10.6815258
40
0.2077248
50
126.1854103
51
135.4859771
0
ARC
8
DEFAULT_255_1_696
10
5.6522688
20
10.6712864
40
0.2239947
50
135.9032128
51
165.7602787
0
ARC
8
DEFAULT_255_1_696
10
5.7619712
20
10.6409045
40
0.3378088
50
165.3423728
51
178.6345938
0
ARC
8
DEFAULT_255_1_696
10
5.8617713
20
10.6350837
40
0.4377327
50
178.1841865
51
180.0106926
0
ARC
8
DEFAULT_255_1_696
10
5.6560076
20
10.6319977
40
0.2319886
50
179.2579648
51
204.9572726
0
ARC
8
DEFAULT_255_1_696
10
5.6532648
20
10.6343088
40
0.2305
50
205.7658113
51
227.2919949
0
ARC
8
DEFAULT_255_1_696
10
5.7666518
20
10.7569414
40
0.397519
50
227.2715316
51
238.0733663
0
ARC
8
DEFAULT_255_1_696
10
5.9051658
20
10.9763102
40
0.6569558
50
237.9381028
51
245.3110165
0
ARC
8
DEFAULT_255_1_696
10
6.0634217
20
11.3164389
40
1.0320965
50
245.2155139
51
250.3287526
0
ARC
8
DEFAULT_255_1_696
10
6.1555059
20
11.5627005
40
1.2949894
50
250.1600532
51
250.4522264
0
ARC
8
DEFAULT_255_1_696
10
5.3179205
20
9.1020966
40
1.304485
50
65.7190496
51
71.9453424
0
ARC
8
DEFAULT_255_1_696
10
5.5198597
20
9.5459895
40
0.8168207
50
56.875802
51
65.82721
0
ARC
8
DEFAULT_255_1_696
10
5.7000718
20
9.8187431
40
0.4899185
50
42.8524771
51
57.0954015
0
ARC
8
DEFAULT_255_1_696
10
5.7757477
20
9.8946519
40
0.3828362
50
41.6526744
51
42.2267125
0
ARC
8
DEFAULT_255_1_696
10
5.7655001
20
9.8886407
40
0.394495
50
10.8429889
51
41.3158294
0
ARC
8
DEFAULT_255_1_696
10
5.5999094
20
9.8519618
40
0.5640502
50
359.6694704
51
11.3380321
0
ARC
8
DEFAULT_255_1_696
10
5.6764835
20
9.844036
40
0.4874889
50
343.7812234
51
0.5491067
0
ARC
8
DEFAULT_255_1_696
10
5.7803821
20
9.8156736
40
0.3798077
50
312.4946488
51
343.5118327
0
ARC
8
DEFAULT_255_1_696
10
5.7506407
20
9.8493478
40
0.4247289
50
283.2699062
51
312.3842845
0
ARC
8
DEFAULT_255_1_696
10
5.6989608
20
10.0499359
40
0.6318381
50
270.5069123
51
283.655966
0
ARC
8
DEFAULT_255_1_696
10
5.6913322
20
10.2151855
40
0.7971725
50
269.9969756
51
270.9501089
0
ARC
8
DEFAULT_255_1_696
10
5.6861649
20
9.9741042
40
0.5561148
50
242.8411313
51
270.5280585
0
ARC
8
DEFAULT_255_1_696
10
5.641237
20
9.8928627
40
0.4633318
50
211.3826368
51
243.1986156
0
ARC
8
DEFAULT_255_1_696
10
5.6425587
20
9.8920809
40
0.464055
50
184.2431443
51
211.2152526
0
ARC
8
DEFAULT_255_1_696
10
5.7515581
20
9.9056903
40
0.573789
50
179.955707
51
184.7930917
0
ARC
8
DEFAULT_255_1_696
10
5.8087852
20
9.9028064
40
0.4278291
50
179.5543673
51
192.3104157
0
ARC
8
DEFAULT_255_1_696
10
5.6675053
20
9.8703119
40
0.2828742
50
191.9812071
51
217.1745185
0
ARC
8
DEFAULT_255_1_696
10
5.6455202
20
9.8567081
40
0.2571482
50
217.7192666
51
225.206967
0
ARC
8
DEFAULT_255_1_696
10
5.6584875
20
9.8718343
40
0.2770224
50
225.5078827
51
258.562814
0
ARC
8
DEFAULT_255_1_696
10
5.6885338
20
10.0003169
40
0.4089309
50
258.0062233
51
270.3861987
0
ARC
8
DEFAULT_255_1_696
10
5.6941038
20
10.0063986
40
0.4150128
50
269.6115518
51
280.2417956
0
ARC
8
DEFAULT_255_1_696
10
5.7221563
20
9.8570513
40
0.2630595
50
280.01284
51
297.5244429
0
ARC
8
DEFAULT_255_1_696
10
5.7502673
20
9.8001868
40
0.199645
50
297.9117118
51
315.343314
0
ARC
8
DEFAULT_255_1_696
10
5.7292852
20
9.8183786
40
0.2273637
50
315.798675
51
348.0066871
0
ARC
8
DEFAULT_255_1_696
10
5.622402
20
9.8440147
40
0.3372532
50
347.5197088
51
0.4220959
0
LINE
8
DEFAULT_255_1_696
10
6.6399231
20
11.0480273
11
6.6399231
21
9.4401
0
LINE
8
DEFAULT_255_1_696
10
6.6399231
20
9.4401
11
6.4378278
21
9.4401
0
LINE
8
DEFAULT_255_1_696
10
6.4378278
20
9.4401
11
6.4378278
21
11.0480273
0
LINE
8
DEFAULT_255_1_696
10
6.4378278
20
11.0480273
11
6.6399231
21
11.0480273
0
LINE
8
DEFAULT_255_1_696
10
8.000477
20
10.2407506
11
8.000477
21
9.6399866
0
LINE
8
DEFAULT_255_1_696
10
8.000477
20
9.6399866
11
7.9651379
21
9.5958127
0
LINE
8
DEFAULT_255_1_696
10
6.9579747
20
10.0795162
11
6.9579747
21
10.395359
0
LINE
8
DEFAULT_255_1_696
10
8.000477
20
10.5764717
11
7.7983817
21
10.5764717
0
LINE
8
DEFAULT_255_1_696
10
7.1611743
20
10.420759
11
7.1611743
21
10.0927683
0
LINE
8
DEFAULT_255_1_696
10
7.7685644
20
9.6698039
11
7.7983817
21
9.6974125
0
LINE
8
DEFAULT_255_1_696
10
7.7983817
20
9.6974125
11
7.7983817
21
10.0684727
0
LINE
8
DEFAULT_255_1_696
10
7.7983817
20
10.0684727
11
7.5046258
21
10.0684727
0
LINE
8
DEFAULT_255_1_696
10
7.5046258
20
10.0684727
11
7.5046258
21
10.2407506
0
LINE
8
DEFAULT_255_1_696
10
7.5046258
20
10.2407506
11
8.000477
21
10.2407506
0
ARC
8
DEFAULT_255_1_696
10
7.5950081
20
9.9162485
40
0.4895663
50
282.8918832
51
319.1159921
0
ARC
8
DEFAULT_255_1_696
10
7.5277307
20
10.1725528
40
0.7544671
50
270.2892345
51
283.5295751
0
ARC
8
DEFAULT_255_1_696
10
7.5189994
20
10.3745587
40
0.9565458
50
269.9989744
51
270.7511477
0
ARC
8
DEFAULT_255_1_696
10
7.512825
20
10.0494553
40
0.6314722
50
254.20922
51
270.5586798
0
ARC
8
DEFAULT_255_1_696
10
7.4714245
20
9.8979367
40
0.4744077
50
220.33984
51
254.040876
0
ARC
8
DEFAULT_255_1_696
10
7.5514002
20
9.9627683
40
0.5773382
50
196.8292141
51
220.1062224
0
ARC
8
DEFAULT_255_1_696
10
7.8404765
20
10.0550123
40
0.8807524
50
184.6980579
51
197.1284627
0
ARC
8
DEFAULT_255_1_696
10
8.180779
20
10.0906585
40
1.2228551
50
180.522071
51
185.0566818
0
ARC
8
DEFAULT_255_1_696
10
8.3044162
20
10.4021464
40
1.3464586
50
172.3639212
51
180.2888216
0
ARC
8
DEFAULT_255_1_696
10
7.8004787
20
10.4719471
40
0.8377179
50
160.6378853
51
172.5156413
0
ARC
8
DEFAULT_255_1_696
10
7.5062908
20
10.5771442
40
0.5252947
50
141.8401279
51
160.8247334
0
ARC
8
DEFAULT_255_1_696
10
7.4305205
20
10.6285808
40
0.4339834
50
102.1548491
51
140.9989532
0
ARC
8
DEFAULT_255_1_696
10
7.4921768
20
10.3847842
40
0.6853548
50
89.5131956
51
102.9023917
0
ARC
8
DEFAULT_255_1_696
10
7.5030284
20
10.4059229
40
0.6642104
50
77.7365474
51
90.4337862
0
ARC
8
DEFAULT_255_1_696
10
7.5527708
20
10.622096
40
0.4424127
50
52.2451018
51
78.0850073
0
ARC
8
DEFAULT_255_1_696
10
7.5719463
20
10.6529346
40
0.4063068
50
45.3547391
51
51.7203467
0
ARC
8
DEFAULT_255_1_696
10
7.5394754
20
10.6251853
40
0.4488818
50
17.9198826
51
44.8949486
0
ARC
8
DEFAULT_255_1_696
10
7.3302492
20
10.5533019
40
0.6700876
50
5.2563661
51
18.2636153
0
ARC
8
DEFAULT_255_1_696
10
7.1255327
20
10.5279771
40
0.876287
50
3.1724309
51
5.6790024
0
ARC
8
DEFAULT_255_1_696
10
7.2239534
20
10.5332134
40
0.5760548
50
4.3066253
51
13.9374727
0
ARC
8
DEFAULT_255_1_696
10
7.4124234
20
10.5811631
40
0.381586
50
13.7659177
51
28.9013147
0
ARC
8
DEFAULT_255_1_696
10
7.4889805
20
10.6213158
40
0.2951637
50
29.2601319
51
40.025802
0
ARC
8
DEFAULT_255_1_696
10
7.5434064
20
10.6643785
40
0.2258009
50
40.5402798
51
75.1839425
0
ARC
8
DEFAULT_255_1_696
10
7.5072346
20
10.5426071
40
0.3527943
50
74.5618904
51
87.9340296
0
ARC
8
DEFAULT_255_1_696
10
7.4993
20
10.4271287
40
0.4684989
50
87.4734075
51
90.0239666
0
ARC
8
DEFAULT_255_1_696
10
7.4953254
20
10.4777953
40
0.4178494
50
89.4818558
51
103.1359883
0
ARC
8
DEFAULT_255_1_696
10
7.4553388
20
10.6322785
40
0.2583496
50
102.2861211
51
144.4647709
0
ARC
8
DEFAULT_255_1_696
10
7.539817
20
10.5787509
40
0.3582478
50
145.3509227
51
161.9302239
0
ARC
8
DEFAULT_255_1_696
10
7.7990558
20
10.4903032
40
0.6321458
50
161.5970399
51
171.2338848
0
ARC
8
DEFAULT_255_1_696
10
8.2165997
20
10.4235539
40
1.0549874
50
171.1070554
51
177.7089555
0
ARC
8
DEFAULT_255_1_696
10
8.6086805
20
10.4020143
40
1.4476277
50
177.4774654
51
179.25808
0
ARC
8
DEFAULT_255_1_696
10
8.1824081
20
10.0877741
40
1.0212461
50
179.719804
51
187.6185202
0
ARC
8
DEFAULT_255_1_696
10
7.8093621
20
10.0362371
40
0.6446625
50
187.4741154
51
199.2487922
0
ARC
8
DEFAULT_255_1_696
10
7.5990406
20
9.9626474
40
0.4218384
50
199.2299205
51
215.106058
0
ARC
8
DEFAULT_255_1_696
10
7.4990958
20
9.8900555
40
0.2983338
50
214.7393852
51
264.843839
0
ARC
8
DEFAULT_255_1_696
10
7.5193387
20
10.0111913
40
0.4209009
50
263.5812495
51
270.1018169
0
ARC
8
DEFAULT_255_1_696
10
7.5234786
20
10.1278792
40
0.5375989
50
269.6384871
51
279.7565746
0
ARC
8
DEFAULT_255_1_696
10
7.5577798
20
9.9360345
40
0.3427185
50
279.5401485
51
295.9919718
0
ARC
8
DEFAULT_255_1_696
10
7.5947995
20
9.8567358
40
0.255221
50
296.3235365
51
312.9093823
0
LINE
8
DEFAULT_255_1_696
10
9.3809091
20
11.0480273
11
9.3809091
21
9.4401
0
LINE
8
DEFAULT_255_1_696
10
9.3809091
20
9.4401
11
9.1777095
21
9.4401
0
LINE
8
DEFAULT_255_1_696
10
9.1777095
20
9.4401
11
8.533876
21
10.6791759
0
LINE
8
DEFAULT_255_1_696
10
8.533876
20
10.6791759
11
8.533876
21
9.4401
0
LINE
8
DEFAULT_255_1_696
10
8.533876
20
9.4401
11
8.3306764
21
9.4401
0
LINE
8
DEFAULT_255_1_696
10
8.3306764
20
9.4401
11
8.3306764
21
11.0480273
0
LINE
8
DEFAULT_255_1_696
10
8.3306764
20
11.0480273
11
8.533876
21
11.0480273
0
LINE
8
DEFAULT_255_1_696
10
8.533876
20
11.0480273
11
9.1799182
21
9.8034297
0
LINE
8
DEFAULT_255_1_696
10
9.1799182
20
9.8034297
11
9.1799182
21
11.0480273
0
LINE
8
DEFAULT_255_1_696
10
9.1799182
20
11.0480273
11
9.3809091
21
11.0480273
0
LINE
8
DEFAULT_255_1_696
10
10.6277154
20
9.4401
11
10.5007157
21
9.8597514
0
LINE
8
DEFAULT_255_1_696
10
10.5007157
20
9.8597514
11
9.9573776
21
9.8597514
0
LINE
8
DEFAULT_255_1_696
10
9.9573776
20
9.8597514
11
9.8325865
21
9.4401
0
LINE
8
DEFAULT_255_1_696
10
9.8325865
20
9.4401
11
9.6249695
21
9.4401
0
LINE
8
DEFAULT_255_1_696
10
9.6249695
20
9.4401
11
10.1429077
21
11.0480273
0
LINE
8
DEFAULT_255_1_696
10
10.1429077
20
11.0480273
11
10.3162899
21
11.0480273
0
LINE
8
DEFAULT_255_1_696
10
10.3162899
20
11.0480273
11
10.8353324
21
9.4401
0
LINE
8
DEFAULT_255_1_696
10
10.8353324
20
9.4401
11
10.6277154
21
9.4401
0
LINE
8
DEFAULT_255_1_696
10
10.2290466
20
10.7653148
11
10.0103862
21
10.034238
0
LINE
8
DEFAULT_255_1_696
10
10.0103862
20
10.034238
11
10.4488114
21
10.034238
0
LINE
8
DEFAULT_255_1_696
10
10.4488114
20
10.034238
11
10.2290466
21
10.7653148
0
LINE
8
DEFAULT_255_1_696
10
11.2571925
20
11.0480273
11
11.2571925
21
9.6134823
0
LINE
8
DEFAULT_255_1_696
10
11.2571925
20
9.6134823
11
11.8877739
21
9.6134823
0
LINE
8
DEFAULT_255_1_696
10
11.8877739
20
9.6134823
11
11.8877739
21
9.4401
0
LINE
8
DEFAULT_255_1_696
10
11.8877739
20
9.4401
11
11.0539929
21
9.4401
0
LINE
8
DEFAULT_255_1_696
10
11.0539929
20
9.4401
11
11.0539929
21
11.0480273
0
LINE
8
DEFAULT_255_1_696
10
11.0539929
20
11.0480273
11
11.2571925
21
11.0480273
0
ARC
8
DEFAULT_255_2_778
10
12.8739926
20
7.1564478
40
0.7407663
50
359.0178058
51
16.6744529
0
ARC
8
DEFAULT_255_2_778
10
13.1891362
20
7.2510687
40
0.4117244
50
16.6442594
51
83.1171234
0
ARC
8
DEFAULT_255_2_778
10
13.0911961
20
6.8348315
40
0.8380382
50
79.8779674
51
90.3928446
0
ARC
8
DEFAULT_255_2_778
10
5.1354629
20
6.0145578
40
1.6583391
50
89.5685609
51
100.6422984
0
ARC
8
DEFAULT_255_2_778
10
5.0108096
20
6.6487882
40
1.0120115
50
100.3376239
51
119.5724294
0
ARC
8
DEFAULT_255_2_778
10
4.8984334
20
6.8621631
40
0.7710093
50
120.1348532
51
134.8947228
0
ARC
8
DEFAULT_255_2_778
10
4.9405775
20
4.5696096
40
0.8395309
50
225.7013254
51
253.8369393
0
ARC
8
DEFAULT_255_2_778
10
5.0986616
20
5.0744819
40
1.3685002
50
253.3641123
51
266.8276386
0
ARC
8
DEFAULT_255_2_778
10
5.1460731
20
5.6354772
40
1.9313282
50
266.3442626
51
270.0556852
0
ARC
8
DEFAULT_255_2_778
10
13.0981511
20
4.4450773
40
0.7410363
50
269.0179339
51
286.6713971
0
ARC
8
DEFAULT_255_2_778
10
13.1928483
20
4.1296982
40
0.4117469
50
286.6379991
51
353.1126757
0
ARC
8
DEFAULT_255_2_778
10
12.7767821
20
4.227604
40
0.8378878
50
349.8761221
51
0.3929053
0
LINE
8
DEFAULT_255_2_778
10
13.0854502
20
7.6728498
11
5.1479502
21
7.6728498
0
LINE
8
DEFAULT_255_2_778
10
4.3542502
20
7.4083498
11
3.2958502
21
6.3499498
0
LINE
8
DEFAULT_255_2_778
10
3.2958502
20
6.3499498
11
3.2958502
21
5.0270498
0
LINE
8
DEFAULT_255_2_778
10
3.2958502
20
5.0270498
11
4.3542502
21
3.9687498
0
LINE
8
DEFAULT_255_2_778
10
5.1479502
20
3.7041498
11
13.0854502
21
3.7041498
0
LINE
8
DEFAULT_255_2_778
10
13.6146502
20
4.2333498
11
13.6146502
21
7.1437498
0
LINE
8
DEFAULT_255_2_778
10
2.5021502
20
12.9645498
11
2.5021502
21
-1.3229502
0
ENDSEC
0
EOF