0
SECTION
2
HEADER
9
$MEASUREMENT
70
1
0
ENDSEC
0
SECTION
2
TABLES
0
TABLE
2
LTYPE
0
LTYPE
72
65
70
64
2
CONTINUOUS
3
______
73
0
40
0
0
ENDTAB
0
TABLE
2
LAYER
0
LAYER
2
DEFAULT_255_1_696
70
0
62
255
6
CONTINUOUS
0
LAYER
2
DEFAULT_255_2_778_8
70
0
62
255
6
CONTINUOUS
0
ENDTAB
0
ENDSEC
0
SECTION
2
ENTITIES
0
LINE
8
DEFAULT_255_1_696
10
3.1880458
20
0.5156978
11
2.9848461
21
0.5156978
0
LINE
8
DEFAULT_255_1_696
10
2.2029694
20
-0.1612661
11
2.406169
21
-0.1612661
0
ARC
8
DEFAULT_255_1_696
10
2.6294573
20
-0.2182806
40
0.3553985
50
359.5775862
51
11.4023416
0
ARC
8
DEFAULT_255_1_696
10
2.7513473
20
-0.1926362
40
0.2308469
50
11.1439795
51
31.8836913
0
ARC
8
DEFAULT_255_1_696
10
2.7840188
20
-0.1744711
40
0.1935187
50
32.4262779
51
45.4867697
0
ARC
8
DEFAULT_255_1_696
10
2.7033397
20
-0.2619578
40
0.3124897
50
46.1841336
51
57.3876865
0
ARC
8
DEFAULT_255_1_696
10
2.5536823
20
-0.4904707
40
0.58564
50
57.1035308
51
63.6436893
0
ARC
8
DEFAULT_255_1_696
10
2.3678216
20
-0.8628339
40
1.0018102
50
63.5733896
51
68.3350585
0
ARC
8
DEFAULT_255_1_696
10
2.1874742
20
-1.3070424
40
1.481224
50
68.1952127
51
70.3954405
0
ARC
8
DEFAULT_255_1_696
10
3.2334676
20
1.6355767
40
1.6417736
50
246.7728678
51
250.4641504
0
ARC
8
DEFAULT_255_1_696
10
3.0032008
20
1.1022425
40
1.0608556
50
241.5773625
51
246.8413816
0
ARC
8
DEFAULT_255_1_696
10
2.8015001
20
0.7319901
40
0.6392303
50
234.0691956
51
241.6811751
0
ARC
8
DEFAULT_255_1_696
10
2.7157928
20
0.608452
40
0.4889145
50
233.4147283
51
233.7066421
0
ARC
8
DEFAULT_255_1_696
10
2.7267931
20
0.6276721
40
0.5109108
50
221.7637664
51
233.7088378
0
ARC
8
DEFAULT_255_1_696
10
2.6487161
20
0.5571711
40
0.4057159
50
207.7494007
51
221.6815167
0
ARC
8
DEFAULT_255_1_696
10
2.6386138
20
0.548191
40
0.3926077
50
186.6801498
51
207.2760177
0
ARC
8
DEFAULT_255_1_696
10
2.7418821
20
0.5633568
40
0.4969483
50
179.8925176
51
187.0318036
0
ARC
8
DEFAULT_255_1_696
10
2.7126983
20
0.5692345
40
0.46779
50
160.894911
51
180.6057379
0
ARC
8
DEFAULT_255_1_696
10
2.6528768
20
0.5854116
40
0.4059914
50
133.680089
51
160.2889628
0
ARC
8
DEFAULT_255_1_696
10
2.6718239
20
0.5682639
40
0.4314823
50
98.0831836
51
133.9270667
0
ARC
8
DEFAULT_255_1_696
10
2.7045142
20
0.3986606
40
0.6040573
50
89.8068026
51
98.8911064
0
ARC
8
DEFAULT_255_1_696
10
2.7102538
20
0.4658503
40
0.5368768
50
74.2980143
51
90.395166
0
ARC
8
DEFAULT_255_1_696
10
2.7286823
20
0.5394984
40
0.460995
50
60.1201909
51
74.0257193
0
ARC
8
DEFAULT_255_1_696
10
2.7446391
20
0.562707
40
0.432928
50
27.5687014
51
60.4210897
0
ARC
8
DEFAULT_255_1_696
10
2.6693671
20
0.521718
40
0.5186258
50
0.262807
51
27.7342092
0
ARC
8
DEFAULT_255_1_696
10
2.5814107
20
0.515694
40
0.606635
50
0.0003573
51
0.7936622
0
ARC
8
DEFAULT_255_1_696
10
2.4875633
20
0.5188926
40
0.4972931
50
359.6319026
51
10.1212622
0
ARC
8
DEFAULT_255_1_696
10
2.6600388
20
0.5508615
40
0.3218858
50
9.9144499
51
26.9762349
0
ARC
8
DEFAULT_255_1_696
10
2.725032
20
0.581956
40
0.2498653
50
27.3823313
51
41.1897742
0
ARC
8
DEFAULT_255_1_696
10
2.7394266
20
0.5925473
40
0.2320628
50
41.562437
51
77.8699299
0
ARC
8
DEFAULT_255_1_696
10
2.7094173
20
0.4716706
40
0.3565685
50
77.2369306
51
90.4605761
0
ARC
8
DEFAULT_255_1_696
10
2.7038848
20
0.4756131
40
0.3526247
50
89.5667711
51
102.0245024
0
ARC
8
DEFAULT_255_1_696
10
2.677665
20
0.5925868
40
0.2327586
50
101.7105683
51
125.6254496
0
ARC
8
DEFAULT_255_1_696
10
2.6647276
20
0.6141258
40
0.2077248
50
126.1854103
51
135.4859771
0
ARC
8
DEFAULT_255_1_696
10
2.6774688
20
0.6038864
40
0.2239947
50
135.9032128
51
165.7602787
0
ARC
8
DEFAULT_255_1_696
10
2.7871712
20
0.5735045
40
0.3378088
50
165.3423728
51
178.6345938
0
ARC
8
DEFAULT_255_1_696
10
2.8869713
20
0.5676837
40
0.4377327
50
178.1841865
51
180.0106926
0
ARC
8
DEFAULT_255_1_696
10
2.6812076
20
0.5645977
40
0.2319886
50
179.2579648
51
204.9572726
0
ARC
8
DEFAULT_255_1_696
10
2.6784648
20
0.5669088
40
0.2305
50
205.7658113
51
227.2919949
0
ARC
8
DEFAULT_255_1_696
10
2.7918518
20
0.6895414
40
0.397519
50
227.2715316
51
238.0733663
0
ARC
8
DEFAULT_255_1_696
10
2.9303658
20
0.9089102
40
0.6569558
50
237.9381028
51
245.3110165
0
ARC
8
DEFAULT_255_1_696
10
3.0886217
20
1.2490389
40
1.0320965
50
245.2155139
51
250.3287526
0
ARC
8
DEFAULT_255_1_696
10
3.1807059
20
1.4953005
40
1.2949894
50
250.1600532
51
250.4522264
0
ARC
8
DEFAULT_255_1_696
10
2.3431205
20
-0.9653034
40
1.304485
50
65.7190496
51
71.9453424
0
ARC
8
DEFAULT_255_1_696
10
2.5450597
20
-0.5214105
40
0.8168207
50
56.875802
51
65.82721
0
ARC
8
DEFAULT_255_1_696
10
2.7252718
20
-0.2486569
40
0.4899185
50
42.8524771
51
57.0954015
0
ARC
8
DEFAULT_255_1_696
10
2.8009477
20
-0.1727481
40
0.3828362
50
41.6526744
51
42.2267125
0
ARC
8
DEFAULT_255_1_696
10
2.7907001
20
-0.1787593
40
0.394495
50
10.8429889
51
41.3158294
0
ARC
8
DEFAULT_255_1_696
10
2.6251094
20
-0.2154382
40
0.5640502
50
359.6694704
51
11.3380321
0
ARC
8
DEFAULT_255_1_696
10
2.7016835
20
-0.223364
40
0.4874889
50
343.7812234
51
0.5491067
0
ARC
8
DEFAULT_255_1_696
10
2.8055821
20
-0.2517264
40
0.3798077
50
312.4946488
51
343.5118327
0
ARC
8
DEFAULT_255_1_696
10
2.7758407
20
-0.2180522
40
0.4247289
50
283.2699062
51
312.3842845
0
ARC
8
DEFAULT_255_1_696
10
2.7241608
20
-0.0174641
40
0.6318381
50
270.5069123
51
283.655966
0
ARC
8
DEFAULT_255_1_696
10
2.7165322
20
0.1477855
40
0.7971725
50
269.9969756
51
270.9501089
0
ARC
8
DEFAULT_255_1_696
10
2.7113649
20
-0.0932958
40
0.5561148
50
242.8411313
51
270.5280585
0
ARC
8
DEFAULT_255_1_696
10
2.666437
20
-0.1745373
40
0.4633318
50
211.3826368
51
243.1986156
0
ARC
8
DEFAULT_255_1_696
10
2.6677587
20
-0.1753191
40
0.464055
50
184.2431443
51
211.2152526
0
ARC
8
DEFAULT_255_1_696
10
2.7767581
20
-0.1617097
40
0.573789
50
179.955707
51
184.7930917
0
ARC
8
DEFAULT_255_1_696
10
2.8339852
20
-0.1645936
40
0.4278291
50
179.5543673
51
192.3104157
0
ARC
8
DEFAULT_255_1_696
10
2.6927053
20
-0.1970881
40
0.2828742
50
191.9812071
51
217.1745185
0
ARC
8
DEFAULT_255_1_696
10
2.6707202
20
-0.2106919
40
0.2571482
50
217.7192666
51
225.206967
0
ARC
8
DEFAULT_255_1_696
10
2.6836875
20
-0.1955657
40
0.2770224
50
225.5078827
51
258.562814
0
ARC
8
DEFAULT_255_1_696
10
2.7137338
20
-0.0670831
40
0.4089309
50
258.0062233
51
270.3861987
0
ARC
8
DEFAULT_255_1_696
10
2.7193038
20
-0.0610014
40
0.4150128
50
269.6115518
51
280.2417956
0
ARC
8
DEFAULT_255_1_696
10
2.7473563
20
-0.2103487
40
0.2630595
50
280.01284
51
297.5244429
0
ARC
8
DEFAULT_255_1_696
10
2.7754673
20
-0.2672132
40
0.199645
50
297.9117118
51
315.343314
0
ARC
8
DEFAULT_255_1_696
10
2.7544852
20
-0.2490214
40
0.2273637
50
315.798675
51
348.0066871
0
ARC
8
DEFAULT_255_1_696
10
2.647602
20
-0.2233853
40
0.3372532
50
347.5197088
51
0.4220959
0
LINE
8
DEFAULT_255_1_696
10
4.2095655
20
0.9806273
11
4.4127651
21
0.9806273
0
LINE
8
DEFAULT_255_1_696
10
4.4127651
20
0.9806273
11
4.4127651
21
-0.1623705
0
LINE
8
DEFAULT_255_1_696
10
3.4243757
20
-0.1623705
11
3.4243757
21
0.9806273
0
LINE
8
DEFAULT_255_1_696
10
3.4243757
20
0.9806273
11
3.6253667
21
0.9806273
0
LINE
8
DEFAULT_255_1_696
10
3.6253667
20
0.9806273
11
3.6253667
21
-0.15464
0
LINE
8
DEFAULT_255_1_696
10
4.2095655
20
-0.15464
11
4.2095655
21
0.9806273
0
ARC
8
DEFAULT_255_1_696
10
3.7602757
20
-0.1611949
40
0.6524905
50
346.7433096
51
359.8967752
0
ARC
8
DEFAULT_255_1_696
10
3.9714303
20
-0.2142647
40
0.434805
50
317.2263734
51
347.16958
0
ARC
8
DEFAULT_255_1_696
10
3.9874511
20
-0.2248534
40
0.4158658
50
314.7532864
51
316.7982875
0
ARC
8
DEFAULT_255_1_696
10
3.9809885
20
-0.2139526
40
0.4281682
50
283.4070368
51
314.3403997
0
ARC
8
DEFAULT_255_1_696
10
3.9255515
20
-0.0038333
40
0.6454361
50
270.7062314
51
283.8692159
0
ARC
8
DEFAULT_255_1_696
10
3.9169791
20
0.1715054
40
0.8208923
50
269.9954512
51
271.1536737
0
ARC
8
DEFAULT_255_1_696
10
3.9117618
20
0.06936
40
0.7187653
50
258.9563447
51
270.410703
0
ARC
8
DEFAULT_255_1_696
10
3.861192
20
-0.179639
40
0.4646946
50
239.7079156
51
259.1950302
0
ARC
8
DEFAULT_255_1_696
10
3.8206059
20
-0.2557002
40
0.3785609
50
224.9050791
51
239.2052356
0
ARC
8
DEFAULT_255_1_696
10
3.8491971
20
-0.2323988
40
0.415277
50
195.5446402
51
224.3973821
0
ARC
8
DEFAULT_255_1_696
10
4.0547777
20
-0.1706709
40
0.6298953
50
182.6482325
51
195.9427553
0
ARC
8
DEFAULT_255_1_696
10
4.2563127
20
-0.1548589
40
0.831971
50
180.5173068
51
183.0947281
0
ARC
8
DEFAULT_255_1_696
10
4.2334585
20
-0.1579171
40
0.6081006
50
179.6912307
51
188.1169695
0
ARC
8
DEFAULT_255_1_696
10
4.0060165
20
-0.1914754
40
0.3782006
50
187.949023
51
200.7956413
0
ARC
8
DEFAULT_255_1_696
10
3.8805055
20
-0.2395943
40
0.2437826
50
200.6961806
51
220.2302206
0
ARC
8
DEFAULT_255_1_696
10
3.852029
20
-0.2580844
40
0.2101437
50
221.3959967
51
251.2643641
0
ARC
8
DEFAULT_255_1_696
10
3.8958274
20
-0.1382704
40
0.3376902
50
250.7565354
51
264.3054389
0
ARC
8
DEFAULT_255_1_696
10
3.9155362
20
0.0270457
40
0.5041564
50
263.9408546
51
270.15657
0
ARC
8
DEFAULT_255_1_696
10
3.9199273
20
-0.0043485
40
0.4727701
50
269.6348061
51
279.396091
0
ARC
8
DEFAULT_255_1_696
10
3.950676
20
-0.182634
40
0.2918593
50
279.1547209
51
295.1653504
0
ARC
8
DEFAULT_255_1_696
10
3.9889529
20
-0.2649954
40
0.201039
50
295.2733318
51
318.9414078
0
ARC
8
DEFAULT_255_1_696
10
3.9491429
20
-0.2360976
40
0.2500761
50
319.9400048
51
341.6453432
0
ARC
8
DEFAULT_255_1_696
10
3.8034285
20
-0.1853664
40
0.4043589
50
341.3243934
51
353.4036301
0
ARC
8
DEFAULT_255_1_696
10
3.581034
20
-0.1570753
40
0.6285362
50
353.1705887
51
0.2219918
0
LINE
8
DEFAULT_255_1_696
10
5.1979549
20
-0.6273
11
4.7241906
21
-0.6273
0
LINE
8
DEFAULT_255_1_696
10
4.7241906
20
-0.6273
11
4.7241906
21
0.9806273
0
LINE
8
DEFAULT_255_1_696
10
4.7241906
20
0.9806273
11
5.1824941
21
0.9806273
0
LINE
8
DEFAULT_255_1_696
10
5.2067897
20
0.1247594
11
4.9262859
21
0.1247594
0
LINE
8
DEFAULT_255_1_696
10
4.9262859
20
0.1247594
11
4.9262859
21
-0.4539177
0
LINE
8
DEFAULT_255_1_696
10
4.9262859
20
-0.4539177
11
5.2023723
21
-0.4539177
0
LINE
8
DEFAULT_255_1_696
10
4.9262859
20
0.8061407
11
4.9262859
21
0.2948287
0
LINE
8
DEFAULT_255_1_696
10
4.9262859
20
0.2948287
11
5.1858071
21
0.2948287
0
LINE
8
DEFAULT_255_1_696
10
5.1824941
20
0.8061407
11
4.9262859
21
0.8061407
0
ARC
8
DEFAULT_255_1_696
10
5.1870903
20
0.2627163
40
0.7179257
50
80.3228242
51
90.366815
0
ARC
8
DEFAULT_255_1_696
10
5.2332925
20
0.5237185
40
0.452874
50
64.383836
51
80.5342573
0
ARC
8
DEFAULT_255_1_696
10
5.2849772
20
0.63528
40
0.3299364
50
46.222803
51
64.101136
0
ARC
8
DEFAULT_255_1_696
10
5.2775572
20
0.6339758
40
0.3360411
50
17.4161914
51
45.4631599
0
ARC
8
DEFAULT_255_1_696
10
5.1014625
20
0.5749973
40
0.521728
50
4.3473333
51
17.8079966
0
ARC
8
DEFAULT_255_1_696
10
4.8855564
20
0.5532939
40
0.738677
50
359.9105902
51
4.7564721
0
ARC
8
DEFAULT_255_1_696
10
5.2422944
20
0.5491296
40
0.3819499
50
342.5460117
51
0.4517751
0
ARC
8
DEFAULT_255_1_696
10
5.2874121
20
0.5370442
40
0.3352905
50
326.7811135
51
342.2036106
0
ARC
8
DEFAULT_255_1_696
10
5.2512933
20
0.5607416
40
0.3784893
50
295.7138355
51
326.7754309
0
ARC
8
DEFAULT_255_1_696
10
5.328615
20
-0.0727588
40
0.305127
50
31.5928819
51
73.4539085
0
ARC
8
DEFAULT_255_1_696
10
5.2662373
20
-0.1200723
40
0.3831223
50
32.1671594
51
32.7329527
0
ARC
8
DEFAULT_255_1_696
10
5.2392632
20
-0.133951
40
0.4133531
50
9.6144886
51
31.8050335
0
ARC
8
DEFAULT_255_1_696
10
5.0966366
20
-0.1611229
40
0.5585226
50
359.7587314
51
9.919064
0
ARC
8
DEFAULT_255_1_696
10
5.0168477
20
-0.1681569
40
0.6383235
50
347.9585107
51
0.4202675
0
ARC
8
DEFAULT_255_1_696
10
5.2232011
20
-0.214693
40
0.4268092
50
323.4879469
51
348.2891107
0
ARC
8
DEFAULT_255_1_696
10
5.2568589
20
-0.2351651
40
0.3875931
50
316.1634532
51
322.9599056
0
ARC
8
DEFAULT_255_1_696
10
5.2608399
20
-0.2352962
40
0.3846398
50
284.0514062
51
315.766811
0
ARC
8
DEFAULT_255_1_696
10
5.2075505
20
-0.0423373
40
0.5847834
50
271.1390601
51
284.5262096
0
ARC
8
DEFAULT_255_1_696
10
5.1980658
20
0.1281078
40
0.7554079
50
269.9915929
51
271.6013217
0
ARC
8
DEFAULT_255_1_696
10
5.2051218
20
-0.1727242
40
0.281207
50
269.4397932
51
286.1513894
0
ARC
8
DEFAULT_255_1_696
10
5.2223231
20
-0.2354752
40
0.2161497
50
286.3988239
51
318.6521159
0
ARC
8
DEFAULT_255_1_696
10
5.1971622
20
-0.2144901
40
0.2489032
50
318.8519743
51
344.1947513
0
ARC
8
DEFAULT_255_1_696
10
5.0744482
20
-0.1774872
40
0.3770623
50
343.863415
51
356.6728648
0
ARC
8
DEFAULT_255_1_696
10
4.9404426
20
-0.1661546
40
0.511512
50
356.2767574
51
0.0527663
0
ARC
8
DEFAULT_255_1_696
10
4.9504938
20
-0.1601915
40
0.5014907
50
359.3725173
51
11.8777723
0
ARC
8
DEFAULT_255_1_696
10
5.1868016
20
-0.1078368
40
0.2594795
50
11.3045868
51
35.4671752
0
ARC
8
DEFAULT_255_1_696
10
5.2378186
20
-0.079641
40
0.2016781
50
37.3533206
51
83.0347222
0
ARC
8
DEFAULT_255_1_696
10
5.2083729
20
-0.2220392
40
0.3468023
50
81.0583861
51
90.2615588
0
ARC
8
DEFAULT_255_1_696
10
5.1884226
20
0.5475084
40
0.2526932
50
269.4069547
51
287.8256056
0
ARC
8
DEFAULT_255_1_696
10
5.2001057
20
0.5051117
40
0.2087637
50
288.3350689
51
318.0314928
0
ARC
8
DEFAULT_255_1_696
10
5.1772682
20
0.5262467
40
0.2398776
50
317.9258778
51
348.4571773
0
ARC
8
DEFAULT_255_1_696
10
5.0705884
20
0.5509158
40
0.3493477
50
347.9940934
51
0.3820997
0
ARC
8
DEFAULT_255_1_696
10
4.9445936
20
0.5558351
40
0.4753419
50
359.6878617
51
8.0093939
0
ARC
8
DEFAULT_255_1_696
10
5.1273802
20
0.5825186
40
0.2906219
50
7.8212158
51
20.7458675
0
ARC
8
DEFAULT_255_1_696
10
5.2319689
20
0.6231292
40
0.1784317
50
20.4473482
51
43.5002285
0
ARC
8
DEFAULT_255_1_696
10
5.2325935
20
0.6179346
40
0.1816027
50
44.8248158
51
71.9704833
0
ARC
8
DEFAULT_255_1_696
10
5.1981547
20
0.518838
40
0.2865
50
71.5551736
51
84.7500628
0
ARC
8
DEFAULT_255_1_696
10
5.1834515
20
0.3877553
40
0.4183867
50
84.38751
51
90.1311115
0
LINE
8
DEFAULT_255_1_696
10
7.0024558
20
0.0021771
11
6.6777782
21
0.0021771
0
LINE
8
DEFAULT_255_1_696
10
6.6777782
20
0.0021771
11
6.6777782
21
-0.6273
0
LINE
8
DEFAULT_255_1_696
10
6.6777782
20
-0.6273
11
6.4756829
21
-0.6273
0
LINE
8
DEFAULT_255_1_696
10
6.4756829
20
-0.6273
11
6.4756829
21
0.9806273
0
LINE
8
DEFAULT_255_1_696
10
6.4756829
20
0.9806273
11
6.9880993
21
0.9806273
0
LINE
8
DEFAULT_255_1_696
10
6.6777782
20
0.8061407
11
6.6777782
21
0.1755593
0
LINE
8
DEFAULT_255_1_696
10
6.6777782
20
0.1755593
11
6.9880993
21
0.1755593
0
LINE
8
DEFAULT_255_1_696
10
6.9892037
20
0.8061407
11
6.6777782
21
0.8061407
0
ARC
8
DEFAULT_255_1_696
10
6.9932472
20
0.3779546
40
0.6026948
50
76.2184316
51
90.4893939
0
ARC
8
DEFAULT_255_1_696
10
7.0393424
20
0.5577384
40
0.4171103
50
43.8020726
51
76.484903
0
ARC
8
DEFAULT_255_1_696
10
7.0114224
20
0.5357248
40
0.4525113
50
10.3313675
51
43.3668338
0
ARC
8
DEFAULT_255_1_696
10
6.8151831
20
0.4927409
40
0.6533163
50
359.6888901
51
10.9534603
0
ARC
8
DEFAULT_255_1_696
10
6.7617539
20
0.4842062
40
0.7067534
50
348.9275976
51
0.4043164
0
ARC
8
DEFAULT_255_1_696
10
7.0036495
20
0.4347865
40
0.4598741
50
329.2235907
51
349.1822477
0
ARC
8
DEFAULT_255_1_696
10
7.0741985
20
0.3967954
40
0.3798365
50
315.7896725
51
328.701916
0
ARC
8
DEFAULT_255_1_696
10
7.0550924
20
0.4197606
40
0.4095569
50
284.5174561
51
315.3506022
0
ARC
8
DEFAULT_255_1_696
10
6.9983864
20
0.6189732
40
0.6166436
50
271.8468598
51
284.9781153
0
ARC
8
DEFAULT_255_1_696
10
6.9869661
20
0.7843144
40
0.7822907
50
271.1345601
51
272.2925946
0
ARC
8
DEFAULT_255_1_696
10
6.9911001
20
0.5350244
40
0.3594776
50
269.5217057
51
282.9267746
0
ARC
8
DEFAULT_255_1_696
10
7.0210333
20
0.4136461
40
0.2344877
50
282.4328235
51
314.2454086
0
ARC
8
DEFAULT_255_1_696
10
7.0242259
20
0.4078431
40
0.2281099
50
314.6879652
51
318.3266283
0
ARC
8
DEFAULT_255_1_696
10
6.9970554
20
0.4284806
40
0.2621398
50
318.9058573
51
343.5104157
0
ARC
8
DEFAULT_255_1_696
10
6.8620759
20
0.4709218
40
0.4036214
50
343.1721445
51
355.8490859
0
ARC
8
DEFAULT_255_1_696
10
6.7024722
20
0.4861816
40
0.5639229
50
355.4765081
51
0.0816123
0
ARC
8
DEFAULT_255_1_696
10
6.8058605
20
0.4901655
40
0.4605449
50
359.6042949
51
11.6988752
0
ARC
8
DEFAULT_255_1_696
10
6.9506198
20
0.5216609
40
0.31241
50
11.425869
51
34.1664426
0
ARC
8
DEFAULT_255_1_696
10
6.9795466
20
0.5383672
40
0.279104
50
34.663716
51
40.3023032
0
ARC
8
DEFAULT_255_1_696
10
7.0073336
20
0.5626768
40
0.2421893
50
40.1683092
51
84.6027875
0
ARC
8
DEFAULT_255_1_696
10
6.98988
20
0.4603813
40
0.34576
50
83.3177126
51
90.1120787
0
LINE
8
DEFAULT_255_1_696
10
8.4535661
20
-0.6273
11
8.3265663
21
-0.2076486
0
LINE
8
DEFAULT_255_1_696
10
8.3265663
20
-0.2076486
11
7.7832282
21
-0.2076486
0
LINE
8
DEFAULT_255_1_696
10
7.7832282
20
-0.2076486
11
7.6584372
21
-0.6273
0
LINE
8
DEFAULT_255_1_696
10
7.6584372
20
-0.6273
11
7.4508202
21
-0.6273
0
LINE
8
DEFAULT_255_1_696
10
7.4508202
20
-0.6273
11
7.9687583
21
0.9806273
0
LINE
8
DEFAULT_255_1_696
10
7.9687583
20
0.9806273
11
8.1421406
21
0.9806273
0
LINE
8
DEFAULT_255_1_696
10
8.1421406
20
0.9806273
11
8.6611831
21
-0.6273
0
LINE
8
DEFAULT_255_1_696
10
8.6611831
20
-0.6273
11
8.4535661
21
-0.6273
0
LINE
8
DEFAULT_255_1_696
10
8.0548973
20
0.6979148
11
7.8362368
21
-0.033162
0
LINE
8
DEFAULT_255_1_696
10
7.8362368
20
-0.033162
11
8.2746621
21
-0.033162
0
LINE
8
DEFAULT_255_1_696
10
8.2746621
20
-0.033162
11
8.0548973
21
0.6979148
0
LINE
8
DEFAULT_255_1_696
10
9.9300763
20
0.9806273
11
9.9300763
21
-0.6273
0
LINE
8
DEFAULT_255_1_696
10
9.9300763
20
-0.6273
11
9.7268767
21
-0.6273
0
LINE
8
DEFAULT_255_1_696
10
9.7268767
20
-0.6273
11
9.0830431
21
0.6117759
0
LINE
8
DEFAULT_255_1_696
10
9.0830431
20
0.6117759
11
9.0830431
21
-0.6273
0
LINE
8
DEFAULT_255_1_696
10
9.0830431
20
-0.6273
11
8.8798435
21
-0.6273
0
LINE
8
DEFAULT_255_1_696
10
8.8798435
20
-0.6273
11
8.8798435
21
0.9806273
0
LINE
8
DEFAULT_255_1_696
10
8.8798435
20
0.9806273
11
9.0830431
21
0.9806273
0
LINE
8
DEFAULT_255_1_696
10
9.0830431
20
0.9806273
11
9.7290854
21
-0.2639703
0
LINE
8
DEFAULT_255_1_696
10
9.7290854
20
-0.2639703
11
9.7290854
21
0.9806273
0
LINE
8
DEFAULT_255_1_696
10
9.7290854
20
0.9806273
11
9.9300763
21
0.9806273
0
LINE
8
DEFAULT_255_1_696
10
11.0509872
20
0.2893069
11
11.0509872
21
0.1159247
0
LINE
8
DEFAULT_255_1_696
10
11.0509872
20
0.1159247
11
10.4822491
21
0.1159247
0
LINE
8
DEFAULT_255_1_696
10
10.4822491
20
0.1159247
11
10.4822491
21
-0.4539177
0
LINE
8
DEFAULT_255_1_696
10
10.4822491
20
-0.4539177
11
11.1448565
21
-0.4539177
0
LINE
8
DEFAULT_255_1_696
10
11.1448565
20
-0.4539177
11
11.1448565
21
-0.6273
0
LINE
8
DEFAULT_255_1_696
10
11.1448565
20
-0.6273
11
10.2801539
21
-0.6273
0
LINE
8
DEFAULT_255_1_696
10
10.2801539
20
-0.6273
11
10.2801539
21
0.9806273
0
LINE
8
DEFAULT_255_1_696
10
10.2801539
20
0.9806273
11
11.1338131
21
0.9806273
0
LINE
8
DEFAULT_255_1_696
10
11.1338131
20
0.9806273
11
11.1338131
21
0.8061407
0
LINE
8
DEFAULT_255_1_696
10
11.1338131
20
0.8061407
11
10.4822491
21
0.8061407
0
LINE
8
DEFAULT_255_1_696
10
10.4822491
20
0.8061407
11
10.4822491
21
0.2893069
0
LINE
8
DEFAULT_255_1_696
10
10.4822491
20
0.2893069
11
11.0509872
21
0.2893069
0
LINE
8
DEFAULT_255_1_696
10
11.606473
20
0.9806273
11
11.606473
21
-0.4539177
0
LINE
8
DEFAULT_255_1_696
10
11.606473
20
-0.4539177
11
12.2370544
21
-0.4539177
0
LINE
8
DEFAULT_255_1_696
10
12.2370544
20
-0.4539177
11
12.2370544
21
-0.6273
0
LINE
8
DEFAULT_255_1_696
10
12.2370544
20
-0.6273
11
11.4032734
21
-0.6273
0
LINE
8
DEFAULT_255_1_696
10
11.4032734
20
-0.6273
11
11.4032734
21
0.9806273
0
LINE
8
DEFAULT_255_1_696
10
11.4032734
20
0.9806273
11
11.606473
21
0.9806273
0
LINE
8
DEFAULT_255_2_778_8
10
0.4630502
20
12.6867082
11
14.7505502
21
12.6867082
0
LINE
8
DEFAULT_255_2_778_8
10
14.7505502
20
12.6867082
11
14.7505502
21
3.4263082
0
LINE
8
DEFAULT_255_2_778_8
10
14.7505502
20
3.4263082
11
0.4630502
21
3.4263082
0
LINE
8
DEFAULT_255_2_778_8
10
0.4630502
20
3.4263082
11
0.4630502
21
12.6867082
0
ENDSEC
0
EOF