0
SECTION
2
HEADER
9
$MEASUREMENT
70
1
0
ENDSEC
0
SECTION
2
TABLES
0
TABLE
2
LTYPE
0
LTYPE
72
65
70
64
2
CONTINUOUS
3
______
73
0
40
0
0
ENDTAB
0
TABLE
2
LAYER
0
LAYER
2
DEFAULT_255_2_778
70
0
62
255
6
CONTINUOUS
0
LAYER
2
DEFAULT_255_1_388
70
0
62
255
6
CONTINUOUS
0
ENDTAB
0
ENDSEC
0
SECTION
2
ENTITIES
0
LINE
8
DEFAULT_255_2_778
10
5.6885751
20
11.9728124
11
5.6885751
21
1.2572124
0
LINE
8
DEFAULT_255_2_778
10
5.6885751
20
1.2572124
11
11.2447751
21
1.2572124
0
LINE
8
DEFAULT_255_1_388
10
7.6220444
20
8.6136898
11
7.9391955
21
8.1095009
0
LINE
8
DEFAULT_255_1_388
10
7.9391955
20
8.1095009
11
8.2545395
21
8.6136898
0
LINE
8
DEFAULT_255_1_388
10
8.2545395
20
8.6136898
11
8.4587451
21
8.6136898
0
LINE
8
DEFAULT_255_1_388
10
8.4587451
20
8.6136898
11
8.0431054
21
7.9613163
0
LINE
8
DEFAULT_255_1_388
10
8.0431054
20
7.9613163
11
8.4686843
21
7.2981
0
LINE
8
DEFAULT_255_1_388
10
8.4686843
20
7.2981
11
8.2626716
21
7.2981
0
LINE
8
DEFAULT_255_1_388
10
8.2626716
20
7.2981
11
7.9391955
21
7.8113246
0
LINE
8
DEFAULT_255_1_388
10
7.9391955
20
7.8113246
11
7.6139123
21
7.2981
0
LINE
8
DEFAULT_255_1_388
10
7.6139123
20
7.2981
11
7.4088032
21
7.2981
0
LINE
8
DEFAULT_255_1_388
10
7.4088032
20
7.2981
11
7.8352856
21
7.9613163
0
LINE
8
DEFAULT_255_1_388
10
7.8352856
20
7.9613163
11
7.4187424
21
8.6136898
0
LINE
8
DEFAULT_255_1_388
10
7.4187424
20
8.6136898
11
7.6220444
21
8.6136898
0
LINE
8
DEFAULT_255_2_778
10
5.0270459
20
11.3112415
11
6.3499459
21
11.3112415
0
LINE
8
DEFAULT_255_2_778
10
11.2447459
20
0.5956415
11
11.2447459
21
1.9185415
0
LINE
8
DEFAULT_255_2_778
10
5.6885459
20
11.3443415
11
5.6885459
21
11.9727415
0
LINE
8
DEFAULT_255_2_778
10
11.9062708
20
1.2572
11
11.2447708
21
1.2572
0
ARC
8
DEFAULT_255_2_778
10
7.2569694
20
-0.7649944
40
0.8046329
50
72.3670711
51
90.9216231
0
ARC
8
DEFAULT_255_2_778
10
7.3405835
20
-0.4903133
40
0.5175409
50
48.5722945
51
71.9773608
0
ARC
8
DEFAULT_255_2_778
10
7.3630204
20
-0.4587984
40
0.4790824
50
357.731022
51
48.090364
0
ARC
8
DEFAULT_255_2_778
10
7.2918044
20
-0.4913105
40
0.5500895
50
334.8688929
51
1.4109373
0
ARC
8
DEFAULT_255_2_778
10
7.4164541
20
-0.5400175
40
0.4166476
50
310.3883342
51
333.6529824
0
ARC
8
DEFAULT_255_2_778
10
7.3417097
20
-0.4377301
40
0.5430692
50
280.0173976
51
309.4020387
0
ARC
8
DEFAULT_255_2_778
10
7.2496214
20
-0.0135591
40
0.9769384
50
269.5370115
51
281.0086632
0
ARC
8
DEFAULT_255_2_778
10
7.2566376
20
-0.3017688
40
0.5065538
50
268.5735002
51
290.5733947
0
ARC
8
DEFAULT_255_2_778
10
7.3242916
20
-0.4979228
40
0.2991881
50
291.6440858
51
310.9874766
0
ARC
8
DEFAULT_255_2_778
10
7.3182739
20
-0.5050562
40
0.2978929
50
312.7613429
51
0.5691978
0
ARC
8
DEFAULT_255_2_778
10
7.1139879
20
-0.4802448
40
0.5026394
50
357.5082911
51
0.0204169
0
ARC
8
DEFAULT_255_2_778
10
7.2999361
20
-0.4659333
40
0.3170063
50
357.4448623
51
45.904436
0
ARC
8
DEFAULT_255_2_778
10
7.2782048
20
-0.5088349
40
0.3632187
50
48.1523071
51
87.6340708
0
ARC
8
DEFAULT_255_2_778
10
7.2447776
20
-0.7368873
40
0.592942
50
85.3158409
51
88.8452395
0
ARC
8
DEFAULT_255_2_778
10
9.4239805
20
-0.7647466
40
0.8043852
50
72.3642832
51
90.9226997
0
ARC
8
DEFAULT_255_2_778
10
9.5076768
20
-0.489862
40
0.5170747
50
48.5552624
51
71.9745188
0
ARC
8
DEFAULT_255_2_778
10
9.5301616
20
-0.4588239
40
0.4789403
50
357.733398
51
48.1138777
0
ARC
8
DEFAULT_255_2_778
10
9.4588044
20
-0.4913105
40
0.5500895
50
334.8688929
51
1.4109373
0
ARC
8
DEFAULT_255_2_778
10
9.5834541
20
-0.5400175
40
0.4166476
50
310.3883342
51
333.6529824
0
ARC
8
DEFAULT_255_2_778
10
9.5087095
20
-0.4376971
40
0.5430948
50
280.0126454
51
309.399835
0
ARC
8
DEFAULT_255_2_778
10
9.4165277
20
-0.0130041
40
0.9774935
50
269.5369044
51
281.0055373
0
ARC
8
DEFAULT_255_2_778
10
9.4237437
20
-0.3031053
40
0.5052205
50
268.5576954
51
290.7329838
0
ARC
8
DEFAULT_255_2_778
10
9.4912912
20
-0.4977755
40
0.2992993
50
291.8323917
51
310.9690337
0
ARC
8
DEFAULT_255_2_778
10
9.4850334
20
-0.5050864
40
0.2980342
50
312.7992331
51
0.5747197
0
ARC
8
DEFAULT_255_2_778
10
9.2804618
20
-0.4802493
40
0.5030654
50
357.5109152
51
0.020912
0
ARC
8
DEFAULT_255_2_778
10
9.4666663
20
-0.4659094
40
0.3171769
50
357.4419247
51
45.8664413
0
ARC
8
DEFAULT_255_2_778
10
9.4449381
20
-0.5093935
40
0.3638128
50
48.179718
51
87.6974167
0
ARC
8
DEFAULT_255_2_778
10
9.4117509
20
-0.7370199
40
0.5930752
50
85.3767294
51
88.8429197
0
LINE
8
DEFAULT_255_2_778
10
7.2417271
20
-0.9907656
11
6.8395271
21
-0.9907656
0
LINE
8
DEFAULT_255_2_778
10
6.8395271
20
-0.9907656
11
6.8395271
21
-1.6532656
0
LINE
8
DEFAULT_255_2_778
10
6.8395271
20
-1.6532656
11
6.6146271
21
-1.6532656
0
LINE
8
DEFAULT_255_2_778
10
6.6146271
20
-1.6532656
11
6.6146271
21
0.0395344
0
LINE
8
DEFAULT_255_2_778
10
6.6146271
20
0.0395344
11
7.2440271
21
0.0395344
0
LINE
8
DEFAULT_255_2_778
10
7.2417271
20
-0.9904656
11
7.2417271
21
-0.9907656
0
LINE
8
DEFAULT_255_2_778
10
6.8398271
20
-0.1443656
11
6.8398271
21
-0.8081656
0
LINE
8
DEFAULT_255_2_778
10
6.8398271
20
-0.8081656
11
7.2440271
21
-0.8081656
0
LINE
8
DEFAULT_255_2_778
10
7.2567271
20
-0.1440656
11
6.8395271
21
-0.1440656
0
LINE
8
DEFAULT_255_2_778
10
6.8395271
20
-0.1440656
11
6.8398271
21
-0.1443656
0
LINE
8
DEFAULT_255_2_778
10
8.3701271
20
0.0395344
11
8.3701271
21
-1.6532656
0
LINE
8
DEFAULT_255_2_778
10
8.3701271
20
-1.6532656
11
8.1452271
21
-1.6532656
0
LINE
8
DEFAULT_255_2_778
10
8.1452271
20
-1.6532656
11
8.1452271
21
0.0395344
0
LINE
8
DEFAULT_255_2_778
10
8.1452271
20
0.0395344
11
8.3701271
21
0.0395344
0
LINE
8
DEFAULT_255_2_778
10
8.3701271
20
0.0395344
11
8.3701271
21
0.0395344
0
LINE
8
DEFAULT_255_2_778
10
9.4086271
20
-0.9907656
11
9.0064271
21
-0.9907656
0
LINE
8
DEFAULT_255_2_778
10
9.0064271
20
-0.9907656
11
9.0064271
21
-1.6532656
0
LINE
8
DEFAULT_255_2_778
10
9.0064271
20
-1.6532656
11
8.7815271
21
-1.6532656
0
LINE
8
DEFAULT_255_2_778
10
8.7815271
20
-1.6532656
11
8.7815271
21
0.0395344
0
LINE
8
DEFAULT_255_2_778
10
8.7815271
20
0.0395344
11
9.4110271
21
0.0395344
0
LINE
8
DEFAULT_255_2_778
10
9.4086271
20
-0.9904656
11
9.4086271
21
-0.9907656
0
LINE
8
DEFAULT_255_2_778
10
9.0067271
20
-0.1443656
11
9.0067271
21
-0.8081656
0
LINE
8
DEFAULT_255_2_778
10
9.0067271
20
-0.8081656
11
9.4110271
21
-0.8081656
0
LINE
8
DEFAULT_255_2_778
10
9.4237271
20
-0.1440656
11
9.0064271
21
-0.1440656
0
LINE
8
DEFAULT_255_2_778
10
9.0064271
20
-0.1440656
11
9.0067271
21
-0.1443656
0
LINE
8
DEFAULT_255_2_778
10
11.2602271
20
-0.6883656
11
11.2602271
21
-0.8708656
0
LINE
8
DEFAULT_255_2_778
10
11.2602271
20
-0.8708656
11
10.5206271
21
-0.8708656
0
LINE
8
DEFAULT_255_2_778
10
10.5206271
20
-0.8708656
11
10.5206271
21
-1.4709656
0
LINE
8
DEFAULT_255_2_778
10
10.5206271
20
-1.4709656
11
11.3797271
21
-1.4709656
0
LINE
8
DEFAULT_255_2_778
10
11.3797271
20
-1.4709656
11
11.3797271
21
-1.6535656
0
LINE
8
DEFAULT_255_2_778
10
11.3797271
20
-1.6535656
11
10.2957271
21
-1.6535656
0
LINE
8
DEFAULT_255_2_778
10
10.2957271
20
-1.6535656
11
10.2957271
21
0.0392344
0
LINE
8
DEFAULT_255_2_778
10
10.2957271
20
0.0392344
11
11.3681271
21
0.0392344
0
LINE
8
DEFAULT_255_2_778
10
11.3681271
20
0.0392344
11
11.3681271
21
-0.1443656
0
LINE
8
DEFAULT_255_2_778
10
11.3681271
20
-0.1443656
11
10.5209271
21
-0.1443656
0
LINE
8
DEFAULT_255_2_778
10
10.5209271
20
-0.1443656
11
10.5209271
21
-0.6885656
0
LINE
8
DEFAULT_255_2_778
10
10.5209271
20
-0.6885656
11
11.2604271
21
-0.6885656
0
LINE
8
DEFAULT_255_2_778
10
11.2604271
20
-0.6885656
11
11.2602271
21
-0.6883656
0
ENDSEC
0
EOF