0
SECTION
2
HEADER
9
$MEASUREMENT
70
1
0
ENDSEC
0
SECTION
2
TABLES
0
TABLE
2
LTYPE
0
LTYPE
72
65
70
64
2
CONTINUOUS
3
______
73
0
40
0
0
ENDTAB
0
TABLE
2
LAYER
0
LAYER
2
DEFAULT_255_2_778
70
0
62
255
6
CONTINUOUS
0
LAYER
2
DEFAULT_255_2_778_10
70
0
62
255
6
CONTINUOUS
0
LAYER
2
DEFAULT_255_1_542
70
0
62
255
6
CONTINUOUS
0
LAYER
2
DEFAULT_255_1_696
70
0
62
255
6
CONTINUOUS
0
ENDTAB
0
ENDSEC
0
SECTION
2
ENTITIES
0
LINE
8
DEFAULT_255_2_778
10
2.7781169
20
10.4510831
11
16.0073169
21
10.4510831
0
LINE
8
DEFAULT_255_2_778
10
16.0073169
20
10.4510831
11
16.0073169
21
-2.7781169
0
LINE
8
DEFAULT_255_2_778
10
16.0073169
20
-2.7781169
11
2.7781169
21
-2.7781169
0
LINE
8
DEFAULT_255_2_778
10
2.7781169
20
-2.7781169
11
2.7781169
21
10.4510831
0
ARC
8
DEFAULT_255_2_778
10
9.4714482
20
3.8406008
40
6.6933326
50
168.541472
51
180.0352475
0
ARC
8
DEFAULT_255_2_778
10
9.3536576
20
3.8624864
40
6.5735422
50
153.0463229
51
168.5244689
0
ARC
8
DEFAULT_255_2_778
10
9.3822328
20
3.8462071
40
6.6063925
50
109.7078398
51
153.0328055
0
ARC
8
DEFAULT_255_2_778
10
9.3740716
20
3.8498054
40
6.6002561
50
96.3164082
51
109.6516769
0
ARC
8
DEFAULT_255_2_778
10
9.3912407
20
3.7069124
40
6.7441708
50
89.9874593
51
96.3278261
0
ARC
8
DEFAULT_255_2_778
10
9.3968345
20
3.7577518
40
6.6933326
50
78.541472
51
90.0352475
0
ARC
8
DEFAULT_255_2_778
10
9.4187201
20
3.8755424
40
6.5735422
50
63.0463229
51
78.5244689
0
ARC
8
DEFAULT_255_2_778
10
9.4024408
20
3.8469672
40
6.6063925
50
19.7078398
51
63.0328055
0
ARC
8
DEFAULT_255_2_778
10
9.4060391
20
3.8551284
40
6.6002561
50
6.3164082
51
19.6516769
0
ARC
8
DEFAULT_255_2_778
10
9.2631461
20
3.8379593
40
6.7441708
50
359.9874593
51
6.3278261
0
ARC
8
DEFAULT_255_2_778
10
9.3139855
20
3.8323655
40
6.6933326
50
348.541472
51
0.0352475
0
ARC
8
DEFAULT_255_2_778
10
9.4317761
20
3.8104799
40
6.5735422
50
333.0463229
51
348.5244689
0
ARC
8
DEFAULT_255_2_778
10
9.4032009
20
3.8267592
40
6.6063925
50
289.7078398
51
333.0328055
0
ARC
8
DEFAULT_255_2_778
10
9.4113621
20
3.8231609
40
6.6002561
50
276.3164082
51
289.6516769
0
ARC
8
DEFAULT_255_2_778
10
9.394193
20
3.9660539
40
6.7441708
50
269.9874593
51
276.3278261
0
ARC
8
DEFAULT_255_2_778
10
9.3885992
20
3.9152145
40
6.6933326
50
258.541472
51
270.0352475
0
ARC
8
DEFAULT_255_2_778
10
9.3667136
20
3.7974239
40
6.5735422
50
243.0463229
51
258.5244689
0
ARC
8
DEFAULT_255_2_778
10
9.3829929
20
3.8259991
40
6.6063925
50
199.7078398
51
243.0328055
0
ARC
8
DEFAULT_255_2_778
10
9.3793946
20
3.8178379
40
6.6002561
50
186.3164082
51
199.6516769
0
ARC
8
DEFAULT_255_2_778
10
9.5222876
20
3.835007
40
6.7441708
50
179.9874593
51
186.3278261
0
LINE
8
DEFAULT_255_2_778
10
2.7781169
20
3.8364831
11
2.7781169
21
3.8364831
0
LINE
8
DEFAULT_255_2_778_10
10
2.9765543
20
5.1594
11
15.8088543
21
5.1594
0
LINE
8
DEFAULT_255_2_778_10
10
2.9765543
20
2.5136
11
15.8088543
21
2.5136
0
LINE
8
DEFAULT_255_1_542
10
7.4844623
20
6.5605
11
7.0798684
21
6.5605
0
LINE
8
DEFAULT_255_1_542
10
7.0798684
20
6.5605
11
7.0798684
21
8.0222586
0
LINE
8
DEFAULT_255_1_542
10
7.0798684
20
8.0222586
11
7.4924939
21
8.0222586
0
LINE
8
DEFAULT_255_1_542
10
8.1370331
20
7.3405731
11
8.1370331
21
7.2472053
0
LINE
8
DEFAULT_255_1_542
10
7.4975137
20
7.8636337
11
7.2726278
21
7.8636337
0
LINE
8
DEFAULT_255_1_542
10
7.2726278
20
7.8636337
11
7.2726278
21
6.7181209
0
LINE
8
DEFAULT_255_1_542
10
7.2726278
20
6.7181209
11
7.4754267
21
6.7181209
0
LINE
8
DEFAULT_255_1_542
10
7.9462816
20
7.2512211
11
7.9462816
21
7.3365573
0
ARC
8
DEFAULT_255_1_542
10
7.49736
20
7.2890965
40
0.7331782
50
75.4101014
51
90.3802694
0
ARC
8
DEFAULT_255_1_542
10
7.5260547
20
7.4086842
40
0.6102233
50
60.1455537
51
75.1890284
0
ARC
8
DEFAULT_255_1_542
10
7.5458968
20
7.4432633
40
0.5703556
50
26.5254113
51
60.1450941
0
ARC
8
DEFAULT_255_1_542
10
7.4058704
20
7.3690107
40
0.7288136
50
7.4030186
51
26.832131
0
ARC
8
DEFAULT_255_1_542
10
7.2065785
20
7.3379652
40
0.9304584
50
0.160588
51
7.7175801
0
ARC
8
DEFAULT_255_1_542
10
7.2270737
20
7.2424207
40
0.909972
50
348.729
51
0.3012613
0
ARC
8
DEFAULT_255_1_542
10
7.4341226
20
7.2012926
40
0.6988779
50
333.0707277
51
348.7181154
0
ARC
8
DEFAULT_255_1_542
10
7.5549728
20
7.1356575
40
0.5614194
50
299.2531153
51
333.4571273
0
ARC
8
DEFAULT_255_1_542
10
7.5098633
20
7.2213484
40
0.6582306
50
278.1072906
51
299.0339478
0
ARC
8
DEFAULT_255_1_542
10
7.4778727
20
7.4097975
40
0.849323
50
270.4445459
51
278.4509706
0
ARC
8
DEFAULT_255_1_542
10
7.480478
20
7.2936505
40
0.5755517
50
269.4971374
51
284.0204007
0
ARC
8
DEFAULT_255_1_542
10
7.5248919
20
7.122989
40
0.3992182
50
283.7699562
51
318.1556187
0
ARC
8
DEFAULT_255_1_542
10
7.4827345
20
7.1545394
40
0.4516949
50
318.7416444
51
343.6873402
0
ARC
8
DEFAULT_255_1_542
10
7.2572405
20
7.2249718
40
0.6879074
50
343.3324731
51
355.8548303
0
ARC
8
DEFAULT_255_1_542
10
6.9948795
20
7.2499118
40
0.9514032
50
355.4988934
51
0.0788461
0
ARC
8
DEFAULT_255_1_542
10
7.0927761
20
7.3418379
40
0.8535218
50
359.6455143
51
9.8607261
0
ARC
8
DEFAULT_255_1_542
10
7.387864
20
7.3951272
40
0.5536709
50
9.6571622
51
26.1931971
0
ARC
8
DEFAULT_255_1_542
10
7.5038622
20
7.4490028
40
0.4258133
50
26.5778125
51
40.1532658
0
ARC
8
DEFAULT_255_1_542
10
7.535829
20
7.473942
40
0.385302
50
40.3840107
51
80.1431587
0
ARC
8
DEFAULT_255_1_542
10
7.4949692
20
7.292789
40
0.5708505
50
79.2151469
51
89.744611
0
LINE
8
DEFAULT_255_1_542
10
9.3096526
20
7.0243272
11
9.503416
21
7.0243272
0
LINE
8
DEFAULT_255_1_542
10
8.3779823
20
7.2231104
11
8.3779823
21
7.3636641
0
LINE
8
DEFAULT_255_1_542
10
9.503416
20
7.5524076
11
9.3096526
21
7.5524076
0
LINE
8
DEFAULT_255_1_542
10
8.5717457
20
7.3586443
11
8.5717457
21
7.2170866
0
ARC
8
DEFAULT_255_1_542
10
8.8183412
20
7.0989767
40
0.6891299
50
340.1774147
51
353.7812794
0
ARC
8
DEFAULT_255_1_542
10
9.0147623
20
7.0258184
40
0.4795438
50
311.4559763
51
340.4421016
0
ARC
8
DEFAULT_255_1_542
10
9.0105982
20
7.0396835
40
0.4927293
50
282.4333213
51
310.7514614
0
ARC
8
DEFAULT_255_1_542
10
8.9556905
20
7.2665692
40
0.7261312
50
269.9358912
51
282.8097679
0
ARC
8
DEFAULT_255_1_542
10
8.9492395
20
7.4436114
40
0.9031904
50
269.9995731
51
270.3576918
0
ARC
8
DEFAULT_255_1_542
10
8.9426277
20
7.1236965
40
0.583313
50
250.7885288
51
270.64879
0
ARC
8
DEFAULT_255_1_542
10
8.9216074
20
7.0440359
40
0.5012123
50
219.3628105
51
250.0611223
0
ARC
8
DEFAULT_255_1_542
10
9.0252587
20
7.1321245
40
0.6372226
50
193.5480076
51
219.5756006
0
ARC
8
DEFAULT_255_1_542
10
9.3217098
20
7.2091077
40
0.9434742
50
181.1219103
51
193.8756096
0
ARC
8
DEFAULT_255_1_542
10
9.5804613
20
7.2229468
40
1.202479
50
179.992207
51
181.539793
0
ARC
8
DEFAULT_255_1_542
10
9.3491231
20
7.3683383
40
0.971152
50
169.5837897
51
180.2757729
0
ARC
8
DEFAULT_255_1_542
10
9.1194803
20
7.4107699
40
0.737622
50
155.0365401
51
169.6003724
0
ARC
8
DEFAULT_255_1_542
10
8.9775428
20
7.4791996
40
0.5800685
50
136.7830748
51
155.2472741
0
ARC
8
DEFAULT_255_1_542
10
8.9288594
20
7.5205524
40
0.516283
50
121.7633554
51
136.4279411
0
ARC
8
DEFAULT_255_1_542
10
8.9457256
20
7.4893906
40
0.55166
50
95.6459842
51
121.5490041
0
ARC
8
DEFAULT_255_1_542
10
8.9653859
20
7.3508815
40
0.6914568
50
89.9242542
51
96.1380403
0
ARC
8
DEFAULT_255_1_542
10
8.9716885
20
7.3656767
40
0.6766824
50
76.6779819
51
90.4562582
0
ARC
8
DEFAULT_255_1_542
10
9.0208919
20
7.564503
40
0.4718734
50
47.485792
51
76.9287314
0
ARC
8
DEFAULT_255_1_542
10
9.0025128
20
7.5520071
40
0.4935308
50
16.5424722
51
46.8933499
0
ARC
8
DEFAULT_255_1_542
10
8.8015327
20
7.4859705
40
0.7050206
50
5.4072542
51
17.0365088
0
ARC
8
DEFAULT_255_1_542
10
8.6217071
20
7.4570843
40
0.6945182
50
7.8888078
51
15.9240569
0
ARC
8
DEFAULT_255_1_542
10
8.8700436
20
7.5291948
40
0.4359284
50
15.7651464
51
27.9410453
0
ARC
8
DEFAULT_255_1_542
10
9.0080553
20
7.6030797
40
0.2793856
50
27.8169831
51
46.4004407
0
ARC
8
DEFAULT_255_1_542
10
9.014267
20
7.6023688
40
0.2756618
50
47.4373518
51
75.0695431
0
ARC
8
DEFAULT_255_1_542
10
8.9756965
20
7.468092
40
0.4153515
50
74.7008998
51
87.8127331
0
ARC
8
DEFAULT_255_1_542
10
8.9665313
20
7.3361964
40
0.5475165
50
87.3811029
51
90.0242051
0
ARC
8
DEFAULT_255_1_542
10
8.9617244
20
7.4832713
40
0.4004677
50
89.3453494
51
108.5745375
0
ARC
8
DEFAULT_255_1_542
10
8.9446121
20
7.5474764
40
0.334183
50
109.299931
51
143.3037934
0
ARC
8
DEFAULT_255_1_542
10
9.0398637
20
7.4742269
40
0.4543328
50
143.0751731
51
163.1918359
0
ARC
8
DEFAULT_255_1_542
10
9.2838499
20
7.3972328
40
0.7101666
50
162.9375564
51
174.6207661
0
ARC
8
DEFAULT_255_1_542
10
9.6121283
20
7.3612412
40
1.0403857
50
174.342223
51
180.143018
0
ARC
8
DEFAULT_255_1_542
10
9.4957256
20
7.2119539
40
0.9239942
50
179.6817246
51
189.1505457
0
ARC
8
DEFAULT_255_1_542
10
9.183141
20
7.1598921
40
0.6071106
50
188.9911224
51
203.5773021
0
ARC
8
DEFAULT_255_1_542
10
9.0481706
20
7.1038885
40
0.4610145
50
203.9076169
51
215.1314611
0
ARC
8
DEFAULT_255_1_542
10
8.9328216
20
7.0144886
40
0.3153048
50
213.9073051
51
263.8848042
0
ARC
8
DEFAULT_255_1_542
10
8.9484869
20
7.1125554
40
0.4145141
50
263.1758004
51
270.1030999
0
ARC
8
DEFAULT_255_1_542
10
8.9524969
20
7.2684408
40
0.5704083
50
269.6721232
51
279.0605848
0
ARC
8
DEFAULT_255_1_542
10
8.9858423
20
7.066859
40
0.3660924
50
278.8752106
51
293.6347628
0
ARC
8
DEFAULT_255_1_542
10
9.0258734
20
6.9728511
40
0.2639233
50
293.8551066
51
310.052109
0
ARC
8
DEFAULT_255_1_542
10
9.026477
20
6.9650585
40
0.2576101
50
311.0646631
51
332.0109299
0
ARC
8
DEFAULT_255_1_542
10
8.8774448
20
7.0472413
40
0.4277877
50
331.6587937
51
343.2878571
0
ARC
8
DEFAULT_255_1_542
10
8.6195958
20
7.126477
40
0.6975332
50
343.1448522
51
351.0103991
0
ARC
8
DEFAULT_255_1_542
10
8.421489
20
7.1624865
40
0.8988452
50
350.7164123
51
351.1581547
0
LINE
8
DEFAULT_255_1_542
10
10.7362728
20
7.5995935
11
10.5425095
21
7.5995935
0
LINE
8
DEFAULT_255_1_542
10
9.6771002
20
6.984169
11
9.8708635
21
6.984169
0
ARC
8
DEFAULT_255_1_542
10
10.6248508
20
8.7179187
40
1.5654133
50
248.919873
51
254.1440466
0
ARC
8
DEFAULT_255_1_542
10
10.4147979
20
8.1771362
40
0.9852715
50
241.6338362
51
249.0065719
0
ARC
8
DEFAULT_255_1_542
10
10.2237361
20
7.8270401
40
0.58644
50
230.4984568
51
241.8085823
0
ARC
8
DEFAULT_255_1_542
10
10.1258934
20
7.7023481
40
0.4280059
50
227.4073724
51
229.9870388
0
ARC
8
DEFAULT_255_1_542
10
10.0647404
20
7.6426233
40
0.342681
50
200.678229
51
228.1763789
0
ARC
8
DEFAULT_255_1_542
10
10.0737782
20
7.6407464
40
0.3505089
50
179.5061514
51
199.8694789
0
ARC
8
DEFAULT_255_1_542
10
10.0726229
20
7.6500131
40
0.3493966
50
132.4834634
51
181.0242284
0
ARC
8
DEFAULT_255_1_542
10
10.147055
20
7.5797172
40
0.4515684
50
129.2531565
51
133.4243812
0
ARC
8
DEFAULT_255_1_542
10
10.1653764
20
7.5522321
40
0.4844552
50
101.9878352
51
128.8742447
0
ARC
8
DEFAULT_255_1_542
10
10.2151993
20
7.3370943
40
0.7052613
50
89.5904993
51
102.3169729
0
ARC
8
DEFAULT_255_1_542
10
10.2240134
20
7.3768902
40
0.6654582
50
77.2360255
51
90.3248991
0
ARC
8
DEFAULT_255_1_542
10
10.2498906
20
7.4977711
40
0.5418492
50
63.8379794
51
77.0806791
0
ARC
8
DEFAULT_255_1_542
10
10.2846211
20
7.5624831
40
0.4684613
50
45.9862477
51
64.1608852
0
ARC
8
DEFAULT_255_1_542
10
10.3172197
20
7.5997154
40
0.4190413
50
32.2748304
51
45.6545256
0
ARC
8
DEFAULT_255_1_542
10
10.3255316
20
7.6020973
40
0.4107489
50
359.6507398
51
32.6130236
0
ARC
8
DEFAULT_255_1_542
10
10.2076591
20
7.6026931
40
0.3348647
50
359.469641
51
14.9830069
0
ARC
8
DEFAULT_255_1_542
10
10.2958035
20
7.6263052
40
0.2436125
50
14.9780404
51
48.2005965
0
ARC
8
DEFAULT_255_1_542
10
10.2752574
20
7.6004851
40
0.2765619
50
48.5927815
51
74.1241344
0
ARC
8
DEFAULT_255_1_542
10
10.2335711
20
7.4628967
40
0.4203129
50
73.7890106
51
86.6655051
0
ARC
8
DEFAULT_255_1_542
10
10.2207717
20
7.3121173
40
0.5715958
50
86.2637859
51
90.0533106
0
ARC
8
DEFAULT_255_1_542
10
10.2172291
20
7.3614026
40
0.5223188
50
89.6697245
51
99.231174
0
ARC
8
DEFAULT_255_1_542
10
10.1869135
20
7.5419772
40
0.3392212
50
99.069785
51
113.7658116
0
ARC
8
DEFAULT_255_1_542
10
10.1526811
20
7.6227033
40
0.2515478
50
114.0398389
51
127.9852379
0
ARC
8
DEFAULT_255_1_542
10
10.1226311
20
7.659703
40
0.2038934
50
127.7287591
51
176.7105365
0
ARC
8
DEFAULT_255_1_542
10
10.2074963
20
7.6470727
40
0.289447
50
175.1782602
51
180.0580617
0
ARC
8
DEFAULT_255_1_542
10
10.1020765
20
7.6455401
40
0.1840312
50
179.6141499
51
228.1246572
0
ARC
8
DEFAULT_255_1_542
10
10.1573802
20
7.6967573
40
0.2591778
50
226.5789893
51
230.8786453
0
ARC
8
DEFAULT_255_1_542
10
10.2161668
20
7.7748132
40
0.3568454
50
231.4636263
51
241.9262754
0
ARC
8
DEFAULT_255_1_542
10
10.3658062
20
8.0501889
40
0.6702471
50
241.7177357
51
248.3260323
0
ARC
8
DEFAULT_255_1_542
10
10.538914
20
8.4790317
40
1.1327067
50
248.2002373
51
252.4531064
0
ARC
8
DEFAULT_255_1_542
10
10.6895526
20
8.9447549
40
1.6221786
50
252.3393628
51
254.3467434
0
ARC
8
DEFAULT_255_1_542
10
9.7467001
20
5.5723768
40
1.879522
50
71.0195774
51
74.4087448
0
ARC
8
DEFAULT_255_1_542
10
9.9585469
20
6.1838767
40
1.2323681
50
66.1844825
51
71.0865899
0
ARC
8
DEFAULT_255_1_542
10
10.1530512
20
6.6217932
40
0.7532015
50
59.353526
51
66.2692745
0
ARC
8
DEFAULT_255_1_542
10
10.264121
20
6.8096974
40
0.5349256
50
49.102076
51
59.3293646
0
ARC
8
DEFAULT_255_1_542
10
10.366454
20
6.9263414
40
0.3797595
50
32.7923129
51
49.2503463
0
ARC
8
DEFAULT_255_1_542
10
10.4061302
20
6.9546166
40
0.3311003
50
31.1173201
51
32.3976299
0
ARC
8
DEFAULT_255_1_542
10
10.395542
20
6.9504682
40
0.3423143
50
8.1116291
51
30.7958822
0
ARC
8
DEFAULT_255_1_542
10
10.2942765
20
6.9332159
40
0.4450098
50
359.838732
51
8.4709661
0
ARC
8
DEFAULT_255_1_542
10
10.3724713
20
6.9271376
40
0.3668451
50
337.4732756
51
0.7537407
0
ARC
8
DEFAULT_255_1_542
10
10.3948093
20
6.92467
40
0.3453232
50
307.5917397
51
336.4314588
0
ARC
8
DEFAULT_255_1_542
10
10.3370703
20
6.989007
40
0.4315739
50
307.6579814
51
308.4551904
0
ARC
8
DEFAULT_255_1_542
10
10.3085067
20
7.0331456
40
0.4839876
50
284.3733665
51
307.1426142
0
ARC
8
DEFAULT_255_1_542
10
10.2466079
20
7.2608648
40
0.7199527
50
272.4383685
51
284.6465223
0
ARC
8
DEFAULT_255_1_542
10
10.2307565
20
7.4860089
40
0.9455881
50
269.9710931
51
272.8175806
0
ARC
8
DEFAULT_255_1_542
10
10.2253919
20
7.2310856
40
0.690682
50
248.2708
51
270.4054551
0
ARC
8
DEFAULT_255_1_542
10
10.2185807
20
7.2072147
40
0.6659903
50
246.1387322
51
248.0548373
0
ARC
8
DEFAULT_255_1_542
10
10.1662814
20
7.0973509
40
0.5443709
50
233.1671406
51
246.4951797
0
ARC
8
DEFAULT_255_1_542
10
10.0970243
20
7.0038497
40
0.4280157
50
215.3404051
51
233.084173
0
ARC
8
DEFAULT_255_1_542
10
10.0629489
20
6.9790635
40
0.3858826
50
179.2419041
51
215.2649022
0
ARC
8
DEFAULT_255_1_542
10
10.158896
20
6.9808277
40
0.2880518
50
179.3353703
51
199.1046135
0
ARC
8
DEFAULT_255_1_542
10
10.1173591
20
6.9699672
40
0.2452708
50
199.8830977
51
232.7062771
0
ARC
8
DEFAULT_255_1_542
10
10.1763908
20
7.0442165
40
0.3401123
50
232.3736747
51
255.5135853
0
ARC
8
DEFAULT_255_1_542
10
10.2190007
20
7.1997392
40
0.5013549
50
255.2448911
51
267.5319116
0
ARC
8
DEFAULT_255_1_542
10
10.2299424
20
7.3537493
40
0.6557074
50
267.1562282
51
270.0294516
0
ARC
8
DEFAULT_255_1_542
10
10.2334253
20
7.2983312
40
0.6002975
50
269.6997368
51
278.1661568
0
ARC
8
DEFAULT_255_1_542
10
10.2654277
20
7.0820432
40
0.3816581
50
278.022723
51
290.625582
0
ARC
8
DEFAULT_255_1_542
10
10.3088863
20
6.9661185
40
0.2578551
50
290.6617245
51
307.0371972
0
ARC
8
DEFAULT_255_1_542
10
10.3464316
20
6.9200583
40
0.1984855
50
306.3943799
51
355.303148
0
ARC
8
DEFAULT_255_1_542
10
10.2824929
20
6.92963
40
0.2630286
50
354.3655576
51
0.0708914
0
ARC
8
DEFAULT_255_1_542
10
10.3002172
20
6.9324477
40
0.2453168
50
359.4179088
51
16.1971841
0
ARC
8
DEFAULT_255_1_542
10
10.3571292
20
6.9480478
40
0.1863144
50
16.4722297
51
52.6260518
0
ARC
8
DEFAULT_255_1_542
10
10.2545061
20
6.8125424
40
0.3562936
50
52.7386384
51
62.4976145
0
ARC
8
DEFAULT_255_1_542
10
10.0814252
20
6.4868436
40
0.7251186
50
62.2512213
51
68.1222642
0
ARC
8
DEFAULT_255_1_542
10
9.8663971
20
5.958382
40
1.2956488
50
68.0062779
51
71.8053872
0
ARC
8
DEFAULT_255_1_542
10
9.6419735
20
5.2853555
40
2.0051027
50
71.7181418
51
73.9258413
0
LINE
8
DEFAULT_255_1_696
10
9.033568
20
1.4857578
11
9.033568
21
-0.1299
0
LINE
8
DEFAULT_255_1_696
10
9.033568
20
-0.1299
11
8.8281597
21
-0.1299
0
LINE
8
DEFAULT_255_1_696
10
8.8281597
20
-0.1299
11
8.8281597
21
1.2317583
0
LINE
8
DEFAULT_255_1_696
10
8.8281597
20
1.2317583
11
8.4162388
21
1.0804629
0
LINE
8
DEFAULT_255_1_696
10
8.4162388
20
1.0804629
11
8.4162388
21
1.265993
0
LINE
8
DEFAULT_255_1_696
10
8.4162388
20
1.265993
11
9.001542
21
1.4857578
0
LINE
8
DEFAULT_255_1_696
10
9.001542
20
1.4857578
11
9.033568
21
1.4857578
0
ENDSEC
0
EOF