0
SECTION
2
HEADER
9
$MEASUREMENT
70
1
0
ENDSEC
0
SECTION
2
TABLES
0
TABLE
2
LTYPE
0
LTYPE
72
65
70
64
2
CONTINUOUS
3
______
73
0
40
0
0
ENDTAB
0
TABLE
2
LAYER
0
LAYER
2
DEFAULT_255_2_778
70
0
62
255
6
CONTINUOUS
0
ENDTAB
0
ENDSEC
0
SECTION
2
ENTITIES
0
LINE
8
DEFAULT_255_2_778
10
2.7781169
20
-0.1323
11
16.0073169
21
-0.1323
0
LINE
8
DEFAULT_255_2_778
10
6.7468667
20
2.5135333
11
12.0385667
21
2.5135333
0
LINE
8
DEFAULT_255_2_778
10
12.0385667
20
2.5135333
11
12.0385667
21
-2.7781667
0
LINE
8
DEFAULT_255_2_778
10
12.0385667
20
-2.7781667
11
6.7468667
21
-2.7781667
0
LINE
8
DEFAULT_255_2_778
10
6.7468667
20
-2.7781667
11
6.7468667
21
2.5135333
0
ARC
8
DEFAULT_255_2_778
10
10.1196743
20
-0.2935464
40
2.7113649
50
174.4577576
51
180.086914
0
ARC
8
DEFAULT_255_2_778
10
9.6488641
20
-0.247194
40
2.2382789
50
167.92392
51
174.4747814
0
ARC
8
DEFAULT_255_2_778
10
9.2500261
20
-0.1610303
40
1.8302408
50
160.1143533
51
167.9494625
0
ARC
8
DEFAULT_255_2_778
10
8.9236978
20
-0.0420645
40
1.4829051
50
150.6006496
51
160.1481123
0
ARC
8
DEFAULT_255_2_778
10
8.6772409
20
0.0975177
40
1.199667
50
139.1269642
51
150.6303799
0
ARC
8
DEFAULT_255_2_778
10
8.5076104
20
0.2457963
40
0.9743684
50
123.8736004
51
139.1927587
0
ARC
8
DEFAULT_255_2_778
10
8.4144889
20
0.3869308
40
0.8052875
50
100.5260103
51
123.9694535
0
ARC
8
DEFAULT_255_2_778
10
8.400647
20
0.4429919
40
0.7476486
50
90.0103024
51
100.267931
0
ARC
8
DEFAULT_255_2_778
10
8.3972722
20
0.4173477
40
0.7732997
50
60.699818
51
89.7599187
0
ARC
8
DEFAULT_255_2_778
10
8.3238973
20
0.282534
40
0.9267771
50
44.144795
51
60.8227174
0
ARC
8
DEFAULT_255_2_778
10
8.1705031
20
0.1319188
40
1.1417504
50
31.6777028
51
44.2072038
0
ARC
8
DEFAULT_255_2_778
10
7.9400162
20
-0.0118012
40
1.413372
50
21.9060625
51
31.7291832
0
ARC
8
DEFAULT_255_2_778
10
7.6333441
20
-0.1360439
40
1.7442549
50
13.7223857
51
21.9342116
0
ARC
8
DEFAULT_255_2_778
10
7.2486834
20
-0.2309868
40
2.1404584
50
6.8803928
51
13.7487403
0
ARC
8
DEFAULT_255_2_778
10
6.7858096
20
-0.2875808
40
2.6067787
50
0.9453316
51
6.8965598
0
ARC
8
DEFAULT_255_2_778
10
6.468668
20
-0.297509
40
2.9240446
50
359.9970523
51
1.0373179
0
ARC
8
DEFAULT_255_2_778
10
12.1040743
20
-0.1363724
40
2.7113649
50
179.913086
51
185.5422424
0
ARC
8
DEFAULT_255_2_778
10
11.6332641
20
-0.1827247
40
2.2382789
50
185.5252186
51
192.07608
0
ARC
8
DEFAULT_255_2_778
10
11.2344261
20
-0.2688885
40
1.8302408
50
192.0505375
51
199.8856467
0
ARC
8
DEFAULT_255_2_778
10
10.9080978
20
-0.3878543
40
1.4829051
50
199.8518877
51
209.3993504
0
ARC
8
DEFAULT_255_2_778
10
10.6616409
20
-0.5274365
40
1.199667
50
209.3696201
51
220.8730358
0
ARC
8
DEFAULT_255_2_778
10
10.4920104
20
-0.6757151
40
0.9743684
50
220.8072413
51
236.1263996
0
ARC
8
DEFAULT_255_2_778
10
10.3988889
20
-0.8168496
40
0.8052875
50
236.0305465
51
259.4739897
0
ARC
8
DEFAULT_255_2_778
10
10.385047
20
-0.8729107
40
0.7476486
50
259.732069
51
269.9896976
0
ARC
8
DEFAULT_255_2_778
10
10.3816722
20
-0.8472665
40
0.7732997
50
270.2400813
51
299.300182
0
ARC
8
DEFAULT_255_2_778
10
10.3082973
20
-0.7124528
40
0.9267771
50
299.1772826
51
315.855205
0
ARC
8
DEFAULT_255_2_778
10
10.1549031
20
-0.5618376
40
1.1417504
50
315.7927962
51
328.3222972
0
ARC
8
DEFAULT_255_2_778
10
9.9244162
20
-0.4181176
40
1.413372
50
328.2708168
51
338.0939375
0
ARC
8
DEFAULT_255_2_778
10
9.6177441
20
-0.2938749
40
1.7442549
50
338.0657884
51
346.2776143
0
ARC
8
DEFAULT_255_2_778
10
9.2330834
20
-0.198932
40
2.1404584
50
346.2512597
51
353.1196072
0
ARC
8
DEFAULT_255_2_778
10
8.7702096
20
-0.142338
40
2.6067787
50
353.1034402
51
359.0546684
0
ARC
8
DEFAULT_255_2_778
10
8.453068
20
-0.1324098
40
2.9240446
50
358.9626821
51
0.0029477
0
ENDSEC
0
EOF