0
SECTION
2
HEADER
9
$MEASUREMENT
70
1
0
ENDSEC
0
SECTION
2
TABLES
0
TABLE
2
LTYPE
0
LTYPE
72
65
70
64
2
CONTINUOUS
3
______
73
0
40
0
0
ENDTAB
0
TABLE
2
LAYER
0
LAYER
2
DEFAULT_255_2_778
70
0
62
255
6
CONTINUOUS
0
LAYER
2
DEFAULT_255_1_542
70
0
62
255
6
CONTINUOUS
0
ENDTAB
0
ENDSEC
0
SECTION
2
ENTITIES
0
LINE
8
DEFAULT_255_2_778
10
16.0073169
20
1.1906
11
2.7781169
21
1.1906
0
LINE
8
DEFAULT_255_2_778
10
10.6719323
20
4.1010166
11
14.6848323
21
1.1906166
0
LINE
8
DEFAULT_255_2_778
10
14.6848323
20
1.1906166
11
10.6719323
21
-1.7197834
0
ARC
8
DEFAULT_255_2_778
10
8.1001059
20
1.1944294
40
3.9990575
50
164.958672
51
180.0541499
0
ARC
8
DEFAULT_255_2_778
10
8.0517844
20
1.2040887
40
3.9498864
50
139.5324886
51
164.9120823
0
ARC
8
DEFAULT_255_2_778
10
8.0604121
20
1.2008868
40
3.9585294
50
107.8307628
51
139.5782791
0
ARC
8
DEFAULT_255_2_778
10
8.0632531
20
1.1783154
40
3.9808888
50
91.6628438
51
107.7702122
0
ARC
8
DEFAULT_255_2_778
10
8.0696728
20
1.0785686
40
4.0807814
50
89.9989151
51
91.7123026
0
ARC
8
DEFAULT_255_2_778
10
8.0735333
20
1.160008
40
3.9993437
50
74.9592121
51
90.0541994
0
ARC
8
DEFAULT_255_2_778
10
8.0832483
20
1.2085176
40
3.9499763
50
49.5331489
51
74.9127022
0
ARC
8
DEFAULT_255_2_778
10
8.0801326
20
1.1999957
40
3.958483
50
17.8308607
51
49.5788931
0
ARC
8
DEFAULT_255_2_778
10
8.057535
20
1.1971475
40
3.9808695
50
1.662844
51
17.7702931
0
ARC
8
DEFAULT_255_2_778
10
7.9577688
20
1.1907272
40
4.0807814
50
359.9989151
51
1.7123026
0
ARC
8
DEFAULT_255_2_778
10
8.0392193
20
1.186866
40
3.9993326
50
344.9591794
51
0.05421
0
ARC
8
DEFAULT_255_2_778
10
8.0877606
20
1.1771458
40
3.9499331
50
319.5327264
51
344.9126214
0
ARC
8
DEFAULT_255_2_778
10
8.0791769
20
1.1803261
40
3.9585286
50
287.8301403
51
319.57834
0
ARC
8
DEFAULT_255_2_778
10
8.0762544
20
1.2031298
40
3.9811341
50
271.6627163
51
287.7696917
0
ARC
8
DEFAULT_255_2_778
10
8.0698274
20
1.3030019
40
4.0811521
50
269.9989151
51
271.7122237
0
ARC
8
DEFAULT_255_2_778
10
8.0659699
20
1.2208946
40
3.9990465
50
254.9586392
51
270.0541605
0
ARC
8
DEFAULT_255_2_778
10
8.0563055
20
1.1725414
40
3.9498431
50
229.5320661
51
254.9120015
0
ARC
8
DEFAULT_255_2_778
10
8.0595719
20
1.1812308
40
3.958575
50
197.8300424
51
229.577726
0
ARC
8
DEFAULT_255_2_778
10
8.0823494
20
1.1841462
40
3.9811535
50
181.6627161
51
197.7696108
0
ARC
8
DEFAULT_255_2_778
10
8.1822021
20
1.1905726
40
4.0811521
50
179.9989151
51
181.7122237
0
LINE
8
DEFAULT_255_2_778
10
4.1010501
20
1.1906499
11
4.1010501
21
1.1906499
0
LINE
8
DEFAULT_255_1_542
10
7.0330302
20
1.93
11
6.7157804
21
2.5213295
0
LINE
8
DEFAULT_255_1_542
10
6.7157804
20
2.5213295
11
6.3724278
21
2.5213295
0
LINE
8
DEFAULT_255_1_542
10
6.3724278
20
2.5213295
11
6.3724278
21
1.93
0
LINE
8
DEFAULT_255_1_542
10
6.3724278
20
1.93
11
6.1786645
21
1.93
0
LINE
8
DEFAULT_255_1_542
10
6.1786645
20
1.93
11
6.1786645
21
3.3917586
0
LINE
8
DEFAULT_255_1_542
10
6.1786645
20
3.3917586
11
6.6625708
21
3.3917586
0
LINE
8
DEFAULT_255_1_542
10
6.8964923
20
2.5624917
11
7.239845
21
1.9420475
0
LINE
8
DEFAULT_255_1_542
10
7.239845
20
1.9420475
11
7.239845
21
1.93
0
LINE
8
DEFAULT_255_1_542
10
7.239845
20
1.93
11
7.0330302
21
1.93
0
LINE
8
DEFAULT_255_1_542
10
6.3724278
20
3.2331337
11
6.3724278
21
2.6789505
0
LINE
8
DEFAULT_255_1_542
10
6.3724278
20
2.6789505
11
6.6685945
21
2.6789505
0
LINE
8
DEFAULT_255_1_542
10
6.6675906
20
3.2331337
11
6.3724278
21
3.2331337
0
ARC
8
DEFAULT_255_1_542
10
6.6677759
20
2.5215896
40
0.8701846
50
80.6535829
51
90.3427214
0
ARC
8
DEFAULT_255_1_542
10
6.7202078
20
2.8294035
40
0.5579446
50
65.6987721
51
80.8328699
0
ARC
8
DEFAULT_255_1_542
10
6.7799127
20
2.9662758
40
0.4086338
50
50.0017729
51
65.4305608
0
ARC
8
DEFAULT_255_1_542
10
6.807221
20
3.0031719
40
0.3628271
50
11.6284582
51
49.5603107
0
ARC
8
DEFAULT_255_1_542
10
6.6152847
20
2.9562767
40
0.5603233
50
359.5653669
51
12.3693264
0
ARC
8
DEFAULT_255_1_542
10
6.7498689
20
2.948443
40
0.425738
50
341.9984417
51
0.4822378
0
ARC
8
DEFAULT_255_1_542
10
6.7992282
20
2.9350459
40
0.374663
50
323.8608361
51
341.6141656
0
ARC
8
DEFAULT_255_1_542
10
6.7615073
20
2.9641725
40
0.4223052
50
296.7018446
51
323.6876527
0
ARC
8
DEFAULT_255_1_542
10
6.7064072
20
3.062683
40
0.5350922
50
290.808038
51
297.2328024
0
ARC
8
DEFAULT_255_1_542
10
6.6718104
20
3.1281571
40
0.4492181
50
269.5898305
51
281.8058381
0
ARC
8
DEFAULT_255_1_542
10
6.7031748
20
2.9847016
40
0.3023833
50
281.5499293
51
303.9358499
0
ARC
8
DEFAULT_255_1_542
10
6.720343
20
2.95495
40
0.2681256
50
304.4413313
51
311.2113112
0
ARC
8
DEFAULT_255_1_542
10
6.736835
20
2.9375671
40
0.244185
50
310.9874323
51
356.2714903
0
ARC
8
DEFAULT_255_1_542
10
6.6423209
20
2.9516627
40
0.3395079
50
354.934844
51
0.0613629
0
ARC
8
DEFAULT_255_1_542
10
6.6189177
20
2.9550429
40
0.3629233
50
359.523755
51
12.881317
0
ARC
8
DEFAULT_255_1_542
10
6.741095
20
2.9849533
40
0.2371607
50
12.4173391
51
43.1023137
0
ARC
8
DEFAULT_255_1_542
10
6.748798
20
2.9895785
40
0.2283839
50
43.5755955
51
48.2044279
0
ARC
8
DEFAULT_255_1_542
10
6.7276066
20
2.9619009
40
0.2631552
50
48.7808948
51
72.6969439
0
ARC
8
DEFAULT_255_1_542
10
6.6833159
20
2.827493
40
0.4046603
50
72.3698841
51
84.8796064
0
ARC
8
DEFAULT_255_1_542
10
6.6648667
20
2.6596494
40
0.5734907
50
84.5403509
51
89.7278691
0
LINE
8
DEFAULT_255_1_542
10
7.4456558
20
3.3917586
11
7.6946366
21
3.3917586
0
LINE
8
DEFAULT_255_1_542
10
7.6946366
20
3.3917586
11
8.1725192
21
2.19906
0
LINE
8
DEFAULT_255_1_542
10
8.1725192
20
2.19906
11
8.6504019
21
3.3917586
0
LINE
8
DEFAULT_255_1_542
10
8.6504019
20
3.3917586
11
8.9003867
21
3.3917586
0
LINE
8
DEFAULT_255_1_542
10
8.9003867
20
3.3917586
11
8.9003867
21
1.93
0
LINE
8
DEFAULT_255_1_542
10
8.9003867
20
1.93
11
8.7076273
21
1.93
0
LINE
8
DEFAULT_255_1_542
10
8.7076273
20
1.93
11
8.7076273
21
2.4992425
0
LINE
8
DEFAULT_255_1_542
10
8.7076273
20
2.4992425
11
8.7256985
21
3.113663
0
LINE
8
DEFAULT_255_1_542
10
8.7256985
20
3.113663
11
8.245808
21
1.93
0
LINE
8
DEFAULT_255_1_542
10
8.245808
20
1.93
11
8.0982266
21
1.93
0
LINE
8
DEFAULT_255_1_542
10
8.0982266
20
1.93
11
7.61934
21
3.1106512
0
LINE
8
DEFAULT_255_1_542
10
7.61934
20
3.1106512
11
7.6384151
21
2.4992425
0
LINE
8
DEFAULT_255_1_542
10
7.6384151
20
2.4992425
11
7.6384151
21
1.93
0
LINE
8
DEFAULT_255_1_542
10
7.6384151
20
1.93
11
7.4456558
21
1.93
0
LINE
8
DEFAULT_255_1_542
10
7.4456558
20
1.93
11
7.4456558
21
3.3917586
0
LINE
8
DEFAULT_255_1_542
10
7.6950833
20
0.7531863
11
7.6950833
21
-0.7156
0
LINE
8
DEFAULT_255_1_542
10
7.6950833
20
-0.7156
11
7.5083476
21
-0.7156
0
LINE
8
DEFAULT_255_1_542
10
7.5083476
20
-0.7156
11
7.5083476
21
0.5222766
0
LINE
8
DEFAULT_255_1_542
10
7.5083476
20
0.5222766
11
7.1338724
21
0.3847348
0
LINE
8
DEFAULT_255_1_542
10
7.1338724
20
0.3847348
11
7.1338724
21
0.5533992
0
LINE
8
DEFAULT_255_1_542
10
7.1338724
20
0.5533992
11
7.6659686
21
0.7531863
0
LINE
8
DEFAULT_255_1_542
10
7.6659686
20
0.7531863
11
7.6950833
21
0.7531863
0
ENDSEC
0
EOF