0
SECTION
2
HEADER
9
$MEASUREMENT
70
1
0
ENDSEC
0
SECTION
2
TABLES
0
TABLE
2
LTYPE
0
LTYPE
72
65
70
64
2
CONTINUOUS
3
______
73
0
40
0
0
ENDTAB
0
TABLE
2
LAYER
0
LAYER
2
DEFAULT_255_2_778
70
0
62
255
6
CONTINUOUS
0
ENDTAB
0
ENDSEC
0
SECTION
2
ENTITIES
0
LINE
8
DEFAULT_255_2_778
10
8.0698667
20
-2.7781667
11
2.7781667
21
2.5135333
0
LINE
8
DEFAULT_255_2_778
10
2.7781667
20
-2.7781667
11
8.0698667
21
2.5135333
0
ARC
8
DEFAULT_255_2_778
10
5.4341952
20
-0.1286732
40
2.6560309
50
160.7095027
51
180.0775207
0
ARC
8
DEFAULT_255_2_778
10
5.4181206
20
-0.1267759
40
2.6402344
50
102.0301591
51
160.6331218
0
ARC
8
DEFAULT_255_2_778
10
5.4222006
20
-0.1621592
40
2.6756931
50
89.9621802
51
101.9576865
0
ARC
8
DEFAULT_255_2_778
10
5.4276411
20
-0.1418765
40
2.6554123
50
70.3567975
51
90.0792807
0
ARC
8
DEFAULT_255_2_778
10
5.4294767
20
-0.1265071
40
2.6403224
50
11.9023555
51
70.2821965
0
ARC
8
DEFAULT_255_2_778
10
5.3939547
20
-0.1305301
40
2.6759126
50
359.9628159
51
11.829777
0
ARC
8
DEFAULT_255_2_778
10
5.4146283
20
-0.1359377
40
2.655241
50
340.3554002
51
0.0792127
0
ARC
8
DEFAULT_255_2_778
10
5.4297203
20
-0.1376417
40
2.6404568
50
281.9019784
51
340.2801285
0
ARC
8
DEFAULT_255_2_778
10
5.4257012
20
-0.1021891
40
2.6759781
50
269.962864
51
281.8296308
0
ARC
8
DEFAULT_255_2_778
10
5.4202903
20
-0.1230296
40
2.6551397
50
250.3550189
51
270.0793355
0
ARC
8
DEFAULT_255_2_778
10
5.4186162
20
-0.1381206
40
2.6403665
50
191.9001656
51
250.2791382
0
ARC
8
DEFAULT_255_2_778
10
5.4543473
20
-0.1340021
40
2.676181
50
179.9628467
51
191.8287004
0
LINE
8
DEFAULT_255_2_778
10
2.7781667
20
-0.1322667
11
2.7781667
21
-0.1322667
0
ARC
8
DEFAULT_255_2_778
10
5.6302541
20
-0.4005271
40
0.4588046
50
290.4246581
51
324.541215
0
ARC
8
DEFAULT_255_2_778
10
5.4972979
20
-0.0556467
40
0.8284123
50
271.3154474
51
290.7181038
0
ARC
8
DEFAULT_255_2_778
10
5.4719006
20
0.2801915
40
1.1648791
50
269.9835269
51
272.1851314
0
ARC
8
DEFAULT_255_2_778
10
5.4602306
20
-0.2661787
40
0.6186127
50
239.3714262
51
271.0499062
0
ARC
8
DEFAULT_255_2_778
10
5.4442641
20
-0.3078726
40
0.5746501
50
205.2375644
51
238.6233372
0
ARC
8
DEFAULT_255_2_778
10
5.670319
20
-0.1995442
40
0.8253173
50
181.6099812
51
205.3489581
0
ARC
8
DEFAULT_255_2_778
10
5.9603126
20
-0.1728517
40
1.1161004
50
180.5614062
51
182.5614997
0
ARC
8
DEFAULT_255_2_778
10
5.9286712
20
-0.0397831
40
1.0844811
50
166.1465325
51
180.6765042
0
ARC
8
DEFAULT_255_2_778
10
5.4909147
20
0.0714414
40
0.6328347
50
140.4485209
51
166.4338036
0
ARC
8
DEFAULT_255_2_778
10
5.4054501
20
0.1286175
40
0.5306297
50
92.8539754
51
139.3324389
0
ARC
8
DEFAULT_255_2_778
10
5.4479221
20
-0.1515505
40
0.8130635
50
89.9335128
51
94.8606102
0
ARC
8
DEFAULT_255_2_778
10
5.4620935
20
-0.0015166
40
0.663161
50
68.5352566
51
91.142936
0
ARC
8
DEFAULT_255_2_778
10
5.5243918
20
0.1772019
40
0.4740994
50
50.1373287
51
67.6384124
0
ARC
8
DEFAULT_255_2_778
10
5.4964535
20
0.1575308
40
0.5071826
50
9.7479488
51
49.1390038
0
ARC
8
DEFAULT_255_2_778
10
5.2561601
20
0.0917499
40
0.7555303
50
8.2001589
51
11.5793765
0
ARC
8
DEFAULT_255_2_778
10
5.4020184
20
0.1374863
40
0.4081874
50
8.7402549
51
37.2383321
0
ARC
8
DEFAULT_255_2_778
10
5.4850423
20
0.1796958
40
0.3169845
50
40.2467689
51
88.25921
0
ARC
8
DEFAULT_255_2_778
10
5.4505489
20
-0.049795
40
0.5481079
50
85.3826984
51
90.071428
0
ARC
8
DEFAULT_255_2_778
10
5.4350099
20
0.1228935
40
0.3757128
50
87.7339251
51
126.2233767
0
ARC
8
DEFAULT_255_2_778
10
5.4206022
20
0.159423
40
0.3378767
50
127.9132013
51
143.939059
0
ARC
8
DEFAULT_255_2_778
10
5.5735206
20
0.0609207
40
0.5195813
50
145.0844672
51
170.0018335
0
ARC
8
DEFAULT_255_2_778
10
6.0686091
20
-0.0421117
40
1.0251566
50
169.134837
51
180.2892767
0
ARC
8
DEFAULT_255_2_778
10
5.8400531
20
-0.1832361
40
0.7966927
50
179.068734
51
197.2330008
0
ARC
8
DEFAULT_255_2_778
10
5.5599823
20
-0.2656731
40
0.5047901
50
197.7139337
51
217.4739278
0
ARC
8
DEFAULT_255_2_778
10
5.459369
20
-0.3463647
40
0.3758581
50
217.0431075
51
272.0273629
0
ARC
8
DEFAULT_255_2_778
10
5.4843068
20
-0.0356751
40
0.6864112
50
269.0282521
51
285.5106966
0
ARC
8
DEFAULT_255_2_778
10
5.5867248
20
-0.4063978
40
0.3018018
50
285.5961349
51
316.6717
0
LINE
8
DEFAULT_255_2_778
10
6.0039656
20
-0.1147875
11
6.0039656
21
-0.6666875
0
LINE
8
DEFAULT_255_2_778
10
4.8442656
20
-0.1837875
11
4.8442656
21
-0.0525875
0
LINE
8
DEFAULT_255_2_778
10
6.0039656
20
0.1995125
11
5.8054656
21
0.1995125
0
LINE
8
DEFAULT_255_2_778
10
5.0434656
20
-0.0472875
11
5.0434656
21
-0.1702875
0
LINE
8
DEFAULT_255_2_778
10
5.8062656
20
-0.6134875
11
5.8062656
21
-0.2756875
0
LINE
8
DEFAULT_255_2_778
10
5.8062656
20
-0.2756875
11
5.4580656
21
-0.2756875
0
LINE
8
DEFAULT_255_2_778
10
5.4580656
20
-0.2756875
11
5.4580656
21
-0.1144875
0
LINE
8
DEFAULT_255_2_778
10
5.4580656
20
-0.1144875
11
6.0039656
21
-0.1144875
0
LINE
8
DEFAULT_255_2_778
10
6.0039656
20
-0.1144875
11
6.0039656
21
-0.1147875
0
ENDSEC
0
EOF