0
SECTION
2
HEADER
9
$MEASUREMENT
70
1
0
ENDSEC
0
SECTION
2
TABLES
0
TABLE
2
LTYPE
0
LTYPE
72
65
70
64
2
CONTINUOUS
3
______
73
0
40
0
0
ENDTAB
0
TABLE
2
LAYER
0
LAYER
2
DEFAULT_255_2_778
70
0
62
255
6
CONTINUOUS
0
ENDTAB
0
ENDSEC
0
SECTION
2
ENTITIES
0
LINE
8
DEFAULT_255_2_778
10
16.0073169
20
-0.1323
11
2.7781169
21
-0.1323
0
LINE
8
DEFAULT_255_2_778
10
4.1010335
20
2.5135333
11
14.6843335
21
2.5135333
0
LINE
8
DEFAULT_255_2_778
10
14.6843335
20
2.5135333
11
14.6843335
21
-2.7781667
0
LINE
8
DEFAULT_255_2_778
10
14.6843335
20
-2.7781667
11
4.1010335
21
-2.7781667
0
LINE
8
DEFAULT_255_2_778
10
4.1010335
20
-2.7781667
11
4.1010335
21
2.5135333
0
ARC
8
DEFAULT_255_2_778
10
6.7507395
20
-0.5572022
40
0.8979894
50
269.7539606
51
286.5964739
0
ARC
8
DEFAULT_255_2_778
10
6.6964022
20
-0.4486598
40
1.0177484
50
287.782767
51
316.3852915
0
ARC
8
DEFAULT_255_2_778
10
6.0809935
20
0.1779674
40
1.8957764
50
315.5038806
51
325.5800462
0
ARC
8
DEFAULT_255_2_778
10
4.5531248
20
1.2277512
40
3.7495364
50
325.5441406
51
331.634637
0
ARC
8
DEFAULT_255_2_778
10
-3.1519821
20
5.3886328
40
12.5063399
50
331.6315587
51
333.8036053
0
ARC
8
DEFAULT_255_2_778
10
17.0678943
20
-4.520028
40
10.0109092
50
150.6784868
51
154.0047704
0
ARC
8
DEFAULT_255_2_778
10
11.0502478
20
-1.1542364
40
3.1159737
50
143.6052444
51
150.45202
0
ARC
8
DEFAULT_255_2_778
10
9.8751593
20
-0.2850401
40
1.6543567
50
132.2473375
51
143.6892249
0
ARC
8
DEFAULT_255_2_778
10
9.3988743
20
0.2623982
40
0.9290229
50
96.0796982
51
133.2027463
0
ARC
8
DEFAULT_255_2_778
10
9.3920437
20
0.2402565
40
0.9503604
50
89.9614378
51
95.5288228
0
ARC
8
DEFAULT_255_2_778
10
9.3965395
20
0.2926355
40
0.8979894
50
73.4035261
51
90.2460394
0
ARC
8
DEFAULT_255_2_778
10
9.3422022
20
0.1840931
40
1.0177484
50
43.6147085
51
72.217233
0
ARC
8
DEFAULT_255_2_778
10
8.7267935
20
-0.4425342
40
1.8957764
50
34.4199538
51
44.4961194
0
ARC
8
DEFAULT_255_2_778
10
7.1989248
20
-1.4923179
40
3.7495364
50
28.365363
51
34.4558594
0
ARC
8
DEFAULT_255_2_778
10
-0.5061821
20
-5.6531995
40
12.5063399
50
26.1963947
51
28.3684413
0
ARC
8
DEFAULT_255_2_778
10
19.7136943
20
4.2554612
40
10.0109092
50
205.9952296
51
209.3215132
0
ARC
8
DEFAULT_255_2_778
10
13.6960478
20
0.8896697
40
3.1159737
50
209.54798
51
216.3947556
0
ARC
8
DEFAULT_255_2_778
10
12.5209593
20
0.0204734
40
1.6543567
50
216.3107751
51
227.7526625
0
ARC
8
DEFAULT_255_2_778
10
12.0446743
20
-0.5269649
40
0.9290229
50
226.7972537
51
263.9203018
0
ARC
8
DEFAULT_255_2_778
10
12.0378437
20
-0.5048232
40
0.9503604
50
264.4711772
51
270.0385622
0
ARC
8
DEFAULT_255_2_778
10
12.0424395
20
-0.5572022
40
0.8979894
50
269.7539606
51
286.5964739
0
ARC
8
DEFAULT_255_2_778
10
11.9881022
20
-0.4486598
40
1.0177484
50
287.782767
51
316.3852915
0
ARC
8
DEFAULT_255_2_778
10
11.3726935
20
0.1779674
40
1.8957764
50
315.5038806
51
325.5800462
0
ARC
8
DEFAULT_255_2_778
10
9.8448248
20
1.2277512
40
3.7495364
50
325.5441406
51
331.634637
0
ARC
8
DEFAULT_255_2_778
10
2.1397179
20
5.3886328
40
12.5063399
50
331.6315587
51
333.8036053
0
ARC
8
DEFAULT_255_2_778
10
22.3595943
20
-4.520028
40
10.0109092
50
150.6784868
51
154.0047704
0
ARC
8
DEFAULT_255_2_778
10
16.3419478
20
-1.1542364
40
3.1159737
50
143.6052444
51
150.45202
0
ARC
8
DEFAULT_255_2_778
10
15.1668593
20
-0.2850401
40
1.6543567
50
132.2473375
51
143.6892249
0
ARC
8
DEFAULT_255_2_778
10
14.6905743
20
0.2623982
40
0.9290229
50
96.0796982
51
133.2027463
0
ARC
8
DEFAULT_255_2_778
10
14.6837437
20
0.2402565
40
0.9503604
50
89.9614378
51
95.5288228
0
ARC
8
DEFAULT_255_2_778
10
6.7430272
20
-0.5572022
40
0.8979894
50
253.4035261
51
270.2460394
0
ARC
8
DEFAULT_255_2_778
10
6.7973645
20
-0.4486598
40
1.0177484
50
223.6147085
51
252.217233
0
ARC
8
DEFAULT_255_2_778
10
7.4127733
20
0.1779674
40
1.8957764
50
214.4199538
51
224.4961194
0
ARC
8
DEFAULT_255_2_778
10
8.940642
20
1.2277512
40
3.7495364
50
208.365363
51
214.4558594
0
ARC
8
DEFAULT_255_2_778
10
16.6457489
20
5.3886328
40
12.5063399
50
206.1963947
51
208.3684413
0
ARC
8
DEFAULT_255_2_778
10
-3.5741276
20
-4.520028
40
10.0109092
50
25.9952296
51
29.3215132
0
ARC
8
DEFAULT_255_2_778
10
2.443519
20
-1.1542364
40
3.1159737
50
29.54798
51
36.3947556
0
ARC
8
DEFAULT_255_2_778
10
3.6186074
20
-0.2850401
40
1.6543567
50
36.3107751
51
47.7526625
0
ARC
8
DEFAULT_255_2_778
10
4.0948925
20
0.2623982
40
0.9290229
50
46.7972537
51
83.9203018
0
ARC
8
DEFAULT_255_2_778
10
4.101723
20
0.2402565
40
0.9503604
50
84.4711772
51
90.0385622
0
ENDSEC
0
EOF