0
SECTION
2
HEADER
9
$MEASUREMENT
70
1
0
ENDSEC
0
SECTION
2
TABLES
0
TABLE
2
LTYPE
0
LTYPE
72
65
70
64
2
CONTINUOUS
3
______
73
0
40
0
0
ENDTAB
0
TABLE
2
LAYER
0
LAYER
2
DEFAULT_255_2_778
70
0
62
255
6
CONTINUOUS
0
LAYER
2
DEFAULT_255_1_696
70
0
62
255
6
CONTINUOUS
0
ENDTAB
0
ENDSEC
0
SECTION
2
ENTITIES
0
LINE
8
DEFAULT_255_2_778
10
2.7781667
20
2.5135333
11
8.0698667
21
2.5135333
0
LINE
8
DEFAULT_255_2_778
10
8.0698667
20
2.5135333
11
8.0698667
21
-2.7781667
0
LINE
8
DEFAULT_255_2_778
10
8.0698667
20
-2.7781667
11
2.7781667
21
-2.7781667
0
LINE
8
DEFAULT_255_2_778
10
2.7781667
20
-2.7781667
11
2.7781667
21
2.5135333
0
LINE
8
DEFAULT_255_2_778
10
5.1593333
20
1.0319667
11
5.1593333
21
1.1906667
0
LINE
8
DEFAULT_255_2_778
10
5.1593333
20
1.1906667
11
4.1010333
21
1.1906667
0
LINE
8
DEFAULT_255_2_778
10
4.1010333
20
1.1906667
11
4.6302333
21
0.6614667
0
LINE
8
DEFAULT_255_2_778
10
4.6302333
20
0.6614667
11
4.1010333
21
0.1323667
0
LINE
8
DEFAULT_255_2_778
10
4.1010333
20
0.1323667
11
5.1593333
21
0.1323667
0
LINE
8
DEFAULT_255_2_778
10
5.1593333
20
0.1323667
11
5.1593333
21
0.2646667
0
LINE
8
DEFAULT_255_2_778
10
6.7468834
20
1.1906166
11
4.1010834
21
-1.4551834
0
LINE
8
DEFAULT_255_1_696
10
5.3681084
20
-0.1877979
11
5.5613689
21
-0.1877979
0
LINE
8
DEFAULT_255_1_696
10
5.5613689
20
-0.1877979
11
5.567995
21
-0.337989
0
LINE
8
DEFAULT_255_1_696
10
6.3079066
20
-0.5930928
11
6.3079066
21
-1.3827
0
LINE
8
DEFAULT_255_1_696
10
6.3079066
20
-1.3827
11
6.1036026
21
-1.3827
0
LINE
8
DEFAULT_255_1_696
10
6.1036026
20
-1.3827
11
6.1036026
21
-0.5919885
0
LINE
8
DEFAULT_255_1_696
10
5.5724124
20
-0.5312495
11
5.5724124
21
-1.3827
0
LINE
8
DEFAULT_255_1_696
10
5.5724124
20
-1.3827
11
5.3681084
21
-1.3827
0
LINE
8
DEFAULT_255_1_696
10
5.3681084
20
-1.3827
11
5.3681084
21
-0.1877979
0
ARC
8
DEFAULT_255_1_696
10
5.9261387
20
-0.6145575
40
0.4525009
50
116.4595042
51
142.3236885
0
ARC
8
DEFAULT_255_1_696
10
5.9183514
20
-0.617448
40
0.4516946
50
89.9345028
51
115.4117499
0
ARC
8
DEFAULT_255_1_696
10
5.9257766
20
-0.7259613
40
0.5602501
50
89.9973013
51
90.706577
0
ARC
8
DEFAULT_255_1_696
10
5.9342955
20
-0.6443478
40
0.4787121
50
71.6503236
51
91.0165064
0
ARC
8
DEFAULT_255_1_696
10
5.9833132
20
-0.4818716
40
0.3091004
50
13.4486741
51
70.7930332
0
ARC
8
DEFAULT_255_1_696
10
5.6668119
20
-0.5822358
40
0.6407147
50
1.3248987
51
15.5955509
0
ARC
8
DEFAULT_255_1_696
10
5.386205
20
-0.6000484
40
0.9217279
50
0.432371
51
2.0285624
0
ARC
8
DEFAULT_255_1_696
10
5.6420759
20
-0.5933139
40
0.4615286
50
0.1645443
51
8.934635
0
ARC
8
DEFAULT_255_1_696
10
5.8154917
20
-0.5651368
40
0.2858423
50
8.7537409
51
22.2900719
0
ARC
8
DEFAULT_255_1_696
10
5.9074536
20
-0.5272135
40
0.1863682
50
22.2259044
51
42.6537829
0
ARC
8
DEFAULT_255_1_696
10
5.9161306
20
-0.5239083
40
0.1777805
50
43.7652236
51
71.2771656
0
ARC
8
DEFAULT_255_1_696
10
5.8811247
20
-0.6210423
40
0.2810179
50
70.8746152
51
84.3176633
0
ARC
8
DEFAULT_255_1_696
10
5.8650807
20
-0.7561248
40
0.417033
50
83.9617899
51
90.1540249
0
ARC
8
DEFAULT_255_1_696
10
5.8612571
20
-0.6539316
40
0.3148499
50
89.5081896
51
108.7922872
0
ARC
8
DEFAULT_255_1_696
10
5.8526191
20
-0.6224515
40
0.2822721
50
109.1908215
51
125.308192
0
ARC
8
DEFAULT_255_1_696
10
5.8974621
20
-0.6858906
40
0.3599601
50
125.2967581
51
154.5574064
0
ENDSEC
0
EOF