0
SECTION
2
HEADER
9
$MEASUREMENT
70
1
0
ENDSEC
0
SECTION
2
TABLES
0
TABLE
2
LTYPE
0
LTYPE
72
65
70
64
2
CONTINUOUS
3
______
73
0
40
0
0
ENDTAB
0
TABLE
2
LAYER
0
LAYER
2
DEFAULT_255_2_778
70
0
62
255
6
CONTINUOUS
0
LAYER
2
DEFAULT_255_1_234
70
0
62
255
6
CONTINUOUS
0
LAYER
2
DEFAULT_255_2_930
70
0
62
255
6
CONTINUOUS
0
ENDTAB
0
ENDSEC
0
SECTION
2
ENTITIES
0
LINE
8
DEFAULT_255_2_778
10
2.9434667
20
2.5135333
11
8.2351667
21
2.5135333
0
LINE
8
DEFAULT_255_2_778
10
8.2351667
20
2.5135333
11
8.2351667
21
-2.7781667
0
LINE
8
DEFAULT_255_2_778
10
8.2351667
20
-2.7781667
11
2.9434667
21
-2.7781667
0
LINE
8
DEFAULT_255_2_778
10
2.9434667
20
-2.7781667
11
2.9434667
21
2.5135333
0
LINE
8
DEFAULT_255_1_234
10
6.0398333
20
1.9523341
11
6.2582965
21
1.9523341
0
LINE
8
DEFAULT_255_1_234
10
6.2582965
20
1.9523341
11
6.2655251
21
1.8519374
0
LINE
8
DEFAULT_255_1_234
10
6.7899976
20
1.6447185
11
6.7899976
21
1.0833
0
LINE
8
DEFAULT_255_1_234
10
6.7899976
20
1.0833
11
6.5578804
21
1.0833
0
LINE
8
DEFAULT_255_1_234
10
6.5578804
20
1.0833
11
6.5578804
21
1.6390963
0
LINE
8
DEFAULT_255_1_234
10
6.2719505
20
1.6961216
11
6.2719505
21
1.0833
0
LINE
8
DEFAULT_255_1_234
10
6.2719505
20
1.0833
11
6.0398333
21
1.0833
0
LINE
8
DEFAULT_255_1_234
10
6.0398333
20
1.0833
11
6.0398333
21
1.9523341
0
ARC
8
DEFAULT_255_1_234
10
6.5014834
20
1.6692224
40
0.2984311
50
93.7796822
51
142.2474917
0
ARC
8
DEFAULT_255_1_234
10
6.5149626
20
1.5733702
40
0.3950277
50
89.9492966
51
94.8140733
0
ARC
8
DEFAULT_255_1_234
10
6.5182847
20
1.5959435
40
0.3724659
50
78.1530755
51
90.4572681
0
ARC
8
DEFAULT_255_1_234
10
6.5472826
20
1.7278694
40
0.2374003
50
55.8596615
51
78.4659038
0
ARC
8
DEFAULT_255_1_234
10
6.5648666
20
1.7577714
40
0.2027951
50
39.6877619
51
55.2301677
0
ARC
8
DEFAULT_255_1_234
10
6.518388
20
1.7229285
40
0.2608286
50
18.3367849
51
39.0576163
0
ARC
8
DEFAULT_255_1_234
10
6.3677666
20
1.6706236
40
0.4202632
50
6.9513175
51
18.6453488
0
ARC
8
DEFAULT_255_1_234
10
6.1428621
20
1.6406379
40
0.6471484
50
0.3612828
51
7.1767309
0
ARC
8
DEFAULT_255_1_234
10
6.2890796
20
1.6405481
40
0.2688047
50
359.690554
51
7.8910358
0
ARC
8
DEFAULT_255_1_234
10
6.3927846
20
1.6554224
40
0.1640404
50
7.717846
51
20.2421953
0
ARC
8
DEFAULT_255_1_234
10
6.4534721
20
1.6784947
40
0.0991204
50
19.8663988
51
43.1783602
0
ARC
8
DEFAULT_255_1_234
10
6.4590474
20
1.6801978
40
0.0939247
50
44.7481796
51
69.5588936
0
ARC
8
DEFAULT_255_1_234
10
6.4358671
20
1.6213913
40
0.1571282
50
69.1275648
51
81.9387489
0
ARC
8
DEFAULT_255_1_234
10
6.4206703
20
1.5199406
40
0.2597088
50
81.7578386
51
90.0920775
0
ARC
8
DEFAULT_255_1_234
10
6.4189799
20
1.4684474
40
0.3112043
50
89.7656229
51
90.0089468
0
ARC
8
DEFAULT_255_1_234
10
6.4164329
20
1.5991338
40
0.1805352
50
89.2070531
51
110.7943048
0
ARC
8
DEFAULT_255_1_234
10
6.4108715
20
1.6223725
40
0.1568656
50
111.9087585
51
147.119959
0
ARC
8
DEFAULT_255_1_234
10
6.4539746
20
1.5894837
40
0.2109609
50
145.9736541
51
149.6363158
0
LINE
8
DEFAULT_255_2_930
10
4.2687002
20
0.9023361
11
4.7207823
21
0.1488659
0
LINE
8
DEFAULT_255_2_930
10
4.7207823
20
0.1488659
11
5.178587
21
0.9023361
0
LINE
8
DEFAULT_255_2_930
10
5.178587
20
0.9023361
11
5.5906112
21
0.9023361
0
LINE
8
DEFAULT_255_2_930
10
5.5906112
20
0.9023361
11
4.9153493
21
-0.1181868
0
LINE
8
DEFAULT_255_2_930
10
4.9153493
20
-0.1181868
11
5.6115939
21
-1.1616
0
LINE
8
DEFAULT_255_2_930
10
5.6115939
20
-1.1616
11
5.2033848
21
-1.1616
0
LINE
8
DEFAULT_255_2_930
10
5.2033848
20
-1.1616
11
4.7265049
21
-0.3890546
0
LINE
8
DEFAULT_255_2_930
10
4.7265049
20
-0.3890546
11
4.249625
21
-1.1616
0
LINE
8
DEFAULT_255_2_930
10
4.249625
20
-1.1616
11
3.8395083
21
-1.1616
0
LINE
8
DEFAULT_255_2_930
10
3.8395083
20
-1.1616
11
4.5357529
21
-0.1181868
0
LINE
8
DEFAULT_255_2_930
10
4.5357529
20
-0.1181868
11
3.860491
21
0.9023361
0
LINE
8
DEFAULT_255_2_930
10
3.860491
20
0.9023361
11
4.2687002
21
0.9023361
0
ENDSEC
0
EOF