0
SECTION
2
HEADER
9
$MEASUREMENT
70
1
0
ENDSEC
0
SECTION
2
TABLES
0
TABLE
2
LTYPE
0
LTYPE
72
65
70
64
2
CONTINUOUS
3
______
73
0
40
0
0
ENDTAB
0
TABLE
2
LAYER
0
LAYER
2
DEFAULT_255_2_778
70
0
62
255
6
CONTINUOUS
0
LAYER
2
DEFAULT_255_1_696
70
0
62
255
6
CONTINUOUS
0
ENDTAB
0
ENDSEC
0
SECTION
2
ENTITIES
0
LINE
8
DEFAULT_255_2_778
10
3.0953667
20
2.5135333
11
8.3870667
21
2.5135333
0
LINE
8
DEFAULT_255_2_778
10
8.3870667
20
2.5135333
11
8.3870667
21
-2.7781667
0
LINE
8
DEFAULT_255_2_778
10
8.3870667
20
-2.7781667
11
3.0953667
21
-2.7781667
0
LINE
8
DEFAULT_255_2_778
10
3.0953667
20
-2.7781667
11
3.0953667
21
2.5135333
0
LINE
8
DEFAULT_255_1_696
10
4.0711078
20
-0.659
11
3.8668039
21
-0.659
0
LINE
8
DEFAULT_255_1_696
10
3.8668039
20
-0.659
11
3.8668039
21
0.3779806
0
LINE
8
DEFAULT_255_1_696
10
3.8668039
20
0.3779806
11
3.6779607
21
0.3779806
0
LINE
8
DEFAULT_255_1_696
10
3.6779607
20
0.3779806
11
3.6779607
21
0.5359021
0
LINE
8
DEFAULT_255_1_696
10
3.6779607
20
0.5359021
11
3.8668039
21
0.5359021
0
LINE
8
DEFAULT_255_1_696
10
3.8668039
20
0.5359021
11
3.8668039
21
0.6584844
0
LINE
8
DEFAULT_255_1_696
10
4.4002028
20
1.0416924
11
4.3891594
21
0.8760405
0
LINE
8
DEFAULT_255_1_696
10
4.0711078
20
0.6617975
11
4.0711078
21
0.5359021
0
LINE
8
DEFAULT_255_1_696
10
4.0711078
20
0.5359021
11
4.3262117
21
0.5359021
0
LINE
8
DEFAULT_255_1_696
10
4.3262117
20
0.5359021
11
4.3262117
21
0.3779806
0
LINE
8
DEFAULT_255_1_696
10
4.3262117
20
0.3779806
11
4.0711078
21
0.3779806
0
LINE
8
DEFAULT_255_1_696
10
4.0711078
20
0.3779806
11
4.0711078
21
-0.659
0
ARC
8
DEFAULT_255_1_696
10
4.4452636
20
0.6625559
40
0.578474
50
168.7719
51
180.4032714
0
ARC
8
DEFAULT_255_1_696
10
4.2503676
20
0.7030675
40
0.3794245
50
148.300925
51
169.0417352
0
ARC
8
DEFAULT_255_1_696
10
4.1980678
20
0.7318513
40
0.319816
50
135.6153855
51
147.7649876
0
ARC
8
DEFAULT_255_1_696
10
4.2066868
20
0.7200165
40
0.3342625
50
103.9233686
51
135.199003
0
ARC
8
DEFAULT_255_1_696
10
4.2518675
20
0.5548981
40
0.5054178
50
91.1391101
51
104.3906252
0
ARC
8
DEFAULT_255_1_696
10
4.2598588
20
0.4100762
40
0.6503902
50
89.9918797
51
91.5893355
0
ARC
8
DEFAULT_255_1_696
10
4.2595656
20
0.5243169
40
0.5361495
50
74.7928406
51
89.9588233
0
ARC
8
DEFAULT_255_1_696
10
4.284662
20
0.322619
40
0.5632008
50
79.3072658
51
87.4874674
0
ARC
8
DEFAULT_255_1_696
10
4.2789458
20
0.2266214
40
0.6593584
50
87.3569175
51
90.0192024
0
ARC
8
DEFAULT_255_1_696
10
4.2765107
20
0.6131806
40
0.2728081
50
89.5349925
51
102.7292159
0
ARC
8
DEFAULT_255_1_696
10
4.2547399
20
0.7037704
40
0.1796521
50
102.3226158
51
131.0048947
0
ARC
8
DEFAULT_255_1_696
10
4.2495169
20
0.7120543
40
0.1699802
50
131.5083893
51
136.9903355
0
ARC
8
DEFAULT_255_1_696
10
4.2637051
20
0.7012432
40
0.1877381
50
137.5313295
51
163.8260799
0
ARC
8
DEFAULT_255_1_696
10
4.3588099
20
0.6717311
40
0.2873055
50
163.4567026
51
176.3729555
0
ARC
8
DEFAULT_255_1_696
10
4.4654769
20
0.6622288
40
0.3943694
50
175.9755532
51
180.0626689
0
LINE
8
DEFAULT_255_1_696
10
5.0848972
20
1.15544
11
5.1268623
21
1.0207098
0
LINE
8
DEFAULT_255_1_696
10
4.7491761
20
0.0742855
11
4.7480717
21
-0.0195838
0
LINE
8
DEFAULT_255_1_696
10
5.1268623
20
-1.0532514
11
5.0848972
21
-1.1780425
0
ARC
8
DEFAULT_255_1_696
10
6.2511562
20
-0.0000429
40
1.7074
50
163.9171043
51
180.211034
0
ARC
8
DEFAULT_255_1_696
10
5.9491895
20
0.0900646
40
1.3922923
50
144.9122219
51
164.0375854
0
ARC
8
DEFAULT_255_1_696
10
5.8052802
20
0.1933976
40
1.2151378
50
138.0041466
51
144.9985589
0
ARC
8
DEFAULT_255_1_696
10
5.5057592
20
0.4653708
40
0.8105666
50
127.7706987
51
138.1261575
0
ARC
8
DEFAULT_255_1_696
10
5.3634793
20
0.6459311
40
0.5806956
50
118.6683339
51
127.5857894
0
ARC
8
DEFAULT_255_1_696
10
5.5535417
20
0.4736923
40
0.693746
50
127.9546045
51
144.5438383
0
ARC
8
DEFAULT_255_1_696
10
5.8177135
20
0.2820404
40
1.0201071
50
144.3825771
51
154.8226084
0
ARC
8
DEFAULT_255_1_696
10
6.1130402
20
0.135736
40
1.3496343
50
154.5353627
51
157.921882
0
ARC
8
DEFAULT_255_1_696
10
6.2765486
20
0.0756275
40
1.523757
50
158.1383593
51
172.1595393
0
ARC
8
DEFAULT_255_1_696
10
6.6500505
20
0.0173736
40
1.9017261
50
171.9559316
51
178.2850842
0
ARC
8
DEFAULT_255_1_696
10
6.7127159
20
-0.0296365
40
1.9646699
50
179.7068315
51
190.3547144
0
ARC
8
DEFAULT_255_1_696
10
6.1988086
20
-0.1254395
40
1.4419135
50
190.2803236
51
206.0868039
0
ARC
8
DEFAULT_255_1_696
10
5.8770162
20
-0.2783026
40
1.0856917
50
206.3090724
51
215.4199111
0
ARC
8
DEFAULT_255_1_696
10
5.6232315
20
-0.4604672
40
0.7733009
50
215.3186853
51
228.7428745
0
ARC
8
DEFAULT_255_1_696
10
5.5461385
20
-0.5423247
40
0.6609377
50
229.0874909
51
230.6270502
0
ARC
8
DEFAULT_255_1_696
10
5.4109793
20
-0.6026412
40
0.6613745
50
226.880533
51
240.4596056
0
ARC
8
DEFAULT_255_1_696
10
5.6367595
20
-0.3578085
40
0.9944141
50
218.0954385
51
227.0271509
0
ARC
8
DEFAULT_255_1_696
10
5.9075575
20
-0.1386715
40
1.3427401
50
214.7570518
51
218.3251079
0
ARC
8
DEFAULT_255_1_696
10
6.0024885
20
-0.0817815
40
1.4531848
50
187.0158026
51
214.4660554
0
ARC
8
DEFAULT_255_1_696
10
6.4372413
20
-0.0104482
40
1.893478
50
179.8754362
51
187.5513165
0
LINE
8
DEFAULT_255_1_696
10
5.4636877
20
0.5359021
11
5.7254177
21
0.0996855
0
LINE
8
DEFAULT_255_1_696
10
5.7254177
20
0.0996855
11
5.9904606
21
0.5359021
0
LINE
8
DEFAULT_255_1_696
10
5.9904606
20
0.5359021
11
6.2289993
21
0.5359021
0
LINE
8
DEFAULT_255_1_696
10
6.2289993
20
0.5359021
11
5.8380609
21
-0.0549229
0
LINE
8
DEFAULT_255_1_696
10
5.8380609
20
-0.0549229
11
6.2411471
21
-0.659
0
LINE
8
DEFAULT_255_1_696
10
6.2411471
20
-0.659
11
6.0048171
21
-0.659
0
LINE
8
DEFAULT_255_1_696
10
6.0048171
20
-0.659
11
5.7287307
21
-0.21174
0
LINE
8
DEFAULT_255_1_696
10
5.7287307
20
-0.21174
11
5.4526443
21
-0.659
0
LINE
8
DEFAULT_255_1_696
10
5.4526443
20
-0.659
11
5.21521
21
-0.659
0
LINE
8
DEFAULT_255_1_696
10
5.21521
20
-0.659
11
5.6182961
21
-0.0549229
0
LINE
8
DEFAULT_255_1_696
10
5.6182961
20
-0.0549229
11
5.2273578
21
0.5359021
0
LINE
8
DEFAULT_255_1_696
10
5.2273578
20
0.5359021
11
5.4636877
21
0.5359021
0
LINE
8
DEFAULT_255_1_696
10
6.3758773
20
-1.1780425
11
6.3328078
21
-1.0532514
0
LINE
8
DEFAULT_255_1_696
10
6.7115984
20
-0.0394621
11
6.7115984
21
-0.004123
0
LINE
8
DEFAULT_255_1_696
10
6.3328078
20
1.0306489
11
6.3758773
21
1.15544
0
ARC
8
DEFAULT_255_1_696
10
5.208806
20
-0.0240955
40
1.7082139
50
344.1904319
51
0.2254116
0
ARC
8
DEFAULT_255_1_696
10
5.5095107
20
-0.1080333
40
1.3960165
50
325.1192594
51
344.1427546
0
ARC
8
DEFAULT_255_1_696
10
5.6555131
20
-0.2163894
40
1.2142905
50
317.9669203
51
325.3738118
0
ARC
8
DEFAULT_255_1_696
10
5.9538801
20
-0.4875082
40
0.8111474
50
307.3102244
51
318.0800289
0
ARC
8
DEFAULT_255_1_696
10
6.0860069
20
-0.6568532
40
0.5963752
50
299.0815442
51
307.0754293
0
ARC
8
DEFAULT_255_1_696
10
5.9070145
20
-0.50755
40
0.6921633
50
307.9637735
51
325.5179519
0
ARC
8
DEFAULT_255_1_696
10
5.6320403
20
-0.3141592
40
1.0283201
50
325.3097531
51
335.8021553
0
ARC
8
DEFAULT_255_1_696
10
5.3129022
20
-0.163477
40
1.3811962
50
335.5270638
51
339.4412352
0
ARC
8
DEFAULT_255_1_696
10
5.0665923
20
-0.0773339
40
1.6420802
50
339.6449804
51
354.0465652
0
ARC
8
DEFAULT_255_1_696
10
4.6787288
20
-0.02884
40
2.0328972
50
353.8210028
51
359.7006232
0
ARC
8
DEFAULT_255_1_696
10
4.7615637
20
0.0015658
40
1.950043
50
359.8328533
51
8.0024501
0
ARC
8
DEFAULT_255_1_696
10
5.0831462
20
0.0436337
40
1.6257386
50
8.1120917
51
13.6439058
0
ARC
8
DEFAULT_255_1_696
10
5.1282016
20
0.0580266
40
1.578563
50
13.5219942
51
21.9948012
0
ARC
8
DEFAULT_255_1_696
10
5.3870455
20
0.1601468
40
1.3003139
50
22.0941706
51
28.6895386
0
ARC
8
DEFAULT_255_1_696
10
5.6149569
20
0.2879808
40
1.0390174
50
28.5390823
51
36.447287
0
ARC
8
DEFAULT_255_1_696
10
5.8634292
20
0.4728354
40
0.7293273
50
36.362081
51
47.5146655
0
ARC
8
DEFAULT_255_1_696
10
5.9546696
20
0.5677096
40
0.5977469
50
47.8220762
51
50.7573515
0
ARC
8
DEFAULT_255_1_696
10
6.0540899
20
0.5838638
40
0.6559318
50
47.0772668
51
60.621249
0
ARC
8
DEFAULT_255_1_696
10
5.8344563
20
0.3444532
40
0.9808212
50
38.1086414
51
47.2063469
0
ARC
8
DEFAULT_255_1_696
10
5.5723453
20
0.1318485
40
1.3182826
50
34.8937002
51
38.3486975
0
ARC
8
DEFAULT_255_1_696
10
5.5059395
20
0.0859614
40
1.3989997
50
15.9175063
51
34.8793461
0
ARC
8
DEFAULT_255_1_696
10
5.2217535
20
0.0050545
40
1.6944783
50
3.0303471
51
15.912969
0
ARC
8
DEFAULT_255_1_696
10
4.9463507
20
-0.0166457
40
1.9706561
50
359.9787925
51
3.2370888
0
ENDSEC
0
EOF