0
SECTION
2
HEADER
9
$MEASUREMENT
70
1
0
ENDSEC
0
SECTION
2
TABLES
0
TABLE
2
LTYPE
0
LTYPE
72
65
70
64
2
CONTINUOUS
3
______
73
0
40
0
0
ENDTAB
0
TABLE
2
LAYER
0
LAYER
2
DEFAULT_255_2_778
70
0
62
255
6
CONTINUOUS
0
ENDTAB
0
ENDSEC
0
SECTION
2
ENTITIES
0
ARC
8
DEFAULT_255_2_778
10
1.6891372
20
-4.1403858
40
0.3575658
50
254.7544474
51
269.832503
0
ARC
8
DEFAULT_255_2_778
10
1.7040434
20
-4.0816098
40
0.4181944
50
248.3232049
51
254.9015824
0
ARC
8
DEFAULT_255_2_778
10
1.7908062
20
-3.8971559
40
0.6217773
50
226.7220611
51
247.1717033
0
ARC
8
DEFAULT_255_2_778
10
2.1903438
20
-3.4574254
40
1.2158615
50
215.5780794
51
227.2203501
0
ARC
8
DEFAULT_255_2_778
10
2.9212353
20
-2.9247976
40
2.1202168
50
208.0730395
51
215.7931148
0
ARC
8
DEFAULT_255_2_778
10
3.988691
20
-2.3499036
40
3.3326315
50
202.2558639
51
208.1575502
0
ARC
8
DEFAULT_255_2_778
10
5.3246392
20
-1.7977404
40
4.7781847
50
197.6922792
51
202.3163783
0
ARC
8
DEFAULT_255_2_778
10
6.7861357
20
-1.3280703
40
6.3132917
50
193.773286
51
197.72223
0
ARC
8
DEFAULT_255_2_778
10
8.2940262
20
-0.9568391
40
7.8662066
50
190.0096415
51
193.7846268
0
ARC
8
DEFAULT_255_2_778
10
9.737308
20
-0.7004563
40
9.3320825
50
186.2842909
51
190.0195746
0
ARC
8
DEFAULT_255_2_778
10
10.9386537
20
-0.566312
40
10.5408932
50
182.5222558
51
186.2942747
0
ARC
8
DEFAULT_255_2_778
10
11.6582015
20
-0.5307508
40
11.2613097
50
179.9918562
51
182.5419018
0
ARC
8
DEFAULT_255_2_778
10
11.5212583
20
-0.525014
40
11.1243672
50
176.0901656
51
180.021303
0
ARC
8
DEFAULT_255_2_778
10
10.5750611
20
-0.4595946
40
10.1759113
50
172.5761441
51
176.0943839
0
ARC
8
DEFAULT_255_2_778
10
9.332556
20
-0.2957633
40
8.9226534
50
168.9237279
51
172.5884461
0
ARC
8
DEFAULT_255_2_778
10
7.8580435
20
-0.0053106
40
7.4198073
50
165.0822292
51
168.9373611
0
ARC
8
DEFAULT_255_2_778
10
6.3059544
20
0.410538
40
5.8129771
50
160.7911629
51
165.1046499
0
ARC
8
DEFAULT_255_2_778
10
4.8333444
20
0.9261896
40
4.2526986
50
155.7789849
51
160.8239858
0
ARC
8
DEFAULT_255_2_778
10
3.5717383
20
1.4974401
40
2.8677942
50
149.3769221
51
155.8465087
0
ARC
8
DEFAULT_255_2_778
10
2.6153799
20
2.067887
40
1.7542377
50
140.5876795
51
149.4988489
0
ARC
8
DEFAULT_255_2_778
10
2.0055774
20
2.5751425
40
0.9610629
50
126.8845823
51
140.870419
0
ARC
8
DEFAULT_255_2_778
10
1.7572429
20
2.9013633
40
0.5510921
50
112.1374732
51
126.5903414
0
ARC
8
DEFAULT_255_2_778
10
1.6998332
20
3.0355022
40
0.4052165
50
101.5926952
51
111.7656092
0
ARC
8
DEFAULT_255_2_778
10
1.6885983
20
3.0889007
40
0.3506497
50
90.0827486
51
101.5477322
0
ARC
8
DEFAULT_255_2_778
10
15.2574799
20
2.9859061
40
0.4538075
50
91.538992
51
126.1820875
0
ARC
8
DEFAULT_255_2_778
10
15.5178879
20
2.6010088
40
0.9183663
50
125.1190173
51
140.2337898
0
ARC
8
DEFAULT_255_2_778
10
16.1043118
20
2.1014625
40
1.6886888
50
139.9327767
51
149.4621385
0
ARC
8
DEFAULT_255_2_778
10
17.05782
20
1.5311986
40
2.7997026
50
149.3254346
51
156.1215473
0
ARC
8
DEFAULT_255_2_778
10
18.357169
20
0.9504001
40
4.2229444
50
156.0521857
51
161.3497788
0
ARC
8
DEFAULT_255_2_778
10
19.9014604
20
0.4246081
40
5.8542872
50
161.3073717
51
165.6699977
0
ARC
8
DEFAULT_255_2_778
10
21.5828589
20
-0.0071046
40
7.590223
50
165.6539675
51
169.6998586
0
ARC
8
DEFAULT_255_2_778
10
23.2327906
20
-0.3099112
40
9.2677091
50
169.68186
51
173.4239997
0
ARC
8
DEFAULT_255_2_778
10
24.6552841
20
-0.4757687
40
10.6998381
50
173.4140351
51
177.1783943
0
ARC
8
DEFAULT_255_2_778
10
25.6013199
20
-0.5265682
40
11.6472283
50
177.157891
51
180.0127011
0
ARC
8
DEFAULT_255_2_778
10
25.4800948
20
-0.534072
40
11.526004
50
179.9755334
51
183.8164485
0
ARC
8
DEFAULT_255_2_778
10
24.3140366
20
-0.6136718
40
10.3572337
50
183.8064355
51
187.5570795
0
ARC
8
DEFAULT_255_2_778
10
22.8696667
20
-0.8058489
40
8.9001353
50
187.5535176
51
191.0840594
0
ARC
8
DEFAULT_255_2_778
10
21.2487232
20
-1.1267987
40
7.2477271
50
191.0576693
51
195.1721086
0
ARC
8
DEFAULT_255_2_778
10
19.6053331
20
-1.5735219
40
5.5447029
50
195.1613083
51
199.4994532
0
ARC
8
DEFAULT_255_2_778
10
18.1284841
20
-2.1001526
40
3.9767725
50
199.4496531
51
204.8777372
0
ARC
8
DEFAULT_255_2_778
10
16.8737066
20
-2.6866418
40
2.5917061
50
204.78481
51
212.0831413
0
ARC
8
DEFAULT_255_2_778
10
15.9690109
20
-3.2587311
40
1.521318
50
211.9253257
51
222.3290304
0
ARC
8
DEFAULT_255_2_778
10
15.4393072
20
-3.7489273
40
0.7996418
50
221.9204993
51
239.4726776
0
ARC
8
DEFAULT_255_2_778
10
15.2524853
20
-4.0687703
40
0.42924
50
239.2673781
51
269.0397563
0
LINE
8
DEFAULT_255_2_778
10
1.6880919
20
3.4395499
11
15.2452919
21
3.4395499
0
LINE
8
DEFAULT_255_2_778
10
15.2452919
20
-4.4979501
11
1.6880919
21
-4.4979501
0
ARC
8
DEFAULT_255_2_778
10
15.2575211
20
-4.044308
40
0.4538058
50
233.8178011
51
268.4610388
0
ARC
8
DEFAULT_255_2_778
10
15.5179305
20
-3.6594112
40
0.918365
50
219.7660045
51
234.8808389
0
ARC
8
DEFAULT_255_2_778
10
16.1043678
20
-3.1598597
40
1.6887011
50
210.5376075
51
220.0669563
0
ARC
8
DEFAULT_255_2_778
10
17.0578853
20
-2.5895971
40
2.7997223
50
203.8781588
51
210.6742893
0
ARC
8
DEFAULT_255_2_778
10
18.3572619
20
-2.008795
40
4.2229907
50
198.6499047
51
203.9475124
0
ARC
8
DEFAULT_255_2_778
10
19.9016067
20
-1.4829931
40
5.8543874
50
194.3296933
51
198.6923239
0
ARC
8
DEFAULT_255_2_778
10
21.5831044
20
-1.0512632
40
7.5904235
50
190.2998563
51
194.3457342
0
ARC
8
DEFAULT_255_2_778
10
23.2332198
20
-0.7484284
40
9.2680954
50
186.5757828
51
190.3178741
0
ARC
8
DEFAULT_255_2_778
10
24.6559896
20
-0.5825443
40
10.7005018
50
182.8214906
51
186.5857483
0
ARC
8
DEFAULT_255_2_778
10
25.602303
20
-0.5317327
40
11.6481699
50
179.9872965
51
182.8419937
0
ARC
8
DEFAULT_255_2_778
10
25.4792478
20
-0.5242298
40
11.5251155
50
176.1834047
51
180.0244609
0
ARC
8
DEFAULT_255_2_778
10
24.3134944
20
-0.4446475
40
10.3566504
50
172.4426868
51
176.1934169
0
ARC
8
DEFAULT_255_2_778
10
22.8693045
20
-0.2524871
40
8.8997327
50
168.9156516
51
172.4462564
0
ARC
8
DEFAULT_255_2_778
10
21.248527
20
0.0684399
40
7.2474918
50
164.82757
51
168.9420519
0
ARC
8
DEFAULT_255_2_778
10
19.6053006
20
0.5151288
40
5.5446346
50
160.500249
51
164.8383722
0
ARC
8
DEFAULT_255_2_778
10
18.1284864
20
1.0417539
40
3.9767389
50
155.1219655
51
160.5500247
0
ARC
8
DEFAULT_255_2_778
10
16.8737258
20
1.6282428
40
2.5916879
50
147.9165682
51
155.2148847
0
ARC
8
DEFAULT_255_2_778
10
15.9690429
20
2.2003324
40
1.5213106
50
137.6707451
51
148.0744456
0
ARC
8
DEFAULT_255_2_778
10
15.4393442
20
2.69053
40
0.7996372
50
120.527141
51
138.079386
0
ARC
8
DEFAULT_255_2_778
10
15.2525272
20
3.0103676
40
0.4292424
50
90.9602863
51
120.7324827
0
LINE
8
DEFAULT_255_2_778
10
15.2453334
20
3.4395499
11
15.2456333
21
3.4395498
0
ARC
8
DEFAULT_255_2_778
10
15.2330454
20
2.9857073
40
0.454017
50
53.7870836
51
88.4112261
0
ARC
8
DEFAULT_255_2_778
10
14.9721256
20
2.6004671
40
0.9191461
50
39.748852
51
54.8517149
0
ARC
8
DEFAULT_255_2_778
10
14.3851863
20
2.1007961
40
1.6899419
50
30.5269607
51
40.0496328
0
ARC
8
DEFAULT_255_2_778
10
13.4312652
20
1.530539
40
2.8013066
50
23.8712988
51
30.663499
0
ARC
8
DEFAULT_255_2_778
10
12.131656
20
0.9498229
40
4.2247524
50
18.6454935
51
23.9405909
0
ARC
8
DEFAULT_255_2_778
10
10.5874359
20
0.4242015
40
5.855973
50
14.3268091
51
18.687847
0
ARC
8
DEFAULT_255_2_778
10
8.9064302
20
-0.0073197
40
7.5914808
50
10.2980959
51
14.3429005
0
ARC
8
DEFAULT_255_2_778
10
7.2567948
20
-0.3100178
40
9.2686559
50
6.5748373
51
10.3161305
0
ARC
8
DEFAULT_255_2_778
10
5.8347368
20
-0.4757956
40
10.7003431
50
2.821147
51
6.5848001
0
ARC
8
DEFAULT_255_2_778
10
4.8890391
20
-0.5265672
40
11.6473944
50
359.9872943
51
2.8416322
0
ARC
8
DEFAULT_255_2_778
10
5.0101357
20
-0.5340667
40
11.5262987
50
356.1841979
51
0.0244398
0
ARC
8
DEFAULT_255_2_778
10
6.1758788
20
-0.6136306
40
10.3578452
50
352.4442904
51
356.1942009
0
ARC
8
DEFAULT_255_2_778
10
7.6195993
20
-0.8056775
40
8.9014075
50
348.9181805
51
352.4477951
0
ARC
8
DEFAULT_255_2_778
10
9.2403999
20
-1.1265314
40
7.2491582
50
344.8313252
51
348.9445486
0
ARC
8
DEFAULT_255_2_778
10
10.8834215
20
-1.5730505
40
5.5465432
50
340.5057376
51
344.8421371
0
ARC
8
DEFAULT_255_2_778
10
12.360357
20
-2.0995517
40
3.9785745
50
335.1299642
51
340.5553884
0
ARC
8
DEFAULT_255_2_778
10
13.6154169
20
-2.6859617
40
2.5932857
50
327.9288203
51
335.2227358
0
ARC
8
DEFAULT_255_2_778
10
14.520583
20
-3.2580805
40
1.5224844
50
317.6902504
51
328.0864674
0
ARC
8
DEFAULT_255_2_778
10
15.0508186
20
-3.7484355
40
0.8003098
50
300.5601021
51
318.0985938
0
ARC
8
DEFAULT_255_2_778
10
15.2380688
20
-4.0686159
40
0.4294007
50
271.0094047
51
300.7672813
0
LINE
8
DEFAULT_255_2_778
10
15.2456333
20
-4.49795
11
15.2453334
21
-4.4979501
0
LINE
8
DEFAULT_255_2_778
10
15.2453334
20
-4.4979501
11
15.2453334
21
-4.4979501
0
ENDSEC
0
EOF