0
SECTION
2
HEADER
9
$MEASUREMENT
70
1
0
ENDSEC
0
SECTION
2
TABLES
0
TABLE
2
LTYPE
0
LTYPE
72
65
70
64
2
CONTINUOUS
3
______
73
0
40
0
0
ENDTAB
0
TABLE
2
LAYER
0
LAYER
2
DEFAULT_255_2_778
70
0
62
255
6
CONTINUOUS
0
ENDTAB
0
ENDSEC
0
SECTION
2
ENTITIES
0
ARC
8
DEFAULT_255_2_778
10
9.8366114
20
-19.9443339
40
17.6710604
50
68.1821006
51
69.2617757
0
ARC
8
DEFAULT_255_2_778
10
10.2616836
20
-18.8223054
40
16.4712127
50
69.2625478
51
70.3136217
0
ARC
8
DEFAULT_255_2_778
10
10.6094177
20
-17.8508957
40
15.4394397
50
70.3142492
51
71.3339788
0
ARC
8
DEFAULT_255_2_778
10
10.9274445
20
-16.9079093
40
14.4442691
50
71.3319747
51
72.5694072
0
ARC
8
DEFAULT_255_2_778
10
11.1842977
20
-16.0924374
40
13.5893027
50
72.5727118
51
73.5145031
0
ARC
8
DEFAULT_255_2_778
10
11.4095287
20
-15.3282354
40
12.7926015
50
73.5105283
51
74.8761097
0
ARC
8
DEFAULT_255_2_778
10
11.6352317
20
-14.4924538
40
11.9268805
50
74.8752653
51
76.3700953
0
ARC
8
DEFAULT_255_2_778
10
11.8236145
20
-13.715457
40
11.1273731
50
76.369986
51
77.9431932
0
ARC
8
DEFAULT_255_2_778
10
11.9637965
20
-13.0611361
40
10.4582044
50
77.9454627
51
79.3621183
0
ARC
8
DEFAULT_255_2_778
10
12.0748831
20
-12.4673225
40
9.8540897
50
79.3595523
51
81.1091794
0
ARC
8
DEFAULT_255_2_778
10
12.1654195
20
-11.8881981
40
9.267931
50
81.1088316
51
82.9998139
0
ARC
8
DEFAULT_255_2_778
10
12.2244827
20
-11.4102789
40
8.7863763
50
83.0022763
51
84.7239166
0
ARC
8
DEFAULT_255_2_778
10
12.2611835
20
-11.0114072
40
8.3858196
50
84.7230084
51
86.6876685
0
ARC
8
DEFAULT_255_2_778
10
12.2811877
20
-10.666971
40
8.040803
50
86.6881647
51
88.7527404
0
ARC
8
DEFAULT_255_2_778
10
12.2865616
20
-10.4481615
40
7.8219283
50
88.7572072
51
89.9982679
0
ARC
8
DEFAULT_255_2_778
10
12.2859406
20
-10.2666086
40
7.6403755
50
89.9935703
51
92.7261203
0
ARC
8
DEFAULT_255_2_778
10
12.280763
20
-10.1479002
40
7.5215552
50
92.7297328
51
95.3984637
0
ARC
8
DEFAULT_255_2_778
10
12.2873903
20
-10.2100508
40
7.5840535
50
95.4041345
51
98.4675921
0
ARC
8
DEFAULT_255_2_778
10
12.3406284
20
-10.5586697
40
7.9367117
50
98.4771478
51
101.5987546
0
ARC
8
DEFAULT_255_2_778
10
12.5022565
20
-11.3399283
40
8.7345133
50
101.6069569
51
104.3952504
0
ARC
8
DEFAULT_255_2_778
10
12.9667275
20
-13.1221027
40
10.5762084
50
104.432212
51
107.4308793
0
ARC
8
DEFAULT_255_2_778
10
14.554434
20
-18.1490078
40
15.847881
50
107.4632829
51
109.6554038
0
ARC
8
DEFAULT_255_2_778
10
23.1871471
20
-42.3008202
40
41.4961514
50
109.6636151
51
110.4891494
0
ARC
8
DEFAULT_255_2_778
10
-78.2926949
20
230.5561913
40
249.6209049
50
290.3384286
51
290.3863051
0
ARC
8
DEFAULT_255_2_778
10
0.9612749
20
16.3943825
40
21.2652674
50
287.9257995
51
290.6674225
0
ARC
8
DEFAULT_255_2_778
10
4.3919898
20
5.9321237
40
10.2550612
50
284.5054383
51
287.6797059
0
ARC
8
DEFAULT_255_2_778
10
4.9335886
20
3.8587647
40
8.1121392
50
281.0084053
51
284.4700068
0
ARC
8
DEFAULT_255_2_778
10
5.1009459
20
3.0143599
40
7.2513153
50
277.8072676
51
280.9844151
0
ARC
8
DEFAULT_255_2_778
10
5.1493771
20
2.6688216
40
6.9024012
50
274.4851914
51
277.7986018
0
ARC
8
DEFAULT_255_2_778
10
5.1557424
20
2.5982721
40
6.8315701
50
271.4139659
51
274.4782408
0
ARC
8
DEFAULT_255_2_778
10
5.153846
20
2.6704357
40
6.9037584
50
269.9986198
51
271.4149213
0
ARC
8
DEFAULT_255_2_778
10
5.1546074
20
2.8232646
40
7.0565875
50
267.2671116
51
269.9924674
0
ARC
8
DEFAULT_255_2_778
10
5.1694957
20
3.130584
40
7.3642671
50
264.6880242
51
267.2654129
0
ARC
8
DEFAULT_255_2_778
10
5.2069642
20
3.5340688
40
7.7694879
50
262.3868616
51
264.6883667
0
ARC
8
DEFAULT_255_2_778
10
5.269329
20
4.0017625
40
8.2413213
50
260.3463574
51
262.3878816
0
ARC
8
DEFAULT_255_2_778
10
5.3563589
20
4.5145975
40
8.7614885
50
258.5440042
51
260.3476704
0
ARC
8
DEFAULT_255_2_778
10
5.4758485
20
5.1028968
40
9.3617999
50
256.6914063
51
258.5423895
0
ARC
8
DEFAULT_255_2_778
10
5.6426212
20
5.8073488
40
10.0857237
50
254.8720965
51
256.6906555
0
ARC
8
DEFAULT_255_2_778
10
5.8483694
20
6.5703473
40
10.875976
50
253.3419573
51
254.874758
0
ARC
8
DEFAULT_255_2_778
10
6.0714038
20
7.3172502
40
11.6554681
50
252.0493138
51
253.344082
0
ARC
8
DEFAULT_255_2_778
10
6.3491922
20
8.1724483
40
12.554651
50
250.5475734
51
252.0461388
0
ARC
8
DEFAULT_255_2_778
10
6.6953404
20
9.1539144
40
13.595369
50
249.2516461
51
250.549522
0
ARC
8
DEFAULT_255_2_778
10
7.0959813
20
10.2109434
40
14.7257774
50
247.9461906
51
249.250907
0
ARC
8
DEFAULT_255_2_778
10
7.5217311
20
11.2644624
40
15.8620715
50
246.9695874
51
247.9497087
0
ARC
8
DEFAULT_255_2_778
10
7.9758756
20
12.3318176
40
17.022026
50
245.9076672
51
246.9683163
0
ARC
8
DEFAULT_255_2_778
10
8.4747638
20
13.4491501
40
18.2456766
50
245.05932
51
245.9097869
0
ARC
8
DEFAULT_255_2_778
10
8.9806052
20
14.5369278
40
19.4453165
50
244.2386167
51
245.0593927
0
LINE
8
DEFAULT_255_2_778
10
0.5292002
20
4.2333443
11
16.4042002
21
4.2333443
0
LINE
8
DEFAULT_255_2_778
10
16.4042002
20
4.2333443
11
16.4042002
21
-3.5390557
0
LINE
8
DEFAULT_255_2_778
10
0.5292002
20
-2.9757557
11
0.5292002
21
4.2333443
0
ENDSEC
0
EOF