0
SECTION
2
HEADER
9
$MEASUREMENT
70
1
0
ENDSEC
0
SECTION
2
TABLES
0
TABLE
2
LTYPE
0
LTYPE
72
65
70
64
2
CONTINUOUS
3
______
73
0
40
0
0
ENDTAB
0
TABLE
2
LAYER
0
LAYER
2
DEFAULT_255_2_778
70
0
62
255
6
CONTINUOUS
0
ENDTAB
0
ENDSEC
0
SECTION
2
ENTITIES
0
ARC
8
DEFAULT_255_2_778
10
10.1714389
20
-16.6273089
40
15.9111953
50
66.938456
51
68.067189
0
ARC
8
DEFAULT_255_2_778
10
10.5880919
20
-15.5931394
40
14.7962486
50
68.0680205
51
69.1685485
0
ARC
8
DEFAULT_255_2_778
10
10.9291271
20
-14.6973556
40
13.8377428
50
69.1693069
51
70.2386672
0
ARC
8
DEFAULT_255_2_778
10
11.2400157
20
-13.8305101
40
12.9168344
50
70.2364366
51
71.5360096
0
ARC
8
DEFAULT_255_2_778
10
11.533827
20
-12.9499069
40
11.9885095
50
71.5350165
51
72.9672757
0
ARC
8
DEFAULT_255_2_778
10
11.7791921
20
-12.1495242
40
11.1513618
50
72.9680796
51
74.3795203
0
ARC
8
DEFAULT_255_2_778
10
11.9810902
20
-11.4267765
40
10.4009438
50
74.378591
51
75.9236311
0
ARC
8
DEFAULT_255_2_778
10
12.1489071
20
-10.7573634
40
9.710816
50
75.9234328
51
77.5490532
0
ARC
8
DEFAULT_255_2_778
10
12.2868162
20
-10.1316656
40
9.0701004
50
77.5475554
51
79.3828307
0
ARC
8
DEFAULT_255_2_778
10
12.394059
20
-9.5597269
40
8.4881941
50
79.3830294
51
81.2960036
0
ARC
8
DEFAULT_255_2_778
10
12.4719887
20
-9.049866
40
7.972412
50
81.2951057
51
83.4161845
0
ARC
8
DEFAULT_255_2_778
10
12.5235045
20
-8.6038948
40
7.5234754
50
83.4165086
51
85.65427
0
ARC
8
DEFAULT_255_2_778
10
12.5505794
20
-8.2509273
40
7.1694711
50
85.6562765
51
87.8196751
0
ARC
8
DEFAULT_255_2_778
10
12.5606721
20
-7.9898718
40
6.9082206
50
87.8209495
51
89.9944718
0
ARC
8
DEFAULT_255_2_778
10
12.5604753
20
-7.7840331
40
6.7023818
50
89.9926202
51
93.029756
0
ARC
8
DEFAULT_255_2_778
10
12.5559503
20
-7.6885105
40
6.6067536
50
93.0343535
51
95.8548483
0
ARC
8
DEFAULT_255_2_778
10
12.5643303
20
-7.762926
40
6.6816359
50
95.8612384
51
99.1173745
0
ARC
8
DEFAULT_255_2_778
10
12.6197162
20
-8.1002198
40
7.0234447
50
99.127486
51
102.4054899
0
ARC
8
DEFAULT_255_2_778
10
12.801268
20
-8.9126725
40
7.8559311
50
102.4257256
51
105.7857851
0
ARC
8
DEFAULT_255_2_778
10
13.3916364
20
-10.9702908
40
9.9965555
50
105.8336167
51
109.1328061
0
ARC
8
DEFAULT_255_2_778
10
16.2322275
20
-19.0554409
40
18.5661529
50
109.2368086
51
111.5600383
0
ARC
8
DEFAULT_255_2_778
10
35.3510019
20
-68.069358
40
71.176777
50
111.3746145
51
111.5746812
0
ARC
8
DEFAULT_255_2_778
10
-73.3962008
20
207.0460638
40
224.6516358
50
291.5155822
51
291.5656465
0
ARC
8
DEFAULT_255_2_778
10
2.3643793
20
14.5149723
40
17.7514855
50
288.5377451
51
291.9357483
0
ARC
8
DEFAULT_255_2_778
10
5.3612028
20
5.7206259
40
8.4607823
50
284.120755
51
288.2306305
0
ARC
8
DEFAULT_255_2_778
10
5.7740681
20
4.1100002
40
6.7981027
50
280.1754329
51
284.0579513
0
ARC
8
DEFAULT_255_2_778
10
5.881332
20
3.5263967
40
6.2047293
50
276.5379195
51
280.1525705
0
ARC
8
DEFAULT_255_2_778
10
5.9045446
20
3.3338984
40
6.0108401
50
273.3167484
51
276.5270183
0
ARC
8
DEFAULT_255_2_778
10
5.9042064
20
3.3504029
40
6.0273366
50
269.9943853
51
273.3108809
0
ARC
8
DEFAULT_255_2_778
10
5.9045737
20
3.5215446
40
6.1984784
50
266.966755
51
269.9911448
0
ARC
8
DEFAULT_255_2_778
10
5.9197786
20
3.8063672
40
6.4837066
50
264.2396225
51
266.9657645
0
ARC
8
DEFAULT_255_2_778
10
5.9567992
20
4.1737778
40
6.8529774
50
261.808942
51
264.2399797
0
ARC
8
DEFAULT_255_2_778
10
6.018185
20
4.6011615
40
7.284747
50
259.6569233
51
261.809978
0
ARC
8
DEFAULT_255_2_778
10
6.1115201
20
5.1109034
40
7.8029633
50
257.4441003
51
259.6547323
0
ARC
8
DEFAULT_255_2_778
10
6.2470557
20
5.7199255
40
8.4268846
50
255.409011
51
257.4447963
0
ARC
8
DEFAULT_255_2_778
10
6.4222805
20
6.3938187
40
9.123186
50
253.5659916
51
255.4102143
0
ARC
8
DEFAULT_255_2_778
10
6.6280434
20
7.0930255
40
9.85204
50
252.0164336
51
253.5686464
0
ARC
8
DEFAULT_255_2_778
10
6.8776858
20
7.8609495
40
10.6595229
50
250.3846553
51
252.0145303
0
ARC
8
DEFAULT_255_2_778
10
7.1986955
20
8.7617191
40
11.6157829
50
248.824313
51
250.3847099
0
ARC
8
DEFAULT_255_2_778
10
7.5797862
20
9.7461268
40
12.6713816
50
247.3956318
51
248.8253901
0
ARC
8
DEFAULT_255_2_778
10
8.000162
20
10.7572084
40
13.7663707
50
246.1778491
51
247.3978882
0
ARC
8
DEFAULT_255_2_778
10
8.399325
20
11.6635917
40
14.7567551
50
245.3007918
51
246.181466
0
ARC
8
DEFAULT_255_2_778
10
8.866464
20
12.6766168
40
15.8722987
50
244.1075277
51
245.2968024
0
ARC
8
DEFAULT_255_2_778
10
9.4876853
20
13.9566958
40
17.2951544
50
242.9840207
51
244.1079563
0
ARC
8
DEFAULT_255_2_778
10
9.902721
20
14.7760802
40
18.2136529
50
242.8359601
51
242.9917261
0
LINE
8
DEFAULT_255_2_778
10
1.5874669
20
5.7275372
11
16.4041669
21
5.7275372
0
LINE
8
DEFAULT_255_2_778
10
16.4041669
20
5.7275372
11
16.4041669
21
-1.9876628
0
LINE
8
DEFAULT_255_2_778
10
1.5874669
20
-1.4286628
11
1.5874669
21
5.7275372
0
ARC
8
DEFAULT_255_2_778
10
9.6423389
20
-17.1565089
40
15.9111953
50
66.938456
51
68.067189
0
ARC
8
DEFAULT_255_2_778
10
10.0589919
20
-16.1223394
40
14.7962486
50
68.0680205
51
69.1685485
0
ARC
8
DEFAULT_255_2_778
10
10.4000271
20
-15.2265556
40
13.8377428
50
69.1693069
51
70.2386672
0
ARC
8
DEFAULT_255_2_778
10
10.7109157
20
-14.3597101
40
12.9168344
50
70.2364366
51
71.5360096
0
ARC
8
DEFAULT_255_2_778
10
11.004727
20
-13.4791069
40
11.9885095
50
71.5350165
51
72.9672757
0
ARC
8
DEFAULT_255_2_778
10
11.2500921
20
-12.6787242
40
11.1513618
50
72.9680796
51
74.3795203
0
ARC
8
DEFAULT_255_2_778
10
11.4519902
20
-11.9559765
40
10.4009438
50
74.378591
51
75.9236311
0
ARC
8
DEFAULT_255_2_778
10
11.6198071
20
-11.2865634
40
9.710816
50
75.9234328
51
77.5490532
0
ARC
8
DEFAULT_255_2_778
10
11.7577162
20
-10.6608656
40
9.0701004
50
77.5475554
51
79.3828307
0
ARC
8
DEFAULT_255_2_778
10
11.864959
20
-10.0889269
40
8.4881941
50
79.3830294
51
81.2960036
0
ARC
8
DEFAULT_255_2_778
10
11.9428887
20
-9.579066
40
7.972412
50
81.2951057
51
83.4161845
0
ARC
8
DEFAULT_255_2_778
10
11.9944045
20
-9.1330948
40
7.5234754
50
83.4165086
51
85.65427
0
ARC
8
DEFAULT_255_2_778
10
12.0214794
20
-8.7801273
40
7.1694711
50
85.6562765
51
87.8196751
0
ARC
8
DEFAULT_255_2_778
10
12.0315721
20
-8.5190718
40
6.9082206
50
87.8209495
51
89.9944718
0
ARC
8
DEFAULT_255_2_778
10
12.0313753
20
-8.3132331
40
6.7023818
50
89.9926202
51
93.029756
0
ARC
8
DEFAULT_255_2_778
10
12.0268503
20
-8.2177105
40
6.6067536
50
93.0343535
51
95.8548483
0
ARC
8
DEFAULT_255_2_778
10
12.0352303
20
-8.292126
40
6.6816359
50
95.8612384
51
99.1173745
0
ARC
8
DEFAULT_255_2_778
10
12.0906162
20
-8.6294198
40
7.0234447
50
99.127486
51
102.4054899
0
ARC
8
DEFAULT_255_2_778
10
12.272168
20
-9.4418725
40
7.8559311
50
102.4257256
51
105.7857851
0
ARC
8
DEFAULT_255_2_778
10
12.8625364
20
-11.4994908
40
9.9965555
50
105.8336167
51
109.1328061
0
ARC
8
DEFAULT_255_2_778
10
15.7031275
20
-19.5846409
40
18.5661529
50
109.2368086
51
111.5600383
0
ARC
8
DEFAULT_255_2_778
10
34.8219019
20
-68.598558
40
71.176777
50
111.3746145
51
111.5746812
0
ARC
8
DEFAULT_255_2_778
10
-73.9253008
20
206.5168638
40
224.6516358
50
291.5155822
51
291.5656465
0
ARC
8
DEFAULT_255_2_778
10
1.8352793
20
13.9857723
40
17.7514855
50
288.5377451
51
291.9357483
0
ARC
8
DEFAULT_255_2_778
10
4.8321028
20
5.1914259
40
8.4607823
50
284.120755
51
288.2306305
0
ARC
8
DEFAULT_255_2_778
10
5.2449681
20
3.5808002
40
6.7981027
50
280.1754329
51
284.0579513
0
ARC
8
DEFAULT_255_2_778
10
5.352232
20
2.9971967
40
6.2047293
50
276.5379195
51
280.1525705
0
ARC
8
DEFAULT_255_2_778
10
5.3754446
20
2.8046984
40
6.0108401
50
273.3167484
51
276.5270183
0
ARC
8
DEFAULT_255_2_778
10
5.3751064
20
2.8212029
40
6.0273366
50
269.9943853
51
273.3108809
0
ARC
8
DEFAULT_255_2_778
10
5.3754737
20
2.9923446
40
6.1984784
50
266.966755
51
269.9911448
0
ARC
8
DEFAULT_255_2_778
10
5.3906786
20
3.2771672
40
6.4837066
50
264.2396225
51
266.9657645
0
ARC
8
DEFAULT_255_2_778
10
5.4276992
20
3.6445778
40
6.8529774
50
261.808942
51
264.2399797
0
ARC
8
DEFAULT_255_2_778
10
5.489085
20
4.0719615
40
7.284747
50
259.6569233
51
261.809978
0
ARC
8
DEFAULT_255_2_778
10
5.5824201
20
4.5817034
40
7.8029633
50
257.4441003
51
259.6547323
0
ARC
8
DEFAULT_255_2_778
10
5.7179557
20
5.1907255
40
8.4268846
50
255.409011
51
257.4447963
0
ARC
8
DEFAULT_255_2_778
10
5.8931805
20
5.8646187
40
9.123186
50
253.5659916
51
255.4102143
0
ARC
8
DEFAULT_255_2_778
10
6.0989434
20
6.5638255
40
9.85204
50
252.0164336
51
253.5686464
0
ARC
8
DEFAULT_255_2_778
10
6.3485858
20
7.3317495
40
10.6595229
50
250.3846553
51
252.0145303
0
ARC
8
DEFAULT_255_2_778
10
6.6695955
20
8.2325191
40
11.6157829
50
248.824313
51
250.3847099
0
ARC
8
DEFAULT_255_2_778
10
7.0506862
20
9.2169268
40
12.6713816
50
247.3956318
51
248.8253901
0
ARC
8
DEFAULT_255_2_778
10
7.471062
20
10.2280084
40
13.7663707
50
246.1778491
51
247.3978882
0
ARC
8
DEFAULT_255_2_778
10
7.870225
20
11.1343917
40
14.7567551
50
245.3007918
51
246.181466
0
ARC
8
DEFAULT_255_2_778
10
8.337364
20
12.1474168
40
15.8722987
50
244.1075277
51
245.2968024
0
ARC
8
DEFAULT_255_2_778
10
8.9585853
20
13.4274958
40
17.2951544
50
242.9840207
51
244.1079563
0
ARC
8
DEFAULT_255_2_778
10
9.373621
20
14.2468802
40
18.2136529
50
242.8359601
51
242.9917261
0
LINE
8
DEFAULT_255_2_778
10
1.0583669
20
5.1983372
11
15.8750669
21
5.1983372
0
LINE
8
DEFAULT_255_2_778
10
15.8750669
20
5.1983372
11
15.8750669
21
-2.5168628
0
LINE
8
DEFAULT_255_2_778
10
1.0583669
20
-1.9578628
11
1.0583669
21
5.1983372
0
ARC
8
DEFAULT_255_2_778
10
9.1131389
20
-17.6856089
40
15.9111953
50
66.938456
51
68.067189
0
ARC
8
DEFAULT_255_2_778
10
9.5297919
20
-16.6514394
40
14.7962486
50
68.0680205
51
69.1685485
0
ARC
8
DEFAULT_255_2_778
10
9.8708271
20
-15.7556556
40
13.8377428
50
69.1693069
51
70.2386672
0
ARC
8
DEFAULT_255_2_778
10
10.1817157
20
-14.8888101
40
12.9168344
50
70.2364366
51
71.5360096
0
ARC
8
DEFAULT_255_2_778
10
10.475527
20
-14.0082069
40
11.9885095
50
71.5350165
51
72.9672757
0
ARC
8
DEFAULT_255_2_778
10
10.7208921
20
-13.2078242
40
11.1513618
50
72.9680796
51
74.3795203
0
ARC
8
DEFAULT_255_2_778
10
10.9227902
20
-12.4850765
40
10.4009438
50
74.378591
51
75.9236311
0
ARC
8
DEFAULT_255_2_778
10
11.0906071
20
-11.8156634
40
9.710816
50
75.9234328
51
77.5490532
0
ARC
8
DEFAULT_255_2_778
10
11.2285162
20
-11.1899656
40
9.0701004
50
77.5475554
51
79.3828307
0
ARC
8
DEFAULT_255_2_778
10
11.335759
20
-10.6180269
40
8.4881941
50
79.3830294
51
81.2960036
0
ARC
8
DEFAULT_255_2_778
10
11.4136887
20
-10.108166
40
7.972412
50
81.2951057
51
83.4161845
0
ARC
8
DEFAULT_255_2_778
10
11.4652045
20
-9.6621948
40
7.5234754
50
83.4165086
51
85.65427
0
ARC
8
DEFAULT_255_2_778
10
11.4922794
20
-9.3092273
40
7.1694711
50
85.6562765
51
87.8196751
0
ARC
8
DEFAULT_255_2_778
10
11.5023721
20
-9.0481718
40
6.9082206
50
87.8209495
51
89.9944718
0
ARC
8
DEFAULT_255_2_778
10
11.5021753
20
-8.8423331
40
6.7023818
50
89.9926202
51
93.029756
0
ARC
8
DEFAULT_255_2_778
10
11.4976503
20
-8.7468105
40
6.6067536
50
93.0343535
51
95.8548483
0
ARC
8
DEFAULT_255_2_778
10
11.5060303
20
-8.821226
40
6.6816359
50
95.8612384
51
99.1173745
0
ARC
8
DEFAULT_255_2_778
10
11.5614162
20
-9.1585198
40
7.0234447
50
99.127486
51
102.4054899
0
ARC
8
DEFAULT_255_2_778
10
11.742968
20
-9.9709725
40
7.8559311
50
102.4257256
51
105.7857851
0
ARC
8
DEFAULT_255_2_778
10
12.3333364
20
-12.0285908
40
9.9965555
50
105.8336167
51
109.1328061
0
ARC
8
DEFAULT_255_2_778
10
15.1739275
20
-20.1137409
40
18.5661529
50
109.2368086
51
111.5600383
0
ARC
8
DEFAULT_255_2_778
10
34.2927019
20
-69.127658
40
71.176777
50
111.3746145
51
111.5746812
0
ARC
8
DEFAULT_255_2_778
10
-74.4545008
20
205.9877638
40
224.6516358
50
291.5155822
51
291.5656465
0
ARC
8
DEFAULT_255_2_778
10
1.3060793
20
13.4566723
40
17.7514855
50
288.5377451
51
291.9357483
0
ARC
8
DEFAULT_255_2_778
10
4.3029028
20
4.6623259
40
8.4607823
50
284.120755
51
288.2306305
0
ARC
8
DEFAULT_255_2_778
10
4.7157681
20
3.0517002
40
6.7981027
50
280.1754329
51
284.0579513
0
ARC
8
DEFAULT_255_2_778
10
4.823032
20
2.4680967
40
6.2047293
50
276.5379195
51
280.1525705
0
ARC
8
DEFAULT_255_2_778
10
4.8462446
20
2.2755984
40
6.0108401
50
273.3167484
51
276.5270183
0
ARC
8
DEFAULT_255_2_778
10
4.8459064
20
2.2921029
40
6.0273366
50
269.9943853
51
273.3108809
0
ARC
8
DEFAULT_255_2_778
10
4.8462737
20
2.4632446
40
6.1984784
50
266.966755
51
269.9911448
0
ARC
8
DEFAULT_255_2_778
10
4.8614786
20
2.7480672
40
6.4837066
50
264.2396225
51
266.9657645
0
ARC
8
DEFAULT_255_2_778
10
4.8984992
20
3.1154778
40
6.8529774
50
261.808942
51
264.2399797
0
ARC
8
DEFAULT_255_2_778
10
4.959885
20
3.5428615
40
7.284747
50
259.6569233
51
261.809978
0
ARC
8
DEFAULT_255_2_778
10
5.0532201
20
4.0526034
40
7.8029633
50
257.4441003
51
259.6547323
0
ARC
8
DEFAULT_255_2_778
10
5.1887557
20
4.6616255
40
8.4268846
50
255.409011
51
257.4447963
0
ARC
8
DEFAULT_255_2_778
10
5.3639805
20
5.3355187
40
9.123186
50
253.5659916
51
255.4102143
0
ARC
8
DEFAULT_255_2_778
10
5.5697434
20
6.0347255
40
9.85204
50
252.0164336
51
253.5686464
0
ARC
8
DEFAULT_255_2_778
10
5.8193858
20
6.8026495
40
10.6595229
50
250.3846553
51
252.0145303
0
ARC
8
DEFAULT_255_2_778
10
6.1403955
20
7.7034191
40
11.6157829
50
248.824313
51
250.3847099
0
ARC
8
DEFAULT_255_2_778
10
6.5214862
20
8.6878268
40
12.6713816
50
247.3956318
51
248.8253901
0
ARC
8
DEFAULT_255_2_778
10
6.941862
20
9.6989084
40
13.7663707
50
246.1778491
51
247.3978882
0
ARC
8
DEFAULT_255_2_778
10
7.341025
20
10.6052917
40
14.7567551
50
245.3007918
51
246.181466
0
ARC
8
DEFAULT_255_2_778
10
7.808164
20
11.6183168
40
15.8722987
50
244.1075277
51
245.2968024
0
ARC
8
DEFAULT_255_2_778
10
8.4293853
20
12.8983958
40
17.2951544
50
242.9840207
51
244.1079563
0
ARC
8
DEFAULT_255_2_778
10
8.844421
20
13.7177802
40
18.2136529
50
242.8359601
51
242.9917261
0
LINE
8
DEFAULT_255_2_778
10
0.5291669
20
4.6692372
11
15.3458669
21
4.6692372
0
LINE
8
DEFAULT_255_2_778
10
15.3458669
20
4.6692372
11
15.3458669
21
-3.0459628
0
LINE
8
DEFAULT_255_2_778
10
0.5291669
20
-2.4869628
11
0.5291669
21
4.6692372
0
ENDSEC
0
EOF