0
SECTION
2
HEADER
9
$MEASUREMENT
70
1
0
ENDSEC
0
SECTION
2
TABLES
0
TABLE
2
LTYPE
0
LTYPE
72
65
70
64
2
CONTINUOUS
3
______
73
0
40
0
0
ENDTAB
0
TABLE
2
LAYER
0
LAYER
2
DEFAULT_255_2_778
70
0
62
255
6
CONTINUOUS
0
ENDTAB
0
ENDSEC
0
SECTION
2
ENTITIES
0
LINE
8
DEFAULT_255_2_778
10
5.5138751
20
1.0176
11
7.5312751
21
1.0176
0
LINE
8
DEFAULT_255_2_778
10
7.5312751
20
1.0176
11
11.0700751
21
1.0176
0
LINE
8
DEFAULT_255_2_778
10
5.4147
20
1.6790583
11
5.4147
21
0.3561583
0
LINE
8
DEFAULT_255_2_778
10
10.9709
20
1.6790583
11
10.9709
21
0.3561583
0
LINE
8
DEFAULT_255_2_778
10
5.4147708
20
1.0176
11
4.7532708
21
1.0176
0
LINE
8
DEFAULT_255_2_778
10
10.9709708
20
1.0176
11
11.6324708
21
1.0176
0
ARC
8
DEFAULT_255_2_778
10
5.5981477
20
-2.7403356
40
1.6208652
50
245.9498483
51
254.2747112
0
ARC
8
DEFAULT_255_2_778
10
5.2536818
20
-3.4980579
40
0.7885603
50
231.47784
51
246.3686045
0
ARC
8
DEFAULT_255_2_778
10
5.0838186
20
-3.7255171
40
0.504886
50
227.2114386
51
230.4825416
0
ARC
8
DEFAULT_255_2_778
10
5.0020359
20
-3.8037929
40
0.3919473
50
178.9682741
51
228.2121275
0
ARC
8
DEFAULT_255_2_778
10
5.0237575
20
-3.7900798
40
0.4136588
50
127.8474976
51
180.9219167
0
ARC
8
DEFAULT_255_2_778
10
5.1375698
20
-3.9238707
40
0.5891887
50
94.7000084
51
128.6043268
0
ARC
8
DEFAULT_255_2_778
10
5.1838682
20
-4.2233791
40
0.8917452
50
89.8917986
51
96.0880622
0
ARC
8
DEFAULT_255_2_778
10
5.1978609
20
-4.0214038
40
0.6898782
50
64.3258644
51
91.022318
0
ARC
8
DEFAULT_255_2_778
10
5.2746243
20
-3.8635469
40
0.5143487
50
32.4936719
51
64.4141931
0
ARC
8
DEFAULT_255_2_778
10
5.2997601
20
-3.8455854
40
0.4835017
50
359.6385569
51
32.2985485
0
ARC
8
DEFAULT_255_2_778
10
5.247979
20
-3.8323374
40
0.3114
50
356.9998831
51
46.7734348
0
ARC
8
DEFAULT_255_2_778
10
5.2285125
20
-3.8785442
40
0.3588261
50
49.5628059
51
86.2075889
0
ARC
8
DEFAULT_255_2_778
10
5.187272
20
-4.1452077
40
0.6280736
50
84.062152
51
90.1295188
0
ARC
8
DEFAULT_255_2_778
10
5.1730968
20
-4.0005437
40
0.4835765
50
88.4885207
51
111.3731217
0
ARC
8
DEFAULT_255_2_778
10
5.1099884
20
-3.8209795
40
0.2934382
50
112.67601
51
128.2177798
0
ARC
8
DEFAULT_255_2_778
10
5.0807188
20
-3.7822831
40
0.2449299
50
128.4385163
51
182.65658
0
ARC
8
DEFAULT_255_2_778
10
5.0559392
20
-3.7939666
40
0.2198873
50
179.9137006
51
233.1122986
0
ARC
8
DEFAULT_255_2_778
10
5.2412052
20
-3.5601602
40
0.5181537
50
232.2457559
51
247.4534137
0
ARC
8
DEFAULT_255_2_778
10
5.5841898
20
-2.7739182
40
1.3758989
50
246.816383
51
254.482488
0
ARC
8
DEFAULT_255_2_778
10
5.8038976
20
-2.0518553
40
2.1305012
50
253.9843237
51
254.1677977
0
ARC
8
DEFAULT_255_2_778
10
4.7297308
20
-5.8862343
40
1.8515187
50
67.7424935
51
74.5602185
0
ARC
8
DEFAULT_255_2_778
10
5.0784189
20
-5.0334029
40
0.9301585
50
59.3324137
51
67.7228311
0
ARC
8
DEFAULT_255_2_778
10
5.3033463
20
-4.6728375
40
0.5053862
50
33.3643878
51
60.4163648
0
ARC
8
DEFAULT_255_2_778
10
5.3996796
20
-4.5982518
40
0.3840233
50
30.7965223
51
31.9746847
0
ARC
8
DEFAULT_255_2_778
10
5.3566566
20
-4.6172143
40
0.4307266
50
358.5870215
51
30.0331196
0
ARC
8
DEFAULT_255_2_778
10
5.388091
20
-4.6398069
40
0.3993406
50
306.7367195
51
1.7178687
0
ARC
8
DEFAULT_255_2_778
10
5.2693543
20
-4.482346
40
0.5965504
50
277.5479703
51
306.8300081
0
ARC
8
DEFAULT_255_2_778
10
5.2020134
20
-4.115806
40
0.9689387
50
269.7480207
51
278.6484964
0
ARC
8
DEFAULT_255_2_778
10
5.1917531
20
-4.2930778
40
0.7916803
50
246.1824359
51
270.4341722
0
ARC
8
DEFAULT_255_2_778
10
5.0843165
20
-4.5096566
40
0.5502672
50
215.9665332
51
247.3098294
0
ARC
8
DEFAULT_255_2_778
10
5.0095448
20
-4.5729558
40
0.4526326
50
179.2378993
51
215.0402248
0
ARC
8
DEFAULT_255_2_778
10
5.0754686
20
-4.5789336
40
0.294361
50
177.6639669
51
232.0766161
0
ARC
8
DEFAULT_255_2_778
10
5.1566781
20
-4.4618282
40
0.4367214
50
233.1148341
51
266.3875691
0
ARC
8
DEFAULT_255_2_778
10
5.1963065
20
-4.1846954
40
0.7161412
50
264.6200829
51
270.099663
0
ARC
8
DEFAULT_255_2_778
10
5.2099671
20
-4.3403318
40
0.5606411
50
268.7311309
51
287.8985088
0
ARC
8
DEFAULT_255_2_778
10
5.2844059
20
-4.5851926
40
0.3047855
50
288.7289487
51
307.1464902
0
ARC
8
DEFAULT_255_2_778
10
5.3265761
20
-4.6392332
40
0.2362475
50
306.9085852
51
2.1827073
0
ARC
8
DEFAULT_255_2_778
10
5.3305147
20
-4.6180548
40
0.2324569
50
356.9963586
51
51.4591321
0
ARC
8
DEFAULT_255_2_778
10
5.158843
20
-4.8646586
40
0.5326579
50
53.5438588
51
67.4635994
0
ARC
8
DEFAULT_255_2_778
10
4.7622216
20
-5.7692305
40
1.5202933
50
66.7234612
51
73.1263279
0
ARC
8
DEFAULT_255_2_778
10
4.4541728
20
-6.7227602
40
2.5222502
50
72.7171526
51
73.7693888
0
ARC
8
DEFAULT_255_2_778
10
7.5478578
20
-4.5391124
40
0.5173897
50
290.6893674
51
324.8023173
0
ARC
8
DEFAULT_255_2_778
10
7.4033923
20
-4.1701442
40
0.9136154
50
271.9823945
51
290.9898879
0
ARC
8
DEFAULT_255_2_778
10
7.3724613
20
-3.7998982
40
1.2848372
50
269.9728365
51
272.7897795
0
ARC
8
DEFAULT_255_2_778
10
7.3593306
20
-4.393023
40
0.6918258
50
239.1292067
51
271.0370722
0
ARC
8
DEFAULT_255_2_778
10
7.3462231
20
-4.4321124
40
0.6516082
50
205.1010844
51
238.3548406
0
ARC
8
DEFAULT_255_2_778
10
7.600913
20
-4.3107116
40
0.9337476
50
182.5583041
51
205.2171883
0
ARC
8
DEFAULT_255_2_778
10
7.9215153
20
-4.2780399
40
1.2556225
50
180.5565058
51
183.3946964
0
ARC
8
DEFAULT_255_2_778
10
7.9298337
20
-4.1288186
40
1.2639454
50
167.3492579
51
180.5764748
0
ARC
8
DEFAULT_255_2_778
10
7.4127231
20
-4.0060845
40
0.7325378
50
141.2664037
51
167.8579332
0
ARC
8
DEFAULT_255_2_778
10
7.3240455
20
-3.9473857
40
0.6267109
50
139.9154232
51
140.3798596
0
ARC
8
DEFAULT_255_2_778
10
7.2971094
20
-3.9288755
40
0.5941918
50
93.3069549
51
139.6085374
0
ARC
8
DEFAULT_255_2_778
10
7.3449608
20
-4.2358736
40
0.903939
50
89.9244873
51
95.2128072
0
ARC
8
DEFAULT_255_2_778
10
7.3594238
20
-4.0862432
40
0.7544245
50
69.9464306
51
91.0079801
0
ARC
8
DEFAULT_255_2_778
10
7.4279422
20
-3.878918
40
0.5362163
50
49.9530018
51
69.2276026
0
ARC
8
DEFAULT_255_2_778
10
7.3997327
20
-3.8981718
40
0.5691802
50
11.2163317
51
49.0261802
0
ARC
8
DEFAULT_255_2_778
10
7.1345246
20
-3.974865
40
0.8445717
50
8.1087967
51
12.8203948
0
ARC
8
DEFAULT_255_2_778
10
7.2745929
20
-3.9300501
40
0.4784657
50
8.9352777
51
34.4327725
0
ARC
8
DEFAULT_255_2_778
10
7.3896911
20
-3.8686787
40
0.3491317
50
36.8068714
51
87.2431748
0
ARC
8
DEFAULT_255_2_778
10
7.3483157
20
-4.1192308
40
0.6020963
50
84.4560891
51
90.1011999
0
ARC
8
DEFAULT_255_2_778
10
7.332813
20
-3.9481924
40
0.4312987
50
88.0814726
51
122.357671
0
ARC
8
DEFAULT_255_2_778
10
7.3115405
20
-3.8944762
40
0.3746934
50
124.0062633
51
144.3015642
0
ARC
8
DEFAULT_255_2_778
10
7.4845368
20
-4.0074757
40
0.5811934
50
145.2065736
51
168.920456
0
ARC
8
DEFAULT_255_2_778
10
8.0373344
20
-4.128459
40
1.1470053
50
168.2962204
51
180.3634793
0
ARC
8
DEFAULT_255_2_778
10
7.8221166
20
-4.2880373
40
0.9318537
50
179.206694
51
195.6802397
0
ARC
8
DEFAULT_255_2_778
10
7.4854434
20
-4.3801767
40
0.5828119
50
195.9045493
51
217.0755864
0
ARC
8
DEFAULT_255_2_778
10
7.3582322
20
-4.4798633
40
0.4212294
50
216.6889489
51
272.0026215
0
ARC
8
DEFAULT_255_2_778
10
7.3852835
20
-4.1176333
40
0.7832993
50
269.097968
51
284.9104901
0
ARC
8
DEFAULT_255_2_778
10
7.4385793
20
-4.3541835
40
0.5410815
50
285.9022537
51
286.5549477
0
ARC
8
DEFAULT_255_2_778
10
7.5013491
20
-4.5474182
40
0.3380103
50
285.6889667
51
317.0243663
0
LINE
8
DEFAULT_255_2_778
10
5.7832522
20
-3.8486354
11
5.5589522
21
-3.8486354
0
LINE
8
DEFAULT_255_2_778
10
4.5569522
20
-4.5669354
11
4.7813522
21
-4.5669354
0
LINE
8
DEFAULT_255_2_778
10
5.1591522
20
-4.3010354
11
5.1588522
21
-4.3005354
0
LINE
8
DEFAULT_255_2_778
10
6.3124522
20
-3.3549354
11
6.3124522
21
-5.0609354
0
LINE
8
DEFAULT_255_2_778
10
6.3124522
20
-5.0609354
11
6.0891522
21
-5.0609354
0
LINE
8
DEFAULT_255_2_778
10
6.0891522
20
-5.0609354
11
6.0891522
21
-3.3549354
0
LINE
8
DEFAULT_255_2_778
10
6.0891522
20
-3.3549354
11
6.3124522
21
-3.3549354
0
LINE
8
DEFAULT_255_2_778
10
6.3124522
20
-3.3549354
11
6.3124522
21
-3.3549354
0
LINE
8
DEFAULT_255_2_778
10
7.9706522
20
-4.2116354
11
7.9706522
21
-4.8373354
0
LINE
8
DEFAULT_255_2_778
10
6.6659522
20
-4.2902354
11
6.6659522
21
-4.1415354
0
LINE
8
DEFAULT_255_2_778
10
7.9706522
20
-3.8557354
11
7.7472522
21
-3.8557354
0
LINE
8
DEFAULT_255_2_778
10
6.8903522
20
-4.1357354
11
6.8903522
21
-4.2751354
0
LINE
8
DEFAULT_255_2_778
10
7.7486522
20
-4.7778354
11
7.7486522
21
-4.3947354
0
LINE
8
DEFAULT_255_2_778
10
7.7486522
20
-4.3947354
11
7.3567522
21
-4.3947354
0
LINE
8
DEFAULT_255_2_778
10
7.3567522
20
-4.3947354
11
7.3567522
21
-4.2119354
0
LINE
8
DEFAULT_255_2_778
10
7.3567522
20
-4.2119354
11
7.9706522
21
-4.2119354
0
LINE
8
DEFAULT_255_2_778
10
7.9706522
20
-4.2119354
11
7.9706522
21
-4.2116354
0
LINE
8
DEFAULT_255_2_778
10
9.5115522
20
-3.3549354
11
9.5115522
21
-5.0609354
0
LINE
8
DEFAULT_255_2_778
10
9.5115522
20
-5.0609354
11
9.2871522
21
-5.0609354
0
LINE
8
DEFAULT_255_2_778
10
9.2871522
20
-5.0609354
11
8.4349522
21
-3.7462354
0
LINE
8
DEFAULT_255_2_778
10
8.4349522
20
-3.7462354
11
8.4349522
21
-5.0609354
0
LINE
8
DEFAULT_255_2_778
10
8.4349522
20
-5.0609354
11
8.2105522
21
-5.0609354
0
LINE
8
DEFAULT_255_2_778
10
8.2105522
20
-5.0609354
11
8.2105522
21
-3.3549354
0
LINE
8
DEFAULT_255_2_778
10
8.2105522
20
-3.3549354
11
8.4349522
21
-3.3549354
0
LINE
8
DEFAULT_255_2_778
10
8.4349522
20
-3.3549354
11
9.2895522
21
-4.6754354
0
LINE
8
DEFAULT_255_2_778
10
9.2895522
20
-4.6754354
11
9.2895522
21
-3.3549354
0
LINE
8
DEFAULT_255_2_778
10
9.2895522
20
-3.3549354
11
9.5115522
21
-3.3549354
0
LINE
8
DEFAULT_255_2_778
10
9.5115522
20
-3.3549354
11
9.5115522
21
-3.3549354
0
LINE
8
DEFAULT_255_2_778
10
10.8929522
20
-5.0609354
11
10.7312522
21
-4.6156354
0
LINE
8
DEFAULT_255_2_778
10
10.7312522
20
-4.6156354
11
10.0219522
21
-4.6156354
0
LINE
8
DEFAULT_255_2_778
10
10.0219522
20
-4.6156354
11
9.8626522
21
-5.0609354
0
LINE
8
DEFAULT_255_2_778
10
9.8626522
20
-5.0609354
11
9.6324522
21
-5.0609354
0
LINE
8
DEFAULT_255_2_778
10
9.6324522
20
-5.0609354
11
10.2788522
21
-3.3549354
0
LINE
8
DEFAULT_255_2_778
10
10.2788522
20
-3.3549354
11
10.4740522
21
-3.3549354
0
LINE
8
DEFAULT_255_2_778
10
10.4740522
20
-3.3549354
11
11.1217522
21
-5.0609354
0
LINE
8
DEFAULT_255_2_778
10
11.1217522
20
-5.0609354
11
10.8926522
21
-5.0609354
0
LINE
8
DEFAULT_255_2_778
10
10.8926522
20
-5.0609354
11
10.8929522
21
-5.0609354
0
LINE
8
DEFAULT_255_2_778
10
10.3767522
20
-3.6327354
11
10.0896522
21
-4.4307354
0
LINE
8
DEFAULT_255_2_778
10
10.0896522
20
-4.4307354
11
10.6651522
21
-4.4307354
0
LINE
8
DEFAULT_255_2_778
10
10.6651522
20
-4.4307354
11
10.3767522
21
-3.6327354
0
LINE
8
DEFAULT_255_2_778
10
10.3767522
20
-3.6327354
11
10.3767522
21
-3.6327354
0
LINE
8
DEFAULT_255_2_778
10
11.5742522
20
-3.3549354
11
11.5742522
21
-4.8770354
0
LINE
8
DEFAULT_255_2_778
10
11.5742522
20
-4.8770354
11
12.3764522
21
-4.8770354
0
LINE
8
DEFAULT_255_2_778
10
12.3764522
20
-4.8770354
11
12.3764522
21
-5.0609354
0
LINE
8
DEFAULT_255_2_778
10
12.3764522
20
-5.0609354
11
11.3498522
21
-5.0609354
0
LINE
8
DEFAULT_255_2_778
10
11.3498522
20
-5.0609354
11
11.3498522
21
-3.3549354
0
LINE
8
DEFAULT_255_2_778
10
11.3498522
20
-3.3549354
11
11.5742522
21
-3.3549354
0
LINE
8
DEFAULT_255_2_778
10
11.5742522
20
-3.3549354
11
11.5742522
21
-3.3549354
0
ENDSEC
0
EOF