0
SECTION
2
HEADER
9
$MEASUREMENT
70
1
0
ENDSEC
0
SECTION
2
TABLES
0
TABLE
2
LTYPE
0
LTYPE
72
65
70
64
2
CONTINUOUS
3
______
73
0
40
0
0
ENDTAB
0
TABLE
2
LAYER
0
LAYER
2
DEFAULT_255_2_778
70
0
62
255
6
CONTINUOUS
0
LAYER
2
DEFAULT_255_1_388
70
0
62
255
6
CONTINUOUS
0
ENDTAB
0
ENDSEC
0
SECTION
2
ENTITIES
0
LINE
8
DEFAULT_255_2_778
10
8.0605
20
7.5987103
11
8.0605
21
0.7857103
0
LINE
8
DEFAULT_255_1_388
10
9.2399318
20
3.8211382
11
9.2399318
21
3.6847
0
LINE
8
DEFAULT_255_1_388
10
9.2399318
20
3.6847
11
8.3779313
21
3.6847
0
LINE
8
DEFAULT_255_1_388
10
8.3779313
20
3.6847
11
8.3779313
21
3.8048741
0
LINE
8
DEFAULT_255_1_388
10
8.3779313
20
3.8048741
11
8.8333278
21
4.3108702
0
LINE
8
DEFAULT_255_1_388
10
8.5197909
20
4.6126607
11
8.3526315
21
4.6126607
0
LINE
8
DEFAULT_255_1_388
10
8.9318163
20
4.203346
11
8.5794262
21
3.8211382
0
LINE
8
DEFAULT_255_1_388
10
8.5794262
20
3.8211382
11
9.2399318
21
3.8211382
0
ARC
8
DEFAULT_255_1_388
10
7.3157337
20
5.6528983
40
2.0258655
50
318.5132526
51
320.7829045
0
ARC
8
DEFAULT_255_1_388
10
7.9105294
20
5.1687929
40
1.2589638
50
320.7372878
51
323.9739031
0
ARC
8
DEFAULT_255_1_388
10
8.3514226
20
4.8493554
40
0.7145141
50
323.8962701
51
328.64194
0
ARC
8
DEFAULT_255_1_388
10
8.5816484
20
4.7073545
40
0.4440242
50
328.8294576
51
331.7891185
0
ARC
8
DEFAULT_255_1_388
10
8.6938804
20
4.6494374
40
0.3177517
50
331.4254512
51
352.9365785
0
ARC
8
DEFAULT_255_1_388
10
8.7091804
20
4.646005
40
0.3021496
50
353.2257659
51
0.0166158
0
ARC
8
DEFAULT_255_1_388
10
8.7328564
20
4.6485894
40
0.2784847
50
359.486299
51
15.9343185
0
ARC
8
DEFAULT_255_1_388
10
8.7898831
20
4.6639269
40
0.2194403
50
16.1712913
51
43.5286088
0
ARC
8
DEFAULT_255_1_388
10
8.7985776
20
4.6726191
40
0.2071504
50
43.4417391
51
83.1661095
0
ARC
8
DEFAULT_255_1_388
10
8.7834937
20
4.5897316
40
0.2912888
50
82.160179
51
90.1505708
0
ARC
8
DEFAULT_255_1_388
10
8.7799418
20
4.5293279
40
0.3517025
50
89.5460741
51
102.5418361
0
ARC
8
DEFAULT_255_1_388
10
8.7526138
20
4.6452933
40
0.2325748
50
102.1738499
51
129.206123
0
ARC
8
DEFAULT_255_1_388
10
8.7437592
20
4.6592664
40
0.2161591
50
129.72865
51
135.753947
0
ARC
8
DEFAULT_255_1_388
10
8.7574074
20
4.6483728
40
0.2335433
50
136.1757367
51
166.3673339
0
ARC
8
DEFAULT_255_1_388
10
8.8706762
20
4.6180148
40
0.3507873
50
165.9090694
51
178.8684636
0
ARC
8
DEFAULT_255_1_388
10
8.9682534
20
4.6127263
40
0.4484624
50
178.4391136
51
180.0083808
0
ARC
8
DEFAULT_255_1_388
10
8.8103235
20
4.6171197
40
0.4577138
50
163.2878482
51
180.5581842
0
ARC
8
DEFAULT_255_1_388
10
8.7201276
20
4.6419393
40
0.3641968
50
133.4540601
51
162.947111
0
ARC
8
DEFAULT_255_1_388
10
8.7402158
20
4.6205789
40
0.3935189
50
100.7869829
51
133.4382499
0
ARC
8
DEFAULT_255_1_388
10
8.7793403
20
4.4463399
40
0.5720313
50
89.660664
51
101.3702276
0
ARC
8
DEFAULT_255_1_388
10
8.7868012
20
4.4532263
40
0.5651495
50
78.2172678
51
90.412935
0
ARC
8
DEFAULT_255_1_388
10
8.8267478
20
4.6359511
40
0.378122
50
55.9269121
51
78.4888449
0
ARC
8
DEFAULT_255_1_388
10
8.8488193
20
4.6740187
40
0.3342379
50
47.929771
51
55.4049217
0
ARC
8
DEFAULT_255_1_388
10
8.8602723
20
4.6856618
40
0.3179217
50
4.334829
51
48.0560205
0
ARC
8
DEFAULT_255_1_388
10
8.7370525
20
4.6665487
40
0.442341
50
359.9251713
51
5.5971671
0
ARC
8
DEFAULT_255_1_388
10
8.785268
20
4.6728728
40
0.3941854
50
337.8914027
51
358.9967534
0
ARC
8
DEFAULT_255_1_388
10
8.480025
20
4.7906295
40
0.7213271
50
326.9132501
51
338.3508308
0
ARC
8
DEFAULT_255_1_388
10
8.0316362
20
5.0780105
40
1.2538973
50
319.6471833
51
327.0959558
0
ARC
8
DEFAULT_255_1_388
10
7.600302
20
5.433805
40
1.8129975
50
317.2588228
51
319.9045804
0
LINE
8
DEFAULT_255_2_778
10
8.7219417
20
6.9703249
11
7.3990417
21
6.9703249
0
LINE
8
DEFAULT_255_2_778
10
8.7219417
20
1.4141249
11
7.3990417
21
1.4141249
0
LINE
8
DEFAULT_255_2_778
10
8.0605
20
6.9702832
11
8.0605
21
7.6317832
0
LINE
8
DEFAULT_255_2_778
10
8.0605
20
1.4140832
11
8.0605
21
0.7525832
0
ARC
8
DEFAULT_255_2_778
10
5.5981477
20
-0.7560356
40
1.6208652
50
245.9498483
51
254.2747112
0
ARC
8
DEFAULT_255_2_778
10
5.2536818
20
-1.5137579
40
0.7885603
50
231.47784
51
246.3686045
0
ARC
8
DEFAULT_255_2_778
10
5.0838186
20
-1.7412171
40
0.504886
50
227.2114386
51
230.4825416
0
ARC
8
DEFAULT_255_2_778
10
5.0020359
20
-1.8194929
40
0.3919473
50
178.9682741
51
228.2121275
0
ARC
8
DEFAULT_255_2_778
10
5.0237575
20
-1.8057798
40
0.4136588
50
127.8474976
51
180.9219167
0
ARC
8
DEFAULT_255_2_778
10
5.1375698
20
-1.9395707
40
0.5891887
50
94.7000084
51
128.6043268
0
ARC
8
DEFAULT_255_2_778
10
5.1838682
20
-2.2390791
40
0.8917452
50
89.8917986
51
96.0880622
0
ARC
8
DEFAULT_255_2_778
10
5.1978609
20
-2.0371038
40
0.6898782
50
64.3258644
51
91.022318
0
ARC
8
DEFAULT_255_2_778
10
5.2746243
20
-1.8792469
40
0.5143487
50
32.4936719
51
64.4141931
0
ARC
8
DEFAULT_255_2_778
10
5.2997601
20
-1.8612854
40
0.4835017
50
359.6385569
51
32.2985485
0
ARC
8
DEFAULT_255_2_778
10
5.247979
20
-1.8480374
40
0.3114
50
356.9998831
51
46.7734348
0
ARC
8
DEFAULT_255_2_778
10
5.2285125
20
-1.8942442
40
0.3588261
50
49.5628059
51
86.2075889
0
ARC
8
DEFAULT_255_2_778
10
5.187272
20
-2.1609077
40
0.6280736
50
84.062152
51
90.1295188
0
ARC
8
DEFAULT_255_2_778
10
5.1730968
20
-2.0162437
40
0.4835765
50
88.4885207
51
111.3731217
0
ARC
8
DEFAULT_255_2_778
10
5.1099884
20
-1.8366795
40
0.2934382
50
112.67601
51
128.2177798
0
ARC
8
DEFAULT_255_2_778
10
5.0807188
20
-1.7979831
40
0.2449299
50
128.4385163
51
182.65658
0
ARC
8
DEFAULT_255_2_778
10
5.0559392
20
-1.8096666
40
0.2198873
50
179.9137006
51
233.1122986
0
ARC
8
DEFAULT_255_2_778
10
5.2412052
20
-1.5758602
40
0.5181537
50
232.2457559
51
247.4534137
0
ARC
8
DEFAULT_255_2_778
10
5.5841898
20
-0.7896182
40
1.3758989
50
246.816383
51
254.482488
0
ARC
8
DEFAULT_255_2_778
10
5.8038976
20
-0.0675553
40
2.1305012
50
253.9843237
51
254.1677977
0
ARC
8
DEFAULT_255_2_778
10
4.7297308
20
-3.9019343
40
1.8515187
50
67.7424935
51
74.5602185
0
ARC
8
DEFAULT_255_2_778
10
5.0784189
20
-3.0491029
40
0.9301585
50
59.3324137
51
67.7228311
0
ARC
8
DEFAULT_255_2_778
10
5.3033463
20
-2.6885375
40
0.5053862
50
33.3643878
51
60.4163648
0
ARC
8
DEFAULT_255_2_778
10
5.3996796
20
-2.6139518
40
0.3840233
50
30.7965223
51
31.9746847
0
ARC
8
DEFAULT_255_2_778
10
5.3566566
20
-2.6329143
40
0.4307266
50
358.5870215
51
30.0331196
0
ARC
8
DEFAULT_255_2_778
10
5.388091
20
-2.6555069
40
0.3993406
50
306.7367195
51
1.7178687
0
ARC
8
DEFAULT_255_2_778
10
5.2693543
20
-2.498046
40
0.5965504
50
277.5479703
51
306.8300081
0
ARC
8
DEFAULT_255_2_778
10
5.2020134
20
-2.131506
40
0.9689387
50
269.7480207
51
278.6484964
0
ARC
8
DEFAULT_255_2_778
10
5.1917531
20
-2.3087778
40
0.7916803
50
246.1824359
51
270.4341722
0
ARC
8
DEFAULT_255_2_778
10
5.0843165
20
-2.5253566
40
0.5502672
50
215.9665332
51
247.3098294
0
ARC
8
DEFAULT_255_2_778
10
5.0095448
20
-2.5886558
40
0.4526326
50
179.2378993
51
215.0402248
0
ARC
8
DEFAULT_255_2_778
10
5.0754686
20
-2.5946336
40
0.294361
50
177.6639669
51
232.0766161
0
ARC
8
DEFAULT_255_2_778
10
5.1566781
20
-2.4775282
40
0.4367214
50
233.1148341
51
266.3875691
0
ARC
8
DEFAULT_255_2_778
10
5.1963065
20
-2.2003954
40
0.7161412
50
264.6200829
51
270.099663
0
ARC
8
DEFAULT_255_2_778
10
5.2099671
20
-2.3560318
40
0.5606411
50
268.7311309
51
287.8985088
0
ARC
8
DEFAULT_255_2_778
10
5.2844059
20
-2.6008926
40
0.3047855
50
288.7289487
51
307.1464902
0
ARC
8
DEFAULT_255_2_778
10
5.3265761
20
-2.6549332
40
0.2362475
50
306.9085852
51
2.1827073
0
ARC
8
DEFAULT_255_2_778
10
5.3305147
20
-2.6337548
40
0.2324569
50
356.9963586
51
51.4591321
0
ARC
8
DEFAULT_255_2_778
10
5.158843
20
-2.8803586
40
0.5326579
50
53.5438588
51
67.4635994
0
ARC
8
DEFAULT_255_2_778
10
4.7622216
20
-3.7849305
40
1.5202933
50
66.7234612
51
73.1263279
0
ARC
8
DEFAULT_255_2_778
10
4.4541728
20
-4.7384602
40
2.5222502
50
72.7171526
51
73.7693888
0
ARC
8
DEFAULT_255_2_778
10
7.5478578
20
-2.5548124
40
0.5173897
50
290.6893674
51
324.8023173
0
ARC
8
DEFAULT_255_2_778
10
7.4033923
20
-2.1858442
40
0.9136154
50
271.9823945
51
290.9898879
0
ARC
8
DEFAULT_255_2_778
10
7.3724613
20
-1.8155982
40
1.2848372
50
269.9728365
51
272.7897795
0
ARC
8
DEFAULT_255_2_778
10
7.3593306
20
-2.408723
40
0.6918258
50
239.1292067
51
271.0370722
0
ARC
8
DEFAULT_255_2_778
10
7.3462231
20
-2.4478124
40
0.6516082
50
205.1010844
51
238.3548406
0
ARC
8
DEFAULT_255_2_778
10
7.600913
20
-2.3264116
40
0.9337476
50
182.5583041
51
205.2171883
0
ARC
8
DEFAULT_255_2_778
10
7.9215153
20
-2.2937399
40
1.2556225
50
180.5565058
51
183.3946964
0
ARC
8
DEFAULT_255_2_778
10
7.9298337
20
-2.1445186
40
1.2639454
50
167.3492579
51
180.5764748
0
ARC
8
DEFAULT_255_2_778
10
7.4127231
20
-2.0217845
40
0.7325378
50
141.2664037
51
167.8579332
0
ARC
8
DEFAULT_255_2_778
10
7.3240455
20
-1.9630857
40
0.6267109
50
139.9154232
51
140.3798596
0
ARC
8
DEFAULT_255_2_778
10
7.2971094
20
-1.9445755
40
0.5941918
50
93.3069549
51
139.6085374
0
ARC
8
DEFAULT_255_2_778
10
7.3449608
20
-2.2515736
40
0.903939
50
89.9244873
51
95.2128072
0
ARC
8
DEFAULT_255_2_778
10
7.3594238
20
-2.1019432
40
0.7544245
50
69.9464306
51
91.0079801
0
ARC
8
DEFAULT_255_2_778
10
7.4279422
20
-1.894618
40
0.5362163
50
49.9530018
51
69.2276026
0
ARC
8
DEFAULT_255_2_778
10
7.3997327
20
-1.9138718
40
0.5691802
50
11.2163317
51
49.0261802
0
ARC
8
DEFAULT_255_2_778
10
7.1345246
20
-1.990565
40
0.8445717
50
8.1087967
51
12.8203948
0
ARC
8
DEFAULT_255_2_778
10
7.2745929
20
-1.9457501
40
0.4784657
50
8.9352777
51
34.4327725
0
ARC
8
DEFAULT_255_2_778
10
7.3896911
20
-1.8843787
40
0.3491317
50
36.8068714
51
87.2431748
0
ARC
8
DEFAULT_255_2_778
10
7.3483157
20
-2.1349308
40
0.6020963
50
84.4560891
51
90.1011999
0
ARC
8
DEFAULT_255_2_778
10
7.332813
20
-1.9638924
40
0.4312987
50
88.0814726
51
122.357671
0
ARC
8
DEFAULT_255_2_778
10
7.3115405
20
-1.9101762
40
0.3746934
50
124.0062633
51
144.3015642
0
ARC
8
DEFAULT_255_2_778
10
7.4845368
20
-2.0231757
40
0.5811934
50
145.2065736
51
168.920456
0
ARC
8
DEFAULT_255_2_778
10
8.0373344
20
-2.144159
40
1.1470053
50
168.2962204
51
180.3634793
0
ARC
8
DEFAULT_255_2_778
10
7.8221166
20
-2.3037373
40
0.9318537
50
179.206694
51
195.6802397
0
ARC
8
DEFAULT_255_2_778
10
7.4854434
20
-2.3958767
40
0.5828119
50
195.9045493
51
217.0755864
0
ARC
8
DEFAULT_255_2_778
10
7.3582322
20
-2.4955633
40
0.4212294
50
216.6889489
51
272.0026215
0
ARC
8
DEFAULT_255_2_778
10
7.3852835
20
-2.1333333
40
0.7832993
50
269.097968
51
284.9104901
0
ARC
8
DEFAULT_255_2_778
10
7.4385793
20
-2.3698835
40
0.5410815
50
285.9022537
51
286.5549477
0
ARC
8
DEFAULT_255_2_778
10
7.5013491
20
-2.5631182
40
0.3380103
50
285.6889667
51
317.0243663
0
LINE
8
DEFAULT_255_2_778
10
5.7832522
20
-1.8643354
11
5.5589522
21
-1.8643354
0
LINE
8
DEFAULT_255_2_778
10
4.5569522
20
-2.5826354
11
4.7813522
21
-2.5826354
0
LINE
8
DEFAULT_255_2_778
10
5.1591522
20
-2.3167354
11
5.1588522
21
-2.3162354
0
LINE
8
DEFAULT_255_2_778
10
6.3124522
20
-1.3708354
11
6.3124522
21
-3.0769354
0
LINE
8
DEFAULT_255_2_778
10
6.3124522
20
-3.0769354
11
6.0891522
21
-3.0769354
0
LINE
8
DEFAULT_255_2_778
10
6.0891522
20
-3.0769354
11
6.0891522
21
-1.3708354
0
LINE
8
DEFAULT_255_2_778
10
6.0891522
20
-1.3708354
11
6.3124522
21
-1.3708354
0
LINE
8
DEFAULT_255_2_778
10
6.3124522
20
-1.3708354
11
6.3124522
21
-1.3708354
0
LINE
8
DEFAULT_255_2_778
10
7.9706522
20
-2.2273354
11
7.9706522
21
-2.8530354
0
LINE
8
DEFAULT_255_2_778
10
6.6659522
20
-2.3059354
11
6.6659522
21
-2.1572354
0
LINE
8
DEFAULT_255_2_778
10
7.9706522
20
-1.8714354
11
7.7472522
21
-1.8714354
0
LINE
8
DEFAULT_255_2_778
10
6.8903522
20
-2.1514354
11
6.8903522
21
-2.2908354
0
LINE
8
DEFAULT_255_2_778
10
7.7486522
20
-2.7935354
11
7.7486522
21
-2.4104354
0
LINE
8
DEFAULT_255_2_778
10
7.7486522
20
-2.4104354
11
7.3567522
21
-2.4104354
0
LINE
8
DEFAULT_255_2_778
10
7.3567522
20
-2.4104354
11
7.3567522
21
-2.2276354
0
LINE
8
DEFAULT_255_2_778
10
7.3567522
20
-2.2276354
11
7.9706522
21
-2.2276354
0
LINE
8
DEFAULT_255_2_778
10
7.9706522
20
-2.2276354
11
7.9706522
21
-2.2273354
0
LINE
8
DEFAULT_255_2_778
10
9.5115522
20
-1.3708354
11
9.5115522
21
-3.0769354
0
LINE
8
DEFAULT_255_2_778
10
9.5115522
20
-3.0769354
11
9.2871522
21
-3.0769354
0
LINE
8
DEFAULT_255_2_778
10
9.2871522
20
-3.0769354
11
8.4349522
21
-1.7622354
0
LINE
8
DEFAULT_255_2_778
10
8.4349522
20
-1.7622354
11
8.4349522
21
-3.0769354
0
LINE
8
DEFAULT_255_2_778
10
8.4349522
20
-3.0769354
11
8.2105522
21
-3.0769354
0
LINE
8
DEFAULT_255_2_778
10
8.2105522
20
-3.0769354
11
8.2105522
21
-1.3708354
0
LINE
8
DEFAULT_255_2_778
10
8.2105522
20
-1.3708354
11
8.4349522
21
-1.3708354
0
LINE
8
DEFAULT_255_2_778
10
8.4349522
20
-1.3708354
11
9.2895522
21
-2.6914354
0
LINE
8
DEFAULT_255_2_778
10
9.2895522
20
-2.6914354
11
9.2895522
21
-1.3708354
0
LINE
8
DEFAULT_255_2_778
10
9.2895522
20
-1.3708354
11
9.5115522
21
-1.3708354
0
LINE
8
DEFAULT_255_2_778
10
9.5115522
20
-1.3708354
11
9.5115522
21
-1.3708354
0
LINE
8
DEFAULT_255_2_778
10
10.8929522
20
-3.0769354
11
10.7312522
21
-2.6316354
0
LINE
8
DEFAULT_255_2_778
10
10.7312522
20
-2.6316354
11
10.0219522
21
-2.6316354
0
LINE
8
DEFAULT_255_2_778
10
10.0219522
20
-2.6316354
11
9.8626522
21
-3.0769354
0
LINE
8
DEFAULT_255_2_778
10
9.8626522
20
-3.0769354
11
9.6324522
21
-3.0769354
0
LINE
8
DEFAULT_255_2_778
10
9.6324522
20
-3.0769354
11
10.2788522
21
-1.3708354
0
LINE
8
DEFAULT_255_2_778
10
10.2788522
20
-1.3708354
11
10.4740522
21
-1.3708354
0
LINE
8
DEFAULT_255_2_778
10
10.4740522
20
-1.3708354
11
11.1217522
21
-3.0769354
0
LINE
8
DEFAULT_255_2_778
10
11.1217522
20
-3.0769354
11
10.8926522
21
-3.0769354
0
LINE
8
DEFAULT_255_2_778
10
10.8926522
20
-3.0769354
11
10.8929522
21
-3.0769354
0
LINE
8
DEFAULT_255_2_778
10
10.3767522
20
-1.6487354
11
10.0896522
21
-2.4466354
0
LINE
8
DEFAULT_255_2_778
10
10.0896522
20
-2.4466354
11
10.6651522
21
-2.4466354
0
LINE
8
DEFAULT_255_2_778
10
10.6651522
20
-2.4466354
11
10.3767522
21
-1.6487354
0
LINE
8
DEFAULT_255_2_778
10
10.3767522
20
-1.6487354
11
10.3767522
21
-1.6487354
0
LINE
8
DEFAULT_255_2_778
10
11.5742522
20
-1.3708354
11
11.5742522
21
-2.8930354
0
LINE
8
DEFAULT_255_2_778
10
11.5742522
20
-2.8930354
11
12.3764522
21
-2.8930354
0
LINE
8
DEFAULT_255_2_778
10
12.3764522
20
-2.8930354
11
12.3764522
21
-3.0769354
0
LINE
8
DEFAULT_255_2_778
10
12.3764522
20
-3.0769354
11
11.3498522
21
-3.0769354
0
LINE
8
DEFAULT_255_2_778
10
11.3498522
20
-3.0769354
11
11.3498522
21
-1.3708354
0
LINE
8
DEFAULT_255_2_778
10
11.3498522
20
-1.3708354
11
11.5742522
21
-1.3708354
0
LINE
8
DEFAULT_255_2_778
10
11.5742522
20
-1.3708354
11
11.5742522
21
-1.3708354
0
ENDSEC
0
EOF