0
SECTION
2
HEADER
9
$MEASUREMENT
70
1
0
ENDSEC
0
SECTION
2
TABLES
0
TABLE
2
LTYPE
0
LTYPE
72
65
70
64
2
CONTINUOUS
3
______
73
0
40
0
0
ENDTAB
0
TABLE
2
LAYER
0
LAYER
2
DEFAULT_255_2_778
70
0
62
255
6
CONTINUOUS
0
ENDTAB
0
ENDSEC
0
SECTION
2
ENTITIES
0
LINE
8
DEFAULT_255_2_778
10
4.7873251
20
11.3340176
11
8.4915251
21
11.3340176
0
LINE
8
DEFAULT_255_2_778
10
8.4915251
20
11.3340176
11
8.4915251
21
2.3046176
0
LINE
8
DEFAULT_255_2_778
10
8.4915251
20
2.3046176
11
11.9310251
21
2.3046176
0
LINE
8
DEFAULT_255_2_778
10
4.7874
20
10.6702719
11
4.7874
21
11.9981719
0
LINE
8
DEFAULT_255_2_778
10
4.7873959
20
11.3340374
11
4.1258959
21
11.3340374
0
LINE
8
DEFAULT_255_2_778
10
11.9310959
20
1.6407374
11
11.9310959
21
2.9687374
0
LINE
8
DEFAULT_255_2_778
10
12.5925708
20
2.3046
11
11.9310708
21
2.3046
0
ARC
8
DEFAULT_255_2_778
10
6.0291477
20
0.6993644
40
1.6208652
50
245.9498483
51
254.2747112
0
ARC
8
DEFAULT_255_2_778
10
5.6846818
20
-0.0583579
40
0.7885603
50
231.47784
51
246.3686045
0
ARC
8
DEFAULT_255_2_778
10
5.5148186
20
-0.2858171
40
0.504886
50
227.2114386
51
230.4825416
0
ARC
8
DEFAULT_255_2_778
10
5.4330359
20
-0.3640929
40
0.3919473
50
178.9682741
51
228.2121275
0
ARC
8
DEFAULT_255_2_778
10
5.4547575
20
-0.3503798
40
0.4136588
50
127.8474976
51
180.9219167
0
ARC
8
DEFAULT_255_2_778
10
5.5685698
20
-0.4841707
40
0.5891887
50
94.7000084
51
128.6043268
0
ARC
8
DEFAULT_255_2_778
10
5.6148682
20
-0.7836791
40
0.8917452
50
89.8917986
51
96.0880622
0
ARC
8
DEFAULT_255_2_778
10
5.6288609
20
-0.5817038
40
0.6898782
50
64.3258644
51
91.022318
0
ARC
8
DEFAULT_255_2_778
10
5.7056243
20
-0.4238469
40
0.5143487
50
32.4936719
51
64.4141931
0
ARC
8
DEFAULT_255_2_778
10
5.7307601
20
-0.4058854
40
0.4835017
50
359.6385569
51
32.2985485
0
ARC
8
DEFAULT_255_2_778
10
5.678979
20
-0.3926374
40
0.3114
50
356.9998831
51
46.7734348
0
ARC
8
DEFAULT_255_2_778
10
5.6595125
20
-0.4388442
40
0.3588261
50
49.5628059
51
86.2075889
0
ARC
8
DEFAULT_255_2_778
10
5.618272
20
-0.7055077
40
0.6280736
50
84.062152
51
90.1295188
0
ARC
8
DEFAULT_255_2_778
10
5.6040968
20
-0.5608437
40
0.4835765
50
88.4885207
51
111.3731217
0
ARC
8
DEFAULT_255_2_778
10
5.5409884
20
-0.3812795
40
0.2934382
50
112.67601
51
128.2177798
0
ARC
8
DEFAULT_255_2_778
10
5.5117188
20
-0.3425831
40
0.2449299
50
128.4385163
51
182.65658
0
ARC
8
DEFAULT_255_2_778
10
5.4869392
20
-0.3542666
40
0.2198873
50
179.9137006
51
233.1122986
0
ARC
8
DEFAULT_255_2_778
10
5.6722052
20
-0.1204602
40
0.5181537
50
232.2457559
51
247.4534137
0
ARC
8
DEFAULT_255_2_778
10
6.0151898
20
0.6657818
40
1.3758989
50
246.816383
51
254.482488
0
ARC
8
DEFAULT_255_2_778
10
6.2348976
20
1.3878447
40
2.1305012
50
253.9843237
51
254.1677977
0
ARC
8
DEFAULT_255_2_778
10
5.1607308
20
-2.4465343
40
1.8515187
50
67.7424935
51
74.5602185
0
ARC
8
DEFAULT_255_2_778
10
5.5094189
20
-1.5937029
40
0.9301585
50
59.3324137
51
67.7228311
0
ARC
8
DEFAULT_255_2_778
10
5.7343463
20
-1.2331375
40
0.5053862
50
33.3643878
51
60.4163648
0
ARC
8
DEFAULT_255_2_778
10
5.8306796
20
-1.1585518
40
0.3840233
50
30.7965223
51
31.9746847
0
ARC
8
DEFAULT_255_2_778
10
5.7876566
20
-1.1775143
40
0.4307266
50
358.5870215
51
30.0331196
0
ARC
8
DEFAULT_255_2_778
10
5.819091
20
-1.2001069
40
0.3993406
50
306.7367195
51
1.7178687
0
ARC
8
DEFAULT_255_2_778
10
5.7003543
20
-1.042646
40
0.5965504
50
277.5479703
51
306.8300081
0
ARC
8
DEFAULT_255_2_778
10
5.6330134
20
-0.676106
40
0.9689387
50
269.7480207
51
278.6484964
0
ARC
8
DEFAULT_255_2_778
10
5.6227531
20
-0.8533778
40
0.7916803
50
246.1824359
51
270.4341722
0
ARC
8
DEFAULT_255_2_778
10
5.5153165
20
-1.0699566
40
0.5502672
50
215.9665332
51
247.3098294
0
ARC
8
DEFAULT_255_2_778
10
5.4405448
20
-1.1332558
40
0.4526326
50
179.2378993
51
215.0402248
0
ARC
8
DEFAULT_255_2_778
10
5.5064686
20
-1.1392336
40
0.294361
50
177.6639669
51
232.0766161
0
ARC
8
DEFAULT_255_2_778
10
5.5876781
20
-1.0221282
40
0.4367214
50
233.1148341
51
266.3875691
0
ARC
8
DEFAULT_255_2_778
10
5.6273065
20
-0.7449954
40
0.7161412
50
264.6200829
51
270.099663
0
ARC
8
DEFAULT_255_2_778
10
5.6409671
20
-0.9006318
40
0.5606411
50
268.7311309
51
287.8985088
0
ARC
8
DEFAULT_255_2_778
10
5.7154059
20
-1.1454926
40
0.3047855
50
288.7289487
51
307.1464902
0
ARC
8
DEFAULT_255_2_778
10
5.7575761
20
-1.1995332
40
0.2362475
50
306.9085852
51
2.1827073
0
ARC
8
DEFAULT_255_2_778
10
5.7615147
20
-1.1783548
40
0.2324569
50
356.9963586
51
51.4591321
0
ARC
8
DEFAULT_255_2_778
10
5.589843
20
-1.4249586
40
0.5326579
50
53.5438588
51
67.4635994
0
ARC
8
DEFAULT_255_2_778
10
5.1932216
20
-2.3295305
40
1.5202933
50
66.7234612
51
73.1263279
0
ARC
8
DEFAULT_255_2_778
10
4.8851728
20
-3.2830602
40
2.5222502
50
72.7171526
51
73.7693888
0
ARC
8
DEFAULT_255_2_778
10
7.9790578
20
-1.0994124
40
0.5173897
50
290.6893674
51
324.8023173
0
ARC
8
DEFAULT_255_2_778
10
7.8348333
20
-0.7315955
40
0.9124542
50
272.0000495
51
291.0016523
0
ARC
8
DEFAULT_255_2_778
10
7.80377
20
-0.3609999
40
1.2840358
50
269.9724326
51
272.8081937
0
ARC
8
DEFAULT_255_2_778
10
7.7906306
20
-0.953323
40
0.6918258
50
239.1292067
51
271.0370722
0
ARC
8
DEFAULT_255_2_778
10
7.7768607
20
-0.9930031
40
0.6507579
50
205.0787261
51
238.377199
0
ARC
8
DEFAULT_255_2_778
10
8.0303819
20
-0.8714047
40
0.9319236
50
182.5391206
51
205.2432872
0
ARC
8
DEFAULT_255_2_778
10
8.3501509
20
-0.8388947
40
1.252953
50
180.5323228
51
183.3765255
0
ARC
8
DEFAULT_255_2_778
10
8.3611337
20
-0.6891186
40
1.2639454
50
167.3492579
51
180.5764748
0
ARC
8
DEFAULT_255_2_778
10
7.8440231
20
-0.5663845
40
0.7325378
50
141.2664037
51
167.8579332
0
ARC
8
DEFAULT_255_2_778
10
7.7553455
20
-0.5076857
40
0.6267109
50
139.9154232
51
140.3798596
0
ARC
8
DEFAULT_255_2_778
10
7.7284094
20
-0.4891755
40
0.5941918
50
93.3069549
51
139.6085374
0
ARC
8
DEFAULT_255_2_778
10
7.7762608
20
-0.7961736
40
0.903939
50
89.9244873
51
95.2128072
0
ARC
8
DEFAULT_255_2_778
10
7.7907238
20
-0.6465432
40
0.7544245
50
69.9464306
51
91.0079801
0
ARC
8
DEFAULT_255_2_778
10
7.8592422
20
-0.439218
40
0.5362163
50
49.9530018
51
69.2276026
0
ARC
8
DEFAULT_255_2_778
10
7.8307712
20
-0.4584522
40
0.569337
50
11.2112028
51
49.0050199
0
ARC
8
DEFAULT_255_2_778
10
7.5652573
20
-0.5352272
40
0.845043
50
8.1085003
51
12.8174442
0
ARC
8
DEFAULT_255_2_778
10
7.7058929
20
-0.4903501
40
0.4784657
50
8.9352777
51
34.4327725
0
ARC
8
DEFAULT_255_2_778
10
7.8209911
20
-0.4289787
40
0.3491317
50
36.8068714
51
87.2431748
0
ARC
8
DEFAULT_255_2_778
10
7.7796157
20
-0.6795308
40
0.6020963
50
84.4560891
51
90.1011999
0
ARC
8
DEFAULT_255_2_778
10
7.764113
20
-0.5084924
40
0.4312987
50
88.0814726
51
122.357671
0
ARC
8
DEFAULT_255_2_778
10
7.7428405
20
-0.4547762
40
0.3746934
50
124.0062633
51
144.3015642
0
ARC
8
DEFAULT_255_2_778
10
7.9154748
20
-0.5678303
40
0.5809274
50
145.1817735
51
168.9098241
0
ARC
8
DEFAULT_255_2_778
10
8.4675632
20
-0.6887561
40
1.1460342
50
168.2863109
51
180.3639317
0
ARC
8
DEFAULT_255_2_778
10
8.2526403
20
-0.8483356
40
0.9311775
50
179.2062229
51
195.6920301
0
ARC
8
DEFAULT_255_2_778
10
7.9164654
20
-0.9404007
40
0.5826361
50
195.9172541
51
217.0980312
0
ARC
8
DEFAULT_255_2_778
10
7.7894808
20
-1.0402617
40
0.4211294
50
216.6823948
51
271.996486
0
ARC
8
DEFAULT_255_2_778
10
7.8165237
20
-0.6774938
40
0.7837393
50
269.0955332
51
284.9064388
0
ARC
8
DEFAULT_255_2_778
10
7.869877
20
-0.9144756
40
0.5410897
50
285.9022525
51
286.5549465
0
ARC
8
DEFAULT_255_2_778
10
7.9328723
20
-1.1083445
40
0.3373469
50
285.6812342
51
317.0647761
0
LINE
8
DEFAULT_255_2_778
10
6.2142522
20
-0.4089354
11
5.9899522
21
-0.4089354
0
LINE
8
DEFAULT_255_2_778
10
4.9879522
20
-1.1272354
11
5.2123522
21
-1.1272354
0
LINE
8
DEFAULT_255_2_778
10
5.5901522
20
-0.8613354
11
5.5898522
21
-0.8608354
0
LINE
8
DEFAULT_255_2_778
10
6.7434522
20
0.0847646
11
6.7434522
21
-1.6212354
0
LINE
8
DEFAULT_255_2_778
10
6.7434522
20
-1.6212354
11
6.5201522
21
-1.6212354
0
LINE
8
DEFAULT_255_2_778
10
6.5201522
20
-1.6212354
11
6.5201522
21
0.0847646
0
LINE
8
DEFAULT_255_2_778
10
6.5201522
20
0.0847646
11
6.7434522
21
0.0847646
0
LINE
8
DEFAULT_255_2_778
10
6.7434522
20
0.0847646
11
6.7434522
21
0.0847646
0
LINE
8
DEFAULT_255_2_778
10
8.4018522
20
-0.7719354
11
8.4018522
21
-1.3976354
0
LINE
8
DEFAULT_255_2_778
10
7.0972522
20
-0.8505354
11
7.0972522
21
-0.7018354
0
LINE
8
DEFAULT_255_2_778
10
8.4018522
20
-0.4160354
11
8.1785522
21
-0.4160354
0
LINE
8
DEFAULT_255_2_778
10
7.3215522
20
-0.6960354
11
7.3215522
21
-0.8354354
0
LINE
8
DEFAULT_255_2_778
10
8.1798522
20
-1.3381354
11
8.1798522
21
-0.9550354
0
LINE
8
DEFAULT_255_2_778
10
8.1798522
20
-0.9550354
11
7.7877522
21
-0.9550354
0
LINE
8
DEFAULT_255_2_778
10
7.7877522
20
-0.9550354
11
7.7877522
21
-0.7722354
0
LINE
8
DEFAULT_255_2_778
10
7.7877522
20
-0.7722354
11
8.4016522
21
-0.7722354
0
LINE
8
DEFAULT_255_2_778
10
8.4016522
20
-0.7722354
11
8.4018522
21
-0.7719354
0
LINE
8
DEFAULT_255_2_778
10
9.9425522
20
0.0847646
11
9.9425522
21
-1.6212354
0
LINE
8
DEFAULT_255_2_778
10
9.9425522
20
-1.6212354
11
9.7181522
21
-1.6212354
0
LINE
8
DEFAULT_255_2_778
10
9.7181522
20
-1.6212354
11
8.8659522
21
-0.3065354
0
LINE
8
DEFAULT_255_2_778
10
8.8659522
20
-0.3065354
11
8.8659522
21
-1.6212354
0
LINE
8
DEFAULT_255_2_778
10
8.8659522
20
-1.6212354
11
8.6415522
21
-1.6212354
0
LINE
8
DEFAULT_255_2_778
10
8.6415522
20
-1.6212354
11
8.6415522
21
0.0847646
0
LINE
8
DEFAULT_255_2_778
10
8.6415522
20
0.0847646
11
8.8659522
21
0.0847646
0
LINE
8
DEFAULT_255_2_778
10
8.8659522
20
0.0847646
11
9.7205522
21
-1.2357354
0
LINE
8
DEFAULT_255_2_778
10
9.7205522
20
-1.2357354
11
9.7205522
21
0.0847646
0
LINE
8
DEFAULT_255_2_778
10
9.7205522
20
0.0847646
11
9.9425522
21
0.0847646
0
LINE
8
DEFAULT_255_2_778
10
9.9425522
20
0.0847646
11
9.9425522
21
0.0847646
0
LINE
8
DEFAULT_255_2_778
10
11.3239522
20
-1.6212354
11
11.1622522
21
-1.1759354
0
LINE
8
DEFAULT_255_2_778
10
11.1622522
20
-1.1759354
11
10.4529522
21
-1.1759354
0
LINE
8
DEFAULT_255_2_778
10
10.4529522
20
-1.1759354
11
10.2936522
21
-1.6212354
0
LINE
8
DEFAULT_255_2_778
10
10.2936522
20
-1.6212354
11
10.0634522
21
-1.6212354
0
LINE
8
DEFAULT_255_2_778
10
10.0634522
20
-1.6212354
11
10.7098522
21
0.0847646
0
LINE
8
DEFAULT_255_2_778
10
10.7098522
20
0.0847646
11
10.9050522
21
0.0847646
0
LINE
8
DEFAULT_255_2_778
10
10.9050522
20
0.0847646
11
11.5527522
21
-1.6212354
0
LINE
8
DEFAULT_255_2_778
10
11.5527522
20
-1.6212354
11
11.3236522
21
-1.6212354
0
LINE
8
DEFAULT_255_2_778
10
11.3236522
20
-1.6212354
11
11.3239522
21
-1.6212354
0
LINE
8
DEFAULT_255_2_778
10
10.8077522
20
-0.1930354
11
10.5206522
21
-0.9910354
0
LINE
8
DEFAULT_255_2_778
10
10.5206522
20
-0.9910354
11
11.0961522
21
-0.9910354
0
LINE
8
DEFAULT_255_2_778
10
11.0961522
20
-0.9910354
11
10.8077522
21
-0.1930354
0
LINE
8
DEFAULT_255_2_778
10
10.8077522
20
-0.1930354
11
10.8077522
21
-0.1930354
0
LINE
8
DEFAULT_255_2_778
10
12.0052522
20
0.0847646
11
12.0052522
21
-1.4373354
0
LINE
8
DEFAULT_255_2_778
10
12.0052522
20
-1.4373354
11
12.8074522
21
-1.4373354
0
LINE
8
DEFAULT_255_2_778
10
12.8074522
20
-1.4373354
11
12.8074522
21
-1.6212354
0
LINE
8
DEFAULT_255_2_778
10
12.8074522
20
-1.6212354
11
11.7808522
21
-1.6212354
0
LINE
8
DEFAULT_255_2_778
10
11.7808522
20
-1.6212354
11
11.7808522
21
0.0847646
0
LINE
8
DEFAULT_255_2_778
10
11.7808522
20
0.0847646
11
12.0052522
21
0.0847646
0
LINE
8
DEFAULT_255_2_778
10
12.0052522
20
0.0847646
11
12.0052522
21
0.0847646
0
ENDSEC
0
EOF