0
SECTION
2
HEADER
9
$MEASUREMENT
70
1
0
ENDSEC
0
SECTION
2
TABLES
0
TABLE
2
LTYPE
0
LTYPE
72
65
70
64
2
CONTINUOUS
3
______
73
0
40
0
0
ENDTAB
0
TABLE
2
LAYER
0
LAYER
2
DEFAULT_255_2_778
70
0
62
255
6
CONTINUOUS
0
LAYER
2
DEFAULT_255_1_388
70
0
62
255
6
CONTINUOUS
0
ENDTAB
0
ENDSEC
0
SECTION
2
ENTITIES
0
LINE
8
DEFAULT_255_2_778
10
5.1842751
20
13.0557665
11
5.1842751
21
2.4724665
0
LINE
8
DEFAULT_255_2_778
10
5.1842751
20
2.4724665
11
10.7404751
21
2.4724665
0
LINE
8
DEFAULT_255_1_388
10
7.8857708
20
9.5692873
11
7.1620157
21
8.5229596
0
LINE
8
DEFAULT_255_1_388
10
7.1620157
20
8.5229596
11
7.9146849
21
8.5229596
0
LINE
8
DEFAULT_255_1_388
10
7.9146849
20
8.5229596
11
7.9146849
21
8.3811
0
LINE
8
DEFAULT_255_1_388
10
7.9146849
20
8.3811
11
6.9569065
21
8.3811
0
LINE
8
DEFAULT_255_1_388
10
6.9569065
20
8.3811
11
6.9569065
21
8.5112133
0
LINE
8
DEFAULT_255_1_388
10
6.9569065
20
8.5112133
11
7.677951
21
9.5539267
0
LINE
8
DEFAULT_255_1_388
10
7.677951
20
9.5539267
11
6.9686529
21
9.5539267
0
LINE
8
DEFAULT_255_1_388
10
6.9686529
20
9.5539267
11
6.9686529
21
9.6966898
0
LINE
8
DEFAULT_255_1_388
10
6.9686529
20
9.6966898
11
7.8857708
21
9.6966898
0
LINE
8
DEFAULT_255_1_388
10
7.8857708
20
9.6966898
11
7.8857708
21
9.5692873
0
LINE
8
DEFAULT_255_2_778
10
4.5227459
20
12.5265415
11
5.8456459
21
12.5265415
0
LINE
8
DEFAULT_255_2_778
10
10.7404459
20
1.8109415
11
10.7404459
21
3.1338415
0
LINE
8
DEFAULT_255_2_778
10
5.1842459
20
12.5596415
11
5.1842459
21
13.1880415
0
LINE
8
DEFAULT_255_2_778
10
11.4019708
20
2.4724
11
10.7404708
21
2.4724
0
ARC
8
DEFAULT_255_2_778
10
5.6322477
20
1.0960644
40
1.6208652
50
245.9498483
51
254.2747112
0
ARC
8
DEFAULT_255_2_778
10
5.2877818
20
0.3383421
40
0.7885603
50
231.47784
51
246.3686045
0
ARC
8
DEFAULT_255_2_778
10
5.1179186
20
0.1108829
40
0.504886
50
227.2114386
51
230.4825416
0
ARC
8
DEFAULT_255_2_778
10
5.0361359
20
0.0326071
40
0.3919473
50
178.9682741
51
228.2121275
0
ARC
8
DEFAULT_255_2_778
10
5.0578575
20
0.0463202
40
0.4136588
50
127.8474976
51
180.9219167
0
ARC
8
DEFAULT_255_2_778
10
5.1716698
20
-0.0874707
40
0.5891887
50
94.7000084
51
128.6043268
0
ARC
8
DEFAULT_255_2_778
10
5.2179682
20
-0.3869791
40
0.8917452
50
89.8917986
51
96.0880622
0
ARC
8
DEFAULT_255_2_778
10
5.2319609
20
-0.1850038
40
0.6898782
50
64.3258644
51
91.022318
0
ARC
8
DEFAULT_255_2_778
10
5.3087243
20
-0.0271469
40
0.5143487
50
32.4936719
51
64.4141931
0
ARC
8
DEFAULT_255_2_778
10
5.3338601
20
-0.0091854
40
0.4835017
50
359.6385569
51
32.2985485
0
ARC
8
DEFAULT_255_2_778
10
5.282079
20
0.0040626
40
0.3114
50
356.9998831
51
46.7734348
0
ARC
8
DEFAULT_255_2_778
10
5.2626125
20
-0.0421442
40
0.3588261
50
49.5628059
51
86.2075889
0
ARC
8
DEFAULT_255_2_778
10
5.221372
20
-0.3088077
40
0.6280736
50
84.062152
51
90.1295188
0
ARC
8
DEFAULT_255_2_778
10
5.2071968
20
-0.1641437
40
0.4835765
50
88.4885207
51
111.3731217
0
ARC
8
DEFAULT_255_2_778
10
5.1440884
20
0.0154205
40
0.2934382
50
112.67601
51
128.2177798
0
ARC
8
DEFAULT_255_2_778
10
5.1148188
20
0.0541169
40
0.2449299
50
128.4385163
51
182.65658
0
ARC
8
DEFAULT_255_2_778
10
5.0900392
20
0.0424334
40
0.2198873
50
179.9137006
51
233.1122986
0
ARC
8
DEFAULT_255_2_778
10
5.2753052
20
0.2762398
40
0.5181537
50
232.2457559
51
247.4534137
0
ARC
8
DEFAULT_255_2_778
10
5.6182898
20
1.0624818
40
1.3758989
50
246.816383
51
254.482488
0
ARC
8
DEFAULT_255_2_778
10
5.8379976
20
1.7845447
40
2.1305012
50
253.9843237
51
254.1677977
0
ARC
8
DEFAULT_255_2_778
10
4.7638308
20
-2.0498343
40
1.8515187
50
67.7424935
51
74.5602185
0
ARC
8
DEFAULT_255_2_778
10
5.1125189
20
-1.1970029
40
0.9301585
50
59.3324137
51
67.7228311
0
ARC
8
DEFAULT_255_2_778
10
5.3374463
20
-0.8364375
40
0.5053862
50
33.3643878
51
60.4163648
0
ARC
8
DEFAULT_255_2_778
10
5.4337796
20
-0.7618518
40
0.3840233
50
30.7965223
51
31.9746847
0
ARC
8
DEFAULT_255_2_778
10
5.3907566
20
-0.7808143
40
0.4307266
50
358.5870215
51
30.0331196
0
ARC
8
DEFAULT_255_2_778
10
5.422191
20
-0.8034069
40
0.3993406
50
306.7367195
51
1.7178687
0
ARC
8
DEFAULT_255_2_778
10
5.3034543
20
-0.645946
40
0.5965504
50
277.5479703
51
306.8300081
0
ARC
8
DEFAULT_255_2_778
10
5.2361134
20
-0.279406
40
0.9689387
50
269.7480207
51
278.6484964
0
ARC
8
DEFAULT_255_2_778
10
5.2258531
20
-0.4566778
40
0.7916803
50
246.1824359
51
270.4341722
0
ARC
8
DEFAULT_255_2_778
10
5.1184165
20
-0.6732566
40
0.5502672
50
215.9665332
51
247.3098294
0
ARC
8
DEFAULT_255_2_778
10
5.0436448
20
-0.7365558
40
0.4526326
50
179.2378993
51
215.0402248
0
ARC
8
DEFAULT_255_2_778
10
5.1095686
20
-0.7425336
40
0.294361
50
177.6639669
51
232.0766161
0
ARC
8
DEFAULT_255_2_778
10
5.1907781
20
-0.6254282
40
0.4367214
50
233.1148341
51
266.3875691
0
ARC
8
DEFAULT_255_2_778
10
5.2304065
20
-0.3482954
40
0.7161412
50
264.6200829
51
270.099663
0
ARC
8
DEFAULT_255_2_778
10
5.2440671
20
-0.5039318
40
0.5606411
50
268.7311309
51
287.8985088
0
ARC
8
DEFAULT_255_2_778
10
5.3185059
20
-0.7487926
40
0.3047855
50
288.7289487
51
307.1464902
0
ARC
8
DEFAULT_255_2_778
10
5.3606761
20
-0.8028332
40
0.2362475
50
306.9085852
51
2.1827073
0
ARC
8
DEFAULT_255_2_778
10
5.3646147
20
-0.7816548
40
0.2324569
50
356.9963586
51
51.4591321
0
ARC
8
DEFAULT_255_2_778
10
5.192943
20
-1.0282586
40
0.5326579
50
53.5438588
51
67.4635994
0
ARC
8
DEFAULT_255_2_778
10
4.7963216
20
-1.9328305
40
1.5202933
50
66.7234612
51
73.1263279
0
ARC
8
DEFAULT_255_2_778
10
4.4882728
20
-2.8863602
40
2.5222502
50
72.7171526
51
73.7693888
0
ARC
8
DEFAULT_255_2_778
10
7.5821578
20
-0.7027124
40
0.5173897
50
290.6893674
51
324.8023173
0
ARC
8
DEFAULT_255_2_778
10
7.4379333
20
-0.3348955
40
0.9124542
50
272.0000495
51
291.0016523
0
ARC
8
DEFAULT_255_2_778
10
7.40687
20
0.0357001
40
1.2840358
50
269.9724326
51
272.8081937
0
ARC
8
DEFAULT_255_2_778
10
7.3937306
20
-0.556623
40
0.6918258
50
239.1292067
51
271.0370722
0
ARC
8
DEFAULT_255_2_778
10
7.3799607
20
-0.5963031
40
0.6507579
50
205.0787261
51
238.377199
0
ARC
8
DEFAULT_255_2_778
10
7.6334819
20
-0.4747047
40
0.9319236
50
182.5391206
51
205.2432872
0
ARC
8
DEFAULT_255_2_778
10
7.9532509
20
-0.4421947
40
1.252953
50
180.5323228
51
183.3765255
0
ARC
8
DEFAULT_255_2_778
10
7.9642337
20
-0.2924186
40
1.2639454
50
167.3492579
51
180.5764748
0
ARC
8
DEFAULT_255_2_778
10
7.4471231
20
-0.1696845
40
0.7325378
50
141.2664037
51
167.8579332
0
ARC
8
DEFAULT_255_2_778
10
7.3584455
20
-0.1109857
40
0.6267109
50
139.9154232
51
140.3798596
0
ARC
8
DEFAULT_255_2_778
10
7.3315094
20
-0.0924755
40
0.5941918
50
93.3069549
51
139.6085374
0
ARC
8
DEFAULT_255_2_778
10
7.3793608
20
-0.3994736
40
0.903939
50
89.9244873
51
95.2128072
0
ARC
8
DEFAULT_255_2_778
10
7.3938238
20
-0.2498432
40
0.7544245
50
69.9464306
51
91.0079801
0
ARC
8
DEFAULT_255_2_778
10
7.4623422
20
-0.042518
40
0.5362163
50
49.9530018
51
69.2276026
0
ARC
8
DEFAULT_255_2_778
10
7.4338712
20
-0.0617522
40
0.569337
50
11.2112028
51
49.0050199
0
ARC
8
DEFAULT_255_2_778
10
7.1683573
20
-0.1385272
40
0.845043
50
8.1085003
51
12.8174442
0
ARC
8
DEFAULT_255_2_778
10
7.3089929
20
-0.0936501
40
0.4784657
50
8.9352777
51
34.4327725
0
ARC
8
DEFAULT_255_2_778
10
7.4240911
20
-0.0322787
40
0.3491317
50
36.8068714
51
87.2431748
0
ARC
8
DEFAULT_255_2_778
10
7.3827157
20
-0.2828308
40
0.6020963
50
84.4560891
51
90.1011999
0
ARC
8
DEFAULT_255_2_778
10
7.367213
20
-0.1117924
40
0.4312987
50
88.0814726
51
122.357671
0
ARC
8
DEFAULT_255_2_778
10
7.3459405
20
-0.0580762
40
0.3746934
50
124.0062633
51
144.3015642
0
ARC
8
DEFAULT_255_2_778
10
7.5185748
20
-0.1711303
40
0.5809274
50
145.1817735
51
168.9098241
0
ARC
8
DEFAULT_255_2_778
10
8.0706632
20
-0.2920561
40
1.1460342
50
168.2863109
51
180.3639317
0
ARC
8
DEFAULT_255_2_778
10
7.8557403
20
-0.4516356
40
0.9311775
50
179.2062229
51
195.6920301
0
ARC
8
DEFAULT_255_2_778
10
7.5195654
20
-0.5437007
40
0.5826361
50
195.9172541
51
217.0980312
0
ARC
8
DEFAULT_255_2_778
10
7.3925808
20
-0.6435617
40
0.4211294
50
216.6823948
51
271.996486
0
ARC
8
DEFAULT_255_2_778
10
7.4196237
20
-0.2807938
40
0.7837393
50
269.0955332
51
284.9064388
0
ARC
8
DEFAULT_255_2_778
10
7.472977
20
-0.5177756
40
0.5410897
50
285.9022525
51
286.5549465
0
ARC
8
DEFAULT_255_2_778
10
7.5359723
20
-0.7116445
40
0.3373469
50
285.6812342
51
317.0647761
0
LINE
8
DEFAULT_255_2_778
10
5.8173522
20
-0.0122354
11
5.5930522
21
-0.0122354
0
LINE
8
DEFAULT_255_2_778
10
4.5910522
20
-0.7305354
11
4.8154522
21
-0.7305354
0
LINE
8
DEFAULT_255_2_778
10
5.1932522
20
-0.4646354
11
5.1929522
21
-0.4641354
0
LINE
8
DEFAULT_255_2_778
10
6.3465522
20
0.4812646
11
6.3465522
21
-1.2248354
0
LINE
8
DEFAULT_255_2_778
10
6.3465522
20
-1.2248354
11
6.1232522
21
-1.2248354
0
LINE
8
DEFAULT_255_2_778
10
6.1232522
20
-1.2248354
11
6.1232522
21
0.4812646
0
LINE
8
DEFAULT_255_2_778
10
6.1232522
20
0.4812646
11
6.3465522
21
0.4812646
0
LINE
8
DEFAULT_255_2_778
10
6.3465522
20
0.4812646
11
6.3465522
21
0.4812646
0
LINE
8
DEFAULT_255_2_778
10
8.0049522
20
-0.3752354
11
8.0049522
21
-1.0009354
0
LINE
8
DEFAULT_255_2_778
10
6.7003522
20
-0.4538354
11
6.7003522
21
-0.3051354
0
LINE
8
DEFAULT_255_2_778
10
8.0049522
20
-0.0193354
11
7.7816522
21
-0.0193354
0
LINE
8
DEFAULT_255_2_778
10
6.9246522
20
-0.2993354
11
6.9246522
21
-0.4387354
0
LINE
8
DEFAULT_255_2_778
10
7.7829522
20
-0.9414354
11
7.7829522
21
-0.5583354
0
LINE
8
DEFAULT_255_2_778
10
7.7829522
20
-0.5583354
11
7.3908522
21
-0.5583354
0
LINE
8
DEFAULT_255_2_778
10
7.3908522
20
-0.5583354
11
7.3908522
21
-0.3755354
0
LINE
8
DEFAULT_255_2_778
10
7.3908522
20
-0.3755354
11
8.0047522
21
-0.3755354
0
LINE
8
DEFAULT_255_2_778
10
8.0047522
20
-0.3755354
11
8.0049522
21
-0.3752354
0
LINE
8
DEFAULT_255_2_778
10
9.5456522
20
0.4812646
11
9.5456522
21
-1.2248354
0
LINE
8
DEFAULT_255_2_778
10
9.5456522
20
-1.2248354
11
9.3212522
21
-1.2248354
0
LINE
8
DEFAULT_255_2_778
10
9.3212522
20
-1.2248354
11
8.4690522
21
0.0898646
0
LINE
8
DEFAULT_255_2_778
10
8.4690522
20
0.0898646
11
8.4690522
21
-1.2248354
0
LINE
8
DEFAULT_255_2_778
10
8.4690522
20
-1.2248354
11
8.2446522
21
-1.2248354
0
LINE
8
DEFAULT_255_2_778
10
8.2446522
20
-1.2248354
11
8.2446522
21
0.4812646
0
LINE
8
DEFAULT_255_2_778
10
8.2446522
20
0.4812646
11
8.4690522
21
0.4812646
0
LINE
8
DEFAULT_255_2_778
10
8.4690522
20
0.4812646
11
9.3236522
21
-0.8393354
0
LINE
8
DEFAULT_255_2_778
10
9.3236522
20
-0.8393354
11
9.3236522
21
0.4812646
0
LINE
8
DEFAULT_255_2_778
10
9.3236522
20
0.4812646
11
9.5456522
21
0.4812646
0
LINE
8
DEFAULT_255_2_778
10
9.5456522
20
0.4812646
11
9.5456522
21
0.4812646
0
LINE
8
DEFAULT_255_2_778
10
10.9270522
20
-1.2248354
11
10.7653522
21
-0.7795354
0
LINE
8
DEFAULT_255_2_778
10
10.7653522
20
-0.7795354
11
10.0560522
21
-0.7795354
0
LINE
8
DEFAULT_255_2_778
10
10.0560522
20
-0.7795354
11
9.8967522
21
-1.2248354
0
LINE
8
DEFAULT_255_2_778
10
9.8967522
20
-1.2248354
11
9.6665522
21
-1.2248354
0
LINE
8
DEFAULT_255_2_778
10
9.6665522
20
-1.2248354
11
10.3129522
21
0.4812646
0
LINE
8
DEFAULT_255_2_778
10
10.3129522
20
0.4812646
11
10.5081522
21
0.4812646
0
LINE
8
DEFAULT_255_2_778
10
10.5081522
20
0.4812646
11
11.1558522
21
-1.2248354
0
LINE
8
DEFAULT_255_2_778
10
11.1558522
20
-1.2248354
11
10.9267522
21
-1.2248354
0
LINE
8
DEFAULT_255_2_778
10
10.9267522
20
-1.2248354
11
10.9270522
21
-1.2248354
0
LINE
8
DEFAULT_255_2_778
10
10.4108522
20
0.2033646
11
10.1237522
21
-0.5945354
0
LINE
8
DEFAULT_255_2_778
10
10.1237522
20
-0.5945354
11
10.6992522
21
-0.5945354
0
LINE
8
DEFAULT_255_2_778
10
10.6992522
20
-0.5945354
11
10.4108522
21
0.2033646
0
LINE
8
DEFAULT_255_2_778
10
10.4108522
20
0.2033646
11
10.4108522
21
0.2033646
0
LINE
8
DEFAULT_255_2_778
10
11.6083522
20
0.4812646
11
11.6083522
21
-1.0409354
0
LINE
8
DEFAULT_255_2_778
10
11.6083522
20
-1.0409354
11
12.4105522
21
-1.0409354
0
LINE
8
DEFAULT_255_2_778
10
12.4105522
20
-1.0409354
11
12.4105522
21
-1.2248354
0
LINE
8
DEFAULT_255_2_778
10
12.4105522
20
-1.2248354
11
11.3839522
21
-1.2248354
0
LINE
8
DEFAULT_255_2_778
10
11.3839522
20
-1.2248354
11
11.3839522
21
0.4812646
0
LINE
8
DEFAULT_255_2_778
10
11.3839522
20
0.4812646
11
11.6083522
21
0.4812646
0
LINE
8
DEFAULT_255_2_778
10
11.6083522
20
0.4812646
11
11.6083522
21
0.4812646
0
ENDSEC
0
EOF