0
SECTION
2
HEADER
9
$MEASUREMENT
70
1
0
ENDSEC
0
SECTION
2
TABLES
0
TABLE
2
LTYPE
0
LTYPE
72
65
70
64
2
CONTINUOUS
3
______
73
0
40
0
0
ENDTAB
0
TABLE
2
LAYER
0
LAYER
2
DEFAULT_255_2_778
70
0
62
255
6
CONTINUOUS
0
LAYER
2
DEFAULT_255_1_388
70
0
62
255
6
CONTINUOUS
0
ENDTAB
0
ENDSEC
0
SECTION
2
ENTITIES
0
LINE
8
DEFAULT_255_2_778
10
8.3143
20
7.5741103
11
8.3143
21
0.7611103
0
LINE
8
DEFAULT_255_1_388
10
9.1810985
20
4.9820148
11
9.1810985
21
3.6601
0
LINE
8
DEFAULT_255_1_388
10
9.1810985
20
3.6601
11
9.0130355
21
3.6601
0
LINE
8
DEFAULT_255_1_388
10
9.0130355
20
3.6601
11
9.0130355
21
4.774195
0
LINE
8
DEFAULT_255_1_388
10
9.0130355
20
4.774195
11
8.676006
21
4.6504066
0
LINE
8
DEFAULT_255_1_388
10
8.676006
20
4.6504066
11
8.676006
21
4.8022055
0
LINE
8
DEFAULT_255_1_388
10
8.676006
20
4.8022055
11
9.1548951
21
4.9820148
0
LINE
8
DEFAULT_255_1_388
10
9.1548951
20
4.9820148
11
9.1810985
21
4.9820148
0
LINE
8
DEFAULT_255_2_778
10
8.9757417
20
6.9457249
11
7.6528417
21
6.9457249
0
LINE
8
DEFAULT_255_2_778
10
8.9757417
20
1.3895249
11
7.6528417
21
1.3895249
0
LINE
8
DEFAULT_255_2_778
10
8.3143
20
6.9456832
11
8.3143
21
7.6071832
0
LINE
8
DEFAULT_255_2_778
10
8.3143
20
1.3894832
11
8.3143
21
0.7279832
0
ARC
8
DEFAULT_255_2_778
10
6.7400836
20
-2.2076501
40
0.792081
50
72.2270494
51
90.9238395
0
ARC
8
DEFAULT_255_2_778
10
6.8217522
20
-1.940998
40
0.5132391
50
48.3540817
51
71.8225301
0
ARC
8
DEFAULT_255_2_778
10
6.8397589
20
-1.9136217
40
0.4808392
50
357.7055642
51
47.789689
0
ARC
8
DEFAULT_255_2_778
10
6.76585
20
-1.9464674
40
0.5545292
50
335.0858481
51
1.4048632
0
ARC
8
DEFAULT_255_2_778
10
6.8947662
20
-1.9967236
40
0.4165306
50
310.6868508
51
333.8852046
0
ARC
8
DEFAULT_255_2_778
10
6.8233397
20
-1.8985231
40
0.5376494
50
279.9372295
51
309.636282
0
ARC
8
DEFAULT_255_2_778
10
6.7326044
20
-1.4799238
40
0.9657787
50
269.5436672
51
280.9539321
0
ARC
8
DEFAULT_255_2_778
10
6.7400642
20
-1.7667359
40
0.4967998
50
268.5291949
51
291.0434722
0
ARC
8
DEFAULT_255_2_778
10
6.8067295
20
-1.9564314
40
0.2958762
50
292.1852802
51
311.223833
0
ARC
8
DEFAULT_255_2_778
10
6.7981269
20
-1.9610712
40
0.2982078
50
313.0547931
51
0.2624069
0
ARC
8
DEFAULT_255_2_778
10
6.5922966
20
-1.9354964
40
0.504616
50
357.2501673
51
0.0254806
0
ARC
8
DEFAULT_255_2_778
10
6.7786748
20
-1.9209258
40
0.318561
50
357.4188507
51
45.5616392
0
ARC
8
DEFAULT_255_2_778
10
6.7610428
20
-1.9595207
40
0.3587532
50
47.8672537
51
87.6805277
0
ARC
8
DEFAULT_255_2_778
10
6.7285048
20
-2.1819767
40
0.5828183
50
85.3688502
51
88.8686171
0
ARC
8
DEFAULT_255_2_778
10
8.8900836
20
-2.2076501
40
0.792081
50
72.2270494
51
90.9238395
0
ARC
8
DEFAULT_255_2_778
10
8.9717522
20
-1.940998
40
0.5132391
50
48.3540817
51
71.8225301
0
ARC
8
DEFAULT_255_2_778
10
8.9904926
20
-1.9136976
40
0.4804028
50
357.7125357
51
47.8605789
0
ARC
8
DEFAULT_255_2_778
10
8.9164529
20
-1.9464625
40
0.5542264
50
335.0707456
51
1.4051241
0
ARC
8
DEFAULT_255_2_778
10
9.0450549
20
-1.9966042
40
0.4165633
50
310.6668988
51
333.8691259
0
ARC
8
DEFAULT_255_2_778
10
8.9732816
20
-1.8981122
40
0.5381304
50
279.8596238
51
309.6295362
0
ARC
8
DEFAULT_255_2_778
10
8.8828209
20
-1.4791999
40
0.9665021
50
269.5489597
51
280.890718
0
ARC
8
DEFAULT_255_2_778
10
8.8900642
20
-1.7667359
40
0.4967998
50
268.5291949
51
291.0434722
0
ARC
8
DEFAULT_255_2_778
10
8.9567295
20
-1.9564314
40
0.2958762
50
292.1852802
51
311.223833
0
ARC
8
DEFAULT_255_2_778
10
8.9481269
20
-1.9610712
40
0.2982078
50
313.0547931
51
0.2624069
0
ARC
8
DEFAULT_255_2_778
10
8.7422966
20
-1.9354964
40
0.504616
50
357.2501673
51
0.0254806
0
ARC
8
DEFAULT_255_2_778
10
8.9286748
20
-1.9209258
40
0.318561
50
357.4188507
51
45.5616392
0
ARC
8
DEFAULT_255_2_778
10
8.9110428
20
-1.9595207
40
0.3587532
50
47.8672537
51
87.6805277
0
ARC
8
DEFAULT_255_2_778
10
8.8785048
20
-2.1819767
40
0.5828183
50
85.3688502
51
88.8686171
0
LINE
8
DEFAULT_255_2_778
10
10.8278126
20
4.961328
11
10.8278126
21
4.789628
0
LINE
8
DEFAULT_255_2_778
10
10.8278126
20
4.789628
11
10.2780126
21
4.789628
0
LINE
8
DEFAULT_255_2_778
10
10.2780126
20
4.789628
11
10.2780126
21
3.379928
0
LINE
8
DEFAULT_255_2_778
10
10.2780126
20
3.379928
11
10.0537126
21
3.379928
0
LINE
8
DEFAULT_255_2_778
10
10.0537126
20
3.379928
11
10.0537126
21
4.789628
0
LINE
8
DEFAULT_255_2_778
10
10.0537126
20
4.789628
11
9.5049126
21
4.789628
0
LINE
8
DEFAULT_255_2_778
10
9.5049126
20
4.789628
11
9.5049126
21
4.961328
0
LINE
8
DEFAULT_255_2_778
10
9.5049126
20
4.961328
11
10.8278126
21
4.961328
0
LINE
8
DEFAULT_255_2_778
10
10.8278126
20
4.961328
11
10.8278126
21
4.961328
0
LINE
8
DEFAULT_255_2_778
10
6.7249126
20
-2.445972
11
6.3262126
21
-2.445972
0
LINE
8
DEFAULT_255_2_778
10
6.3262126
20
-2.445972
11
6.3262126
21
-3.108472
0
LINE
8
DEFAULT_255_2_778
10
6.3262126
20
-3.108472
11
6.1029126
21
-3.108472
0
LINE
8
DEFAULT_255_2_778
10
6.1029126
20
-3.108472
11
6.1029126
21
-1.415672
0
LINE
8
DEFAULT_255_2_778
10
6.1029126
20
-1.415672
11
6.7273126
21
-1.415672
0
LINE
8
DEFAULT_255_2_778
10
6.7249126
20
-2.445672
11
6.7249126
21
-2.445972
0
LINE
8
DEFAULT_255_2_778
10
6.3262126
20
-1.599572
11
6.3262126
21
-2.263372
0
LINE
8
DEFAULT_255_2_778
10
6.3262126
20
-2.263372
11
6.7273126
21
-2.263372
0
LINE
8
DEFAULT_255_2_778
10
6.7400126
20
-1.599272
11
6.3262126
21
-1.599272
0
LINE
8
DEFAULT_255_2_778
10
6.3262126
20
-1.599272
11
6.3262126
21
-1.599572
0
LINE
8
DEFAULT_255_2_778
10
7.8447126
20
-1.415672
11
7.8447126
21
-3.108472
0
LINE
8
DEFAULT_255_2_778
10
7.8447126
20
-3.108472
11
7.6213126
21
-3.108472
0
LINE
8
DEFAULT_255_2_778
10
7.6213126
20
-3.108472
11
7.6213126
21
-1.415672
0
LINE
8
DEFAULT_255_2_778
10
7.6213126
20
-1.415672
11
7.8447126
21
-1.415672
0
LINE
8
DEFAULT_255_2_778
10
7.8447126
20
-1.415672
11
7.8447126
21
-1.415672
0
LINE
8
DEFAULT_255_2_778
10
8.8749126
20
-2.445972
11
8.4762126
21
-2.445972
0
LINE
8
DEFAULT_255_2_778
10
8.4762126
20
-2.445972
11
8.4762126
21
-3.108472
0
LINE
8
DEFAULT_255_2_778
10
8.4762126
20
-3.108472
11
8.2529126
21
-3.108472
0
LINE
8
DEFAULT_255_2_778
10
8.2529126
20
-3.108472
11
8.2529126
21
-1.415672
0
LINE
8
DEFAULT_255_2_778
10
8.2529126
20
-1.415672
11
8.8773126
21
-1.415672
0
LINE
8
DEFAULT_255_2_778
10
8.8752126
20
-2.445672
11
8.8749126
21
-2.445972
0
LINE
8
DEFAULT_255_2_778
10
8.4762126
20
-1.599572
11
8.4762126
21
-2.263372
0
LINE
8
DEFAULT_255_2_778
10
8.4762126
20
-2.263372
11
8.8773126
21
-2.263372
0
LINE
8
DEFAULT_255_2_778
10
8.8900126
20
-1.599272
11
8.4762126
21
-1.599272
0
LINE
8
DEFAULT_255_2_778
10
8.4762126
20
-1.599272
11
8.4762126
21
-1.599572
0
LINE
8
DEFAULT_255_2_778
10
10.7119126
20
-2.143572
11
10.7119126
21
-2.326072
0
LINE
8
DEFAULT_255_2_778
10
10.7119126
20
-2.326072
11
9.9783126
21
-2.326072
0
LINE
8
DEFAULT_255_2_778
10
9.9783126
20
-2.326072
11
9.9783126
21
-2.926172
0
LINE
8
DEFAULT_255_2_778
10
9.9783126
20
-2.926172
11
10.8305126
21
-2.926172
0
LINE
8
DEFAULT_255_2_778
10
10.8305126
20
-2.926172
11
10.8305126
21
-3.108772
0
LINE
8
DEFAULT_255_2_778
10
10.8305126
20
-3.108772
11
9.7549126
21
-3.108772
0
LINE
8
DEFAULT_255_2_778
10
9.7549126
20
-3.108772
11
9.7549126
21
-1.415972
0
LINE
8
DEFAULT_255_2_778
10
9.7549126
20
-1.415972
11
10.8188126
21
-1.415972
0
LINE
8
DEFAULT_255_2_778
10
10.8188126
20
-1.415972
11
10.8188126
21
-1.599572
0
LINE
8
DEFAULT_255_2_778
10
10.8188126
20
-1.599572
11
9.9783126
21
-1.599572
0
LINE
8
DEFAULT_255_2_778
10
9.9783126
20
-1.599572
11
9.9783126
21
-2.143772
0
LINE
8
DEFAULT_255_2_778
10
9.9783126
20
-2.143772
11
10.7119126
21
-2.143772
0
LINE
8
DEFAULT_255_2_778
10
10.7119126
20
-2.143772
11
10.7119126
21
-2.143572
0
ENDSEC
0
EOF