0
SECTION
2
HEADER
9
$MEASUREMENT
70
1
0
ENDSEC
0
SECTION
2
TABLES
0
TABLE
2
LTYPE
0
LTYPE
72
65
70
64
2
CONTINUOUS
3
______
73
0
40
0
0
ENDTAB
0
TABLE
2
LAYER
0
LAYER
2
DEFAULT_255_2_778
70
0
62
255
6
CONTINUOUS
0
LAYER
2
DEFAULT_255_2_005
70
0
62
255
6
CONTINUOUS
0
ENDTAB
0
ENDSEC
0
SECTION
2
ENTITIES
0
ARC
8
DEFAULT_255_2_778
10
5.1578896
20
5.6697134
40
0.6501964
50
89.4259247
51
179.6683382
0
ARC
8
DEFAULT_255_2_778
10
5.1709189
20
5.6697135
40
0.6501962
50
0.331653
51
90.5740878
0
ARC
8
DEFAULT_255_2_778
10
5.1709189
20
5.6772406
40
0.6501961
50
269.4259047
51
359.6683501
0
ARC
8
DEFAULT_255_2_778
10
5.1578897
20
5.6772408
40
0.6501964
50
180.3316649
51
270.5740679
0
LINE
8
DEFAULT_255_2_778
10
4.5077042
20
5.6734771
11
4.5077042
21
5.6734771
0
LINE
8
DEFAULT_255_2_778
10
6.7469001
20
6.2176667
11
13.0969001
21
6.2176667
0
LINE
8
DEFAULT_255_2_778
10
6.7469001
20
5.1593667
11
13.0969001
21
5.1593667
0
LINE
8
DEFAULT_255_2_005
10
6.0567505
20
10.2070224
11
5.6730432
21
10.2070224
0
LINE
8
DEFAULT_255_2_005
10
5.6730432
20
10.2070224
11
5.6730432
21
9.4631
0
LINE
8
DEFAULT_255_2_005
10
5.6730432
20
9.4631
11
5.4342049
21
9.4631
0
LINE
8
DEFAULT_255_2_005
10
5.4342049
20
9.4631
11
5.4342049
21
11.3633648
0
LINE
8
DEFAULT_255_2_005
10
5.4342049
20
11.3633648
11
6.0397838
21
11.3633648
0
LINE
8
DEFAULT_255_2_005
10
5.6730432
20
11.1571548
11
5.6730432
21
10.4119273
0
LINE
8
DEFAULT_255_2_005
10
5.6730432
20
10.4119273
11
6.0397838
21
10.4119273
0
LINE
8
DEFAULT_255_2_005
10
6.041089
20
11.1571548
11
5.6730432
21
11.1571548
0
ARC
8
DEFAULT_255_2_005
10
6.0458659
20
10.651111
40
0.7122798
50
76.2184663
51
90.4892448
0
ARC
8
DEFAULT_255_2_005
10
6.1003439
20
10.8635912
40
0.4929442
50
43.8020396
51
76.4849321
0
ARC
8
DEFAULT_255_2_005
10
6.0673498
20
10.8375756
40
0.5347799
50
10.3313017
51
43.3669349
0
ARC
8
DEFAULT_255_2_005
10
5.8354436
20
10.7867779
40
0.7720818
50
359.6887202
51
10.953495
0
ARC
8
DEFAULT_255_2_005
10
5.772291
20
10.7766894
40
0.8352439
50
348.9275365
51
0.4043161
0
ARC
8
DEFAULT_255_2_005
10
6.0581642
20
10.7182839
40
0.5434808
50
329.2234973
51
349.1822667
0
ARC
8
DEFAULT_255_2_005
10
6.1415352
20
10.673388
40
0.4488968
50
315.7896588
51
328.701839
0
ARC
8
DEFAULT_255_2_005
10
6.1189573
20
10.7005257
40
0.4840174
50
284.5174422
51
315.3506646
0
ARC
8
DEFAULT_255_2_005
10
6.0519382
20
10.9359791
40
0.7287766
50
271.8470439
51
284.9779213
0
ARC
8
DEFAULT_255_2_005
10
6.0383885
20
11.1331602
40
0.9263198
50
271.1358189
51
272.2916022
0
ARC
8
DEFAULT_255_2_005
10
6.0433293
20
10.8367501
40
0.4248376
50
269.5218348
51
282.9267966
0
ARC
8
DEFAULT_255_2_005
10
6.0787045
20
10.6933023
40
0.2771218
50
282.4329467
51
314.2453117
0
ARC
8
DEFAULT_255_2_005
10
6.0826047
20
10.6863224
40
0.2694084
50
314.6868735
51
318.3278894
0
ARC
8
DEFAULT_255_2_005
10
6.0503662
20
10.7108329
40
0.3098014
50
318.9059992
51
343.5103971
0
ARC
8
DEFAULT_255_2_005
10
5.8908538
20
10.7609888
40
0.4769981
50
343.1720505
51
355.8491465
0
ARC
8
DEFAULT_255_2_005
10
5.702204
20
10.7790239
40
0.6664726
50
355.476656
51
0.0816023
0
ARC
8
DEFAULT_255_2_005
10
5.8244023
20
10.783731
40
0.5442865
50
359.6044104
51
11.6987691
0
ARC
8
DEFAULT_255_2_005
10
5.9954927
20
10.820955
40
0.3692066
50
11.4257425
51
34.1664887
0
ARC
8
DEFAULT_255_2_005
10
6.0296837
20
10.8407041
40
0.3298379
50
34.6634707
51
40.3022306
0
ARC
8
DEFAULT_255_2_005
10
6.0625152
20
10.8694271
40
0.2862214
50
40.1682547
51
84.6027982
0
ARC
8
DEFAULT_255_2_005
10
6.0418864
20
10.748511
40
0.4086445
50
83.3178112
51
90.1118138
0
LINE
8
DEFAULT_255_2_005
10
7.1648033
20
11.3633648
11
7.1648033
21
9.4631
0
LINE
8
DEFAULT_255_2_005
10
7.1648033
20
9.4631
11
6.925965
21
9.4631
0
LINE
8
DEFAULT_255_2_005
10
6.925965
20
9.4631
11
6.925965
21
11.3633648
0
LINE
8
DEFAULT_255_2_005
10
6.925965
20
11.3633648
11
7.1648033
21
11.3633648
0
LINE
8
DEFAULT_255_2_005
10
8.2062946
20
10.2070224
11
7.8225873
21
10.2070224
0
LINE
8
DEFAULT_255_2_005
10
7.8225873
20
10.2070224
11
7.8225873
21
9.4631
0
LINE
8
DEFAULT_255_2_005
10
7.8225873
20
9.4631
11
7.583749
21
9.4631
0
LINE
8
DEFAULT_255_2_005
10
7.583749
20
9.4631
11
7.583749
21
11.3633648
0
LINE
8
DEFAULT_255_2_005
10
7.583749
20
11.3633648
11
8.1893279
21
11.3633648
0
LINE
8
DEFAULT_255_2_005
10
7.8225873
20
11.1571548
11
7.8225873
21
10.4119273
0
LINE
8
DEFAULT_255_2_005
10
7.8225873
20
10.4119273
11
8.1893279
21
10.4119273
0
LINE
8
DEFAULT_255_2_005
10
8.1906331
20
11.1571548
11
7.8225873
21
11.1571548
0
ARC
8
DEFAULT_255_2_005
10
8.19541
20
10.651111
40
0.7122798
50
76.2184663
51
90.4892448
0
ARC
8
DEFAULT_255_2_005
10
8.249888
20
10.8635912
40
0.4929442
50
43.8020396
51
76.4849321
0
ARC
8
DEFAULT_255_2_005
10
8.2168939
20
10.8375756
40
0.5347799
50
10.3313017
51
43.3669349
0
ARC
8
DEFAULT_255_2_005
10
7.9849877
20
10.7867779
40
0.7720818
50
359.6887202
51
10.953495
0
ARC
8
DEFAULT_255_2_005
10
7.921835
20
10.7766894
40
0.8352439
50
348.9275365
51
0.4043161
0
ARC
8
DEFAULT_255_2_005
10
8.2077083
20
10.7182839
40
0.5434808
50
329.2234973
51
349.1822667
0
ARC
8
DEFAULT_255_2_005
10
8.2910793
20
10.673388
40
0.4488968
50
315.7896588
51
328.701839
0
ARC
8
DEFAULT_255_2_005
10
8.2685014
20
10.7005257
40
0.4840174
50
284.5174422
51
315.3506646
0
ARC
8
DEFAULT_255_2_005
10
8.2014823
20
10.9359791
40
0.7287766
50
271.8470439
51
284.9779213
0
ARC
8
DEFAULT_255_2_005
10
8.1879326
20
11.1331602
40
0.9263198
50
271.1358189
51
272.2916022
0
ARC
8
DEFAULT_255_2_005
10
8.1928734
20
10.8367501
40
0.4248376
50
269.5218348
51
282.9267966
0
ARC
8
DEFAULT_255_2_005
10
8.2282486
20
10.6933023
40
0.2771218
50
282.4329467
51
314.2453117
0
ARC
8
DEFAULT_255_2_005
10
8.2321488
20
10.6863224
40
0.2694084
50
314.6868735
51
318.3278894
0
ARC
8
DEFAULT_255_2_005
10
8.1999103
20
10.7108329
40
0.3098014
50
318.9059992
51
343.5103971
0
ARC
8
DEFAULT_255_2_005
10
8.0403979
20
10.7609888
40
0.4769981
50
343.1720505
51
355.8491465
0
ARC
8
DEFAULT_255_2_005
10
7.851748
20
10.7790239
40
0.6664726
50
355.476656
51
0.0816023
0
ARC
8
DEFAULT_255_2_005
10
7.9739464
20
10.783731
40
0.5442865
50
359.6044104
51
11.6987691
0
ARC
8
DEFAULT_255_2_005
10
8.1450368
20
10.820955
40
0.3692066
50
11.4257425
51
34.1664887
0
ARC
8
DEFAULT_255_2_005
10
8.1792278
20
10.8407041
40
0.3298379
50
34.6634707
51
40.3022306
0
ARC
8
DEFAULT_255_2_005
10
8.2120593
20
10.8694271
40
0.2862214
50
40.1682547
51
84.6027982
0
ARC
8
DEFAULT_255_2_005
10
8.1914305
20
10.748511
40
0.4086445
50
83.3178112
51
90.1118138
0
LINE
8
DEFAULT_255_2_005
10
9.3143474
20
11.3633648
11
9.3143474
21
9.4631
0
LINE
8
DEFAULT_255_2_005
10
9.3143474
20
9.4631
11
9.0755091
21
9.4631
0
LINE
8
DEFAULT_255_2_005
10
9.0755091
20
9.4631
11
9.0755091
21
11.3633648
0
LINE
8
DEFAULT_255_2_005
10
9.0755091
20
11.3633648
11
9.3143474
21
11.3633648
0
LINE
8
DEFAULT_255_2_005
10
10.9744688
20
11.3633648
11
10.9744688
21
9.4631
0
LINE
8
DEFAULT_255_2_005
10
10.9744688
20
9.4631
11
10.7343255
21
9.4631
0
LINE
8
DEFAULT_255_2_005
10
10.7343255
20
9.4631
11
9.9734365
21
10.9274524
0
LINE
8
DEFAULT_255_2_005
10
9.9734365
20
10.9274524
11
9.9734365
21
9.4631
0
LINE
8
DEFAULT_255_2_005
10
9.9734365
20
9.4631
11
9.7332931
21
9.4631
0
LINE
8
DEFAULT_255_2_005
10
9.7332931
20
9.4631
11
9.7332931
21
11.3633648
0
LINE
8
DEFAULT_255_2_005
10
9.7332931
20
11.3633648
11
9.9734365
21
11.3633648
0
LINE
8
DEFAULT_255_2_005
10
9.9734365
20
11.3633648
11
10.7369357
21
9.8924868
0
LINE
8
DEFAULT_255_2_005
10
10.7369357
20
9.8924868
11
10.7369357
21
11.3633648
0
LINE
8
DEFAULT_255_2_005
10
10.7369357
20
11.3633648
11
10.9744688
21
11.3633648
0
LINE
8
DEFAULT_255_2_005
10
12.5771647
20
10.409317
11
12.5771647
21
9.699328
0
LINE
8
DEFAULT_255_2_005
10
12.5771647
20
9.699328
11
12.5354007
21
9.6471229
0
LINE
8
DEFAULT_255_2_005
10
11.3451249
20
10.2187685
11
11.3451249
21
10.5920348
0
LINE
8
DEFAULT_255_2_005
10
12.5771647
20
10.8060756
11
12.3383265
21
10.8060756
0
LINE
8
DEFAULT_255_2_005
10
11.5852683
20
10.6220527
11
11.5852683
21
10.23443
0
LINE
8
DEFAULT_255_2_005
10
12.3030881
20
9.7345664
11
12.3383265
21
9.7671946
0
LINE
8
DEFAULT_255_2_005
10
12.3383265
20
9.7671946
11
12.3383265
21
10.2057172
0
LINE
8
DEFAULT_255_2_005
10
12.3383265
20
10.2057172
11
11.9911627
21
10.2057172
0
LINE
8
DEFAULT_255_2_005
10
11.9911627
20
10.2057172
11
11.9911627
21
10.409317
0
LINE
8
DEFAULT_255_2_005
10
11.9911627
20
10.409317
11
12.5771647
21
10.409317
0
ARC
8
DEFAULT_255_2_005
10
12.0979763
20
10.0258183
40
0.5785761
50
282.8919727
51
319.1159822
0
ARC
8
DEFAULT_255_2_005
10
12.0184705
20
10.328702
40
0.8916188
50
270.2891055
51
283.5297163
0
ARC
8
DEFAULT_255_2_005
10
12.0081827
20
10.564093
40
1.1270956
50
269.9972898
51
270.7517054
0
ARC
8
DEFAULT_255_2_005
10
12.0008524
20
10.1832406
40
0.7462786
50
254.2092012
51
270.5586992
0
ARC
8
DEFAULT_255_2_005
10
11.9519246
20
10.0041756
40
0.5606592
50
220.3398327
51
254.0409093
0
ARC
8
DEFAULT_255_2_005
10
12.0464457
20
10.0807967
40
0.6823089
50
196.8292644
51
220.1061071
0
ARC
8
DEFAULT_255_2_005
10
12.3880777
20
10.1898102
40
1.0408853
50
184.6980762
51
197.1284426
0
ARC
8
DEFAULT_255_2_005
10
12.7902914
20
10.2319378
40
1.4452264
50
180.5221028
51
185.056576
0
ARC
8
DEFAULT_255_2_005
10
12.9363821
20
10.6000547
40
1.5912774
50
172.3639605
51
180.2887662
0
ARC
8
DEFAULT_255_2_005
10
12.340825
20
10.6825432
40
0.9900442
50
160.6380459
51
172.5155536
0
ARC
8
DEFAULT_255_2_005
10
11.9931281
20
10.8068709
40
0.6207962
50
141.8400363
51
160.824714
0
ARC
8
DEFAULT_255_2_005
10
11.9035835
20
10.86766
40
0.5128845
50
102.1547862
51
140.9990105
0
ARC
8
DEFAULT_255_2_005
10
11.9764503
20
10.5795418
40
0.8099549
50
89.5131855
51
102.9024539
0
ARC
8
DEFAULT_255_2_005
10
11.9892751
20
10.6045143
40
0.7849756
50
77.736637
51
90.4337968
0
ARC
8
DEFAULT_255_2_005
10
12.0480606
20
10.8599946
40
0.5228482
50
52.245078
51
78.0849644
0
ARC
8
DEFAULT_255_2_005
10
12.0706814
20
10.8963934
40
0.4802399
50
45.3551552
51
51.7199346
0
ARC
8
DEFAULT_255_2_005
10
12.0323495
20
10.8636464
40
0.5304919
50
17.9198553
51
44.8949853
0
ARC
8
DEFAULT_255_2_005
10
11.785091
20
10.7786953
40
0.7919078
50
5.2562713
51
18.2636612
0
ARC
8
DEFAULT_255_2_005
10
11.542991
20
10.7487472
40
1.0357615
50
3.1728871
51
5.6790799
0
ARC
8
DEFAULT_255_2_005
10
11.6594841
20
10.7549568
40
0.6807644
50
4.3064118
51
13.9375871
0
ARC
8
DEFAULT_255_2_005
10
11.882188
20
10.8116164
40
0.4509718
50
13.7660812
51
28.9011542
0
ARC
8
DEFAULT_255_2_005
10
11.9726854
20
10.8590819
40
0.3488121
50
29.2598153
51
40.0259616
0
ARC
8
DEFAULT_255_2_005
10
12.0369927
20
10.9099634
40
0.2668558
50
40.5403172
51
75.183734
0
ARC
8
DEFAULT_255_2_005
10
11.9942446
20
10.7660444
40
0.4169456
50
74.5620703
51
87.9338969
0
ARC
8
DEFAULT_255_2_005
10
11.9848634
20
10.6295408
40
0.5537167
50
87.4730352
51
90.0234106
0
ARC
8
DEFAULT_255_2_005
10
11.9801713
20
10.6894615
40
0.493816
50
89.4818424
51
103.1360473
0
ARC
8
DEFAULT_255_2_005
10
11.9329148
20
10.8720287
40
0.3053201
50
102.2861222
51
144.4647889
0
ARC
8
DEFAULT_255_2_005
10
12.0327467
20
10.8087717
40
0.4233751
50
145.3507903
51
161.9303206
0
ARC
8
DEFAULT_255_2_005
10
12.3391242
20
10.7042408
40
0.7470773
50
161.5970681
51
171.2339002
0
ARC
8
DEFAULT_255_2_005
10
12.8325452
20
10.6253596
40
1.2467591
50
171.1069735
51
177.7090628
0
ARC
8
DEFAULT_255_2_005
10
13.2957155
20
10.5999059
40
1.7105907
50
177.4773226
51
179.258177
0
ARC
8
DEFAULT_255_2_005
10
12.7922152
20
10.2285294
40
1.2069614
50
179.7198893
51
187.6183281
0
ARC
8
DEFAULT_255_2_005
10
12.3513016
20
10.1676212
40
0.7618672
50
187.4741478
51
199.2488477
0
ARC
8
DEFAULT_255_2_005
10
12.1027295
20
10.0806451
40
0.4985179
50
199.2297077
51
215.106325
0
ARC
8
DEFAULT_255_2_005
10
11.9846276
20
9.9948619
40
0.352574
50
214.7393606
51
264.8438055
0
ARC
8
DEFAULT_255_2_005
10
12.0085543
20
10.1380855
40
0.497489
50
263.5816515
51
270.1013785
0
ARC
8
DEFAULT_255_2_005
10
12.0134432
20
10.2759052
40
0.6353206
50
269.6384811
51
279.7568735
0
ARC
8
DEFAULT_255_2_005
10
12.0539815
20
10.0491977
40
0.4050254
50
279.5400968
51
295.992035
0
ARC
8
DEFAULT_255_2_005
10
12.0977353
20
9.9554779
40
0.301615
50
296.3233392
51
312.9096179
0
ARC
8
DEFAULT_255_2_778
10
13.2822926
20
7.1564478
40
0.7407663
50
359.0178058
51
16.6744529
0
ARC
8
DEFAULT_255_2_778
10
13.5974362
20
7.2510687
40
0.4117244
50
16.6442594
51
83.1171234
0
ARC
8
DEFAULT_255_2_778
10
13.4994961
20
6.8348315
40
0.8380382
50
79.8779674
51
90.3928446
0
ARC
8
DEFAULT_255_2_778
10
5.5437629
20
6.0145578
40
1.6583391
50
89.5685609
51
100.6422984
0
ARC
8
DEFAULT_255_2_778
10
5.4191096
20
6.6487882
40
1.0120115
50
100.3376239
51
119.5724294
0
ARC
8
DEFAULT_255_2_778
10
5.3067334
20
6.8621631
40
0.7710093
50
120.1348532
51
134.8947228
0
ARC
8
DEFAULT_255_2_778
10
5.3488775
20
4.5696096
40
0.8395309
50
225.7013254
51
253.8369393
0
ARC
8
DEFAULT_255_2_778
10
5.5069616
20
5.0744819
40
1.3685002
50
253.3641123
51
266.8276386
0
ARC
8
DEFAULT_255_2_778
10
5.5543731
20
5.6354772
40
1.9313282
50
266.3442626
51
270.0556852
0
ARC
8
DEFAULT_255_2_778
10
13.5064511
20
4.4450773
40
0.7410363
50
269.0179339
51
286.6713971
0
ARC
8
DEFAULT_255_2_778
10
13.6011483
20
4.1296982
40
0.4117469
50
286.6379991
51
353.1126757
0
ARC
8
DEFAULT_255_2_778
10
13.1850821
20
4.227604
40
0.8378878
50
349.8761221
51
0.3929053
0
LINE
8
DEFAULT_255_2_778
10
13.4937502
20
7.6728498
11
5.5562502
21
7.6728498
0
LINE
8
DEFAULT_255_2_778
10
4.7625502
20
7.4083498
11
3.7041502
21
6.3499498
0
LINE
8
DEFAULT_255_2_778
10
3.7041502
20
6.3499498
11
3.7041502
21
5.0270498
0
LINE
8
DEFAULT_255_2_778
10
3.7041502
20
5.0270498
11
4.7625502
21
3.9687498
0
LINE
8
DEFAULT_255_2_778
10
5.5562502
20
3.7041498
11
13.4937502
21
3.7041498
0
LINE
8
DEFAULT_255_2_778
10
14.0229502
20
4.2333498
11
14.0229502
21
7.1437498
0
LINE
8
DEFAULT_255_2_778
10
2.9104502
20
12.9645498
11
2.9104502
21
-1.3229502
0
ENDSEC
0
EOF