0
SECTION
2
HEADER
9
$MEASUREMENT
70
1
0
ENDSEC
0
SECTION
2
TABLES
0
TABLE
2
LTYPE
0
LTYPE
72
65
70
64
2
CONTINUOUS
3
______
73
0
40
0
0
ENDTAB
0
TABLE
2
LAYER
0
LAYER
2
DEFAULT_255_2_778
70
0
62
255
6
CONTINUOUS
0
LAYER
2
DEFAULT_255_2_005
70
0
62
255
6
CONTINUOUS
0
ENDTAB
0
ENDSEC
0
SECTION
2
ENTITIES
0
ARC
8
DEFAULT_255_2_778
10
5.1161896
20
5.6697134
40
0.6501964
50
89.4259247
51
179.6683382
0
ARC
8
DEFAULT_255_2_778
10
5.1292189
20
5.6697135
40
0.6501962
50
0.331653
51
90.5740878
0
ARC
8
DEFAULT_255_2_778
10
5.1292189
20
5.6772406
40
0.6501961
50
269.4259047
51
359.6683501
0
ARC
8
DEFAULT_255_2_778
10
5.1161897
20
5.6772408
40
0.6501964
50
180.3316649
51
270.5740679
0
LINE
8
DEFAULT_255_2_778
10
4.4660042
20
5.6734771
11
4.4660042
21
5.6734771
0
LINE
8
DEFAULT_255_2_778
10
6.7052001
20
6.2176667
11
13.0552001
21
6.2176667
0
LINE
8
DEFAULT_255_2_778
10
6.7052001
20
5.1593667
11
13.0552001
21
5.1593667
0
LINE
8
DEFAULT_255_2_005
10
6.169209
20
10.8139064
11
5.9290657
21
10.8139064
0
LINE
8
DEFAULT_255_2_005
10
5.0050358
20
10.0138636
11
5.2451792
21
10.0138636
0
ARC
8
DEFAULT_255_2_005
10
5.5090458
20
9.9464823
40
0.4200313
50
359.5777274
51
11.4019843
0
ARC
8
DEFAULT_255_2_005
10
5.6531169
20
9.9767912
40
0.2728144
50
11.1438467
51
31.8837747
0
ARC
8
DEFAULT_255_2_005
10
5.6917135
20
9.9982481
40
0.2287181
50
32.4266663
51
45.4862607
0
ARC
8
DEFAULT_255_2_005
10
5.5963837
20
9.8948731
40
0.3692942
50
46.1838566
51
57.3876958
0
ARC
8
DEFAULT_255_2_005
10
5.4195136
20
9.6248092
40
0.6921119
50
57.1035222
51
63.6437124
0
ARC
8
DEFAULT_255_2_005
10
5.1998783
20
9.1847842
40
1.1839049
50
63.5733155
51
68.3351637
0
ARC
8
DEFAULT_255_2_005
10
4.9867389
20
8.6597989
40
1.7504962
50
68.1953728
51
70.3956373
0
ARC
8
DEFAULT_255_2_005
10
6.2229574
20
12.1375634
40
1.9404503
50
246.7730247
51
250.4639538
0
ARC
8
DEFAULT_255_2_005
10
5.9507752
20
11.5071238
40
1.2537672
50
241.5773628
51
246.841225
0
ARC
8
DEFAULT_255_2_005
10
5.712376
20
11.0695111
40
0.7554341
50
234.0692541
51
241.681384
0
ARC
8
DEFAULT_255_2_005
10
5.6095068
20
10.921398
40
0.5751499
50
233.4155757
51
233.7088367
0
ARC
8
DEFAULT_255_2_005
10
5.6240998
20
10.9462436
40
0.6038058
50
221.7638659
51
233.7088152
0
ARC
8
DEFAULT_255_2_005
10
5.5318273
20
10.8629226
40
0.4794836
50
207.7494795
51
221.6814687
0
ARC
8
DEFAULT_255_2_005
10
5.5198908
20
10.8523084
40
0.4639937
50
186.680224
51
207.2758212
0
ARC
8
DEFAULT_255_2_005
10
5.6419567
20
10.8702335
40
0.5873271
50
179.8928346
51
187.0317738
0
ARC
8
DEFAULT_255_2_005
10
5.6074342
20
10.8771777
40
0.5528344
50
160.8948743
51
180.6058654
0
ARC
8
DEFAULT_255_2_005
10
5.5367418
20
10.8962943
40
0.4798058
50
133.6801181
51
160.288933
0
ARC
8
DEFAULT_255_2_005
10
5.5591335
20
10.8760284
40
0.5099314
50
98.0832414
51
133.9270351
0
ARC
8
DEFAULT_255_2_005
10
5.5977639
20
10.6756065
40
0.7138649
50
89.8065887
51
98.891097
0
ARC
8
DEFAULT_255_2_005
10
5.6045504
20
10.7549996
40
0.6344829
50
74.2979896
51
90.3952322
0
ARC
8
DEFAULT_255_2_005
10
5.6263326
20
10.8420443
40
0.5447977
50
60.12001
51
74.0258158
0
ARC
8
DEFAULT_255_2_005
10
5.645187
20
10.8694625
40
0.5116384
50
27.5687047
51
60.4211174
0
ARC
8
DEFAULT_255_2_005
10
5.5562305
20
10.8210214
40
0.6129162
50
0.2627834
51
27.7342372
0
ARC
8
DEFAULT_255_2_005
10
5.4549565
20
10.813919
40
0.7142525
50
359.9989906
51
0.7952664
0
ARC
8
DEFAULT_255_2_005
10
5.3413773
20
10.8176833
40
0.5877005
50
359.631777
51
10.1212377
0
ARC
8
DEFAULT_255_2_005
10
5.5452037
20
10.8554624
40
0.3804095
50
9.9145256
51
26.9762398
0
ARC
8
DEFAULT_255_2_005
10
5.6220225
20
10.8922155
40
0.2952843
50
27.3822636
51
41.1901278
0
ARC
8
DEFAULT_255_2_005
10
5.6390264
20
10.9047289
40
0.2742534
50
41.5622887
51
77.8699011
0
ARC
8
DEFAULT_255_2_005
10
5.6035601
20
10.7618705
40
0.4214005
50
77.236922
51
90.4604352
0
ARC
8
DEFAULT_255_2_005
10
5.5970217
20
10.7665506
40
0.4167187
50
89.5666231
51
102.0248541
0
ARC
8
DEFAULT_255_2_005
10
5.5660373
20
10.9047718
40
0.2750795
50
101.7107266
51
125.6253412
0
ARC
8
DEFAULT_255_2_005
10
5.5507504
20
10.9302268
40
0.2454959
50
126.1857894
51
135.4861734
0
ARC
8
DEFAULT_255_2_005
10
5.5658065
20
10.9181272
40
0.264722
50
135.9033717
51
165.7601254
0
ARC
8
DEFAULT_255_2_005
10
5.6954699
20
10.8822203
40
0.3992444
50
165.3426764
51
178.6342788
0
ARC
8
DEFAULT_255_2_005
10
5.8132334
20
10.8753452
40
0.5171543
50
178.1837593
51
180.0108402
0
ARC
8
DEFAULT_255_2_005
10
5.5702205
20
10.8716959
40
0.2741644
50
179.257788
51
204.9573036
0
ARC
8
DEFAULT_255_2_005
10
5.5669866
20
10.8744323
40
0.272414
50
205.7661048
51
227.2917408
0
ARC
8
DEFAULT_255_2_005
10
5.7009771
20
11.0193464
40
0.4697806
50
227.2712182
51
238.0733188
0
ARC
8
DEFAULT_255_2_005
10
5.8646844
20
11.2786183
40
0.7764073
50
237.9382104
51
245.3110265
0
ARC
8
DEFAULT_255_2_005
10
6.0517658
20
11.6807149
40
1.2198918
50
245.2158056
51
250.3284166
0
ARC
8
DEFAULT_255_2_005
10
6.1547588
20
11.9554765
40
1.5132947
50
250.1584331
51
250.453915
0
ARC
8
DEFAULT_255_2_005
10
5.1706496
20
9.0635927
40
1.5417081
50
65.7192213
51
71.945294
0
ARC
8
DEFAULT_255_2_005
10
5.409338
20
9.5882739
40
0.9652905
50
56.8755581
51
65.8273045
0
ARC
8
DEFAULT_255_2_005
10
5.622295
20
9.9105813
40
0.5789948
50
42.8524789
51
57.0952989
0
ARC
8
DEFAULT_255_2_005
10
5.715902
20
10.0040364
40
0.4468371
50
41.6494322
51
42.2306678
0
ARC
8
DEFAULT_255_2_005
10
5.6996205
20
9.9931895
40
0.4662195
50
10.8430063
51
41.3157545
0
ARC
8
DEFAULT_255_2_005
10
5.503924
20
9.9498434
40
0.6666011
50
359.6693883
51
11.3379329
0
ARC
8
DEFAULT_255_2_005
10
5.5944201
20
9.9404758
40
0.5761206
50
343.781248
51
0.5490974
0
ARC
8
DEFAULT_255_2_005
10
5.7172075
20
9.9069577
40
0.4488629
50
312.4947504
51
343.5117741
0
ARC
8
DEFAULT_255_2_005
10
5.6820616
20
9.9467525
40
0.501948
50
283.2698463
51
312.3842779
0
ARC
8
DEFAULT_255_2_005
10
5.6209848
20
10.1838162
40
0.7467185
50
270.5069291
51
283.6558781
0
ARC
8
DEFAULT_255_2_005
10
5.6119576
20
10.3814731
40
0.9444756
50
269.9977072
51
270.9484496
0
ARC
8
DEFAULT_255_2_005
10
5.6058623
20
10.0941898
40
0.6572203
50
242.8410877
51
270.528092
0
ARC
8
DEFAULT_255_2_005
10
5.5527665
20
9.9981792
40
0.54757
50
211.3826072
51
243.1985992
0
ARC
8
DEFAULT_255_2_005
10
5.5543299
20
9.9972559
40
0.5484263
50
184.2431658
51
211.2152027
0
ARC
8
DEFAULT_255_2_005
10
5.6831422
20
10.0133394
40
0.6781067
50
179.9557121
51
184.7931175
0
ARC
8
DEFAULT_255_2_005
10
5.7507825
20
10.009932
40
0.5056186
50
179.5544775
51
192.3103781
0
ARC
8
DEFAULT_255_2_005
10
5.5838127
20
9.9715294
40
0.3343057
50
191.9812402
51
217.1743918
0
ARC
8
DEFAULT_255_2_005
10
5.5578224
20
9.9554482
40
0.3038933
50
217.7194583
51
225.2073279
0
ARC
8
DEFAULT_255_2_005
10
5.5731522
20
9.9733256
40
0.3273854
50
225.5077316
51
258.5629232
0
ARC
8
DEFAULT_255_2_005
10
5.6086632
20
10.125175
40
0.4832837
50
258.0062407
51
270.3860869
0
ARC
8
DEFAULT_255_2_005
10
5.6152438
20
10.132368
40
0.4904769
50
269.6117008
51
280.2417156
0
ARC
8
DEFAULT_255_2_005
10
5.6484001
20
9.955849
40
0.3108779
50
280.0126821
51
297.5247676
0
ARC
8
DEFAULT_255_2_005
10
5.6816253
20
9.8886481
40
0.2359344
50
297.9112003
51
315.3434128
0
ARC
8
DEFAULT_255_2_005
10
5.6568223
20
9.9101539
40
0.2687014
50
315.7987041
51
348.0066387
0
ARC
8
DEFAULT_255_2_005
10
5.5305205
20
9.9404498
40
0.398556
50
347.5193838
51
0.4222059
0
LINE
8
DEFAULT_255_2_005
10
6.7330239
20
11.3633648
11
6.7330239
21
9.4631
0
LINE
8
DEFAULT_255_2_005
10
6.7330239
20
9.4631
11
6.4941856
21
9.4631
0
LINE
8
DEFAULT_255_2_005
10
6.4941856
20
9.4631
11
6.4941856
21
11.3633648
0
LINE
8
DEFAULT_255_2_005
10
6.4941856
20
11.3633648
11
6.7330239
21
11.3633648
0
LINE
8
DEFAULT_255_2_005
10
8.3409403
20
10.409317
11
8.3409403
21
9.699328
0
LINE
8
DEFAULT_255_2_005
10
8.3409403
20
9.699328
11
8.2991762
21
9.6471229
0
LINE
8
DEFAULT_255_2_005
10
7.1089004
20
10.2187685
11
7.1089004
21
10.5920348
0
LINE
8
DEFAULT_255_2_005
10
8.3409403
20
10.8060756
11
8.1021021
21
10.8060756
0
LINE
8
DEFAULT_255_2_005
10
7.3490438
20
10.6220527
11
7.3490438
21
10.23443
0
LINE
8
DEFAULT_255_2_005
10
8.0668636
20
9.7345664
11
8.1021021
21
9.7671946
0
LINE
8
DEFAULT_255_2_005
10
8.1021021
20
9.7671946
11
8.1021021
21
10.2057172
0
LINE
8
DEFAULT_255_2_005
10
8.1021021
20
10.2057172
11
7.7549383
21
10.2057172
0
LINE
8
DEFAULT_255_2_005
10
7.7549383
20
10.2057172
11
7.7549383
21
10.409317
0
LINE
8
DEFAULT_255_2_005
10
7.7549383
20
10.409317
11
8.3409403
21
10.409317
0
ARC
8
DEFAULT_255_2_005
10
7.8617518
20
10.0258183
40
0.5785761
50
282.8919727
51
319.1159822
0
ARC
8
DEFAULT_255_2_005
10
7.7822461
20
10.328702
40
0.8916188
50
270.2891055
51
283.5297163
0
ARC
8
DEFAULT_255_2_005
10
7.7719582
20
10.564093
40
1.1270956
50
269.9972898
51
270.7517054
0
ARC
8
DEFAULT_255_2_005
10
7.764628
20
10.1832406
40
0.7462786
50
254.2092012
51
270.5586992
0
ARC
8
DEFAULT_255_2_005
10
7.7157001
20
10.0041756
40
0.5606592
50
220.3398327
51
254.0409093
0
ARC
8
DEFAULT_255_2_005
10
7.8102212
20
10.0807967
40
0.6823089
50
196.8292644
51
220.1061071
0
ARC
8
DEFAULT_255_2_005
10
8.1518532
20
10.1898102
40
1.0408853
50
184.6980762
51
197.1284426
0
ARC
8
DEFAULT_255_2_005
10
8.5540669
20
10.2319378
40
1.4452264
50
180.5221028
51
185.056576
0
ARC
8
DEFAULT_255_2_005
10
8.7001576
20
10.6000547
40
1.5912774
50
172.3639605
51
180.2887662
0
ARC
8
DEFAULT_255_2_005
10
8.1046006
20
10.6825432
40
0.9900442
50
160.6380459
51
172.5155536
0
ARC
8
DEFAULT_255_2_005
10
7.7569036
20
10.8068709
40
0.6207962
50
141.8400363
51
160.824714
0
ARC
8
DEFAULT_255_2_005
10
7.667359
20
10.86766
40
0.5128845
50
102.1547862
51
140.9990105
0
ARC
8
DEFAULT_255_2_005
10
7.7402258
20
10.5795418
40
0.8099549
50
89.5131855
51
102.9024539
0
ARC
8
DEFAULT_255_2_005
10
7.7530507
20
10.6045143
40
0.7849756
50
77.736637
51
90.4337968
0
ARC
8
DEFAULT_255_2_005
10
7.8118361
20
10.8599946
40
0.5228482
50
52.245078
51
78.0849644
0
ARC
8
DEFAULT_255_2_005
10
7.8344569
20
10.8963934
40
0.4802399
50
45.3551552
51
51.7199346
0
ARC
8
DEFAULT_255_2_005
10
7.796125
20
10.8636464
40
0.5304919
50
17.9198553
51
44.8949853
0
ARC
8
DEFAULT_255_2_005
10
7.5488666
20
10.7786953
40
0.7919078
50
5.2562713
51
18.2636612
0
ARC
8
DEFAULT_255_2_005
10
7.3067666
20
10.7487472
40
1.0357615
50
3.1728871
51
5.6790799
0
ARC
8
DEFAULT_255_2_005
10
7.4232596
20
10.7549568
40
0.6807644
50
4.3064118
51
13.9375871
0
ARC
8
DEFAULT_255_2_005
10
7.6459635
20
10.8116164
40
0.4509718
50
13.7660812
51
28.9011542
0
ARC
8
DEFAULT_255_2_005
10
7.736461
20
10.8590819
40
0.3488121
50
29.2598153
51
40.0259616
0
ARC
8
DEFAULT_255_2_005
10
7.8007682
20
10.9099634
40
0.2668558
50
40.5403172
51
75.183734
0
ARC
8
DEFAULT_255_2_005
10
7.7580201
20
10.7660444
40
0.4169456
50
74.5620703
51
87.9338969
0
ARC
8
DEFAULT_255_2_005
10
7.7486389
20
10.6295408
40
0.5537167
50
87.4730352
51
90.0234106
0
ARC
8
DEFAULT_255_2_005
10
7.7439469
20
10.6894615
40
0.493816
50
89.4818424
51
103.1360473
0
ARC
8
DEFAULT_255_2_005
10
7.6966904
20
10.8720287
40
0.3053201
50
102.2861222
51
144.4647889
0
ARC
8
DEFAULT_255_2_005
10
7.7965223
20
10.8087717
40
0.4233751
50
145.3507903
51
161.9303206
0
ARC
8
DEFAULT_255_2_005
10
8.1028997
20
10.7042408
40
0.7470773
50
161.5970681
51
171.2339002
0
ARC
8
DEFAULT_255_2_005
10
8.5963207
20
10.6253596
40
1.2467591
50
171.1069735
51
177.7090628
0
ARC
8
DEFAULT_255_2_005
10
9.059491
20
10.5999059
40
1.7105907
50
177.4773226
51
179.258177
0
ARC
8
DEFAULT_255_2_005
10
8.5559908
20
10.2285294
40
1.2069614
50
179.7198893
51
187.6183281
0
ARC
8
DEFAULT_255_2_005
10
8.1150772
20
10.1676212
40
0.7618672
50
187.4741478
51
199.2488477
0
ARC
8
DEFAULT_255_2_005
10
7.8665051
20
10.0806451
40
0.4985179
50
199.2297077
51
215.106325
0
ARC
8
DEFAULT_255_2_005
10
7.7484032
20
9.9948619
40
0.352574
50
214.7393606
51
264.8438055
0
ARC
8
DEFAULT_255_2_005
10
7.7723298
20
10.1380855
40
0.497489
50
263.5816515
51
270.1013785
0
ARC
8
DEFAULT_255_2_005
10
7.7772187
20
10.2759052
40
0.6353206
50
269.6384811
51
279.7568735
0
ARC
8
DEFAULT_255_2_005
10
7.8177571
20
10.0491977
40
0.4050254
50
279.5400968
51
295.992035
0
ARC
8
DEFAULT_255_2_005
10
7.8615109
20
9.9554779
40
0.301615
50
296.3233392
51
312.9096179
0
LINE
8
DEFAULT_255_2_005
10
9.972349
20
11.3633648
11
9.972349
21
9.4631
0
LINE
8
DEFAULT_255_2_005
10
9.972349
20
9.4631
11
9.7322056
21
9.4631
0
LINE
8
DEFAULT_255_2_005
10
9.7322056
20
9.4631
11
8.9713166
21
10.9274524
0
LINE
8
DEFAULT_255_2_005
10
8.9713166
20
10.9274524
11
8.9713166
21
9.4631
0
LINE
8
DEFAULT_255_2_005
10
8.9713166
20
9.4631
11
8.7311732
21
9.4631
0
LINE
8
DEFAULT_255_2_005
10
8.7311732
20
9.4631
11
8.7311732
21
11.3633648
0
LINE
8
DEFAULT_255_2_005
10
8.7311732
20
11.3633648
11
8.9713166
21
11.3633648
0
LINE
8
DEFAULT_255_2_005
10
8.9713166
20
11.3633648
11
9.7348159
21
9.8924868
0
LINE
8
DEFAULT_255_2_005
10
9.7348159
20
9.8924868
11
9.7348159
21
11.3633648
0
LINE
8
DEFAULT_255_2_005
10
9.7348159
20
11.3633648
11
9.972349
21
11.3633648
0
LINE
8
DEFAULT_255_2_005
10
11.4458373
20
9.4631
11
11.2957477
21
9.9590482
0
LINE
8
DEFAULT_255_2_005
10
11.2957477
20
9.9590482
11
10.6536252
21
9.9590482
0
LINE
8
DEFAULT_255_2_005
10
10.6536252
20
9.9590482
11
10.5061459
21
9.4631
0
LINE
8
DEFAULT_255_2_005
10
10.5061459
20
9.4631
11
10.260782
21
9.4631
0
LINE
8
DEFAULT_255_2_005
10
10.260782
20
9.4631
11
10.8728866
21
11.3633648
0
LINE
8
DEFAULT_255_2_005
10
10.8728866
20
11.3633648
11
11.0777915
21
11.3633648
0
LINE
8
DEFAULT_255_2_005
10
11.0777915
20
11.3633648
11
11.6912012
21
9.4631
0
LINE
8
DEFAULT_255_2_005
10
11.6912012
20
9.4631
11
11.4458373
21
9.4631
0
LINE
8
DEFAULT_255_2_005
10
10.9746865
20
11.0292523
11
10.7162713
21
10.1652583
0
LINE
8
DEFAULT_255_2_005
10
10.7162713
20
10.1652583
11
11.2344067
21
10.1652583
0
LINE
8
DEFAULT_255_2_005
10
11.2344067
20
10.1652583
11
10.9746865
21
11.0292523
0
LINE
8
DEFAULT_255_2_005
10
12.1897597
20
11.3633648
11
12.1897597
21
9.6680049
0
LINE
8
DEFAULT_255_2_005
10
12.1897597
20
9.6680049
11
12.9349872
21
9.6680049
0
LINE
8
DEFAULT_255_2_005
10
12.9349872
20
9.6680049
11
12.9349872
21
9.4631
0
LINE
8
DEFAULT_255_2_005
10
12.9349872
20
9.4631
11
11.9496163
21
9.4631
0
LINE
8
DEFAULT_255_2_005
10
11.9496163
20
9.4631
11
11.9496163
21
11.3633648
0
LINE
8
DEFAULT_255_2_005
10
11.9496163
20
11.3633648
11
12.1897597
21
11.3633648
0
ARC
8
DEFAULT_255_2_778
10
13.2405926
20
7.1564478
40
0.7407663
50
359.0178058
51
16.6744529
0
ARC
8
DEFAULT_255_2_778
10
13.5557362
20
7.2510687
40
0.4117244
50
16.6442594
51
83.1171234
0
ARC
8
DEFAULT_255_2_778
10
13.4577961
20
6.8348315
40
0.8380382
50
79.8779674
51
90.3928446
0
ARC
8
DEFAULT_255_2_778
10
5.5020629
20
6.0145578
40
1.6583391
50
89.5685609
51
100.6422984
0
ARC
8
DEFAULT_255_2_778
10
5.3774096
20
6.6487882
40
1.0120115
50
100.3376239
51
119.5724294
0
ARC
8
DEFAULT_255_2_778
10
5.2650334
20
6.8621631
40
0.7710093
50
120.1348532
51
134.8947228
0
ARC
8
DEFAULT_255_2_778
10
5.3071775
20
4.5696096
40
0.8395309
50
225.7013254
51
253.8369393
0
ARC
8
DEFAULT_255_2_778
10
5.4652616
20
5.0744819
40
1.3685002
50
253.3641123
51
266.8276386
0
ARC
8
DEFAULT_255_2_778
10
5.5126731
20
5.6354772
40
1.9313282
50
266.3442626
51
270.0556852
0
ARC
8
DEFAULT_255_2_778
10
13.4647511
20
4.4450773
40
0.7410363
50
269.0179339
51
286.6713971
0
ARC
8
DEFAULT_255_2_778
10
13.5594483
20
4.1296982
40
0.4117469
50
286.6379991
51
353.1126757
0
ARC
8
DEFAULT_255_2_778
10
13.1433821
20
4.227604
40
0.8378878
50
349.8761221
51
0.3929053
0
LINE
8
DEFAULT_255_2_778
10
13.4520502
20
7.6728498
11
5.5145502
21
7.6728498
0
LINE
8
DEFAULT_255_2_778
10
4.7208502
20
7.4083498
11
3.6624502
21
6.3499498
0
LINE
8
DEFAULT_255_2_778
10
3.6624502
20
6.3499498
11
3.6624502
21
5.0270498
0
LINE
8
DEFAULT_255_2_778
10
3.6624502
20
5.0270498
11
4.7208502
21
3.9687498
0
LINE
8
DEFAULT_255_2_778
10
5.5145502
20
3.7041498
11
13.4520502
21
3.7041498
0
LINE
8
DEFAULT_255_2_778
10
13.9812502
20
4.2333498
11
13.9812502
21
7.1437498
0
LINE
8
DEFAULT_255_2_778
10
2.8687502
20
12.9645498
11
2.8687502
21
-1.3229502
0
ENDSEC
0
EOF