0
SECTION
2
HEADER
9
$MEASUREMENT
70
1
0
ENDSEC
0
SECTION
2
TABLES
0
TABLE
2
LTYPE
0
LTYPE
72
65
70
64
2
CONTINUOUS
3
______
73
0
40
0
0
ENDTAB
0
TABLE
2
LAYER
0
LAYER
2
DEFAULT_255_2_778
70
0
62
255
6
CONTINUOUS
0
ENDTAB
0
ENDSEC
0
SECTION
2
ENTITIES
0
ARC
8
DEFAULT_255_2_778
10
7.793657
20
1.604094
40
2.4351228
50
79.1557124
51
86.7188342
0
ARC
8
DEFAULT_255_2_778
10
7.9832256
20
2.5689883
40
1.4518013
50
67.6439446
51
79.3391292
0
ARC
8
DEFAULT_255_2_778
10
8.2218241
20
3.1351461
40
0.8374603
50
47.2501297
51
68.0079611
0
ARC
8
DEFAULT_255_2_778
10
8.3384939
20
3.2811496
40
0.6511898
50
2.0677115
51
46.0680692
0
ARC
8
DEFAULT_255_2_778
10
8.0484616
20
3.2421411
40
0.942872
50
359.962559
51
3.8009757
0
ARC
8
DEFAULT_255_2_778
10
8.2398065
20
3.2274788
40
0.7516581
50
336.1428677
51
1.0707422
0
ARC
8
DEFAULT_255_2_778
10
8.3275967
20
3.2087499
40
0.6640482
50
298.4441069
51
334.5568998
0
ARC
8
DEFAULT_255_2_778
10
8.0827992
20
3.6268254
40
1.148365
50
285.0185212
51
299.2482228
0
ARC
8
DEFAULT_255_2_778
10
7.8696131
20
4.3908815
40
1.9415817
50
276.3972372
51
285.2520423
0
ARC
8
DEFAULT_255_2_778
10
7.7623687
20
5.2199041
40
2.7774277
50
273.5228741
51
276.690296
0
LINE
8
DEFAULT_255_2_778
10
7.9330333
20
2.4477249
11
7.9330333
21
0.5957249
0
LINE
8
DEFAULT_255_2_778
10
7.9330333
20
6.1519249
11
7.9330333
21
4.0352249
0
LINE
8
DEFAULT_255_2_778
10
8.5473417
20
6.1518541
11
7.2718417
21
6.1518541
0
LINE
8
DEFAULT_255_2_778
10
7.9330417
20
6.8133541
11
7.9330417
21
6.1518541
0
LINE
8
DEFAULT_255_2_778
10
7.2715417
20
0.5956541
11
8.5944417
21
0.5956541
0
LINE
8
DEFAULT_255_2_778
10
7.933
20
-0.0657708
11
7.933
21
0.5957292
0
ARC
8
DEFAULT_255_2_778
10
6.3302403
20
-2.4717142
40
0.7915702
50
72.214919
51
90.9241659
0
ARC
8
DEFAULT_255_2_778
10
6.4118251
20
-2.2054822
40
0.5131548
50
48.3326232
51
71.8091591
0
ARC
8
DEFAULT_255_2_778
10
6.4299193
20
-2.1782967
40
0.4808392
50
357.7055642
51
47.789689
0
ARC
8
DEFAULT_255_2_778
10
6.3560105
20
-2.2111424
40
0.5545292
50
335.0858481
51
1.4048632
0
ARC
8
DEFAULT_255_2_778
10
6.4849266
20
-2.2613986
40
0.4165306
50
310.6868508
51
333.8852046
0
ARC
8
DEFAULT_255_2_778
10
6.4135001
20
-2.1631981
40
0.5376494
50
279.9372295
51
309.636282
0
ARC
8
DEFAULT_255_2_778
10
6.3227649
20
-1.7445988
40
0.9657787
50
269.5436672
51
280.9539321
0
ARC
8
DEFAULT_255_2_778
10
6.3302246
20
-2.0314109
40
0.4967998
50
268.5291949
51
291.0434722
0
ARC
8
DEFAULT_255_2_778
10
6.3968899
20
-2.2211064
40
0.2958762
50
292.1852802
51
311.223833
0
ARC
8
DEFAULT_255_2_778
10
6.3882873
20
-2.2257462
40
0.2982078
50
313.0547931
51
0.2624069
0
ARC
8
DEFAULT_255_2_778
10
6.182457
20
-2.2001714
40
0.504616
50
357.2501673
51
0.0254806
0
ARC
8
DEFAULT_255_2_778
10
6.3687118
20
-2.1855553
40
0.3186863
50
357.4116828
51
45.5526585
0
ARC
8
DEFAULT_255_2_778
10
6.3512305
20
-2.2244125
40
0.3589699
50
47.9044033
51
87.6862859
0
ARC
8
DEFAULT_255_2_778
10
6.3186487
20
-2.4473046
40
0.5834715
50
85.3724206
51
88.8682626
0
ARC
8
DEFAULT_255_2_778
10
8.4802403
20
-2.4717142
40
0.7915702
50
72.214919
51
90.9241659
0
ARC
8
DEFAULT_255_2_778
10
8.5618251
20
-2.2054822
40
0.5131548
50
48.3326232
51
71.8091591
0
ARC
8
DEFAULT_255_2_778
10
8.580653
20
-2.1783726
40
0.4804028
50
357.7125357
51
47.8605789
0
ARC
8
DEFAULT_255_2_778
10
8.5066133
20
-2.2111375
40
0.5542264
50
335.0707456
51
1.4051241
0
ARC
8
DEFAULT_255_2_778
10
8.6352153
20
-2.2612792
40
0.4165633
50
310.6668988
51
333.8691259
0
ARC
8
DEFAULT_255_2_778
10
8.5634421
20
-2.1627872
40
0.5381304
50
279.8596238
51
309.6295362
0
ARC
8
DEFAULT_255_2_778
10
8.4729814
20
-1.7438749
40
0.9665021
50
269.5489597
51
280.890718
0
ARC
8
DEFAULT_255_2_778
10
8.4802246
20
-2.0314109
40
0.4967998
50
268.5291949
51
291.0434722
0
ARC
8
DEFAULT_255_2_778
10
8.5468899
20
-2.2211064
40
0.2958762
50
292.1852802
51
311.223833
0
ARC
8
DEFAULT_255_2_778
10
8.5382873
20
-2.2257462
40
0.2982078
50
313.0547931
51
0.2624069
0
ARC
8
DEFAULT_255_2_778
10
8.332457
20
-2.2001714
40
0.504616
50
357.2501673
51
0.0254806
0
ARC
8
DEFAULT_255_2_778
10
8.5187118
20
-2.1855553
40
0.3186863
50
357.4116828
51
45.5526585
0
ARC
8
DEFAULT_255_2_778
10
8.5012305
20
-2.2244125
40
0.3589699
50
47.9044033
51
87.6862859
0
ARC
8
DEFAULT_255_2_778
10
8.4686487
20
-2.4473046
40
0.5834715
50
85.3724206
51
88.8682626
0
LINE
8
DEFAULT_255_2_778
10
11.240373
20
3.902953
11
11.240373
21
3.731253
0
LINE
8
DEFAULT_255_2_778
10
11.240373
20
3.731253
11
10.690473
21
3.731253
0
LINE
8
DEFAULT_255_2_778
10
10.690473
20
3.731253
11
10.690473
21
2.321553
0
LINE
8
DEFAULT_255_2_778
10
10.690473
20
2.321553
11
10.466173
21
2.321553
0
LINE
8
DEFAULT_255_2_778
10
10.466173
20
2.321553
11
10.466173
21
3.731253
0
LINE
8
DEFAULT_255_2_778
10
10.466173
20
3.731253
11
9.917373
21
3.731253
0
LINE
8
DEFAULT_255_2_778
10
9.917373
20
3.731253
11
9.917373
21
3.902953
0
LINE
8
DEFAULT_255_2_778
10
9.917373
20
3.902953
11
11.240373
21
3.902953
0
LINE
8
DEFAULT_255_2_778
10
11.240373
20
3.902953
11
11.240373
21
3.902953
0
LINE
8
DEFAULT_255_2_778
10
6.315073
20
-2.710547
11
5.916373
21
-2.710547
0
LINE
8
DEFAULT_255_2_778
10
5.916373
20
-2.710547
11
5.916373
21
-3.373047
0
LINE
8
DEFAULT_255_2_778
10
5.916373
20
-3.373047
11
5.693073
21
-3.373047
0
LINE
8
DEFAULT_255_2_778
10
5.693073
20
-3.373047
11
5.693073
21
-1.680247
0
LINE
8
DEFAULT_255_2_778
10
5.693073
20
-1.680247
11
6.317473
21
-1.680247
0
LINE
8
DEFAULT_255_2_778
10
6.315073
20
-2.710347
11
6.315073
21
-2.710547
0
LINE
8
DEFAULT_255_2_778
10
5.916373
20
-1.864147
11
5.916373
21
-2.528047
0
LINE
8
DEFAULT_255_2_778
10
5.916373
20
-2.528047
11
6.317473
21
-2.528047
0
LINE
8
DEFAULT_255_2_778
10
6.330173
20
-1.863947
11
5.916373
21
-1.863947
0
LINE
8
DEFAULT_255_2_778
10
5.916373
20
-1.863947
11
5.916373
21
-1.864147
0
LINE
8
DEFAULT_255_2_778
10
7.434873
20
-1.680247
11
7.434873
21
-3.373047
0
LINE
8
DEFAULT_255_2_778
10
7.434873
20
-3.373047
11
7.211473
21
-3.373047
0
LINE
8
DEFAULT_255_2_778
10
7.211473
20
-3.373047
11
7.211473
21
-1.680247
0
LINE
8
DEFAULT_255_2_778
10
7.211473
20
-1.680247
11
7.434873
21
-1.680247
0
LINE
8
DEFAULT_255_2_778
10
7.434873
20
-1.680247
11
7.434873
21
-1.680247
0
LINE
8
DEFAULT_255_2_778
10
8.465073
20
-2.710547
11
8.066373
21
-2.710547
0
LINE
8
DEFAULT_255_2_778
10
8.066373
20
-2.710547
11
8.066373
21
-3.373047
0
LINE
8
DEFAULT_255_2_778
10
8.066373
20
-3.373047
11
7.843073
21
-3.373047
0
LINE
8
DEFAULT_255_2_778
10
7.843073
20
-3.373047
11
7.843073
21
-1.680247
0
LINE
8
DEFAULT_255_2_778
10
7.843073
20
-1.680247
11
8.467473
21
-1.680247
0
LINE
8
DEFAULT_255_2_778
10
8.465373
20
-2.710347
11
8.465073
21
-2.710547
0
LINE
8
DEFAULT_255_2_778
10
8.066373
20
-1.864147
11
8.066373
21
-2.528047
0
LINE
8
DEFAULT_255_2_778
10
8.066373
20
-2.528047
11
8.467473
21
-2.528047
0
LINE
8
DEFAULT_255_2_778
10
8.480173
20
-1.863947
11
8.066373
21
-1.863947
0
LINE
8
DEFAULT_255_2_778
10
8.066373
20
-1.863947
11
8.066373
21
-1.864147
0
LINE
8
DEFAULT_255_2_778
10
10.302073
20
-2.408147
11
10.302073
21
-2.590747
0
LINE
8
DEFAULT_255_2_778
10
10.302073
20
-2.590747
11
9.568473
21
-2.590747
0
LINE
8
DEFAULT_255_2_778
10
9.568473
20
-2.590747
11
9.568473
21
-3.190747
0
LINE
8
DEFAULT_255_2_778
10
9.568473
20
-3.190747
11
10.420673
21
-3.190747
0
LINE
8
DEFAULT_255_2_778
10
10.420673
20
-3.190747
11
10.420673
21
-3.373347
0
LINE
8
DEFAULT_255_2_778
10
10.420673
20
-3.373347
11
9.345073
21
-3.373347
0
LINE
8
DEFAULT_255_2_778
10
9.345073
20
-3.373347
11
9.345073
21
-1.680547
0
LINE
8
DEFAULT_255_2_778
10
9.345073
20
-1.680547
11
10.408973
21
-1.680547
0
LINE
8
DEFAULT_255_2_778
10
10.408973
20
-1.680547
11
10.408973
21
-1.864147
0
LINE
8
DEFAULT_255_2_778
10
10.408973
20
-1.864147
11
9.568473
21
-1.864147
0
LINE
8
DEFAULT_255_2_778
10
9.568473
20
-1.864147
11
9.568473
21
-2.408447
0
LINE
8
DEFAULT_255_2_778
10
9.568473
20
-2.408447
11
10.302073
21
-2.408447
0
LINE
8
DEFAULT_255_2_778
10
10.302073
20
-2.408447
11
10.302073
21
-2.408147
0
ENDSEC
0
EOF