0
SECTION
2
HEADER
9
$MEASUREMENT
70
1
0
ENDSEC
0
SECTION
2
TABLES
0
TABLE
2
LTYPE
0
LTYPE
72
65
70
64
2
CONTINUOUS
3
______
73
0
40
0
0
ENDTAB
0
TABLE
2
LAYER
0
LAYER
2
DEFAULT_255_2_778
70
0
62
255
6
CONTINUOUS
0
ENDTAB
0
ENDSEC
0
SECTION
2
ENTITIES
0
ARC
8
DEFAULT_255_2_778
10
5.6292843
20
4.374011
40
2.3078131
50
80.5714632
51
88.5278332
0
ARC
8
DEFAULT_255_2_778
10
5.7864739
20
5.2953368
40
1.3731896
50
68.6488571
51
80.7440781
0
ARC
8
DEFAULT_255_2_778
10
6.0027414
20
5.8320213
40
0.7946232
50
46.3798958
51
69.083415
0
ARC
8
DEFAULT_255_2_778
10
6.086102
20
5.9429905
40
0.656981
50
5.034436
51
44.9662844
0
ARC
8
DEFAULT_255_2_778
10
5.7651449
20
5.8893513
40
0.9817322
50
359.8839233
51
6.5092193
0
ARC
8
DEFAULT_255_2_778
10
5.9257234
20
5.8738147
40
0.8212634
50
339.3869178
51
0.9451984
0
ARC
8
DEFAULT_255_2_778
10
6.0879933
20
5.8282767
40
0.6535114
50
296.0111297
51
338.1150776
0
ARC
8
DEFAULT_255_2_778
10
5.8539342
20
6.2627302
40
1.1467757
50
282.4883681
51
297.0015953
0
ARC
8
DEFAULT_255_2_778
10
5.6715499
20
7.046982
40
1.9519294
50
273.8160221
51
282.7373284
0
ARC
8
DEFAULT_255_2_778
10
5.6050527
20
7.8121422
40
2.7198625
50
271.7597332
51
274.140985
0
LINE
8
DEFAULT_255_2_778
10
5.6885751
20
5.0935624
11
5.6885751
21
1.2571624
0
LINE
8
DEFAULT_255_2_778
10
5.6885751
20
1.2571624
11
11.2447751
21
1.2571624
0
LINE
8
DEFAULT_255_2_778
10
5.6885751
20
10.3852624
11
5.6885751
21
6.6810624
0
LINE
8
DEFAULT_255_2_778
10
5.0270459
20
10.5174665
11
6.3499459
21
10.5174665
0
LINE
8
DEFAULT_255_2_778
10
5.6885459
20
10.5505665
11
5.6885459
21
11.1789665
0
LINE
8
DEFAULT_255_2_778
10
11.2447459
20
0.5956665
11
11.2447459
21
1.9185665
0
LINE
8
DEFAULT_255_2_778
10
11.9062708
20
1.2571
11
11.2447708
21
1.2571
0
ARC
8
DEFAULT_255_2_778
10
7.0220836
20
-1.0170437
40
0.792081
50
72.2270494
51
90.9238395
0
ARC
8
DEFAULT_255_2_778
10
7.1037522
20
-0.7503917
40
0.5132391
50
48.3540817
51
71.8225301
0
ARC
8
DEFAULT_255_2_778
10
7.1216439
20
-0.7230687
40
0.4809559
50
357.7005579
51
47.7838126
0
ARC
8
DEFAULT_255_2_778
10
7.0479276
20
-0.7559553
40
0.5544515
50
335.1054062
51
1.4044654
0
ARC
8
DEFAULT_255_2_778
10
7.1771356
20
-0.8063096
40
0.4161437
50
310.6655404
51
333.905469
0
ARC
8
DEFAULT_255_2_778
10
7.1053397
20
-0.7079168
40
0.5376494
50
279.9372295
51
309.636282
0
ARC
8
DEFAULT_255_2_778
10
7.0146044
20
-0.2893175
40
0.9657787
50
269.5436672
51
280.9539321
0
ARC
8
DEFAULT_255_2_778
10
7.0220642
20
-0.5761295
40
0.4967998
50
268.5291949
51
291.0434722
0
ARC
8
DEFAULT_255_2_778
10
7.0887295
20
-0.7658251
40
0.2958762
50
292.1852802
51
311.223833
0
ARC
8
DEFAULT_255_2_778
10
7.0801269
20
-0.7704649
40
0.2982078
50
313.0547931
51
0.2624069
0
ARC
8
DEFAULT_255_2_778
10
6.8742966
20
-0.7448901
40
0.504616
50
357.2501673
51
0.0254806
0
ARC
8
DEFAULT_255_2_778
10
7.0606748
20
-0.7303195
40
0.318561
50
357.4188507
51
45.5616392
0
ARC
8
DEFAULT_255_2_778
10
7.0428389
20
-0.7694886
40
0.3593158
50
47.9045737
51
87.6516325
0
ARC
8
DEFAULT_255_2_778
10
7.0101297
20
-0.9924471
40
0.5839024
50
85.3405427
51
88.8339068
0
ARC
8
DEFAULT_255_2_778
10
9.1718836
20
-1.0170437
40
0.792081
50
72.2270494
51
90.9238395
0
ARC
8
DEFAULT_255_2_778
10
9.2535522
20
-0.7503917
40
0.5132391
50
48.3540817
51
71.8225301
0
ARC
8
DEFAULT_255_2_778
10
9.2721778
20
-0.7231445
40
0.4805193
50
357.707518
51
47.8546993
0
ARC
8
DEFAULT_255_2_778
10
9.1984
20
-0.75596
40
0.5540794
50
335.0780074
51
1.4058939
0
ARC
8
DEFAULT_255_2_778
10
9.3272246
20
-0.8061913
40
0.4161756
50
310.6456408
51
333.8759399
0
ARC
8
DEFAULT_255_2_778
10
9.2553397
20
-0.7079168
40
0.5376494
50
279.9372295
51
309.636282
0
ARC
8
DEFAULT_255_2_778
10
9.1646044
20
-0.2893175
40
0.9657787
50
269.5436672
51
280.9539321
0
ARC
8
DEFAULT_255_2_778
10
9.1718618
20
-0.5762739
40
0.4966555
50
268.5290423
51
291.0300481
0
ARC
8
DEFAULT_255_2_778
10
9.2385956
20
-0.7662313
40
0.2954614
50
292.1701531
51
311.251514
0
ARC
8
DEFAULT_255_2_778
10
9.2300695
20
-0.7704345
40
0.2980645
50
313.0167286
51
0.25669
0
ARC
8
DEFAULT_255_2_778
10
9.0244458
20
-0.744886
40
0.5042667
50
357.2477989
51
0.0250364
0
ARC
8
DEFAULT_255_2_778
10
9.2106488
20
-0.7303431
40
0.3183861
50
357.4216933
51
45.5998216
0
ARC
8
DEFAULT_255_2_778
10
9.1926955
20
-0.7690894
40
0.3589148
50
47.8804024
51
87.6582273
0
ARC
8
DEFAULT_255_2_778
10
9.1599313
20
-0.9923851
40
0.5838404
50
85.3403225
51
88.8339404
0
LINE
8
DEFAULT_255_2_778
10
7.0069126
20
-1.2553656
11
6.6082126
21
-1.2553656
0
LINE
8
DEFAULT_255_2_778
10
6.6082126
20
-1.2553656
11
6.6082126
21
-1.9178656
0
LINE
8
DEFAULT_255_2_778
10
6.6082126
20
-1.9178656
11
6.3849126
21
-1.9178656
0
LINE
8
DEFAULT_255_2_778
10
6.3849126
20
-1.9178656
11
6.3849126
21
-0.2250656
0
LINE
8
DEFAULT_255_2_778
10
6.3849126
20
-0.2250656
11
7.0093126
21
-0.2250656
0
LINE
8
DEFAULT_255_2_778
10
7.0069126
20
-1.2550656
11
7.0069126
21
-1.2553656
0
LINE
8
DEFAULT_255_2_778
10
6.6082126
20
-0.4089656
11
6.6082126
21
-1.0727656
0
LINE
8
DEFAULT_255_2_778
10
6.6082126
20
-1.0727656
11
7.0093126
21
-1.0727656
0
LINE
8
DEFAULT_255_2_778
10
7.0220126
20
-0.4086656
11
6.6082126
21
-0.4086656
0
LINE
8
DEFAULT_255_2_778
10
6.6082126
20
-0.4086656
11
6.6082126
21
-0.4089656
0
LINE
8
DEFAULT_255_2_778
10
8.1267126
20
-0.2250656
11
8.1267126
21
-1.9178656
0
LINE
8
DEFAULT_255_2_778
10
8.1267126
20
-1.9178656
11
7.9033126
21
-1.9178656
0
LINE
8
DEFAULT_255_2_778
10
7.9033126
20
-1.9178656
11
7.9033126
21
-0.2250656
0
LINE
8
DEFAULT_255_2_778
10
7.9033126
20
-0.2250656
11
8.1267126
21
-0.2250656
0
LINE
8
DEFAULT_255_2_778
10
8.1267126
20
-0.2250656
11
8.1267126
21
-0.2250656
0
LINE
8
DEFAULT_255_2_778
10
9.1567126
20
-1.2553656
11
8.7579126
21
-1.2553656
0
LINE
8
DEFAULT_255_2_778
10
8.7579126
20
-1.2553656
11
8.7579126
21
-1.9178656
0
LINE
8
DEFAULT_255_2_778
10
8.7579126
20
-1.9178656
11
8.5346126
21
-1.9178656
0
LINE
8
DEFAULT_255_2_778
10
8.5346126
20
-1.9178656
11
8.5346126
21
-0.2250656
0
LINE
8
DEFAULT_255_2_778
10
8.5346126
20
-0.2250656
11
9.1591126
21
-0.2250656
0
LINE
8
DEFAULT_255_2_778
10
9.1569126
20
-1.2550656
11
9.1567126
21
-1.2553656
0
LINE
8
DEFAULT_255_2_778
10
8.7579126
20
-0.4089656
11
8.7579126
21
-1.0727656
0
LINE
8
DEFAULT_255_2_778
10
8.7579126
20
-1.0727656
11
9.1591126
21
-1.0727656
0
LINE
8
DEFAULT_255_2_778
10
9.1718126
20
-0.4086656
11
8.7579126
21
-0.4086656
0
LINE
8
DEFAULT_255_2_778
10
8.7579126
20
-0.4086656
11
8.7579126
21
-0.4089656
0
LINE
8
DEFAULT_255_2_778
10
10.9939126
20
-0.9529656
11
10.9939126
21
-1.1354656
0
LINE
8
DEFAULT_255_2_778
10
10.9939126
20
-1.1354656
11
10.2603126
21
-1.1354656
0
LINE
8
DEFAULT_255_2_778
10
10.2603126
20
-1.1354656
11
10.2603126
21
-1.7355656
0
LINE
8
DEFAULT_255_2_778
10
10.2603126
20
-1.7355656
11
11.1125126
21
-1.7355656
0
LINE
8
DEFAULT_255_2_778
10
11.1125126
20
-1.7355656
11
11.1125126
21
-1.9181656
0
LINE
8
DEFAULT_255_2_778
10
11.1125126
20
-1.9181656
11
10.0369126
21
-1.9181656
0
LINE
8
DEFAULT_255_2_778
10
10.0369126
20
-1.9181656
11
10.0369126
21
-0.2253656
0
LINE
8
DEFAULT_255_2_778
10
10.0369126
20
-0.2253656
11
11.1008126
21
-0.2253656
0
LINE
8
DEFAULT_255_2_778
10
11.1008126
20
-0.2253656
11
11.1008126
21
-0.4089656
0
LINE
8
DEFAULT_255_2_778
10
11.1008126
20
-0.4089656
11
10.2603126
21
-0.4089656
0
LINE
8
DEFAULT_255_2_778
10
10.2603126
20
-0.4089656
11
10.2603126
21
-0.9531656
0
LINE
8
DEFAULT_255_2_778
10
10.2603126
20
-0.9531656
11
10.9939126
21
-0.9531656
0
LINE
8
DEFAULT_255_2_778
10
10.9939126
20
-0.9531656
11
10.9939126
21
-0.9529656
0
ENDSEC
0
EOF