0
SECTION
2
HEADER
9
$MEASUREMENT
70
1
0
ENDSEC
0
SECTION
2
TABLES
0
TABLE
2
LTYPE
0
LTYPE
72
65
70
64
2
CONTINUOUS
3
______
73
0
40
0
0
ENDTAB
0
TABLE
2
LAYER
0
LAYER
2
DEFAULT_255_2_778
70
0
62
255
6
CONTINUOUS
0
ENDTAB
0
ENDSEC
0
SECTION
2
ENTITIES
0
LINE
8
DEFAULT_255_2_778
10
21.8281667
20
38.2322579
11
23.9448667
21
38.2322579
0
LINE
8
DEFAULT_255_2_778
10
23.9448667
20
38.2322579
11
23.9448667
21
5.1593579
0
LINE
8
DEFAULT_255_2_778
10
23.9448667
20
5.1593579
11
21.8281667
21
5.1593579
0
LINE
8
DEFAULT_255_2_778
10
4.8948667
20
38.2322579
11
2.7781667
21
38.2322579
0
LINE
8
DEFAULT_255_2_778
10
2.7781667
20
38.2322579
11
2.7781667
21
5.1593579
0
LINE
8
DEFAULT_255_2_778
10
2.7781667
20
5.1593579
11
4.8948667
21
5.1593579
0
ARC
8
DEFAULT_255_2_778
10
8.7087233
20
2.2602275
40
3.8138922
50
179.9353161
51
188.30305
0
ARC
8
DEFAULT_255_2_778
10
8.482477
20
2.2282351
40
3.5853976
50
188.3192684
51
200.5137146
0
ARC
8
DEFAULT_255_2_778
10
8.7154957
20
2.3343392
40
3.8408634
50
200.778034
51
219.4954271
0
ARC
8
DEFAULT_255_2_778
10
9.4006249
20
2.8770176
40
4.7147437
50
219.2890522
51
227.9370162
0
ARC
8
DEFAULT_255_2_778
10
10.0293924
20
3.5696359
40
5.6501912
50
227.9087764
51
234.6481205
0
ARC
8
DEFAULT_255_2_778
10
10.6646474
20
4.4620591
40
6.7456207
50
234.6330861
51
240.314434
0
ARC
8
DEFAULT_255_2_778
10
11.2831346
20
5.5436519
40
7.991561
50
240.3024834
51
245.2222313
0
ARC
8
DEFAULT_255_2_778
10
11.8608714
20
6.7924297
40
9.367506
50
245.2149656
51
249.6591061
0
ARC
8
DEFAULT_255_2_778
10
12.3783496
20
8.1858142
40
10.8538785
50
249.6545589
51
253.8225149
0
ARC
8
DEFAULT_255_2_778
10
12.8066828
20
9.658389
40
12.3874837
50
253.8174594
51
257.7850235
0
ARC
8
DEFAULT_255_2_778
10
13.1232454
20
11.1182506
40
13.8812733
50
257.7828858
51
261.8381365
0
ARC
8
DEFAULT_255_2_778
10
13.3192772
20
12.4963502
40
15.2732448
50
261.8441488
51
267.0217108
0
ARC
8
DEFAULT_255_2_778
10
13.3607948
20
13.1525267
40
15.9306936
50
266.9952106
51
270.0024771
0
ARC
8
DEFAULT_255_2_778
10
13.3681648
20
12.9350408
40
15.7132091
50
269.9756381
51
276.4585113
0
ARC
8
DEFAULT_255_2_778
10
13.5161425
20
11.6150672
40
14.3849676
50
276.4642348
51
280.9400538
0
ARC
8
DEFAULT_255_2_778
10
13.7987238
20
10.1469313
40
12.8898844
50
280.945298
51
284.8195146
0
ARC
8
DEFAULT_255_2_778
10
14.1926946
20
8.6643482
40
11.3558498
50
284.8111481
51
289.0051436
0
ARC
8
DEFAULT_255_2_778
10
14.6930281
20
7.2132812
40
9.8209462
50
289.0021355
51
293.3777515
0
ARC
8
DEFAULT_255_2_778
10
15.2464834
20
5.9332403
40
8.4263791
50
293.376989
51
297.9432498
0
ARC
8
DEFAULT_255_2_778
10
15.8357082
20
4.8254659
40
7.171649
50
297.9318344
51
303.1933992
0
ARC
8
DEFAULT_255_2_778
10
16.4584559
20
3.8765357
40
6.0366247
50
303.1779806
51
309.4231303
0
ARC
8
DEFAULT_255_2_778
10
17.0874483
20
3.1143893
40
5.0484474
50
309.4017141
51
317.1248944
0
ARC
8
DEFAULT_255_2_778
10
17.7121725
20
2.5403498
40
4.2000498
50
317.065066
51
328.4318889
0
ARC
8
DEFAULT_255_2_778
10
18.2052718
20
2.2385603
40
3.6219299
50
328.4158637
51
348.4411179
0
ARC
8
DEFAULT_255_2_778
10
18.1103077
20
2.2510258
40
3.7174721
50
348.5461666
51
357.5932019
0
ARC
8
DEFAULT_255_2_778
10
17.8880004
20
2.2640854
40
3.9401332
50
357.5392159
51
0.0065113
0
ARC
8
DEFAULT_255_2_778
10
15.0141963
20
38.1275966
40
6.8139387
50
359.9633099
51
5.0933616
0
ARC
8
DEFAULT_255_2_778
10
15.5247672
20
38.1731998
40
6.3013352
50
5.0924959
51
10.9642695
0
ARC
8
DEFAULT_255_2_778
10
15.8903908
20
38.2436044
40
5.9289951
50
10.9683381
51
17.5831281
0
ARC
8
DEFAULT_255_2_778
10
16.0901383
20
38.3061156
40
5.719696
50
17.5906501
51
26.142304
0
ARC
8
DEFAULT_255_2_778
10
15.8128143
20
38.1353361
40
6.0439762
50
26.4373133
51
49.3999
0
ARC
8
DEFAULT_255_2_778
10
14.9668696
20
37.2046189
40
7.3012539
50
49.1125857
51
58.3291944
0
ARC
8
DEFAULT_255_2_778
10
14.3710408
20
36.2455058
40
8.4303682
50
58.3052281
51
65.8801159
0
ARC
8
DEFAULT_255_2_778
10
13.8962156
20
35.1916844
40
9.5862195
50
65.8638103
51
72.547602
0
ARC
8
DEFAULT_255_2_778
10
13.5535494
20
34.1003692
40
10.7300677
50
72.5497799
51
79.6940554
0
ARC
8
DEFAULT_255_2_778
10
13.3700578
20
33.077461
40
11.7693004
50
79.7060873
51
90.0417416
0
ARC
8
DEFAULT_255_2_778
10
13.352893
20
33.0777449
40
11.7690164
50
89.9581779
51
100.3010909
0
ARC
8
DEFAULT_255_2_778
10
13.173331
20
34.0828049
40
10.7480473
50
100.3173926
51
107.2136442
0
ARC
8
DEFAULT_255_2_778
10
12.8435474
20
35.1467815
40
9.6341339
50
107.2127915
51
113.810352
0
ARC
8
DEFAULT_255_2_778
10
12.3877752
20
36.1758908
40
8.5086154
50
113.8001321
51
120.993117
0
ARC
8
DEFAULT_255_2_778
10
11.8099484
20
37.1301074
40
7.3930909
50
120.9623474
51
130.040736
0
ARC
8
DEFAULT_255_2_778
10
10.9391604
20
38.1139748
40
6.0797422
50
129.7230426
51
153.0481702
0
ARC
8
DEFAULT_255_2_778
10
10.6272641
20
38.3084469
40
5.7136684
50
153.3689208
51
161.8494324
0
ARC
8
DEFAULT_255_2_778
10
10.8174148
20
38.2473837
40
5.9133795
50
161.8611566
51
168.847737
0
ARC
8
DEFAULT_255_2_778
10
11.1773257
20
38.1763361
40
6.280236
50
168.8468878
51
174.5416412
0
ARC
8
DEFAULT_255_2_778
10
11.6700807
20
38.1294363
40
6.7752179
50
174.5432047
51
179.7004457
0
ARC
8
DEFAULT_255_2_778
10
12.0082421
20
38.1231971
40
7.1134086
50
179.6644326
51
179.9997097
0
LINE
8
DEFAULT_255_2_778
10
4.8948336
20
38.1232332
11
4.8948336
21
2.2645332
0
LINE
8
DEFAULT_255_2_778
10
21.8281336
20
2.2645332
11
21.8281336
21
38.1232332
0
LINE
8
DEFAULT_255_2_778
10
4.8948336
20
38.1232332
11
4.8948336
21
38.1232332
0
ENDSEC
0
EOF