0
SECTION
2
HEADER
9
$MEASUREMENT
70
1
0
ENDSEC
0
SECTION
2
TABLES
0
TABLE
2
LTYPE
0
LTYPE
72
65
70
64
2
CONTINUOUS
3
______
73
0
40
0
0
ENDTAB
0
TABLE
2
LAYER
0
LAYER
2
DEFAULT_255_2_778
70
0
62
255
6
CONTINUOUS
0
ENDTAB
0
ENDSEC
0
SECTION
2
ENTITIES
0
ARC
8
DEFAULT_255_2_778
10
8.1232224
20
2.517455
40
5.3450904
50
167.0932987
51
180.0427536
0
ARC
8
DEFAULT_255_2_778
10
8.0384011
20
2.5344489
40
5.2586169
50
148.3180854
51
167.0673517
0
ARC
8
DEFAULT_255_2_778
10
8.0612765
20
2.5214409
40
5.2849153
50
110.0832017
51
148.328327
0
ARC
8
DEFAULT_255_2_778
10
8.0557263
20
2.5215304
40
5.2829279
50
95.3310996
51
110.0270003
0
ARC
8
DEFAULT_255_2_778
10
8.0689635
20
2.4008221
40
5.4043445
50
89.9907771
51
95.3519304
0
ARC
8
DEFAULT_255_2_778
10
8.0738193
20
2.4603767
40
5.3447913
50
77.0929369
51
90.0427279
0
ARC
8
DEFAULT_255_2_778
10
8.0907745
20
2.5450391
40
5.2584813
50
58.3175703
51
77.0669583
0
ARC
8
DEFAULT_255_2_778
10
8.0776752
20
2.5220235
40
5.2849469
50
20.0830758
51
58.3277709
0
ARC
8
DEFAULT_255_2_778
10
8.0777634
20
2.5275698
40
5.2829621
50
5.3311072
51
20.02691
0
ARC
8
DEFAULT_255_2_778
10
7.957089
20
2.5143365
40
5.4043445
50
359.9907771
51
5.3519304
0
ARC
8
DEFAULT_255_2_778
10
8.0166283
20
2.5094815
40
5.3448067
50
347.0929653
51
0.0427185
0
ARC
8
DEFAULT_255_2_778
10
8.1012604
20
2.492533
40
5.2585278
50
328.3177859
51
347.0669902
0
ARC
8
DEFAULT_255_2_778
10
8.0782922
20
2.5055919
40
5.2849318
50
290.0836664
51
328.3280884
0
ARC
8
DEFAULT_255_2_778
10
8.0839234
20
2.5053043
40
5.2827306
50
275.3313078
51
290.0273754
0
ARC
8
DEFAULT_255_2_778
10
8.0707029
20
2.6258693
40
5.4040028
50
269.990782
51
275.3521003
0
ARC
8
DEFAULT_255_2_778
10
8.0658459
20
2.5669708
40
5.3451058
50
257.0933271
51
270.0427441
0
ARC
8
DEFAULT_255_2_778
10
8.0488586
20
2.4821799
40
5.2586634
50
238.318301
51
257.0673836
0
ARC
8
DEFAULT_255_2_778
10
8.0618263
20
2.5050079
40
5.2849002
50
200.0837923
51
238.3286446
0
ARC
8
DEFAULT_255_2_778
10
8.0615374
20
2.4993727
40
5.2826964
50
185.3313002
51
200.0274658
0
ARC
8
DEFAULT_255_2_778
10
8.1821363
20
2.5125971
40
5.4040028
50
179.990782
51
185.3521003
0
LINE
8
DEFAULT_255_2_778
10
2.7781335
20
2.5134665
11
2.7781335
21
2.5134665
0
ARC
8
DEFAULT_255_2_778
10
8.1001059
20
2.5173294
40
3.9990575
50
164.958672
51
180.0541499
0
ARC
8
DEFAULT_255_2_778
10
8.0517844
20
2.5269887
40
3.9498864
50
139.5324886
51
164.9120823
0
ARC
8
DEFAULT_255_2_778
10
8.0604121
20
2.5237868
40
3.9585294
50
107.8307628
51
139.5782791
0
ARC
8
DEFAULT_255_2_778
10
8.0632531
20
2.5012154
40
3.9808888
50
91.6628438
51
107.7702122
0
ARC
8
DEFAULT_255_2_778
10
8.0696728
20
2.4014686
40
4.0807814
50
89.9989151
51
91.7123026
0
ARC
8
DEFAULT_255_2_778
10
8.0735333
20
2.482908
40
3.9993437
50
74.9592121
51
90.0541994
0
ARC
8
DEFAULT_255_2_778
10
8.0832483
20
2.5314176
40
3.9499763
50
49.5331489
51
74.9127022
0
ARC
8
DEFAULT_255_2_778
10
8.0801326
20
2.5228957
40
3.958483
50
17.8308607
51
49.5788931
0
ARC
8
DEFAULT_255_2_778
10
8.057535
20
2.5200475
40
3.9808695
50
1.662844
51
17.7702931
0
ARC
8
DEFAULT_255_2_778
10
7.9577688
20
2.5136272
40
4.0807814
50
359.9989151
51
1.7123026
0
ARC
8
DEFAULT_255_2_778
10
8.0392193
20
2.509766
40
3.9993326
50
344.9591794
51
0.05421
0
ARC
8
DEFAULT_255_2_778
10
8.0877606
20
2.5000458
40
3.9499331
50
319.5327264
51
344.9126214
0
ARC
8
DEFAULT_255_2_778
10
8.0791769
20
2.5032261
40
3.9585286
50
287.8301403
51
319.57834
0
ARC
8
DEFAULT_255_2_778
10
8.0762544
20
2.5260298
40
3.9811341
50
271.6627163
51
287.7696917
0
ARC
8
DEFAULT_255_2_778
10
8.0698274
20
2.6259019
40
4.0811521
50
269.9989151
51
271.7122237
0
ARC
8
DEFAULT_255_2_778
10
8.0659699
20
2.5437946
40
3.9990465
50
254.9586392
51
270.0541605
0
ARC
8
DEFAULT_255_2_778
10
8.0563055
20
2.4954414
40
3.9498431
50
229.5320661
51
254.9120015
0
ARC
8
DEFAULT_255_2_778
10
8.0595719
20
2.5041308
40
3.958575
50
197.8300424
51
229.577726
0
ARC
8
DEFAULT_255_2_778
10
8.0823494
20
2.5070462
40
3.9811535
50
181.6627161
51
197.7696108
0
ARC
8
DEFAULT_255_2_778
10
8.1822021
20
2.5134726
40
4.0811521
50
179.9989151
51
181.7122237
0
LINE
8
DEFAULT_255_2_778
10
4.1010501
20
2.5135499
11
4.1010501
21
2.5135499
0
ARC
8
DEFAULT_255_2_778
10
8.1118989
20
2.5172303
40
2.6879348
50
160.8254051
51
180.0794725
0
ARC
8
DEFAULT_255_2_778
10
8.072308
20
2.5313484
40
2.6459032
50
102.4011316
51
160.8325785
0
ARC
8
DEFAULT_255_2_778
10
8.0679799
20
2.5172228
40
2.6587797
50
89.9614951
51
102.2446683
0
ARC
8
DEFAULT_255_2_778
10
8.0733139
20
2.5356325
40
2.6403719
50
70.2373298
51
90.0769738
0
ARC
8
DEFAULT_255_2_778
10
8.0626825
20
2.5274902
40
2.6516392
50
12.8696196
51
70.0806278
0
ARC
8
DEFAULT_255_2_778
10
8.0104192
20
2.5155541
40
2.7052482
50
359.9565382
51
12.869525
0
ARC
8
DEFAULT_255_2_778
10
8.0279015
20
2.5097783
40
2.6877678
50
340.8240638
51
0.0793803
0
ARC
8
DEFAULT_255_2_778
10
8.0672203
20
2.4957887
40
2.6460354
50
282.4007237
51
340.8305216
0
ARC
8
DEFAULT_255_2_778
10
8.0715513
20
2.5098457
40
2.6588442
50
269.9615441
51
282.2445217
0
ARC
8
DEFAULT_255_2_778
10
8.066214
20
2.4912708
40
2.6402712
50
250.2369464
51
270.0770971
0
ARC
8
DEFAULT_255_2_778
10
8.0768723
20
2.4994096
40
2.6515445
50
192.8677782
51
250.0796686
0
ARC
8
DEFAULT_255_2_778
10
8.129416
20
2.511449
40
2.7054499
50
179.9565226
51
192.86853
0
LINE
8
DEFAULT_255_2_778
10
5.4239667
20
2.513502
11
5.4239667
21
2.513502
0
LINE
8
DEFAULT_255_2_778
10
4.3656334
20
6.2176666
11
11.7739334
21
-1.1906334
0
LINE
8
DEFAULT_255_2_778
10
11.806997
20
6.250703
11
4.365597
21
-1.190697
0
ENDSEC
0
EOF