0
SECTION
2
HEADER
9
$MEASUREMENT
70
1
0
ENDSEC
0
SECTION
2
TABLES
0
TABLE
2
LTYPE
0
LTYPE
72
65
70
64
2
CONTINUOUS
3
______
73
0
40
0
0
ENDTAB
0
TABLE
2
LAYER
0
LAYER
2
DEFAULT_255_2_778
70
0
62
255
6
CONTINUOUS
0
ENDTAB
0
ENDSEC
0
SECTION
2
ENTITIES
0
LINE
8
DEFAULT_255_2_778
10
2.7781169
20
2.5135333
11
16.0073169
21
2.5135333
0
LINE
8
DEFAULT_255_2_778
10
16.0073169
20
2.5135333
11
16.0073169
21
-2.7781667
0
LINE
8
DEFAULT_255_2_778
10
16.0073169
20
-2.7781667
11
2.7781169
21
-2.7781667
0
LINE
8
DEFAULT_255_2_778
10
2.7781169
20
-2.7781667
11
2.7781169
21
2.5135333
0
LINE
8
DEFAULT_255_2_778
10
4.1010335
20
2.5135665
11
9.3927335
21
13.0968665
0
LINE
8
DEFAULT_255_2_778
10
9.3927335
20
13.0968665
11
14.6843335
21
2.5135665
0
LINE
8
DEFAULT_255_2_778
10
14.6843335
20
2.5135665
11
4.1010335
21
2.5135665
0
ARC
8
DEFAULT_255_2_778
10
6.7365164
20
3.2855392
40
0.7720754
50
270.7681205
51
295.6819612
0
ARC
8
DEFAULT_255_2_778
10
6.5458359
20
3.7058244
40
1.2335212
50
295.2036542
51
307.2934491
0
ARC
8
DEFAULT_255_2_778
10
6.1373744
20
4.2489932
40
1.9131253
50
307.1689806
51
315.4992995
0
ARC
8
DEFAULT_255_2_778
10
5.4434293
20
4.9352455
40
2.8890842
50
315.4385102
51
321.745332
0
ARC
8
DEFAULT_255_2_778
10
4.4337589
20
5.7366741
40
4.1781575
50
321.6878785
51
326.393276
0
ARC
8
DEFAULT_255_2_778
10
3.02653
20
6.6718813
40
5.8678042
50
326.3932078
51
330.6676734
0
ARC
8
DEFAULT_255_2_778
10
1.1392885
20
7.7349792
40
8.033873
50
330.6513412
51
334.3654088
0
ARC
8
DEFAULT_255_2_778
10
-1.5569161
20
9.0149734
40
11.0184652
50
334.4301643
51
339.5084183
0
ARC
8
DEFAULT_255_2_778
10
-3.0808502
20
9.6098242
40
12.6542316
50
339.4009847
51
340.4293073
0
ARC
8
DEFAULT_255_2_778
10
-3.3387678
20
9.7015771
40
12.9279834
50
340.4290516
51
342.9176687
0
ARC
8
DEFAULT_255_2_778
10
-2.7099484
20
9.5105867
40
12.2708029
50
342.9076377
51
344.9558763
0
ARC
8
DEFAULT_255_2_778
10
-1.3620433
20
9.1487112
40
10.8751664
50
344.9538037
51
346.7367711
0
ARC
8
DEFAULT_255_2_778
10
0.3096121
20
8.7558101
40
9.1579587
50
346.7298971
51
348.6157258
0
ARC
8
DEFAULT_255_2_778
10
2.0879993
20
8.3982113
40
7.3439749
50
348.612062
51
350.5624783
0
ARC
8
DEFAULT_255_2_778
10
3.7619724
20
8.1207807
40
5.6471682
50
350.5542688
51
352.7406623
0
ARC
8
DEFAULT_255_2_778
10
5.2670554
20
7.9301666
40
4.1300634
50
352.7254433
51
355.3352778
0
ARC
8
DEFAULT_255_2_778
10
6.5426706
20
7.8273043
40
2.8503085
50
355.3108005
51
358.56324
0
ARC
8
DEFAULT_255_2_778
10
7.2489097
20
7.8058681
40
2.1437571
50
358.6627049
51
359.9830326
0
ARC
8
DEFAULT_255_2_778
10
12.0489159
20
3.2856343
40
0.7721704
50
244.3196603
51
269.2320575
0
ARC
8
DEFAULT_255_2_778
10
12.2395778
20
3.7059025
40
1.2335931
50
232.7081468
51
244.7977713
0
ARC
8
DEFAULT_255_2_778
10
12.6479978
20
4.2490479
40
1.9131536
50
224.5021598
51
232.8326099
0
ARC
8
DEFAULT_255_2_778
10
13.3419136
20
4.9353045
40
2.8890948
50
218.2559923
51
224.5629244
0
ARC
8
DEFAULT_255_2_778
10
14.351518
20
5.7367101
40
4.1781021
50
213.6078209
51
218.3133505
0
ARC
8
DEFAULT_255_2_778
10
15.758489
20
6.6717859
40
5.8674613
50
209.3331398
51
213.6078991
0
ARC
8
DEFAULT_255_2_778
10
17.645738
20
7.7349255
40
8.0335571
50
205.6352474
51
209.3494865
0
ARC
8
DEFAULT_255_2_778
10
20.3417501
20
9.0148639
40
11.0179516
50
200.491972
51
205.5704823
0
ARC
8
DEFAULT_255_2_778
10
21.8640439
20
9.6091172
40
12.6519725
50
199.5709313
51
200.59944
0
ARC
8
DEFAULT_255_2_778
10
22.1237875
20
9.7015406
40
12.9276695
50
197.0825896
51
199.5712713
0
ARC
8
DEFAULT_255_2_778
10
21.4947796
20
9.5104916
40
12.2702916
50
195.0443059
51
197.0926319
0
ARC
8
DEFAULT_255_2_778
10
20.1466402
20
9.1485444
40
10.8744099
50
193.2632648
51
195.0463573
0
ARC
8
DEFAULT_255_2_778
10
18.475057
20
8.7556829
40
9.1572819
50
191.3843155
51
193.2702843
0
ARC
8
DEFAULT_255_2_778
10
16.6966809
20
8.398097
40
7.3433115
50
189.4374784
51
191.3880713
0
ARC
8
DEFAULT_255_2_778
10
15.0228358
20
8.1207088
40
5.646638
50
187.2592875
51
189.4458865
0
ARC
8
DEFAULT_255_2_778
10
13.5182782
20
7.9301666
40
4.1300635
50
184.6647222
51
187.2745567
0
ARC
8
DEFAULT_255_2_778
10
12.2426629
20
7.8273043
40
2.8503085
50
181.43676
51
184.6891995
0
ARC
8
DEFAULT_255_2_778
10
11.5364238
20
7.8058681
40
2.1437571
50
180.0169674
51
181.3372951
0
ENDSEC
0
EOF