0
SECTION
2
HEADER
9
$MEASUREMENT
70
1
0
ENDSEC
0
SECTION
2
TABLES
0
TABLE
2
LTYPE
0
LTYPE
72
65
70
64
2
CONTINUOUS
3
______
73
0
40
0
0
ENDTAB
0
TABLE
2
LAYER
0
LAYER
2
DEFAULT_255_2_778
70
0
62
255
6
CONTINUOUS
0
ENDTAB
0
ENDSEC
0
SECTION
2
ENTITIES
0
ARC
8
DEFAULT_255_2_778
10
8.1232224
20
2.517455
40
5.3450904
50
167.0932987
51
180.0427536
0
ARC
8
DEFAULT_255_2_778
10
8.0384011
20
2.5344489
40
5.2586169
50
148.3180854
51
167.0673517
0
ARC
8
DEFAULT_255_2_778
10
8.0612765
20
2.5214409
40
5.2849153
50
110.0832017
51
148.328327
0
ARC
8
DEFAULT_255_2_778
10
8.0557263
20
2.5215304
40
5.2829279
50
95.3310996
51
110.0270003
0
ARC
8
DEFAULT_255_2_778
10
8.0689635
20
2.4008221
40
5.4043445
50
89.9907771
51
95.3519304
0
ARC
8
DEFAULT_255_2_778
10
8.0738193
20
2.4603767
40
5.3447913
50
77.0929369
51
90.0427279
0
ARC
8
DEFAULT_255_2_778
10
8.0907745
20
2.5450391
40
5.2584813
50
58.3175703
51
77.0669583
0
ARC
8
DEFAULT_255_2_778
10
8.0776752
20
2.5220235
40
5.2849469
50
20.0830758
51
58.3277709
0
ARC
8
DEFAULT_255_2_778
10
8.0777634
20
2.5275698
40
5.2829621
50
5.3311072
51
20.02691
0
ARC
8
DEFAULT_255_2_778
10
7.957089
20
2.5143365
40
5.4043445
50
359.9907771
51
5.3519304
0
ARC
8
DEFAULT_255_2_778
10
8.0166283
20
2.5094815
40
5.3448067
50
347.0929653
51
0.0427185
0
ARC
8
DEFAULT_255_2_778
10
8.1012604
20
2.492533
40
5.2585278
50
328.3177859
51
347.0669902
0
ARC
8
DEFAULT_255_2_778
10
8.0782922
20
2.5055919
40
5.2849318
50
290.0836664
51
328.3280884
0
ARC
8
DEFAULT_255_2_778
10
8.0839234
20
2.5053043
40
5.2827306
50
275.3313078
51
290.0273754
0
ARC
8
DEFAULT_255_2_778
10
8.0707029
20
2.6258693
40
5.4040028
50
269.990782
51
275.3521003
0
ARC
8
DEFAULT_255_2_778
10
8.0658459
20
2.5669708
40
5.3451058
50
257.0933271
51
270.0427441
0
ARC
8
DEFAULT_255_2_778
10
8.0488586
20
2.4821799
40
5.2586634
50
238.318301
51
257.0673836
0
ARC
8
DEFAULT_255_2_778
10
8.0618263
20
2.5050079
40
5.2849002
50
200.0837923
51
238.3286446
0
ARC
8
DEFAULT_255_2_778
10
8.0615374
20
2.4993727
40
5.2826964
50
185.3313002
51
200.0274658
0
ARC
8
DEFAULT_255_2_778
10
8.1821363
20
2.5125971
40
5.4040028
50
179.990782
51
185.3521003
0
LINE
8
DEFAULT_255_2_778
10
2.7781335
20
2.5134665
11
2.7781335
21
2.5134665
0
ARC
8
DEFAULT_255_2_778
10
7.8675707
20
2.6589439
40
1.6977053
50
73.4893825
51
90.4717122
0
ARC
8
DEFAULT_255_2_778
10
7.9364398
20
2.9208679
40
1.4270339
50
60.1187499
51
73.1518137
0
ARC
8
DEFAULT_255_2_778
10
7.9799397
20
2.9951662
40
1.3409412
50
26.5000213
51
60.1487162
0
ARC
8
DEFAULT_255_2_778
10
7.6392314
20
2.8154742
40
1.7260532
50
6.5032077
51
26.791774
0
ARC
8
DEFAULT_255_2_778
10
7.1565951
20
2.7450694
40
2.2136108
50
0.1895235
51
6.8989396
0
ARC
8
DEFAULT_255_2_778
10
7.2614974
20
2.5194285
40
2.1087388
50
347.5016322
51
0.3630869
0
ARC
8
DEFAULT_255_2_778
10
7.7298221
20
2.4193114
40
1.6298497
50
333.0282667
51
347.3748499
0
ARC
8
DEFAULT_255_2_778
10
8.0001514
20
2.2708824
40
1.3216394
50
299.2530435
51
333.4477591
0
ARC
8
DEFAULT_255_2_778
10
7.890489
20
2.4816224
40
1.5591093
50
277.2025569
51
298.9846058
0
ARC
8
DEFAULT_255_2_778
10
7.8176568
20
2.9373015
40
2.0203809
50
270.4803209
51
277.6315067
0
ARC
8
DEFAULT_255_2_778
10
7.8267238
20
2.6239021
40
1.3362769
50
269.4284389
51
285.0624531
0
ARC
8
DEFAULT_255_2_778
10
7.9320036
20
2.2376111
40
0.9358994
50
284.9842965
51
318.1907862
0
ARC
8
DEFAULT_255_2_778
10
7.8313717
20
2.3145012
40
1.0622111
50
318.7180603
51
343.6796399
0
ARC
8
DEFAULT_255_2_778
10
7.3008362
20
2.480288
40
1.6179872
50
343.3247415
51
355.8534812
0
ARC
8
DEFAULT_255_2_778
10
6.6833725
20
2.5390029
40
2.2381235
50
355.4972783
51
0.0790698
0
ARC
8
DEFAULT_255_2_778
10
6.9132642
20
2.7553107
40
2.008268
50
359.6456824
51
9.8606852
0
ARC
8
DEFAULT_255_2_778
10
7.608059
20
2.8808509
40
1.3022466
50
9.6539038
51
26.2486268
0
ARC
8
DEFAULT_255_2_778
10
7.8803149
20
3.0075077
40
1.0020719
50
26.6382068
51
40.14679
0
ARC
8
DEFAULT_255_2_778
10
7.9525716
20
3.0623519
40
0.9114905
50
40.440012
51
81.3105464
0
ARC
8
DEFAULT_255_2_778
10
7.858082
20
2.6208522
40
1.3624595
50
80.1874998
51
89.6883109
0
LINE
8
DEFAULT_255_2_778
10
7.8345938
20
0.9169916
11
6.8825938
21
0.9169916
0
LINE
8
DEFAULT_255_2_778
10
6.8825938
20
0.9169916
11
6.8825938
21
4.3565916
0
LINE
8
DEFAULT_255_2_778
10
6.8825938
20
4.3565916
11
7.8535938
21
4.3565916
0
LINE
8
DEFAULT_255_2_778
10
9.3701938
20
2.7523916
11
9.3701938
21
2.5327916
0
LINE
8
DEFAULT_255_2_778
10
7.8345938
20
0.9169916
11
7.8345938
21
0.9169916
0
LINE
8
DEFAULT_255_2_778
10
7.8652938
20
3.9832916
11
7.3360938
21
3.9832916
0
LINE
8
DEFAULT_255_2_778
10
7.3360938
20
3.9832916
11
7.3360938
21
1.2876916
0
LINE
8
DEFAULT_255_2_778
10
7.3360938
20
1.2876916
11
7.8133938
21
1.2876916
0
LINE
8
DEFAULT_255_2_778
10
8.9214938
20
2.5420916
11
8.9214938
21
2.7428916
0
LINE
8
DEFAULT_255_2_778
10
7.8654938
20
3.9832916
11
7.8652938
21
3.9832916
0
ENDSEC
0
EOF