0
SECTION
2
HEADER
9
$MEASUREMENT
70
1
0
ENDSEC
0
SECTION
2
TABLES
0
TABLE
2
LTYPE
0
LTYPE
72
65
70
64
2
CONTINUOUS
3
______
73
0
40
0
0
ENDTAB
0
TABLE
2
LAYER
0
LAYER
2
DEFAULT_255_2_778
70
0
62
255
6
CONTINUOUS
0
ENDTAB
0
ENDSEC
0
SECTION
2
ENTITIES
0
LINE
8
DEFAULT_255_2_778
10
13.3614335
20
9.9218998
11
11.2448335
21
13.0968998
0
LINE
8
DEFAULT_255_2_778
10
11.2448335
20
13.0968998
11
4.8948335
21
13.0968998
0
LINE
8
DEFAULT_255_2_778
10
4.8948335
20
13.0968998
11
2.7781335
21
9.9218998
0
LINE
8
DEFAULT_255_2_778
10
2.7781335
20
9.9218998
11
2.7781335
21
-2.7781002
0
LINE
8
DEFAULT_255_2_778
10
2.7781335
20
-2.7781002
11
13.3614335
21
-2.7781002
0
LINE
8
DEFAULT_255_2_778
10
13.3614335
20
-2.7781002
11
13.3614335
21
9.9218998
0
LINE
8
DEFAULT_255_2_778
10
2.7781335
20
9.1281749
11
13.3614335
21
9.1281749
0
LINE
8
DEFAULT_255_2_778
10
2.7781335
20
5.1594749
11
13.3614335
21
5.1594749
0
ARC
8
DEFAULT_255_2_778
10
5.4893565
20
8.1366435
40
0.3299864
50
89.8759594
51
180.1240406
0
ARC
8
DEFAULT_255_2_778
10
5.4908637
20
8.1366221
40
0.330008
50
359.8796869
51
90.1376483
0
ARC
8
DEFAULT_255_2_778
10
5.4908424
20
8.1351576
40
0.3300294
50
269.8660543
51
0.1339493
0
ARC
8
DEFAULT_255_2_778
10
5.489378
20
8.1351364
40
0.3300079
50
179.8623578
51
270.1202983
0
LINE
8
DEFAULT_255_2_778
10
5.1593708
20
8.1359292
11
5.1593708
21
8.1359292
0
ARC
8
DEFAULT_255_2_778
10
8.1351565
20
8.1366435
40
0.3299864
50
89.8759594
51
180.1240406
0
ARC
8
DEFAULT_255_2_778
10
8.1366637
20
8.1366221
40
0.330008
50
359.8796869
51
90.1376483
0
ARC
8
DEFAULT_255_2_778
10
8.1366424
20
8.1351576
40
0.3300294
50
269.8660543
51
0.1339493
0
ARC
8
DEFAULT_255_2_778
10
8.135178
20
8.1351364
40
0.3300079
50
179.8623578
51
270.1202983
0
LINE
8
DEFAULT_255_2_778
10
7.8051708
20
8.1359292
11
7.8051708
21
8.1359292
0
ARC
8
DEFAULT_255_2_778
10
10.7810565
20
8.1366435
40
0.3299864
50
89.8759594
51
180.1240406
0
ARC
8
DEFAULT_255_2_778
10
10.7825637
20
8.1366221
40
0.330008
50
359.8796869
51
90.1376483
0
ARC
8
DEFAULT_255_2_778
10
10.7825424
20
8.1351576
40
0.3300294
50
269.8660543
51
0.1339493
0
ARC
8
DEFAULT_255_2_778
10
10.781078
20
8.1351364
40
0.3300079
50
179.8623578
51
270.1202983
0
LINE
8
DEFAULT_255_2_778
10
10.4510708
20
8.1359292
11
10.4510708
21
8.1359292
0
ARC
8
DEFAULT_255_2_778
10
4.1664565
20
6.2846435
40
0.3299864
50
89.8759594
51
180.1240406
0
ARC
8
DEFAULT_255_2_778
10
4.1679637
20
6.2846221
40
0.330008
50
359.8796869
51
90.1376483
0
ARC
8
DEFAULT_255_2_778
10
4.1679424
20
6.2831576
40
0.3300294
50
269.8660543
51
0.1339493
0
ARC
8
DEFAULT_255_2_778
10
4.166478
20
6.2831364
40
0.3300079
50
179.8623578
51
270.1202983
0
LINE
8
DEFAULT_255_2_778
10
3.8364708
20
6.2839292
11
3.8364708
21
6.2839292
0
ARC
8
DEFAULT_255_2_778
10
6.8122565
20
6.2846435
40
0.3299864
50
89.8759594
51
180.1240406
0
ARC
8
DEFAULT_255_2_778
10
6.8137637
20
6.2846221
40
0.330008
50
359.8796869
51
90.1376483
0
ARC
8
DEFAULT_255_2_778
10
6.8137424
20
6.2831576
40
0.3300294
50
269.8660543
51
0.1339493
0
ARC
8
DEFAULT_255_2_778
10
6.812278
20
6.2831364
40
0.3300079
50
179.8623578
51
270.1202983
0
LINE
8
DEFAULT_255_2_778
10
6.4822708
20
6.2839292
11
6.4822708
21
6.2839292
0
ARC
8
DEFAULT_255_2_778
10
9.4581565
20
6.2846435
40
0.3299864
50
89.8759594
51
180.1240406
0
ARC
8
DEFAULT_255_2_778
10
9.4596637
20
6.2846221
40
0.330008
50
359.8796869
51
90.1376483
0
ARC
8
DEFAULT_255_2_778
10
9.4596424
20
6.2831576
40
0.3300294
50
269.8660543
51
0.1339493
0
ARC
8
DEFAULT_255_2_778
10
9.458178
20
6.2831364
40
0.3300079
50
179.8623578
51
270.1202983
0
LINE
8
DEFAULT_255_2_778
10
9.1281708
20
6.2839292
11
9.1281708
21
6.2839292
0
ARC
8
DEFAULT_255_2_778
10
12.1039565
20
6.2846435
40
0.3299864
50
89.8759594
51
180.1240406
0
ARC
8
DEFAULT_255_2_778
10
12.1054637
20
6.2846221
40
0.330008
50
359.8796869
51
90.1376483
0
ARC
8
DEFAULT_255_2_778
10
12.1054424
20
6.2831576
40
0.3300294
50
269.8660543
51
0.1339493
0
ARC
8
DEFAULT_255_2_778
10
12.103978
20
6.2831364
40
0.3300079
50
179.8623578
51
270.1202983
0
LINE
8
DEFAULT_255_2_778
10
11.7739708
20
6.2839292
11
11.7739708
21
6.2839292
0
ENDSEC
0
EOF