0
SECTION
2
HEADER
9
$MEASUREMENT
70
1
0
ENDSEC
0
SECTION
2
TABLES
0
TABLE
2
LTYPE
0
LTYPE
72
65
70
64
2
CONTINUOUS
3
______
73
0
40
0
0
ENDTAB
0
TABLE
2
LAYER
0
LAYER
2
DEFAULT_255_2_778
70
0
62
255
6
CONTINUOUS
0
ENDTAB
0
ENDSEC
0
SECTION
2
ENTITIES
0
ARC
8
DEFAULT_255_2_778
10
6.7496802
20
9.1308668
40
1.3202532
50
58.7968675
51
90.1300552
0
ARC
8
DEFAULT_255_2_778
10
6.7501136
20
9.1317264
40
1.3192936
50
7.5665172
51
58.7936255
0
ARC
8
DEFAULT_255_2_778
10
6.7233926
20
9.128621
40
1.3461909
50
359.9827905
51
7.547783
0
ARC
8
DEFAULT_255_2_778
10
6.7493335
20
9.1252198
40
1.3202532
50
328.7968675
51
0.1300552
0
ARC
8
DEFAULT_255_2_778
10
6.7501931
20
9.1247864
40
1.3192936
50
277.5665172
51
328.7936255
0
ARC
8
DEFAULT_255_2_778
10
6.7470877
20
9.1515074
40
1.3461909
50
269.9827905
51
277.547783
0
ARC
8
DEFAULT_255_2_778
10
6.7436865
20
9.1255665
40
1.3202532
50
238.7968675
51
270.1300552
0
ARC
8
DEFAULT_255_2_778
10
6.7432532
20
9.1247069
40
1.3192936
50
187.5665172
51
238.7936255
0
ARC
8
DEFAULT_255_2_778
10
6.7699742
20
9.1278123
40
1.3461909
50
179.9827905
51
187.547783
0
ARC
8
DEFAULT_255_2_778
10
6.7440332
20
9.1312135
40
1.3202532
50
148.7968675
51
180.1300552
0
ARC
8
DEFAULT_255_2_778
10
6.7431736
20
9.1316468
40
1.3192936
50
97.5665172
51
148.7936255
0
ARC
8
DEFAULT_255_2_778
10
6.746279
20
9.1049258
40
1.3461909
50
89.9827905
51
97.547783
0
LINE
8
DEFAULT_255_2_778
10
6.7466834
20
10.4511166
11
6.7466834
21
10.4511166
0
ARC
8
DEFAULT_255_2_778
10
6.7496802
20
-1.4525332
40
1.3202532
50
58.7968675
51
90.1300552
0
ARC
8
DEFAULT_255_2_778
10
6.7501136
20
-1.4516736
40
1.3192936
50
7.5665172
51
58.7936255
0
ARC
8
DEFAULT_255_2_778
10
6.7233926
20
-1.454779
40
1.3461909
50
359.9827905
51
7.547783
0
ARC
8
DEFAULT_255_2_778
10
6.7493335
20
-1.4581802
40
1.3202532
50
328.7968675
51
0.1300552
0
ARC
8
DEFAULT_255_2_778
10
6.7501931
20
-1.4586136
40
1.3192936
50
277.5665172
51
328.7936255
0
ARC
8
DEFAULT_255_2_778
10
6.7470877
20
-1.4318926
40
1.3461909
50
269.9827905
51
277.547783
0
ARC
8
DEFAULT_255_2_778
10
6.7436865
20
-1.4578335
40
1.3202532
50
238.7968675
51
270.1300552
0
ARC
8
DEFAULT_255_2_778
10
6.7432532
20
-1.4586931
40
1.3192936
50
187.5665172
51
238.7936255
0
ARC
8
DEFAULT_255_2_778
10
6.7699742
20
-1.4555877
40
1.3461909
50
179.9827905
51
187.547783
0
ARC
8
DEFAULT_255_2_778
10
6.7440332
20
-1.4521865
40
1.3202532
50
148.7968675
51
180.1300552
0
ARC
8
DEFAULT_255_2_778
10
6.7431736
20
-1.4517532
40
1.3192936
50
97.5665172
51
148.7936255
0
ARC
8
DEFAULT_255_2_778
10
6.746279
20
-1.4784742
40
1.3461909
50
89.9827905
51
97.547783
0
LINE
8
DEFAULT_255_2_778
10
6.7466834
20
-0.1322834
11
6.7466834
21
-0.1322834
0
LINE
8
DEFAULT_255_2_778
10
8.0697
20
9.1281665
11
8.0697
21
-1.4551335
0
LINE
8
DEFAULT_255_2_778
10
5.4241
20
-1.4551335
11
5.4241
21
9.1281665
0
LINE
8
DEFAULT_255_2_778
10
7.6730459
20
10.0541791
11
10.7157459
21
7.8051791
0
LINE
8
DEFAULT_255_2_778
10
10.7157459
20
7.8051791
11
8.0699459
21
7.8051791
0
LINE
8
DEFAULT_255_2_778
10
5.4237459
20
-0.1322209
11
2.7779459
21
-0.1322209
0
LINE
8
DEFAULT_255_2_778
10
2.7779459
20
-0.1322209
11
5.8206459
21
-2.3812209
0
ENDSEC
0
EOF