0
SECTION
2
HEADER
9
$MEASUREMENT
70
1
0
ENDSEC
0
SECTION
2
TABLES
0
TABLE
2
LTYPE
0
LTYPE
72
65
70
64
2
CONTINUOUS
3
______
73
0
40
0
0
ENDTAB
0
TABLE
2
LAYER
0
LAYER
2
DEFAULT_255_2_778
70
0
62
255
6
CONTINUOUS
0
ENDTAB
0
ENDSEC
0
SECTION
2
ENTITIES
0
LINE
8
DEFAULT_255_2_778
10
2.7781667
20
5.1594
11
8.0698667
21
5.1594
0
LINE
8
DEFAULT_255_2_778
10
5.424
20
5.1593499
11
5.424
21
-2.7781501
0
ARC
8
DEFAULT_255_2_778
10
3.7527464
20
-1.9808733
40
5.4005741
50
54.8256553
51
56.3268196
0
ARC
8
DEFAULT_255_2_778
10
4.1752893
20
-1.3812046
40
4.6669903
50
53.2877531
51
54.824905
0
ARC
8
DEFAULT_255_2_778
10
4.5423715
20
-0.8888618
40
4.0528642
50
51.7173701
51
53.2870447
0
ARC
8
DEFAULT_255_2_778
10
4.89799
20
-0.4391981
40
3.479574
50
49.7087374
51
51.7266346
0
ARC
8
DEFAULT_255_2_778
10
5.2592455
20
-0.0136333
40
2.9213528
50
47.3360915
51
49.7156463
0
ARC
8
DEFAULT_255_2_778
10
5.5862492
20
0.3411785
40
2.4388357
50
44.8133236
51
47.3362022
0
ARC
8
DEFAULT_255_2_778
10
5.8793879
20
0.6319574
40
2.0259403
50
41.8349516
51
44.8224694
0
ARC
8
DEFAULT_255_2_778
10
6.1480941
20
0.8722196
40
1.6654838
50
38.414363
51
41.8422297
0
ARC
8
DEFAULT_255_2_778
10
6.3944047
20
1.0669851
40
1.3514738
50
34.1724432
51
38.4329114
0
ARC
8
DEFAULT_255_2_778
10
6.613844
20
1.2157479
40
1.0863626
50
29.252201
51
34.1817742
0
ARC
8
DEFAULT_255_2_778
10
6.8021812
20
1.3208395
40
0.8706893
50
23.1636285
51
29.2746929
0
ARC
8
DEFAULT_255_2_778
10
6.9635989
20
1.3894755
40
0.6952859
50
15.3200718
51
23.1959424
0
ARC
8
DEFAULT_255_2_778
10
7.0937091
20
1.4247114
40
0.5604896
50
4.6443214
51
15.3602187
0
ARC
8
DEFAULT_255_2_778
10
7.1555528
20
1.4310533
40
0.4983374
50
0.0186503
51
4.4932894
0
ARC
8
DEFAULT_255_2_778
10
7.1569847
20
1.4361475
40
0.49693
50
319.0478053
51
359.4313415
0
ARC
8
DEFAULT_255_2_778
10
6.9131763
20
1.6266488
40
0.8060854
50
307.8620721
51
320.1795793
0
ARC
8
DEFAULT_255_2_778
10
6.6702427
20
1.9348926
40
1.1985474
50
299.4982601
51
307.9866101
0
ARC
8
DEFAULT_255_2_778
10
6.411002
20
2.3889709
40
1.7214144
50
293.1992418
51
299.5664474
0
ARC
8
DEFAULT_255_2_778
10
6.1447332
20
3.0075495
40
2.3948665
50
287.9013841
51
293.2246486
0
ARC
8
DEFAULT_255_2_778
10
5.890054
20
3.7911313
40
3.2187963
50
283.4681163
51
287.9279484
0
ARC
8
DEFAULT_255_2_778
10
5.6729944
20
4.6927976
40
4.1462209
50
279.4845804
51
283.4831587
0
ARC
8
DEFAULT_255_2_778
10
5.507406
20
5.6861271
40
5.1532576
50
275.1845618
51
279.4805979
0
ARC
8
DEFAULT_255_2_778
10
5.4274457
20
6.5554089
40
6.0262085
50
269.968221
51
275.1948414
0
ARC
8
DEFAULT_255_2_778
10
5.4193331
20
6.5092622
40
5.9800627
50
264.1274092
51
270.0456575
0
ARC
8
DEFAULT_255_2_778
10
5.3206085
20
5.5375823
40
5.0033814
50
259.9560727
51
264.1135243
0
ARC
8
DEFAULT_255_2_778
10
5.1427693
20
4.5366456
40
3.986769
50
255.7254049
51
259.9639356
0
ARC
8
DEFAULT_255_2_778
10
4.9093902
20
3.6223565
40
3.0431645
50
251.0358618
51
255.7392993
0
ARC
8
DEFAULT_255_2_778
10
4.6464012
20
2.8599394
40
2.2366648
50
245.4989918
51
251.0601215
0
ARC
8
DEFAULT_255_2_778
10
4.3776252
20
2.2724769
40
1.5906374
50
238.7048935
51
245.5331266
0
ARC
8
DEFAULT_255_2_778
10
4.120086
20
1.8514054
40
1.0970535
50
229.6671397
51
238.7750931
0
ARC
8
DEFAULT_255_2_778
10
3.8836943
20
1.5759763
40
0.7340982
50
216.1074401
51
229.8182058
0
ARC
8
DEFAULT_255_2_778
10
3.6801924
20
1.4337249
40
0.4858832
50
180.2945042
51
216.6967156
0
ARC
8
DEFAULT_255_2_778
10
3.7156613
20
1.4299971
40
0.5213472
50
168.8886818
51
179.8647788
0
ARC
8
DEFAULT_255_2_778
10
3.8164768
20
1.4105174
40
0.6240268
50
160.889004
51
168.9175362
0
ARC
8
DEFAULT_255_2_778
10
3.9475451
20
1.3653545
40
0.7626578
50
154.4145997
51
160.9068766
0
ARC
8
DEFAULT_255_2_778
10
4.1057537
20
1.2899896
40
0.9378996
50
149.1985752
51
154.435888
0
ARC
8
DEFAULT_255_2_778
10
4.2826745
20
1.1850291
40
1.1436118
50
145.0607366
51
149.2205826
0
ARC
8
DEFAULT_255_2_778
10
4.4825766
20
1.0454774
40
1.3874059
50
141.3219559
51
145.0643167
0
ARC
8
DEFAULT_255_2_778
10
4.7089799
20
0.8646365
40
1.6771676
50
138.173717
51
141.3326192
0
ARC
8
DEFAULT_255_2_778
10
4.9606596
20
0.639598
40
2.0147843
50
135.3415452
51
138.1778921
0
ARC
8
DEFAULT_255_2_778
10
5.2380469
20
0.3659103
40
2.4044617
50
132.9086785
51
135.3485304
0
ARC
8
DEFAULT_255_2_778
10
5.5132663
20
0.0707322
40
2.8080401
50
131.071654
51
132.9212264
0
ARC
8
DEFAULT_255_2_778
10
5.7864699
20
-0.2426332
40
3.2237782
50
129.372824
51
131.0731342
0
LINE
8
DEFAULT_255_2_778
10
4.1011397
20
2.5135393
11
3.9400397
21
1.8989393
0
LINE
8
DEFAULT_255_2_778
10
3.9400397
20
1.8989393
11
3.4662397
21
2.5358393
0
LINE
8
DEFAULT_255_2_778
10
3.4662397
20
2.5358393
11
4.1011397
21
2.5135393
0
ENDSEC
0
EOF