0
SECTION
2
HEADER
9
$MEASUREMENT
70
1
0
ENDSEC
0
SECTION
2
TABLES
0
TABLE
2
LTYPE
0
LTYPE
72
65
70
64
2
CONTINUOUS
3
______
73
0
40
0
0
ENDTAB
0
TABLE
2
LAYER
0
LAYER
2
DEFAULT_255_2_778
70
0
62
255
6
CONTINUOUS
0
ENDTAB
0
ENDSEC
0
SECTION
2
ENTITIES
0
LINE
8
DEFAULT_255_2_778
10
8.0698834
20
-2.7780834
11
9.3927834
21
-0.1322834
0
LINE
8
DEFAULT_255_2_778
10
9.3927834
20
-0.1322834
11
10.7156834
21
-2.7780834
0
LINE
8
DEFAULT_255_2_778
10
10.7156834
20
-2.7780834
11
8.0698834
21
-2.7780834
0
LINE
8
DEFAULT_255_2_778
10
2.7784834
20
1.1906166
11
5.4242834
21
1.1906166
0
LINE
8
DEFAULT_255_2_778
10
5.4242834
20
1.1906166
11
5.4242834
21
-1.4551834
0
LINE
8
DEFAULT_255_2_778
10
5.4242834
20
-1.4551834
11
2.7784834
21
-1.4551834
0
LINE
8
DEFAULT_255_2_778
10
2.7784834
20
-1.4551834
11
2.7784834
21
1.1906166
0
LINE
8
DEFAULT_255_2_778
10
5.4251501
20
-0.1322417
11
13.3626501
21
-0.1322417
0
LINE
8
DEFAULT_255_2_778
10
13.3626501
20
-0.1322417
11
13.3626501
21
1.1906583
0
ARC
8
DEFAULT_255_2_778
10
9.3901332
20
2.5166135
40
1.3202532
50
148.7968675
51
180.1300552
0
ARC
8
DEFAULT_255_2_778
10
9.3892736
20
2.5170468
40
1.3192936
50
97.5665172
51
148.7936255
0
ARC
8
DEFAULT_255_2_778
10
9.392379
20
2.4903258
40
1.3461909
50
89.9827905
51
97.547783
0
ARC
8
DEFAULT_255_2_778
10
9.3957802
20
2.5162668
40
1.3202532
50
58.7968675
51
90.1300552
0
ARC
8
DEFAULT_255_2_778
10
9.3962136
20
2.5171264
40
1.3192936
50
7.5665172
51
58.7936255
0
ARC
8
DEFAULT_255_2_778
10
9.3694926
20
2.514021
40
1.3461909
50
359.9827905
51
7.547783
0
ARC
8
DEFAULT_255_2_778
10
9.3954335
20
2.5106198
40
1.3202532
50
328.7968675
51
0.1300552
0
ARC
8
DEFAULT_255_2_778
10
9.3962931
20
2.5101864
40
1.3192936
50
277.5665172
51
328.7936255
0
ARC
8
DEFAULT_255_2_778
10
9.3931877
20
2.5369074
40
1.3461909
50
269.9827905
51
277.547783
0
ARC
8
DEFAULT_255_2_778
10
9.3897865
20
2.5109665
40
1.3202532
50
238.7968675
51
270.1300552
0
ARC
8
DEFAULT_255_2_778
10
9.3893532
20
2.5101069
40
1.3192936
50
187.5665172
51
238.7936255
0
ARC
8
DEFAULT_255_2_778
10
9.4160742
20
2.5132123
40
1.3461909
50
179.9827905
51
187.547783
0
LINE
8
DEFAULT_255_2_778
10
8.0698834
20
2.5136166
11
8.0698834
21
2.5136166
0
ARC
8
DEFAULT_255_2_778
10
18.6506332
20
2.5166135
40
1.3202532
50
148.7968675
51
180.1300552
0
ARC
8
DEFAULT_255_2_778
10
18.6497736
20
2.5170468
40
1.3192936
50
97.5665172
51
148.7936255
0
ARC
8
DEFAULT_255_2_778
10
18.652879
20
2.4903258
40
1.3461909
50
89.9827905
51
97.547783
0
ARC
8
DEFAULT_255_2_778
10
18.6562802
20
2.5162668
40
1.3202532
50
58.7968675
51
90.1300552
0
ARC
8
DEFAULT_255_2_778
10
18.6567136
20
2.5171264
40
1.3192936
50
7.5665172
51
58.7936255
0
ARC
8
DEFAULT_255_2_778
10
18.6299926
20
2.514021
40
1.3461909
50
359.9827905
51
7.547783
0
ARC
8
DEFAULT_255_2_778
10
18.6559335
20
2.5106198
40
1.3202532
50
328.7968675
51
0.1300552
0
ARC
8
DEFAULT_255_2_778
10
18.6567931
20
2.5101864
40
1.3192936
50
277.5665172
51
328.7936255
0
ARC
8
DEFAULT_255_2_778
10
18.6536877
20
2.5369074
40
1.3461909
50
269.9827905
51
277.547783
0
ARC
8
DEFAULT_255_2_778
10
18.6502865
20
2.5109665
40
1.3202532
50
238.7968675
51
270.1300552
0
ARC
8
DEFAULT_255_2_778
10
18.6498532
20
2.5101069
40
1.3192936
50
187.5665172
51
238.7936255
0
ARC
8
DEFAULT_255_2_778
10
18.6765742
20
2.5132123
40
1.3461909
50
179.9827905
51
187.547783
0
LINE
8
DEFAULT_255_2_778
10
17.3303834
20
2.5136166
11
17.3303834
21
2.5136166
0
LINE
8
DEFAULT_255_2_778
10
9.3922752
20
3.8365
11
21.2984752
21
3.8365
0
LINE
8
DEFAULT_255_2_778
10
9.3922752
20
1.1906
11
21.2984752
21
1.1906
0
ENDSEC
0
EOF