0
SECTION
2
HEADER
9
$MEASUREMENT
70
1
0
ENDSEC
0
SECTION
2
TABLES
0
TABLE
2
LTYPE
0
LTYPE
72
65
70
64
2
CONTINUOUS
3
______
73
0
40
0
0
ENDTAB
0
TABLE
2
LAYER
0
LAYER
2
DEFAULT_255_2_778
70
0
62
255
6
CONTINUOUS
0
LAYER
2
DEFAULT_255_1_542
70
0
62
255
6
CONTINUOUS
0
LAYER
2
DEFAULT_255_1_696
70
0
62
255
6
CONTINUOUS
0
ENDTAB
0
ENDSEC
0
SECTION
2
ENTITIES
0
LINE
8
DEFAULT_255_2_778
10
2.7781169
20
10.4510831
11
16.0073169
21
10.4510831
0
LINE
8
DEFAULT_255_2_778
10
16.0073169
20
10.4510831
11
16.0073169
21
-2.7781169
0
LINE
8
DEFAULT_255_2_778
10
16.0073169
20
-2.7781169
11
2.7781169
21
-2.7781169
0
LINE
8
DEFAULT_255_2_778
10
2.7781169
20
-2.7781169
11
2.7781169
21
10.4510831
0
LINE
8
DEFAULT_255_2_778
10
9.3927084
20
10.4510916
11
2.7781084
21
3.8364916
0
LINE
8
DEFAULT_255_2_778
10
2.7781169
20
3.8364916
11
9.3927169
21
-2.7781084
0
LINE
8
DEFAULT_255_2_778
10
9.3927169
20
-2.7781084
11
16.0073169
21
3.8364916
0
LINE
8
DEFAULT_255_2_778
10
16.0073084
20
3.8364916
11
9.3927084
21
10.4510916
0
LINE
8
DEFAULT_255_1_542
10
7.7321844
20
7.1327544
11
7.3878278
21
7.1327544
0
LINE
8
DEFAULT_255_1_542
10
7.3878278
20
7.1327544
11
7.3878278
21
6.5605
0
LINE
8
DEFAULT_255_1_542
10
7.3878278
20
6.5605
11
7.1950684
21
6.5605
0
LINE
8
DEFAULT_255_1_542
10
7.1950684
20
6.5605
11
7.1950684
21
8.0222586
0
LINE
8
DEFAULT_255_1_542
10
7.1950684
20
8.0222586
11
7.7341923
21
8.0222586
0
LINE
8
DEFAULT_255_1_542
10
7.3878278
20
7.8636337
11
7.3878278
21
7.2903753
0
LINE
8
DEFAULT_255_1_542
10
7.3878278
20
7.2903753
11
7.7341923
21
7.2903753
0
LINE
8
DEFAULT_255_1_542
10
7.7452358
20
7.8636337
11
7.3878278
21
7.8636337
0
ARC
8
DEFAULT_255_1_542
10
7.7394578
20
7.2648832
40
0.7573937
50
78.8379024
51
90.3983322
0
ARC
8
DEFAULT_255_1_542
10
7.7914598
20
7.5174741
40
0.4995185
50
58.9632826
51
79.0811119
0
ARC
8
DEFAULT_255_1_542
10
7.8291499
20
7.5874512
40
0.420144
50
48.0197659
51
58.447113
0
ARC
8
DEFAULT_255_1_542
10
7.8402583
20
7.5981402
40
0.4047696
50
3.3375401
51
48.1766223
0
ARC
8
DEFAULT_255_1_542
10
7.6864686
20
7.5760085
40
0.5597411
50
359.9478076
51
4.6827734
0
ARC
8
DEFAULT_255_1_542
10
7.7019021
20
7.5706907
40
0.5443285
50
346.1879214
51
0.506085
0
ARC
8
DEFAULT_255_1_542
10
7.8717592
20
7.5265812
40
0.3688594
50
310.8833205
51
346.5424876
0
ARC
8
DEFAULT_255_1_542
10
7.8331867
20
7.5787047
40
0.4335418
50
286.6926998
51
310.2286806
0
ARC
8
DEFAULT_255_1_542
10
7.7620456
20
7.8024621
40
0.6683156
50
274.6849679
51
287.0246002
0
ARC
8
DEFAULT_255_1_542
10
7.7338872
20
8.0785331
40
0.9457801
50
269.8968424
51
275.0191136
0
ARC
8
DEFAULT_255_1_542
10
7.7373324
20
7.8187281
40
0.528362
50
269.6594817
51
279.4149781
0
ARC
8
DEFAULT_255_1_542
10
7.7694922
20
7.6323796
40
0.3392652
50
279.2050677
51
294.9901195
0
ARC
8
DEFAULT_255_1_542
10
7.8057843
20
7.5514253
40
0.250561
50
295.2886717
51
311.2910845
0
ARC
8
DEFAULT_255_1_542
10
7.814645
20
7.5382662
40
0.2348354
50
311.7853809
51
347.2859623
0
ARC
8
DEFAULT_255_1_542
10
7.6916598
20
7.5698753
40
0.3617812
50
346.6893825
51
0.1057687
0
ARC
8
DEFAULT_255_1_542
10
7.6021299
20
7.5734869
40
0.4513202
50
359.6262822
51
0.000478
0
ARC
8
DEFAULT_255_1_542
10
7.7185614
20
7.5766041
40
0.334903
50
359.4673412
51
15.59318
0
ARC
8
DEFAULT_255_1_542
10
7.7966781
20
7.5977097
40
0.2539892
50
15.7441833
51
46.6202232
0
ARC
8
DEFAULT_255_1_542
10
7.7782086
20
7.5764269
40
0.2821457
50
46.8626485
51
75.6678532
0
ARC
8
DEFAULT_255_1_542
10
7.7414331
20
7.4440622
40
0.419504
50
75.2765457
51
88.2913852
0
ARC
8
DEFAULT_255_1_542
10
7.734235
20
7.3372924
40
0.5264563
50
87.8548062
51
88.8026665
0
LINE
8
DEFAULT_255_1_542
10
8.6859417
20
8.0222586
11
8.6859417
21
6.7181209
0
LINE
8
DEFAULT_255_1_542
10
8.6859417
20
6.7181209
11
9.3786707
21
6.7181209
0
LINE
8
DEFAULT_255_1_542
10
9.3786707
20
6.7181209
11
9.3786707
21
6.5605
0
LINE
8
DEFAULT_255_1_542
10
9.3786707
20
6.5605
11
8.4921784
21
6.5605
0
LINE
8
DEFAULT_255_1_542
10
8.4921784
20
6.5605
11
8.4921784
21
8.0222586
0
LINE
8
DEFAULT_255_1_542
10
8.4921784
20
8.0222586
11
8.6859417
21
8.0222586
0
LINE
8
DEFAULT_255_1_542
10
10.4147523
20
7.0243272
11
10.6085157
21
7.0243272
0
LINE
8
DEFAULT_255_1_542
10
9.483082
20
7.2231104
11
9.483082
21
7.3636641
0
LINE
8
DEFAULT_255_1_542
10
10.6085157
20
7.5524076
11
10.4147523
21
7.5524076
0
LINE
8
DEFAULT_255_1_542
10
9.6768454
20
7.3586443
11
9.6768454
21
7.2170866
0
ARC
8
DEFAULT_255_1_542
10
9.9234409
20
7.0989767
40
0.6891299
50
340.1774147
51
353.7812794
0
ARC
8
DEFAULT_255_1_542
10
10.1198621
20
7.0258184
40
0.4795438
50
311.4559763
51
340.4421016
0
ARC
8
DEFAULT_255_1_542
10
10.1156979
20
7.0396835
40
0.4927293
50
282.4333213
51
310.7514614
0
ARC
8
DEFAULT_255_1_542
10
10.0607902
20
7.2665692
40
0.7261312
50
269.9358912
51
282.8097679
0
ARC
8
DEFAULT_255_1_542
10
10.0543392
20
7.4436114
40
0.9031904
50
269.9995731
51
270.3576918
0
ARC
8
DEFAULT_255_1_542
10
10.0477275
20
7.1236965
40
0.583313
50
250.7885288
51
270.64879
0
ARC
8
DEFAULT_255_1_542
10
10.0267071
20
7.0440359
40
0.5012123
50
219.3628105
51
250.0611223
0
ARC
8
DEFAULT_255_1_542
10
10.1303584
20
7.1321245
40
0.6372226
50
193.5480076
51
219.5756006
0
ARC
8
DEFAULT_255_1_542
10
10.4268095
20
7.2091077
40
0.9434742
50
181.1219103
51
193.8756096
0
ARC
8
DEFAULT_255_1_542
10
10.685561
20
7.2229468
40
1.202479
50
179.992207
51
181.539793
0
ARC
8
DEFAULT_255_1_542
10
10.4542228
20
7.3683383
40
0.971152
50
169.5837897
51
180.2757729
0
ARC
8
DEFAULT_255_1_542
10
10.22458
20
7.4107699
40
0.737622
50
155.0365401
51
169.6003724
0
ARC
8
DEFAULT_255_1_542
10
10.0826425
20
7.4791996
40
0.5800685
50
136.7830748
51
155.2472741
0
ARC
8
DEFAULT_255_1_542
10
10.0339592
20
7.5205524
40
0.516283
50
121.7633554
51
136.4279411
0
ARC
8
DEFAULT_255_1_542
10
10.0508253
20
7.4893906
40
0.55166
50
95.6459842
51
121.5490041
0
ARC
8
DEFAULT_255_1_542
10
10.0704856
20
7.3508815
40
0.6914568
50
89.9242542
51
96.1380403
0
ARC
8
DEFAULT_255_1_542
10
10.0767882
20
7.3656767
40
0.6766824
50
76.6779819
51
90.4562582
0
ARC
8
DEFAULT_255_1_542
10
10.1259916
20
7.564503
40
0.4718734
50
47.485792
51
76.9287314
0
ARC
8
DEFAULT_255_1_542
10
10.1076125
20
7.5520071
40
0.4935308
50
16.5424722
51
46.8933499
0
ARC
8
DEFAULT_255_1_542
10
9.9066324
20
7.4859705
40
0.7050206
50
5.4072542
51
17.0365088
0
ARC
8
DEFAULT_255_1_542
10
9.7268068
20
7.4570843
40
0.6945182
50
7.8888078
51
15.9240569
0
ARC
8
DEFAULT_255_1_542
10
9.9751433
20
7.5291948
40
0.4359284
50
15.7651464
51
27.9410453
0
ARC
8
DEFAULT_255_1_542
10
10.113155
20
7.6030797
40
0.2793856
50
27.8169831
51
46.4004407
0
ARC
8
DEFAULT_255_1_542
10
10.1193667
20
7.6023688
40
0.2756618
50
47.4373518
51
75.0695431
0
ARC
8
DEFAULT_255_1_542
10
10.0807962
20
7.468092
40
0.4153515
50
74.7008998
51
87.8127331
0
ARC
8
DEFAULT_255_1_542
10
10.071631
20
7.3361964
40
0.5475165
50
87.3811029
51
90.0242051
0
ARC
8
DEFAULT_255_1_542
10
10.0668241
20
7.4832713
40
0.4004677
50
89.3453494
51
108.5745375
0
ARC
8
DEFAULT_255_1_542
10
10.0497118
20
7.5474764
40
0.334183
50
109.299931
51
143.3037934
0
ARC
8
DEFAULT_255_1_542
10
10.1449634
20
7.4742269
40
0.4543328
50
143.0751731
51
163.1918359
0
ARC
8
DEFAULT_255_1_542
10
10.3889496
20
7.3972328
40
0.7101666
50
162.9375564
51
174.6207661
0
ARC
8
DEFAULT_255_1_542
10
10.717228
20
7.3612412
40
1.0403857
50
174.342223
51
180.143018
0
ARC
8
DEFAULT_255_1_542
10
10.6008253
20
7.2119539
40
0.9239942
50
179.6817246
51
189.1505457
0
ARC
8
DEFAULT_255_1_542
10
10.2882407
20
7.1598921
40
0.6071106
50
188.9911224
51
203.5773021
0
ARC
8
DEFAULT_255_1_542
10
10.1532703
20
7.1038885
40
0.4610145
50
203.9076169
51
215.1314611
0
ARC
8
DEFAULT_255_1_542
10
10.0379214
20
7.0144886
40
0.3153048
50
213.9073051
51
263.8848042
0
ARC
8
DEFAULT_255_1_542
10
10.0535866
20
7.1125554
40
0.4145141
50
263.1758004
51
270.1030999
0
ARC
8
DEFAULT_255_1_542
10
10.0575966
20
7.2684408
40
0.5704083
50
269.6721232
51
279.0605848
0
ARC
8
DEFAULT_255_1_542
10
10.090942
20
7.066859
40
0.3660924
50
278.8752106
51
293.6347628
0
ARC
8
DEFAULT_255_1_542
10
10.1309731
20
6.9728511
40
0.2639233
50
293.8551066
51
310.052109
0
ARC
8
DEFAULT_255_1_542
10
10.1315767
20
6.9650585
40
0.2576101
50
311.0646631
51
332.0109299
0
ARC
8
DEFAULT_255_1_542
10
9.9825445
20
7.0472413
40
0.4277877
50
331.6587937
51
343.2878571
0
ARC
8
DEFAULT_255_1_542
10
9.7246955
20
7.126477
40
0.6975332
50
343.1448522
51
351.0103991
0
ARC
8
DEFAULT_255_1_542
10
9.5265887
20
7.1624865
40
0.8988452
50
350.7164123
51
351.1581547
0
LINE
8
DEFAULT_255_2_778
10
4.1672064
20
5.1594
11
14.6844064
21
5.1594
0
LINE
8
DEFAULT_255_2_778
10
4.1010335
20
2.5136
11
14.6843335
21
2.5136
0
LINE
8
DEFAULT_255_1_696
10
9.077668
20
1.4857578
11
9.077668
21
-0.1299
0
LINE
8
DEFAULT_255_1_696
10
9.077668
20
-0.1299
11
8.8722597
21
-0.1299
0
LINE
8
DEFAULT_255_1_696
10
8.8722597
20
-0.1299
11
8.8722597
21
1.2317583
0
LINE
8
DEFAULT_255_1_696
10
8.8722597
20
1.2317583
11
8.4603388
21
1.0804629
0
LINE
8
DEFAULT_255_1_696
10
8.4603388
20
1.0804629
11
8.4603388
21
1.265993
0
LINE
8
DEFAULT_255_1_696
10
8.4603388
20
1.265993
11
9.045642
21
1.4857578
0
LINE
8
DEFAULT_255_1_696
10
9.045642
20
1.4857578
11
9.077668
21
1.4857578
0
ENDSEC
0
EOF