0
SECTION
2
HEADER
9
$MEASUREMENT
70
1
0
ENDSEC
0
SECTION
2
TABLES
0
TABLE
2
LTYPE
0
LTYPE
72
65
70
64
2
CONTINUOUS
3
______
73
0
40
0
0
ENDTAB
0
TABLE
2
LAYER
0
LAYER
2
DEFAULT_255_2_778
70
0
62
255
6
CONTINUOUS
0
ENDTAB
0
ENDSEC
0
SECTION
2
ENTITIES
0
ARC
8
DEFAULT_255_2_778
10
8.0905946
20
2.4821259
40
5.2586723
50
284.9010867
51
304.836266
0
ARC
8
DEFAULT_255_2_778
10
8.0772446
20
2.5423139
40
5.3202699
50
271.8320516
51
284.8733404
0
ARC
8
DEFAULT_255_2_778
10
8.0699428
20
2.6640948
40
5.442223
50
269.9987374
51
271.8678974
0
ARC
8
DEFAULT_255_2_778
10
8.065751
20
2.5672406
40
5.3453703
50
257.0519987
51
270.0436455
0
ARC
8
DEFAULT_255_2_778
10
8.0481555
20
2.4800161
40
5.2564217
50
238.5340898
51
257.0258816
0
ARC
8
DEFAULT_255_2_778
10
8.0577297
20
2.4966883
40
5.2756398
50
235.175823
51
238.5399151
0
ARC
8
DEFAULT_255_2_778
10
8.0607041
20
2.5043946
40
5.2836648
50
200.5226942
51
235.1970668
0
ARC
8
DEFAULT_255_2_778
10
8.0587929
20
2.4987312
40
5.2798915
50
185.7752732
51
200.4724082
0
ARC
8
DEFAULT_255_2_778
10
8.1778495
20
2.5124711
40
5.3997268
50
179.9893814
51
185.793204
0
ARC
8
DEFAULT_255_2_778
10
8.1251987
20
2.5240179
40
5.3470862
50
180.0000063
51
180.1130049
0
ARC
8
DEFAULT_255_2_778
10
8.0592975
20
2.524023
40
5.2811852
50
135.000198
51
180.0000614
0
ARC
8
DEFAULT_255_2_778
10
8.0592717
20
2.5239971
40
5.281185
50
89.9999386
51
134.999802
0
ARC
8
DEFAULT_255_2_778
10
8.0592767
20
2.458096
40
5.3470864
50
89.8869951
51
89.9999937
0
ARC
8
DEFAULT_255_2_778
10
8.0803689
20
2.458096
40
5.3470862
50
90.0000063
51
90.1130049
0
ARC
8
DEFAULT_255_2_778
10
8.080374
20
2.5239971
40
5.2811852
50
45.000198
51
90.0000614
0
ARC
8
DEFAULT_255_2_778
10
8.0807618
20
2.5243342
40
5.2806725
50
0.0006243
51
45.0005869
0
ARC
8
DEFAULT_255_2_778
10
8.0374599
20
2.5243923
40
5.3239742
50
359.8824747
51
359.9999936
0
ARC
8
DEFAULT_255_2_778
10
8.0170076
20
2.5094784
40
5.3444167
50
347.0789651
51
0.0428114
0
ARC
8
DEFAULT_255_2_778
10
8.1008513
20
2.4927322
40
5.2589518
50
328.3189917
51
347.0525357
0
ARC
8
DEFAULT_255_2_778
10
8.0735943
20
2.5094181
40
5.2909103
50
314.9569832
51
328.320244
0
ARC
8
DEFAULT_255_2_778
10
8.0702455
20
2.5145333
40
5.2968962
50
304.8166883
51
314.9435209
0
LINE
8
DEFAULT_255_2_778
10
11.0945228
20
-1.8341282
11
11.0945228
21
-1.8341282
0
LINE
8
DEFAULT_255_2_778
10
3.4996522
20
-0.1323564
11
5.9049522
21
7.3241436
0
LINE
8
DEFAULT_255_2_778
10
10.2346522
20
7.3241436
11
12.6399522
21
-0.1323564
0
ARC
8
DEFAULT_255_2_778
10
5.2782517
20
1.5848014
40
0.9921955
50
251.3515894
51
265.0962793
0
ARC
8
DEFAULT_255_2_778
10
5.2888274
20
1.6871401
40
1.095065
50
265.0026795
51
270.0334074
0
ARC
8
DEFAULT_255_2_778
10
5.2786128
20
1.9505958
40
1.3585639
50
270.4577222
51
285.1073361
0
ARC
8
DEFAULT_255_2_778
10
5.1103412
20
2.5949033
40
2.0244673
50
284.952564
51
294.4196377
0
ARC
8
DEFAULT_255_2_778
10
4.7178644
20
3.4699641
40
2.9835066
50
294.3351766
51
301.1179939
0
ARC
8
DEFAULT_255_2_778
10
4.0699782
20
4.553002
40
4.2455328
50
301.0497363
51
305.8921592
0
ARC
8
DEFAULT_255_2_778
10
3.1227248
20
5.8654866
40
5.8641439
50
305.8719486
51
309.8370687
0
ARC
8
DEFAULT_255_2_778
10
1.7691814
20
7.4916786
40
7.9799358
50
309.8198006
51
313.0745938
0
ARC
8
DEFAULT_255_2_778
10
-0.0369911
20
9.427981
40
10.6278632
50
313.0581429
51
315.6936218
0
ARC
8
DEFAULT_255_2_778
10
-2.2970842
20
11.6384053
40
13.7891903
50
315.680537
51
317.8167669
0
ARC
8
DEFAULT_255_2_778
10
-4.0827529
20
13.2712959
40
16.2088687
50
317.7782706
51
318.4174616
0
ARC
8
DEFAULT_255_2_778
10
11.6711401
20
-16.0103039
40
18.8760589
50
101.0863802
51
102.7970461
0
ARC
8
DEFAULT_255_2_778
10
10.6911321
20
-11.6998377
40
14.4555914
50
102.7934603
51
104.7344503
0
ARC
8
DEFAULT_255_2_778
10
9.7637753
20
-8.1861367
40
10.8215755
50
104.7175724
51
107.2068486
0
ARC
8
DEFAULT_255_2_778
10
8.8690885
20
-5.3063549
40
7.8060163
50
107.1867381
51
110.3371598
0
ARC
8
DEFAULT_255_2_778
10
8.0531496
20
-3.1110837
40
5.4640162
50
110.3148953
51
114.2489645
0
ARC
8
DEFAULT_255_2_778
10
7.3173267
20
-1.4860515
40
3.680159
50
114.1945307
51
119.5733172
0
ARC
8
DEFAULT_255_2_778
10
6.657858
20
-0.331481
40
2.3505313
50
119.4823187
51
127.1284655
0
ARC
8
DEFAULT_255_2_778
10
6.0974072
20
0.4019899
40
1.4274621
50
126.9634014
51
138.5723934
0
ARC
8
DEFAULT_255_2_778
10
5.6569364
20
0.78388
40
0.8445293
50
138.2257455
51
158.8200925
0
ARC
8
DEFAULT_255_2_778
10
5.4674712
20
0.8645576
40
0.6387498
50
159.4277781
51
179.9719567
0
ARC
8
DEFAULT_255_2_778
10
5.4948866
20
0.8654357
40
0.6661654
50
180.0486322
51
188.019611
0
ARC
8
DEFAULT_255_2_778
10
5.5288164
20
0.8695157
40
0.7003327
50
187.9628788
51
188.6160242
0
LINE
8
DEFAULT_255_2_778
10
4.8363873
20
0.7645976
11
4.9609873
21
0.6446976
0
LINE
8
DEFAULT_255_2_778
10
4.9609873
20
0.6446976
11
4.9609873
21
0.6446976
0
ARC
8
DEFAULT_255_2_778
10
8.6370429
20
5.3343226
40
1.0273553
50
131.5395844
51
152.2334368
0
ARC
8
DEFAULT_255_2_778
10
8.9205217
20
5.1807477
40
1.3497437
50
152.0709885
51
163.089293
0
ARC
8
DEFAULT_255_2_778
10
9.3677508
20
5.0426028
40
1.8178193
50
163.0237035
51
170.9403223
0
ARC
8
DEFAULT_255_2_778
10
9.9906927
20
4.9413831
40
2.4489289
50
170.8966505
51
176.9434139
0
ARC
8
DEFAULT_255_2_778
10
10.6474401
20
4.9011491
40
3.1068916
50
176.8483009
51
180.0476261
0
ARC
8
DEFAULT_255_2_778
10
11.4534113
20
4.9055342
40
3.912868
50
180.1020264
51
184.3852816
0
ARC
8
DEFAULT_255_2_778
10
12.6489137
20
4.9952928
40
5.1117339
50
184.3638089
51
187.7912131
0
ARC
8
DEFAULT_255_2_778
10
14.0130996
20
5.1795257
40
6.4883022
50
187.7700036
51
190.4110403
0
ARC
8
DEFAULT_255_2_778
10
15.6222929
20
5.4752801
40
8.1244481
50
190.4116757
51
192.874514
0
ARC
8
DEFAULT_255_2_778
10
17.5294081
20
5.9091929
40
10.0803026
50
192.863531
51
194.8630768
0
ARC
8
DEFAULT_255_2_778
10
19.7422423
20
6.4963637
40
12.3697139
50
194.8626641
51
196.7216816
0
ARC
8
DEFAULT_255_2_778
10
22.3693704
20
7.2844791
40
15.1125093
50
196.7175257
51
198.340886
0
ARC
8
DEFAULT_255_2_778
10
23.870616
20
7.7741557
40
16.6915815
50
198.3148147
51
198.4162013
0
ARC
8
DEFAULT_255_2_778
10
-10.4292017
20
8.8221576
40
19.5151718
50
341.1004414
51
342.3516444
0
ARC
8
DEFAULT_255_2_778
10
-7.2193247
20
7.8003692
40
16.1465872
50
342.3535821
51
343.6183106
0
ARC
8
DEFAULT_255_2_778
10
-4.437834
20
6.984502
40
13.2479106
50
343.6108242
51
345.1892523
0
ARC
8
DEFAULT_255_2_778
10
-1.9024138
20
6.3152026
40
10.6256375
50
345.183537
51
347.0348852
0
ARC
8
DEFAULT_255_2_778
10
0.2921819
20
5.8111273
40
8.3738957
50
347.0270183
51
349.2308876
0
ARC
8
DEFAULT_255_2_778
10
2.1676444
20
5.4557356
40
6.4650584
50
349.2193592
51
351.8927583
0
ARC
8
DEFAULT_255_2_778
10
3.6995018
20
5.2381332
40
4.9178228
50
351.8857146
51
354.973708
0
ARC
8
DEFAULT_255_2_778
10
4.9612005
20
5.1291898
40
3.6514317
50
354.942064
51
359.0279665
0
ARC
8
DEFAULT_255_2_778
10
5.599615
20
5.1126804
40
3.0128343
50
359.1359236
51
359.9958533
0
ARC
8
DEFAULT_255_2_778
10
6.1342988
20
5.1185255
40
2.478158
50
359.8598174
51
5.0728652
0
ARC
8
DEFAULT_255_2_778
10
6.8559057
20
5.1841056
40
1.7535793
50
5.023302
51
11.9198543
0
ARC
8
DEFAULT_255_2_778
10
7.3828999
20
5.2971122
40
1.2146089
50
11.8385866
51
21.458304
0
ARC
8
DEFAULT_255_2_778
10
7.732779
20
5.4368072
40
0.8378807
50
21.3203296
51
36.1195952
0
ARC
8
DEFAULT_255_2_778
10
7.8902945
20
5.5510794
40
0.6432815
50
36.1679902
51
68.8912624
0
LINE
8
DEFAULT_255_2_778
10
8.1219653
20
6.1511958
11
7.9560653
21
6.1029958
0
LINE
8
DEFAULT_255_2_778
10
7.9560653
20
6.1029958
11
7.9557653
21
6.1032958
0
ARC
8
DEFAULT_255_2_778
10
10.8330111
20
1.5848014
40
0.9921955
50
274.9037207
51
288.6484106
0
ARC
8
DEFAULT_255_2_778
10
10.8224354
20
1.6871401
40
1.095065
50
269.9665926
51
274.9973205
0
ARC
8
DEFAULT_255_2_778
10
10.83265
20
1.9505958
40
1.3585639
50
254.8926639
51
269.5422778
0
ARC
8
DEFAULT_255_2_778
10
11.0009216
20
2.5949033
40
2.0244673
50
245.5803623
51
255.047436
0
ARC
8
DEFAULT_255_2_778
10
11.3933983
20
3.4699641
40
2.9835066
50
238.8820061
51
245.6648234
0
ARC
8
DEFAULT_255_2_778
10
12.0412846
20
4.553002
40
4.2455328
50
234.1078408
51
238.9502637
0
ARC
8
DEFAULT_255_2_778
10
12.988538
20
5.8654866
40
5.8641439
50
230.1629313
51
234.1280514
0
ARC
8
DEFAULT_255_2_778
10
14.3420814
20
7.4916786
40
7.9799358
50
226.9254062
51
230.1801994
0
ARC
8
DEFAULT_255_2_778
10
16.1482539
20
9.427981
40
10.6278632
50
224.3063782
51
226.9418571
0
ARC
8
DEFAULT_255_2_778
10
18.408347
20
11.6384053
40
13.7891903
50
222.1832331
51
224.319463
0
ARC
8
DEFAULT_255_2_778
10
20.1940157
20
13.2712959
40
16.2088687
50
221.5825384
51
222.2217294
0
ARC
8
DEFAULT_255_2_778
10
4.4398982
20
-16.0130754
40
18.8788219
50
77.204097
51
78.9145685
0
ARC
8
DEFAULT_255_2_778
10
5.4199278
20
-11.7020832
40
14.4578366
50
75.2669046
51
77.207654
0
ARC
8
DEFAULT_255_2_778
10
6.347507
20
-8.1872009
40
10.8226219
50
72.7946755
51
75.2837841
0
ARC
8
DEFAULT_255_2_778
10
7.242169
20
-5.3072601
40
7.8069182
50
69.6647114
51
72.8148526
0
ARC
8
DEFAULT_255_2_778
10
8.058132
20
-3.1116944
40
5.4646334
50
65.7532274
51
69.6869399
0
ARC
8
DEFAULT_255_2_778
10
8.794022
20
-1.4863471
40
3.6804613
50
60.4292252
51
65.8076553
0
ARC
8
DEFAULT_255_2_778
10
9.4535283
20
-0.3315914
40
2.350654
50
52.8744383
51
60.5202279
0
ARC
8
DEFAULT_255_2_778
10
10.0140034
20
0.4019921
40
1.4274804
50
41.4307233
51
53.0394295
0
ARC
8
DEFAULT_255_2_778
10
10.4545205
20
0.7839649
40
0.8444587
50
21.1821848
51
41.7774225
0
ARC
8
DEFAULT_255_2_778
10
10.6440128
20
0.8646633
40
0.638646
50
0.0281375
51
20.5742733
0
ARC
8
DEFAULT_255_2_778
10
10.6165672
20
0.8655454
40
0.6660919
50
351.9707063
51
359.9511012
0
ARC
8
DEFAULT_255_2_778
10
10.5870067
20
0.8689901
40
0.6958441
50
351.3717459
51
352.0298264
0
LINE
8
DEFAULT_255_2_778
10
11.2749755
20
0.7645976
11
11.1502755
21
0.6446976
0
LINE
8
DEFAULT_255_2_778
10
11.1502755
20
0.6446976
11
11.1502755
21
0.6446976
0
ENDSEC
0
EOF