0
SECTION
2
HEADER
9
$MEASUREMENT
70
1
0
ENDSEC
0
SECTION
2
TABLES
0
TABLE
2
LTYPE
0
LTYPE
72
65
70
64
2
CONTINUOUS
3
______
73
0
40
0
0
ENDTAB
0
TABLE
2
LAYER
0
LAYER
2
DEFAULT_255_2_778
70
0
62
255
6
CONTINUOUS
0
ENDTAB
0
ENDSEC
0
SECTION
2
ENTITIES
0
LINE
8
DEFAULT_255_2_778
10
2.7781169
20
-2.1167
11
16.0073169
21
-2.1167
0
LINE
8
DEFAULT_255_2_778
10
12.0385667
20
-3.4395834
11
12.0385667
21
-0.7937834
0
LINE
8
DEFAULT_255_2_778
10
12.0385667
20
-0.7937834
11
6.7468667
21
-3.4395834
0
LINE
8
DEFAULT_255_2_778
10
6.7468667
20
-3.4395834
11
6.7468667
21
-0.7937834
0
LINE
8
DEFAULT_255_2_778
10
6.7468667
20
-0.7937834
11
12.0385667
21
-3.4395834
0
LINE
8
DEFAULT_255_2_778
10
9.3927
20
-2.1166667
11
9.3927
21
3.1750333
0
LINE
8
DEFAULT_255_2_778
10
8.0697834
20
4.4979
11
10.7155834
21
4.4979
0
ARC
8
DEFAULT_255_2_778
10
9.2756372
20
4.2449618
40
1.4920431
50
139.2739899
51
170.2375423
0
ARC
8
DEFAULT_255_2_778
10
9.476687
20
4.0791737
40
1.7525822
50
107.8084907
51
139.4548709
0
ARC
8
DEFAULT_255_2_778
10
9.4270166
20
4.2251673
40
1.598395
50
100.7622479
51
107.7138497
0
ARC
8
DEFAULT_255_2_778
10
9.3985982
20
4.3804228
40
1.4405642
50
91.8616483
51
100.8049227
0
ARC
8
DEFAULT_255_2_778
10
9.3927884
20
4.4909567
40
1.3299016
50
90.003807
51
91.7661805
0
ARC
8
DEFAULT_255_2_778
10
9.3901266
20
4.414737
40
1.4061237
50
80.7831028
51
89.8951401
0
ARC
8
DEFAULT_255_2_778
10
9.3751039
20
4.3065865
40
1.5152862
50
79.2839804
51
80.8774036
0
ARC
8
DEFAULT_255_2_778
10
9.3247035
20
4.1074284
40
1.7203881
50
54.0163483
51
78.8680198
0
ARC
8
DEFAULT_255_2_778
10
9.4211427
20
4.1975546
40
1.5909938
50
16.9721382
51
54.9196919
0
ARC
8
DEFAULT_255_2_778
10
9.5681226
20
4.2626095
40
1.4315558
50
9.4624224
51
16.1989732
0
LINE
8
DEFAULT_255_2_778
10
10.9802
20
4.4979583
11
7.8052
21
4.4979583
0
LINE
8
DEFAULT_255_2_778
10
10.9802
20
4.4979583
11
10.9802
21
4.4979583
0
LINE
8
DEFAULT_255_2_778
10
8.0697834
20
4.4979
11
10.7155834
21
4.4979
0
ARC
8
DEFAULT_255_2_778
10
9.2756372
20
4.7508548
40
1.4920431
50
189.7624577
51
220.7260101
0
ARC
8
DEFAULT_255_2_778
10
9.476687
20
4.916643
40
1.7525822
50
220.5451291
51
252.1915093
0
ARC
8
DEFAULT_255_2_778
10
9.4270166
20
4.7706493
40
1.598395
50
252.2861503
51
259.2377521
0
ARC
8
DEFAULT_255_2_778
10
9.3985982
20
4.6153939
40
1.4405642
50
259.1950773
51
268.1383517
0
ARC
8
DEFAULT_255_2_778
10
9.3927884
20
4.5048599
40
1.3299016
50
268.2338195
51
269.996193
0
ARC
8
DEFAULT_255_2_778
10
9.3901266
20
4.5810796
40
1.4061237
50
270.1048599
51
279.2168972
0
ARC
8
DEFAULT_255_2_778
10
9.3751039
20
4.6892301
40
1.5152862
50
279.1225964
51
280.7160196
0
ARC
8
DEFAULT_255_2_778
10
9.3247035
20
4.8883882
40
1.7203881
50
281.1319802
51
305.9836517
0
ARC
8
DEFAULT_255_2_778
10
9.4211427
20
4.7982621
40
1.5909938
50
305.0803081
51
343.0278618
0
ARC
8
DEFAULT_255_2_778
10
9.5681226
20
4.7332071
40
1.4315558
50
343.8010268
51
350.5375776
0
LINE
8
DEFAULT_255_2_778
10
10.9802
20
4.4978583
11
7.8052
21
4.4978583
0
LINE
8
DEFAULT_255_2_778
10
10.9802
20
4.4978583
11
10.9802
21
4.4978583
0
ENDSEC
0
EOF