0
SECTION
2
HEADER
9
$MEASUREMENT
70
1
0
ENDSEC
0
SECTION
2
TABLES
0
TABLE
2
LTYPE
0
LTYPE
72
65
70
64
2
CONTINUOUS
3
______
73
0
40
0
0
ENDTAB
0
TABLE
2
LAYER
0
LAYER
2
DEFAULT_255_2_778
70
0
62
255
6
CONTINUOUS
0
ENDTAB
0
ENDSEC
0
SECTION
2
ENTITIES
0
LINE
8
DEFAULT_255_2_778
10
6.7468501
20
-0.1322834
11
5.4239501
21
-2.7780834
0
LINE
8
DEFAULT_255_2_778
10
5.4239501
20
-2.7780834
11
13.3614501
21
-2.7780834
0
LINE
8
DEFAULT_255_2_778
10
13.3614501
20
-2.7780834
11
12.0385501
21
-0.1322834
0
LINE
8
DEFAULT_255_2_778
10
12.0385501
20
-0.1322834
11
6.7468501
21
-0.1322834
0
LINE
8
DEFAULT_255_2_778
10
5.4239501
20
15.7426998
11
13.3614501
21
15.7426998
0
LINE
8
DEFAULT_255_2_778
10
13.3614501
20
15.7426998
11
13.3614501
21
-0.1323002
0
LINE
8
DEFAULT_255_2_778
10
13.3614501
20
-0.1323002
11
5.4239501
21
-0.1323002
0
LINE
8
DEFAULT_255_2_778
10
5.4239501
20
-0.1323002
11
5.4239501
21
15.7426998
0
LINE
8
DEFAULT_255_2_778
10
5.4238834
20
7.8052
11
2.7780834
21
7.8052
0
LINE
8
DEFAULT_255_2_778
10
2.7781
20
10.4510333
11
2.7781
21
5.1593333
0
LINE
8
DEFAULT_255_2_778
10
13.3614834
20
7.8052
11
16.0072834
21
7.8052
0
LINE
8
DEFAULT_255_2_778
10
16.0073
20
10.4510333
11
16.0073
21
5.1593333
0
ARC
8
DEFAULT_255_2_778
10
9.4028952
20
10.8515268
40
2.6560309
50
160.7095027
51
180.0775207
0
ARC
8
DEFAULT_255_2_778
10
9.3868206
20
10.8534241
40
2.6402344
50
102.0301591
51
160.6331218
0
ARC
8
DEFAULT_255_2_778
10
9.3909006
20
10.8180408
40
2.6756931
50
89.9621802
51
101.9576865
0
ARC
8
DEFAULT_255_2_778
10
9.3963411
20
10.8383235
40
2.6554123
50
70.3567975
51
90.0792807
0
ARC
8
DEFAULT_255_2_778
10
9.3981767
20
10.8536929
40
2.6403224
50
11.9023555
51
70.2821965
0
ARC
8
DEFAULT_255_2_778
10
9.3626547
20
10.8496699
40
2.6759126
50
359.9628159
51
11.829777
0
ARC
8
DEFAULT_255_2_778
10
9.3833283
20
10.8442623
40
2.655241
50
340.3554002
51
0.0792127
0
ARC
8
DEFAULT_255_2_778
10
9.3984203
20
10.8425583
40
2.6404568
50
281.9019784
51
340.2801285
0
ARC
8
DEFAULT_255_2_778
10
9.3944012
20
10.8780109
40
2.6759781
50
269.962864
51
281.8296308
0
ARC
8
DEFAULT_255_2_778
10
9.3889903
20
10.8571704
40
2.6551397
50
250.3550189
51
270.0793355
0
ARC
8
DEFAULT_255_2_778
10
9.3873162
20
10.8420794
40
2.6403665
50
191.9001656
51
250.2791382
0
ARC
8
DEFAULT_255_2_778
10
9.4230473
20
10.8461979
40
2.676181
50
179.9628467
51
191.8287004
0
LINE
8
DEFAULT_255_2_778
10
6.7468667
20
10.8479333
11
6.7468667
21
10.8479333
0
ARC
8
DEFAULT_255_2_778
10
9.4028952
20
4.2369268
40
2.6560309
50
160.7095027
51
180.0775207
0
ARC
8
DEFAULT_255_2_778
10
9.3868206
20
4.2388241
40
2.6402344
50
102.0301591
51
160.6331218
0
ARC
8
DEFAULT_255_2_778
10
9.3909006
20
4.2034408
40
2.6756931
50
89.9621802
51
101.9576865
0
ARC
8
DEFAULT_255_2_778
10
9.3963411
20
4.2237235
40
2.6554123
50
70.3567975
51
90.0792807
0
ARC
8
DEFAULT_255_2_778
10
9.3981767
20
4.2390929
40
2.6403224
50
11.9023555
51
70.2821965
0
ARC
8
DEFAULT_255_2_778
10
9.3626547
20
4.2350699
40
2.6759126
50
359.9628159
51
11.829777
0
ARC
8
DEFAULT_255_2_778
10
9.3833283
20
4.2296623
40
2.655241
50
340.3554002
51
0.0792127
0
ARC
8
DEFAULT_255_2_778
10
9.3984203
20
4.2279583
40
2.6404568
50
281.9019784
51
340.2801285
0
ARC
8
DEFAULT_255_2_778
10
9.3944012
20
4.2634109
40
2.6759781
50
269.962864
51
281.8296308
0
ARC
8
DEFAULT_255_2_778
10
9.3889903
20
4.2425704
40
2.6551397
50
250.3550189
51
270.0793355
0
ARC
8
DEFAULT_255_2_778
10
9.3873162
20
4.2274794
40
2.6403665
50
191.9001656
51
250.2791382
0
ARC
8
DEFAULT_255_2_778
10
9.4230473
20
4.2315979
40
2.676181
50
179.9628467
51
191.8287004
0
LINE
8
DEFAULT_255_2_778
10
6.7468667
20
4.2333333
11
6.7468667
21
4.2333333
0
LINE
8
DEFAULT_255_2_778
10
12.0385667
20
30.2947499
11
12.0385667
21
22.3572499
0
LINE
8
DEFAULT_255_2_778
10
12.0385667
20
22.3572499
11
6.7468667
21
22.3572499
0
LINE
8
DEFAULT_255_2_778
10
6.7468667
20
22.3572499
11
6.7468667
21
30.2947499
0
LINE
8
DEFAULT_255_2_778
10
6.7468667
20
30.2947499
11
12.0385667
21
30.2947499
0
ARC
8
DEFAULT_255_2_778
10
9.9173055
20
30.307671
40
2.1213005
50
359.65123
51
9.5002523
0
ARC
8
DEFAULT_255_2_778
10
10.6660174
20
30.4373825
40
1.361455
50
9.316927
51
24.7855627
0
ARC
8
DEFAULT_255_2_778
10
11.0079068
20
30.5910395
40
0.9866502
50
25.0077098
51
73.5324207
0
ARC
8
DEFAULT_255_2_778
10
10.7942504
20
29.9867854
40
1.6270309
50
72.3490177
51
85.036967
0
ARC
8
DEFAULT_255_2_778
10
10.7202129
20
29.2934784
40
2.3241846
50
84.6972656
51
90.1145376
0
ARC
8
DEFAULT_255_2_778
10
8.0568561
20
29.4962277
40
2.1214699
50
89.651313
51
99.4995419
0
ARC
8
DEFAULT_255_2_778
10
7.9271358
20
30.2450387
40
1.3615254
50
99.3161539
51
114.7838841
0
ARC
8
DEFAULT_255_2_778
10
7.7734257
20
30.5870391
40
0.9865973
50
115.0053053
51
163.5305431
0
ARC
8
DEFAULT_255_2_778
10
8.3775109
20
30.3734339
40
1.6268022
50
162.3477554
51
175.0365692
0
ARC
8
DEFAULT_255_2_778
10
9.0706929
20
30.2994042
40
2.3238308
50
174.6968603
51
180.1145488
0
LINE
8
DEFAULT_255_2_778
10
10.7155667
20
31.6176583
11
8.0697667
21
31.6176583
0
LINE
8
DEFAULT_255_2_778
10
6.7468667
20
30.2947583
11
12.0385667
21
30.2947583
0
ARC
8
DEFAULT_255_2_778
10
9.9173055
20
22.3443456
40
2.1213005
50
350.4997477
51
0.34877
0
ARC
8
DEFAULT_255_2_778
10
10.6660174
20
22.2146341
40
1.361455
50
335.2144373
51
350.683073
0
ARC
8
DEFAULT_255_2_778
10
11.0079068
20
22.0609772
40
0.9866502
50
286.4675793
51
334.9922902
0
ARC
8
DEFAULT_255_2_778
10
10.7942504
20
22.6652312
40
1.6270309
50
274.963033
51
287.6509823
0
ARC
8
DEFAULT_255_2_778
10
10.7202129
20
23.3585383
40
2.3241846
50
269.8854624
51
275.3027344
0
ARC
8
DEFAULT_255_2_778
10
8.0568561
20
23.1557889
40
2.1214699
50
260.5004581
51
270.348687
0
ARC
8
DEFAULT_255_2_778
10
7.9271358
20
22.4069779
40
1.3615254
50
245.2161159
51
260.6838461
0
ARC
8
DEFAULT_255_2_778
10
7.7734257
20
22.0649775
40
0.9865973
50
196.4694569
51
244.9946947
0
ARC
8
DEFAULT_255_2_778
10
8.3775109
20
22.2785827
40
1.6268022
50
184.9634308
51
197.6522446
0
ARC
8
DEFAULT_255_2_778
10
9.0706929
20
22.3526124
40
2.3238308
50
179.8854512
51
185.3031397
0
LINE
8
DEFAULT_255_2_778
10
10.7155667
20
21.0343583
11
8.0697667
21
21.0343583
0
LINE
8
DEFAULT_255_2_778
10
6.7468667
20
22.3572583
11
12.0385667
21
22.3572583
0
LINE
8
DEFAULT_255_2_778
10
9.3927
20
21.0343333
11
9.3927
21
15.7426333
0
ENDSEC
0
EOF