0
SECTION
2
HEADER
9
$MEASUREMENT
70
1
0
ENDSEC
0
SECTION
2
TABLES
0
TABLE
2
LTYPE
0
LTYPE
72
65
70
64
2
CONTINUOUS
3
______
73
0
40
0
0
ENDTAB
0
TABLE
2
LAYER
0
LAYER
2
DEFAULT_255_2_778
70
0
62
255
6
CONTINUOUS
0
ENDTAB
0
ENDSEC
0
SECTION
2
ENTITIES
0
LINE
8
DEFAULT_255_2_778
10
25.2677251
20
8.4667
11
29.2364251
21
8.4667
0
LINE
8
DEFAULT_255_2_778
10
29.2365
20
10.4510749
11
29.2365
21
6.4823749
0
LINE
8
DEFAULT_255_2_778
10
12.0385169
20
-3.4396169
11
25.2677169
21
-3.4396169
0
LINE
8
DEFAULT_255_2_778
10
25.2677169
20
-3.4396169
11
18.1239169
21
9.7895831
0
LINE
8
DEFAULT_255_2_778
10
18.1239169
20
9.7895831
11
12.0385169
21
-3.4396169
0
ARC
8
DEFAULT_255_2_778
10
18.5701689
20
4.6319144
40
6.4796742
50
96.297934
51
110.0684157
0
ARC
8
DEFAULT_255_2_778
10
18.6124697
20
4.5590192
40
6.5626751
50
110.1969218
51
153.5306731
0
ARC
8
DEFAULT_255_2_778
10
18.6584122
20
4.5286593
40
6.6173369
50
153.4726612
51
168.3063474
0
ARC
8
DEFAULT_255_2_778
10
18.7904832
20
4.5028558
40
6.7518969
50
168.3190765
51
179.6680286
0
ARC
8
DEFAULT_255_2_778
10
18.9177698
20
4.4979315
40
6.8792112
50
179.6331588
51
180.0004031
0
ARC
8
DEFAULT_255_2_778
10
18.7975612
20
4.4937077
40
6.759004
50
179.9646052
51
191.2796351
0
ARC
8
DEFAULT_255_2_778
10
18.6600664
20
4.4677781
40
6.6190935
50
191.2923151
51
206.0549791
0
ARC
8
DEFAULT_255_2_778
10
18.6135034
20
4.4378301
40
6.5641115
50
205.9986584
51
249.5718232
0
ARC
8
DEFAULT_255_2_778
10
18.5696696
20
4.3619984
40
6.4777658
50
249.7010431
51
263.5468914
0
ARC
8
DEFAULT_255_2_778
10
18.5854878
20
4.4927397
40
6.6094565
50
263.5380144
51
270.0127492
0
ARC
8
DEFAULT_255_2_778
10
18.5909416
20
4.4451986
40
6.5619166
50
269.9652219
51
281.595436
0
ARC
8
DEFAULT_255_2_778
10
18.6079254
20
4.3498859
40
6.4651357
50
281.6177742
51
297.8269117
0
ARC
8
DEFAULT_255_2_778
10
18.5455929
20
4.4504325
40
6.5831573
50
297.8981854
51
336.3523659
0
ARC
8
DEFAULT_255_2_778
10
18.5052447
20
4.470647
40
6.6282261
50
336.3321993
51
350.3272747
0
ARC
8
DEFAULT_255_2_778
10
18.3612382
20
4.4946658
40
6.774221
50
350.3316609
51
0.0272119
0
ARC
8
DEFAULT_255_2_778
10
11.964793
20
4.5119154
40
13.170673
50
359.9389559
51
0.3755187
0
ARC
8
DEFAULT_255_2_778
10
18.6616578
20
4.5566519
40
6.4736589
50
0.3680457
51
2.0945367
0
ARC
8
DEFAULT_255_2_778
10
20.0087434
20
4.6058648
40
5.1256745
50
2.0951392
51
5.0578157
0
ARC
8
DEFAULT_255_2_778
10
20.9959161
20
4.6983351
40
4.1341965
50
4.9874096
51
10.7801013
0
ARC
8
DEFAULT_255_2_778
10
21.8114199
20
4.8498496
40
3.3047471
50
10.8441
51
15.5996501
0
ARC
8
DEFAULT_255_2_778
10
22.182917
20
4.9499561
40
2.9200166
50
15.6679666
51
17.351127
0
LINE
8
DEFAULT_255_2_778
10
18.5869585
20
11.1124831
11
17.8593585
21
11.1124831
0
LINE
8
DEFAULT_255_2_778
10
17.8593585
20
11.1124831
11
17.8593585
21
11.0724831
0
LINE
8
DEFAULT_255_2_778
10
24.9700585
20
5.8207831
11
26.5906585
21
5.8207831
0
LINE
8
DEFAULT_255_2_778
10
26.5906585
20
5.8207831
11
26.5906585
21
11.1124831
0
LINE
8
DEFAULT_255_2_778
10
26.5906585
20
11.1124831
11
18.5869585
21
11.1124831
0
LINE
8
DEFAULT_255_2_778
10
18.6531
20
11.1124499
11
18.6531
21
19.0499499
0
ARC
8
DEFAULT_255_2_778
10
18.6504332
20
4.5009135
40
1.3202532
50
148.7968675
51
180.1300552
0
ARC
8
DEFAULT_255_2_778
10
18.6495736
20
4.5013468
40
1.3192936
50
97.5665172
51
148.7936255
0
ARC
8
DEFAULT_255_2_778
10
18.652679
20
4.4746258
40
1.3461909
50
89.9827905
51
97.547783
0
ARC
8
DEFAULT_255_2_778
10
18.6560802
20
4.5005668
40
1.3202532
50
58.7968675
51
90.1300552
0
ARC
8
DEFAULT_255_2_778
10
18.6565136
20
4.5014264
40
1.3192936
50
7.5665172
51
58.7936255
0
ARC
8
DEFAULT_255_2_778
10
18.6297926
20
4.498321
40
1.3461909
50
359.9827905
51
7.547783
0
ARC
8
DEFAULT_255_2_778
10
18.6557335
20
4.4949198
40
1.3202532
50
328.7968675
51
0.1300552
0
ARC
8
DEFAULT_255_2_778
10
18.6565931
20
4.4944864
40
1.3192936
50
277.5665172
51
328.7936255
0
ARC
8
DEFAULT_255_2_778
10
18.6534877
20
4.5212074
40
1.3461909
50
269.9827905
51
277.547783
0
ARC
8
DEFAULT_255_2_778
10
18.6500865
20
4.4952665
40
1.3202532
50
238.7968675
51
270.1300552
0
ARC
8
DEFAULT_255_2_778
10
18.6496532
20
4.4944069
40
1.3192936
50
187.5665172
51
238.7936255
0
ARC
8
DEFAULT_255_2_778
10
18.6763742
20
4.4975123
40
1.3461909
50
179.9827905
51
187.547783
0
LINE
8
DEFAULT_255_2_778
10
17.3301834
20
4.4979166
11
17.3301834
21
4.4979166
0
LINE
8
DEFAULT_255_2_778
10
16.0072834
20
5.1593583
11
18.6530834
21
5.1593583
0
LINE
8
DEFAULT_255_2_778
10
18.6530834
20
5.1593583
11
18.6530834
21
3.8364583
0
LINE
8
DEFAULT_255_2_778
10
18.6530834
20
3.8364583
11
16.0072834
21
3.8364583
0
LINE
8
DEFAULT_255_2_778
10
16.0072834
20
3.8364583
11
16.0072834
21
5.1593583
0
LINE
8
DEFAULT_255_2_778
10
21.2989667
20
28.3104499
11
21.2989667
21
20.3729499
0
LINE
8
DEFAULT_255_2_778
10
21.2989667
20
20.3729499
11
16.0072667
21
20.3729499
0
LINE
8
DEFAULT_255_2_778
10
16.0072667
20
20.3729499
11
16.0072667
21
28.3104499
0
LINE
8
DEFAULT_255_2_778
10
16.0072667
20
28.3104499
11
21.2989667
21
28.3104499
0
ARC
8
DEFAULT_255_2_778
10
19.1777055
20
28.323371
40
2.1213005
50
359.65123
51
9.5002523
0
ARC
8
DEFAULT_255_2_778
10
19.9264174
20
28.4530825
40
1.361455
50
9.316927
51
24.7855627
0
ARC
8
DEFAULT_255_2_778
10
20.2683068
20
28.6067395
40
0.9866502
50
25.0077098
51
73.5324207
0
ARC
8
DEFAULT_255_2_778
10
20.0546504
20
28.0024854
40
1.6270309
50
72.3490177
51
85.036967
0
ARC
8
DEFAULT_255_2_778
10
19.9806129
20
27.3091784
40
2.3241846
50
84.6972656
51
90.1145376
0
ARC
8
DEFAULT_255_2_778
10
17.3172561
20
27.5119277
40
2.1214699
50
89.651313
51
99.4995419
0
ARC
8
DEFAULT_255_2_778
10
17.1875358
20
28.2607387
40
1.3615254
50
99.3161539
51
114.7838841
0
ARC
8
DEFAULT_255_2_778
10
17.0338257
20
28.6027391
40
0.9865973
50
115.0053053
51
163.5305431
0
ARC
8
DEFAULT_255_2_778
10
17.6379109
20
28.3891339
40
1.6268022
50
162.3477554
51
175.0365692
0
ARC
8
DEFAULT_255_2_778
10
18.3310929
20
28.3151042
40
2.3238308
50
174.6968603
51
180.1145488
0
LINE
8
DEFAULT_255_2_778
10
19.9759667
20
29.6333583
11
17.3301667
21
29.6333583
0
LINE
8
DEFAULT_255_2_778
10
16.0072667
20
28.3104583
11
21.2989667
21
28.3104583
0
ARC
8
DEFAULT_255_2_778
10
19.1777055
20
20.3599456
40
2.1213005
50
350.4997477
51
0.34877
0
ARC
8
DEFAULT_255_2_778
10
19.9264174
20
20.2302341
40
1.361455
50
335.2144373
51
350.683073
0
ARC
8
DEFAULT_255_2_778
10
20.2683068
20
20.0765772
40
0.9866502
50
286.4675793
51
334.9922902
0
ARC
8
DEFAULT_255_2_778
10
20.0546504
20
20.6808312
40
1.6270309
50
274.963033
51
287.6509823
0
ARC
8
DEFAULT_255_2_778
10
19.9806129
20
21.3741383
40
2.3241846
50
269.8854624
51
275.3027344
0
ARC
8
DEFAULT_255_2_778
10
17.3172561
20
21.1713889
40
2.1214699
50
260.5004581
51
270.348687
0
ARC
8
DEFAULT_255_2_778
10
17.1875358
20
20.4225779
40
1.3615254
50
245.2161159
51
260.6838461
0
ARC
8
DEFAULT_255_2_778
10
17.0338257
20
20.0805775
40
0.9865973
50
196.4694569
51
244.9946947
0
ARC
8
DEFAULT_255_2_778
10
17.6379109
20
20.2941827
40
1.6268022
50
184.9634308
51
197.6522446
0
ARC
8
DEFAULT_255_2_778
10
18.3310929
20
20.3682124
40
2.3238308
50
179.8854512
51
185.3031397
0
LINE
8
DEFAULT_255_2_778
10
19.9759667
20
19.0499583
11
17.3301667
21
19.0499583
0
LINE
8
DEFAULT_255_2_778
10
16.0072667
20
20.3728583
11
21.2989667
21
20.3728583
0
LINE
8
DEFAULT_255_2_778
10
2.7781
20
6.6145749
11
2.7781
21
2.6458749
0
LINE
8
DEFAULT_255_2_778
10
18.6531002
20
4.4979
11
2.7781002
21
4.4979
0
ENDSEC
0
EOF