0
SECTION
2
HEADER
9
$MEASUREMENT
70
1
0
ENDSEC
0
SECTION
2
TABLES
0
TABLE
2
LTYPE
0
LTYPE
72
65
70
64
2
CONTINUOUS
3
______
73
0
40
0
0
ENDTAB
0
TABLE
2
LAYER
0
LAYER
2
DEFAULT_255_2_778
70
0
62
255
6
CONTINUOUS
0
LAYER
2
DEFAULT_255_1_542
70
0
62
255
6
CONTINUOUS
0
LAYER
2
DEFAULT_255_1_696
70
0
62
255
6
CONTINUOUS
0
ENDTAB
0
ENDSEC
0
SECTION
2
ENTITIES
0
ARC
8
DEFAULT_255_2_778
10
9.4714482
20
3.8406008
40
6.6933326
50
168.541472
51
180.0352475
0
ARC
8
DEFAULT_255_2_778
10
9.3536576
20
3.8624864
40
6.5735422
50
153.0463229
51
168.5244689
0
ARC
8
DEFAULT_255_2_778
10
9.3822328
20
3.8462071
40
6.6063925
50
109.7078398
51
153.0328055
0
ARC
8
DEFAULT_255_2_778
10
9.3740716
20
3.8498054
40
6.6002561
50
96.3164082
51
109.6516769
0
ARC
8
DEFAULT_255_2_778
10
9.3912407
20
3.7069124
40
6.7441708
50
89.9874593
51
96.3278261
0
ARC
8
DEFAULT_255_2_778
10
9.3968345
20
3.7577518
40
6.6933326
50
78.541472
51
90.0352475
0
ARC
8
DEFAULT_255_2_778
10
9.4187201
20
3.8755424
40
6.5735422
50
63.0463229
51
78.5244689
0
ARC
8
DEFAULT_255_2_778
10
9.4024408
20
3.8469672
40
6.6063925
50
19.7078398
51
63.0328055
0
ARC
8
DEFAULT_255_2_778
10
9.4060391
20
3.8551284
40
6.6002561
50
6.3164082
51
19.6516769
0
ARC
8
DEFAULT_255_2_778
10
9.2631461
20
3.8379593
40
6.7441708
50
359.9874593
51
6.3278261
0
ARC
8
DEFAULT_255_2_778
10
9.3139855
20
3.8323655
40
6.6933326
50
348.541472
51
0.0352475
0
ARC
8
DEFAULT_255_2_778
10
9.4317761
20
3.8104799
40
6.5735422
50
333.0463229
51
348.5244689
0
ARC
8
DEFAULT_255_2_778
10
9.4032009
20
3.8267592
40
6.6063925
50
289.7078398
51
333.0328055
0
ARC
8
DEFAULT_255_2_778
10
9.4113621
20
3.8231609
40
6.6002561
50
276.3164082
51
289.6516769
0
ARC
8
DEFAULT_255_2_778
10
9.394193
20
3.9660539
40
6.7441708
50
269.9874593
51
276.3278261
0
ARC
8
DEFAULT_255_2_778
10
9.3885992
20
3.9152145
40
6.6933326
50
258.541472
51
270.0352475
0
ARC
8
DEFAULT_255_2_778
10
9.3667136
20
3.7974239
40
6.5735422
50
243.0463229
51
258.5244689
0
ARC
8
DEFAULT_255_2_778
10
9.3829929
20
3.8259991
40
6.6063925
50
199.7078398
51
243.0328055
0
ARC
8
DEFAULT_255_2_778
10
9.3793946
20
3.8178379
40
6.6002561
50
186.3164082
51
199.6516769
0
ARC
8
DEFAULT_255_2_778
10
9.5222876
20
3.835007
40
6.7441708
50
179.9874593
51
186.3278261
0
LINE
8
DEFAULT_255_2_778
10
2.7781169
20
3.8364831
11
2.7781169
21
3.8364831
0
LINE
8
DEFAULT_255_2_778
10
2.9104085
20
5.1594
11
15.8750085
21
5.1594
0
LINE
8
DEFAULT_255_2_778
10
2.9104085
20
2.5136
11
15.8750085
21
2.5136
0
LINE
8
DEFAULT_255_1_542
10
8.4838623
20
6.5605
11
8.0792684
21
6.5605
0
LINE
8
DEFAULT_255_1_542
10
8.0792684
20
6.5605
11
8.0792684
21
8.0222586
0
LINE
8
DEFAULT_255_1_542
10
8.0792684
20
8.0222586
11
8.4918939
21
8.0222586
0
LINE
8
DEFAULT_255_1_542
10
9.1364331
20
7.3405731
11
9.1364331
21
7.2472053
0
LINE
8
DEFAULT_255_1_542
10
8.4969137
20
7.8636337
11
8.2720278
21
7.8636337
0
LINE
8
DEFAULT_255_1_542
10
8.2720278
20
7.8636337
11
8.2720278
21
6.7181209
0
LINE
8
DEFAULT_255_1_542
10
8.2720278
20
6.7181209
11
8.4748267
21
6.7181209
0
LINE
8
DEFAULT_255_1_542
10
8.9456816
20
7.2512211
11
8.9456816
21
7.3365573
0
ARC
8
DEFAULT_255_1_542
10
8.49676
20
7.2890965
40
0.7331782
50
75.4101014
51
90.3802694
0
ARC
8
DEFAULT_255_1_542
10
8.5254547
20
7.4086842
40
0.6102233
50
60.1455537
51
75.1890284
0
ARC
8
DEFAULT_255_1_542
10
8.5452968
20
7.4432633
40
0.5703556
50
26.5254113
51
60.1450941
0
ARC
8
DEFAULT_255_1_542
10
8.4052704
20
7.3690107
40
0.7288136
50
7.4030186
51
26.832131
0
ARC
8
DEFAULT_255_1_542
10
8.2059785
20
7.3379652
40
0.9304584
50
0.160588
51
7.7175801
0
ARC
8
DEFAULT_255_1_542
10
8.2264737
20
7.2424207
40
0.909972
50
348.729
51
0.3012613
0
ARC
8
DEFAULT_255_1_542
10
8.4335226
20
7.2012926
40
0.6988779
50
333.0707277
51
348.7181154
0
ARC
8
DEFAULT_255_1_542
10
8.5543728
20
7.1356575
40
0.5614194
50
299.2531153
51
333.4571273
0
ARC
8
DEFAULT_255_1_542
10
8.5092633
20
7.2213484
40
0.6582306
50
278.1072906
51
299.0339478
0
ARC
8
DEFAULT_255_1_542
10
8.4772727
20
7.4097975
40
0.849323
50
270.4445459
51
278.4509706
0
ARC
8
DEFAULT_255_1_542
10
8.479878
20
7.2936505
40
0.5755517
50
269.4971374
51
284.0204007
0
ARC
8
DEFAULT_255_1_542
10
8.5242919
20
7.122989
40
0.3992182
50
283.7699562
51
318.1556187
0
ARC
8
DEFAULT_255_1_542
10
8.4821345
20
7.1545394
40
0.4516949
50
318.7416444
51
343.6873402
0
ARC
8
DEFAULT_255_1_542
10
8.2566405
20
7.2249718
40
0.6879074
50
343.3324731
51
355.8548303
0
ARC
8
DEFAULT_255_1_542
10
7.9942795
20
7.2499118
40
0.9514032
50
355.4988934
51
0.0788461
0
ARC
8
DEFAULT_255_1_542
10
8.0921761
20
7.3418379
40
0.8535218
50
359.6455143
51
9.8607261
0
ARC
8
DEFAULT_255_1_542
10
8.387264
20
7.3951272
40
0.5536709
50
9.6571622
51
26.1931971
0
ARC
8
DEFAULT_255_1_542
10
8.5032622
20
7.4490028
40
0.4258133
50
26.5778125
51
40.1532658
0
ARC
8
DEFAULT_255_1_542
10
8.535229
20
7.473942
40
0.385302
50
40.3840107
51
80.1431587
0
ARC
8
DEFAULT_255_1_542
10
8.4943692
20
7.292789
40
0.5708505
50
79.2151469
51
89.744611
0
LINE
8
DEFAULT_255_1_542
10
9.6343948
20
8.0222586
11
9.6343948
21
6.5605
0
LINE
8
DEFAULT_255_1_542
10
9.6343948
20
6.5605
11
9.4416354
21
6.5605
0
LINE
8
DEFAULT_255_1_542
10
9.4416354
20
6.5605
11
9.4416354
21
8.0222586
0
LINE
8
DEFAULT_255_1_542
10
9.4416354
20
8.0222586
11
9.6343948
21
8.0222586
0
LINE
8
DEFAULT_255_1_696
10
9.033568
20
1.4857578
11
9.033568
21
-0.1299
0
LINE
8
DEFAULT_255_1_696
10
9.033568
20
-0.1299
11
8.8281597
21
-0.1299
0
LINE
8
DEFAULT_255_1_696
10
8.8281597
20
-0.1299
11
8.8281597
21
1.2317583
0
LINE
8
DEFAULT_255_1_696
10
8.8281597
20
1.2317583
11
8.4162388
21
1.0804629
0
LINE
8
DEFAULT_255_1_696
10
8.4162388
20
1.0804629
11
8.4162388
21
1.265993
0
LINE
8
DEFAULT_255_1_696
10
8.4162388
20
1.265993
11
9.001542
21
1.4857578
0
LINE
8
DEFAULT_255_1_696
10
9.001542
20
1.4857578
11
9.033568
21
1.4857578
0
ENDSEC
0
EOF