0
SECTION
2
HEADER
9
$MEASUREMENT
70
1
0
ENDSEC
0
SECTION
2
TABLES
0
TABLE
2
LTYPE
0
LTYPE
72
65
70
64
2
CONTINUOUS
3
______
73
0
40
0
0
ENDTAB
0
TABLE
2
LAYER
0
LAYER
2
DEFAULT_255_2_778
70
0
62
255
6
CONTINUOUS
0
ENDTAB
0
ENDSEC
0
SECTION
2
ENTITIES
0
LINE
8
DEFAULT_255_2_778
10
34.5281004
20
13.0969
11
2.7781004
21
13.0969
0
ARC
8
DEFAULT_255_2_778
10
32.5835608
20
13.0835686
40
1.9445849
50
0.3908375
51
26.05461
0
ARC
8
DEFAULT_255_2_778
10
31.9126426
20
12.7731153
40
2.6837276
50
25.7176713
51
37.4355239
0
ARC
8
DEFAULT_255_2_778
10
31.1168975
20
12.1710602
40
3.6815539
50
37.3475367
51
45.6003393
0
ARC
8
DEFAULT_255_2_778
10
30.1896021
20
11.2291606
40
5.0033113
50
45.5600022
51
52.0478494
0
ARC
8
DEFAULT_255_2_778
10
29.1517796
20
9.9051374
40
6.6856015
50
52.012968
51
57.1625345
0
ARC
8
DEFAULT_255_2_778
10
28.0730732
20
8.2424891
40
8.667517
50
57.1310794
51
61.1688631
0
ARC
8
DEFAULT_255_2_778
10
26.9501548
20
6.2049971
40
10.993956
50
61.1626752
51
64.7813102
0
ARC
8
DEFAULT_255_2_778
10
25.7676652
20
3.6992181
40
13.7647333
50
64.7724194
51
67.9598075
0
ARC
8
DEFAULT_255_2_778
10
24.6346591
20
0.9127822
40
16.7727077
50
67.9441703
51
70.5324766
0
ARC
8
DEFAULT_255_2_778
10
23.539935
20
-2.1852243
40
20.0584443
50
70.5334507
51
73.0734662
0
ARC
8
DEFAULT_255_2_778
10
22.5286204
20
-5.4925345
40
23.516918
50
73.0622696
51
75.1341451
0
ARC
8
DEFAULT_255_2_778
10
21.6107261
20
-8.9542795
40
27.0982875
50
75.1361808
51
77.2762329
0
ARC
8
DEFAULT_255_2_778
10
20.796533
20
-12.5451836
40
30.7803377
50
77.270091
51
79.1279512
0
ARC
8
DEFAULT_255_2_778
10
20.1149125
20
-16.0945658
40
34.3945763
50
79.1280939
51
81.024842
0
ARC
8
DEFAULT_255_2_778
10
19.5576905
20
-19.6124683
40
37.9563361
50
81.0224497
51
82.8331511
0
ARC
8
DEFAULT_255_2_778
10
19.1382787
20
-22.9452767
40
41.3154309
50
82.8326844
51
84.7026198
0
ARC
8
DEFAULT_255_2_778
10
18.8493849
20
-26.0574997
40
44.4410335
50
84.7022024
51
86.686244
0
ARC
8
DEFAULT_255_2_778
10
18.7051254
20
-28.4855278
40
46.8733408
50
86.681759
51
88.3522426
0
ARC
8
DEFAULT_255_2_778
10
18.6562187
20
-30.14405
40
48.5325834
50
88.3508306
51
90.0036813
0
ARC
8
DEFAULT_255_2_778
10
18.6487591
20
-30.0259655
40
48.414499
50
89.9948623
51
91.9214197
0
ARC
8
DEFAULT_255_2_778
10
18.5818281
20
-28.0607107
40
46.4481051
50
91.9201852
51
93.7511217
0
ARC
8
DEFAULT_255_2_778
10
18.4180446
20
-25.5736313
40
43.9556387
50
93.7501816
51
95.5100338
0
ARC
8
DEFAULT_255_2_778
10
18.1422281
20
-22.7197042
40
41.0884146
50
95.5093258
51
97.2182527
0
ARC
8
DEFAULT_255_2_778
10
17.752722
20
-19.6472227
40
37.9913422
50
97.2177035
51
98.8924173
0
ARC
8
DEFAULT_255_2_778
10
17.258371
20
-16.4891795
40
34.794841
50
98.8920222
51
100.5464293
0
ARC
8
DEFAULT_255_2_778
10
16.5972277
20
-12.9624631
40
31.2066916
50
100.5382192
51
102.6119615
0
ARC
8
DEFAULT_255_2_778
10
15.7556922
20
-9.2021521
40
27.3533656
50
102.6115893
51
104.6906494
0
ARC
8
DEFAULT_255_2_778
10
14.80284
20
-5.576647
40
23.604738
50
104.6851291
51
107.0056999
0
ARC
8
DEFAULT_255_2_778
10
13.7295426
20
-2.0736467
40
19.9410003
50
107.000365
51
109.5606411
0
ARC
8
DEFAULT_255_2_778
10
12.6201237
20
1.0485499
40
16.6275546
50
109.5604111
51
112.2115346
0
ARC
8
DEFAULT_255_2_778
10
11.4757803
20
3.8420261
40
13.6087771
50
112.1971488
51
115.4069716
0
ARC
8
DEFAULT_255_2_778
10
10.2869459
20
6.3401696
40
10.8421829
50
115.396202
51
119.0913231
0
ARC
8
DEFAULT_255_2_778
10
9.1284257
20
8.417836
40
8.4633468
50
119.0764267
51
123.4214618
0
ARC
8
DEFAULT_255_2_778
10
8.0377306
20
10.0670497
40
6.486097
50
123.4041175
51
128.5526693
0
ARC
8
DEFAULT_255_2_778
10
7.0218354
20
11.336226
40
4.8604171
50
128.5117331
51
135.1407644
0
ARC
8
DEFAULT_255_2_778
10
6.0954748
20
12.253209
40
3.5569657
50
135.085535
51
143.8331231
0
ARC
8
DEFAULT_255_2_778
10
5.2999938
20
12.829372
40
2.57476
50
143.737278
51
156.3252238
0
ARC
8
DEFAULT_255_2_778
10
4.6986209
20
13.0870309
40
1.9205454
50
156.161026
51
179.7075628
0
LINE
8
DEFAULT_255_2_778
10
2.7781004
20
13.0968998
11
34.5281004
21
13.0968998
0
LINE
8
DEFAULT_255_2_778
10
34.5281004
20
13.0968998
11
34.5281004
21
-2.7781002
0
LINE
8
DEFAULT_255_2_778
10
34.5281004
20
-2.7781002
11
2.7781004
21
-2.7781002
0
LINE
8
DEFAULT_255_2_778
10
2.7781004
20
-2.7781002
11
2.7781004
21
13.0968998
0
ENDSEC
0
EOF