0
SECTION
2
HEADER
9
$MEASUREMENT
70
1
0
ENDSEC
0
SECTION
2
TABLES
0
TABLE
2
LTYPE
0
LTYPE
72
65
70
64
2
CONTINUOUS
3
______
73
0
40
0
0
ENDTAB
0
TABLE
2
LAYER
0
LAYER
2
DEFAULT_255_2_778
70
0
62
255
6
CONTINUOUS
0
ENDTAB
0
ENDSEC
0
SECTION
2
ENTITIES
0
ARC
8
DEFAULT_255_2_778
10
10.9353502
20
9.8389758
40
11.2808241
50
276.9639929
51
283.3005685
0
ARC
8
DEFAULT_255_2_778
10
11.4262292
20
7.7648791
40
9.1494304
50
283.297146
51
289.4418482
0
ARC
8
DEFAULT_255_2_778
10
12.0870611
20
5.8986171
40
7.1696255
50
289.4261385
51
296.183839
0
ARC
8
DEFAULT_255_2_778
10
12.83476
20
4.3833598
40
5.4799358
50
296.159156
51
304.083192
0
ARC
8
DEFAULT_255_2_778
10
13.6169683
20
3.236686
40
4.091889
50
304.0096404
51
314.7036472
0
ARC
8
DEFAULT_255_2_778
10
14.3964681
20
2.4624884
40
2.9933079
50
314.5231133
51
332.2457601
0
ARC
8
DEFAULT_255_2_778
10
14.8055112
20
2.231947
40
2.5240015
50
332.5530149
51
356.3061286
0
ARC
8
DEFAULT_255_2_778
10
14.6271935
20
2.2483014
40
2.7030066
50
356.2037
51
0.0142888
0
ARC
8
DEFAULT_255_2_778
10
15.1418557
20
2.543292
40
3.5112446
50
350.4161083
51
0.0209434
0
ARC
8
DEFAULT_255_2_778
10
14.9696125
20
2.5822449
40
3.6875819
50
335.1885585
51
350.2648939
0
ARC
8
DEFAULT_255_2_778
10
13.8651183
20
3.1391314
40
4.9239915
50
316.5341701
51
334.6998415
0
ARC
8
DEFAULT_255_2_778
10
11.914394
20
4.9327851
40
7.5737973
50
306.5853518
51
316.8378258
0
ARC
8
DEFAULT_255_2_778
10
10.5949581
20
6.6328674
40
9.7254316
50
303.814726
51
306.8574434
0
ARC
8
DEFAULT_255_2_778
10
9.9124784
20
7.65108
40
10.9512112
50
300.9482493
51
303.8167548
0
ARC
8
DEFAULT_255_2_778
10
9.357174
20
8.5726276
40
12.0271331
50
298.7700608
51
300.959342
0
ARC
8
DEFAULT_255_2_778
10
8.9998313
20
9.220611
40
12.7671159
50
297.0669433
51
298.7761646
0
ARC
8
DEFAULT_255_2_778
10
8.810599
20
9.5893138
40
13.1815433
50
295.6457736
51
297.0701397
0
ARC
8
DEFAULT_255_2_778
10
8.7663944
20
9.6802343
40
13.282639
50
294.4920314
51
295.647926
0
ARC
8
DEFAULT_255_2_778
10
8.8415306
20
9.514736
40
13.1008834
50
293.559284
51
294.4930582
0
ARC
8
DEFAULT_255_2_778
10
9.0051644
20
9.1393361
40
12.6913701
50
292.796091
51
293.5595189
0
ARC
8
DEFAULT_255_2_778
10
9.2319838
20
8.5996686
40
12.1059744
50
292.1653252
51
292.7960587
0
ARC
8
DEFAULT_255_2_778
10
9.5658781
20
7.7781974
40
11.2192389
50
291.3902892
51
292.1689297
0
ARC
8
DEFAULT_255_2_778
10
10.0521774
20
6.536106
40
9.8853431
50
290.7004348
51
291.3915199
0
ARC
8
DEFAULT_255_2_778
10
10.6164768
20
5.0426553
40
8.2888378
50
290.1190617
51
290.7007039
0
ARC
8
DEFAULT_255_2_778
10
11.1669722
20
3.5410236
40
6.6894808
50
289.7005857
51
290.1157666
0
ARC
8
DEFAULT_255_2_778
10
11.7992935
20
1.7723429
40
4.8111676
50
289.1927639
51
289.7115559
0
ARC
8
DEFAULT_255_2_778
10
12.5959588
20
-0.5181522
40
2.3860813
50
288.7425143
51
289.2073965
0
ARC
8
DEFAULT_255_2_778
10
13.1600423
20
-2.1792884
40
0.6317831
50
288.5851405
51
288.704225
0
LINE
8
DEFAULT_255_2_778
10
17.3302001
20
2.2489755
11
17.3302001
21
38.0288755
0
LINE
8
DEFAULT_255_2_778
10
17.3302001
20
38.0288755
11
18.6531001
21
36.2545755
0
LINE
8
DEFAULT_255_2_778
10
18.6531001
20
36.2545755
11
18.6531001
21
2.5445755
0
LINE
8
DEFAULT_255_2_778
10
13.3614001
20
-2.7781245
11
12.3031001
21
-1.3586245
0
ARC
8
DEFAULT_255_2_778
10
10.49585
20
9.8389758
40
11.2808241
50
256.6994315
51
263.0360071
0
ARC
8
DEFAULT_255_2_778
10
10.0049709
20
7.7648791
40
9.1494304
50
250.5581518
51
256.702854
0
ARC
8
DEFAULT_255_2_778
10
9.3441391
20
5.8986171
40
7.1696255
50
243.816161
51
250.5738615
0
ARC
8
DEFAULT_255_2_778
10
8.5964402
20
4.3833598
40
5.4799358
50
235.916808
51
243.840844
0
ARC
8
DEFAULT_255_2_778
10
7.8142319
20
3.236686
40
4.091889
50
225.2963528
51
235.9903596
0
ARC
8
DEFAULT_255_2_778
10
7.034732
20
2.4624884
40
2.9933079
50
207.7542399
51
225.4768867
0
ARC
8
DEFAULT_255_2_778
10
6.6256889
20
2.231947
40
2.5240015
50
183.6938714
51
207.4469851
0
ARC
8
DEFAULT_255_2_778
10
6.8040067
20
2.2483014
40
2.7030066
50
179.9857112
51
183.7963
0
ARC
8
DEFAULT_255_2_778
10
6.2893445
20
2.543292
40
3.5112446
50
179.9790566
51
189.5838917
0
ARC
8
DEFAULT_255_2_778
10
6.4615877
20
2.5822449
40
3.6875819
50
189.7351061
51
204.8114415
0
ARC
8
DEFAULT_255_2_778
10
7.5660819
20
3.1391314
40
4.9239915
50
205.3001585
51
223.4658299
0
ARC
8
DEFAULT_255_2_778
10
9.5168062
20
4.9327851
40
7.5737973
50
223.1621742
51
233.4146482
0
ARC
8
DEFAULT_255_2_778
10
10.836242
20
6.6328674
40
9.7254316
50
233.1425566
51
236.185274
0
ARC
8
DEFAULT_255_2_778
10
11.5187217
20
7.65108
40
10.9512112
50
236.1832452
51
239.0517507
0
ARC
8
DEFAULT_255_2_778
10
12.0740262
20
8.5726276
40
12.0271331
50
239.040658
51
241.2299392
0
ARC
8
DEFAULT_255_2_778
10
12.4313689
20
9.220611
40
12.7671159
50
241.2238354
51
242.9330567
0
ARC
8
DEFAULT_255_2_778
10
12.6206011
20
9.5893138
40
13.1815433
50
242.9298603
51
244.3542264
0
ARC
8
DEFAULT_255_2_778
10
12.6648058
20
9.6802343
40
13.282639
50
244.352074
51
245.5079686
0
ARC
8
DEFAULT_255_2_778
10
12.5896696
20
9.514736
40
13.1008834
50
245.5069418
51
246.440716
0
ARC
8
DEFAULT_255_2_778
10
12.4260358
20
9.1393361
40
12.6913701
50
246.4404811
51
247.203909
0
ARC
8
DEFAULT_255_2_778
10
12.1992164
20
8.5996686
40
12.1059744
50
247.2039413
51
247.8346748
0
ARC
8
DEFAULT_255_2_778
10
11.8653221
20
7.7781974
40
11.2192389
50
247.8310703
51
248.6097108
0
ARC
8
DEFAULT_255_2_778
10
11.3790227
20
6.536106
40
9.8853431
50
248.6084801
51
249.2995652
0
ARC
8
DEFAULT_255_2_778
10
10.8147234
20
5.0426553
40
8.2888378
50
249.2992961
51
249.8809383
0
ARC
8
DEFAULT_255_2_778
10
10.264228
20
3.5410236
40
6.6894808
50
249.8842334
51
250.2994143
0
ARC
8
DEFAULT_255_2_778
10
9.6319066
20
1.7723429
40
4.8111676
50
250.2884441
51
250.8072361
0
ARC
8
DEFAULT_255_2_778
10
8.8352414
20
-0.5181522
40
2.3860813
50
250.7926035
51
251.2574857
0
ARC
8
DEFAULT_255_2_778
10
8.2711578
20
-2.1792884
40
0.6317831
50
251.295775
51
251.4148595
0
LINE
8
DEFAULT_255_2_778
10
4.1010001
20
2.2489755
11
4.1010001
21
38.0288755
0
LINE
8
DEFAULT_255_2_778
10
4.1010001
20
38.0288755
11
2.7781001
21
36.2545755
0
LINE
8
DEFAULT_255_2_778
10
2.7781001
20
36.2545755
11
2.7781001
21
2.5445755
0
LINE
8
DEFAULT_255_2_778
10
8.0698001
20
-2.7781245
11
9.1281001
21
-1.3586245
0
ARC
8
DEFAULT_255_2_778
10
6.7184919
20
41.146992
40
2.6174784
50
169.3234464
51
180.0918213
0
ARC
8
DEFAULT_255_2_778
10
6.7284293
20
41.1259949
40
2.631201
50
140.3379161
51
168.914225
0
ARC
8
DEFAULT_255_2_778
10
7.3728574
20
40.6305136
40
3.4436706
50
131.4082915
51
140.835054
0
ARC
8
DEFAULT_255_2_778
10
7.9200747
20
40.0146236
40
4.2675393
50
124.3067819
51
131.4493636
0
ARC
8
DEFAULT_255_2_778
10
8.4622847
20
39.2247116
40
5.2256347
50
118.6610148
51
124.3360492
0
ARC
8
DEFAULT_255_2_778
10
8.9872096
20
38.2666621
40
6.318065
50
113.6726596
51
118.6710021
0
ARC
8
DEFAULT_255_2_778
10
9.4972649
20
37.103956
40
7.587727
50
108.9795054
51
113.6749049
0
ARC
8
DEFAULT_255_2_778
10
9.953665
20
35.7817823
40
8.9864557
50
104.7489948
51
108.9895626
0
ARC
8
DEFAULT_255_2_778
10
10.3194083
20
34.3958641
40
10.4198213
50
100.6520897
51
104.7537144
0
ARC
8
DEFAULT_255_2_778
10
10.5861948
20
32.9712396
40
11.8692105
50
95.9502554
51
100.6465604
0
ARC
8
DEFAULT_255_2_778
10
10.7105126
20
31.7899782
40
13.0569951
50
89.9776017
51
95.9554883
0
ARC
8
DEFAULT_255_2_778
10
10.7228856
20
31.8511845
40
12.9957898
50
83.2790065
51
90.0320464
0
ARC
8
DEFAULT_255_2_778
10
10.8736984
20
33.156287
40
11.6820064
50
78.9002763
51
83.2644602
0
ARC
8
DEFAULT_255_2_778
10
11.1540452
20
34.580783
40
10.230186
50
74.6009799
51
78.905107
0
ARC
8
DEFAULT_255_2_778
10
11.545004
20
35.9995963
40
8.7584933
50
70.2846545
51
74.6021062
0
ARC
8
DEFAULT_255_2_778
10
12.011179
20
37.2976416
40
7.3792761
50
65.5964667
51
70.2920757
0
ARC
8
DEFAULT_255_2_778
10
12.5231145
20
38.4248638
40
6.1412505
50
60.5150754
51
65.6008936
0
ARC
8
DEFAULT_255_2_778
10
13.0634105
20
39.3766688
40
5.0467878
50
54.3985946
51
60.5360378
0
ARC
8
DEFAULT_255_2_778
10
13.6172888
20
40.1477419
40
4.0974027
50
46.9978319
51
54.4192373
0
ARC
8
DEFAULT_255_2_778
10
14.1576018
20
40.7232138
40
3.3080376
50
37.0410341
51
47.0438877
0
ARC
8
DEFAULT_255_2_778
10
14.7429305
20
41.1425723
40
2.5882712
50
8.1744184
51
37.4364109
0
ARC
8
DEFAULT_255_2_778
10
14.6825124
20
41.1453441
40
2.6477056
50
359.9448871
51
7.9291467
0
ARC
8
DEFAULT_255_2_778
10
14.7127418
20
2.2448025
40
2.6174784
50
349.3234464
51
0.0918213
0
ARC
8
DEFAULT_255_2_778
10
14.7028044
20
2.2657996
40
2.631201
50
320.3379161
51
348.914225
0
ARC
8
DEFAULT_255_2_778
10
14.0583763
20
2.7612809
40
3.4436706
50
311.4082915
51
320.835054
0
ARC
8
DEFAULT_255_2_778
10
13.511159
20
3.3771709
40
4.2675393
50
304.3067819
51
311.4493636
0
ARC
8
DEFAULT_255_2_778
10
12.968949
20
4.1670829
40
5.2256347
50
298.6610148
51
304.3360492
0
ARC
8
DEFAULT_255_2_778
10
12.4440241
20
5.1251324
40
6.318065
50
293.6726596
51
298.6710021
0
ARC
8
DEFAULT_255_2_778
10
11.9339688
20
6.2878385
40
7.587727
50
288.9795054
51
293.6749049
0
ARC
8
DEFAULT_255_2_778
10
11.4775687
20
7.6100122
40
8.9864557
50
284.7489948
51
288.9895626
0
ARC
8
DEFAULT_255_2_778
10
11.1118254
20
8.9959303
40
10.4198213
50
280.6520897
51
284.7537144
0
ARC
8
DEFAULT_255_2_778
10
10.8450389
20
10.4205549
40
11.8692105
50
275.9502554
51
280.6465604
0
ARC
8
DEFAULT_255_2_778
10
10.7207211
20
11.6018163
40
13.0569951
50
269.9776017
51
275.9554883
0
ARC
8
DEFAULT_255_2_778
10
10.7083481
20
11.54061
40
12.9957898
50
263.2790065
51
270.0320464
0
ARC
8
DEFAULT_255_2_778
10
10.5575353
20
10.2355075
40
11.6820064
50
258.9002763
51
263.2644602
0
ARC
8
DEFAULT_255_2_778
10
10.2771885
20
8.8110115
40
10.230186
50
254.6009799
51
258.905107
0
ARC
8
DEFAULT_255_2_778
10
9.8862297
20
7.3921982
40
8.7584933
50
250.2846545
51
254.6021062
0
ARC
8
DEFAULT_255_2_778
10
9.4200547
20
6.0941529
40
7.3792761
50
245.5964667
51
250.2920757
0
ARC
8
DEFAULT_255_2_778
10
8.9081192
20
4.9669307
40
6.1412505
50
240.5150754
51
245.6008936
0
ARC
8
DEFAULT_255_2_778
10
8.3678232
20
4.0151257
40
5.0467878
50
234.3985946
51
240.5360378
0
ARC
8
DEFAULT_255_2_778
10
7.8139449
20
3.2440526
40
4.0974027
50
226.9978319
51
234.4192373
0
ARC
8
DEFAULT_255_2_778
10
7.2736319
20
2.6685807
40
3.3080376
50
217.0410341
51
227.0438877
0
ARC
8
DEFAULT_255_2_778
10
6.6883032
20
2.2492222
40
2.5882712
50
188.1744184
51
217.4364109
0
ARC
8
DEFAULT_255_2_778
10
6.7487213
20
2.2464504
40
2.6477056
50
179.9448871
51
187.9291467
0
LINE
8
DEFAULT_255_2_778
10
4.1010169
20
2.2489972
11
4.1010169
21
41.1427972
0
LINE
8
DEFAULT_255_2_778
10
17.3302169
20
41.1427972
11
17.3302169
21
2.2489972
0
LINE
8
DEFAULT_255_2_778
10
4.1010169
20
2.2489972
11
4.1010169
21
2.2489972
0
ENDSEC
0
EOF