0
SECTION
2
HEADER
9
$MEASUREMENT
70
1
0
ENDSEC
0
SECTION
2
TABLES
0
TABLE
2
LTYPE
0
LTYPE
72
65
70
64
2
CONTINUOUS
3
______
73
0
40
0
0
ENDTAB
0
TABLE
2
LAYER
0
LAYER
2
DEFAULT_255_2_778
70
0
62
255
6
CONTINUOUS
0
ENDTAB
0
ENDSEC
0
SECTION
2
ENTITIES
0
LINE
8
DEFAULT_255_2_778
10
17.3305417
20
38.0286131
11
17.3305417
21
3.2256131
0
LINE
8
DEFAULT_255_2_778
10
17.3305417
20
3.2256131
11
18.6534417
21
5.0573131
0
LINE
8
DEFAULT_255_2_778
10
18.6534417
20
5.0573131
11
18.6534417
21
36.1969131
0
LINE
8
DEFAULT_255_2_778
10
18.6534417
20
36.1969131
11
17.3305417
21
38.0286131
0
LINE
8
DEFAULT_255_2_778
10
4.1007417
20
3.2256131
11
4.1007417
21
38.0286131
0
LINE
8
DEFAULT_255_2_778
10
4.1007417
20
38.0286131
11
2.7778417
21
36.1969131
0
LINE
8
DEFAULT_255_2_778
10
2.7778417
20
36.1969131
11
2.7778417
21
5.0575131
0
LINE
8
DEFAULT_255_2_778
10
2.7778417
20
5.0575131
11
4.1007417
21
3.2256131
0
ARC
8
DEFAULT_255_2_778
10
10.8841704
20
10.137707
40
11.5839729
50
275.9913839
51
282.3803773
0
ARC
8
DEFAULT_255_2_778
10
11.3397294
20
8.0665334
40
9.4632906
50
282.3749038
51
288.5141485
0
ARC
8
DEFAULT_255_2_778
10
11.9709518
20
6.1830535
40
7.4768521
50
288.5105034
51
294.9010266
0
ARC
8
DEFAULT_255_2_778
10
12.7066618
20
4.608413
40
5.7388254
50
294.8579947
51
302.7692107
0
ARC
8
DEFAULT_255_2_778
10
13.4961014
20
3.3887128
40
4.2859433
50
302.7206075
51
312.7724975
0
ARC
8
DEFAULT_255_2_778
10
14.2719657
20
2.5616658
40
3.1519735
50
312.629089
51
328.2795331
0
ARC
8
DEFAULT_255_2_778
10
14.7922441
20
2.2344693
40
2.537385
50
328.3872715
51
356.0930935
0
ARC
8
DEFAULT_255_2_778
10
14.6291807
20
2.2482833
40
2.7010121
50
356.0364234
51
0.0154217
0
ARC
8
DEFAULT_255_2_778
10
15.9444772
20
1.7003558
40
2.7111304
50
345.1583865
51
357.531993
0
ARC
8
DEFAULT_255_2_778
10
15.4966999
20
1.8562939
40
3.1841158
50
321.3851698
51
344.5098877
0
ARC
8
DEFAULT_255_2_778
10
14.2676014
20
2.7894815
40
4.7270205
50
311.3358565
51
321.8446011
0
ARC
8
DEFAULT_255_2_778
10
12.4880579
20
4.8759908
40
7.4691337
50
298.9093717
51
311.0143754
0
ARC
8
DEFAULT_255_2_778
10
11.2803038
20
6.8888376
40
9.8153707
50
298.7976185
51
299.4008168
0
ARC
8
DEFAULT_255_2_778
10
10.8571607
20
7.6722168
40
10.7057041
50
295.7891028
51
298.7625334
0
ARC
8
DEFAULT_255_2_778
10
10.2851498
20
8.8489024
40
12.0140528
50
293.5998792
51
295.8039385
0
ARC
8
DEFAULT_255_2_778
10
9.9222766
20
9.6751664
40
12.9164863
50
291.9263991
51
293.6075595
0
ARC
8
DEFAULT_255_2_778
10
9.7340112
20
10.1403406
40
13.4183131
50
290.6184461
51
291.9304294
0
ARC
8
DEFAULT_255_2_778
10
9.6848816
20
10.2694963
40
13.5564965
50
289.577422
51
290.6205656
0
ARC
8
DEFAULT_255_2_778
10
9.7382229
20
10.1188376
40
13.3966739
50
288.7367962
51
289.5783847
0
ARC
8
DEFAULT_255_2_778
10
9.8679708
20
9.73611
40
12.9925515
50
288.0495042
51
288.7370981
0
ARC
8
DEFAULT_255_2_778
10
10.0478744
20
9.1840535
40
12.4119213
50
287.4820767
51
288.0494953
0
ARC
8
DEFAULT_255_2_778
10
10.3191496
20
8.3206081
40
11.5068645
50
286.7848164
51
287.4852638
0
ARC
8
DEFAULT_255_2_778
10
10.7111752
20
7.0201528
40
10.1486053
50
286.1647885
51
286.7860544
0
ARC
8
DEFAULT_255_2_778
10
11.1662075
20
5.4500463
40
8.5138918
50
285.6425677
51
286.1653035
0
ARC
8
DEFAULT_255_2_778
10
11.6089419
20
3.870119
40
6.8731041
50
285.2667094
51
285.6397959
0
ARC
8
DEFAULT_255_2_778
10
12.1453613
20
1.9003252
40
4.8315774
50
284.7678787
51
285.2807268
0
ARC
8
DEFAULT_255_2_778
10
12.8408475
20
-0.7404199
40
2.1007835
50
284.3535248
51
284.7848946
0
ARC
8
DEFAULT_255_2_778
10
13.4250038
20
-3.0251728
40
0.2574649
50
104.2471298
51
104.3039908
0
LINE
8
DEFAULT_255_2_778
10
17.3301928
20
2.2490103
11
17.3301928
21
2.3101103
0
LINE
8
DEFAULT_255_2_778
10
17.3301928
20
2.3101103
11
18.6530928
21
1.5836103
0
LINE
8
DEFAULT_255_2_778
10
13.3613928
20
-2.7756897
11
12.0932928
21
-1.3829897
0
ARC
8
DEFAULT_255_2_778
10
10.5480795
20
10.1416025
40
11.5877931
50
257.6216428
51
264.0086084
0
ARC
8
DEFAULT_255_2_778
10
10.0923155
20
8.0691389
40
9.4658068
50
251.4893276
51
257.6271056
0
ARC
8
DEFAULT_255_2_778
10
9.4608757
20
6.1846336
40
7.478327
50
245.1035256
51
251.4929802
0
ARC
8
DEFAULT_255_2_778
10
8.7252064
20
4.6096951
40
5.7400473
50
237.2415573
51
245.1463059
0
ARC
8
DEFAULT_255_2_778
10
7.9357792
20
3.3895547
40
4.2868027
50
227.2385819
51
237.2904781
0
ARC
8
DEFAULT_255_2_778
10
7.1595227
20
2.561772
40
3.1520282
50
211.7294125
51
227.3821283
0
ARC
8
DEFAULT_255_2_778
10
6.6389137
20
2.2342625
40
2.5369932
50
183.9080499
51
211.621736
0
ARC
8
DEFAULT_255_2_778
10
6.8021283
20
2.2480847
40
2.7007716
50
179.9846835
51
183.9646112
0
ARC
8
DEFAULT_255_2_778
10
4.7856953
20
1.5340554
40
2.0078451
50
178.5915724
51
179.9995576
0
ARC
8
DEFAULT_255_2_778
10
4.9970773
20
1.5585651
40
2.2193623
50
180.6323631
51
208.450262
0
ARC
8
DEFAULT_255_2_778
10
5.9013747
20
2.0061562
40
3.2278941
50
207.788743
51
217.5916691
0
ARC
8
DEFAULT_255_2_778
10
6.8142605
20
2.7041845
40
4.377065
50
217.5421215
51
224.9097609
0
ARC
8
DEFAULT_255_2_778
10
7.9814596
20
3.8703838
40
6.0270262
50
224.9277441
51
231.6220195
0
ARC
8
DEFAULT_255_2_778
10
9.9815877
20
6.4589192
40
9.2981171
50
231.863072
51
240.6487669
0
ARC
8
DEFAULT_255_2_778
10
11.624069
20
9.2459115
40
12.5326004
50
240.3490411
51
242.8119723
0
ARC
8
DEFAULT_255_2_778
10
12.217757
20
10.3952529
40
13.8262166
50
242.7997701
51
244.6657988
0
ARC
8
DEFAULT_255_2_778
10
12.5106766
20
11.010239
40
14.5073975
50
244.6594886
51
246.1255794
0
ARC
8
DEFAULT_255_2_778
10
12.5433525
20
11.0819333
40
14.5861822
50
246.12219
51
247.3115799
0
ARC
8
DEFAULT_255_2_778
10
12.3685807
20
10.662685
40
14.131964
50
247.3096944
51
248.3028545
0
ARC
8
DEFAULT_255_2_778
10
12.0409722
20
9.8386664
40
13.2452094
50
248.3018067
51
249.1536817
0
ARC
8
DEFAULT_255_2_778
10
11.6103385
20
8.7074216
40
12.0347714
50
249.1530914
51
249.903182
0
ARC
8
DEFAULT_255_2_778
10
11.12985
20
7.3940511
40
10.6362682
50
249.9029081
51
250.5794706
0
ARC
8
DEFAULT_255_2_778
10
10.511356
20
5.6345661
40
8.7712429
50
250.5682135
51
251.5225737
0
ARC
8
DEFAULT_255_2_778
10
9.7344943
20
3.3051106
40
6.3156629
50
251.509299
51
252.6425372
0
ARC
8
DEFAULT_255_2_778
10
9.0443937
20
1.0963605
40
4.0016152
50
252.6387207
51
253.8296699
0
ARC
8
DEFAULT_255_2_778
10
8.5048155
20
-0.7741171
40
2.0548702
50
253.7548053
51
255.7618237
0
ARC
8
DEFAULT_255_2_778
10
8.1630901
20
-2.133101
40
0.6535905
50
255.4972193
51
259.6523702
0
ARC
8
DEFAULT_255_2_778
10
8.0677112
20
-2.6613683
40
0.1167879
50
259.1324713
51
268.046045
0
ARC
8
DEFAULT_255_2_778
10
8.0639693
20
-2.7548386
40
0.0232509
50
269.4081387
51
277.3615699
0
ARC
8
DEFAULT_255_2_778
10
8.0661944
20
-2.7709434
40
0.0069952
50
276.1887345
51
295.0070357
0
ARC
8
DEFAULT_255_2_778
10
8.0685902
20
-2.7758182
40
0.0015685
50
290.9689083
51
357.2575662
0
LINE
8
DEFAULT_255_2_778
10
4.1013568
20
2.2488067
11
4.1013568
21
2.3099067
0
LINE
8
DEFAULT_255_2_778
10
4.1013568
20
2.3099067
11
2.7784568
21
1.5834067
0
LINE
8
DEFAULT_255_2_778
10
8.0701568
20
-2.7758933
11
9.3385568
21
-1.3828933
0
ARC
8
DEFAULT_255_2_778
10
6.7182919
20
41.146692
40
2.6174784
50
169.3234464
51
180.0918213
0
ARC
8
DEFAULT_255_2_778
10
6.7282293
20
41.1256949
40
2.631201
50
140.3379161
51
168.914225
0
ARC
8
DEFAULT_255_2_778
10
7.3726574
20
40.6302136
40
3.4436706
50
131.4082915
51
140.835054
0
ARC
8
DEFAULT_255_2_778
10
7.9198747
20
40.0143236
40
4.2675393
50
124.3067819
51
131.4493636
0
ARC
8
DEFAULT_255_2_778
10
8.4620847
20
39.2244116
40
5.2256347
50
118.6610148
51
124.3360492
0
ARC
8
DEFAULT_255_2_778
10
8.9870096
20
38.2663621
40
6.318065
50
113.6726596
51
118.6710021
0
ARC
8
DEFAULT_255_2_778
10
9.4970649
20
37.103656
40
7.587727
50
108.9795054
51
113.6749049
0
ARC
8
DEFAULT_255_2_778
10
9.953465
20
35.7814823
40
8.9864557
50
104.7489948
51
108.9895626
0
ARC
8
DEFAULT_255_2_778
10
10.3192083
20
34.3955641
40
10.4198213
50
100.6520897
51
104.7537144
0
ARC
8
DEFAULT_255_2_778
10
10.5859948
20
32.9709396
40
11.8692105
50
95.9502554
51
100.6465604
0
ARC
8
DEFAULT_255_2_778
10
10.7103126
20
31.7896782
40
13.0569951
50
89.9776017
51
95.9554883
0
ARC
8
DEFAULT_255_2_778
10
10.7226856
20
31.8508845
40
12.9957898
50
83.2790065
51
90.0320464
0
ARC
8
DEFAULT_255_2_778
10
10.8734984
20
33.155987
40
11.6820064
50
78.9002763
51
83.2644602
0
ARC
8
DEFAULT_255_2_778
10
11.1538452
20
34.580483
40
10.230186
50
74.6009799
51
78.905107
0
ARC
8
DEFAULT_255_2_778
10
11.544804
20
35.9992963
40
8.7584933
50
70.2846545
51
74.6021062
0
ARC
8
DEFAULT_255_2_778
10
12.010979
20
37.2973416
40
7.3792761
50
65.5964667
51
70.2920757
0
ARC
8
DEFAULT_255_2_778
10
12.5229145
20
38.4245638
40
6.1412505
50
60.5150754
51
65.6008936
0
ARC
8
DEFAULT_255_2_778
10
13.0632105
20
39.3763688
40
5.0467878
50
54.3985946
51
60.5360378
0
ARC
8
DEFAULT_255_2_778
10
13.6170888
20
40.1474419
40
4.0974027
50
46.9978319
51
54.4192373
0
ARC
8
DEFAULT_255_2_778
10
14.1574018
20
40.7229138
40
3.3080376
50
37.0410341
51
47.0438877
0
ARC
8
DEFAULT_255_2_778
10
14.7427305
20
41.1422723
40
2.5882712
50
8.1744184
51
37.4364109
0
ARC
8
DEFAULT_255_2_778
10
14.6823124
20
41.1450441
40
2.6477056
50
359.9448871
51
7.9291467
0
ARC
8
DEFAULT_255_2_778
10
14.7125418
20
2.2445025
40
2.6174784
50
349.3234464
51
0.0918213
0
ARC
8
DEFAULT_255_2_778
10
14.7026044
20
2.2654996
40
2.631201
50
320.3379161
51
348.914225
0
ARC
8
DEFAULT_255_2_778
10
14.0581763
20
2.7609809
40
3.4436706
50
311.4082915
51
320.835054
0
ARC
8
DEFAULT_255_2_778
10
13.510959
20
3.3768709
40
4.2675393
50
304.3067819
51
311.4493636
0
ARC
8
DEFAULT_255_2_778
10
12.968749
20
4.1667829
40
5.2256347
50
298.6610148
51
304.3360492
0
ARC
8
DEFAULT_255_2_778
10
12.4438241
20
5.1248324
40
6.318065
50
293.6726596
51
298.6710021
0
ARC
8
DEFAULT_255_2_778
10
11.9337688
20
6.2875385
40
7.587727
50
288.9795054
51
293.6749049
0
ARC
8
DEFAULT_255_2_778
10
11.4773687
20
7.6097122
40
8.9864557
50
284.7489948
51
288.9895626
0
ARC
8
DEFAULT_255_2_778
10
11.1116254
20
8.9956303
40
10.4198213
50
280.6520897
51
284.7537144
0
ARC
8
DEFAULT_255_2_778
10
10.8448389
20
10.4202549
40
11.8692105
50
275.9502554
51
280.6465604
0
ARC
8
DEFAULT_255_2_778
10
10.7205211
20
11.6015163
40
13.0569951
50
269.9776017
51
275.9554883
0
ARC
8
DEFAULT_255_2_778
10
10.7081481
20
11.54031
40
12.9957898
50
263.2790065
51
270.0320464
0
ARC
8
DEFAULT_255_2_778
10
10.5573353
20
10.2352075
40
11.6820064
50
258.9002763
51
263.2644602
0
ARC
8
DEFAULT_255_2_778
10
10.2769885
20
8.8107115
40
10.230186
50
254.6009799
51
258.905107
0
ARC
8
DEFAULT_255_2_778
10
9.8860297
20
7.3918982
40
8.7584933
50
250.2846545
51
254.6021062
0
ARC
8
DEFAULT_255_2_778
10
9.4198547
20
6.0938529
40
7.3792761
50
245.5964667
51
250.2920757
0
ARC
8
DEFAULT_255_2_778
10
8.9079192
20
4.9666307
40
6.1412505
50
240.5150754
51
245.6008936
0
ARC
8
DEFAULT_255_2_778
10
8.3676232
20
4.0148257
40
5.0467878
50
234.3985946
51
240.5360378
0
ARC
8
DEFAULT_255_2_778
10
7.8137449
20
3.2437526
40
4.0974027
50
226.9978319
51
234.4192373
0
ARC
8
DEFAULT_255_2_778
10
7.2734319
20
2.6682807
40
3.3080376
50
217.0410341
51
227.0438877
0
ARC
8
DEFAULT_255_2_778
10
6.6881032
20
2.2489222
40
2.5882712
50
188.1744184
51
217.4364109
0
ARC
8
DEFAULT_255_2_778
10
6.7485213
20
2.2461504
40
2.6477056
50
179.9448871
51
187.9291467
0
LINE
8
DEFAULT_255_2_778
10
4.1008169
20
2.2486972
11
4.1008169
21
41.1424972
0
LINE
8
DEFAULT_255_2_778
10
17.3300169
20
41.1424972
11
17.3300169
21
2.2486972
0
LINE
8
DEFAULT_255_2_778
10
4.1008169
20
2.2486972
11
4.1008169
21
2.2486972
0
ENDSEC
0
EOF