0
SECTION
2
HEADER
9
$MEASUREMENT
70
1
0
ENDSEC
0
SECTION
2
TABLES
0
TABLE
2
LTYPE
0
LTYPE
72
65
70
64
2
CONTINUOUS
3
______
73
0
40
0
0
ENDTAB
0
TABLE
2
LAYER
0
LAYER
2
DEFAULT_255_2_778
70
0
62
255
6
CONTINUOUS
0
ENDTAB
0
ENDSEC
0
SECTION
2
ENTITIES
0
LINE
8
DEFAULT_255_2_778
10
17.3305417
20
4.5528258
11
17.3305417
21
21.4965258
0
LINE
8
DEFAULT_255_2_778
10
17.3305417
20
21.4965258
11
18.6534417
21
19.6648258
0
LINE
8
DEFAULT_255_2_778
10
18.6534417
20
19.6648258
11
18.6534417
21
6.8426258
0
LINE
8
DEFAULT_255_2_778
10
18.6534417
20
6.8426258
11
18.6534417
21
6.3846258
0
LINE
8
DEFAULT_255_2_778
10
18.6534417
20
6.3846258
11
17.3305417
21
4.5528258
0
LINE
8
DEFAULT_255_2_778
10
17.3305417
20
22.8702289
11
17.3305417
21
39.3559289
0
LINE
8
DEFAULT_255_2_778
10
17.3305417
20
39.3559289
11
18.6534417
21
37.5242289
0
LINE
8
DEFAULT_255_2_778
10
18.6534417
20
37.5242289
11
18.6534417
21
24.7020289
0
LINE
8
DEFAULT_255_2_778
10
18.6534417
20
24.7020289
11
17.3305417
21
22.8702289
0
LINE
8
DEFAULT_255_2_778
10
4.1007417
20
21.4965258
11
4.1007417
21
4.5528258
0
LINE
8
DEFAULT_255_2_778
10
4.1007417
20
4.5528258
11
2.7778417
21
6.3846258
0
LINE
8
DEFAULT_255_2_778
10
2.7778417
20
6.3846258
11
2.7778417
21
19.6648258
0
LINE
8
DEFAULT_255_2_778
10
2.7778417
20
19.6648258
11
4.1007417
21
21.4965258
0
LINE
8
DEFAULT_255_2_778
10
4.1007417
20
22.8702289
11
4.1007417
21
39.3559289
0
LINE
8
DEFAULT_255_2_778
10
4.1007417
20
39.3559289
11
2.7778417
21
37.5242289
0
LINE
8
DEFAULT_255_2_778
10
2.7778417
20
37.5242289
11
2.7778417
21
24.7020289
0
LINE
8
DEFAULT_255_2_778
10
2.7778417
20
24.7020289
11
4.1007417
21
22.8702289
0
ARC
8
DEFAULT_255_2_778
10
10.942737
20
9.8008926
40
11.2379622
50
277.1064114
51
283.4180112
0
ARC
8
DEFAULT_255_2_778
10
11.4373495
20
7.7302001
40
9.1090167
50
283.4142424
51
289.5603257
0
ARC
8
DEFAULT_255_2_778
10
12.0996441
20
5.8719564
40
7.1362778
50
289.5447913
51
296.3051425
0
ARC
8
DEFAULT_255_2_778
10
12.8462255
20
4.3669538
40
5.456275
50
296.2807169
51
304.2058102
0
ARC
8
DEFAULT_255_2_778
10
13.6268482
20
3.2280332
40
4.0755237
50
304.1308859
51
314.8659859
0
ARC
8
DEFAULT_255_2_778
10
14.4077666
20
2.457447
40
2.9784806
50
314.676081
51
332.714482
0
ARC
8
DEFAULT_255_2_778
10
14.805405
20
2.2360261
40
2.5236231
50
333.0436156
51
356.3807398
0
ARC
8
DEFAULT_255_2_778
10
14.6252028
20
2.2525062
40
2.7045109
50
356.2732914
51
0.0138356
0
ARC
8
DEFAULT_255_2_778
10
14.3902929
20
2.8659033
40
4.2647777
50
350.4621649
51
358.0550419
0
ARC
8
DEFAULT_255_2_778
10
14.4156378
20
2.8638631
40
4.2394455
50
341.3169659
51
350.4325994
0
ARC
8
DEFAULT_255_2_778
10
14.0772324
20
2.9882095
40
4.5998606
50
328.7735088
51
341.1999831
0
ARC
8
DEFAULT_255_2_778
10
13.0610892
20
3.627078
40
5.8000263
50
315.1152337
51
328.5806715
0
ARC
8
DEFAULT_255_2_778
10
11.7721345
20
4.8707787
40
7.590998
50
308.4522271
51
315.3295749
0
ARC
8
DEFAULT_255_2_778
10
10.8886467
20
5.964599
40
8.9970131
50
304.6813803
51
308.5265958
0
ARC
8
DEFAULT_255_2_778
10
10.2865106
20
6.8301919
40
10.0514385
50
301.7484936
51
304.6963201
0
ARC
8
DEFAULT_255_2_778
10
9.8456161
20
7.5394864
40
10.8865934
50
299.4530709
51
301.7574249
0
ARC
8
DEFAULT_255_2_778
10
9.5551657
20
8.0516613
40
11.4753919
50
297.6241423
51
299.4584153
0
ARC
8
DEFAULT_255_2_778
10
9.3902413
20
8.3656598
40
11.8300674
50
295.9929788
51
297.6267232
0
ARC
8
DEFAULT_255_2_778
10
9.3450001
20
8.4573521
40
11.9323123
50
294.6448977
51
295.9952826
0
ARC
8
DEFAULT_255_2_778
10
9.4070745
20
8.3214277
40
11.7828846
50
293.5560526
51
294.6461598
0
ARC
8
DEFAULT_255_2_778
10
9.547937
20
7.9981244
40
11.4302272
50
292.6660352
51
293.5564662
0
ARC
8
DEFAULT_255_2_778
10
9.744823
20
7.5266189
40
10.919266
50
291.9312478
51
292.6661355
0
ARC
8
DEFAULT_255_2_778
10
9.9726641
20
6.9608893
40
10.3093794
50
291.3198291
51
291.9309343
0
ARC
8
DEFAULT_255_2_778
10
10.2876527
20
6.1522419
40
9.4415499
50
290.56278
51
291.3232908
0
ARC
8
DEFAULT_255_2_778
10
10.7415459
20
4.941065
40
8.1481171
50
289.8148673
51
290.5658116
0
ARC
8
DEFAULT_255_2_778
10
11.2461163
20
3.5415571
40
6.6604297
50
289.255347
51
289.8123889
0
ARC
8
DEFAULT_255_2_778
10
11.7891516
20
1.9850602
40
5.0119245
50
288.6685432
51
289.262694
0
ARC
8
DEFAULT_255_2_778
10
12.3953714
20
0.1906553
40
3.1178835
50
288.1995499
51
288.6694989
0
ARC
8
DEFAULT_255_2_778
10
12.981307
20
-1.5929642
40
1.2404866
50
287.8191992
51
288.2203096
0
LINE
8
DEFAULT_255_2_778
10
17.3297136
20
2.2531593
11
17.3297136
21
3.6371593
0
LINE
8
DEFAULT_255_2_778
10
17.3297136
20
3.6371593
11
18.6526136
21
2.7211593
0
LINE
8
DEFAULT_255_2_778
10
13.3609136
20
-2.7739407
11
12.3330136
21
-1.3507407
0
ARC
8
DEFAULT_255_2_778
10
10.4879618
20
9.798164
40
11.2352371
50
256.5803759
51
262.8935247
0
ARC
8
DEFAULT_255_2_778
10
9.9937222
20
7.7293241
40
9.1081802
50
250.4374829
51
256.5841914
0
ARC
8
DEFAULT_255_2_778
10
9.3317052
20
5.8720766
40
7.1364727
50
243.692713
51
250.4529885
0
ARC
8
DEFAULT_255_2_778
10
8.5851975
20
4.3673607
40
5.4567594
50
235.7925761
51
243.7171165
0
ARC
8
DEFAULT_255_2_778
10
7.8045433
20
3.2284709
40
4.0760157
50
225.1336026
51
235.8675552
0
ARC
8
DEFAULT_255_2_778
10
7.0234288
20
2.4577116
40
2.9787117
50
207.286922
51
225.3236639
0
ARC
8
DEFAULT_255_2_778
10
6.625319
20
2.2360529
40
2.5233257
50
183.6202614
51
206.9581131
0
ARC
8
DEFAULT_255_2_778
10
6.8050926
20
2.2524841
40
2.7037828
50
179.9861763
51
183.7272091
0
ARC
8
DEFAULT_255_2_778
10
5.9682648
20
2.6589246
40
3.1904615
50
178.8827013
51
179.9996739
0
ARC
8
DEFAULT_255_2_778
10
6.0416973
20
2.6635111
40
3.2638973
50
180.0801939
51
194.9542314
0
ARC
8
DEFAULT_255_2_778
10
6.7872231
20
2.887736
40
4.0421073
50
195.2979698
51
212.2774097
0
ARC
8
DEFAULT_255_2_778
10
8.3116292
20
3.8316723
40
5.8350524
50
212.1204024
51
222.8236789
0
ARC
8
DEFAULT_255_2_778
10
10.3129941
20
5.6917481
40
8.5673286
50
222.8494535
51
232.1879257
0
ARC
8
DEFAULT_255_2_778
10
11.7530772
20
7.4676882
40
10.8533545
50
231.9296667
51
234.3276823
0
ARC
8
DEFAULT_255_2_778
10
12.4085548
20
8.3821022
40
11.9784337
50
234.3312798
51
236.9911893
0
ARC
8
DEFAULT_255_2_778
10
12.9004522
20
9.1348912
40
12.8776828
50
236.9804965
51
238.980975
0
ARC
8
DEFAULT_255_2_778
10
13.1161641
20
9.4913076
40
13.2942918
50
238.9758257
51
240.5864777
0
ARC
8
DEFAULT_255_2_778
10
13.0985798
20
9.4586225
40
13.2571839
50
240.5833038
51
241.9999226
0
ARC
8
DEFAULT_255_2_778
10
12.8725685
20
9.0326129
40
12.774934
50
241.9979317
51
243.1841822
0
ARC
8
DEFAULT_255_2_778
10
12.4898758
20
8.2750651
40
11.9262099
50
243.1831758
51
244.2024668
0
ARC
8
DEFAULT_255_2_778
10
12.0042195
20
7.2701795
40
10.8101197
50
244.2021278
51
245.1000831
0
ARC
8
DEFAULT_255_2_778
10
11.4652377
20
6.1090512
40
9.5299947
50
245.1001162
51
245.9106641
0
ARC
8
DEFAULT_255_2_778
10
10.7773373
20
4.5658478
40
7.8404152
50
245.8969002
51
247.0406136
0
ARC
8
DEFAULT_255_2_778
10
9.9461117
20
2.6011645
40
5.7071279
50
247.0305379
51
248.2893073
0
ARC
8
DEFAULT_255_2_778
10
9.1969038
20
0.7173479
40
3.6797954
50
248.2768516
51
249.7053049
0
ARC
8
DEFAULT_255_2_778
10
8.5805334
20
-0.9573808
40
1.8952467
50
249.6215374
51
251.9675166
0
ARC
8
DEFAULT_255_2_778
10
8.188918
20
-2.1699378
40
0.6210293
50
251.693063
51
256.3460244
0
ARC
8
DEFAULT_255_2_778
10
8.0691522
20
-2.6706216
40
0.1062392
50
255.3703116
51
267.0598026
0
ARC
8
DEFAULT_255_2_778
10
8.063943
20
-2.7583213
40
0.0184013
50
269.2519851
51
279.3401931
0
ARC
8
DEFAULT_255_2_778
10
8.0661395
20
-2.7708028
40
0.0057304
50
277.9237157
51
302.0646004
0
ARC
8
DEFAULT_255_2_778
10
8.0681237
20
-2.773978
40
0.0019862
50
302.1837114
51
0.4164745
0
LINE
8
DEFAULT_255_2_778
10
4.1013099
20
2.2531364
11
4.1013099
21
3.6371364
0
LINE
8
DEFAULT_255_2_778
10
4.1013099
20
3.6371364
11
2.7784099
21
2.7211364
0
LINE
8
DEFAULT_255_2_778
10
8.0701099
20
-2.7739636
11
9.0980099
21
-1.3507636
0
ARC
8
DEFAULT_255_2_778
10
6.7182919
20
41.151092
40
2.6174784
50
169.3234464
51
180.0918213
0
ARC
8
DEFAULT_255_2_778
10
6.7282293
20
41.1300949
40
2.631201
50
140.3379161
51
168.914225
0
ARC
8
DEFAULT_255_2_778
10
7.3726574
20
40.6346136
40
3.4436706
50
131.4082915
51
140.835054
0
ARC
8
DEFAULT_255_2_778
10
7.9198747
20
40.0187236
40
4.2675393
50
124.3067819
51
131.4493636
0
ARC
8
DEFAULT_255_2_778
10
8.4620847
20
39.2288116
40
5.2256347
50
118.6610148
51
124.3360492
0
ARC
8
DEFAULT_255_2_778
10
8.9870096
20
38.2707621
40
6.318065
50
113.6726596
51
118.6710021
0
ARC
8
DEFAULT_255_2_778
10
9.4970649
20
37.108056
40
7.587727
50
108.9795054
51
113.6749049
0
ARC
8
DEFAULT_255_2_778
10
9.953465
20
35.7858823
40
8.9864557
50
104.7489948
51
108.9895626
0
ARC
8
DEFAULT_255_2_778
10
10.3192083
20
34.3999641
40
10.4198213
50
100.6520897
51
104.7537144
0
ARC
8
DEFAULT_255_2_778
10
10.5859948
20
32.9753396
40
11.8692105
50
95.9502554
51
100.6465604
0
ARC
8
DEFAULT_255_2_778
10
10.7103126
20
31.7940782
40
13.0569951
50
89.9776017
51
95.9554883
0
ARC
8
DEFAULT_255_2_778
10
10.7226856
20
31.8552845
40
12.9957898
50
83.2790065
51
90.0320464
0
ARC
8
DEFAULT_255_2_778
10
10.8734984
20
33.160387
40
11.6820064
50
78.9002763
51
83.2644602
0
ARC
8
DEFAULT_255_2_778
10
11.1538452
20
34.584883
40
10.230186
50
74.6009799
51
78.905107
0
ARC
8
DEFAULT_255_2_778
10
11.544804
20
36.0036963
40
8.7584933
50
70.2846545
51
74.6021062
0
ARC
8
DEFAULT_255_2_778
10
12.010979
20
37.3017416
40
7.3792761
50
65.5964667
51
70.2920757
0
ARC
8
DEFAULT_255_2_778
10
12.5229145
20
38.4289638
40
6.1412505
50
60.5150754
51
65.6008936
0
ARC
8
DEFAULT_255_2_778
10
13.0632105
20
39.3807688
40
5.0467878
50
54.3985946
51
60.5360378
0
ARC
8
DEFAULT_255_2_778
10
13.6170888
20
40.1518419
40
4.0974027
50
46.9978319
51
54.4192373
0
ARC
8
DEFAULT_255_2_778
10
14.1574018
20
40.7273138
40
3.3080376
50
37.0410341
51
47.0438877
0
ARC
8
DEFAULT_255_2_778
10
14.7427305
20
41.1466723
40
2.5882712
50
8.1744184
51
37.4364109
0
ARC
8
DEFAULT_255_2_778
10
14.6823124
20
41.1494441
40
2.6477056
50
359.9448871
51
7.9291467
0
ARC
8
DEFAULT_255_2_778
10
14.7125418
20
2.2489025
40
2.6174784
50
349.3234464
51
0.0918213
0
ARC
8
DEFAULT_255_2_778
10
14.7026044
20
2.2698996
40
2.631201
50
320.3379161
51
348.914225
0
ARC
8
DEFAULT_255_2_778
10
14.0581763
20
2.7653809
40
3.4436706
50
311.4082915
51
320.835054
0
ARC
8
DEFAULT_255_2_778
10
13.510959
20
3.3812709
40
4.2675393
50
304.3067819
51
311.4493636
0
ARC
8
DEFAULT_255_2_778
10
12.968749
20
4.1711829
40
5.2256347
50
298.6610148
51
304.3360492
0
ARC
8
DEFAULT_255_2_778
10
12.4438241
20
5.1292324
40
6.318065
50
293.6726596
51
298.6710021
0
ARC
8
DEFAULT_255_2_778
10
11.9337688
20
6.2919385
40
7.587727
50
288.9795054
51
293.6749049
0
ARC
8
DEFAULT_255_2_778
10
11.4773687
20
7.6141122
40
8.9864557
50
284.7489948
51
288.9895626
0
ARC
8
DEFAULT_255_2_778
10
11.1116254
20
9.0000303
40
10.4198213
50
280.6520897
51
284.7537144
0
ARC
8
DEFAULT_255_2_778
10
10.8448389
20
10.4246549
40
11.8692105
50
275.9502554
51
280.6465604
0
ARC
8
DEFAULT_255_2_778
10
10.7205211
20
11.6059163
40
13.0569951
50
269.9776017
51
275.9554883
0
ARC
8
DEFAULT_255_2_778
10
10.7081481
20
11.54471
40
12.9957898
50
263.2790065
51
270.0320464
0
ARC
8
DEFAULT_255_2_778
10
10.5573353
20
10.2396075
40
11.6820064
50
258.9002763
51
263.2644602
0
ARC
8
DEFAULT_255_2_778
10
10.2769885
20
8.8151115
40
10.230186
50
254.6009799
51
258.905107
0
ARC
8
DEFAULT_255_2_778
10
9.8860297
20
7.3962982
40
8.7584933
50
250.2846545
51
254.6021062
0
ARC
8
DEFAULT_255_2_778
10
9.4198547
20
6.0982529
40
7.3792761
50
245.5964667
51
250.2920757
0
ARC
8
DEFAULT_255_2_778
10
8.9079192
20
4.9710307
40
6.1412505
50
240.5150754
51
245.6008936
0
ARC
8
DEFAULT_255_2_778
10
8.3676232
20
4.0192257
40
5.0467878
50
234.3985946
51
240.5360378
0
ARC
8
DEFAULT_255_2_778
10
7.8137449
20
3.2481526
40
4.0974027
50
226.9978319
51
234.4192373
0
ARC
8
DEFAULT_255_2_778
10
7.2734319
20
2.6726807
40
3.3080376
50
217.0410341
51
227.0438877
0
ARC
8
DEFAULT_255_2_778
10
6.6881032
20
2.2533222
40
2.5882712
50
188.1744184
51
217.4364109
0
ARC
8
DEFAULT_255_2_778
10
6.7485213
20
2.2505504
40
2.6477056
50
179.9448871
51
187.9291467
0
LINE
8
DEFAULT_255_2_778
10
4.1008169
20
2.2530972
11
4.1008169
21
41.1468972
0
LINE
8
DEFAULT_255_2_778
10
17.3300169
20
41.1468972
11
17.3300169
21
2.2530972
0
LINE
8
DEFAULT_255_2_778
10
4.1008169
20
2.2530972
11
4.1008169
21
2.2530972
0
ENDSEC
0
EOF