0
SECTION
2
HEADER
9
$MEASUREMENT
70
1
0
ENDSEC
0
SECTION
2
TABLES
0
TABLE
2
LTYPE
0
LTYPE
72
65
70
64
2
CONTINUOUS
3
______
73
0
40
0
0
ENDTAB
0
TABLE
2
LAYER
0
LAYER
2
DEFAULT_255_2_778
70
0
62
255
6
CONTINUOUS
0
ENDTAB
0
ENDSEC
0
SECTION
2
ENTITIES
0
LINE
8
DEFAULT_255_2_778
10
14.6843501
20
5.1594333
11
22.6218501
21
5.1594333
0
LINE
8
DEFAULT_255_2_778
10
22.6218501
20
5.1594333
11
22.6218501
21
-0.1322667
0
LINE
8
DEFAULT_255_2_778
10
22.6218501
20
-0.1322667
11
14.6843501
21
-0.1322667
0
LINE
8
DEFAULT_255_2_778
10
14.6843501
20
-0.1322667
11
14.6843501
21
5.1594333
0
ARC
8
DEFAULT_255_2_778
10
14.6714311
20
3.0380027
40
2.1214699
50
89.651313
51
99.4995419
0
ARC
8
DEFAULT_255_2_778
10
14.5417108
20
3.7868137
40
1.3615254
50
99.3161539
51
114.7838841
0
ARC
8
DEFAULT_255_2_778
10
14.3880006
20
4.1288141
40
0.9865973
50
115.0053053
51
163.5305431
0
ARC
8
DEFAULT_255_2_778
10
14.9920858
20
3.9152088
40
1.6268022
50
162.3477554
51
175.0365692
0
ARC
8
DEFAULT_255_2_778
10
15.6852678
20
3.8411792
40
2.3238308
50
174.6968603
51
180.1145488
0
ARC
8
DEFAULT_255_2_778
10
15.4831891
20
1.1778215
40
2.1217867
50
179.6513337
51
189.4988298
0
ARC
8
DEFAULT_255_2_778
10
14.734238
20
1.0480861
40
1.3617016
50
189.3154142
51
204.7822053
0
ARC
8
DEFAULT_255_2_778
10
14.3920984
20
0.8943101
40
0.9866194
50
205.0028998
51
253.5286475
0
ARC
8
DEFAULT_255_2_778
10
14.6056725
20
1.4982913
40
1.6267163
50
252.3465561
51
265.0360801
0
ARC
8
DEFAULT_255_2_778
10
14.6796958
20
2.1913738
40
2.3236452
50
264.6964349
51
270.1145573
0
LINE
8
DEFAULT_255_2_778
10
13.3614417
20
3.8365333
11
13.3614417
21
1.1907333
0
LINE
8
DEFAULT_255_2_778
10
14.6843417
20
-0.1322667
11
14.6843417
21
5.1594333
0
ARC
8
DEFAULT_255_2_778
10
22.6347523
20
3.0380027
40
2.1214699
50
80.5004581
51
90.348687
0
ARC
8
DEFAULT_255_2_778
10
22.7644726
20
3.7868137
40
1.3615254
50
65.2161159
51
80.6838461
0
ARC
8
DEFAULT_255_2_778
10
22.9181827
20
4.1288141
40
0.9865973
50
16.4694569
51
64.9946947
0
ARC
8
DEFAULT_255_2_778
10
22.3140976
20
3.9152088
40
1.6268022
50
4.9634308
51
17.6522446
0
ARC
8
DEFAULT_255_2_778
10
21.6209156
20
3.8411792
40
2.3238308
50
359.8854512
51
5.3031397
0
ARC
8
DEFAULT_255_2_778
10
21.8229943
20
1.1778215
40
2.1217867
50
350.5011702
51
0.3486663
0
ARC
8
DEFAULT_255_2_778
10
22.5719453
20
1.0480861
40
1.3617016
50
335.2177947
51
350.6845858
0
ARC
8
DEFAULT_255_2_778
10
22.914085
20
0.8943101
40
0.9866194
50
286.4713525
51
334.9971002
0
ARC
8
DEFAULT_255_2_778
10
22.7005109
20
1.4982913
40
1.6267163
50
274.9639199
51
287.6534439
0
ARC
8
DEFAULT_255_2_778
10
22.6264876
20
2.1913738
40
2.3236452
50
269.8854427
51
275.3035651
0
LINE
8
DEFAULT_255_2_778
10
23.9447417
20
3.8365333
11
23.9447417
21
1.1907333
0
LINE
8
DEFAULT_255_2_778
10
22.6218417
20
-0.1322667
11
22.6218417
21
5.1594333
0
LINE
8
DEFAULT_255_2_778
10
5.4238834
20
2.5136
11
2.7780834
21
2.5136
0
LINE
8
DEFAULT_255_2_778
10
2.7781
20
3.8365166
11
2.7781
21
1.1907166
0
LINE
8
DEFAULT_255_2_778
10
8.0698
20
7.8053166
11
8.0698
21
10.4511166
0
LINE
8
DEFAULT_255_2_778
10
6.7468834
20
10.4511
11
9.3926834
21
10.4511
0
LINE
8
DEFAULT_255_2_778
10
10.7155834
20
2.5136
11
13.3613834
21
2.5136
0
ARC
8
DEFAULT_255_2_778
10
8.5944055
20
6.4952792
40
2.1213005
50
359.65123
51
9.5002523
0
ARC
8
DEFAULT_255_2_778
10
9.3431174
20
6.6249907
40
1.361455
50
9.316927
51
24.7855627
0
ARC
8
DEFAULT_255_2_778
10
9.6850068
20
6.7786477
40
0.9866502
50
25.0077098
51
73.5324207
0
ARC
8
DEFAULT_255_2_778
10
9.4713504
20
6.1743936
40
1.6270309
50
72.3490177
51
85.036967
0
ARC
8
DEFAULT_255_2_778
10
9.3973129
20
5.4810866
40
2.3241846
50
84.6972656
51
90.1145376
0
ARC
8
DEFAULT_255_2_778
10
6.7339561
20
5.6838359
40
2.1214699
50
89.651313
51
99.4995419
0
ARC
8
DEFAULT_255_2_778
10
6.6042358
20
6.4326469
40
1.3615254
50
99.3161539
51
114.7838841
0
ARC
8
DEFAULT_255_2_778
10
6.4505257
20
6.7746473
40
0.9865973
50
115.0053053
51
163.5305431
0
ARC
8
DEFAULT_255_2_778
10
7.0546109
20
6.5610421
40
1.6268022
50
162.3477554
51
175.0365692
0
ARC
8
DEFAULT_255_2_778
10
7.7477929
20
6.4870124
40
2.3238308
50
174.6968603
51
180.1145488
0
ARC
8
DEFAULT_255_2_778
10
7.5453973
20
-1.4680441
40
2.1214699
50
179.651313
51
189.4995419
0
ARC
8
DEFAULT_255_2_778
10
6.7965863
20
-1.5977644
40
1.3615254
50
189.3161539
51
204.7838841
0
ARC
8
DEFAULT_255_2_778
10
6.4545859
20
-1.7514745
40
0.9865973
50
205.0053053
51
253.5305431
0
ARC
8
DEFAULT_255_2_778
10
6.6681912
20
-1.1473894
40
1.6268022
50
252.3477554
51
265.0365692
0
ARC
8
DEFAULT_255_2_778
10
6.7422208
20
-0.4542073
40
2.3238308
50
264.6968603
51
270.1145488
0
ARC
8
DEFAULT_255_2_778
10
9.4055785
20
-0.6562861
40
2.1217867
50
269.6513337
51
279.4988298
0
ARC
8
DEFAULT_255_2_778
10
9.5353139
20
-1.4052371
40
1.3617016
50
279.3154142
51
294.7822053
0
ARC
8
DEFAULT_255_2_778
10
9.6890899
20
-1.7473768
40
0.9866194
50
295.0028998
51
343.5286475
0
ARC
8
DEFAULT_255_2_778
10
9.0851087
20
-1.5338027
40
1.6267163
50
342.3465561
51
355.0360801
0
ARC
8
DEFAULT_255_2_778
10
8.3920262
20
-1.4597794
40
2.3236452
50
354.6964349
51
0.1145573
0
LINE
8
DEFAULT_255_2_778
10
10.7156667
20
-1.4551335
11
10.7156667
21
6.4823665
0
LINE
8
DEFAULT_255_2_778
10
9.3926667
20
7.8052665
11
6.7468667
21
7.8052665
0
LINE
8
DEFAULT_255_2_778
10
5.4239667
20
6.4823665
11
5.4239667
21
-1.4551335
0
LINE
8
DEFAULT_255_2_778
10
6.7468667
20
-2.7780335
11
9.3926667
21
-2.7780335
0
LINE
8
DEFAULT_255_2_778
10
10.7156667
20
-1.4551335
11
10.7156667
21
-1.4551335
0
ENDSEC
0
EOF