0
SECTION
2
HEADER
9
$MEASUREMENT
70
1
0
ENDSEC
0
SECTION
2
TABLES
0
TABLE
2
LTYPE
0
LTYPE
72
65
70
64
2
CONTINUOUS
3
______
73
0
40
0
0
ENDTAB
0
TABLE
2
LAYER
0
LAYER
2
DEFAULT_255_2_778
70
0
62
255
6
CONTINUOUS
0
ENDTAB
0
ENDSEC
0
SECTION
2
ENTITIES
0
ARC
8
DEFAULT_255_2_778
10
10.8443368
20
6.6655228
40
9.7635411
50
236.2778463
51
239.7113998
0
ARC
8
DEFAULT_255_2_778
10
10.3167483
20
5.7603352
40
8.7158228
50
239.7050487
51
243.7558385
0
ARC
8
DEFAULT_255_2_778
10
9.8989491
20
4.9099259
40
7.768326
50
243.7461238
51
248.7284399
0
ARC
8
DEFAULT_255_2_778
10
9.6033242
20
4.1479236
40
6.9509883
50
248.7205149
51
254.8364662
0
ARC
8
DEFAULT_255_2_778
10
9.4345231
20
3.5199742
40
6.3007481
50
254.8243543
51
263.2080507
0
ARC
8
DEFAULT_255_2_778
10
9.393595
20
3.2114494
40
5.9895496
50
263.2477823
51
269.9912008
0
ARC
8
DEFAULT_255_2_778
10
9.3876501
20
3.2878244
40
6.0659267
50
270.0474634
51
281.8276549
0
ARC
8
DEFAULT_255_2_778
10
9.2738895
20
3.8444726
40
6.6340746
50
281.8039041
51
288.6822944
0
ARC
8
DEFAULT_255_2_778
10
9.0450675
20
4.5270809
40
7.3540123
50
288.6675847
51
293.7954317
0
ARC
8
DEFAULT_255_2_778
10
8.6957716
20
5.3194437
40
8.2199489
50
293.7947792
51
298.3772007
0
ARC
8
DEFAULT_255_2_778
10
8.1966309
20
6.244928
40
9.2714536
50
298.3728999
51
302.3658245
0
ARC
8
DEFAULT_255_2_778
10
7.7606098
20
6.9445694
40
10.095818
50
302.3303541
51
303.6947609
0
ARC
8
DEFAULT_255_2_778
10
7.9408797
20
3.6527919
40
9.7640463
50
56.2785289
51
59.711963
0
ARC
8
DEFAULT_255_2_778
10
8.468517
20
4.558087
40
8.7162108
50
59.7056002
51
63.7562734
0
ARC
8
DEFAULT_255_2_778
10
8.8863538
20
5.4085964
40
7.7686076
50
63.7465346
51
68.7287394
0
ARC
8
DEFAULT_255_2_778
10
9.1819895
20
6.1706442
40
6.9512237
50
68.7207968
51
74.8366095
0
ARC
8
DEFAULT_255_2_778
10
9.3508143
20
6.7986894
40
6.3008848
50
74.8244942
51
83.2080677
0
ARC
8
DEFAULT_255_2_778
10
9.3917545
20
7.1073097
40
5.98959
50
83.2478053
51
89.9911932
0
ARC
8
DEFAULT_255_2_778
10
9.3976977
20
7.0310449
40
6.065857
50
90.0474412
51
101.8277226
0
ARC
8
DEFAULT_255_2_778
10
9.5114387
20
6.4745065
40
6.6338933
50
101.8039942
51
108.6825066
0
ARC
8
DEFAULT_255_2_778
10
9.7402319
20
5.7919945
40
7.3537306
50
108.667803
51
113.795781
0
ARC
8
DEFAULT_255_2_778
10
10.0895163
20
4.9996737
40
8.2196242
50
113.7951366
51
118.3776708
0
ARC
8
DEFAULT_255_2_778
10
10.5886233
20
4.0742795
40
9.2710335
50
118.3733982
51
122.366438
0
ARC
8
DEFAULT_255_2_778
10
11.0247319
20
3.374518
40
10.095546
50
122.3309707
51
123.6953907
0
LINE
8
DEFAULT_255_2_778
10
5.4239501
20
11.7739998
11
5.4239501
21
-1.4552002
0
LINE
8
DEFAULT_255_2_778
10
13.3614501
20
-1.4552002
11
13.3614501
21
11.7739998
0
LINE
8
DEFAULT_255_2_778
10
5.4239501
20
11.7739998
11
5.4239501
21
11.7739998
0
LINE
8
DEFAULT_255_2_778
10
5.4238834
20
5.1594
11
2.7780834
21
5.1594
0
LINE
8
DEFAULT_255_2_778
10
2.7781
20
7.8052333
11
2.7781
21
2.5135333
0
LINE
8
DEFAULT_255_2_778
10
13.3614834
20
5.1594
11
16.0072834
21
5.1594
0
LINE
8
DEFAULT_255_2_778
10
16.0073
20
7.8052333
11
16.0073
21
2.5135333
0
ARC
8
DEFAULT_255_2_778
10
9.4028952
20
8.2057268
40
2.6560309
50
160.7095027
51
180.0775207
0
ARC
8
DEFAULT_255_2_778
10
9.3868206
20
8.2076241
40
2.6402344
50
102.0301591
51
160.6331218
0
ARC
8
DEFAULT_255_2_778
10
9.3909006
20
8.1722408
40
2.6756931
50
89.9621802
51
101.9576865
0
ARC
8
DEFAULT_255_2_778
10
9.3963411
20
8.1925235
40
2.6554123
50
70.3567975
51
90.0792807
0
ARC
8
DEFAULT_255_2_778
10
9.3981767
20
8.2078929
40
2.6403224
50
11.9023555
51
70.2821965
0
ARC
8
DEFAULT_255_2_778
10
9.3626547
20
8.2038699
40
2.6759126
50
359.9628159
51
11.829777
0
ARC
8
DEFAULT_255_2_778
10
9.3833283
20
8.1984623
40
2.655241
50
340.3554002
51
0.0792127
0
ARC
8
DEFAULT_255_2_778
10
9.3984203
20
8.1967583
40
2.6404568
50
281.9019784
51
340.2801285
0
ARC
8
DEFAULT_255_2_778
10
9.3944012
20
8.2322109
40
2.6759781
50
269.962864
51
281.8296308
0
ARC
8
DEFAULT_255_2_778
10
9.3889903
20
8.2113704
40
2.6551397
50
250.3550189
51
270.0793355
0
ARC
8
DEFAULT_255_2_778
10
9.3873162
20
8.1962794
40
2.6403665
50
191.9001656
51
250.2791382
0
ARC
8
DEFAULT_255_2_778
10
9.4230473
20
8.2003979
40
2.676181
50
179.9628467
51
191.8287004
0
LINE
8
DEFAULT_255_2_778
10
6.7468667
20
8.2021333
11
6.7468667
21
8.2021333
0
ARC
8
DEFAULT_255_2_778
10
9.4028952
20
1.5911268
40
2.6560309
50
160.7095027
51
180.0775207
0
ARC
8
DEFAULT_255_2_778
10
9.3868206
20
1.5930241
40
2.6402344
50
102.0301591
51
160.6331218
0
ARC
8
DEFAULT_255_2_778
10
9.3909006
20
1.5576408
40
2.6756931
50
89.9621802
51
101.9576865
0
ARC
8
DEFAULT_255_2_778
10
9.3963411
20
1.5779235
40
2.6554123
50
70.3567975
51
90.0792807
0
ARC
8
DEFAULT_255_2_778
10
9.3981767
20
1.5932929
40
2.6403224
50
11.9023555
51
70.2821965
0
ARC
8
DEFAULT_255_2_778
10
9.3626547
20
1.5892699
40
2.6759126
50
359.9628159
51
11.829777
0
ARC
8
DEFAULT_255_2_778
10
9.3833283
20
1.5838623
40
2.655241
50
340.3554002
51
0.0792127
0
ARC
8
DEFAULT_255_2_778
10
9.3984203
20
1.5821583
40
2.6404568
50
281.9019784
51
340.2801285
0
ARC
8
DEFAULT_255_2_778
10
9.3944012
20
1.6176109
40
2.6759781
50
269.962864
51
281.8296308
0
ARC
8
DEFAULT_255_2_778
10
9.3889903
20
1.5967704
40
2.6551397
50
250.3550189
51
270.0793355
0
ARC
8
DEFAULT_255_2_778
10
9.3873162
20
1.5816794
40
2.6403665
50
191.9001656
51
250.2791382
0
ARC
8
DEFAULT_255_2_778
10
9.4230473
20
1.5857979
40
2.676181
50
179.9628467
51
191.8287004
0
LINE
8
DEFAULT_255_2_778
10
6.7468667
20
1.5875333
11
6.7468667
21
1.5875333
0
LINE
8
DEFAULT_255_2_778
10
12.0385667
20
27.6489499
11
12.0385667
21
19.7114499
0
LINE
8
DEFAULT_255_2_778
10
12.0385667
20
19.7114499
11
6.7468667
21
19.7114499
0
LINE
8
DEFAULT_255_2_778
10
6.7468667
20
19.7114499
11
6.7468667
21
27.6489499
0
LINE
8
DEFAULT_255_2_778
10
6.7468667
20
27.6489499
11
12.0385667
21
27.6489499
0
ARC
8
DEFAULT_255_2_778
10
9.9173055
20
27.661871
40
2.1213005
50
359.65123
51
9.5002523
0
ARC
8
DEFAULT_255_2_778
10
10.6660174
20
27.7915825
40
1.361455
50
9.316927
51
24.7855627
0
ARC
8
DEFAULT_255_2_778
10
11.0079068
20
27.9452395
40
0.9866502
50
25.0077098
51
73.5324207
0
ARC
8
DEFAULT_255_2_778
10
10.7942504
20
27.3409854
40
1.6270309
50
72.3490177
51
85.036967
0
ARC
8
DEFAULT_255_2_778
10
10.7202129
20
26.6476784
40
2.3241846
50
84.6972656
51
90.1145376
0
ARC
8
DEFAULT_255_2_778
10
8.0568561
20
26.8504277
40
2.1214699
50
89.651313
51
99.4995419
0
ARC
8
DEFAULT_255_2_778
10
7.9271358
20
27.5992387
40
1.3615254
50
99.3161539
51
114.7838841
0
ARC
8
DEFAULT_255_2_778
10
7.7734257
20
27.9412391
40
0.9865973
50
115.0053053
51
163.5305431
0
ARC
8
DEFAULT_255_2_778
10
8.3775109
20
27.7276339
40
1.6268022
50
162.3477554
51
175.0365692
0
ARC
8
DEFAULT_255_2_778
10
9.0706929
20
27.6536042
40
2.3238308
50
174.6968603
51
180.1145488
0
LINE
8
DEFAULT_255_2_778
10
10.7155667
20
28.9718583
11
8.0697667
21
28.9718583
0
LINE
8
DEFAULT_255_2_778
10
6.7468667
20
27.6489583
11
12.0385667
21
27.6489583
0
ARC
8
DEFAULT_255_2_778
10
9.9173055
20
19.6985456
40
2.1213005
50
350.4997477
51
0.34877
0
ARC
8
DEFAULT_255_2_778
10
10.6660174
20
19.5688341
40
1.361455
50
335.2144373
51
350.683073
0
ARC
8
DEFAULT_255_2_778
10
11.0079068
20
19.4151772
40
0.9866502
50
286.4675793
51
334.9922902
0
ARC
8
DEFAULT_255_2_778
10
10.7942504
20
20.0194312
40
1.6270309
50
274.963033
51
287.6509823
0
ARC
8
DEFAULT_255_2_778
10
10.7202129
20
20.7127383
40
2.3241846
50
269.8854624
51
275.3027344
0
ARC
8
DEFAULT_255_2_778
10
8.0568561
20
20.5099889
40
2.1214699
50
260.5004581
51
270.348687
0
ARC
8
DEFAULT_255_2_778
10
7.9271358
20
19.7611779
40
1.3615254
50
245.2161159
51
260.6838461
0
ARC
8
DEFAULT_255_2_778
10
7.7734257
20
19.4191775
40
0.9865973
50
196.4694569
51
244.9946947
0
ARC
8
DEFAULT_255_2_778
10
8.3775109
20
19.6327827
40
1.6268022
50
184.9634308
51
197.6522446
0
ARC
8
DEFAULT_255_2_778
10
9.0706929
20
19.7068124
40
2.3238308
50
179.8854512
51
185.3031397
0
LINE
8
DEFAULT_255_2_778
10
10.7155667
20
18.3885583
11
8.0697667
21
18.3885583
0
LINE
8
DEFAULT_255_2_778
10
6.7468667
20
19.7114583
11
12.0385667
21
19.7114583
0
LINE
8
DEFAULT_255_2_778
10
9.3927
20
18.3885333
11
9.3927
21
13.0968333
0
ENDSEC
0
EOF