0
SECTION
2
HEADER
9
$MEASUREMENT
70
1
0
ENDSEC
0
SECTION
2
TABLES
0
TABLE
2
LTYPE
0
LTYPE
72
65
70
64
2
CONTINUOUS
3
______
73
0
40
0
0
ENDTAB
0
TABLE
2
LAYER
0
LAYER
2
DEFAULT_255_2_778
70
0
62
255
6
CONTINUOUS
0
ENDTAB
0
ENDSEC
0
SECTION
2
ENTITIES
0
ARC
8
DEFAULT_255_2_778
10
9.3900166
20
14.4227633
40
1.3202532
50
148.7968675
51
180.1300552
0
ARC
8
DEFAULT_255_2_778
10
9.389157
20
14.4231967
40
1.3192936
50
97.5665172
51
148.7936255
0
ARC
8
DEFAULT_255_2_778
10
9.3922624
20
14.3964757
40
1.3461909
50
89.9827905
51
97.547783
0
ARC
8
DEFAULT_255_2_778
10
12.0414521
20
14.4222774
40
1.3203925
50
58.79856
51
90.1295454
0
ARC
8
DEFAULT_255_2_778
10
12.0419702
20
14.4232093
40
1.3193271
50
7.5692592
51
58.7968374
0
ARC
8
DEFAULT_255_2_778
10
12.0155054
20
14.4201724
40
1.3459613
50
359.9827213
51
7.549011
0
ARC
8
DEFAULT_255_2_778
10
12.041341
20
6.4792799
40
1.3201292
50
328.7930849
51
0.129625
0
ARC
8
DEFAULT_255_2_778
10
12.041955
20
6.4790001
40
1.319459
50
277.5665868
51
328.7896597
0
ARC
8
DEFAULT_255_2_778
10
12.0388702
20
6.5055992
40
1.3462328
50
269.9828266
51
277.5476648
0
ARC
8
DEFAULT_255_2_778
10
9.3896699
20
6.4796164
40
1.3202532
50
238.7968675
51
270.1300552
0
ARC
8
DEFAULT_255_2_778
10
9.3892365
20
6.4787568
40
1.3192936
50
187.5665172
51
238.7936255
0
ARC
8
DEFAULT_255_2_778
10
9.4159575
20
6.4818622
40
1.3461909
50
179.9827905
51
187.547783
0
LINE
8
DEFAULT_255_2_778
10
9.3926667
20
15.7426665
11
12.0384667
21
15.7426665
0
LINE
8
DEFAULT_255_2_778
10
13.3614667
20
14.4197665
11
13.3614667
21
6.4822665
0
LINE
8
DEFAULT_255_2_778
10
12.0384667
20
5.1593665
11
9.3926667
21
5.1593665
0
LINE
8
DEFAULT_255_2_778
10
8.0697667
20
6.4822665
11
8.0697667
21
14.4197665
0
ARC
8
DEFAULT_255_2_778
10
6.7441833
20
1.1936301
40
1.3202532
50
148.7968675
51
180.1300552
0
ARC
8
DEFAULT_255_2_778
10
6.7433237
20
1.1940635
40
1.3192936
50
97.5665172
51
148.7936255
0
ARC
8
DEFAULT_255_2_778
10
6.7464291
20
1.1673425
40
1.3461909
50
89.9827905
51
97.547783
0
ARC
8
DEFAULT_255_2_778
10
14.6873303
20
1.1932834
40
1.3202532
50
58.7968675
51
90.1300552
0
ARC
8
DEFAULT_255_2_778
10
14.6877637
20
1.194143
40
1.3192936
50
7.5665172
51
58.7936255
0
ARC
8
DEFAULT_255_2_778
10
14.6610427
20
1.1910376
40
1.3461909
50
359.9827905
51
7.547783
0
ARC
8
DEFAULT_255_2_778
10
14.6868444
20
-1.4581521
40
1.3203925
50
328.79856
51
0.1295454
0
ARC
8
DEFAULT_255_2_778
10
14.6877762
20
-1.4586702
40
1.3193271
50
277.5692592
51
328.7968374
0
ARC
8
DEFAULT_255_2_778
10
14.6847394
20
-1.4322054
40
1.3459613
50
269.9827213
51
277.549011
0
ARC
8
DEFAULT_255_2_778
10
6.7438468
20
-1.458041
40
1.3201292
50
238.7930849
51
270.129625
0
ARC
8
DEFAULT_255_2_778
10
6.7435671
20
-1.458655
40
1.319459
50
187.5665868
51
238.7896597
0
ARC
8
DEFAULT_255_2_778
10
6.7701661
20
-1.4555702
40
1.3462328
50
179.9828266
51
187.5476648
0
LINE
8
DEFAULT_255_2_778
10
6.7468335
20
2.5135333
11
14.6843335
21
2.5135333
0
LINE
8
DEFAULT_255_2_778
10
16.0072335
20
1.1906333
11
16.0072335
21
-1.4551667
0
LINE
8
DEFAULT_255_2_778
10
14.6843335
20
-2.7781667
11
6.7468335
21
-2.7781667
0
LINE
8
DEFAULT_255_2_778
10
5.4239335
20
-1.4551667
11
5.4239335
21
1.1906333
0
LINE
8
DEFAULT_255_2_778
10
8.0697667
20
14.4198
11
13.3614667
21
14.4198
0
LINE
8
DEFAULT_255_2_778
10
8.0697667
20
6.4823
11
13.3614667
21
6.4823
0
LINE
8
DEFAULT_255_2_778
10
10.7156
20
5.1593166
11
10.7156
21
2.5135166
0
LINE
8
DEFAULT_255_2_778
10
5.4238834
20
-0.1323
11
2.7780834
21
-0.1323
0
LINE
8
DEFAULT_255_2_778
10
16.0067834
20
-0.1323
11
18.6525834
21
-0.1323
0
LINE
8
DEFAULT_255_2_778
10
2.7781
20
1.1906166
11
2.7781
21
-1.4551834
0
LINE
8
DEFAULT_255_2_778
10
18.6531
20
1.1906166
11
18.6531
21
-1.4551834
0
ENDSEC
0
EOF