0
SECTION
2
HEADER
9
$MEASUREMENT
70
1
0
ENDSEC
0
SECTION
2
TABLES
0
TABLE
2
LTYPE
0
LTYPE
72
65
70
64
2
CONTINUOUS
3
______
73
0
40
0
0
ENDTAB
0
TABLE
2
LAYER
0
LAYER
2
DEFAULT_255_2_778
70
0
62
255
6
CONTINUOUS
0
ENDTAB
0
ENDSEC
0
SECTION
2
ENTITIES
0
LINE
8
DEFAULT_255_2_778
10
2.7781417
20
8.2021333
11
4.1010417
21
8.2021333
0
LINE
8
DEFAULT_255_2_778
10
4.1010417
20
8.2021333
11
4.1010417
21
2.9104333
0
LINE
8
DEFAULT_255_2_778
10
4.1010417
20
2.9104333
11
2.7781417
21
2.9104333
0
LINE
8
DEFAULT_255_2_778
10
2.7781417
20
2.9104333
11
2.7781417
21
8.2021333
0
LINE
8
DEFAULT_255_2_778
10
10.7156667
20
3.4395583
11
16.0073667
21
3.4395583
0
LINE
8
DEFAULT_255_2_778
10
16.0073667
20
3.4395583
11
16.0073667
21
2.1166583
0
LINE
8
DEFAULT_255_2_778
10
16.0073667
20
2.1166583
11
10.7156667
21
2.1166583
0
LINE
8
DEFAULT_255_2_778
10
10.7156667
20
2.1166583
11
10.7156667
21
3.4395583
0
ARC
8
DEFAULT_255_2_778
10
8.1232224
20
2.649855
40
5.3450904
50
167.0932987
51
180.0427536
0
ARC
8
DEFAULT_255_2_778
10
8.0384011
20
2.6668489
40
5.2586169
50
148.3180854
51
167.0673517
0
ARC
8
DEFAULT_255_2_778
10
8.0612765
20
2.6538409
40
5.2849153
50
110.0832017
51
148.328327
0
ARC
8
DEFAULT_255_2_778
10
8.0557263
20
2.6539304
40
5.2829279
50
95.3310996
51
110.0270003
0
ARC
8
DEFAULT_255_2_778
10
8.0689635
20
2.5332221
40
5.4043445
50
89.9907771
51
95.3519304
0
ARC
8
DEFAULT_255_2_778
10
8.0738193
20
2.5927767
40
5.3447913
50
77.0929369
51
90.0427279
0
ARC
8
DEFAULT_255_2_778
10
8.0907745
20
2.6774391
40
5.2584813
50
58.3175703
51
77.0669583
0
ARC
8
DEFAULT_255_2_778
10
8.0776752
20
2.6544235
40
5.2849469
50
20.0830758
51
58.3277709
0
ARC
8
DEFAULT_255_2_778
10
8.0777634
20
2.6599698
40
5.2829621
50
5.3311072
51
20.02691
0
ARC
8
DEFAULT_255_2_778
10
7.957089
20
2.6467365
40
5.4043445
50
359.9907771
51
5.3519304
0
ARC
8
DEFAULT_255_2_778
10
8.0166283
20
2.6418815
40
5.3448067
50
347.0929653
51
0.0427185
0
ARC
8
DEFAULT_255_2_778
10
8.1012604
20
2.624933
40
5.2585278
50
328.3177859
51
347.0669902
0
ARC
8
DEFAULT_255_2_778
10
8.0782922
20
2.6379919
40
5.2849318
50
290.0836664
51
328.3280884
0
ARC
8
DEFAULT_255_2_778
10
8.0839234
20
2.6377043
40
5.2827306
50
275.3313078
51
290.0273754
0
ARC
8
DEFAULT_255_2_778
10
8.0707029
20
2.7582693
40
5.4040028
50
269.990782
51
275.3521003
0
ARC
8
DEFAULT_255_2_778
10
8.0658459
20
2.6993708
40
5.3451058
50
257.0933271
51
270.0427441
0
ARC
8
DEFAULT_255_2_778
10
8.0488586
20
2.6145799
40
5.2586634
50
238.318301
51
257.0673836
0
ARC
8
DEFAULT_255_2_778
10
8.0618263
20
2.6374079
40
5.2849002
50
200.0837923
51
238.3286446
0
ARC
8
DEFAULT_255_2_778
10
8.0615374
20
2.6317727
40
5.2826964
50
185.3313002
51
200.0274658
0
ARC
8
DEFAULT_255_2_778
10
8.1821363
20
2.6449971
40
5.4040028
50
179.990782
51
185.3521003
0
LINE
8
DEFAULT_255_2_778
10
2.7781335
20
2.6458665
11
2.7781335
21
2.6458665
0
LINE
8
DEFAULT_255_2_778
10
8.0698
20
10.5833166
11
8.0698
21
7.9375166
0
ARC
8
DEFAULT_255_2_778
10
10.5373623
20
-0.1594746
40
5.2857778
50
89.8601328
51
95.2399604
0
ARC
8
DEFAULT_255_2_778
10
10.398056
20
1.3259399
40
3.7938498
50
95.193664
51
102.254116
0
ARC
8
DEFAULT_255_2_778
10
10.1583656
20
2.4128453
40
2.6808372
50
102.1785457
51
111.9723867
0
ARC
8
DEFAULT_255_2_778
10
9.8625254
20
3.1348166
40
1.9006199
50
111.8452002
51
126.9835009
0
ARC
8
DEFAULT_255_2_778
10
9.6691978
20
3.4079901
40
1.5661348
50
127.3458798
51
164.3553312
0
ARC
8
DEFAULT_255_2_778
10
10.3012685
20
3.2087294
40
2.2286269
50
163.8044377
51
175.7801164
0
ARC
8
DEFAULT_255_2_778
10
10.9746735
20
3.1452514
40
2.9049098
50
175.5088374
51
180.0663498
0
ARC
8
DEFAULT_255_2_778
10
10.8750746
20
5.113431
40
5.2857778
50
179.8601328
51
185.2399604
0
ARC
8
DEFAULT_255_2_778
10
9.3896601
20
4.9741247
40
3.7938498
50
185.193664
51
192.254116
0
ARC
8
DEFAULT_255_2_778
10
8.3027547
20
4.7344343
40
2.6808372
50
192.1785457
51
201.9723867
0
ARC
8
DEFAULT_255_2_778
10
7.5807834
20
4.4385941
40
1.9006199
50
201.8452002
51
216.9835009
0
ARC
8
DEFAULT_255_2_778
10
7.3076099
20
4.2452665
40
1.5661348
50
217.3458798
51
254.3553312
0
ARC
8
DEFAULT_255_2_778
10
7.5068706
20
4.8773372
40
2.2286269
50
253.8044377
51
265.7801164
0
ARC
8
DEFAULT_255_2_778
10
7.5703486
20
5.5507422
40
2.9049098
50
265.5088374
51
270.0663498
0
ARC
8
DEFAULT_255_2_778
10
5.60139
20
5.8600407
40
5.5954755
50
269.8768745
51
274.7796922
0
ARC
8
DEFAULT_255_2_778
10
5.7342429
20
4.3119878
40
4.0417374
50
274.7314943
51
281.2563637
0
ARC
8
DEFAULT_255_2_778
10
5.9687026
20
3.1505149
40
2.8568425
50
281.1915659
51
290.0528944
0
ARC
8
DEFAULT_255_2_778
10
6.264635
20
2.3520847
40
2.0053489
50
289.9323192
51
303.2656475
0
ARC
8
DEFAULT_255_2_778
10
6.5434154
20
1.9315759
40
1.500831
50
303.1724844
51
346.2111107
0
ARC
8
DEFAULT_255_2_778
10
5.9095899
20
2.1104982
40
2.1591545
50
345.6088168
51
357.712606
0
ARC
8
DEFAULT_255_2_778
10
5.3450437
20
2.1487357
40
2.7248221
50
357.383003
51
0.0219185
0
ARC
8
DEFAULT_255_2_778
10
5.2645505
20
0.1782377
40
5.2857778
50
359.8601328
51
5.2399604
0
ARC
8
DEFAULT_255_2_778
10
6.7499649
20
0.317544
40
3.7938498
50
5.193664
51
12.254116
0
ARC
8
DEFAULT_255_2_778
10
7.8368703
20
0.5572344
40
2.6808372
50
12.1785457
51
21.9723867
0
ARC
8
DEFAULT_255_2_778
10
8.5588417
20
0.8530746
40
1.9006199
50
21.8452002
51
36.9835009
0
ARC
8
DEFAULT_255_2_778
10
8.8320152
20
1.0464022
40
1.5661348
50
37.3458798
51
74.3553312
0
ARC
8
DEFAULT_255_2_778
10
8.6327545
20
0.4143315
40
2.2286269
50
73.8044377
51
85.7801164
0
ARC
8
DEFAULT_255_2_778
10
8.5692765
20
-0.2590735
40
2.9049098
50
85.5088374
51
90.0663498
0
ARC
8
DEFAULT_255_2_778
10
11.9612272
20
2.2522244
40
5.5104014
50
134.9250984
51
138.8002605
0
ARC
8
DEFAULT_255_2_778
10
11.0972249
20
3.0083228
40
4.3622793
50
138.7975779
51
143.12157
0
ARC
8
DEFAULT_255_2_778
10
10.3531848
20
3.5643569
40
3.4334273
50
143.0926146
51
148.656891
0
ARC
8
DEFAULT_255_2_778
10
9.6937482
20
3.9639407
40
2.6623763
50
148.619398
51
155.8943634
0
ARC
8
DEFAULT_255_2_778
10
9.1502282
20
4.2055957
40
2.0675584
50
155.855476
51
165.4849743
0
ARC
8
DEFAULT_255_2_778
10
8.7505136
20
4.307603
40
1.6550362
50
165.4354466
51
179.8059259
0
ARC
8
DEFAULT_255_2_778
10
8.6427957
20
4.3158762
40
1.5473111
50
180.0987667
51
203.2675373
0
ARC
8
DEFAULT_255_2_778
10
8.961502
20
4.4473695
40
1.8920471
50
203.1131584
51
213.1781264
0
ARC
8
DEFAULT_255_2_778
10
9.3500849
20
4.6989576
40
2.3549614
50
213.1275922
51
220.2765333
0
ARC
8
DEFAULT_255_2_778
10
9.7597458
20
5.0425009
40
2.8895996
50
220.2222846
51
225.0726288
0
ARC
8
DEFAULT_255_2_778
10
8.4642196
20
6.5376151
40
5.5109009
50
224.9267123
51
228.8016324
0
ARC
8
DEFAULT_255_2_778
10
7.7080782
20
5.6735243
40
4.3626836
50
228.7989698
51
233.1226782
0
ARC
8
DEFAULT_255_2_778
10
7.152001
20
4.9294005
40
3.4337389
50
233.0937626
51
238.6576725
0
ARC
8
DEFAULT_255_2_778
10
6.7523588
20
4.2698496
40
2.6625598
50
238.6202047
51
245.8948198
0
ARC
8
DEFAULT_255_2_778
10
6.5106739
20
3.7262495
40
2.0676565
50
245.8559122
51
255.4850844
0
ARC
8
DEFAULT_255_2_778
10
6.4086482
20
3.3264575
40
1.6550547
50
255.435531
51
269.8058647
0
ARC
8
DEFAULT_255_2_778
10
6.400377
20
3.2186424
40
1.5472324
50
270.0986313
51
293.2681361
0
ARC
8
DEFAULT_255_2_778
10
6.2689128
20
3.5372619
40
1.8918772
50
293.1138614
51
303.1794102
0
ARC
8
DEFAULT_255_2_778
10
6.0173438
20
3.9257948
40
2.3547393
50
303.1288966
51
310.2782602
0
ARC
8
DEFAULT_255_2_778
10
5.6738299
20
4.3353939
40
2.8893112
50
310.2240341
51
315.0746889
0
ARC
8
DEFAULT_255_2_778
10
3.8585512
20
3.3582163
40
5.8631842
50
314.941478
51
318.2642029
0
ARC
8
DEFAULT_255_2_778
10
4.7540223
20
2.5617773
40
4.6647772
50
318.2421987
51
322.4751605
0
ARC
8
DEFAULT_255_2_778
10
5.5527115
20
1.9494747
40
3.6583888
50
322.4614544
51
327.5014008
0
ARC
8
DEFAULT_255_2_778
10
6.2373996
20
1.5151233
40
2.8475523
50
327.4705232
51
333.923871
0
ARC
8
DEFAULT_255_2_778
10
6.819484
20
1.2321851
40
2.2003488
50
333.8789323
51
342.5023623
0
ARC
8
DEFAULT_255_2_778
10
7.2874067
20
1.0871879
40
1.710483
50
342.4219488
51
355.4449524
0
ARC
8
DEFAULT_255_2_778
10
7.4831134
20
1.0657346
40
1.5137021
50
355.6661244
51
359.9865401
0
ARC
8
DEFAULT_255_2_778
10
7.5197025
20
1.0635935
40
1.4771141
50
0.0692592
51
24.6911836
0
ARC
8
DEFAULT_255_2_778
10
7.2172298
20
0.9305764
40
1.8075059
50
24.5169826
51
34.5087946
0
ARC
8
DEFAULT_255_2_778
10
6.8434847
20
0.6751985
40
2.2601669
50
34.4759051
51
41.997026
0
ARC
8
DEFAULT_255_2_778
10
6.5133934
20
0.3852111
40
2.6995176
50
41.8835022
51
45.0308723
0
ARC
8
DEFAULT_255_2_778
10
7.6756103
20
-1.2454378
40
5.5104014
50
44.9250984
51
48.8002605
0
ARC
8
DEFAULT_255_2_778
10
8.4317088
20
-0.3814356
40
4.3622793
50
48.7975779
51
53.12157
0
ARC
8
DEFAULT_255_2_778
10
8.9877429
20
0.3626046
40
3.4334273
50
53.0926146
51
58.656891
0
ARC
8
DEFAULT_255_2_778
10
9.3873266
20
1.0220412
40
2.6623763
50
58.619398
51
65.8943634
0
ARC
8
DEFAULT_255_2_778
10
9.6289816
20
1.5655612
40
2.0675584
50
65.855476
51
75.4849743
0
ARC
8
DEFAULT_255_2_778
10
9.7309889
20
1.9652757
40
1.6550362
50
75.4354466
51
89.8059259
0
ARC
8
DEFAULT_255_2_778
10
9.7392621
20
2.0729936
40
1.5473111
50
90.0987667
51
113.2675373
0
ARC
8
DEFAULT_255_2_778
10
9.8707554
20
1.7542874
40
1.8920471
50
113.1131584
51
123.1781264
0
ARC
8
DEFAULT_255_2_778
10
10.1223435
20
1.3657045
40
2.3549614
50
123.1275922
51
130.2765333
0
ARC
8
DEFAULT_255_2_778
10
10.4658868
20
0.9560436
40
2.8895996
50
130.2222846
51
135.0726288
0
ARC
8
DEFAULT_255_2_778
10
8.0719446
20
2.5170188
40
1.9865225
50
156.4840822
51
180.0993289
0
ARC
8
DEFAULT_255_2_778
10
8.0651668
20
2.5178502
40
1.9799769
50
100.1815477
51
156.4278853
0
ARC
8
DEFAULT_255_2_778
10
8.0688181
20
2.4862085
40
2.0117668
50
89.9713221
51
100.1246033
0
ARC
8
DEFAULT_255_2_778
10
8.0732605
20
2.5116985
40
1.9862795
50
66.4826249
51
90.0990973
0
ARC
8
DEFAULT_255_2_778
10
8.0739751
20
2.5182351
40
1.9800016
50
10.1813643
51
66.4261105
0
ARC
8
DEFAULT_255_2_778
10
8.0423582
20
2.5145841
40
2.0117669
50
359.9712589
51
10.1245387
0
ARC
8
DEFAULT_255_2_778
10
8.0678179
20
2.5101418
40
1.9863101
50
336.4829384
51
0.0990315
0
ARC
8
DEFAULT_255_2_778
10
8.0744015
20
2.5093857
40
1.9799725
50
280.1831072
51
336.4269808
0
ARC
8
DEFAULT_255_2_778
10
8.0708326
20
2.540728
40
2.0114531
50
269.9713014
51
280.1253277
0
ARC
8
DEFAULT_255_2_778
10
8.0663834
20
2.5158251
40
1.9865532
50
246.4843956
51
270.0992632
0
ARC
8
DEFAULT_255_2_778
10
8.0655106
20
2.5090004
40
1.9799478
50
190.1832906
51
246.4287556
0
ARC
8
DEFAULT_255_2_778
10
8.0968778
20
2.5125697
40
2.0114531
50
179.9713646
51
190.1253923
0
LINE
8
DEFAULT_255_2_778
10
6.0854251
20
2.5135749
11
6.0854251
21
2.5135749
0
LINE
8
DEFAULT_255_2_778
10
10.7156667
20
20.1083499
11
10.7156667
21
12.1708499
0
LINE
8
DEFAULT_255_2_778
10
10.7156667
20
12.1708499
11
5.4239667
21
12.1708499
0
LINE
8
DEFAULT_255_2_778
10
5.4239667
20
12.1708499
11
5.4239667
21
20.1083499
0
LINE
8
DEFAULT_255_2_778
10
5.4239667
20
20.1083499
11
10.7156667
21
20.1083499
0
ARC
8
DEFAULT_255_2_778
10
8.5944055
20
20.121271
40
2.1213005
50
359.65123
51
9.5002523
0
ARC
8
DEFAULT_255_2_778
10
9.3431174
20
20.2509825
40
1.361455
50
9.316927
51
24.7855627
0
ARC
8
DEFAULT_255_2_778
10
9.6850068
20
20.4046395
40
0.9866502
50
25.0077098
51
73.5324207
0
ARC
8
DEFAULT_255_2_778
10
9.4713504
20
19.8003854
40
1.6270309
50
72.3490177
51
85.036967
0
ARC
8
DEFAULT_255_2_778
10
9.3973129
20
19.1070784
40
2.3241846
50
84.6972656
51
90.1145376
0
ARC
8
DEFAULT_255_2_778
10
6.7339561
20
19.3098277
40
2.1214699
50
89.651313
51
99.4995419
0
ARC
8
DEFAULT_255_2_778
10
6.6042358
20
20.0586387
40
1.3615254
50
99.3161539
51
114.7838841
0
ARC
8
DEFAULT_255_2_778
10
6.4505257
20
20.4006391
40
0.9865973
50
115.0053053
51
163.5305431
0
ARC
8
DEFAULT_255_2_778
10
7.0546109
20
20.1870339
40
1.6268022
50
162.3477554
51
175.0365692
0
ARC
8
DEFAULT_255_2_778
10
7.7477929
20
20.1130042
40
2.3238308
50
174.6968603
51
180.1145488
0
LINE
8
DEFAULT_255_2_778
10
9.3926667
20
21.4312583
11
6.7468667
21
21.4312583
0
LINE
8
DEFAULT_255_2_778
10
5.4239667
20
20.1083583
11
10.7156667
21
20.1083583
0
ARC
8
DEFAULT_255_2_778
10
8.5944055
20
12.1579456
40
2.1213005
50
350.4997477
51
0.34877
0
ARC
8
DEFAULT_255_2_778
10
9.3431174
20
12.0282341
40
1.361455
50
335.2144373
51
350.683073
0
ARC
8
DEFAULT_255_2_778
10
9.6850068
20
11.8745772
40
0.9866502
50
286.4675793
51
334.9922902
0
ARC
8
DEFAULT_255_2_778
10
9.4713504
20
12.4788312
40
1.6270309
50
274.963033
51
287.6509823
0
ARC
8
DEFAULT_255_2_778
10
9.3973129
20
13.1721383
40
2.3241846
50
269.8854624
51
275.3027344
0
ARC
8
DEFAULT_255_2_778
10
6.7339561
20
12.9693889
40
2.1214699
50
260.5004581
51
270.348687
0
ARC
8
DEFAULT_255_2_778
10
6.6042358
20
12.2205779
40
1.3615254
50
245.2161159
51
260.6838461
0
ARC
8
DEFAULT_255_2_778
10
6.4505257
20
11.8785775
40
0.9865973
50
196.4694569
51
244.9946947
0
ARC
8
DEFAULT_255_2_778
10
7.0546109
20
12.0921827
40
1.6268022
50
184.9634308
51
197.6522446
0
ARC
8
DEFAULT_255_2_778
10
7.7477929
20
12.1662124
40
2.3238308
50
179.8854512
51
185.3031397
0
LINE
8
DEFAULT_255_2_778
10
9.3926667
20
10.8479583
11
6.7468667
21
10.8479583
0
LINE
8
DEFAULT_255_2_778
10
5.4239667
20
12.1708583
11
10.7156667
21
12.1708583
0
ENDSEC
0
EOF