0
SECTION
2
HEADER
9
$MEASUREMENT
70
1
0
ENDSEC
0
SECTION
2
TABLES
0
TABLE
2
LTYPE
0
LTYPE
72
65
70
64
2
CONTINUOUS
3
______
73
0
40
0
0
ENDTAB
0
TABLE
2
LAYER
0
LAYER
2
DEFAULT_255_2_778
70
0
62
255
6
CONTINUOUS
0
ENDTAB
0
ENDSEC
0
SECTION
2
ENTITIES
0
LINE
8
DEFAULT_255_2_778
10
2.7781335
20
25.0032
11
13.3614335
21
25.0032
0
LINE
8
DEFAULT_255_2_778
10
10.7156667
20
26.3260749
11
10.7156667
21
22.3573749
0
LINE
8
DEFAULT_255_2_778
10
10.7156667
20
22.3573749
11
5.4239667
21
22.3573749
0
LINE
8
DEFAULT_255_2_778
10
5.4239667
20
22.3573749
11
5.4239667
21
26.3260749
0
LINE
8
DEFAULT_255_2_778
10
5.4239667
20
26.3260749
11
10.7156667
21
26.3260749
0
LINE
8
DEFAULT_255_2_778
10
10.7156667
20
40.8781499
11
10.7156667
21
32.9406499
0
LINE
8
DEFAULT_255_2_778
10
10.7156667
20
32.9406499
11
5.4239667
21
32.9406499
0
LINE
8
DEFAULT_255_2_778
10
5.4239667
20
32.9406499
11
5.4239667
21
40.8781499
0
LINE
8
DEFAULT_255_2_778
10
5.4239667
20
40.8781499
11
10.7156667
21
40.8781499
0
ARC
8
DEFAULT_255_2_778
10
8.5944055
20
40.891071
40
2.1213005
50
359.65123
51
9.5002523
0
ARC
8
DEFAULT_255_2_778
10
9.3431174
20
41.0207825
40
1.361455
50
9.316927
51
24.7855627
0
ARC
8
DEFAULT_255_2_778
10
9.6850068
20
41.1744395
40
0.9866502
50
25.0077098
51
73.5324207
0
ARC
8
DEFAULT_255_2_778
10
9.4713504
20
40.5701854
40
1.6270309
50
72.3490177
51
85.036967
0
ARC
8
DEFAULT_255_2_778
10
9.3973129
20
39.8768784
40
2.3241846
50
84.6972656
51
90.1145376
0
ARC
8
DEFAULT_255_2_778
10
6.7339561
20
40.0796277
40
2.1214699
50
89.651313
51
99.4995419
0
ARC
8
DEFAULT_255_2_778
10
6.6042358
20
40.8284387
40
1.3615254
50
99.3161539
51
114.7838841
0
ARC
8
DEFAULT_255_2_778
10
6.4505257
20
41.1704391
40
0.9865973
50
115.0053053
51
163.5305431
0
ARC
8
DEFAULT_255_2_778
10
7.0546109
20
40.9568339
40
1.6268022
50
162.3477554
51
175.0365692
0
ARC
8
DEFAULT_255_2_778
10
7.7477929
20
40.8828042
40
2.3238308
50
174.6968603
51
180.1145488
0
LINE
8
DEFAULT_255_2_778
10
9.3926667
20
42.2010583
11
6.7468667
21
42.2010583
0
LINE
8
DEFAULT_255_2_778
10
5.4239667
20
40.8781583
11
10.7156667
21
40.8781583
0
ARC
8
DEFAULT_255_2_778
10
8.5944055
20
32.9277456
40
2.1213005
50
350.4997477
51
0.34877
0
ARC
8
DEFAULT_255_2_778
10
9.3431174
20
32.7980341
40
1.361455
50
335.2144373
51
350.683073
0
ARC
8
DEFAULT_255_2_778
10
9.6850068
20
32.6443772
40
0.9866502
50
286.4675793
51
334.9922902
0
ARC
8
DEFAULT_255_2_778
10
9.4713504
20
33.2486312
40
1.6270309
50
274.963033
51
287.6509823
0
ARC
8
DEFAULT_255_2_778
10
9.3973129
20
33.9419383
40
2.3241846
50
269.8854624
51
275.3027344
0
ARC
8
DEFAULT_255_2_778
10
6.7339561
20
33.7391889
40
2.1214699
50
260.5004581
51
270.348687
0
ARC
8
DEFAULT_255_2_778
10
6.6042358
20
32.9903779
40
1.3615254
50
245.2161159
51
260.6838461
0
ARC
8
DEFAULT_255_2_778
10
6.4505257
20
32.6483775
40
0.9865973
50
196.4694569
51
244.9946947
0
ARC
8
DEFAULT_255_2_778
10
7.0546109
20
32.8619827
40
1.6268022
50
184.9634308
51
197.6522446
0
ARC
8
DEFAULT_255_2_778
10
7.7477929
20
32.9360124
40
2.3238308
50
179.8854512
51
185.3031397
0
LINE
8
DEFAULT_255_2_778
10
9.3926667
20
31.6177583
11
6.7468667
21
31.6177583
0
LINE
8
DEFAULT_255_2_778
10
5.4239667
20
32.9406583
11
10.7156667
21
32.9406583
0
LINE
8
DEFAULT_255_2_778
10
12.0385501
20
22.357308
11
12.0385501
21
-2.778092
0
LINE
8
DEFAULT_255_2_778
10
12.0385501
20
-2.778092
11
4.1010501
21
-2.778092
0
LINE
8
DEFAULT_255_2_778
10
4.1010501
20
-2.778092
11
4.1010501
21
22.357308
0
LINE
8
DEFAULT_255_2_778
10
4.1010501
20
22.357308
11
12.0385501
21
22.357308
0
LINE
8
DEFAULT_255_2_778
10
8.0698
20
31.6177333
11
8.0698
21
26.3260333
0
LINE
8
DEFAULT_255_2_778
10
13.3615
20
26.3261166
11
13.3615
21
23.6803166
0
LINE
8
DEFAULT_255_2_778
10
2.7781
20
26.3261166
11
2.7781
21
23.6803166
0
ENDSEC
0
EOF