0
SECTION
2
HEADER
9
$MEASUREMENT
70
1
0
ENDSEC
0
SECTION
2
TABLES
0
TABLE
2
LTYPE
0
LTYPE
72
65
70
64
2
CONTINUOUS
3
______
73
0
40
0
0
ENDTAB
0
TABLE
2
LAYER
0
LAYER
2
DEFAULT_255_2_778
70
0
62
255
6
CONTINUOUS
0
ENDTAB
0
ENDSEC
0
SECTION
2
ENTITIES
0
LINE
8
DEFAULT_255_2_778
10
35.8520501
20
1.8521333
11
43.7895501
21
1.8521333
0
LINE
8
DEFAULT_255_2_778
10
43.7895501
20
1.8521333
11
43.7895501
21
-3.4395667
0
LINE
8
DEFAULT_255_2_778
10
43.7895501
20
-3.4395667
11
35.8520501
21
-3.4395667
0
LINE
8
DEFAULT_255_2_778
10
35.8520501
20
-3.4395667
11
35.8520501
21
1.8521333
0
ARC
8
DEFAULT_255_2_778
10
43.8025523
20
-0.2692973
40
2.1214699
50
80.5004581
51
90.348687
0
ARC
8
DEFAULT_255_2_778
10
43.9322726
20
0.4795137
40
1.3615254
50
65.2161159
51
80.6838461
0
ARC
8
DEFAULT_255_2_778
10
44.0859827
20
0.8215141
40
0.9865973
50
16.4694569
51
64.9946947
0
ARC
8
DEFAULT_255_2_778
10
43.4818976
20
0.6079088
40
1.6268022
50
4.9634308
51
17.6522446
0
ARC
8
DEFAULT_255_2_778
10
42.7887156
20
0.5338792
40
2.3238308
50
359.8854512
51
5.3031397
0
ARC
8
DEFAULT_255_2_778
10
42.9907943
20
-2.1294785
40
2.1217867
50
350.5011702
51
0.3486663
0
ARC
8
DEFAULT_255_2_778
10
43.7397453
20
-2.2592139
40
1.3617016
50
335.2177947
51
350.6845858
0
ARC
8
DEFAULT_255_2_778
10
44.081885
20
-2.4129899
40
0.9866194
50
286.4713525
51
334.9971002
0
ARC
8
DEFAULT_255_2_778
10
43.8683109
20
-1.8090087
40
1.6267163
50
274.9639199
51
287.6534439
0
ARC
8
DEFAULT_255_2_778
10
43.7942876
20
-1.1159262
40
2.3236452
50
269.8854427
51
275.3035651
0
LINE
8
DEFAULT_255_2_778
10
45.1125417
20
0.5292333
11
45.1125417
21
-2.1165667
0
LINE
8
DEFAULT_255_2_778
10
43.7896417
20
-3.4395667
11
43.7896417
21
1.8521333
0
ARC
8
DEFAULT_255_2_778
10
35.8370311
20
-0.2692973
40
2.1214699
50
89.651313
51
99.4995419
0
ARC
8
DEFAULT_255_2_778
10
35.7073108
20
0.4795137
40
1.3615254
50
99.3161539
51
114.7838841
0
ARC
8
DEFAULT_255_2_778
10
35.5536006
20
0.8215141
40
0.9865973
50
115.0053053
51
163.5305431
0
ARC
8
DEFAULT_255_2_778
10
36.1576858
20
0.6079088
40
1.6268022
50
162.3477554
51
175.0365692
0
ARC
8
DEFAULT_255_2_778
10
36.8508678
20
0.5338792
40
2.3238308
50
174.6968603
51
180.1145488
0
ARC
8
DEFAULT_255_2_778
10
36.6487891
20
-2.1294785
40
2.1217867
50
179.6513337
51
189.4988298
0
ARC
8
DEFAULT_255_2_778
10
35.899838
20
-2.2592139
40
1.3617016
50
189.3154142
51
204.7822053
0
ARC
8
DEFAULT_255_2_778
10
35.5576984
20
-2.4129899
40
0.9866194
50
205.0028998
51
253.5286475
0
ARC
8
DEFAULT_255_2_778
10
35.7712725
20
-1.8090087
40
1.6267163
50
252.3465561
51
265.0360801
0
ARC
8
DEFAULT_255_2_778
10
35.8452958
20
-1.1159262
40
2.3236452
50
264.6964349
51
270.1145573
0
LINE
8
DEFAULT_255_2_778
10
34.5270417
20
0.5292333
11
34.5270417
21
-2.1165667
0
LINE
8
DEFAULT_255_2_778
10
35.8499417
20
-3.4395667
11
35.8499417
21
1.8521333
0
LINE
8
DEFAULT_255_2_778
10
2.7770337
20
1.8521333
11
29.2353337
21
1.8521333
0
LINE
8
DEFAULT_255_2_778
10
29.2353337
20
1.8521333
11
29.2353337
21
-3.4395667
0
LINE
8
DEFAULT_255_2_778
10
29.2353337
20
-3.4395667
11
2.7770337
21
-3.4395667
0
LINE
8
DEFAULT_255_2_778
10
2.7770337
20
-3.4395667
11
2.7770337
21
1.8521333
0
LINE
8
DEFAULT_255_2_778
10
26.5896
20
1.8575802
11
26.5896
21
3.1749802
0
LINE
8
DEFAULT_255_2_778
10
27.9145834
20
3.175
11
25.2687834
21
3.175
0
LINE
8
DEFAULT_255_2_778
10
5.4229
20
1.8575802
11
5.4229
21
3.1749802
0
LINE
8
DEFAULT_255_2_778
10
6.7478834
20
3.175
11
4.1020834
21
3.175
0
ARC
8
DEFAULT_255_2_778
10
6.7083314
20
-0.7977354
40
1.2854714
50
169.6400871
51
180.1855891
0
ARC
8
DEFAULT_255_2_778
10
6.49097
20
-0.7574787
40
1.0644141
50
155.5069169
51
169.6676549
0
ARC
8
DEFAULT_255_2_778
10
6.3903837
20
-0.7128128
40
0.9543624
50
134.3640191
51
155.44358
0
ARC
8
DEFAULT_255_2_778
10
6.4665628
20
-0.8188089
40
1.0835838
50
89.2251348
51
133.324809
0
ARC
8
DEFAULT_255_2_778
10
6.5010895
20
-0.7990826
40
1.063944
50
39.922389
51
91.070256
0
ARC
8
DEFAULT_255_2_778
10
6.5588369
20
-0.7212125
40
0.9699481
50
20.3332111
51
38.5836991
0
ARC
8
DEFAULT_255_2_778
10
6.4241359
20
-0.7706299
40
1.1134273
50
7.2669732
51
20.3091397
0
ARC
8
DEFAULT_255_2_778
10
6.2165722
20
-0.7996447
40
1.3229964
50
359.9023635
51
7.37639
0
ARC
8
DEFAULT_255_2_778
10
8.8250314
20
-0.797963
40
1.2854714
50
179.8144109
51
190.3599129
0
ARC
8
DEFAULT_255_2_778
10
8.60767
20
-0.8382198
40
1.0644141
50
190.3323451
51
204.4930831
0
ARC
8
DEFAULT_255_2_778
10
8.5070837
20
-0.8828856
40
0.9543624
50
204.55642
51
225.6359809
0
ARC
8
DEFAULT_255_2_778
10
8.5832628
20
-0.7768896
40
1.0835838
50
226.675191
51
270.7748652
0
ARC
8
DEFAULT_255_2_778
10
8.6177895
20
-0.7966158
40
1.063944
50
268.929744
51
320.077611
0
ARC
8
DEFAULT_255_2_778
10
8.6755369
20
-0.8744859
40
0.9699481
50
321.4163009
51
339.6667889
0
ARC
8
DEFAULT_255_2_778
10
8.5408359
20
-0.8250686
40
1.1134273
50
339.6908603
51
352.7330268
0
ARC
8
DEFAULT_255_2_778
10
8.3332722
20
-0.7960537
40
1.3229964
50
352.62361
51
0.0976365
0
ARC
8
DEFAULT_255_2_778
10
10.9417314
20
-0.7977354
40
1.2854714
50
169.6400871
51
180.1855891
0
ARC
8
DEFAULT_255_2_778
10
10.72437
20
-0.7574787
40
1.0644141
50
155.5069169
51
169.6676549
0
ARC
8
DEFAULT_255_2_778
10
10.6237837
20
-0.7128128
40
0.9543624
50
134.3640191
51
155.44358
0
ARC
8
DEFAULT_255_2_778
10
10.6999628
20
-0.8188089
40
1.0835838
50
89.2251348
51
133.324809
0
ARC
8
DEFAULT_255_2_778
10
10.7344895
20
-0.7990826
40
1.063944
50
39.922389
51
91.070256
0
ARC
8
DEFAULT_255_2_778
10
10.7922369
20
-0.7212125
40
0.9699481
50
20.3332111
51
38.5836991
0
ARC
8
DEFAULT_255_2_778
10
10.6575359
20
-0.7706299
40
1.1134273
50
7.2669732
51
20.3091397
0
ARC
8
DEFAULT_255_2_778
10
10.4499722
20
-0.7996447
40
1.3229964
50
359.9023635
51
7.37639
0
ARC
8
DEFAULT_255_2_778
10
13.0583314
20
-0.797963
40
1.2854714
50
179.8144109
51
190.3599129
0
ARC
8
DEFAULT_255_2_778
10
12.84097
20
-0.8382198
40
1.0644141
50
190.3323451
51
204.4930831
0
ARC
8
DEFAULT_255_2_778
10
12.7403837
20
-0.8828856
40
0.9543624
50
204.55642
51
225.6359809
0
ARC
8
DEFAULT_255_2_778
10
12.8165628
20
-0.7768896
40
1.0835838
50
226.675191
51
270.7748652
0
ARC
8
DEFAULT_255_2_778
10
12.8510895
20
-0.7966158
40
1.063944
50
268.929744
51
320.077611
0
ARC
8
DEFAULT_255_2_778
10
12.9088369
20
-0.8744859
40
0.9699481
50
321.4163009
51
339.6667889
0
ARC
8
DEFAULT_255_2_778
10
12.7741359
20
-0.8250686
40
1.1134273
50
339.6908603
51
352.7330268
0
ARC
8
DEFAULT_255_2_778
10
12.5665722
20
-0.7960537
40
1.3229964
50
352.62361
51
0.0976365
0
ARC
8
DEFAULT_255_2_778
10
15.1750314
20
-0.8020354
40
1.2854714
50
169.6400871
51
180.1855891
0
ARC
8
DEFAULT_255_2_778
10
14.95767
20
-0.7617787
40
1.0644141
50
155.5069169
51
169.6676549
0
ARC
8
DEFAULT_255_2_778
10
14.8570837
20
-0.7171128
40
0.9543624
50
134.3640191
51
155.44358
0
ARC
8
DEFAULT_255_2_778
10
14.9332628
20
-0.8231089
40
1.0835838
50
89.2251348
51
133.324809
0
ARC
8
DEFAULT_255_2_778
10
14.9677895
20
-0.8033826
40
1.063944
50
39.922389
51
91.070256
0
ARC
8
DEFAULT_255_2_778
10
15.0255369
20
-0.7255125
40
0.9699481
50
20.3332111
51
38.5836991
0
ARC
8
DEFAULT_255_2_778
10
14.8908359
20
-0.7749299
40
1.1134273
50
7.2669732
51
20.3091397
0
ARC
8
DEFAULT_255_2_778
10
14.6832722
20
-0.8039447
40
1.3229964
50
359.9023635
51
7.37639
0
ARC
8
DEFAULT_255_2_778
10
17.2917314
20
-0.797963
40
1.2854714
50
179.8144109
51
190.3599129
0
ARC
8
DEFAULT_255_2_778
10
17.07437
20
-0.8382198
40
1.0644141
50
190.3323451
51
204.4930831
0
ARC
8
DEFAULT_255_2_778
10
16.9737837
20
-0.8828856
40
0.9543624
50
204.55642
51
225.6359809
0
ARC
8
DEFAULT_255_2_778
10
17.0499628
20
-0.7768896
40
1.0835838
50
226.675191
51
270.7748652
0
ARC
8
DEFAULT_255_2_778
10
17.0844895
20
-0.7966158
40
1.063944
50
268.929744
51
320.077611
0
ARC
8
DEFAULT_255_2_778
10
17.1422369
20
-0.8744859
40
0.9699481
50
321.4163009
51
339.6667889
0
ARC
8
DEFAULT_255_2_778
10
17.0075359
20
-0.8250686
40
1.1134273
50
339.6908603
51
352.7330268
0
ARC
8
DEFAULT_255_2_778
10
16.7999722
20
-0.7960537
40
1.3229964
50
352.62361
51
0.0976365
0
ARC
8
DEFAULT_255_2_778
10
19.4083314
20
-0.7977354
40
1.2854714
50
169.6400871
51
180.1855891
0
ARC
8
DEFAULT_255_2_778
10
19.19097
20
-0.7574787
40
1.0644141
50
155.5069169
51
169.6676549
0
ARC
8
DEFAULT_255_2_778
10
19.0903837
20
-0.7128128
40
0.9543624
50
134.3640191
51
155.44358
0
ARC
8
DEFAULT_255_2_778
10
19.1665628
20
-0.8188089
40
1.0835838
50
89.2251348
51
133.324809
0
ARC
8
DEFAULT_255_2_778
10
19.2010895
20
-0.7990826
40
1.063944
50
39.922389
51
91.070256
0
ARC
8
DEFAULT_255_2_778
10
19.2588369
20
-0.7212125
40
0.9699481
50
20.3332111
51
38.5836991
0
ARC
8
DEFAULT_255_2_778
10
19.1241359
20
-0.7706299
40
1.1134273
50
7.2669732
51
20.3091397
0
ARC
8
DEFAULT_255_2_778
10
18.9165722
20
-0.7996447
40
1.3229964
50
359.9023635
51
7.37639
0
ARC
8
DEFAULT_255_2_778
10
21.5250314
20
-0.797963
40
1.2854714
50
179.8144109
51
190.3599129
0
ARC
8
DEFAULT_255_2_778
10
21.30767
20
-0.8382198
40
1.0644141
50
190.3323451
51
204.4930831
0
ARC
8
DEFAULT_255_2_778
10
21.2070837
20
-0.8828856
40
0.9543624
50
204.55642
51
225.6359809
0
ARC
8
DEFAULT_255_2_778
10
21.2832628
20
-0.7768896
40
1.0835838
50
226.675191
51
270.7748652
0
ARC
8
DEFAULT_255_2_778
10
21.3177895
20
-0.7966158
40
1.063944
50
268.929744
51
320.077611
0
ARC
8
DEFAULT_255_2_778
10
21.3755369
20
-0.8744859
40
0.9699481
50
321.4163009
51
339.6667889
0
ARC
8
DEFAULT_255_2_778
10
21.2408359
20
-0.8250686
40
1.1134273
50
339.6908603
51
352.7330268
0
ARC
8
DEFAULT_255_2_778
10
21.0332722
20
-0.7960537
40
1.3229964
50
352.62361
51
0.0976365
0
ARC
8
DEFAULT_255_2_778
10
23.6417314
20
-0.7977354
40
1.2854714
50
169.6400871
51
180.1855891
0
ARC
8
DEFAULT_255_2_778
10
23.42437
20
-0.7574787
40
1.0644141
50
155.5069169
51
169.6676549
0
ARC
8
DEFAULT_255_2_778
10
23.3237837
20
-0.7128128
40
0.9543624
50
134.3640191
51
155.44358
0
ARC
8
DEFAULT_255_2_778
10
23.3999628
20
-0.8188089
40
1.0835838
50
89.2251348
51
133.324809
0
ARC
8
DEFAULT_255_2_778
10
23.4344895
20
-0.7990826
40
1.063944
50
39.922389
51
91.070256
0
ARC
8
DEFAULT_255_2_778
10
23.4922369
20
-0.7212125
40
0.9699481
50
20.3332111
51
38.5836991
0
ARC
8
DEFAULT_255_2_778
10
23.3575359
20
-0.7706299
40
1.1134273
50
7.2669732
51
20.3091397
0
ARC
8
DEFAULT_255_2_778
10
23.1499722
20
-0.7996447
40
1.3229964
50
359.9023635
51
7.37639
0
ARC
8
DEFAULT_255_2_778
10
25.7583314
20
-0.793763
40
1.2854714
50
179.8144109
51
190.3599129
0
ARC
8
DEFAULT_255_2_778
10
25.54097
20
-0.8340198
40
1.0644141
50
190.3323451
51
204.4930831
0
ARC
8
DEFAULT_255_2_778
10
25.4403837
20
-0.8786856
40
0.9543624
50
204.55642
51
225.6359809
0
ARC
8
DEFAULT_255_2_778
10
25.5165628
20
-0.7726896
40
1.0835838
50
226.675191
51
270.7748652
0
ARC
8
DEFAULT_255_2_778
10
25.5510895
20
-0.7924158
40
1.063944
50
268.929744
51
320.077611
0
ARC
8
DEFAULT_255_2_778
10
25.6088369
20
-0.8702859
40
0.9699481
50
321.4163009
51
339.6667889
0
ARC
8
DEFAULT_255_2_778
10
25.4741359
20
-0.8208686
40
1.1134273
50
339.6908603
51
352.7330268
0
ARC
8
DEFAULT_255_2_778
10
25.2665722
20
-0.7918537
40
1.3229964
50
352.62361
51
0.0976365
0
LINE
8
DEFAULT_255_2_778
10
34.5270667
20
-0.7937
11
29.2353667
21
-0.7937
0
ENDSEC
0
EOF