0
SECTION
2
HEADER
9
$MEASUREMENT
70
1
0
ENDSEC
0
SECTION
2
TABLES
0
TABLE
2
LTYPE
0
LTYPE
72
65
70
64
2
CONTINUOUS
3
______
73
0
40
0
0
ENDTAB
0
TABLE
2
LAYER
0
LAYER
2
DEFAULT_255_2_778
70
0
62
255
6
CONTINUOUS
0
ENDTAB
0
ENDSEC
0
SECTION
2
ENTITIES
0
LINE
8
DEFAULT_255_2_778
10
35.8520501
20
2.5135333
11
43.7895501
21
2.5135333
0
LINE
8
DEFAULT_255_2_778
10
43.7895501
20
2.5135333
11
43.7895501
21
-2.7781667
0
LINE
8
DEFAULT_255_2_778
10
43.7895501
20
-2.7781667
11
35.8520501
21
-2.7781667
0
LINE
8
DEFAULT_255_2_778
10
35.8520501
20
-2.7781667
11
35.8520501
21
2.5135333
0
ARC
8
DEFAULT_255_2_778
10
43.8025523
20
0.3921027
40
2.1214699
50
80.5004581
51
90.348687
0
ARC
8
DEFAULT_255_2_778
10
43.9322726
20
1.1409137
40
1.3615254
50
65.2161159
51
80.6838461
0
ARC
8
DEFAULT_255_2_778
10
44.0859827
20
1.4829141
40
0.9865973
50
16.4694569
51
64.9946947
0
ARC
8
DEFAULT_255_2_778
10
43.4818976
20
1.2693088
40
1.6268022
50
4.9634308
51
17.6522446
0
ARC
8
DEFAULT_255_2_778
10
42.7887156
20
1.1952792
40
2.3238308
50
359.8854512
51
5.3031397
0
ARC
8
DEFAULT_255_2_778
10
42.9907943
20
-1.4680785
40
2.1217867
50
350.5011702
51
0.3486663
0
ARC
8
DEFAULT_255_2_778
10
43.7397453
20
-1.5978139
40
1.3617016
50
335.2177947
51
350.6845858
0
ARC
8
DEFAULT_255_2_778
10
44.081885
20
-1.7515899
40
0.9866194
50
286.4713525
51
334.9971002
0
ARC
8
DEFAULT_255_2_778
10
43.8683109
20
-1.1476087
40
1.6267163
50
274.9639199
51
287.6534439
0
ARC
8
DEFAULT_255_2_778
10
43.7942876
20
-0.4545262
40
2.3236452
50
269.8854427
51
275.3035651
0
LINE
8
DEFAULT_255_2_778
10
45.1125417
20
1.1906333
11
45.1125417
21
-1.4551667
0
LINE
8
DEFAULT_255_2_778
10
43.7896417
20
-2.7781667
11
43.7896417
21
2.5135333
0
ARC
8
DEFAULT_255_2_778
10
35.8370311
20
0.3921027
40
2.1214699
50
89.651313
51
99.4995419
0
ARC
8
DEFAULT_255_2_778
10
35.7073108
20
1.1409137
40
1.3615254
50
99.3161539
51
114.7838841
0
ARC
8
DEFAULT_255_2_778
10
35.5536006
20
1.4829141
40
0.9865973
50
115.0053053
51
163.5305431
0
ARC
8
DEFAULT_255_2_778
10
36.1576858
20
1.2693088
40
1.6268022
50
162.3477554
51
175.0365692
0
ARC
8
DEFAULT_255_2_778
10
36.8508678
20
1.1952792
40
2.3238308
50
174.6968603
51
180.1145488
0
ARC
8
DEFAULT_255_2_778
10
36.6487891
20
-1.4680785
40
2.1217867
50
179.6513337
51
189.4988298
0
ARC
8
DEFAULT_255_2_778
10
35.899838
20
-1.5978139
40
1.3617016
50
189.3154142
51
204.7822053
0
ARC
8
DEFAULT_255_2_778
10
35.5576984
20
-1.7515899
40
0.9866194
50
205.0028998
51
253.5286475
0
ARC
8
DEFAULT_255_2_778
10
35.7712725
20
-1.1476087
40
1.6267163
50
252.3465561
51
265.0360801
0
ARC
8
DEFAULT_255_2_778
10
35.8452958
20
-0.4545262
40
2.3236452
50
264.6964349
51
270.1145573
0
LINE
8
DEFAULT_255_2_778
10
34.5270417
20
1.1906333
11
34.5270417
21
-1.4551667
0
LINE
8
DEFAULT_255_2_778
10
35.8499417
20
-2.7781667
11
35.8499417
21
2.5135333
0
LINE
8
DEFAULT_255_2_778
10
2.7770337
20
2.5135333
11
29.2353337
21
2.5135333
0
LINE
8
DEFAULT_255_2_778
10
29.2353337
20
2.5135333
11
29.2353337
21
-2.7781667
0
LINE
8
DEFAULT_255_2_778
10
29.2353337
20
-2.7781667
11
2.7770337
21
-2.7781667
0
LINE
8
DEFAULT_255_2_778
10
2.7770337
20
-2.7781667
11
2.7770337
21
2.5135333
0
LINE
8
DEFAULT_255_2_778
10
26.5896
20
2.5190385
11
26.5896
21
5.1593385
0
LINE
8
DEFAULT_255_2_778
10
27.9145834
20
5.1594
11
25.2687834
21
5.1594
0
LINE
8
DEFAULT_255_2_778
10
5.4229
20
2.5190385
11
5.4229
21
5.1593385
0
LINE
8
DEFAULT_255_2_778
10
6.7478834
20
5.1594
11
4.1020834
21
5.1594
0
LINE
8
DEFAULT_255_2_778
10
34.5270667
20
-0.1323
11
29.2353667
21
-0.1323
0
LINE
8
DEFAULT_255_2_778
10
2.8448066
20
-0.1323251
11
4.6307066
21
-0.1323251
0
LINE
8
DEFAULT_255_2_778
10
4.6307066
20
-0.1323251
11
5.4245066
21
-1.9182251
0
LINE
8
DEFAULT_255_2_778
10
5.4245066
20
-1.9182251
11
7.0120066
21
1.8520749
0
LINE
8
DEFAULT_255_2_778
10
7.0120066
20
1.8520749
11
8.8641066
21
-2.1166251
0
LINE
8
DEFAULT_255_2_778
10
8.8641066
20
-2.1166251
11
10.7162066
21
1.8520749
0
LINE
8
DEFAULT_255_2_778
10
10.7162066
20
1.8520749
11
12.3037066
21
-2.1166251
0
LINE
8
DEFAULT_255_2_778
10
12.3037066
20
-2.1166251
11
13.8912066
21
1.8520749
0
LINE
8
DEFAULT_255_2_778
10
13.8912066
20
1.8520749
11
15.4787066
21
-2.1166251
0
LINE
8
DEFAULT_255_2_778
10
15.4787066
20
-2.1166251
11
17.0662066
21
1.8520749
0
LINE
8
DEFAULT_255_2_778
10
17.0662066
20
1.8520749
11
18.6537066
21
-2.1166251
0
LINE
8
DEFAULT_255_2_778
10
18.6537066
20
-2.1166251
11
20.2412066
21
1.8520749
0
LINE
8
DEFAULT_255_2_778
10
20.2412066
20
1.8520749
11
21.8287066
21
-2.1166251
0
LINE
8
DEFAULT_255_2_778
10
21.8287066
20
-2.1166251
11
23.4162066
21
1.8520749
0
LINE
8
DEFAULT_255_2_778
10
23.4162066
20
1.8520749
11
25.0037066
21
-2.1166251
0
LINE
8
DEFAULT_255_2_778
10
25.0037066
20
-2.1166251
11
26.5912066
21
1.8520749
0
LINE
8
DEFAULT_255_2_778
10
26.5912066
20
1.8520749
11
27.3849066
21
-0.1323251
0
LINE
8
DEFAULT_255_2_778
10
27.3849066
20
-0.1323251
11
29.2370066
21
-0.1323251
0
ENDSEC
0
EOF