0
SECTION
2
HEADER
9
$MEASUREMENT
70
1
0
ENDSEC
0
SECTION
2
TABLES
0
TABLE
2
LTYPE
0
LTYPE
72
65
70
64
2
CONTINUOUS
3
______
73
0
40
0
0
ENDTAB
0
TABLE
2
LAYER
0
LAYER
2
DEFAULT_255_2_778
70
0
62
255
6
CONTINUOUS
0
ENDTAB
0
ENDSEC
0
SECTION
2
ENTITIES
0
LINE
8
DEFAULT_255_2_778
10
16.0077588
20
13.0968831
11
16.0077588
21
-0.1323169
0
LINE
8
DEFAULT_255_2_778
10
16.0077588
20
-0.1323169
11
34.5286588
21
2.5135831
0
LINE
8
DEFAULT_255_2_778
10
34.5286588
20
2.5135831
11
34.5286588
21
10.4510831
0
LINE
8
DEFAULT_255_2_778
10
34.5286588
20
10.4510831
11
16.0077588
21
13.0968831
0
LINE
8
DEFAULT_255_2_778
10
4.1015588
20
9.1281831
11
12.0390588
21
9.1281831
0
LINE
8
DEFAULT_255_2_778
10
12.0390588
20
9.1281831
11
12.0390588
21
3.8364831
0
LINE
8
DEFAULT_255_2_778
10
12.0390588
20
3.8364831
11
4.1015588
21
3.8364831
0
LINE
8
DEFAULT_255_2_778
10
4.1015588
20
3.8364831
11
4.1015588
21
9.1281831
0
ARC
8
DEFAULT_255_2_778
10
4.0875937
20
7.0067027
40
2.1214699
50
89.651313
51
99.4995419
0
ARC
8
DEFAULT_255_2_778
10
3.9578734
20
7.7555137
40
1.3615254
50
99.3161539
51
114.7838841
0
ARC
8
DEFAULT_255_2_778
10
3.8041633
20
8.0975141
40
0.9865973
50
115.0053053
51
163.5305431
0
ARC
8
DEFAULT_255_2_778
10
4.4082484
20
7.8839088
40
1.6268022
50
162.3477554
51
175.0365692
0
ARC
8
DEFAULT_255_2_778
10
5.1014304
20
7.8098792
40
2.3238308
50
174.6968603
51
180.1145488
0
ARC
8
DEFAULT_255_2_778
10
4.8993517
20
5.1465215
40
2.1217867
50
179.6513337
51
189.4988298
0
ARC
8
DEFAULT_255_2_778
10
4.1504007
20
5.0167861
40
1.3617016
50
189.3154142
51
204.7822053
0
ARC
8
DEFAULT_255_2_778
10
3.808261
20
4.8630101
40
0.9866194
50
205.0028998
51
253.5286475
0
ARC
8
DEFAULT_255_2_778
10
4.0218351
20
5.4669913
40
1.6267163
50
252.3465561
51
265.0360801
0
ARC
8
DEFAULT_255_2_778
10
4.0958584
20
6.1600738
40
2.3236452
50
264.6964349
51
270.1145573
0
ARC
8
DEFAULT_255_2_778
10
12.0520149
20
7.0067027
40
2.1214699
50
80.5004581
51
90.348687
0
ARC
8
DEFAULT_255_2_778
10
12.1817352
20
7.7555137
40
1.3615254
50
65.2161159
51
80.6838461
0
ARC
8
DEFAULT_255_2_778
10
12.3354454
20
8.0975141
40
0.9865973
50
16.4694569
51
64.9946947
0
ARC
8
DEFAULT_255_2_778
10
11.7313602
20
7.8839088
40
1.6268022
50
4.9634308
51
17.6522446
0
ARC
8
DEFAULT_255_2_778
10
11.0381782
20
7.8098792
40
2.3238308
50
359.8854512
51
5.3031397
0
ARC
8
DEFAULT_255_2_778
10
11.2402569
20
5.1465215
40
2.1217867
50
350.5011702
51
0.3486663
0
ARC
8
DEFAULT_255_2_778
10
11.989208
20
5.0167861
40
1.3617016
50
335.2177947
51
350.6845858
0
ARC
8
DEFAULT_255_2_778
10
12.3313476
20
4.8630101
40
0.9866194
50
286.4713525
51
334.9971002
0
ARC
8
DEFAULT_255_2_778
10
12.1177735
20
5.4669913
40
1.6267163
50
274.9639199
51
287.6534439
0
ARC
8
DEFAULT_255_2_778
10
12.0437502
20
6.1600738
40
2.3236452
50
269.8854427
51
275.3035651
0
LINE
8
DEFAULT_255_2_778
10
2.7776043
20
7.8052333
11
2.7776043
21
5.1594333
0
LINE
8
DEFAULT_255_2_778
10
4.1005043
20
3.8364333
11
4.1005043
21
9.1281333
0
LINE
8
DEFAULT_255_2_778
10
13.3620043
20
7.8052333
11
13.3620043
21
5.1594333
0
LINE
8
DEFAULT_255_2_778
10
12.0391043
20
3.8364333
11
12.0391043
21
9.1281333
0
LINE
8
DEFAULT_255_2_778
10
31.8828
20
10.9471698
11
31.8828
21
13.0968698
0
LINE
8
DEFAULT_255_2_778
10
30.5587585
20
13.0968998
11
33.2046585
21
13.0968998
0
LINE
8
DEFAULT_255_2_778
10
18.6525585
20
0.1322998
11
18.6525585
21
-2.7781002
0
LINE
8
DEFAULT_255_2_778
10
17.3296834
20
-2.7781
11
19.9754834
21
-2.7781
0
LINE
8
DEFAULT_255_2_778
10
13.3598834
20
6.4823
11
16.0056834
21
6.4823
0
ENDSEC
0
EOF