0
SECTION
2
HEADER
9
$MEASUREMENT
70
1
0
ENDSEC
0
SECTION
2
TABLES
0
TABLE
2
LTYPE
0
LTYPE
72
65
70
64
2
CONTINUOUS
3
______
73
0
40
0
0
ENDTAB
0
TABLE
2
LAYER
0
LAYER
2
DEFAULT_255_2_778
70
0
62
255
6
CONTINUOUS
0
ENDTAB
0
ENDSEC
0
SECTION
2
ENTITIES
0
LINE
8
DEFAULT_255_2_778
10
6.7468501
20
2.5135333
11
14.6843501
21
2.5135333
0
LINE
8
DEFAULT_255_2_778
10
14.6843501
20
2.5135333
11
14.6843501
21
-2.7781667
0
LINE
8
DEFAULT_255_2_778
10
14.6843501
20
-2.7781667
11
6.7468501
21
-2.7781667
0
LINE
8
DEFAULT_255_2_778
10
6.7468501
20
-2.7781667
11
6.7468501
21
2.5135333
0
LINE
8
DEFAULT_255_2_778
10
2.7780834
20
-0.1323
11
5.4238834
21
-0.1323
0
ARC
8
DEFAULT_255_2_778
10
14.680059
20
1.6525557
40
0.8609881
50
47.5498306
51
89.7172043
0
ARC
8
DEFAULT_255_2_778
10
14.3819421
20
1.2919509
40
1.3284857
50
36.0318673
51
48.5599445
0
ARC
8
DEFAULT_255_2_778
10
13.9117639
20
0.9459884
40
1.912224
50
27.0660638
51
36.1277813
0
ARC
8
DEFAULT_255_2_778
10
13.2287855
20
0.59407
40
2.6805347
50
19.9766785
51
27.1218519
0
ARC
8
DEFAULT_255_2_778
10
12.3452061
20
0.2709972
40
3.6213249
50
13.8351359
51
20.004685
0
ARC
8
DEFAULT_255_2_778
10
11.332663
20
0.0198938
40
4.6645382
50
8.1284057
51
13.8558946
0
ARC
8
DEFAULT_255_2_778
10
10.3098999
20
-0.1240548
40
5.6973799
50
0.1757268
51
8.1072048
0
ARC
8
DEFAULT_255_2_778
10
10.0511141
20
-0.1323629
40
5.9561947
50
0.0004436
51
0.2480115
0
ARC
8
DEFAULT_255_2_778
10
10.2890228
20
-0.1391292
40
5.7182899
50
352.0766325
51
0.0682589
0
ARC
8
DEFAULT_255_2_778
10
11.2970935
20
-0.2777148
40
4.7007393
50
346.3617647
51
352.0559306
0
ARC
8
DEFAULT_255_2_778
10
12.3052281
20
-0.5236182
40
3.6630486
50
340.285193
51
346.3814908
0
ARC
8
DEFAULT_255_2_778
10
13.1876425
20
-0.8410511
40
2.7252762
50
333.3331523
51
340.3094482
0
ARC
8
DEFAULT_255_2_778
10
13.8772919
20
-1.1896472
40
1.9525344
50
324.4814461
51
333.3918501
0
ARC
8
DEFAULT_255_2_778
10
14.3624355
20
-1.5389271
40
1.354745
50
312.1521687
51
324.584483
0
ARC
8
DEFAULT_255_2_778
10
14.6786099
20
-1.9125504
40
0.8657228
50
271.2448385
51
313.2335698
0
ARC
8
DEFAULT_255_2_778
10
14.6843245
20
-1.8999004
40
0.8782662
50
269.998961
51
270.8541842
0
LINE
8
DEFAULT_255_2_778
10
14.6843086
20
-2.7781667
11
14.6843086
21
2.5135333
0
ARC
8
DEFAULT_255_2_778
10
6.7510681
20
1.6525557
40
0.8609881
50
90.2827957
51
132.4501694
0
ARC
8
DEFAULT_255_2_778
10
7.0491851
20
1.2919509
40
1.3284857
50
131.4400555
51
143.9681327
0
ARC
8
DEFAULT_255_2_778
10
7.5193633
20
0.9459884
40
1.912224
50
143.8722187
51
152.9339362
0
ARC
8
DEFAULT_255_2_778
10
8.2023416
20
0.59407
40
2.6805347
50
152.8781481
51
160.0233215
0
ARC
8
DEFAULT_255_2_778
10
9.0859211
20
0.2709972
40
3.6213249
50
159.995315
51
166.1648641
0
ARC
8
DEFAULT_255_2_778
10
10.0984641
20
0.0198938
40
4.6645382
50
166.1441054
51
171.8715943
0
ARC
8
DEFAULT_255_2_778
10
11.1212273
20
-0.1240548
40
5.6973799
50
171.8927952
51
179.8242732
0
ARC
8
DEFAULT_255_2_778
10
11.380013
20
-0.1323629
40
5.9561947
50
179.7519885
51
179.9995564
0
ARC
8
DEFAULT_255_2_778
10
11.1421043
20
-0.1391292
40
5.7182899
50
179.9317411
51
187.9233675
0
ARC
8
DEFAULT_255_2_778
10
10.1340337
20
-0.2777148
40
4.7007393
50
187.9440694
51
193.6382353
0
ARC
8
DEFAULT_255_2_778
10
9.125899
20
-0.5236182
40
3.6630486
50
193.6185092
51
199.714807
0
ARC
8
DEFAULT_255_2_778
10
8.2434846
20
-0.8410511
40
2.7252762
50
199.6905518
51
206.6668477
0
ARC
8
DEFAULT_255_2_778
10
7.5538353
20
-1.1896472
40
1.9525344
50
206.6081499
51
215.5185539
0
ARC
8
DEFAULT_255_2_778
10
7.0686916
20
-1.5389271
40
1.354745
50
215.415517
51
227.8478313
0
ARC
8
DEFAULT_255_2_778
10
6.7525173
20
-1.9125504
40
0.8657228
50
226.7664302
51
268.7551615
0
ARC
8
DEFAULT_255_2_778
10
6.7468026
20
-1.8999004
40
0.8782662
50
269.1458158
51
270.001039
0
LINE
8
DEFAULT_255_2_778
10
6.7468185
20
-2.7781667
11
6.7468185
21
2.5135333
0
ENDSEC
0
EOF