0
SECTION
2
HEADER
9
$MEASUREMENT
70
1
0
ENDSEC
0
SECTION
2
TABLES
0
TABLE
2
LTYPE
0
LTYPE
72
65
70
64
2
CONTINUOUS
3
______
73
0
40
0
0
ENDTAB
0
TABLE
2
LAYER
0
LAYER
2
DEFAULT_255_2_778
70
0
62
255
6
CONTINUOUS
0
ENDTAB
0
ENDSEC
0
SECTION
2
ENTITIES
0
LINE
8
DEFAULT_255_2_778
10
22.6215251
20
7.8052665
11
26.5902251
21
7.8052665
0
LINE
8
DEFAULT_255_2_778
10
26.5902251
20
7.8052665
11
26.5902251
21
-2.7780335
0
LINE
8
DEFAULT_255_2_778
10
26.5902251
20
-2.7780335
11
22.6215251
21
-2.7780335
0
LINE
8
DEFAULT_255_2_778
10
22.6215251
20
-2.7780335
11
22.6215251
21
7.8052665
0
LINE
8
DEFAULT_255_2_778
10
6.7480335
20
7.8052665
11
17.3313335
21
7.8052665
0
LINE
8
DEFAULT_255_2_778
10
17.3313335
20
7.8052665
11
17.3313335
21
-2.7780335
0
LINE
8
DEFAULT_255_2_778
10
17.3313335
20
-2.7780335
11
6.7480335
21
-2.7780335
0
LINE
8
DEFAULT_255_2_778
10
6.7480335
20
-2.7780335
11
6.7480335
21
7.8052665
0
LINE
8
DEFAULT_255_2_778
10
6.7472251
20
2.5136
11
2.7785251
21
2.5136
0
ARC
8
DEFAULT_255_2_778
10
15.7518342
20
3.918754
40
5.9723656
50
26.5063138
51
29.2472989
0
ARC
8
DEFAULT_255_2_778
10
17.0345192
20
4.6384671
40
4.5015611
50
29.2311471
51
32.5998991
0
ARC
8
DEFAULT_255_2_778
10
18.0200004
20
5.2697529
40
3.3312219
50
32.5847317
51
36.6382201
0
ARC
8
DEFAULT_255_2_778
10
18.7569579
20
5.8197596
40
2.4116511
50
36.6014143
51
41.882664
0
ARC
8
DEFAULT_255_2_778
10
19.2886481
20
6.2986409
40
1.6960968
50
41.8295173
51
48.8692539
0
ARC
8
DEFAULT_255_2_778
10
19.6385213
20
6.7023406
40
1.1618883
50
48.7697771
51
58.8840887
0
ARC
8
DEFAULT_255_2_778
10
19.8282364
20
7.0208801
40
0.7911429
50
58.7253078
51
74.6870527
0
ARC
8
DEFAULT_255_2_778
10
19.8741088
20
7.1760355
40
0.6293897
50
74.9846154
51
89.9026521
0
ARC
8
DEFAULT_255_2_778
10
19.8802326
20
7.1418857
40
0.663558
50
90.4364393
51
114.6694706
0
ARC
8
DEFAULT_255_2_778
10
19.9993489
20
6.8716477
40
0.9588594
50
114.3977041
51
126.7762987
0
ARC
8
DEFAULT_255_2_778
10
20.2683491
20
6.506897
40
1.4120685
50
126.6582258
51
135.0714379
0
ARC
8
DEFAULT_255_2_778
10
20.7110499
20
6.0614605
40
2.0400754
50
134.9951191
51
141.0464657
0
ARC
8
DEFAULT_255_2_778
10
21.3540019
20
5.5391428
40
2.8684475
50
141.0071934
51
145.6825085
0
ARC
8
DEFAULT_255_2_778
10
22.2272382
20
4.9405973
40
3.9271236
50
145.6527038
51
149.3008044
0
ARC
8
DEFAULT_255_2_778
10
23.3673507
20
4.2621037
40
5.2538522
50
149.2861206
51
152.3051061
0
ARC
8
DEFAULT_255_2_778
10
24.4004299
20
3.7126842
40
6.4239299
50
152.2485754
51
153.4484463
0
LINE
8
DEFAULT_255_2_778
10
18.6543157
20
6.5841994
11
19.8753157
21
2.5135994
0
LINE
8
DEFAULT_255_2_778
10
19.8753157
20
2.5135994
11
21.0964157
21
6.5841994
0
ARC
8
DEFAULT_255_2_778
10
23.9971078
20
1.1077685
40
5.9705516
50
206.507734
51
209.2490877
0
ARC
8
DEFAULT_255_2_778
10
22.714894
20
0.3882715
40
4.5002638
50
209.2329852
51
212.6021603
0
ARC
8
DEFAULT_255_2_778
10
21.7297996
20
-0.2428169
40
3.3303568
50
212.5870598
51
216.640979
0
ARC
8
DEFAULT_255_2_778
10
20.993109
20
-0.7926785
40
2.4110866
50
216.6041986
51
221.8859427
0
ARC
8
DEFAULT_255_2_778
10
20.46165
20
-1.2714032
40
1.6958087
50
221.8328912
51
228.8729672
0
ARC
8
DEFAULT_255_2_778
10
20.1119171
20
-1.6749912
40
1.1617766
50
228.7736013
51
238.8879397
0
ARC
8
DEFAULT_255_2_778
10
19.9222908
20
-1.9934295
40
0.7911636
50
238.7292539
51
254.6897551
0
ARC
8
DEFAULT_255_2_778
10
19.8764465
20
-2.1485155
40
0.6294851
50
254.9871626
51
269.9027587
0
ARC
8
DEFAULT_255_2_778
10
19.8703237
20
-2.1143326
40
0.6636865
50
270.4363501
51
294.6647265
0
ARC
8
DEFAULT_255_2_778
10
19.7512347
20
-1.8440959
40
0.9589757
50
294.3930082
51
306.7698386
0
ARC
8
DEFAULT_255_2_778
10
19.4823164
20
-1.4793729
40
1.4121138
50
306.6518517
51
315.0643848
0
ARC
8
DEFAULT_255_2_778
10
19.0397984
20
-1.034003
40
2.0399446
50
314.9879308
51
321.039234
0
ARC
8
DEFAULT_255_2_778
10
18.3969755
20
-0.5116534
40
2.8682365
50
320.9999315
51
325.6751736
0
ARC
8
DEFAULT_255_2_778
10
17.5240662
20
0.0868345
40
3.9266105
50
325.6453461
51
329.2935473
0
ARC
8
DEFAULT_255_2_778
10
16.3841498
20
0.7654037
40
5.2532091
50
329.2788925
51
332.2979028
0
ARC
8
DEFAULT_255_2_778
10
15.3503904
20
1.3153198
40
6.4241206
50
332.2415846
51
333.4412749
0
LINE
8
DEFAULT_255_2_778
10
21.0966157
20
-1.5569998
11
19.8755157
21
2.5136002
0
LINE
8
DEFAULT_255_2_778
10
19.8755157
20
2.5136002
11
18.6542157
21
-1.5569998
0
ENDSEC
0
EOF