0
SECTION
2
HEADER
9
$MEASUREMENT
70
1
0
ENDSEC
0
SECTION
2
TABLES
0
TABLE
2
LTYPE
0
LTYPE
72
65
70
64
2
CONTINUOUS
3
______
73
0
40
0
0
ENDTAB
0
TABLE
2
LAYER
0
LAYER
2
DEFAULT_255_2_778
70
0
62
255
6
CONTINUOUS
0
ENDTAB
0
ENDSEC
0
SECTION
2
ENTITIES
0
ARC
8
DEFAULT_255_2_778
10
5.4439953
20
1.8103408
40
1.9426609
50
234.0660649
51
269.4092966
0
ARC
8
DEFAULT_255_2_778
10
5.8724706
20
2.4560716
40
2.7171455
50
220.6123109
51
234.7411624
0
ARC
8
DEFAULT_255_2_778
10
6.4891523
20
2.9922943
40
3.5343399
50
209.7135243
51
220.7037801
0
ARC
8
DEFAULT_255_2_778
10
7.2136222
20
3.4112889
40
4.3712356
50
200.5861321
51
209.7765647
0
ARC
8
DEFAULT_255_2_778
10
7.9252478
20
3.6813565
40
5.1323806
50
191.9238987
51
200.6152029
0
ARC
8
DEFAULT_255_2_778
10
8.5310578
20
3.8115954
40
5.7520284
50
183.2805982
51
191.9464196
0
ARC
8
DEFAULT_255_2_778
10
8.8509674
20
3.8357728
40
6.0728001
50
179.9932976
51
183.3356088
0
ARC
8
DEFAULT_255_2_778
10
8.7179202
20
3.8418438
40
5.9397552
50
171.3526342
51
180.0517093
0
ARC
8
DEFAULT_255_2_778
10
8.1760082
20
3.926246
40
5.3913138
50
162.7529719
51
171.3735155
0
ARC
8
DEFAULT_255_2_778
10
7.4812555
20
4.14493
40
4.6629633
50
153.5393571
51
162.7881417
0
ARC
8
DEFAULT_255_2_778
10
6.7365796
20
4.5184157
40
3.8298812
50
143.3946149
51
153.5774265
0
ARC
8
DEFAULT_255_2_778
10
6.0703212
20
5.0183989
40
2.9968972
50
130.7967295
51
143.4725636
0
ARC
8
DEFAULT_255_2_778
10
5.5885455
20
5.5861867
40
2.2522907
50
112.3062356
51
130.9559742
0
ARC
8
DEFAULT_255_2_778
10
5.4269626
20
5.9620355
40
1.84325
50
90.0931043
51
112.0937641
0
ARC
8
DEFAULT_255_2_778
10
52.9393955
20
1.9377317
40
2.0700599
50
270.5943157
51
306.7493729
0
ARC
8
DEFAULT_255_2_778
10
52.4935294
20
2.5941376
40
2.8630006
50
306.0392484
51
320.0636339
0
ARC
8
DEFAULT_255_2_778
10
51.896605
20
3.1014637
40
3.6463727
50
319.9723611
51
330.8775609
0
ARC
8
DEFAULT_255_2_778
10
51.2059127
20
3.4898034
40
4.4387462
50
330.8375196
51
340.655039
0
ARC
8
DEFAULT_255_2_778
10
50.5342169
20
3.7287044
40
5.1516567
50
340.6226686
51
349.9436601
0
ARC
8
DEFAULT_255_2_778
10
50.0018925
20
3.826074
40
5.6928059
50
349.9142617
51
358.7952281
0
ARC
8
DEFAULT_255_2_778
10
49.7721813
20
3.8364021
40
5.9226861
50
358.7420602
51
0.0007844
0
ARC
8
DEFAULT_255_2_778
10
49.943512
20
3.8417136
40
5.7513578
50
359.9478939
51
8.9342209
0
ARC
8
DEFAULT_255_2_778
10
50.4441633
20
3.9221868
40
5.2442834
50
8.9151501
51
17.7929775
0
ARC
8
DEFAULT_255_2_778
10
51.086488
20
4.1315349
40
4.5687118
50
17.754683
51
27.4339286
0
ARC
8
DEFAULT_255_2_778
10
51.7901204
20
4.5002845
40
3.7743168
50
27.386874
51
38.2863247
0
ARC
8
DEFAULT_255_2_778
10
52.4154186
20
4.9986566
40
2.9747202
50
38.2140028
51
51.6027582
0
ARC
8
DEFAULT_255_2_778
10
52.8600607
20
5.5747361
40
2.2470809
50
51.3648035
51
73.4734737
0
ARC
8
DEFAULT_255_2_778
10
52.9603731
20
5.8640374
40
1.9412459
50
73.8829635
51
89.9854097
0
LINE
8
DEFAULT_255_2_778
10
8.0698674
20
-2.7781169
11
8.0698674
21
-0.1322169
0
LINE
8
DEFAULT_255_2_778
10
7.2760674
20
-2.7781169
11
8.8635674
21
-2.7781169
0
LINE
8
DEFAULT_255_2_778
10
10.1864674
20
-0.1322169
11
5.4239674
21
-0.1322169
0
LINE
8
DEFAULT_255_2_778
10
5.4239674
20
7.8052831
11
10.1864674
21
7.8052831
0
LINE
8
DEFAULT_255_2_778
10
8.0698674
20
10.4510831
11
8.0698674
21
7.8052831
0
LINE
8
DEFAULT_255_2_778
10
7.2760674
20
10.4510831
11
8.8635674
21
10.4510831
0
LINE
8
DEFAULT_255_2_778
10
10.1864674
20
9.1281831
11
10.1864674
21
-1.4551169
0
LINE
8
DEFAULT_255_2_778
10
10.7156674
20
-1.4551169
11
10.7156674
21
-0.1322169
0
LINE
8
DEFAULT_255_2_778
10
10.7156674
20
9.1281831
11
10.7156674
21
7.8052831
0
LINE
8
DEFAULT_255_2_778
10
10.7156674
20
7.8052831
11
10.7156674
21
-0.1322169
0
LINE
8
DEFAULT_255_2_778
10
10.7156674
20
-0.1322169
11
45.6044674
21
-0.1322169
0
LINE
8
DEFAULT_255_2_778
10
45.6044674
20
-0.1322169
11
48.1761674
21
-0.1322169
0
LINE
8
DEFAULT_255_2_778
10
48.1761674
20
-0.1322169
11
51.5937674
21
-0.1322169
0
LINE
8
DEFAULT_255_2_778
10
51.5937674
20
-0.1322169
11
52.9608674
21
-0.1322169
0
LINE
8
DEFAULT_255_2_778
10
52.9608674
20
7.8052831
11
51.5937674
21
7.8052831
0
LINE
8
DEFAULT_255_2_778
10
51.5937674
20
7.8052831
11
10.7156674
21
7.8052831
0
LINE
8
DEFAULT_255_2_778
10
13.3614674
20
10.4510831
11
13.3614674
21
7.8052831
0
LINE
8
DEFAULT_255_2_778
10
12.56775
20
10.4511
11
13.36145
21
10.4511
0
LINE
8
DEFAULT_255_2_778
10
14.15525
20
10.4511
11
13.36145
21
10.4511
0
LINE
8
DEFAULT_255_2_778
10
45.1115
20
-2.7780834
11
45.1115
21
-0.1322834
0
LINE
8
DEFAULT_255_2_778
10
44.31775
20
-2.7781
11
45.11145
21
-2.7781
0
LINE
8
DEFAULT_255_2_778
10
45.90525
20
-2.7781
11
45.11145
21
-2.7781
0
ENDSEC
0
EOF