0
SECTION
2
HEADER
9
$MEASUREMENT
70
1
0
ENDSEC
0
SECTION
2
TABLES
0
TABLE
2
LTYPE
0
LTYPE
72
65
70
64
2
CONTINUOUS
3
______
73
0
40
0
0
ENDTAB
0
TABLE
2
LAYER
0
LAYER
2
DEFAULT_255_2_778
70
0
62
255
6
CONTINUOUS
0
ENDTAB
0
ENDSEC
0
SECTION
2
ENTITIES
0
ARC
8
DEFAULT_255_2_778
10
52.9801013
20
5.794148
40
2.0112244
50
53.700372
51
89.4122209
0
ARC
8
DEFAULT_255_2_778
10
52.5441868
20
5.1440552
40
2.7934212
50
40.3104473
51
54.3883805
0
ARC
8
DEFAULT_255_2_778
10
51.9336864
20
4.6191446
40
3.5985423
50
29.2836816
51
40.3951595
0
ARC
8
DEFAULT_255_2_778
10
51.2139594
20
4.2109685
40
4.4259491
50
19.642306
51
29.3350974
0
ARC
8
DEFAULT_255_2_778
10
50.5234405
20
3.9607516
40
5.160397
50
10.8097024
51
19.6816192
0
ARC
8
DEFAULT_255_2_778
10
49.9635124
20
3.8515922
40
5.7308624
50
1.967046
51
10.8317895
0
ARC
8
DEFAULT_255_2_778
10
49.7001194
20
3.8367058
40
5.9946142
50
359.9977129
51
2.0228326
0
ARC
8
DEFAULT_255_2_778
10
49.8588396
20
3.8311704
40
5.8358963
50
351.1969418
51
0.0519962
0
ARC
8
DEFAULT_255_2_778
10
50.3785292
20
3.7488232
40
5.3097264
50
342.4556749
51
351.2168468
0
ARC
8
DEFAULT_255_2_778
10
51.046496
20
3.5344284
40
4.6082038
50
332.9668548
51
342.493818
0
ARC
8
DEFAULT_255_2_778
10
51.7724232
20
3.1607439
40
3.7917479
50
322.3684991
51
333.0109617
0
ARC
8
DEFAULT_255_2_778
10
52.4160216
20
2.6598312
40
2.9762023
50
309.3768969
51
322.4403287
0
ARC
8
DEFAULT_255_2_778
10
52.8749934
20
2.0881312
40
2.243118
50
289.0756913
51
309.579117
0
ARC
8
DEFAULT_255_2_778
10
52.9994126
20
1.7625902
40
1.8948241
50
270.0399393
51
288.737182
0
LINE
8
DEFAULT_255_2_778
10
48.2864334
20
9.1281665
11
48.2864334
21
-1.4551335
0
LINE
8
DEFAULT_255_2_778
10
48.2864334
20
7.8052665
11
51.6538334
21
7.8052665
0
LINE
8
DEFAULT_255_2_778
10
51.6538334
20
7.8052665
11
53.0007334
21
7.8052665
0
LINE
8
DEFAULT_255_2_778
10
53.0007334
20
-0.1322335
11
48.2864334
21
-0.1322335
0
LINE
8
DEFAULT_255_2_778
10
10.7156672
20
9.1281665
11
10.7156672
21
7.8052665
0
LINE
8
DEFAULT_255_2_778
10
47.7573672
20
9.1281665
11
47.7573672
21
7.8052665
0
LINE
8
DEFAULT_255_2_778
10
47.7573672
20
-1.4551335
11
47.7573672
21
-0.1322335
0
LINE
8
DEFAULT_255_2_778
10
10.7156672
20
-0.1322335
11
45.7070672
21
-0.1322335
0
LINE
8
DEFAULT_255_2_778
10
45.7070672
20
-0.1322335
11
47.7573672
21
-0.1322335
0
LINE
8
DEFAULT_255_2_778
10
47.7573672
20
-0.1322335
11
47.7573672
21
7.8052665
0
LINE
8
DEFAULT_255_2_778
10
47.7573672
20
7.8052665
11
12.9026672
21
7.8052665
0
LINE
8
DEFAULT_255_2_778
10
12.9026672
20
7.8052665
11
10.7156672
21
7.8052665
0
LINE
8
DEFAULT_255_2_778
10
10.7156672
20
7.8052665
11
10.7156672
21
-1.4551335
0
LINE
8
DEFAULT_255_2_778
10
3.3073334
20
9.1281665
11
3.3073334
21
-1.4551335
0
LINE
8
DEFAULT_255_2_778
10
2.7781334
20
9.1281665
11
2.7781334
21
-1.4551335
0
LINE
8
DEFAULT_255_2_778
10
10.1864334
20
9.1281665
11
10.1864334
21
7.8052665
0
LINE
8
DEFAULT_255_2_778
10
10.1864334
20
-1.4551335
11
10.1864334
21
-0.1322335
0
LINE
8
DEFAULT_255_2_778
10
3.3073334
20
-0.1322335
11
10.1864334
21
-0.1322335
0
LINE
8
DEFAULT_255_2_778
10
10.1864334
20
-0.1322335
11
10.1864334
21
7.8052665
0
LINE
8
DEFAULT_255_2_778
10
10.1864334
20
7.8052665
11
3.3073334
21
7.8052665
0
LINE
8
DEFAULT_255_2_778
10
8.0698
20
10.4511166
11
8.0698
21
7.8053166
0
LINE
8
DEFAULT_255_2_778
10
7.276025
20
10.4511
11
8.069725
21
10.4511
0
LINE
8
DEFAULT_255_2_778
10
8.863525
20
10.4511
11
8.069825
21
10.4511
0
LINE
8
DEFAULT_255_2_778
10
13.3615
20
10.4511166
11
13.3615
21
7.8053166
0
LINE
8
DEFAULT_255_2_778
10
12.567725
20
10.4511
11
13.361425
21
10.4511
0
LINE
8
DEFAULT_255_2_778
10
14.155125
20
10.4511
11
13.361425
21
10.4511
0
LINE
8
DEFAULT_255_2_778
10
45.1115
20
-2.7780834
11
45.1115
21
-0.1322834
0
LINE
8
DEFAULT_255_2_778
10
44.31775
20
-2.7781
11
45.11145
21
-2.7781
0
LINE
8
DEFAULT_255_2_778
10
45.90525
20
-2.7781
11
45.11145
21
-2.7781
0
LINE
8
DEFAULT_255_2_778
10
8.86355
20
-2.7780834
11
8.06975
21
-2.7780834
0
LINE
8
DEFAULT_255_2_778
10
7.27605
20
-2.7780834
11
8.06975
21
-2.7780834
0
LINE
8
DEFAULT_255_2_778
10
8.06975
20
-2.7780834
11
8.06975
21
-0.1322834
0
ENDSEC
0
EOF