0
SECTION
2
HEADER
9
$MEASUREMENT
70
1
0
ENDSEC
0
SECTION
2
TABLES
0
TABLE
2
LTYPE
0
LTYPE
72
65
70
64
2
CONTINUOUS
3
______
73
0
40
0
0
ENDTAB
0
TABLE
2
LAYER
0
LAYER
2
DEFAULT_255_2_778
70
0
62
255
6
CONTINUOUS
0
ENDTAB
0
ENDSEC
0
SECTION
2
ENTITIES
0
LINE
8
DEFAULT_255_2_778
10
10.7156672
20
9.1281665
11
10.7156672
21
7.8052665
0
LINE
8
DEFAULT_255_2_778
10
47.7573672
20
9.1281665
11
47.7573672
21
7.8052665
0
LINE
8
DEFAULT_255_2_778
10
47.7573672
20
-1.4551335
11
47.7573672
21
-0.1322335
0
LINE
8
DEFAULT_255_2_778
10
10.7156672
20
-0.1322335
11
45.7070672
21
-0.1322335
0
LINE
8
DEFAULT_255_2_778
10
45.7070672
20
-0.1322335
11
47.7573672
21
-0.1322335
0
LINE
8
DEFAULT_255_2_778
10
47.7573672
20
-0.1322335
11
47.7573672
21
7.8052665
0
LINE
8
DEFAULT_255_2_778
10
47.7573672
20
7.8052665
11
12.9026672
21
7.8052665
0
LINE
8
DEFAULT_255_2_778
10
12.9026672
20
7.8052665
11
10.7156672
21
7.8052665
0
LINE
8
DEFAULT_255_2_778
10
10.7156672
20
7.8052665
11
10.7156672
21
-1.4551335
0
LINE
8
DEFAULT_255_2_778
10
3.3073334
20
9.1281665
11
3.3073334
21
-1.4551335
0
LINE
8
DEFAULT_255_2_778
10
2.7781334
20
9.1281665
11
2.7781334
21
-1.4551335
0
LINE
8
DEFAULT_255_2_778
10
10.1864334
20
9.1281665
11
10.1864334
21
7.8052665
0
LINE
8
DEFAULT_255_2_778
10
10.1864334
20
-1.4551335
11
10.1864334
21
-0.1322335
0
LINE
8
DEFAULT_255_2_778
10
3.3073334
20
-0.1322335
11
10.1864334
21
-0.1322335
0
LINE
8
DEFAULT_255_2_778
10
10.1864334
20
-0.1322335
11
10.1864334
21
7.8052665
0
LINE
8
DEFAULT_255_2_778
10
10.1864334
20
7.8052665
11
3.3073334
21
7.8052665
0
LINE
8
DEFAULT_255_2_778
10
55.1656334
20
9.1281665
11
55.1656334
21
-1.4551335
0
LINE
8
DEFAULT_255_2_778
10
55.6947334
20
9.1281665
11
55.6947334
21
-1.4551335
0
LINE
8
DEFAULT_255_2_778
10
48.2864334
20
9.1281665
11
48.2864334
21
7.8052665
0
LINE
8
DEFAULT_255_2_778
10
48.2864334
20
-1.4551335
11
48.2864334
21
-0.1322335
0
LINE
8
DEFAULT_255_2_778
10
55.1656334
20
-0.1322335
11
48.2864334
21
-0.1322335
0
LINE
8
DEFAULT_255_2_778
10
48.2864334
20
-0.1322335
11
48.2864334
21
7.8052665
0
LINE
8
DEFAULT_255_2_778
10
48.2864334
20
7.8052665
11
55.1656334
21
7.8052665
0
LINE
8
DEFAULT_255_2_778
10
13.3615
20
10.4511166
11
13.3615
21
7.8053166
0
LINE
8
DEFAULT_255_2_778
10
12.567725
20
10.4511
11
13.361425
21
10.4511
0
LINE
8
DEFAULT_255_2_778
10
14.155125
20
10.4511
11
13.361425
21
10.4511
0
LINE
8
DEFAULT_255_2_778
10
45.1115
20
-2.7780834
11
45.1115
21
-0.1322834
0
LINE
8
DEFAULT_255_2_778
10
44.317725
20
-2.7781
11
45.111425
21
-2.7781
0
LINE
8
DEFAULT_255_2_778
10
45.905125
20
-2.7781
11
45.111425
21
-2.7781
0
LINE
8
DEFAULT_255_2_778
10
8.86355
20
10.4511166
11
8.06975
21
10.4511166
0
LINE
8
DEFAULT_255_2_778
10
7.27605
20
10.4511166
11
8.06975
21
10.4511166
0
LINE
8
DEFAULT_255_2_778
10
8.06975
20
10.4511166
11
8.06975
21
7.8053166
0
LINE
8
DEFAULT_255_2_778
10
8.0698
20
-0.1322834
11
8.0698
21
-2.7780834
0
LINE
8
DEFAULT_255_2_778
10
7.276025
20
-2.7781
11
8.069725
21
-2.7781
0
LINE
8
DEFAULT_255_2_778
10
8.863525
20
-2.7781
11
8.069825
21
-2.7781
0
ENDSEC
0
EOF