0
SECTION
2
HEADER
9
$MEASUREMENT
70
1
0
ENDSEC
0
SECTION
2
TABLES
0
TABLE
2
LTYPE
0
LTYPE
72
65
70
64
2
CONTINUOUS
3
______
73
0
40
0
0
ENDTAB
0
TABLE
2
LAYER
0
LAYER
2
DEFAULT_255_2_778
70
0
62
255
6
CONTINUOUS
0
ENDTAB
0
ENDSEC
0
SECTION
2
ENTITIES
0
LINE
8
DEFAULT_255_2_778
10
10.7156173
20
9.1281665
11
10.7156173
21
7.8052665
0
LINE
8
DEFAULT_255_2_778
10
47.7573173
20
9.1281665
11
47.7573173
21
7.8052665
0
LINE
8
DEFAULT_255_2_778
10
47.7573173
20
-1.4551335
11
47.7573173
21
-0.1322335
0
LINE
8
DEFAULT_255_2_778
10
10.7156173
20
-0.1322335
11
45.7070173
21
-0.1322335
0
LINE
8
DEFAULT_255_2_778
10
45.7070173
20
-0.1322335
11
47.7573173
21
-0.1322335
0
LINE
8
DEFAULT_255_2_778
10
47.7573173
20
-0.1322335
11
47.7573173
21
7.8052665
0
LINE
8
DEFAULT_255_2_778
10
47.7573173
20
7.8052665
11
12.9026173
21
7.8052665
0
LINE
8
DEFAULT_255_2_778
10
12.9026173
20
7.8052665
11
10.7156173
21
7.8052665
0
LINE
8
DEFAULT_255_2_778
10
10.7156173
20
7.8052665
11
10.7156173
21
-1.4551335
0
LINE
8
DEFAULT_255_2_778
10
3.3073173
20
9.1281665
11
3.3073173
21
-1.4551335
0
LINE
8
DEFAULT_255_2_778
10
2.7781173
20
9.1281665
11
2.7781173
21
-1.4551335
0
LINE
8
DEFAULT_255_2_778
10
10.1864173
20
9.1281665
11
10.1864173
21
7.8052665
0
LINE
8
DEFAULT_255_2_778
10
10.1864173
20
-1.4551335
11
10.1864173
21
-0.1322335
0
LINE
8
DEFAULT_255_2_778
10
3.3073173
20
-0.1322335
11
10.1864173
21
-0.1322335
0
LINE
8
DEFAULT_255_2_778
10
10.1864173
20
-0.1322335
11
10.1864173
21
7.8052665
0
LINE
8
DEFAULT_255_2_778
10
10.1864173
20
7.8052665
11
3.3073173
21
7.8052665
0
LINE
8
DEFAULT_255_2_778
10
55.1655589
20
9.1282248
11
55.1655589
21
-1.4550752
0
LINE
8
DEFAULT_255_2_778
10
55.6947589
20
9.1282248
11
55.6947589
21
-1.4550752
0
LINE
8
DEFAULT_255_2_778
10
48.2863589
20
9.1282248
11
48.2863589
21
7.8053248
0
LINE
8
DEFAULT_255_2_778
10
48.2863589
20
-1.4550752
11
48.2863589
21
-0.1321752
0
LINE
8
DEFAULT_255_2_778
10
55.1655589
20
-0.1321752
11
48.2863589
21
-0.1321752
0
LINE
8
DEFAULT_255_2_778
10
48.2863589
20
-0.1321752
11
48.2863589
21
7.8053248
0
LINE
8
DEFAULT_255_2_778
10
48.2863589
20
7.8053248
11
55.1655589
21
7.8053248
0
LINE
8
DEFAULT_255_2_778
10
13.3613589
20
10.4511248
11
13.3613589
21
7.8053248
0
LINE
8
DEFAULT_255_2_778
10
12.5676589
20
10.4511248
11
13.3613589
21
10.4511248
0
LINE
8
DEFAULT_255_2_778
10
14.155125
20
10.4511
11
13.361425
21
10.4511
0
LINE
8
DEFAULT_255_2_778
10
45.1115
20
-2.7780834
11
45.1115
21
-0.1322834
0
LINE
8
DEFAULT_255_2_778
10
44.31775
20
-2.7781
11
45.11145
21
-2.7781
0
LINE
8
DEFAULT_255_2_778
10
45.90525
20
-2.7781
11
45.11145
21
-2.7781
0
LINE
8
DEFAULT_255_2_778
10
8.86355
20
10.4511166
11
8.06975
21
10.4511166
0
LINE
8
DEFAULT_255_2_778
10
7.27605
20
10.4511166
11
8.06975
21
10.4511166
0
LINE
8
DEFAULT_255_2_778
10
8.06975
20
10.4511166
11
8.06975
21
7.8053166
0
LINE
8
DEFAULT_255_2_778
10
8.06975
20
-0.1322834
11
8.06975
21
-2.7780834
0
LINE
8
DEFAULT_255_2_778
10
7.27605
20
-2.7780834
11
8.06975
21
-2.7780834
0
LINE
8
DEFAULT_255_2_778
10
8.86355
20
-2.7780834
11
8.06975
21
-2.7780834
0
ENDSEC
0
EOF