0
SECTION
2
HEADER
9
$MEASUREMENT
70
1
0
ENDSEC
0
SECTION
2
TABLES
0
TABLE
2
LTYPE
0
LTYPE
72
65
70
64
2
CONTINUOUS
3
______
73
0
40
0
0
ENDTAB
0
TABLE
2
LAYER
0
LAYER
2
DEFAULT_255_2_778
70
0
62
255
6
CONTINUOUS
0
ENDTAB
0
ENDSEC
0
SECTION
2
ENTITIES
0
LINE
8
DEFAULT_255_2_778
10
8.680467
20
23.6801831
11
5.423967
21
19.7114831
0
LINE
8
DEFAULT_255_2_778
10
5.423967
20
19.7114831
11
5.423967
21
14.4197831
0
LINE
8
DEFAULT_255_2_778
10
5.423967
20
14.4197831
11
8.680467
21
10.4509831
0
LINE
8
DEFAULT_255_2_778
10
8.680467
20
10.4509831
11
23.334367
21
10.4509831
0
LINE
8
DEFAULT_255_2_778
10
23.334367
20
10.4509831
11
26.590667
21
14.4197831
0
LINE
8
DEFAULT_255_2_778
10
26.590667
20
14.4197831
11
26.590667
21
19.7114831
0
LINE
8
DEFAULT_255_2_778
10
26.590667
20
19.7114831
11
23.334167
21
23.6801831
0
LINE
8
DEFAULT_255_2_778
10
23.334167
20
23.6801831
11
8.680467
21
23.6801831
0
LINE
8
DEFAULT_255_2_778
10
5.423967
20
19.7114
11
26.590667
21
19.7114
0
LINE
8
DEFAULT_255_2_778
10
26.590667
20
14.4198
11
5.423967
21
14.4198
0
ARC
8
DEFAULT_255_2_778
10
22.1652598
20
21.7574552
40
0.8886385
50
271.0077389
51
345.6930668
0
ARC
8
DEFAULT_255_2_778
10
22.0644369
20
21.8047939
40
0.9982526
50
344.4902125
51
0.0723326
0
ARC
8
DEFAULT_255_2_778
10
22.0864192
20
21.810354
40
0.976279
50
359.7476475
51
32.5353966
0
ARC
8
DEFAULT_255_2_778
10
22.1743416
20
21.8768339
40
0.8664451
50
31.9561095
51
89.5670538
0
ARC
8
DEFAULT_255_2_778
10
9.849225
20
21.7575823
40
0.8887657
50
194.3132977
51
268.9919269
0
ARC
8
DEFAULT_255_2_778
10
9.9497405
20
21.8047976
40
0.9980526
50
179.9278672
51
195.5131962
0
ARC
8
DEFAULT_255_2_778
10
9.9279146
20
21.8103583
40
0.9762353
50
147.463264
51
180.2526138
0
ARC
8
DEFAULT_255_2_778
10
9.8400921
20
21.8767414
40
0.8665372
50
90.430008
51
148.04048
0
LINE
8
DEFAULT_255_2_778
10
22.1808887
20
22.7432541
11
16.0072887
21
21.8058541
0
LINE
8
DEFAULT_255_2_778
10
16.0072887
20
21.8058541
11
22.1808887
21
20.8689541
0
LINE
8
DEFAULT_255_2_778
10
16.0292887
20
21.8060541
11
9.8335887
21
20.8689541
0
LINE
8
DEFAULT_255_2_778
10
9.8335887
20
22.7432541
11
16.0072887
21
21.8058541
0
ARC
8
DEFAULT_255_2_778
10
22.1652598
20
12.3869875
40
0.8886385
50
271.0077389
51
345.6930668
0
ARC
8
DEFAULT_255_2_778
10
22.0644369
20
12.4343262
40
0.9982526
50
344.4902125
51
0.0723326
0
ARC
8
DEFAULT_255_2_778
10
22.0864192
20
12.4398863
40
0.976279
50
359.7476475
51
32.5353966
0
ARC
8
DEFAULT_255_2_778
10
22.1743416
20
12.5063662
40
0.8664451
50
31.9561095
51
89.5670538
0
ARC
8
DEFAULT_255_2_778
10
9.8492933
20
12.3868707
40
0.888823
50
194.3100009
51
268.9875895
0
ARC
8
DEFAULT_255_2_778
10
9.9498314
20
12.4341338
40
0.9981436
50
179.9280949
51
195.5124843
0
ARC
8
DEFAULT_255_2_778
10
9.9277134
20
12.4396733
40
0.9760341
50
147.4598203
51
180.2516507
0
ARC
8
DEFAULT_255_2_778
10
9.8400955
20
12.5059407
40
0.8665703
50
90.4302159
51
148.0373995
0
LINE
8
DEFAULT_255_2_778
10
22.1808887
20
13.3727864
11
16.0072887
21
12.4353864
0
LINE
8
DEFAULT_255_2_778
10
16.0072887
20
12.4353864
11
22.1808887
21
11.4984864
0
LINE
8
DEFAULT_255_2_778
10
16.0292887
20
12.4353864
11
9.8335887
21
11.4981864
0
LINE
8
DEFAULT_255_2_778
10
9.8335887
20
13.3724864
11
16.0072887
21
12.4353864
0
LINE
8
DEFAULT_255_2_778
10
5.423967
20
17.0656
11
26.590667
21
17.0656
0
LINE
8
DEFAULT_255_2_778
10
5.4240003
20
18.3885
11
27.6490003
21
18.3885
0
LINE
8
DEFAULT_255_2_778
10
26.5914719
20
18.9052489
11
25.7095719
21
17.8593489
0
LINE
8
DEFAULT_255_2_778
10
7.1868719
20
18.9052489
11
6.3049719
21
17.8593489
0
LINE
8
DEFAULT_255_2_778
10
8.9516719
20
18.9052489
11
8.0697719
21
17.8593489
0
LINE
8
DEFAULT_255_2_778
10
10.7164719
20
18.9052489
11
9.8345719
21
17.8593489
0
LINE
8
DEFAULT_255_2_778
10
12.4785719
20
18.9052489
11
11.5966719
21
17.8593489
0
LINE
8
DEFAULT_255_2_778
10
14.2433719
20
18.9052489
11
13.3614719
21
17.8593489
0
LINE
8
DEFAULT_255_2_778
10
16.0081719
20
18.9052489
11
15.1262719
21
17.8593489
0
LINE
8
DEFAULT_255_2_778
10
17.7702719
20
18.9052489
11
16.8883719
21
17.8593489
0
LINE
8
DEFAULT_255_2_778
10
19.5350719
20
18.9052489
11
18.6531719
21
17.8593489
0
LINE
8
DEFAULT_255_2_778
10
21.2997719
20
18.9052489
11
20.4178719
21
17.8593489
0
LINE
8
DEFAULT_255_2_778
10
23.0618719
20
18.9052489
11
22.1799719
21
17.8593489
0
LINE
8
DEFAULT_255_2_778
10
24.8266719
20
18.9052489
11
23.9447719
21
17.8593489
0
LINE
8
DEFAULT_255_2_778
10
25.7077719
20
18.9052489
11
24.8258719
21
17.8593489
0
LINE
8
DEFAULT_255_2_778
10
23.9456719
20
18.9052489
11
23.0637719
21
17.8593489
0
LINE
8
DEFAULT_255_2_778
10
22.1808719
20
18.9052489
11
21.2989719
21
17.8593489
0
LINE
8
DEFAULT_255_2_778
10
20.4160719
20
18.9052489
11
19.5341719
21
17.8593489
0
LINE
8
DEFAULT_255_2_778
10
18.6539719
20
18.9052489
11
17.7720719
21
17.8593489
0
LINE
8
DEFAULT_255_2_778
10
15.1243719
20
18.9052489
11
14.2424719
21
17.8593489
0
LINE
8
DEFAULT_255_2_778
10
16.8891719
20
18.9052489
11
16.0072719
21
17.8593489
0
LINE
8
DEFAULT_255_2_778
10
13.3622719
20
18.9052489
11
12.4803719
21
17.8593489
0
LINE
8
DEFAULT_255_2_778
10
11.5975719
20
18.9052489
11
10.7156719
21
17.8593489
0
LINE
8
DEFAULT_255_2_778
10
9.8327719
20
18.9052489
11
8.9508719
21
17.8593489
0
LINE
8
DEFAULT_255_2_778
10
8.0706719
20
18.9052489
11
7.1887719
21
17.8593489
0
LINE
8
DEFAULT_255_2_778
10
6.3058719
20
18.9052489
11
5.4239719
21
17.8593489
0
LINE
8
DEFAULT_255_2_778
10
18.6531667
20
5.1593916
11
18.6531667
21
-1.4552084
0
LINE
8
DEFAULT_255_2_778
10
18.6531667
20
-1.4552084
11
13.3614667
21
-1.4552084
0
LINE
8
DEFAULT_255_2_778
10
13.3614667
20
-1.4552084
11
13.3614667
21
5.1593916
0
LINE
8
DEFAULT_255_2_778
10
13.3614667
20
5.1593916
11
18.6531667
21
5.1593916
0
ARC
8
DEFAULT_255_2_778
10
16.5319055
20
5.172271
40
2.1213005
50
359.65123
51
9.5002523
0
ARC
8
DEFAULT_255_2_778
10
17.2806174
20
5.3019825
40
1.361455
50
9.316927
51
24.7855627
0
ARC
8
DEFAULT_255_2_778
10
17.6225068
20
5.4556395
40
0.9866502
50
25.0077098
51
73.5324207
0
ARC
8
DEFAULT_255_2_778
10
17.4088504
20
4.8513854
40
1.6270309
50
72.3490177
51
85.036967
0
ARC
8
DEFAULT_255_2_778
10
17.3348129
20
4.1580784
40
2.3241846
50
84.6972656
51
90.1145376
0
ARC
8
DEFAULT_255_2_778
10
14.6714561
20
4.3608277
40
2.1214699
50
89.651313
51
99.4995419
0
ARC
8
DEFAULT_255_2_778
10
14.5417358
20
5.1096387
40
1.3615254
50
99.3161539
51
114.7838841
0
ARC
8
DEFAULT_255_2_778
10
14.3880257
20
5.4516391
40
0.9865973
50
115.0053053
51
163.5305431
0
ARC
8
DEFAULT_255_2_778
10
14.9921109
20
5.2380339
40
1.6268022
50
162.3477554
51
175.0365692
0
ARC
8
DEFAULT_255_2_778
10
15.6852929
20
5.1640042
40
2.3238308
50
174.6968603
51
180.1145488
0
LINE
8
DEFAULT_255_2_778
10
17.3301667
20
6.4822583
11
14.6843667
21
6.4822583
0
LINE
8
DEFAULT_255_2_778
10
13.3614667
20
5.1593583
11
18.6531667
21
5.1593583
0
ARC
8
DEFAULT_255_2_778
10
16.5319055
20
-1.4681544
40
2.1213005
50
350.4997477
51
0.34877
0
ARC
8
DEFAULT_255_2_778
10
17.2806174
20
-1.5978659
40
1.361455
50
335.2144373
51
350.683073
0
ARC
8
DEFAULT_255_2_778
10
17.6225068
20
-1.7515228
40
0.9866502
50
286.4675793
51
334.9922902
0
ARC
8
DEFAULT_255_2_778
10
17.4088504
20
-1.1472688
40
1.6270309
50
274.963033
51
287.6509823
0
ARC
8
DEFAULT_255_2_778
10
17.3348129
20
-0.4539617
40
2.3241846
50
269.8854624
51
275.3027344
0
ARC
8
DEFAULT_255_2_778
10
14.6714561
20
-0.6567111
40
2.1214699
50
260.5004581
51
270.348687
0
ARC
8
DEFAULT_255_2_778
10
14.5417358
20
-1.4055221
40
1.3615254
50
245.2161159
51
260.6838461
0
ARC
8
DEFAULT_255_2_778
10
14.3880257
20
-1.7475225
40
0.9865973
50
196.4694569
51
244.9946947
0
ARC
8
DEFAULT_255_2_778
10
14.9921109
20
-1.5339173
40
1.6268022
50
184.9634308
51
197.6522446
0
ARC
8
DEFAULT_255_2_778
10
15.6852929
20
-1.4598876
40
2.3238308
50
179.8854512
51
185.3031397
0
LINE
8
DEFAULT_255_2_778
10
17.3301667
20
-2.7781417
11
14.6843667
21
-2.7781417
0
LINE
8
DEFAULT_255_2_778
10
13.3614667
20
-1.4552417
11
18.6531667
21
-1.4552417
0
LINE
8
DEFAULT_255_2_778
10
16.0073
20
6.4822749
11
16.0073
21
10.4509749
0
LINE
8
DEFAULT_255_2_778
10
2.7780834
20
19.7114333
11
5.4238834
21
19.7114333
0
LINE
8
DEFAULT_255_2_778
10
5.4238834
20
19.7114333
11
5.4238834
21
14.4197333
0
LINE
8
DEFAULT_255_2_778
10
5.4238834
20
14.4197333
11
2.7780834
21
14.4197333
0
LINE
8
DEFAULT_255_2_778
10
2.7780834
20
14.4197333
11
2.7780834
21
19.7114333
0
ARC
8
DEFAULT_255_2_778
10
27.6540809
20
18.9369414
40
1.8713318
50
269.8429059
51
288.5742588
0
ARC
8
DEFAULT_255_2_778
10
27.7356474
20
18.7079594
40
1.6283012
50
288.4201554
51
310.689855
0
ARC
8
DEFAULT_255_2_778
10
28.0236831
20
18.4075231
40
1.2129158
50
309.625551
51
359.1021325
0
ARC
8
DEFAULT_255_2_778
10
28.0124074
20
18.3659865
40
1.2242499
50
1.0544854
51
52.8253114
0
ARC
8
DEFAULT_255_2_778
10
27.7222298
20
18.0441332
40
1.6564479
50
51.5546073
51
73.4952174
0
ARC
8
DEFAULT_255_2_778
10
27.6530702
20
17.8301738
40
1.8812473
50
73.3269432
51
90.1254858
0
LINE
8
DEFAULT_255_2_778
10
27.64895
20
19.7114166
11
27.64895
21
17.0656166
0
LINE
8
DEFAULT_255_2_778
10
4.101
20
19.7114583
11
4.101
21
21.0343583
0
LINE
8
DEFAULT_255_2_778
10
3.4395417
20
21.0343
11
4.7624417
21
21.0343
0
LINE
8
DEFAULT_255_2_778
10
4.101
20
14.4197583
11
4.101
21
13.0968583
0
LINE
8
DEFAULT_255_2_778
10
3.4395417
20
13.0968
11
4.7624417
21
13.0968
0
ENDSEC
0
EOF