0
SECTION
2
HEADER
9
$MEASUREMENT
70
1
0
ENDSEC
0
SECTION
2
TABLES
0
TABLE
2
LTYPE
0
LTYPE
72
65
70
64
2
CONTINUOUS
3
______
73
0
40
0
0
ENDTAB
0
TABLE
2
LAYER
0
LAYER
2
DEFAULT_255_2_778
70
0
62
255
6
CONTINUOUS
0
LAYER
2
DEFAULT_255_2_778_7
70
0
62
255
6
CONTINUOUS
0
ENDTAB
0
ENDSEC
0
SECTION
2
ENTITIES
0
ARC
8
DEFAULT_255_2_778
10
12.1480874
20
5.1632784
40
8.0470881
50
169.9473732
51
180.0283277
0
ARC
8
DEFAULT_255_2_778
10
11.9979218
20
5.1884456
40
7.8948351
50
156.6527691
51
169.9369886
0
ARC
8
DEFAULT_255_2_778
10
12.0283118
20
5.1697403
40
7.9301513
50
115.2414291
51
156.6157035
0
ARC
8
DEFAULT_255_2_778
10
12.0075581
20
5.2052836
40
7.8891525
50
101.5161275
51
115.2151732
0
ARC
8
DEFAULT_255_2_778
10
12.0317306
20
5.0780943
40
8.0186073
50
91.0554507
51
101.5039327
0
ARC
8
DEFAULT_255_2_778
10
12.0384414
20
4.9225922
40
8.1742076
50
89.9995879
51
91.0824038
0
ARC
8
DEFAULT_255_2_778
10
12.0424788
20
5.0497126
40
8.0470881
50
79.9473732
51
90.0283277
0
ARC
8
DEFAULT_255_2_778
10
12.0676461
20
5.1998782
40
7.8948351
50
66.6527691
51
79.9369886
0
ARC
8
DEFAULT_255_2_778
10
12.0489407
20
5.1694882
40
7.9301513
50
25.2414291
51
66.6157035
0
ARC
8
DEFAULT_255_2_778
10
12.0844841
20
5.1902419
40
7.8891525
50
11.5161275
51
25.2151732
0
ARC
8
DEFAULT_255_2_778
10
11.9572948
20
5.1660694
40
8.0186073
50
1.0554507
51
11.5039327
0
ARC
8
DEFAULT_255_2_778
10
11.8017926
20
5.1593586
40
8.1742076
50
359.9995879
51
1.0824038
0
ARC
8
DEFAULT_255_2_778
10
11.9289131
20
5.1553212
40
8.0470881
50
349.9473732
51
0.0283277
0
ARC
8
DEFAULT_255_2_778
10
12.0790786
20
5.1301539
40
7.8948351
50
336.6527691
51
349.9369886
0
ARC
8
DEFAULT_255_2_778
10
12.0486886
20
5.1488593
40
7.9301513
50
295.2414291
51
336.6157035
0
ARC
8
DEFAULT_255_2_778
10
12.0694423
20
5.1133159
40
7.8891525
50
281.5161275
51
295.2151732
0
ARC
8
DEFAULT_255_2_778
10
12.0452698
20
5.2405052
40
8.0186073
50
271.0554507
51
281.5039327
0
ARC
8
DEFAULT_255_2_778
10
12.038559
20
5.3960074
40
8.1742076
50
269.9995879
51
271.0824038
0
ARC
8
DEFAULT_255_2_778
10
12.0345216
20
5.2688869
40
8.0470881
50
259.9473732
51
270.0283277
0
ARC
8
DEFAULT_255_2_778
10
12.0093544
20
5.1187214
40
7.8948351
50
246.6527691
51
259.9369886
0
ARC
8
DEFAULT_255_2_778
10
12.0280597
20
5.1491114
40
7.9301513
50
205.2414291
51
246.6157035
0
ARC
8
DEFAULT_255_2_778
10
11.9925164
20
5.1283577
40
7.8891525
50
191.5161275
51
205.2151732
0
ARC
8
DEFAULT_255_2_778
10
12.1197057
20
5.1525302
40
8.0186073
50
181.0554507
51
191.5039327
0
ARC
8
DEFAULT_255_2_778
10
12.2752078
20
5.159241
40
8.1742076
50
179.9995879
51
181.0824038
0
LINE
8
DEFAULT_255_2_778
10
4.1010002
20
5.1592998
11
4.1010002
21
5.1592998
0
ARC
8
DEFAULT_255_2_778
10
12.1316348
20
5.1634301
40
7.3691774
50
169.2328725
51
180.0317893
0
ARC
8
DEFAULT_255_2_778
10
11.9976808
20
5.1871588
40
7.233149
50
154.9043707
51
169.2192951
0
ARC
8
DEFAULT_255_2_778
10
12.0283939
20
5.1690513
40
7.2686436
50
112.3313956
51
154.877792
0
ARC
8
DEFAULT_255_2_778
10
12.0134652
20
5.1910555
40
7.2426193
50
98.7590377
51
112.2882947
0
ARC
8
DEFAULT_255_2_778
10
12.0355786
20
5.0452648
40
7.3900772
50
89.9776717
51
98.7563599
0
ARC
8
DEFAULT_255_2_778
10
12.0425489
20
5.0658507
40
7.3694919
50
79.2331039
51
90.0318011
0
ARC
8
DEFAULT_255_2_778
10
12.0663044
20
5.1999412
40
7.2333243
50
64.9047297
51
79.2195384
0
ARC
8
DEFAULT_255_2_778
10
12.0482888
20
5.1693975
40
7.2686266
50
22.3315242
51
64.8782389
0
ARC
8
DEFAULT_255_2_778
10
12.070311
20
5.1843398
40
7.2425805
50
8.7590451
51
22.2883779
0
ARC
8
DEFAULT_255_2_778
10
11.9245159
20
5.1622227
40
7.3900433
50
359.9776615
51
8.7563902
0
ARC
8
DEFAULT_255_2_778
10
11.9450901
20
5.1552501
40
7.3694695
50
349.2330792
51
0.0318094
0
ARC
8
DEFAULT_255_2_778
10
12.0791906
20
5.1314919
40
7.2332918
50
334.9046404
51
349.2195186
0
ARC
8
DEFAULT_255_2_778
10
12.0486256
20
5.149529
40
7.2686223
50
292.3310749
51
334.8780679
0
ARC
8
DEFAULT_255_2_778
10
12.0634777
20
5.1276927
40
7.2427826
50
278.7588397
51
292.2880298
0
ARC
8
DEFAULT_255_2_778
10
12.0413409
20
5.2736089
40
7.3903681
50
269.9776538
51
278.7561969
0
ARC
8
DEFAULT_255_2_778
10
12.0343689
20
5.2523954
40
7.3691551
50
259.2328478
51
270.0317976
0
ARC
8
DEFAULT_255_2_778
10
12.0106376
20
5.1184314
40
7.2331164
50
244.9042814
51
259.2192753
0
ARC
8
DEFAULT_255_2_778
10
12.0287665
20
5.1491658
40
7.2686393
50
202.3309464
51
244.877621
0
ARC
8
DEFAULT_255_2_778
10
12.0069482
20
5.1343273
40
7.2428214
50
188.7588324
51
202.2879466
0
ARC
8
DEFAULT_255_2_778
10
12.1528601
20
5.1564604
40
7.390402
50
179.977664
51
188.7561666
0
LINE
8
DEFAULT_255_2_778
10
4.7624585
20
5.1593415
11
4.7624585
21
5.1593415
0
ARC
8
DEFAULT_255_2_778
10
12.0919224
20
5.163255
40
5.3450904
50
167.0932987
51
180.0427536
0
ARC
8
DEFAULT_255_2_778
10
12.0071011
20
5.1802489
40
5.2586169
50
148.3180854
51
167.0673517
0
ARC
8
DEFAULT_255_2_778
10
12.0299765
20
5.1672409
40
5.2849153
50
110.0832017
51
148.328327
0
ARC
8
DEFAULT_255_2_778
10
12.0244263
20
5.1673304
40
5.2829279
50
95.3310996
51
110.0270003
0
ARC
8
DEFAULT_255_2_778
10
12.0376635
20
5.0466221
40
5.4043445
50
89.9907771
51
95.3519304
0
ARC
8
DEFAULT_255_2_778
10
12.0425193
20
5.1061767
40
5.3447913
50
77.0929369
51
90.0427279
0
ARC
8
DEFAULT_255_2_778
10
12.0594745
20
5.1908391
40
5.2584813
50
58.3175703
51
77.0669583
0
ARC
8
DEFAULT_255_2_778
10
12.0463752
20
5.1678235
40
5.2849469
50
20.0830758
51
58.3277709
0
ARC
8
DEFAULT_255_2_778
10
12.0464634
20
5.1733698
40
5.2829621
50
5.3311072
51
20.02691
0
ARC
8
DEFAULT_255_2_778
10
11.925789
20
5.1601365
40
5.4043445
50
359.9907771
51
5.3519304
0
ARC
8
DEFAULT_255_2_778
10
11.9853283
20
5.1552815
40
5.3448067
50
347.0929653
51
0.0427185
0
ARC
8
DEFAULT_255_2_778
10
12.0699604
20
5.138333
40
5.2585278
50
328.3177859
51
347.0669902
0
ARC
8
DEFAULT_255_2_778
10
12.0469922
20
5.1513919
40
5.2849318
50
290.0836664
51
328.3280884
0
ARC
8
DEFAULT_255_2_778
10
12.0526234
20
5.1511043
40
5.2827306
50
275.3313078
51
290.0273754
0
ARC
8
DEFAULT_255_2_778
10
12.0394029
20
5.2716693
40
5.4040028
50
269.990782
51
275.3521003
0
ARC
8
DEFAULT_255_2_778
10
12.0345459
20
5.2127708
40
5.3451058
50
257.0933271
51
270.0427441
0
ARC
8
DEFAULT_255_2_778
10
12.0175586
20
5.1279799
40
5.2586634
50
238.318301
51
257.0673836
0
ARC
8
DEFAULT_255_2_778
10
12.0305263
20
5.1508079
40
5.2849002
50
200.0837923
51
238.3286446
0
ARC
8
DEFAULT_255_2_778
10
12.0302374
20
5.1451727
40
5.2826964
50
185.3313002
51
200.0274658
0
ARC
8
DEFAULT_255_2_778
10
12.1508363
20
5.1583971
40
5.4040028
50
179.990782
51
185.3521003
0
LINE
8
DEFAULT_255_2_778
10
6.7468335
20
5.1592665
11
6.7468335
21
5.1592665
0
ARC
8
DEFAULT_255_2_778
10
12.0793938
20
5.1632554
40
4.6711037
50
166.0253471
51
180.048416
0
ARC
8
DEFAULT_255_2_778
10
12.0131043
20
5.1768871
40
4.603485
50
144.5965613
51
165.990745
0
ARC
8
DEFAULT_255_2_778
10
12.0300019
20
5.1676213
40
4.6226267
50
109.4503514
51
144.6242856
0
ARC
8
DEFAULT_255_2_778
10
12.0277678
20
5.1598494
40
4.6292136
50
93.9322588
51
109.3922466
0
ARC
8
DEFAULT_255_2_778
10
12.0380584
20
5.0489017
40
4.7406064
50
89.9947622
51
93.9643829
0
ARC
8
DEFAULT_255_2_778
10
12.042439
20
5.1184062
40
4.6711037
50
76.0253471
51
90.048416
0
ARC
8
DEFAULT_255_2_778
10
12.0560707
20
5.1846957
40
4.603485
50
54.5965613
51
75.990745
0
ARC
8
DEFAULT_255_2_778
10
12.0468049
20
5.1677981
40
4.6226267
50
19.4503514
51
54.6242856
0
ARC
8
DEFAULT_255_2_778
10
12.0390329
20
5.1700322
40
4.6292136
50
3.9322588
51
19.3922466
0
ARC
8
DEFAULT_255_2_778
10
11.9280853
20
5.1597416
40
4.7406064
50
359.9947622
51
3.9643829
0
ARC
8
DEFAULT_255_2_778
10
11.9975898
20
5.155361
40
4.6711037
50
346.0253471
51
0.048416
0
ARC
8
DEFAULT_255_2_778
10
12.0638793
20
5.1417293
40
4.603485
50
324.5965613
51
345.990745
0
ARC
8
DEFAULT_255_2_778
10
12.0469817
20
5.1509951
40
4.6226267
50
289.4503514
51
324.6242856
0
ARC
8
DEFAULT_255_2_778
10
12.0492158
20
5.1587671
40
4.6292136
50
273.9322588
51
289.3922466
0
ARC
8
DEFAULT_255_2_778
10
12.0389252
20
5.2697147
40
4.7406064
50
269.9947622
51
273.9643829
0
ARC
8
DEFAULT_255_2_778
10
12.0345446
20
5.2002102
40
4.6711037
50
256.0253471
51
270.048416
0
ARC
8
DEFAULT_255_2_778
10
12.0209129
20
5.1339207
40
4.603485
50
234.5965613
51
255.990745
0
ARC
8
DEFAULT_255_2_778
10
12.0301787
20
5.1508183
40
4.6226267
50
199.4503514
51
234.6242856
0
ARC
8
DEFAULT_255_2_778
10
12.0379506
20
5.1485842
40
4.6292136
50
183.9322588
51
199.3922466
0
ARC
8
DEFAULT_255_2_778
10
12.1488983
20
5.1588748
40
4.7406064
50
179.9947622
51
183.9643829
0
LINE
8
DEFAULT_255_2_778
10
7.4082918
20
5.1593082
11
7.4082918
21
5.1593082
0
ARC
8
DEFAULT_255_2_778
10
10.0509332
20
5.1623135
40
1.3202532
50
148.7968675
51
180.1300552
0
ARC
8
DEFAULT_255_2_778
10
10.0500736
20
5.1627468
40
1.3192936
50
97.5665172
51
148.7936255
0
ARC
8
DEFAULT_255_2_778
10
10.053179
20
5.1360258
40
1.3461909
50
89.9827905
51
97.547783
0
ARC
8
DEFAULT_255_2_778
10
10.0565802
20
5.1619668
40
1.3202532
50
58.7968675
51
90.1300552
0
ARC
8
DEFAULT_255_2_778
10
10.0570136
20
5.1628264
40
1.3192936
50
7.5665172
51
58.7936255
0
ARC
8
DEFAULT_255_2_778
10
10.0302926
20
5.159721
40
1.3461909
50
359.9827905
51
7.547783
0
ARC
8
DEFAULT_255_2_778
10
10.0562335
20
5.1563198
40
1.3202532
50
328.7968675
51
0.1300552
0
ARC
8
DEFAULT_255_2_778
10
10.0570931
20
5.1558864
40
1.3192936
50
277.5665172
51
328.7936255
0
ARC
8
DEFAULT_255_2_778
10
10.0539877
20
5.1826074
40
1.3461909
50
269.9827905
51
277.547783
0
ARC
8
DEFAULT_255_2_778
10
10.0505865
20
5.1566665
40
1.3202532
50
238.7968675
51
270.1300552
0
ARC
8
DEFAULT_255_2_778
10
10.0501532
20
5.1558069
40
1.3192936
50
187.5665172
51
238.7936255
0
ARC
8
DEFAULT_255_2_778
10
10.0768742
20
5.1589123
40
1.3461909
50
179.9827905
51
187.547783
0
LINE
8
DEFAULT_255_2_778
10
8.7306834
20
5.1593166
11
8.7306834
21
5.1593166
0
LINE
8
DEFAULT_255_2_778
10
2.7781
20
6.4822166
11
2.7781
21
3.8364166
0
LINE
8
DEFAULT_255_2_778
10
21.299
20
6.4822166
11
21.299
21
3.8364166
0
LINE
8
DEFAULT_255_2_778
10
6.7471834
20
15.7427
11
9.3929834
21
15.7427
0
LINE
8
DEFAULT_255_2_778_7
10
8.0695125
20
13.0968499
11
10.0539125
21
5.1593499
0
ARC
8
DEFAULT_255_2_778
10
14.0200332
20
5.1623135
40
1.3202532
50
148.7968675
51
180.1300552
0
ARC
8
DEFAULT_255_2_778
10
14.0191736
20
5.1627468
40
1.3192936
50
97.5665172
51
148.7936255
0
ARC
8
DEFAULT_255_2_778
10
14.022279
20
5.1360258
40
1.3461909
50
89.9827905
51
97.547783
0
ARC
8
DEFAULT_255_2_778
10
14.0256802
20
5.1619668
40
1.3202532
50
58.7968675
51
90.1300552
0
ARC
8
DEFAULT_255_2_778
10
14.0261136
20
5.1628264
40
1.3192936
50
7.5665172
51
58.7936255
0
ARC
8
DEFAULT_255_2_778
10
13.9993926
20
5.159721
40
1.3461909
50
359.9827905
51
7.547783
0
ARC
8
DEFAULT_255_2_778
10
14.0253335
20
5.1563198
40
1.3202532
50
328.7968675
51
0.1300552
0
ARC
8
DEFAULT_255_2_778
10
14.0261931
20
5.1558864
40
1.3192936
50
277.5665172
51
328.7936255
0
ARC
8
DEFAULT_255_2_778
10
14.0230877
20
5.1826074
40
1.3461909
50
269.9827905
51
277.547783
0
ARC
8
DEFAULT_255_2_778
10
14.0196865
20
5.1566665
40
1.3202532
50
238.7968675
51
270.1300552
0
ARC
8
DEFAULT_255_2_778
10
14.0192532
20
5.1558069
40
1.3192936
50
187.5665172
51
238.7936255
0
ARC
8
DEFAULT_255_2_778
10
14.0459742
20
5.1589123
40
1.3461909
50
179.9827905
51
187.547783
0
LINE
8
DEFAULT_255_2_778
10
12.6997834
20
5.1593166
11
12.6997834
21
5.1593166
0
LINE
8
DEFAULT_255_2_778
10
14.6851834
20
15.7427
11
17.3309834
21
15.7427
0
LINE
8
DEFAULT_255_2_778_7
10
16.0065125
20
13.0968499
11
14.0221125
21
5.1593499
0
LINE
8
DEFAULT_255_2_778
10
8.0695
20
13.0969166
11
8.0695
21
15.7427166
0
LINE
8
DEFAULT_255_2_778
10
16.0076
20
13.0969166
11
16.0076
21
15.7427166
0
LINE
8
DEFAULT_255_2_778
10
8.3343417
20
5.8208041
11
9.6572417
21
5.8208041
0
LINE
8
DEFAULT_255_2_778
10
9.6572417
20
5.8208041
11
9.6572417
21
4.3656041
0
LINE
8
DEFAULT_255_2_778
10
9.6572417
20
4.3656041
11
8.3343417
21
4.3656041
0
LINE
8
DEFAULT_255_2_778
10
8.3343417
20
4.3656041
11
8.3343417
21
5.8208041
0
LINE
8
DEFAULT_255_2_778
10
10.0540793
20
5.1593
11
2.7780793
21
5.1593
0
LINE
8
DEFAULT_255_2_778
10
14.4203417
20
5.8869041
11
15.7432417
21
5.8869041
0
LINE
8
DEFAULT_255_2_778
10
15.7432417
20
5.8869041
11
15.7432417
21
4.4317041
0
LINE
8
DEFAULT_255_2_778
10
15.7432417
20
4.4317041
11
14.4203417
21
4.4317041
0
LINE
8
DEFAULT_255_2_778
10
14.4203417
20
4.4317041
11
14.4203417
21
5.8869041
0
LINE
8
DEFAULT_255_2_778
10
14.0220793
20
5.1593
11
21.2980793
21
5.1593
0
ENDSEC
0
EOF