0
SECTION
2
HEADER
9
$MEASUREMENT
70
1
0
ENDSEC
0
SECTION
2
TABLES
0
TABLE
2
LTYPE
0
LTYPE
72
65
70
64
2
CONTINUOUS
3
______
73
0
40
0
0
ENDTAB
0
TABLE
2
LAYER
0
LAYER
2
DEFAULT_255_2_778
70
0
62
255
6
CONTINUOUS
0
ENDTAB
0
ENDSEC
0
SECTION
2
ENTITIES
0
ARC
8
DEFAULT_255_2_778
10
16.2340652
20
15.7469643
40
13.4559322
50
172.1833432
51
180.0183011
0
ARC
8
DEFAULT_255_2_778
10
15.985534
20
15.7799407
40
13.2052255
50
163.0211544
51
172.1784353
0
ARC
8
DEFAULT_255_2_778
10
15.9251593
20
15.7965405
40
13.1426351
50
150.9878277
51
163.0135068
0
ARC
8
DEFAULT_255_2_778
10
15.9937733
20
15.7557354
40
13.2224296
50
116.2366669
51
150.9773963
0
ARC
8
DEFAULT_255_2_778
10
15.9529415
20
15.8264802
40
13.1409233
50
104.8559844
51
116.2133389
0
ARC
8
DEFAULT_255_2_778
10
15.9775787
20
15.7274826
40
13.2429287
50
96.0445891
51
104.8491989
0
ARC
8
DEFAULT_255_2_778
10
16.0046209
20
15.477048
40
13.4948185
50
89.9884819
51
96.0467989
0
ARC
8
DEFAULT_255_2_778
10
16.0116308
20
15.5162638
40
13.4556031
50
82.1832475
51
90.0182976
0
ARC
8
DEFAULT_255_2_778
10
16.0445953
20
15.7647051
40
13.2049872
50
73.0209885
51
82.1783395
0
ARC
8
DEFAULT_255_2_778
10
16.0611659
20
15.8249835
40
13.1424973
50
60.9876259
51
73.0133407
0
ARC
8
DEFAULT_255_2_778
10
16.0202787
20
15.7562344
40
13.2224499
50
26.2365859
51
60.9771687
0
ARC
8
DEFAULT_255_2_778
10
16.0910156
20
15.7970561
40
13.1409553
50
14.8559585
51
26.2132822
0
ARC
8
DEFAULT_255_2_778
10
15.9920173
20
15.7724191
40
13.2429613
50
6.0445835
51
14.8491713
0
ARC
8
DEFAULT_255_2_778
10
15.7416155
20
15.7453791
40
13.4948185
50
359.9884819
51
6.0467989
0
ARC
8
DEFAULT_255_2_778
10
15.7807884
20
15.7383707
40
13.455646
50
352.1832661
51
0.0182913
0
ARC
8
DEFAULT_255_2_778
10
16.0292135
20
15.7054153
40
13.2050471
50
343.0210203
51
352.1783289
0
ARC
8
DEFAULT_255_2_778
10
16.0895102
20
15.6888399
40
13.1425385
50
330.9876969
51
343.0133694
0
ARC
8
DEFAULT_255_2_778
10
16.0207876
20
15.7297041
40
13.2224568
50
296.2368147
51
330.9772705
0
ARC
8
DEFAULT_255_2_778
10
16.0616852
20
15.6588322
40
13.1408075
50
284.856117
51
296.2134757
0
ARC
8
DEFAULT_255_2_778
10
16.0370761
20
15.7577314
40
13.2427105
50
276.0446636
51
284.8493218
0
ARC
8
DEFAULT_255_2_778
10
16.010046
20
16.0080441
40
13.4944781
50
269.9884839
51
276.0468756
0
ARC
8
DEFAULT_255_2_778
10
16.0030372
20
15.9695406
40
13.455975
50
262.1833619
51
270.0182948
0
ARC
8
DEFAULT_255_2_778
10
15.9700699
20
15.7210256
40
13.2052855
50
253.0211861
51
262.1784247
0
ARC
8
DEFAULT_255_2_778
10
15.9534652
20
15.6606327
40
13.1426763
50
240.9878987
51
253.0135355
0
ARC
8
DEFAULT_255_2_778
10
15.9942474
20
15.7292201
40
13.2224365
50
206.2368957
51
240.9774982
0
ARC
8
DEFAULT_255_2_778
10
15.9233676
20
15.6883124
40
13.1407755
50
194.856143
51
206.2135324
0
ARC
8
DEFAULT_255_2_778
10
16.0222661
20
15.7129217
40
13.242678
50
186.0446692
51
194.8493494
0
ARC
8
DEFAULT_255_2_778
10
16.2726116
20
15.739954
40
13.4944781
50
179.9884839
51
186.0468756
0
LINE
8
DEFAULT_255_2_778
10
2.7781337
20
15.7426663
11
2.7781337
21
15.7426663
0
LINE
8
DEFAULT_255_2_778
10
2.7781
20
-2.7780836
11
2.7781
21
15.7427164
0
LINE
8
DEFAULT_255_2_778
10
29.2365
20
-2.7780836
11
29.2365
21
15.7427164
0
ENDSEC
0
EOF