0
SECTION
2
HEADER
9
$MEASUREMENT
70
1
0
ENDSEC
0
SECTION
2
TABLES
0
TABLE
2
LTYPE
0
LTYPE
72
65
70
64
2
CONTINUOUS
3
______
73
0
40
0
0
ENDTAB
0
TABLE
2
LAYER
0
LAYER
2
DEFAULT_255_2_778
70
0
62
255
6
CONTINUOUS
0
LAYER
2
DEFAULT_255_2_778_2
70
0
62
255
6
CONTINUOUS
0
ENDTAB
0
ENDSEC
0
SECTION
2
ENTITIES
0
LINE
8
DEFAULT_255_2_778
10
4.1008169
20
5.1339499
11
4.1008169
21
-2.7781501
0
LINE
8
DEFAULT_255_2_778
10
4.1008169
20
-2.7781501
11
17.3300169
21
-2.7781501
0
LINE
8
DEFAULT_255_2_778
10
17.3300169
20
-2.7781501
11
17.3300169
21
5.1339499
0
ARC
8
DEFAULT_255_2_778
10
14.7318263
20
5.1789602
40
2.5982644
50
328.9245517
51
359.5681114
0
ARC
8
DEFAULT_255_2_778
10
13.9528932
20
5.6127699
40
3.4894627
50
317.3184587
51
329.4254577
0
ARC
8
DEFAULT_255_2_778
10
13.2194498
20
6.2825625
40
4.4827117
50
308.0819528
51
317.3802115
0
ARC
8
DEFAULT_255_2_778
10
12.5098233
20
7.1812373
40
5.6277758
50
300.5370479
51
308.125486
0
ARC
8
DEFAULT_255_2_778
10
11.8804163
20
8.242923
40
6.8620058
50
293.8265052
51
300.5593515
0
ARC
8
DEFAULT_255_2_778
10
11.3723612
20
9.3868837
40
8.1137086
50
287.6956786
51
293.8450833
0
ARC
8
DEFAULT_255_2_778
10
11.0157268
20
10.49684
40
9.2795498
50
281.9069526
51
287.7103516
0
ARC
8
DEFAULT_255_2_778
10
10.8059522
20
11.4842546
40
10.2890006
50
276.0459898
51
281.9154996
0
ARC
8
DEFAULT_255_2_778
10
10.7209886
20
12.2701177
40
11.0794417
50
269.9954824
51
276.0548775
0
ARC
8
DEFAULT_255_2_778
10
10.7165913
20
8.0884405
40
6.8977655
50
269.9902442
51
270.0292691
0
ARC
8
DEFAULT_255_2_778
10
10.7099644
20
12.2722381
40
11.0815645
50
263.9609629
51
270.028191
0
ARC
8
DEFAULT_255_2_778
10
10.6286235
20
11.5107753
40
10.31577
50
258.4073849
51
263.96529
0
ARC
8
DEFAULT_255_2_778
10
10.4274367
20
10.5429294
40
9.3272385
50
252.4725648
51
258.4233106
0
ARC
8
DEFAULT_255_2_778
10
10.0677469
20
9.4108503
40
8.1393938
50
246.233167
51
252.4870008
0
ARC
8
DEFAULT_255_2_778
10
9.5560298
20
8.253746
40
6.8741902
50
239.4954192
51
246.2497439
0
ARC
8
DEFAULT_255_2_778
10
8.9181765
20
7.1765203
40
5.6222867
50
231.7458463
51
239.5235413
0
ARC
8
DEFAULT_255_2_778
10
8.1998654
20
6.2701374
40
4.4657875
50
222.4626916
51
231.7828206
0
ARC
8
DEFAULT_255_2_778
10
7.4613368
20
5.6001472
40
3.4686481
50
210.1425598
51
222.5341294
0
ARC
8
DEFAULT_255_2_778
10
6.6930026
20
5.1778867
40
2.5922518
50
180.4091637
51
210.599199
0
ARC
8
DEFAULT_255_2_778
10
6.3808657
20
43.7663873
40
2.2801213
50
149.3043187
51
179.5431511
0
ARC
8
DEFAULT_255_2_778
10
7.1199827
20
43.3593038
40
3.1236074
50
137.5329264
51
149.8042732
0
ARC
8
DEFAULT_255_2_778
10
7.8527658
20
42.69553
40
4.1123172
50
128.3605746
51
137.6040874
0
ARC
8
DEFAULT_255_2_778
10
8.5770285
20
41.788573
40
5.2729668
50
121.1474895
51
128.4153862
0
ARC
8
DEFAULT_255_2_778
10
9.2504592
20
40.6777994
40
6.5719375
50
114.6001468
51
121.1632542
0
ARC
8
DEFAULT_255_2_778
10
9.832737
20
39.4127365
40
7.9645698
50
108.7109355
51
114.6203116
0
ARC
8
DEFAULT_255_2_778
10
10.2721458
20
38.1226086
40
9.3274731
50
103.1579185
51
108.7251904
0
ARC
8
DEFAULT_255_2_778
10
10.5463736
20
36.96371
40
10.5183708
50
98.0842239
51
103.1754673
0
ARC
8
DEFAULT_255_2_778
10
10.6836716
20
36.0029462
40
11.4888949
50
92.608862
51
98.0883265
0
ARC
8
DEFAULT_255_2_778
10
10.7143313
20
35.4526505
40
12.0400172
50
89.9948342
51
92.6354154
0
ARC
8
DEFAULT_255_2_778
10
10.7208285
20
35.634422
40
11.8582469
50
84.4443436
51
90.0261477
0
ARC
8
DEFAULT_255_2_778
10
10.8044835
20
36.4823839
40
11.0061694
50
79.2350308
51
84.4504272
0
ARC
8
DEFAULT_255_2_778
10
11.0132175
20
37.5682786
40
9.9003976
50
73.8192471
51
79.2479735
0
ARC
8
DEFAULT_255_2_778
10
11.3784555
20
38.8200358
40
8.5964456
50
68.1469522
51
73.8322083
0
ARC
8
DEFAULT_255_2_778
10
11.8942201
20
40.1006533
40
7.21587
50
62.0073496
51
68.1630054
0
ARC
8
DEFAULT_255_2_778
10
12.5314267
20
41.2944807
40
5.8626332
50
55.0648522
51
62.0300781
0
ARC
8
DEFAULT_255_2_778
10
13.2474786
20
42.3145066
40
4.6163696
50
46.7643604
51
55.100884
0
ARC
8
DEFAULT_255_2_778
10
13.985913
20
43.0950436
40
3.5418886
50
36.2533449
51
46.8179512
0
ARC
8
DEFAULT_255_2_778
10
14.6935535
20
43.606412
40
2.668846
50
20.4499061
51
36.3842019
0
ARC
8
DEFAULT_255_2_778
10
15.145558
20
43.7806364
40
2.1844624
50
0.1031119
51
20.3103867
0
LINE
8
DEFAULT_255_2_778
10
4.1008169
20
43.7844984
11
17.3300169
21
43.7844984
0
LINE
8
DEFAULT_255_2_778
10
17.3300169
20
43.7844984
11
17.3300169
21
5.1592984
0
LINE
8
DEFAULT_255_2_778
10
17.3300169
20
5.1592984
11
4.1008169
21
5.1592984
0
LINE
8
DEFAULT_255_2_778
10
4.1008169
20
5.1592984
11
4.1008169
21
43.7844984
0
LINE
8
DEFAULT_255_2_778_2
10
4.1008169
20
42.2010333
11
17.3300169
21
42.2010333
0
LINE
8
DEFAULT_255_2_778_2
10
17.3300169
20
42.2010333
11
17.3300169
21
36.9093333
0
LINE
8
DEFAULT_255_2_778_2
10
17.3300169
20
36.9093333
11
4.1008169
21
36.9093333
0
LINE
8
DEFAULT_255_2_778_2
10
4.1008169
20
36.9093333
11
4.1008169
21
42.2010333
0
LINE
8
DEFAULT_255_2_778_2
10
4.1008169
20
39.5552333
11
5.7544169
21
36.9093333
0
LINE
8
DEFAULT_255_2_778_2
10
5.7544169
20
36.9093333
11
9.0617169
21
42.2010333
0
LINE
8
DEFAULT_255_2_778_2
10
9.0617169
20
42.2010333
11
12.3690169
21
36.9093333
0
LINE
8
DEFAULT_255_2_778_2
10
12.3690169
20
36.9093333
11
15.6763169
21
42.2010333
0
LINE
8
DEFAULT_255_2_778_2
10
15.6763169
20
42.2010333
11
17.3300169
21
39.5552333
0
LINE
8
DEFAULT_255_2_778
10
4.1007417
20
32.9406
11
2.7778417
21
32.9406
0
LINE
8
DEFAULT_255_2_778
10
2.7779
20
33.7126271
11
2.7779
21
32.2293271
0
LINE
8
DEFAULT_255_2_778_2
10
4.1002335
20
32.9406
11
14.6835335
21
32.9406
0
LINE
8
DEFAULT_255_2_778_2
10
14.6836417
20
32.952502
11
14.0221417
21
30.294502
0
LINE
8
DEFAULT_255_2_778_2
10
14.0221417
20
30.294502
11
15.3450417
21
30.294502
0
LINE
8
DEFAULT_255_2_778_2
10
15.3450417
20
30.294502
11
14.6836417
21
32.952502
0
LINE
8
DEFAULT_255_2_778_2
10
12.6992417
20
32.952502
11
12.0377417
21
30.294502
0
LINE
8
DEFAULT_255_2_778_2
10
12.0377417
20
30.294502
11
13.3606417
21
30.294502
0
LINE
8
DEFAULT_255_2_778_2
10
13.3606417
20
30.294502
11
12.6992417
21
32.952502
0
LINE
8
DEFAULT_255_2_778_2
10
10.7154417
20
32.952502
11
10.0539417
21
30.294502
0
LINE
8
DEFAULT_255_2_778_2
10
10.0539417
20
30.294502
11
11.3768417
21
30.294502
0
LINE
8
DEFAULT_255_2_778_2
10
11.3768417
20
30.294502
11
10.7154417
21
32.952502
0
LINE
8
DEFAULT_255_2_778_2
10
8.7305417
20
32.952502
11
8.0690417
21
30.294502
0
LINE
8
DEFAULT_255_2_778_2
10
8.0690417
20
30.294502
11
9.3919417
21
30.294502
0
LINE
8
DEFAULT_255_2_778_2
10
9.3919417
20
30.294502
11
8.7305417
21
32.952502
0
LINE
8
DEFAULT_255_2_778_2
10
6.7461417
20
32.952502
11
6.0846417
21
30.294502
0
LINE
8
DEFAULT_255_2_778_2
10
6.0846417
20
30.294502
11
7.4075417
21
30.294502
0
LINE
8
DEFAULT_255_2_778_2
10
7.4075417
20
30.294502
11
6.7461417
21
32.952502
0
LINE
8
DEFAULT_255_2_778_2
10
4.1008169
20
26.326
11
17.3300169
21
26.326
0
LINE
8
DEFAULT_255_2_778_2
10
4.1008169
20
18.3885499
11
17.3300169
21
18.3885499
0
LINE
8
DEFAULT_255_2_778_2
10
17.3300169
20
18.3885499
11
4.1008169
21
26.3260499
0
LINE
8
DEFAULT_255_2_778_2
10
17.3300169
20
26.3260499
11
4.1008169
21
18.3885499
0
LINE
8
DEFAULT_255_2_778
10
18.6529
20
8.1861812
11
18.6529
21
12.6359812
0
LINE
8
DEFAULT_255_2_778
10
18.6533417
20
9.1281166
11
18.6533417
21
11.7739166
0
LINE
8
DEFAULT_255_2_778
10
18.6533417
20
11.7739166
11
17.3304417
21
11.7739166
0
LINE
8
DEFAULT_255_2_778
10
17.3304417
20
11.7739166
11
17.3304417
21
11.7739166
0
LINE
8
DEFAULT_255_2_778
10
17.3304417
20
11.7739166
11
17.3304417
21
9.1281166
0
LINE
8
DEFAULT_255_2_778
10
17.3304417
20
9.1281166
11
18.6533417
21
9.1281166
0
LINE
8
DEFAULT_255_2_778
10
10.7153501
20
1.1905583
11
10.7153501
21
-0.1323417
0
LINE
8
DEFAULT_255_2_778
10
10.7153501
20
-0.1323417
11
18.6528501
21
-0.1323417
0
LINE
8
DEFAULT_255_2_778
10
18.6529
20
0.6373271
11
18.6529
21
-0.8459729
0
LINE
8
DEFAULT_255_2_778_2
10
9.3924834
20
1.3229708
11
9.3924834
21
3.8364708
0
LINE
8
DEFAULT_255_2_778_2
10
9.3924834
20
3.8364708
11
12.0382834
21
3.8364708
0
LINE
8
DEFAULT_255_2_778_2
10
12.0382834
20
3.8364708
11
12.0382834
21
1.3229708
0
LINE
8
DEFAULT_255_2_778_2
10
9.5247292
20
3.8364708
11
12.0382292
21
1.3229708
0
LINE
8
DEFAULT_255_2_778_2
10
12.0382834
20
3.8364708
11
9.3924834
21
1.3229708
0
LINE
8
DEFAULT_255_2_778_2
10
4.1008169
20
39.5552333
11
5.7544169
21
42.2010333
0
LINE
8
DEFAULT_255_2_778_2
10
5.7544169
20
42.2010333
11
9.0617169
21
36.9093333
0
LINE
8
DEFAULT_255_2_778_2
10
9.0617169
20
36.9093333
11
12.3690169
21
42.2010333
0
LINE
8
DEFAULT_255_2_778_2
10
12.3690169
20
42.2010333
11
15.6763169
21
36.9093333
0
LINE
8
DEFAULT_255_2_778_2
10
15.6763169
20
36.9093333
11
17.3300169
21
39.5552333
0
LINE
8
DEFAULT_255_2_778_2
10
4.1668898
20
42.2010333
11
7.4741898
21
36.9093333
0
LINE
8
DEFAULT_255_2_778_2
10
7.4741898
20
36.9093333
11
10.7814898
21
42.2010333
0
LINE
8
DEFAULT_255_2_778_2
10
10.7814898
20
42.2010333
11
14.0887898
21
36.9093333
0
LINE
8
DEFAULT_255_2_778_2
10
14.0887898
20
36.9093333
11
17.3298898
21
41.6718333
0
LINE
8
DEFAULT_255_2_778_2
10
4.1668898
20
36.9093333
11
7.4741898
21
42.2010333
0
LINE
8
DEFAULT_255_2_778_2
10
7.4741898
20
42.2010333
11
10.7814898
21
36.9093333
0
LINE
8
DEFAULT_255_2_778_2
10
10.7814898
20
36.9093333
11
14.0887898
21
42.2010333
0
LINE
8
DEFAULT_255_2_778_2
10
14.0887898
20
42.2010333
11
17.3298898
21
36.9093333
0
ENDSEC
0
EOF