0
SECTION
2
HEADER
9
$MEASUREMENT
70
1
0
ENDSEC
0
SECTION
2
TABLES
0
TABLE
2
LTYPE
0
LTYPE
72
65
70
64
2
CONTINUOUS
3
______
73
0
40
0
0
ENDTAB
0
TABLE
2
LAYER
0
LAYER
2
DEFAULT_255_2_778
70
0
62
255
6
CONTINUOUS
0
ENDTAB
0
ENDSEC
0
SECTION
2
ENTITIES
0
ARC
8
DEFAULT_255_2_778
10
5.2475109
20
38.6066913
40
2.4693975
50
168.6957158
51
180.0967095
0
ARC
8
DEFAULT_255_2_778
10
5.2833561
20
38.5803627
40
2.5097787
50
140.7778321
51
168.2667208
0
ARC
8
DEFAULT_255_2_778
10
5.9057295
20
38.1076646
40
3.2909458
50
131.8405035
51
141.2539289
0
ARC
8
DEFAULT_255_2_778
10
6.4451756
20
37.5095561
40
4.096383
50
124.7360289
51
131.8812902
0
ARC
8
DEFAULT_255_2_778
10
6.9974848
20
36.7163955
40
5.0628954
50
118.8743284
51
124.7579815
0
ARC
8
DEFAULT_255_2_778
10
7.5487334
20
35.7193722
40
6.2021621
50
113.7522047
51
118.8860168
0
ARC
8
DEFAULT_255_2_778
10
8.0647014
20
34.5520151
40
7.4784622
50
109.3838066
51
113.7680877
0
ARC
8
DEFAULT_255_2_778
10
8.5302134
20
33.2295325
40
8.8804828
50
105.1607996
51
109.3851
0
ARC
8
DEFAULT_255_2_778
10
8.9293703
20
31.7583664
40
10.4048369
50
101.0251354
51
105.1636194
0
ARC
8
DEFAULT_255_2_778
10
9.2234398
20
30.2498314
40
11.9417673
50
96.6565352
51
101.0258563
0
ARC
8
DEFAULT_255_2_778
10
9.380255
20
28.8974576
40
13.3032024
50
90.7896193
51
96.6522052
0
ARC
8
DEFAULT_255_2_778
10
9.3927014
20
28.5267682
40
13.67403
50
89.9999355
51
90.8203612
0
ARC
8
DEFAULT_255_2_778
10
9.3996857
20
28.8156921
40
13.3851079
50
83.5963243
51
90.0298306
0
ARC
8
DEFAULT_255_2_778
10
9.5468943
20
30.1493253
40
12.0433773
50
79.3362082
51
83.5846516
0
ARC
8
DEFAULT_255_2_778
10
9.8261434
20
31.628251
40
10.538319
50
75.1861849
51
79.3403279
0
ARC
8
DEFAULT_255_2_778
10
10.2184551
20
33.1101485
40
9.0053714
50
70.9746961
51
75.1886161
0
ARC
8
DEFAULT_255_2_778
10
10.6751513
20
34.4351428
40
7.6038789
50
66.7045935
51
70.9733384
0
ARC
8
DEFAULT_255_2_778
10
11.179025
20
35.6010836
40
6.3337201
50
61.7281309
51
66.7199734
0
ARC
8
DEFAULT_255_2_778
10
11.7219812
20
36.6084229
40
5.189372
50
56.0237605
51
61.7397765
0
ARC
8
DEFAULT_255_2_778
10
12.2756577
20
37.4266593
40
4.2014122
50
48.9989498
51
56.0493491
0
ARC
8
DEFAULT_255_2_778
10
12.8219265
20
38.0518137
40
3.3712183
50
39.9198857
51
49.0349944
0
ARC
8
DEFAULT_255_2_778
10
13.3482637
20
38.4850943
40
2.6895104
50
24.8989742
51
40.0361538
0
ARC
8
DEFAULT_255_2_778
10
13.6188869
20
38.6192945
40
2.3875531
50
6.473381
51
24.7120595
0
ARC
8
DEFAULT_255_2_778
10
13.4887756
20
38.6041534
40
2.5185418
50
359.9629131
51
6.4819251
0
ARC
8
DEFAULT_255_2_778
10
13.5379228
20
0.8158551
40
2.4693975
50
348.6957158
51
0.0967095
0
ARC
8
DEFAULT_255_2_778
10
13.5020776
20
0.8421837
40
2.5097787
50
320.7778321
51
348.2667208
0
ARC
8
DEFAULT_255_2_778
10
12.8797042
20
1.3148818
40
3.2909458
50
311.8405035
51
321.2539289
0
ARC
8
DEFAULT_255_2_778
10
12.3402581
20
1.9129903
40
4.096383
50
304.7360289
51
311.8812902
0
ARC
8
DEFAULT_255_2_778
10
11.7879489
20
2.7061509
40
5.0628954
50
298.8743284
51
304.7579815
0
ARC
8
DEFAULT_255_2_778
10
11.2367003
20
3.7031741
40
6.2021621
50
293.7522047
51
298.8860168
0
ARC
8
DEFAULT_255_2_778
10
10.7207323
20
4.8705312
40
7.4784622
50
289.3838066
51
293.7680877
0
ARC
8
DEFAULT_255_2_778
10
10.2552203
20
6.1930139
40
8.8804828
50
285.1607996
51
289.3851
0
ARC
8
DEFAULT_255_2_778
10
9.8560634
20
7.6641799
40
10.4048369
50
281.0251354
51
285.1636194
0
ARC
8
DEFAULT_255_2_778
10
9.5619939
20
9.1727149
40
11.9417673
50
276.6565352
51
281.0258563
0
ARC
8
DEFAULT_255_2_778
10
9.4051787
20
10.5250888
40
13.3032024
50
270.7896193
51
276.6522052
0
ARC
8
DEFAULT_255_2_778
10
9.3927323
20
10.8957781
40
13.67403
50
269.9999355
51
270.8203612
0
ARC
8
DEFAULT_255_2_778
10
9.385748
20
10.6068542
40
13.3851079
50
263.5963243
51
270.0298306
0
ARC
8
DEFAULT_255_2_778
10
9.2385394
20
9.2732211
40
12.0433773
50
259.3362082
51
263.5846516
0
ARC
8
DEFAULT_255_2_778
10
8.9592903
20
7.7942954
40
10.538319
50
255.1861849
51
259.3403279
0
ARC
8
DEFAULT_255_2_778
10
8.5669786
20
6.3123979
40
9.0053714
50
250.9746961
51
255.1886161
0
ARC
8
DEFAULT_255_2_778
10
8.1102824
20
4.9874035
40
7.6038789
50
246.7045935
51
250.9733384
0
ARC
8
DEFAULT_255_2_778
10
7.6064087
20
3.8214627
40
6.3337201
50
241.7281309
51
246.7199734
0
ARC
8
DEFAULT_255_2_778
10
7.0634525
20
2.8141235
40
5.189372
50
236.0237605
51
241.7397765
0
ARC
8
DEFAULT_255_2_778
10
6.509776
20
1.9958871
40
4.2014122
50
228.9989498
51
236.0493491
0
ARC
8
DEFAULT_255_2_778
10
5.9635072
20
1.3707326
40
3.3712183
50
219.9198857
51
229.0349944
0
ARC
8
DEFAULT_255_2_778
10
5.43717
20
0.9374521
40
2.6895104
50
204.8989742
51
220.0361538
0
ARC
8
DEFAULT_255_2_778
10
5.1665468
20
0.8032519
40
2.3875531
50
186.473381
51
204.7120595
0
ARC
8
DEFAULT_255_2_778
10
5.2966581
20
0.818393
40
2.5185418
50
179.9629131
51
186.4819251
0
LINE
8
DEFAULT_255_2_778
10
2.7781169
20
0.8200232
11
2.7781169
21
38.6025232
0
LINE
8
DEFAULT_255_2_778
10
16.0073169
20
38.6025232
11
16.0073169
21
0.8200232
0
LINE
8
DEFAULT_255_2_778
10
2.7781169
20
0.8200232
11
2.7781169
21
0.8200232
0
ENDSEC
0
EOF