0
SECTION
2
HEADER
9
$MEASUREMENT
70
1
0
ENDSEC
0
SECTION
2
TABLES
0
TABLE
2
LTYPE
0
LTYPE
72
65
70
64
2
CONTINUOUS
3
______
73
0
40
0
0
ENDTAB
0
TABLE
2
LAYER
0
LAYER
2
DEFAULT_255_2_778
70
0
62
255
6
CONTINUOUS
0
ENDTAB
0
ENDSEC
0
SECTION
2
ENTITIES
0
LINE
8
DEFAULT_255_2_778
10
2.7781169
20
-2.1167
11
16.0073169
21
-2.1167
0
LINE
8
DEFAULT_255_2_778
10
12.0385667
20
-3.4395834
11
12.0385667
21
-0.7937834
0
LINE
8
DEFAULT_255_2_778
10
12.0385667
20
-0.7937834
11
6.7468667
21
-3.4395834
0
LINE
8
DEFAULT_255_2_778
10
6.7468667
20
-3.4395834
11
6.7468667
21
-0.7937834
0
LINE
8
DEFAULT_255_2_778
10
6.7468667
20
-0.7937834
11
12.0385667
21
-3.4395834
0
LINE
8
DEFAULT_255_2_778
10
9.3927
20
-2.1167084
11
9.3927
21
4.4978916
0
ARC
8
DEFAULT_255_2_778
10
9.4028952
20
5.8244268
40
2.6560309
50
160.7095027
51
180.0775207
0
ARC
8
DEFAULT_255_2_778
10
9.3868206
20
5.8263241
40
2.6402344
50
102.0301591
51
160.6331218
0
ARC
8
DEFAULT_255_2_778
10
9.3909006
20
5.7909408
40
2.6756931
50
89.9621802
51
101.9576865
0
ARC
8
DEFAULT_255_2_778
10
9.3963411
20
5.8112235
40
2.6554123
50
70.3567975
51
90.0792807
0
ARC
8
DEFAULT_255_2_778
10
9.3981767
20
5.8265929
40
2.6403224
50
11.9023555
51
70.2821965
0
ARC
8
DEFAULT_255_2_778
10
9.3626547
20
5.8225699
40
2.6759126
50
359.9628159
51
11.829777
0
ARC
8
DEFAULT_255_2_778
10
9.3833283
20
5.8171623
40
2.655241
50
340.3554002
51
0.0792127
0
ARC
8
DEFAULT_255_2_778
10
9.3984203
20
5.8154583
40
2.6404568
50
281.9019784
51
340.2801285
0
ARC
8
DEFAULT_255_2_778
10
9.3944012
20
5.8509109
40
2.6759781
50
269.962864
51
281.8296308
0
ARC
8
DEFAULT_255_2_778
10
9.3889903
20
5.8300704
40
2.6551397
50
250.3550189
51
270.0793355
0
ARC
8
DEFAULT_255_2_778
10
9.3873162
20
5.8149794
40
2.6403665
50
191.9001656
51
250.2791382
0
ARC
8
DEFAULT_255_2_778
10
9.4230473
20
5.8190979
40
2.676181
50
179.9628467
51
191.8287004
0
LINE
8
DEFAULT_255_2_778
10
6.7468667
20
5.8208333
11
6.7468667
21
5.8208333
0
LINE
8
DEFAULT_255_2_778
10
8.5020656
20
6.1456844
11
8.5020656
21
5.9617844
0
LINE
8
DEFAULT_255_2_778
10
8.5020656
20
5.9617844
11
7.7628656
21
5.9617844
0
LINE
8
DEFAULT_255_2_778
10
7.7628656
20
5.9617844
11
7.7628656
21
5.3571844
0
LINE
8
DEFAULT_255_2_778
10
7.7628656
20
5.3571844
11
8.6214656
21
5.3571844
0
LINE
8
DEFAULT_255_2_778
10
8.6214656
20
5.3571844
11
8.6214656
21
5.1732844
0
LINE
8
DEFAULT_255_2_778
10
8.6214656
20
5.1732844
11
7.5379656
21
5.1732844
0
LINE
8
DEFAULT_255_2_778
10
7.5379656
20
5.1732844
11
7.5379656
21
6.8790844
0
LINE
8
DEFAULT_255_2_778
10
7.5379656
20
6.8790844
11
8.6097656
21
6.8790844
0
LINE
8
DEFAULT_255_2_778
10
8.6097656
20
6.8790844
11
8.6097656
21
6.6938844
0
LINE
8
DEFAULT_255_2_778
10
8.6097656
20
6.6938844
11
7.7628656
21
6.6938844
0
LINE
8
DEFAULT_255_2_778
10
7.7628656
20
6.6938844
11
7.7628656
21
6.1456844
0
LINE
8
DEFAULT_255_2_778
10
7.7628656
20
6.1456844
11
8.5020656
21
6.1456844
0
LINE
8
DEFAULT_255_2_778
10
8.5020656
20
6.1456844
11
8.5020656
21
6.1456844
0
LINE
8
DEFAULT_255_2_778
10
9.6220667
20
6.8791416
11
8.9111667
21
5.0270416
0
LINE
8
DEFAULT_255_2_778
10
8.9111667
20
5.0270416
11
8.7248667
21
5.0270416
0
LINE
8
DEFAULT_255_2_778
10
8.7248667
20
5.0270416
11
9.4371667
21
6.8791416
0
LINE
8
DEFAULT_255_2_778
10
9.4371667
20
6.8791416
11
9.6223667
21
6.8791416
0
LINE
8
DEFAULT_255_2_778
10
9.6223667
20
6.8791416
11
9.6220667
21
6.8791416
0
LINE
8
DEFAULT_255_2_778
10
11.2010948
20
6.8790844
11
11.2010948
21
5.1732844
0
LINE
8
DEFAULT_255_2_778
10
11.2010948
20
5.1732844
11
10.9748948
21
5.1732844
0
LINE
8
DEFAULT_255_2_778
10
10.9748948
20
5.1732844
11
10.9748948
21
5.9617844
0
LINE
8
DEFAULT_255_2_778
10
10.9748948
20
5.9617844
11
10.1149948
21
5.9617844
0
LINE
8
DEFAULT_255_2_778
10
10.1149948
20
5.9617844
11
10.1149948
21
5.1732844
0
LINE
8
DEFAULT_255_2_778
10
10.1149948
20
5.1732844
11
9.8900948
21
5.1732844
0
LINE
8
DEFAULT_255_2_778
10
9.8900948
20
5.1732844
11
9.8900948
21
6.8790844
0
LINE
8
DEFAULT_255_2_778
10
9.8900948
20
6.8790844
11
10.1149948
21
6.8790844
0
LINE
8
DEFAULT_255_2_778
10
10.1149948
20
6.8790844
11
10.1149948
21
6.1456844
0
LINE
8
DEFAULT_255_2_778
10
10.1149948
20
6.1456844
11
10.9748948
21
6.1456844
0
LINE
8
DEFAULT_255_2_778
10
10.9748948
20
6.1456844
11
10.9748948
21
6.8790844
0
LINE
8
DEFAULT_255_2_778
10
10.9748948
20
6.8790844
11
11.2010948
21
6.8790844
0
LINE
8
DEFAULT_255_2_778
10
11.2010948
20
6.8790844
11
11.2010948
21
6.8790844
0
ENDSEC
0
EOF