0
SECTION
2
HEADER
9
$MEASUREMENT
70
1
0
ENDSEC
0
SECTION
2
TABLES
0
TABLE
2
LTYPE
0
LTYPE
72
65
70
64
2
CONTINUOUS
3
______
73
0
40
0
0
ENDTAB
0
TABLE
2
LAYER
0
LAYER
2
DEFAULT_255_2_778
70
0
62
255
6
CONTINUOUS
0
ENDTAB
0
ENDSEC
0
SECTION
2
ENTITIES
0
LINE
8
DEFAULT_255_2_778
10
2.7781169
20
-2.1167
11
16.0073169
21
-2.1167
0
LINE
8
DEFAULT_255_2_778
10
12.0385667
20
-3.4395834
11
12.0385667
21
-0.7937834
0
LINE
8
DEFAULT_255_2_778
10
12.0385667
20
-0.7937834
11
6.7468667
21
-3.4395834
0
LINE
8
DEFAULT_255_2_778
10
6.7468667
20
-3.4395834
11
6.7468667
21
-0.7937834
0
LINE
8
DEFAULT_255_2_778
10
6.7468667
20
-0.7937834
11
12.0385667
21
-3.4395834
0
LINE
8
DEFAULT_255_2_778
10
6.7468667
20
8.4666333
11
12.0385667
21
8.4666333
0
LINE
8
DEFAULT_255_2_778
10
12.0385667
20
8.4666333
11
12.0385667
21
3.1749333
0
LINE
8
DEFAULT_255_2_778
10
12.0385667
20
3.1749333
11
6.7468667
21
3.1749333
0
LINE
8
DEFAULT_255_2_778
10
6.7468667
20
3.1749333
11
6.7468667
21
8.4666333
0
ARC
8
DEFAULT_255_2_778
10
10.2337418
20
8.8003369
40
3.1546912
50
248.318654
51
254.1740958
0
ARC
8
DEFAULT_255_2_778
10
9.7564953
20
7.6118693
40
1.8739935
50
239.7011746
51
248.4534933
0
ARC
8
DEFAULT_255_2_778
10
9.3582074
20
6.9328817
40
1.086812
50
227.9447274
51
239.7711932
0
ARC
8
DEFAULT_255_2_778
10
9.086686
20
6.6422526
40
0.6891772
50
179.0212429
51
228.5206422
0
ARC
8
DEFAULT_255_2_778
10
9.1254881
20
6.6649968
40
0.7279613
50
127.5519898
51
180.8635917
0
ARC
8
DEFAULT_255_2_778
10
9.3139372
20
6.4553806
40
1.0092335
50
100.0650603
51
128.7809352
0
ARC
8
DEFAULT_255_2_778
10
9.4126519
20
5.987612
40
1.4871354
50
89.6857073
51
100.6601378
0
ARC
8
DEFAULT_255_2_778
10
9.4347929
20
6.1756297
40
1.2991705
50
71.5442647
51
90.6167106
0
ARC
8
DEFAULT_255_2_778
10
9.4929104
20
6.3801871
40
1.0867781
50
63.7423952
51
71.0366237
0
ARC
8
DEFAULT_255_2_778
10
9.5850865
20
6.5331712
40
0.9089239
50
32.6937387
51
64.6869506
0
ARC
8
DEFAULT_255_2_778
10
9.6374055
20
6.5683017
40
0.8459191
50
359.6561413
51
32.6053683
0
ARC
8
DEFAULT_255_2_778
10
9.4617761
20
6.5769203
40
0.6226839
50
358.7397322
51
24.9561116
0
ARC
8
DEFAULT_255_2_778
10
9.5797663
20
6.6213496
40
0.4970553
50
26.0514622
51
48.2402418
0
ARC
8
DEFAULT_255_2_778
10
9.5181278
20
6.5396429
40
0.599115
50
49.0472791
51
80.0682129
0
ARC
8
DEFAULT_255_2_778
10
9.4281679
20
6.1276954
40
1.0205561
50
79.0822671
51
90.4131233
0
ARC
8
DEFAULT_255_2_778
10
9.4080953
20
6.1742095
40
0.9740984
50
89.2521422
51
104.3453321
0
ARC
8
DEFAULT_255_2_778
10
9.3062004
20
6.5702529
40
0.565158
50
104.2853283
51
127.4162974
0
ARC
8
DEFAULT_255_2_778
10
9.2287504
20
6.6803288
40
0.4307058
50
128.1304485
51
182.6620178
0
ARC
8
DEFAULT_255_2_778
10
9.186109
20
6.660097
40
0.3875996
50
179.966303
51
233.3257558
0
ARC
8
DEFAULT_255_2_778
10
9.4514283
20
6.9810862
40
0.8037896
50
231.8227911
51
244.2713348
0
ARC
8
DEFAULT_255_2_778
10
9.8615377
20
7.8061695
40
1.7251434
50
243.896887
51
250.9022393
0
ARC
8
DEFAULT_255_2_778
10
10.3020504
20
9.0429462
40
3.0379996
50
250.6831306
51
254.4163961
0
ARC
8
DEFAULT_255_2_778
10
8.5239291
20
2.6437451
40
3.603651
50
69.7134325
51
74.5173824
0
ARC
8
DEFAULT_255_2_778
10
9.0709977
20
4.1110142
40
2.0377237
50
62.613828
51
69.837395
0
ARC
8
DEFAULT_255_2_778
10
9.3895874
20
4.7431608
40
1.329901
50
59.0767533
51
62.2737309
0
ARC
8
DEFAULT_255_2_778
10
9.5714691
20
5.0217643
40
0.997515
50
42.3803509
51
59.8152578
0
ARC
8
DEFAULT_255_2_778
10
9.7686965
20
5.2121176
40
0.723559
50
31.2448458
51
41.7729483
0
ARC
8
DEFAULT_255_2_778
10
9.7446438
20
5.2112439
40
0.7446686
50
0.5004146
51
30.3423577
0
ARC
8
DEFAULT_255_2_778
10
9.4867799
20
5.1885393
40
1.0029295
50
359.9934678
51
1.6688617
0
ARC
8
DEFAULT_255_2_778
10
9.7868463
20
5.1680991
40
0.703157
50
306.4401508
51
1.6564556
0
ARC
8
DEFAULT_255_2_778
10
9.5966709
20
5.407862
40
1.0090572
50
282.9460572
51
307.0407311
0
ARC
8
DEFAULT_255_2_778
10
9.4631052
20
5.9485177
40
1.5659197
50
270.6385257
51
283.277031
0
ARC
8
DEFAULT_255_2_778
10
9.4418689
20
6.4028489
40
2.0205241
50
269.9954785
51
271.0971139
0
ARC
8
DEFAULT_255_2_778
10
9.43052
20
5.7977957
40
1.415515
50
246.3641925
51
270.4529183
0
ARC
8
DEFAULT_255_2_778
10
9.2721339
20
5.4612193
40
1.0437222
50
225.9675825
51
246.9218693
0
ARC
8
DEFAULT_255_2_778
10
9.1471507
20
5.3186783
40
0.8544211
50
215.170257
51
225.3493588
0
ARC
8
DEFAULT_255_2_778
10
9.0965633
20
5.285091
40
0.7937238
50
179.2395725
51
215.2917454
0
ARC
8
DEFAULT_255_2_778
10
9.2199434
20
5.2752859
40
0.5184331
50
177.7516081
51
232.3840225
0
ARC
8
DEFAULT_255_2_778
10
9.3467164
20
5.4469593
40
0.7318099
50
232.7257184
51
260.531933
0
ARC
8
DEFAULT_255_2_778
10
9.4349009
20
5.8779482
40
1.1715443
50
259.7451828
51
270.3427635
0
ARC
8
DEFAULT_255_2_778
10
9.4544997
20
5.8339562
40
1.1276016
50
269.3602484
51
282.1969729
0
ARC
8
DEFAULT_255_2_778
10
9.5732162
20
5.3113985
40
0.5917849
50
281.6514638
51
306.293865
0
ARC
8
DEFAULT_255_2_778
10
9.6752076
20
5.1683039
40
0.4160876
50
306.6377396
51
2.123984
0
ARC
8
DEFAULT_255_2_778
10
9.6592715
20
5.1988949
40
0.4320044
50
357.9876301
51
35.5201666
0
ARC
8
DEFAULT_255_2_778
10
9.6914642
20
5.2095047
40
0.3997649
50
36.9633268
51
52.303948
0
ARC
8
DEFAULT_255_2_778
10
9.4532722
20
4.8841381
40
0.8029326
50
53.0517721
51
64.4523644
0
ARC
8
DEFAULT_255_2_778
10
8.9835617
20
3.9315943
40
1.8649566
50
64.0532734
51
70.2493685
0
ARC
8
DEFAULT_255_2_778
10
8.3692178
20
2.2460113
40
3.6589942
50
70.1147132
51
74.0661888
0
LINE
8
DEFAULT_255_2_778
10
10.4833094
20
6.563225
11
10.0843094
21
6.563225
0
LINE
8
DEFAULT_255_2_778
10
8.3029094
20
5.295625
11
8.7019094
21
5.295625
0
LINE
8
DEFAULT_255_2_778
10
9.3737094
20
5.764425
11
9.3734094
21
5.765225
0
LINE
8
DEFAULT_255_2_778
10
9.3927
20
-2.1167667
11
9.3927
21
3.1749333
0
ENDSEC
0
EOF