0
SECTION
2
HEADER
9
$MEASUREMENT
70
1
0
ENDSEC
0
SECTION
2
TABLES
0
TABLE
2
LTYPE
0
LTYPE
72
65
70
64
2
CONTINUOUS
3
______
73
0
40
0
0
ENDTAB
0
TABLE
2
LAYER
0
LAYER
2
DEFAULT_255_2_778
70
0
62
255
6
CONTINUOUS
0
ENDTAB
0
ENDSEC
0
SECTION
2
ENTITIES
0
LINE
8
DEFAULT_255_2_778
10
9.3926251
20
-1.4551918
11
9.3926251
21
7.8052082
0
LINE
8
DEFAULT_255_2_778
10
9.3926251
20
7.8052082
11
5.4239251
21
7.8052082
0
LINE
8
DEFAULT_255_2_778
10
5.4239251
20
7.8052082
11
5.4239251
21
3.8365082
0
LINE
8
DEFAULT_255_2_778
10
5.4239251
20
3.8365082
11
9.3926251
21
-1.4551918
0
LINE
8
DEFAULT_255_2_778
10
2.7781169
20
-1.4552
11
16.0073169
21
-1.4552
0
LINE
8
DEFAULT_255_2_778
10
12.0385667
20
-2.7780834
11
12.0385667
21
-0.1322834
0
LINE
8
DEFAULT_255_2_778
10
12.0385667
20
-0.1322834
11
6.7468667
21
-2.7780834
0
LINE
8
DEFAULT_255_2_778
10
6.7468667
20
-2.7780834
11
6.7468667
21
-0.1322834
0
LINE
8
DEFAULT_255_2_778
10
6.7468667
20
-0.1322834
11
12.0385667
21
-2.7780834
0
ARC
8
DEFAULT_255_2_778
10
8.4119391
20
3.8189238
40
1.0037665
50
138.1227627
51
179.0014429
0
ARC
8
DEFAULT_255_2_778
10
8.8533116
20
3.4606957
40
1.5717802
50
122.046196
51
139.1399983
0
ARC
8
DEFAULT_255_2_778
10
9.1763193
20
2.9566948
40
2.1703798
50
108.7168399
51
122.2141892
0
ARC
8
DEFAULT_255_2_778
10
9.35207
20
2.451457
40
2.705299
50
96.3458634
51
108.8085432
0
ARC
8
DEFAULT_255_2_778
10
9.3912857
20
2.1607383
40
2.9985788
50
89.9724981
51
96.4766043
0
ARC
8
DEFAULT_255_2_778
10
9.3985192
20
2.2415805
40
2.9177419
50
77.7236507
51
90.1137803
0
ARC
8
DEFAULT_255_2_778
10
9.4966048
20
2.6781084
40
2.4703422
50
65.1792675
51
77.7938124
0
ARC
8
DEFAULT_255_2_778
10
9.7407327
20
3.1974999
40
1.8964524
50
50.8771643
51
65.286408
0
ARC
8
DEFAULT_255_2_778
10
10.108298
20
3.6399981
40
1.3212497
50
30.5761144
51
51.1349942
0
ARC
8
DEFAULT_255_2_778
10
10.4293185
20
3.8309704
40
0.9477221
50
0.3292623
51
30.5083527
0
ARC
8
DEFAULT_255_2_778
10
10.3733969
20
3.8539112
40
1.0037807
50
318.123361
51
359.0013616
0
ARC
8
DEFAULT_255_2_778
10
9.9320272
20
4.2121267
40
1.5717842
50
302.047175
51
319.1406482
0
ARC
8
DEFAULT_255_2_778
10
9.6090532
20
4.7160539
40
2.1703037
50
288.7178549
51
302.2151827
0
ARC
8
DEFAULT_255_2_778
10
9.433355
20
5.2211073
40
2.7050314
50
276.3464228
51
288.8095658
0
ARC
8
DEFAULT_255_2_778
10
9.3941629
20
5.5116184
40
2.9981023
50
269.972521
51
276.4771193
0
ARC
8
DEFAULT_255_2_778
10
9.386926
20
5.4316591
40
2.9181482
50
257.7245072
51
270.1138602
0
ARC
8
DEFAULT_255_2_778
10
9.2887967
20
4.9948957
40
2.4705091
50
245.1803349
51
257.7946501
0
ARC
8
DEFAULT_255_2_778
10
9.0446206
20
4.4753728
40
1.89648
50
230.8780306
51
245.2874521
0
ARC
8
DEFAULT_255_2_778
10
8.6770337
20
4.032834
40
1.3212321
50
210.5765036
51
231.1358552
0
ARC
8
DEFAULT_255_2_778
10
8.356022
20
3.8418623
40
0.9477126
50
180.3292314
51
210.5086531
0
LINE
8
DEFAULT_255_2_778
10
7.4083251
20
3.8364166
11
7.4083251
21
3.8364166
0
LINE
8
DEFAULT_255_2_778
10
7.4083251
20
3.8364
11
11.3770251
21
3.8364
0
LINE
8
DEFAULT_255_2_778
10
9.3926667
20
3.8364333
11
14.6843667
21
3.8364333
0
LINE
8
DEFAULT_255_2_778
10
14.6843667
20
3.8364333
11
14.6843667
21
-1.4552667
0
ENDSEC
0
EOF